G04 #@! TF.GenerationSoftware,KiCad,Pcbnew,(6.0.7-1)-1*
G04 #@! TF.CreationDate,2022-12-09T20:13:00+01:00*
G04 #@! TF.ProjectId,ESC-logic,4553432d-6c6f-4676-9963-2e6b69636164,rev?*
G04 #@! TF.SameCoordinates,Original*
G04 #@! TF.FileFunction,Legend,Bot*
G04 #@! TF.FilePolarity,Positive*
%FSLAX46Y46*%
G04 Gerber Fmt 4.6, Leading zero omitted, Abs format (unit mm)*
G04 Created by KiCad (PCBNEW (6.0.7-1)-1) date 2022-12-09 20:13:00*
%MOMM*%
%LPD*%
G01*
G04 APERTURE LIST*
G04 Aperture macros list*
%AMRoundRect*
0 Rectangle with rounded corners*
0 $1 Rounding radius*
0 $2 $3 $4 $5 $6 $7 $8 $9 X,Y pos of 4 corners*
0 Add a 4 corners polygon primitive as box body*
4,1,4,$2,$3,$4,$5,$6,$7,$8,$9,$2,$3,0*
0 Add four circle primitives for the rounded corners*
1,1,$1+$1,$2,$3*
1,1,$1+$1,$4,$5*
1,1,$1+$1,$6,$7*
1,1,$1+$1,$8,$9*
0 Add four rect primitives between the rounded corners*
20,1,$1+$1,$2,$3,$4,$5,0*
20,1,$1+$1,$4,$5,$6,$7,0*
20,1,$1+$1,$6,$7,$8,$9,0*
20,1,$1+$1,$8,$9,$2,$3,0*%
G04 Aperture macros list end*
%ADD10RoundRect,0.250000X-0.625000X0.350000X-0.625000X-0.350000X0.625000X-0.350000X0.625000X0.350000X0*%
%ADD11O,1.750000X1.200000*%
%ADD12R,1.700000X1.700000*%
%ADD13O,1.700000X1.700000*%
%ADD14RoundRect,0.250000X-0.350000X-0.625000X0.350000X-0.625000X0.350000X0.625000X-0.350000X0.625000X0*%
%ADD15O,1.200000X1.750000*%
%ADD16C,0.650000*%
%ADD17O,1.600000X1.000000*%
%ADD18O,2.100000X1.000000*%
G04 APERTURE END LIST*
%LPC*%
D10*
X103250000Y-103250000D03*
D11*
X103250000Y-105250000D03*
X103250000Y-107250000D03*
X103250000Y-109250000D03*
D12*
X107825000Y-106625000D03*
D13*
X110365000Y-106625000D03*
X107825000Y-109165000D03*
X110365000Y-109165000D03*
D10*
X103250000Y-94250000D03*
D11*
X103250000Y-96250000D03*
X103250000Y-98250000D03*
D14*
X129800000Y-113000000D03*
D15*
X131800000Y-113000000D03*
X133800000Y-113000000D03*
X135800000Y-113000000D03*
X137800000Y-113000000D03*
X139800000Y-113000000D03*
X141800000Y-113000000D03*
D14*
X114900000Y-113000000D03*
D15*
X116900000Y-113000000D03*
X118900000Y-113000000D03*
X120900000Y-113000000D03*
X122900000Y-113000000D03*
X124900000Y-113000000D03*
D12*
X119200000Y-73375000D03*
D13*
X119200000Y-70835000D03*
X121740000Y-73375000D03*
X121740000Y-70835000D03*
X124280000Y-73375000D03*
X124280000Y-70835000D03*
X126820000Y-73375000D03*
X126820000Y-70835000D03*
D10*
X103200000Y-81300000D03*
D11*
X103200000Y-83300000D03*
X103200000Y-85300000D03*
X103200000Y-87300000D03*
X103200000Y-89300000D03*
D16*
X104600000Y-70610000D03*
X104600000Y-76390000D03*
D17*
X100950000Y-77820000D03*
D18*
X105130000Y-77820000D03*
X105130000Y-69180000D03*
D17*
X100950000Y-69180000D03*
D12*
X145200000Y-70800000D03*
D13*
X142660000Y-70800000D03*
D12*
X130500000Y-109200000D03*
D13*
X130500000Y-106660000D03*
X133040000Y-109200000D03*
X133040000Y-106660000D03*
X135580000Y-109200000D03*
X135580000Y-106660000D03*
X138120000Y-109200000D03*
X138120000Y-106660000D03*
M02*
