G04 #@! TF.GenerationSoftware,KiCad,Pcbnew,(6.0.7-1)-1*
G04 #@! TF.CreationDate,2022-11-25T13:43:26+01:00*
G04 #@! TF.ProjectId,ESC-logic,4553432d-6c6f-4676-9963-2e6b69636164,rev?*
G04 #@! TF.SameCoordinates,Original*
G04 #@! TF.FileFunction,Legend,Top*
G04 #@! TF.FilePolarity,Positive*
%FSLAX46Y46*%
G04 Gerber Fmt 4.6, Leading zero omitted, Abs format (unit mm)*
G04 Created by KiCad (PCBNEW (6.0.7-1)-1) date 2022-11-25 13:43:26*
%MOMM*%
%LPD*%
G01*
G04 APERTURE LIST*
G04 Aperture macros list*
%AMRoundRect*
0 Rectangle with rounded corners*
0 $1 Rounding radius*
0 $2 $3 $4 $5 $6 $7 $8 $9 X,Y pos of 4 corners*
0 Add a 4 corners polygon primitive as box body*
4,1,4,$2,$3,$4,$5,$6,$7,$8,$9,$2,$3,0*
0 Add four circle primitives for the rounded corners*
1,1,$1+$1,$2,$3*
1,1,$1+$1,$4,$5*
1,1,$1+$1,$6,$7*
1,1,$1+$1,$8,$9*
0 Add four rect primitives between the rounded corners*
20,1,$1+$1,$2,$3,$4,$5,0*
20,1,$1+$1,$4,$5,$6,$7,0*
20,1,$1+$1,$6,$7,$8,$9,0*
20,1,$1+$1,$8,$9,$2,$3,0*%
%AMFreePoly0*
4,1,9,3.862500,-0.866500,0.737500,-0.866500,0.737500,-0.450000,-0.737500,-0.450000,-0.737500,0.450000,0.737500,0.450000,0.737500,0.866500,3.862500,0.866500,3.862500,-0.866500,3.862500,-0.866500,$1*%
G04 Aperture macros list end*
%ADD10C,0.150000*%
%ADD11C,0.120000*%
%ADD12RoundRect,0.075000X0.075000X-0.700000X0.075000X0.700000X-0.075000X0.700000X-0.075000X-0.700000X0*%
%ADD13RoundRect,0.075000X0.700000X-0.075000X0.700000X0.075000X-0.700000X0.075000X-0.700000X-0.075000X0*%
%ADD14RoundRect,0.250000X0.262500X0.450000X-0.262500X0.450000X-0.262500X-0.450000X0.262500X-0.450000X0*%
%ADD15RoundRect,0.250000X-0.475000X0.250000X-0.475000X-0.250000X0.475000X-0.250000X0.475000X0.250000X0*%
%ADD16RoundRect,0.250000X0.475000X-0.250000X0.475000X0.250000X-0.475000X0.250000X-0.475000X-0.250000X0*%
%ADD17RoundRect,0.250000X-0.262500X-0.450000X0.262500X-0.450000X0.262500X0.450000X-0.262500X0.450000X0*%
%ADD18RoundRect,0.250000X0.450000X-0.262500X0.450000X0.262500X-0.450000X0.262500X-0.450000X-0.262500X0*%
%ADD19RoundRect,0.150000X0.150000X-0.512500X0.150000X0.512500X-0.150000X0.512500X-0.150000X-0.512500X0*%
%ADD20RoundRect,0.250000X-0.625000X0.350000X-0.625000X-0.350000X0.625000X-0.350000X0.625000X0.350000X0*%
%ADD21O,1.750000X1.200000*%
%ADD22RoundRect,0.250000X0.250000X0.475000X-0.250000X0.475000X-0.250000X-0.475000X0.250000X-0.475000X0*%
%ADD23R,1.700000X1.700000*%
%ADD24O,1.700000X1.700000*%
%ADD25RoundRect,0.243750X-0.243750X-0.456250X0.243750X-0.456250X0.243750X0.456250X-0.243750X0.456250X0*%
%ADD26RoundRect,0.150000X0.650000X0.150000X-0.650000X0.150000X-0.650000X-0.150000X0.650000X-0.150000X0*%
%ADD27R,2.410000X3.100000*%
%ADD28RoundRect,0.250000X-0.250000X-0.475000X0.250000X-0.475000X0.250000X0.475000X-0.250000X0.475000X0*%
%ADD29R,1.800000X7.500000*%
%ADD30R,1.300000X0.900000*%
%ADD31FreePoly0,180.000000*%
%ADD32R,1.200000X3.700000*%
%ADD33R,1.200000X0.900000*%
%ADD34RoundRect,0.250000X-0.350000X-0.625000X0.350000X-0.625000X0.350000X0.625000X-0.350000X0.625000X0*%
%ADD35O,1.200000X1.750000*%
%ADD36R,1.400000X1.200000*%
%ADD37RoundRect,0.150000X0.825000X0.150000X-0.825000X0.150000X-0.825000X-0.150000X0.825000X-0.150000X0*%
%ADD38R,0.450000X0.700000*%
%ADD39RoundRect,0.250000X0.325000X1.100000X-0.325000X1.100000X-0.325000X-1.100000X0.325000X-1.100000X0*%
%ADD40C,0.650000*%
%ADD41R,1.450000X0.600000*%
%ADD42R,1.450000X0.300000*%
%ADD43O,1.600000X1.000000*%
%ADD44O,2.100000X1.000000*%
G04 APERTURE END LIST*
D10*
X110452380Y-91561904D02*
X111261904Y-91561904D01*
X111357142Y-91514285D01*
X111404761Y-91466666D01*
X111452380Y-91371428D01*
X111452380Y-91180952D01*
X111404761Y-91085714D01*
X111357142Y-91038095D01*
X111261904Y-90990476D01*
X110452380Y-90990476D01*
X110547619Y-90561904D02*
X110500000Y-90514285D01*
X110452380Y-90419047D01*
X110452380Y-90180952D01*
X110500000Y-90085714D01*
X110547619Y-90038095D01*
X110642857Y-89990476D01*
X110738095Y-89990476D01*
X110880952Y-90038095D01*
X111452380Y-90609523D01*
X111452380Y-89990476D01*
X116545833Y-75152380D02*
X116212500Y-74676190D01*
X115974404Y-75152380D02*
X115974404Y-74152380D01*
X116355357Y-74152380D01*
X116450595Y-74200000D01*
X116498214Y-74247619D01*
X116545833Y-74342857D01*
X116545833Y-74485714D01*
X116498214Y-74580952D01*
X116450595Y-74628571D01*
X116355357Y-74676190D01*
X115974404Y-74676190D01*
X117402976Y-74485714D02*
X117402976Y-75152380D01*
X117164880Y-74104761D02*
X116926785Y-74819047D01*
X117545833Y-74819047D01*
X127837142Y-97442857D02*
X127884761Y-97490476D01*
X127932380Y-97633333D01*
X127932380Y-97728571D01*
X127884761Y-97871428D01*
X127789523Y-97966666D01*
X127694285Y-98014285D01*
X127503809Y-98061904D01*
X127360952Y-98061904D01*
X127170476Y-98014285D01*
X127075238Y-97966666D01*
X126980000Y-97871428D01*
X126932380Y-97728571D01*
X126932380Y-97633333D01*
X126980000Y-97490476D01*
X127027619Y-97442857D01*
X127932380Y-96490476D02*
X127932380Y-97061904D01*
X127932380Y-96776190D02*
X126932380Y-96776190D01*
X127075238Y-96871428D01*
X127170476Y-96966666D01*
X127218095Y-97061904D01*
X127932380Y-95538095D02*
X127932380Y-96109523D01*
X127932380Y-95823809D02*
X126932380Y-95823809D01*
X127075238Y-95919047D01*
X127170476Y-96014285D01*
X127218095Y-96109523D01*
X115457142Y-108242857D02*
X115504761Y-108290476D01*
X115552380Y-108433333D01*
X115552380Y-108528571D01*
X115504761Y-108671428D01*
X115409523Y-108766666D01*
X115314285Y-108814285D01*
X115123809Y-108861904D01*
X114980952Y-108861904D01*
X114790476Y-108814285D01*
X114695238Y-108766666D01*
X114600000Y-108671428D01*
X114552380Y-108528571D01*
X114552380Y-108433333D01*
X114600000Y-108290476D01*
X114647619Y-108242857D01*
X114885714Y-107385714D02*
X115552380Y-107385714D01*
X114504761Y-107623809D02*
X115219047Y-107861904D01*
X115219047Y-107242857D01*
X114552380Y-106385714D02*
X114552380Y-106861904D01*
X115028571Y-106909523D01*
X114980952Y-106861904D01*
X114933333Y-106766666D01*
X114933333Y-106528571D01*
X114980952Y-106433333D01*
X115028571Y-106385714D01*
X115123809Y-106338095D01*
X115361904Y-106338095D01*
X115457142Y-106385714D01*
X115504761Y-106433333D01*
X115552380Y-106528571D01*
X115552380Y-106766666D01*
X115504761Y-106861904D01*
X115457142Y-106909523D01*
X147752380Y-99442857D02*
X147276190Y-99776190D01*
X147752380Y-100014285D02*
X146752380Y-100014285D01*
X146752380Y-99633333D01*
X146800000Y-99538095D01*
X146847619Y-99490476D01*
X146942857Y-99442857D01*
X147085714Y-99442857D01*
X147180952Y-99490476D01*
X147228571Y-99538095D01*
X147276190Y-99633333D01*
X147276190Y-100014285D01*
X146847619Y-99061904D02*
X146800000Y-99014285D01*
X146752380Y-98919047D01*
X146752380Y-98680952D01*
X146800000Y-98585714D01*
X146847619Y-98538095D01*
X146942857Y-98490476D01*
X147038095Y-98490476D01*
X147180952Y-98538095D01*
X147752380Y-99109523D01*
X147752380Y-98490476D01*
X146847619Y-98109523D02*
X146800000Y-98061904D01*
X146752380Y-97966666D01*
X146752380Y-97728571D01*
X146800000Y-97633333D01*
X146847619Y-97585714D01*
X146942857Y-97538095D01*
X147038095Y-97538095D01*
X147180952Y-97585714D01*
X147752380Y-98157142D01*
X147752380Y-97538095D01*
X99352380Y-113442857D02*
X98876190Y-113776190D01*
X99352380Y-114014285D02*
X98352380Y-114014285D01*
X98352380Y-113633333D01*
X98400000Y-113538095D01*
X98447619Y-113490476D01*
X98542857Y-113442857D01*
X98685714Y-113442857D01*
X98780952Y-113490476D01*
X98828571Y-113538095D01*
X98876190Y-113633333D01*
X98876190Y-114014285D01*
X99352380Y-112490476D02*
X99352380Y-113061904D01*
X99352380Y-112776190D02*
X98352380Y-112776190D01*
X98495238Y-112871428D01*
X98590476Y-112966666D01*
X98638095Y-113061904D01*
X98685714Y-111633333D02*
X99352380Y-111633333D01*
X98304761Y-111871428D02*
X99019047Y-112109523D01*
X99019047Y-111490476D01*
X145457142Y-74252380D02*
X145123809Y-73776190D01*
X144885714Y-74252380D02*
X144885714Y-73252380D01*
X145266666Y-73252380D01*
X145361904Y-73300000D01*
X145409523Y-73347619D01*
X145457142Y-73442857D01*
X145457142Y-73585714D01*
X145409523Y-73680952D01*
X145361904Y-73728571D01*
X145266666Y-73776190D01*
X144885714Y-73776190D01*
X146409523Y-74252380D02*
X145838095Y-74252380D01*
X146123809Y-74252380D02*
X146123809Y-73252380D01*
X146028571Y-73395238D01*
X145933333Y-73490476D01*
X145838095Y-73538095D01*
X146742857Y-73252380D02*
X147409523Y-73252380D01*
X146980952Y-74252380D01*
X118587142Y-102056666D02*
X118634761Y-102104285D01*
X118682380Y-102247142D01*
X118682380Y-102342380D01*
X118634761Y-102485238D01*
X118539523Y-102580476D01*
X118444285Y-102628095D01*
X118253809Y-102675714D01*
X118110952Y-102675714D01*
X117920476Y-102628095D01*
X117825238Y-102580476D01*
X117730000Y-102485238D01*
X117682380Y-102342380D01*
X117682380Y-102247142D01*
X117730000Y-102104285D01*
X117777619Y-102056666D01*
X117777619Y-101675714D02*
X117730000Y-101628095D01*
X117682380Y-101532857D01*
X117682380Y-101294761D01*
X117730000Y-101199523D01*
X117777619Y-101151904D01*
X117872857Y-101104285D01*
X117968095Y-101104285D01*
X118110952Y-101151904D01*
X118682380Y-101723333D01*
X118682380Y-101104285D01*
X140752380Y-93061904D02*
X141561904Y-93061904D01*
X141657142Y-93014285D01*
X141704761Y-92966666D01*
X141752380Y-92871428D01*
X141752380Y-92680952D01*
X141704761Y-92585714D01*
X141657142Y-92538095D01*
X141561904Y-92490476D01*
X140752380Y-92490476D01*
X141180952Y-91871428D02*
X141133333Y-91966666D01*
X141085714Y-92014285D01*
X140990476Y-92061904D01*
X140942857Y-92061904D01*
X140847619Y-92014285D01*
X140800000Y-91966666D01*
X140752380Y-91871428D01*
X140752380Y-91680952D01*
X140800000Y-91585714D01*
X140847619Y-91538095D01*
X140942857Y-91490476D01*
X140990476Y-91490476D01*
X141085714Y-91538095D01*
X141133333Y-91585714D01*
X141180952Y-91680952D01*
X141180952Y-91871428D01*
X141228571Y-91966666D01*
X141276190Y-92014285D01*
X141371428Y-92061904D01*
X141561904Y-92061904D01*
X141657142Y-92014285D01*
X141704761Y-91966666D01*
X141752380Y-91871428D01*
X141752380Y-91680952D01*
X141704761Y-91585714D01*
X141657142Y-91538095D01*
X141561904Y-91490476D01*
X141371428Y-91490476D01*
X141276190Y-91538095D01*
X141228571Y-91585714D01*
X141180952Y-91680952D01*
X121452380Y-108242857D02*
X120976190Y-108576190D01*
X121452380Y-108814285D02*
X120452380Y-108814285D01*
X120452380Y-108433333D01*
X120500000Y-108338095D01*
X120547619Y-108290476D01*
X120642857Y-108242857D01*
X120785714Y-108242857D01*
X120880952Y-108290476D01*
X120928571Y-108338095D01*
X120976190Y-108433333D01*
X120976190Y-108814285D01*
X120547619Y-107861904D02*
X120500000Y-107814285D01*
X120452380Y-107719047D01*
X120452380Y-107480952D01*
X120500000Y-107385714D01*
X120547619Y-107338095D01*
X120642857Y-107290476D01*
X120738095Y-107290476D01*
X120880952Y-107338095D01*
X121452380Y-107909523D01*
X121452380Y-107290476D01*
X120452380Y-106957142D02*
X120452380Y-106290476D01*
X121452380Y-106719047D01*
X140807142Y-111757142D02*
X140759523Y-111804761D01*
X140616666Y-111852380D01*
X140521428Y-111852380D01*
X140378571Y-111804761D01*
X140283333Y-111709523D01*
X140235714Y-111614285D01*
X140188095Y-111423809D01*
X140188095Y-111280952D01*
X140235714Y-111090476D01*
X140283333Y-110995238D01*
X140378571Y-110900000D01*
X140521428Y-110852380D01*
X140616666Y-110852380D01*
X140759523Y-110900000D01*
X140807142Y-110947619D01*
X141140476Y-110852380D02*
X141759523Y-110852380D01*
X141426190Y-111233333D01*
X141569047Y-111233333D01*
X141664285Y-111280952D01*
X141711904Y-111328571D01*
X141759523Y-111423809D01*
X141759523Y-111661904D01*
X141711904Y-111757142D01*
X141664285Y-111804761D01*
X141569047Y-111852380D01*
X141283333Y-111852380D01*
X141188095Y-111804761D01*
X141140476Y-111757142D01*
X142235714Y-111852380D02*
X142426190Y-111852380D01*
X142521428Y-111804761D01*
X142569047Y-111757142D01*
X142664285Y-111614285D01*
X142711904Y-111423809D01*
X142711904Y-111042857D01*
X142664285Y-110947619D01*
X142616666Y-110900000D01*
X142521428Y-110852380D01*
X142330952Y-110852380D01*
X142235714Y-110900000D01*
X142188095Y-110947619D01*
X142140476Y-111042857D01*
X142140476Y-111280952D01*
X142188095Y-111376190D01*
X142235714Y-111423809D01*
X142330952Y-111471428D01*
X142521428Y-111471428D01*
X142616666Y-111423809D01*
X142664285Y-111376190D01*
X142711904Y-111280952D01*
X116520833Y-70752380D02*
X116187500Y-70276190D01*
X115949404Y-70752380D02*
X115949404Y-69752380D01*
X116330357Y-69752380D01*
X116425595Y-69800000D01*
X116473214Y-69847619D01*
X116520833Y-69942857D01*
X116520833Y-70085714D01*
X116473214Y-70180952D01*
X116425595Y-70228571D01*
X116330357Y-70276190D01*
X115949404Y-70276190D01*
X117473214Y-70752380D02*
X116901785Y-70752380D01*
X117187500Y-70752380D02*
X117187500Y-69752380D01*
X117092261Y-69895238D01*
X116997023Y-69990476D01*
X116901785Y-70038095D01*
X106461666Y-103647380D02*
X106461666Y-104361666D01*
X106414047Y-104504523D01*
X106318809Y-104599761D01*
X106175952Y-104647380D01*
X106080714Y-104647380D01*
X107080714Y-104075952D02*
X106985476Y-104028333D01*
X106937857Y-103980714D01*
X106890238Y-103885476D01*
X106890238Y-103837857D01*
X106937857Y-103742619D01*
X106985476Y-103695000D01*
X107080714Y-103647380D01*
X107271190Y-103647380D01*
X107366428Y-103695000D01*
X107414047Y-103742619D01*
X107461666Y-103837857D01*
X107461666Y-103885476D01*
X107414047Y-103980714D01*
X107366428Y-104028333D01*
X107271190Y-104075952D01*
X107080714Y-104075952D01*
X106985476Y-104123571D01*
X106937857Y-104171190D01*
X106890238Y-104266428D01*
X106890238Y-104456904D01*
X106937857Y-104552142D01*
X106985476Y-104599761D01*
X107080714Y-104647380D01*
X107271190Y-104647380D01*
X107366428Y-104599761D01*
X107414047Y-104552142D01*
X107461666Y-104456904D01*
X107461666Y-104266428D01*
X107414047Y-104171190D01*
X107366428Y-104123571D01*
X107271190Y-104075952D01*
X107733333Y-77452380D02*
X107400000Y-76976190D01*
X107161904Y-77452380D02*
X107161904Y-76452380D01*
X107542857Y-76452380D01*
X107638095Y-76500000D01*
X107685714Y-76547619D01*
X107733333Y-76642857D01*
X107733333Y-76785714D01*
X107685714Y-76880952D01*
X107638095Y-76928571D01*
X107542857Y-76976190D01*
X107161904Y-76976190D01*
X108304761Y-76880952D02*
X108209523Y-76833333D01*
X108161904Y-76785714D01*
X108114285Y-76690476D01*
X108114285Y-76642857D01*
X108161904Y-76547619D01*
X108209523Y-76500000D01*
X108304761Y-76452380D01*
X108495238Y-76452380D01*
X108590476Y-76500000D01*
X108638095Y-76547619D01*
X108685714Y-76642857D01*
X108685714Y-76690476D01*
X108638095Y-76785714D01*
X108590476Y-76833333D01*
X108495238Y-76880952D01*
X108304761Y-76880952D01*
X108209523Y-76928571D01*
X108161904Y-76976190D01*
X108114285Y-77071428D01*
X108114285Y-77261904D01*
X108161904Y-77357142D01*
X108209523Y-77404761D01*
X108304761Y-77452380D01*
X108495238Y-77452380D01*
X108590476Y-77404761D01*
X108638095Y-77357142D01*
X108685714Y-77261904D01*
X108685714Y-77071428D01*
X108638095Y-76976190D01*
X108590476Y-76928571D01*
X108495238Y-76880952D01*
X107161904Y-75152380D02*
X107161904Y-74152380D01*
X107400000Y-74152380D01*
X107542857Y-74200000D01*
X107638095Y-74295238D01*
X107685714Y-74390476D01*
X107733333Y-74580952D01*
X107733333Y-74723809D01*
X107685714Y-74914285D01*
X107638095Y-75009523D01*
X107542857Y-75104761D01*
X107400000Y-75152380D01*
X107161904Y-75152380D01*
X108590476Y-74485714D02*
X108590476Y-75152380D01*
X108352380Y-74104761D02*
X108114285Y-74819047D01*
X108733333Y-74819047D01*
X141338095Y-80652380D02*
X141338095Y-81461904D01*
X141385714Y-81557142D01*
X141433333Y-81604761D01*
X141528571Y-81652380D01*
X141719047Y-81652380D01*
X141814285Y-81604761D01*
X141861904Y-81557142D01*
X141909523Y-81461904D01*
X141909523Y-80652380D01*
X142290476Y-80652380D02*
X142957142Y-80652380D01*
X142528571Y-81652380D01*
X119452380Y-108242857D02*
X118976190Y-108576190D01*
X119452380Y-108814285D02*
X118452380Y-108814285D01*
X118452380Y-108433333D01*
X118500000Y-108338095D01*
X118547619Y-108290476D01*
X118642857Y-108242857D01*
X118785714Y-108242857D01*
X118880952Y-108290476D01*
X118928571Y-108338095D01*
X118976190Y-108433333D01*
X118976190Y-108814285D01*
X118547619Y-107861904D02*
X118500000Y-107814285D01*
X118452380Y-107719047D01*
X118452380Y-107480952D01*
X118500000Y-107385714D01*
X118547619Y-107338095D01*
X118642857Y-107290476D01*
X118738095Y-107290476D01*
X118880952Y-107338095D01*
X119452380Y-107909523D01*
X119452380Y-107290476D01*
X118452380Y-106385714D02*
X118452380Y-106861904D01*
X118928571Y-106909523D01*
X118880952Y-106861904D01*
X118833333Y-106766666D01*
X118833333Y-106528571D01*
X118880952Y-106433333D01*
X118928571Y-106385714D01*
X119023809Y-106338095D01*
X119261904Y-106338095D01*
X119357142Y-106385714D01*
X119404761Y-106433333D01*
X119452380Y-106528571D01*
X119452380Y-106766666D01*
X119404761Y-106861904D01*
X119357142Y-106909523D01*
X129033333Y-83757142D02*
X128985714Y-83804761D01*
X128842857Y-83852380D01*
X128747619Y-83852380D01*
X128604761Y-83804761D01*
X128509523Y-83709523D01*
X128461904Y-83614285D01*
X128414285Y-83423809D01*
X128414285Y-83280952D01*
X128461904Y-83090476D01*
X128509523Y-82995238D01*
X128604761Y-82900000D01*
X128747619Y-82852380D01*
X128842857Y-82852380D01*
X128985714Y-82900000D01*
X129033333Y-82947619D01*
X129604761Y-83280952D02*
X129509523Y-83233333D01*
X129461904Y-83185714D01*
X129414285Y-83090476D01*
X129414285Y-83042857D01*
X129461904Y-82947619D01*
X129509523Y-82900000D01*
X129604761Y-82852380D01*
X129795238Y-82852380D01*
X129890476Y-82900000D01*
X129938095Y-82947619D01*
X129985714Y-83042857D01*
X129985714Y-83090476D01*
X129938095Y-83185714D01*
X129890476Y-83233333D01*
X129795238Y-83280952D01*
X129604761Y-83280952D01*
X129509523Y-83328571D01*
X129461904Y-83376190D01*
X129414285Y-83471428D01*
X129414285Y-83661904D01*
X129461904Y-83757142D01*
X129509523Y-83804761D01*
X129604761Y-83852380D01*
X129795238Y-83852380D01*
X129890476Y-83804761D01*
X129938095Y-83757142D01*
X129985714Y-83661904D01*
X129985714Y-83471428D01*
X129938095Y-83376190D01*
X129890476Y-83328571D01*
X129795238Y-83280952D01*
X107149404Y-70752380D02*
X107149404Y-69752380D01*
X107387500Y-69752380D01*
X107530357Y-69800000D01*
X107625595Y-69895238D01*
X107673214Y-69990476D01*
X107720833Y-70180952D01*
X107720833Y-70323809D01*
X107673214Y-70514285D01*
X107625595Y-70609523D01*
X107530357Y-70704761D01*
X107387500Y-70752380D01*
X107149404Y-70752380D01*
X108673214Y-70752380D02*
X108101785Y-70752380D01*
X108387500Y-70752380D02*
X108387500Y-69752380D01*
X108292261Y-69895238D01*
X108197023Y-69990476D01*
X108101785Y-70038095D01*
X108257142Y-92257142D02*
X108209523Y-92304761D01*
X108066666Y-92352380D01*
X107971428Y-92352380D01*
X107828571Y-92304761D01*
X107733333Y-92209523D01*
X107685714Y-92114285D01*
X107638095Y-91923809D01*
X107638095Y-91780952D01*
X107685714Y-91590476D01*
X107733333Y-91495238D01*
X107828571Y-91400000D01*
X107971428Y-91352380D01*
X108066666Y-91352380D01*
X108209523Y-91400000D01*
X108257142Y-91447619D01*
X109114285Y-91685714D02*
X109114285Y-92352380D01*
X108876190Y-91304761D02*
X108638095Y-92019047D01*
X109257142Y-92019047D01*
X109685714Y-92352380D02*
X109876190Y-92352380D01*
X109971428Y-92304761D01*
X110019047Y-92257142D01*
X110114285Y-92114285D01*
X110161904Y-91923809D01*
X110161904Y-91542857D01*
X110114285Y-91447619D01*
X110066666Y-91400000D01*
X109971428Y-91352380D01*
X109780952Y-91352380D01*
X109685714Y-91400000D01*
X109638095Y-91447619D01*
X109590476Y-91542857D01*
X109590476Y-91780952D01*
X109638095Y-91876190D01*
X109685714Y-91923809D01*
X109780952Y-91971428D01*
X109971428Y-91971428D01*
X110066666Y-91923809D01*
X110114285Y-91876190D01*
X110161904Y-91780952D01*
X108257142Y-94652380D02*
X107923809Y-94176190D01*
X107685714Y-94652380D02*
X107685714Y-93652380D01*
X108066666Y-93652380D01*
X108161904Y-93700000D01*
X108209523Y-93747619D01*
X108257142Y-93842857D01*
X108257142Y-93985714D01*
X108209523Y-94080952D01*
X108161904Y-94128571D01*
X108066666Y-94176190D01*
X107685714Y-94176190D01*
X109114285Y-93985714D02*
X109114285Y-94652380D01*
X108876190Y-93604761D02*
X108638095Y-94319047D01*
X109257142Y-94319047D01*
X109828571Y-93652380D02*
X109923809Y-93652380D01*
X110019047Y-93700000D01*
X110066666Y-93747619D01*
X110114285Y-93842857D01*
X110161904Y-94033333D01*
X110161904Y-94271428D01*
X110114285Y-94461904D01*
X110066666Y-94557142D01*
X110019047Y-94604761D01*
X109923809Y-94652380D01*
X109828571Y-94652380D01*
X109733333Y-94604761D01*
X109685714Y-94557142D01*
X109638095Y-94461904D01*
X109590476Y-94271428D01*
X109590476Y-94033333D01*
X109638095Y-93842857D01*
X109685714Y-93747619D01*
X109733333Y-93700000D01*
X109828571Y-93652380D01*
X136533333Y-90952380D02*
X136057142Y-90952380D01*
X136057142Y-89952380D01*
X137390476Y-90952380D02*
X136819047Y-90952380D01*
X137104761Y-90952380D02*
X137104761Y-89952380D01*
X137009523Y-90095238D01*
X136914285Y-90190476D01*
X136819047Y-90238095D01*
X136857142Y-99157142D02*
X136809523Y-99204761D01*
X136666666Y-99252380D01*
X136571428Y-99252380D01*
X136428571Y-99204761D01*
X136333333Y-99109523D01*
X136285714Y-99014285D01*
X136238095Y-98823809D01*
X136238095Y-98680952D01*
X136285714Y-98490476D01*
X136333333Y-98395238D01*
X136428571Y-98300000D01*
X136571428Y-98252380D01*
X136666666Y-98252380D01*
X136809523Y-98300000D01*
X136857142Y-98347619D01*
X137190476Y-98252380D02*
X137809523Y-98252380D01*
X137476190Y-98633333D01*
X137619047Y-98633333D01*
X137714285Y-98680952D01*
X137761904Y-98728571D01*
X137809523Y-98823809D01*
X137809523Y-99061904D01*
X137761904Y-99157142D01*
X137714285Y-99204761D01*
X137619047Y-99252380D01*
X137333333Y-99252380D01*
X137238095Y-99204761D01*
X137190476Y-99157142D01*
X138428571Y-98252380D02*
X138523809Y-98252380D01*
X138619047Y-98300000D01*
X138666666Y-98347619D01*
X138714285Y-98442857D01*
X138761904Y-98633333D01*
X138761904Y-98871428D01*
X138714285Y-99061904D01*
X138666666Y-99157142D01*
X138619047Y-99204761D01*
X138523809Y-99252380D01*
X138428571Y-99252380D01*
X138333333Y-99204761D01*
X138285714Y-99157142D01*
X138238095Y-99061904D01*
X138190476Y-98871428D01*
X138190476Y-98633333D01*
X138238095Y-98442857D01*
X138285714Y-98347619D01*
X138333333Y-98300000D01*
X138428571Y-98252380D01*
X140588095Y-107252380D02*
X140588095Y-108061904D01*
X140635714Y-108157142D01*
X140683333Y-108204761D01*
X140778571Y-108252380D01*
X140969047Y-108252380D01*
X141064285Y-108204761D01*
X141111904Y-108157142D01*
X141159523Y-108061904D01*
X141159523Y-107252380D01*
X141683333Y-108252380D02*
X141873809Y-108252380D01*
X141969047Y-108204761D01*
X142016666Y-108157142D01*
X142111904Y-108014285D01*
X142159523Y-107823809D01*
X142159523Y-107442857D01*
X142111904Y-107347619D01*
X142064285Y-107300000D01*
X141969047Y-107252380D01*
X141778571Y-107252380D01*
X141683333Y-107300000D01*
X141635714Y-107347619D01*
X141588095Y-107442857D01*
X141588095Y-107680952D01*
X141635714Y-107776190D01*
X141683333Y-107823809D01*
X141778571Y-107871428D01*
X141969047Y-107871428D01*
X142064285Y-107823809D01*
X142111904Y-107776190D01*
X142159523Y-107680952D01*
X135457142Y-73292857D02*
X135504761Y-73340476D01*
X135552380Y-73483333D01*
X135552380Y-73578571D01*
X135504761Y-73721428D01*
X135409523Y-73816666D01*
X135314285Y-73864285D01*
X135123809Y-73911904D01*
X134980952Y-73911904D01*
X134790476Y-73864285D01*
X134695238Y-73816666D01*
X134600000Y-73721428D01*
X134552380Y-73578571D01*
X134552380Y-73483333D01*
X134600000Y-73340476D01*
X134647619Y-73292857D01*
X134552380Y-72959523D02*
X134552380Y-72340476D01*
X134933333Y-72673809D01*
X134933333Y-72530952D01*
X134980952Y-72435714D01*
X135028571Y-72388095D01*
X135123809Y-72340476D01*
X135361904Y-72340476D01*
X135457142Y-72388095D01*
X135504761Y-72435714D01*
X135552380Y-72530952D01*
X135552380Y-72816666D01*
X135504761Y-72911904D01*
X135457142Y-72959523D01*
X135552380Y-71388095D02*
X135552380Y-71959523D01*
X135552380Y-71673809D02*
X134552380Y-71673809D01*
X134695238Y-71769047D01*
X134790476Y-71864285D01*
X134838095Y-71959523D01*
X137757142Y-70552380D02*
X137423809Y-70076190D01*
X137185714Y-70552380D02*
X137185714Y-69552380D01*
X137566666Y-69552380D01*
X137661904Y-69600000D01*
X137709523Y-69647619D01*
X137757142Y-69742857D01*
X137757142Y-69885714D01*
X137709523Y-69980952D01*
X137661904Y-70028571D01*
X137566666Y-70076190D01*
X137185714Y-70076190D01*
X138138095Y-69647619D02*
X138185714Y-69600000D01*
X138280952Y-69552380D01*
X138519047Y-69552380D01*
X138614285Y-69600000D01*
X138661904Y-69647619D01*
X138709523Y-69742857D01*
X138709523Y-69838095D01*
X138661904Y-69980952D01*
X138090476Y-70552380D01*
X138709523Y-70552380D01*
X139328571Y-69552380D02*
X139423809Y-69552380D01*
X139519047Y-69600000D01*
X139566666Y-69647619D01*
X139614285Y-69742857D01*
X139661904Y-69933333D01*
X139661904Y-70171428D01*
X139614285Y-70361904D01*
X139566666Y-70457142D01*
X139519047Y-70504761D01*
X139423809Y-70552380D01*
X139328571Y-70552380D01*
X139233333Y-70504761D01*
X139185714Y-70457142D01*
X139138095Y-70361904D01*
X139090476Y-70171428D01*
X139090476Y-69933333D01*
X139138095Y-69742857D01*
X139185714Y-69647619D01*
X139233333Y-69600000D01*
X139328571Y-69552380D01*
X141007142Y-104557142D02*
X140959523Y-104604761D01*
X140816666Y-104652380D01*
X140721428Y-104652380D01*
X140578571Y-104604761D01*
X140483333Y-104509523D01*
X140435714Y-104414285D01*
X140388095Y-104223809D01*
X140388095Y-104080952D01*
X140435714Y-103890476D01*
X140483333Y-103795238D01*
X140578571Y-103700000D01*
X140721428Y-103652380D01*
X140816666Y-103652380D01*
X140959523Y-103700000D01*
X141007142Y-103747619D01*
X141340476Y-103652380D02*
X141959523Y-103652380D01*
X141626190Y-104033333D01*
X141769047Y-104033333D01*
X141864285Y-104080952D01*
X141911904Y-104128571D01*
X141959523Y-104223809D01*
X141959523Y-104461904D01*
X141911904Y-104557142D01*
X141864285Y-104604761D01*
X141769047Y-104652380D01*
X141483333Y-104652380D01*
X141388095Y-104604761D01*
X141340476Y-104557142D01*
X142292857Y-103652380D02*
X142959523Y-103652380D01*
X142530952Y-104652380D01*
X108133333Y-96357142D02*
X108085714Y-96404761D01*
X107942857Y-96452380D01*
X107847619Y-96452380D01*
X107704761Y-96404761D01*
X107609523Y-96309523D01*
X107561904Y-96214285D01*
X107514285Y-96023809D01*
X107514285Y-95880952D01*
X107561904Y-95690476D01*
X107609523Y-95595238D01*
X107704761Y-95500000D01*
X107847619Y-95452380D01*
X107942857Y-95452380D01*
X108085714Y-95500000D01*
X108133333Y-95547619D01*
X109038095Y-95452380D02*
X108561904Y-95452380D01*
X108514285Y-95928571D01*
X108561904Y-95880952D01*
X108657142Y-95833333D01*
X108895238Y-95833333D01*
X108990476Y-95880952D01*
X109038095Y-95928571D01*
X109085714Y-96023809D01*
X109085714Y-96261904D01*
X109038095Y-96357142D01*
X108990476Y-96404761D01*
X108895238Y-96452380D01*
X108657142Y-96452380D01*
X108561904Y-96404761D01*
X108514285Y-96357142D01*
X145857142Y-92757142D02*
X145809523Y-92804761D01*
X145666666Y-92852380D01*
X145571428Y-92852380D01*
X145428571Y-92804761D01*
X145333333Y-92709523D01*
X145285714Y-92614285D01*
X145238095Y-92423809D01*
X145238095Y-92280952D01*
X145285714Y-92090476D01*
X145333333Y-91995238D01*
X145428571Y-91900000D01*
X145571428Y-91852380D01*
X145666666Y-91852380D01*
X145809523Y-91900000D01*
X145857142Y-91947619D01*
X146238095Y-91947619D02*
X146285714Y-91900000D01*
X146380952Y-91852380D01*
X146619047Y-91852380D01*
X146714285Y-91900000D01*
X146761904Y-91947619D01*
X146809523Y-92042857D01*
X146809523Y-92138095D01*
X146761904Y-92280952D01*
X146190476Y-92852380D01*
X146809523Y-92852380D01*
X147380952Y-92280952D02*
X147285714Y-92233333D01*
X147238095Y-92185714D01*
X147190476Y-92090476D01*
X147190476Y-92042857D01*
X147238095Y-91947619D01*
X147285714Y-91900000D01*
X147380952Y-91852380D01*
X147571428Y-91852380D01*
X147666666Y-91900000D01*
X147714285Y-91947619D01*
X147761904Y-92042857D01*
X147761904Y-92090476D01*
X147714285Y-92185714D01*
X147666666Y-92233333D01*
X147571428Y-92280952D01*
X147380952Y-92280952D01*
X147285714Y-92328571D01*
X147238095Y-92376190D01*
X147190476Y-92471428D01*
X147190476Y-92661904D01*
X147238095Y-92757142D01*
X147285714Y-92804761D01*
X147380952Y-92852380D01*
X147571428Y-92852380D01*
X147666666Y-92804761D01*
X147714285Y-92757142D01*
X147761904Y-92661904D01*
X147761904Y-92471428D01*
X147714285Y-92376190D01*
X147666666Y-92328571D01*
X147571428Y-92280952D01*
X131733333Y-97802380D02*
X131400000Y-97326190D01*
X131161904Y-97802380D02*
X131161904Y-96802380D01*
X131542857Y-96802380D01*
X131638095Y-96850000D01*
X131685714Y-96897619D01*
X131733333Y-96992857D01*
X131733333Y-97135714D01*
X131685714Y-97230952D01*
X131638095Y-97278571D01*
X131542857Y-97326190D01*
X131161904Y-97326190D01*
X132590476Y-96802380D02*
X132400000Y-96802380D01*
X132304761Y-96850000D01*
X132257142Y-96897619D01*
X132161904Y-97040476D01*
X132114285Y-97230952D01*
X132114285Y-97611904D01*
X132161904Y-97707142D01*
X132209523Y-97754761D01*
X132304761Y-97802380D01*
X132495238Y-97802380D01*
X132590476Y-97754761D01*
X132638095Y-97707142D01*
X132685714Y-97611904D01*
X132685714Y-97373809D01*
X132638095Y-97278571D01*
X132590476Y-97230952D01*
X132495238Y-97183333D01*
X132304761Y-97183333D01*
X132209523Y-97230952D01*
X132161904Y-97278571D01*
X132114285Y-97373809D01*
X117452380Y-108242857D02*
X116976190Y-108576190D01*
X117452380Y-108814285D02*
X116452380Y-108814285D01*
X116452380Y-108433333D01*
X116500000Y-108338095D01*
X116547619Y-108290476D01*
X116642857Y-108242857D01*
X116785714Y-108242857D01*
X116880952Y-108290476D01*
X116928571Y-108338095D01*
X116976190Y-108433333D01*
X116976190Y-108814285D01*
X116547619Y-107861904D02*
X116500000Y-107814285D01*
X116452380Y-107719047D01*
X116452380Y-107480952D01*
X116500000Y-107385714D01*
X116547619Y-107338095D01*
X116642857Y-107290476D01*
X116738095Y-107290476D01*
X116880952Y-107338095D01*
X117452380Y-107909523D01*
X117452380Y-107290476D01*
X116785714Y-106433333D02*
X117452380Y-106433333D01*
X116404761Y-106671428D02*
X117119047Y-106909523D01*
X117119047Y-106290476D01*
X137757142Y-69152380D02*
X137423809Y-68676190D01*
X137185714Y-69152380D02*
X137185714Y-68152380D01*
X137566666Y-68152380D01*
X137661904Y-68200000D01*
X137709523Y-68247619D01*
X137757142Y-68342857D01*
X137757142Y-68485714D01*
X137709523Y-68580952D01*
X137661904Y-68628571D01*
X137566666Y-68676190D01*
X137185714Y-68676190D01*
X138138095Y-68247619D02*
X138185714Y-68200000D01*
X138280952Y-68152380D01*
X138519047Y-68152380D01*
X138614285Y-68200000D01*
X138661904Y-68247619D01*
X138709523Y-68342857D01*
X138709523Y-68438095D01*
X138661904Y-68580952D01*
X138090476Y-69152380D01*
X138709523Y-69152380D01*
X139661904Y-69152380D02*
X139090476Y-69152380D01*
X139376190Y-69152380D02*
X139376190Y-68152380D01*
X139280952Y-68295238D01*
X139185714Y-68390476D01*
X139090476Y-68438095D01*
X123352380Y-108242857D02*
X122876190Y-108576190D01*
X123352380Y-108814285D02*
X122352380Y-108814285D01*
X122352380Y-108433333D01*
X122400000Y-108338095D01*
X122447619Y-108290476D01*
X122542857Y-108242857D01*
X122685714Y-108242857D01*
X122780952Y-108290476D01*
X122828571Y-108338095D01*
X122876190Y-108433333D01*
X122876190Y-108814285D01*
X122447619Y-107861904D02*
X122400000Y-107814285D01*
X122352380Y-107719047D01*
X122352380Y-107480952D01*
X122400000Y-107385714D01*
X122447619Y-107338095D01*
X122542857Y-107290476D01*
X122638095Y-107290476D01*
X122780952Y-107338095D01*
X123352380Y-107909523D01*
X123352380Y-107290476D01*
X122780952Y-106719047D02*
X122733333Y-106814285D01*
X122685714Y-106861904D01*
X122590476Y-106909523D01*
X122542857Y-106909523D01*
X122447619Y-106861904D01*
X122400000Y-106814285D01*
X122352380Y-106719047D01*
X122352380Y-106528571D01*
X122400000Y-106433333D01*
X122447619Y-106385714D01*
X122542857Y-106338095D01*
X122590476Y-106338095D01*
X122685714Y-106385714D01*
X122733333Y-106433333D01*
X122780952Y-106528571D01*
X122780952Y-106719047D01*
X122828571Y-106814285D01*
X122876190Y-106861904D01*
X122971428Y-106909523D01*
X123161904Y-106909523D01*
X123257142Y-106861904D01*
X123304761Y-106814285D01*
X123352380Y-106719047D01*
X123352380Y-106528571D01*
X123304761Y-106433333D01*
X123257142Y-106385714D01*
X123161904Y-106338095D01*
X122971428Y-106338095D01*
X122876190Y-106385714D01*
X122828571Y-106433333D01*
X122780952Y-106528571D01*
X147257142Y-80742857D02*
X147304761Y-80790476D01*
X147352380Y-80933333D01*
X147352380Y-81028571D01*
X147304761Y-81171428D01*
X147209523Y-81266666D01*
X147114285Y-81314285D01*
X146923809Y-81361904D01*
X146780952Y-81361904D01*
X146590476Y-81314285D01*
X146495238Y-81266666D01*
X146400000Y-81171428D01*
X146352380Y-81028571D01*
X146352380Y-80933333D01*
X146400000Y-80790476D01*
X146447619Y-80742857D01*
X146447619Y-80361904D02*
X146400000Y-80314285D01*
X146352380Y-80219047D01*
X146352380Y-79980952D01*
X146400000Y-79885714D01*
X146447619Y-79838095D01*
X146542857Y-79790476D01*
X146638095Y-79790476D01*
X146780952Y-79838095D01*
X147352380Y-80409523D01*
X147352380Y-79790476D01*
X147352380Y-79314285D02*
X147352380Y-79123809D01*
X147304761Y-79028571D01*
X147257142Y-78980952D01*
X147114285Y-78885714D01*
X146923809Y-78838095D01*
X146542857Y-78838095D01*
X146447619Y-78885714D01*
X146400000Y-78933333D01*
X146352380Y-79028571D01*
X146352380Y-79219047D01*
X146400000Y-79314285D01*
X146447619Y-79361904D01*
X146542857Y-79409523D01*
X146780952Y-79409523D01*
X146876190Y-79361904D01*
X146923809Y-79314285D01*
X146971428Y-79219047D01*
X146971428Y-79028571D01*
X146923809Y-78933333D01*
X146876190Y-78885714D01*
X146780952Y-78838095D01*
X138333333Y-92852380D02*
X137857142Y-92852380D01*
X137857142Y-91852380D01*
X138619047Y-91947619D02*
X138666666Y-91900000D01*
X138761904Y-91852380D01*
X139000000Y-91852380D01*
X139095238Y-91900000D01*
X139142857Y-91947619D01*
X139190476Y-92042857D01*
X139190476Y-92138095D01*
X139142857Y-92280952D01*
X138571428Y-92852380D01*
X139190476Y-92852380D01*
X107151904Y-72957380D02*
X107151904Y-71957380D01*
X107390000Y-71957380D01*
X107532857Y-72005000D01*
X107628095Y-72100238D01*
X107675714Y-72195476D01*
X107723333Y-72385952D01*
X107723333Y-72528809D01*
X107675714Y-72719285D01*
X107628095Y-72814523D01*
X107532857Y-72909761D01*
X107390000Y-72957380D01*
X107151904Y-72957380D01*
X108104285Y-72052619D02*
X108151904Y-72005000D01*
X108247142Y-71957380D01*
X108485238Y-71957380D01*
X108580476Y-72005000D01*
X108628095Y-72052619D01*
X108675714Y-72147857D01*
X108675714Y-72243095D01*
X108628095Y-72385952D01*
X108056666Y-72957380D01*
X108675714Y-72957380D01*
X111937142Y-115242857D02*
X111984761Y-115290476D01*
X112032380Y-115433333D01*
X112032380Y-115528571D01*
X111984761Y-115671428D01*
X111889523Y-115766666D01*
X111794285Y-115814285D01*
X111603809Y-115861904D01*
X111460952Y-115861904D01*
X111270476Y-115814285D01*
X111175238Y-115766666D01*
X111080000Y-115671428D01*
X111032380Y-115528571D01*
X111032380Y-115433333D01*
X111080000Y-115290476D01*
X111127619Y-115242857D01*
X111127619Y-114861904D02*
X111080000Y-114814285D01*
X111032380Y-114719047D01*
X111032380Y-114480952D01*
X111080000Y-114385714D01*
X111127619Y-114338095D01*
X111222857Y-114290476D01*
X111318095Y-114290476D01*
X111460952Y-114338095D01*
X112032380Y-114909523D01*
X112032380Y-114290476D01*
X111032380Y-113385714D02*
X111032380Y-113861904D01*
X111508571Y-113909523D01*
X111460952Y-113861904D01*
X111413333Y-113766666D01*
X111413333Y-113528571D01*
X111460952Y-113433333D01*
X111508571Y-113385714D01*
X111603809Y-113338095D01*
X111841904Y-113338095D01*
X111937142Y-113385714D01*
X111984761Y-113433333D01*
X112032380Y-113528571D01*
X112032380Y-113766666D01*
X111984761Y-113861904D01*
X111937142Y-113909523D01*
X133452380Y-73938095D02*
X132452380Y-73938095D01*
X132452380Y-73700000D01*
X132500000Y-73557142D01*
X132595238Y-73461904D01*
X132690476Y-73414285D01*
X132880952Y-73366666D01*
X133023809Y-73366666D01*
X133214285Y-73414285D01*
X133309523Y-73461904D01*
X133404761Y-73557142D01*
X133452380Y-73700000D01*
X133452380Y-73938095D01*
X132452380Y-72461904D02*
X132452380Y-72938095D01*
X132928571Y-72985714D01*
X132880952Y-72938095D01*
X132833333Y-72842857D01*
X132833333Y-72604761D01*
X132880952Y-72509523D01*
X132928571Y-72461904D01*
X133023809Y-72414285D01*
X133261904Y-72414285D01*
X133357142Y-72461904D01*
X133404761Y-72509523D01*
X133452380Y-72604761D01*
X133452380Y-72842857D01*
X133404761Y-72938095D01*
X133357142Y-72985714D01*
X112823809Y-99426190D02*
X112823809Y-99902380D01*
X112490476Y-98902380D02*
X112823809Y-99426190D01*
X113157142Y-98902380D01*
X114014285Y-99902380D02*
X113442857Y-99902380D01*
X113728571Y-99902380D02*
X113728571Y-98902380D01*
X113633333Y-99045238D01*
X113538095Y-99140476D01*
X113442857Y-99188095D01*
X145857142Y-90652380D02*
X145523809Y-90176190D01*
X145285714Y-90652380D02*
X145285714Y-89652380D01*
X145666666Y-89652380D01*
X145761904Y-89700000D01*
X145809523Y-89747619D01*
X145857142Y-89842857D01*
X145857142Y-89985714D01*
X145809523Y-90080952D01*
X145761904Y-90128571D01*
X145666666Y-90176190D01*
X145285714Y-90176190D01*
X146809523Y-90652380D02*
X146238095Y-90652380D01*
X146523809Y-90652380D02*
X146523809Y-89652380D01*
X146428571Y-89795238D01*
X146333333Y-89890476D01*
X146238095Y-89938095D01*
X147380952Y-90080952D02*
X147285714Y-90033333D01*
X147238095Y-89985714D01*
X147190476Y-89890476D01*
X147190476Y-89842857D01*
X147238095Y-89747619D01*
X147285714Y-89700000D01*
X147380952Y-89652380D01*
X147571428Y-89652380D01*
X147666666Y-89700000D01*
X147714285Y-89747619D01*
X147761904Y-89842857D01*
X147761904Y-89890476D01*
X147714285Y-89985714D01*
X147666666Y-90033333D01*
X147571428Y-90080952D01*
X147380952Y-90080952D01*
X147285714Y-90128571D01*
X147238095Y-90176190D01*
X147190476Y-90271428D01*
X147190476Y-90461904D01*
X147238095Y-90557142D01*
X147285714Y-90604761D01*
X147380952Y-90652380D01*
X147571428Y-90652380D01*
X147666666Y-90604761D01*
X147714285Y-90557142D01*
X147761904Y-90461904D01*
X147761904Y-90271428D01*
X147714285Y-90176190D01*
X147666666Y-90128571D01*
X147571428Y-90080952D01*
X122666666Y-68252380D02*
X122666666Y-68966666D01*
X122619047Y-69109523D01*
X122523809Y-69204761D01*
X122380952Y-69252380D01*
X122285714Y-69252380D01*
X123190476Y-69252380D02*
X123380952Y-69252380D01*
X123476190Y-69204761D01*
X123523809Y-69157142D01*
X123619047Y-69014285D01*
X123666666Y-68823809D01*
X123666666Y-68442857D01*
X123619047Y-68347619D01*
X123571428Y-68300000D01*
X123476190Y-68252380D01*
X123285714Y-68252380D01*
X123190476Y-68300000D01*
X123142857Y-68347619D01*
X123095238Y-68442857D01*
X123095238Y-68680952D01*
X123142857Y-68776190D01*
X123190476Y-68823809D01*
X123285714Y-68871428D01*
X123476190Y-68871428D01*
X123571428Y-68823809D01*
X123619047Y-68776190D01*
X123666666Y-68680952D01*
X104138095Y-110752380D02*
X104138095Y-111561904D01*
X104185714Y-111657142D01*
X104233333Y-111704761D01*
X104328571Y-111752380D01*
X104519047Y-111752380D01*
X104614285Y-111704761D01*
X104661904Y-111657142D01*
X104709523Y-111561904D01*
X104709523Y-110752380D01*
X105614285Y-110752380D02*
X105423809Y-110752380D01*
X105328571Y-110800000D01*
X105280952Y-110847619D01*
X105185714Y-110990476D01*
X105138095Y-111180952D01*
X105138095Y-111561904D01*
X105185714Y-111657142D01*
X105233333Y-111704761D01*
X105328571Y-111752380D01*
X105519047Y-111752380D01*
X105614285Y-111704761D01*
X105661904Y-111657142D01*
X105709523Y-111561904D01*
X105709523Y-111323809D01*
X105661904Y-111228571D01*
X105614285Y-111180952D01*
X105519047Y-111133333D01*
X105328571Y-111133333D01*
X105233333Y-111180952D01*
X105185714Y-111228571D01*
X105138095Y-111323809D01*
X130797619Y-92945238D02*
X130750000Y-93040476D01*
X130654761Y-93135714D01*
X130511904Y-93278571D01*
X130464285Y-93373809D01*
X130464285Y-93469047D01*
X130702380Y-93421428D02*
X130654761Y-93516666D01*
X130559523Y-93611904D01*
X130369047Y-93659523D01*
X130035714Y-93659523D01*
X129845238Y-93611904D01*
X129750000Y-93516666D01*
X129702380Y-93421428D01*
X129702380Y-93230952D01*
X129750000Y-93135714D01*
X129845238Y-93040476D01*
X130035714Y-92992857D01*
X130369047Y-92992857D01*
X130559523Y-93040476D01*
X130654761Y-93135714D01*
X130702380Y-93230952D01*
X130702380Y-93421428D01*
X130702380Y-92040476D02*
X130702380Y-92611904D01*
X130702380Y-92326190D02*
X129702380Y-92326190D01*
X129845238Y-92421428D01*
X129940476Y-92516666D01*
X129988095Y-92611904D01*
X147357142Y-84342857D02*
X147404761Y-84390476D01*
X147452380Y-84533333D01*
X147452380Y-84628571D01*
X147404761Y-84771428D01*
X147309523Y-84866666D01*
X147214285Y-84914285D01*
X147023809Y-84961904D01*
X146880952Y-84961904D01*
X146690476Y-84914285D01*
X146595238Y-84866666D01*
X146500000Y-84771428D01*
X146452380Y-84628571D01*
X146452380Y-84533333D01*
X146500000Y-84390476D01*
X146547619Y-84342857D01*
X146547619Y-83961904D02*
X146500000Y-83914285D01*
X146452380Y-83819047D01*
X146452380Y-83580952D01*
X146500000Y-83485714D01*
X146547619Y-83438095D01*
X146642857Y-83390476D01*
X146738095Y-83390476D01*
X146880952Y-83438095D01*
X147452380Y-84009523D01*
X147452380Y-83390476D01*
X146452380Y-83057142D02*
X146452380Y-82390476D01*
X147452380Y-82819047D01*
X116523333Y-72957380D02*
X116190000Y-72481190D01*
X115951904Y-72957380D02*
X115951904Y-71957380D01*
X116332857Y-71957380D01*
X116428095Y-72005000D01*
X116475714Y-72052619D01*
X116523333Y-72147857D01*
X116523333Y-72290714D01*
X116475714Y-72385952D01*
X116428095Y-72433571D01*
X116332857Y-72481190D01*
X115951904Y-72481190D01*
X116904285Y-72052619D02*
X116951904Y-72005000D01*
X117047142Y-71957380D01*
X117285238Y-71957380D01*
X117380476Y-72005000D01*
X117428095Y-72052619D01*
X117475714Y-72147857D01*
X117475714Y-72243095D01*
X117428095Y-72385952D01*
X116856666Y-72957380D01*
X117475714Y-72957380D01*
X98733333Y-115357142D02*
X98685714Y-115404761D01*
X98542857Y-115452380D01*
X98447619Y-115452380D01*
X98304761Y-115404761D01*
X98209523Y-115309523D01*
X98161904Y-115214285D01*
X98114285Y-115023809D01*
X98114285Y-114880952D01*
X98161904Y-114690476D01*
X98209523Y-114595238D01*
X98304761Y-114500000D01*
X98447619Y-114452380D01*
X98542857Y-114452380D01*
X98685714Y-114500000D01*
X98733333Y-114547619D01*
X99590476Y-114452380D02*
X99400000Y-114452380D01*
X99304761Y-114500000D01*
X99257142Y-114547619D01*
X99161904Y-114690476D01*
X99114285Y-114880952D01*
X99114285Y-115261904D01*
X99161904Y-115357142D01*
X99209523Y-115404761D01*
X99304761Y-115452380D01*
X99495238Y-115452380D01*
X99590476Y-115404761D01*
X99638095Y-115357142D01*
X99685714Y-115261904D01*
X99685714Y-115023809D01*
X99638095Y-114928571D01*
X99590476Y-114880952D01*
X99495238Y-114833333D01*
X99304761Y-114833333D01*
X99209523Y-114880952D01*
X99161904Y-114928571D01*
X99114285Y-115023809D01*
X147252380Y-77242857D02*
X146776190Y-77576190D01*
X147252380Y-77814285D02*
X146252380Y-77814285D01*
X146252380Y-77433333D01*
X146300000Y-77338095D01*
X146347619Y-77290476D01*
X146442857Y-77242857D01*
X146585714Y-77242857D01*
X146680952Y-77290476D01*
X146728571Y-77338095D01*
X146776190Y-77433333D01*
X146776190Y-77814285D01*
X147252380Y-76290476D02*
X147252380Y-76861904D01*
X147252380Y-76576190D02*
X146252380Y-76576190D01*
X146395238Y-76671428D01*
X146490476Y-76766666D01*
X146538095Y-76861904D01*
X146252380Y-75433333D02*
X146252380Y-75623809D01*
X146300000Y-75719047D01*
X146347619Y-75766666D01*
X146490476Y-75861904D01*
X146680952Y-75909523D01*
X147061904Y-75909523D01*
X147157142Y-75861904D01*
X147204761Y-75814285D01*
X147252380Y-75719047D01*
X147252380Y-75528571D01*
X147204761Y-75433333D01*
X147157142Y-75385714D01*
X147061904Y-75338095D01*
X146823809Y-75338095D01*
X146728571Y-75385714D01*
X146680952Y-75433333D01*
X146633333Y-75528571D01*
X146633333Y-75719047D01*
X146680952Y-75814285D01*
X146728571Y-75861904D01*
X146823809Y-75909523D01*
X108777142Y-102066666D02*
X108824761Y-102114285D01*
X108872380Y-102257142D01*
X108872380Y-102352380D01*
X108824761Y-102495238D01*
X108729523Y-102590476D01*
X108634285Y-102638095D01*
X108443809Y-102685714D01*
X108300952Y-102685714D01*
X108110476Y-102638095D01*
X108015238Y-102590476D01*
X107920000Y-102495238D01*
X107872380Y-102352380D01*
X107872380Y-102257142D01*
X107920000Y-102114285D01*
X107967619Y-102066666D01*
X108872380Y-101114285D02*
X108872380Y-101685714D01*
X108872380Y-101400000D02*
X107872380Y-101400000D01*
X108015238Y-101495238D01*
X108110476Y-101590476D01*
X108158095Y-101685714D01*
X111533333Y-85337142D02*
X111485714Y-85384761D01*
X111342857Y-85432380D01*
X111247619Y-85432380D01*
X111104761Y-85384761D01*
X111009523Y-85289523D01*
X110961904Y-85194285D01*
X110914285Y-85003809D01*
X110914285Y-84860952D01*
X110961904Y-84670476D01*
X111009523Y-84575238D01*
X111104761Y-84480000D01*
X111247619Y-84432380D01*
X111342857Y-84432380D01*
X111485714Y-84480000D01*
X111533333Y-84527619D01*
X111866666Y-84432380D02*
X112533333Y-84432380D01*
X112104761Y-85432380D01*
X147752380Y-96542857D02*
X147276190Y-96876190D01*
X147752380Y-97114285D02*
X146752380Y-97114285D01*
X146752380Y-96733333D01*
X146800000Y-96638095D01*
X146847619Y-96590476D01*
X146942857Y-96542857D01*
X147085714Y-96542857D01*
X147180952Y-96590476D01*
X147228571Y-96638095D01*
X147276190Y-96733333D01*
X147276190Y-97114285D01*
X146847619Y-96161904D02*
X146800000Y-96114285D01*
X146752380Y-96019047D01*
X146752380Y-95780952D01*
X146800000Y-95685714D01*
X146847619Y-95638095D01*
X146942857Y-95590476D01*
X147038095Y-95590476D01*
X147180952Y-95638095D01*
X147752380Y-96209523D01*
X147752380Y-95590476D01*
X146752380Y-95257142D02*
X146752380Y-94638095D01*
X147133333Y-94971428D01*
X147133333Y-94828571D01*
X147180952Y-94733333D01*
X147228571Y-94685714D01*
X147323809Y-94638095D01*
X147561904Y-94638095D01*
X147657142Y-94685714D01*
X147704761Y-94733333D01*
X147752380Y-94828571D01*
X147752380Y-95114285D01*
X147704761Y-95209523D01*
X147657142Y-95257142D01*
X131957142Y-80557142D02*
X131909523Y-80604761D01*
X131766666Y-80652380D01*
X131671428Y-80652380D01*
X131528571Y-80604761D01*
X131433333Y-80509523D01*
X131385714Y-80414285D01*
X131338095Y-80223809D01*
X131338095Y-80080952D01*
X131385714Y-79890476D01*
X131433333Y-79795238D01*
X131528571Y-79700000D01*
X131671428Y-79652380D01*
X131766666Y-79652380D01*
X131909523Y-79700000D01*
X131957142Y-79747619D01*
X132290476Y-79652380D02*
X132909523Y-79652380D01*
X132576190Y-80033333D01*
X132719047Y-80033333D01*
X132814285Y-80080952D01*
X132861904Y-80128571D01*
X132909523Y-80223809D01*
X132909523Y-80461904D01*
X132861904Y-80557142D01*
X132814285Y-80604761D01*
X132719047Y-80652380D01*
X132433333Y-80652380D01*
X132338095Y-80604761D01*
X132290476Y-80557142D01*
X133242857Y-79652380D02*
X133861904Y-79652380D01*
X133528571Y-80033333D01*
X133671428Y-80033333D01*
X133766666Y-80080952D01*
X133814285Y-80128571D01*
X133861904Y-80223809D01*
X133861904Y-80461904D01*
X133814285Y-80557142D01*
X133766666Y-80604761D01*
X133671428Y-80652380D01*
X133385714Y-80652380D01*
X133290476Y-80604761D01*
X133242857Y-80557142D01*
X128557142Y-78457142D02*
X128509523Y-78504761D01*
X128366666Y-78552380D01*
X128271428Y-78552380D01*
X128128571Y-78504761D01*
X128033333Y-78409523D01*
X127985714Y-78314285D01*
X127938095Y-78123809D01*
X127938095Y-77980952D01*
X127985714Y-77790476D01*
X128033333Y-77695238D01*
X128128571Y-77600000D01*
X128271428Y-77552380D01*
X128366666Y-77552380D01*
X128509523Y-77600000D01*
X128557142Y-77647619D01*
X128890476Y-77552380D02*
X129509523Y-77552380D01*
X129176190Y-77933333D01*
X129319047Y-77933333D01*
X129414285Y-77980952D01*
X129461904Y-78028571D01*
X129509523Y-78123809D01*
X129509523Y-78361904D01*
X129461904Y-78457142D01*
X129414285Y-78504761D01*
X129319047Y-78552380D01*
X129033333Y-78552380D01*
X128938095Y-78504761D01*
X128890476Y-78457142D01*
X130414285Y-77552380D02*
X129938095Y-77552380D01*
X129890476Y-78028571D01*
X129938095Y-77980952D01*
X130033333Y-77933333D01*
X130271428Y-77933333D01*
X130366666Y-77980952D01*
X130414285Y-78028571D01*
X130461904Y-78123809D01*
X130461904Y-78361904D01*
X130414285Y-78457142D01*
X130366666Y-78504761D01*
X130271428Y-78552380D01*
X130033333Y-78552380D01*
X129938095Y-78504761D01*
X129890476Y-78457142D01*
X108257142Y-90357142D02*
X108209523Y-90404761D01*
X108066666Y-90452380D01*
X107971428Y-90452380D01*
X107828571Y-90404761D01*
X107733333Y-90309523D01*
X107685714Y-90214285D01*
X107638095Y-90023809D01*
X107638095Y-89880952D01*
X107685714Y-89690476D01*
X107733333Y-89595238D01*
X107828571Y-89500000D01*
X107971428Y-89452380D01*
X108066666Y-89452380D01*
X108209523Y-89500000D01*
X108257142Y-89547619D01*
X109161904Y-89452380D02*
X108685714Y-89452380D01*
X108638095Y-89928571D01*
X108685714Y-89880952D01*
X108780952Y-89833333D01*
X109019047Y-89833333D01*
X109114285Y-89880952D01*
X109161904Y-89928571D01*
X109209523Y-90023809D01*
X109209523Y-90261904D01*
X109161904Y-90357142D01*
X109114285Y-90404761D01*
X109019047Y-90452380D01*
X108780952Y-90452380D01*
X108685714Y-90404761D01*
X108638095Y-90357142D01*
X109828571Y-89452380D02*
X109923809Y-89452380D01*
X110019047Y-89500000D01*
X110066666Y-89547619D01*
X110114285Y-89642857D01*
X110161904Y-89833333D01*
X110161904Y-90071428D01*
X110114285Y-90261904D01*
X110066666Y-90357142D01*
X110019047Y-90404761D01*
X109923809Y-90452380D01*
X109828571Y-90452380D01*
X109733333Y-90404761D01*
X109685714Y-90357142D01*
X109638095Y-90261904D01*
X109590476Y-90071428D01*
X109590476Y-89833333D01*
X109638095Y-89642857D01*
X109685714Y-89547619D01*
X109733333Y-89500000D01*
X109828571Y-89452380D01*
X111533333Y-79857142D02*
X111485714Y-79904761D01*
X111342857Y-79952380D01*
X111247619Y-79952380D01*
X111104761Y-79904761D01*
X111009523Y-79809523D01*
X110961904Y-79714285D01*
X110914285Y-79523809D01*
X110914285Y-79380952D01*
X110961904Y-79190476D01*
X111009523Y-79095238D01*
X111104761Y-79000000D01*
X111247619Y-78952380D01*
X111342857Y-78952380D01*
X111485714Y-79000000D01*
X111533333Y-79047619D01*
X112390476Y-79285714D02*
X112390476Y-79952380D01*
X112152380Y-78904761D02*
X111914285Y-79619047D01*
X112533333Y-79619047D01*
X116533333Y-77352380D02*
X116200000Y-76876190D01*
X115961904Y-77352380D02*
X115961904Y-76352380D01*
X116342857Y-76352380D01*
X116438095Y-76400000D01*
X116485714Y-76447619D01*
X116533333Y-76542857D01*
X116533333Y-76685714D01*
X116485714Y-76780952D01*
X116438095Y-76828571D01*
X116342857Y-76876190D01*
X115961904Y-76876190D01*
X116866666Y-76352380D02*
X117533333Y-76352380D01*
X117104761Y-77352380D01*
X129133333Y-85857142D02*
X129085714Y-85904761D01*
X128942857Y-85952380D01*
X128847619Y-85952380D01*
X128704761Y-85904761D01*
X128609523Y-85809523D01*
X128561904Y-85714285D01*
X128514285Y-85523809D01*
X128514285Y-85380952D01*
X128561904Y-85190476D01*
X128609523Y-85095238D01*
X128704761Y-85000000D01*
X128847619Y-84952380D01*
X128942857Y-84952380D01*
X129085714Y-85000000D01*
X129133333Y-85047619D01*
X129466666Y-84952380D02*
X130085714Y-84952380D01*
X129752380Y-85333333D01*
X129895238Y-85333333D01*
X129990476Y-85380952D01*
X130038095Y-85428571D01*
X130085714Y-85523809D01*
X130085714Y-85761904D01*
X130038095Y-85857142D01*
X129990476Y-85904761D01*
X129895238Y-85952380D01*
X129609523Y-85952380D01*
X129514285Y-85904761D01*
X129466666Y-85857142D01*
X108133333Y-98357142D02*
X108085714Y-98404761D01*
X107942857Y-98452380D01*
X107847619Y-98452380D01*
X107704761Y-98404761D01*
X107609523Y-98309523D01*
X107561904Y-98214285D01*
X107514285Y-98023809D01*
X107514285Y-97880952D01*
X107561904Y-97690476D01*
X107609523Y-97595238D01*
X107704761Y-97500000D01*
X107847619Y-97452380D01*
X107942857Y-97452380D01*
X108085714Y-97500000D01*
X108133333Y-97547619D01*
X108609523Y-98452380D02*
X108800000Y-98452380D01*
X108895238Y-98404761D01*
X108942857Y-98357142D01*
X109038095Y-98214285D01*
X109085714Y-98023809D01*
X109085714Y-97642857D01*
X109038095Y-97547619D01*
X108990476Y-97500000D01*
X108895238Y-97452380D01*
X108704761Y-97452380D01*
X108609523Y-97500000D01*
X108561904Y-97547619D01*
X108514285Y-97642857D01*
X108514285Y-97880952D01*
X108561904Y-97976190D01*
X108609523Y-98023809D01*
X108704761Y-98071428D01*
X108895238Y-98071428D01*
X108990476Y-98023809D01*
X109038095Y-97976190D01*
X109085714Y-97880952D01*
X144033333Y-88502380D02*
X143700000Y-88026190D01*
X143461904Y-88502380D02*
X143461904Y-87502380D01*
X143842857Y-87502380D01*
X143938095Y-87550000D01*
X143985714Y-87597619D01*
X144033333Y-87692857D01*
X144033333Y-87835714D01*
X143985714Y-87930952D01*
X143938095Y-87978571D01*
X143842857Y-88026190D01*
X143461904Y-88026190D01*
X144938095Y-87502380D02*
X144461904Y-87502380D01*
X144414285Y-87978571D01*
X144461904Y-87930952D01*
X144557142Y-87883333D01*
X144795238Y-87883333D01*
X144890476Y-87930952D01*
X144938095Y-87978571D01*
X144985714Y-88073809D01*
X144985714Y-88311904D01*
X144938095Y-88407142D01*
X144890476Y-88454761D01*
X144795238Y-88502380D01*
X144557142Y-88502380D01*
X144461904Y-88454761D01*
X144414285Y-88407142D01*
X122637142Y-100842857D02*
X122684761Y-100890476D01*
X122732380Y-101033333D01*
X122732380Y-101128571D01*
X122684761Y-101271428D01*
X122589523Y-101366666D01*
X122494285Y-101414285D01*
X122303809Y-101461904D01*
X122160952Y-101461904D01*
X121970476Y-101414285D01*
X121875238Y-101366666D01*
X121780000Y-101271428D01*
X121732380Y-101128571D01*
X121732380Y-101033333D01*
X121780000Y-100890476D01*
X121827619Y-100842857D01*
X122732380Y-99890476D02*
X122732380Y-100461904D01*
X122732380Y-100176190D02*
X121732380Y-100176190D01*
X121875238Y-100271428D01*
X121970476Y-100366666D01*
X122018095Y-100461904D01*
X121732380Y-99271428D02*
X121732380Y-99176190D01*
X121780000Y-99080952D01*
X121827619Y-99033333D01*
X121922857Y-98985714D01*
X122113333Y-98938095D01*
X122351428Y-98938095D01*
X122541904Y-98985714D01*
X122637142Y-99033333D01*
X122684761Y-99080952D01*
X122732380Y-99176190D01*
X122732380Y-99271428D01*
X122684761Y-99366666D01*
X122637142Y-99414285D01*
X122541904Y-99461904D01*
X122351428Y-99509523D01*
X122113333Y-99509523D01*
X121922857Y-99461904D01*
X121827619Y-99414285D01*
X121780000Y-99366666D01*
X121732380Y-99271428D01*
X104926666Y-79152380D02*
X104926666Y-79866666D01*
X104879047Y-80009523D01*
X104783809Y-80104761D01*
X104640952Y-80152380D01*
X104545714Y-80152380D01*
X105355238Y-79247619D02*
X105402857Y-79200000D01*
X105498095Y-79152380D01*
X105736190Y-79152380D01*
X105831428Y-79200000D01*
X105879047Y-79247619D01*
X105926666Y-79342857D01*
X105926666Y-79438095D01*
X105879047Y-79580952D01*
X105307619Y-80152380D01*
X105926666Y-80152380D01*
X141057142Y-101257142D02*
X141009523Y-101304761D01*
X140866666Y-101352380D01*
X140771428Y-101352380D01*
X140628571Y-101304761D01*
X140533333Y-101209523D01*
X140485714Y-101114285D01*
X140438095Y-100923809D01*
X140438095Y-100780952D01*
X140485714Y-100590476D01*
X140533333Y-100495238D01*
X140628571Y-100400000D01*
X140771428Y-100352380D01*
X140866666Y-100352380D01*
X141009523Y-100400000D01*
X141057142Y-100447619D01*
X141390476Y-100352380D02*
X142009523Y-100352380D01*
X141676190Y-100733333D01*
X141819047Y-100733333D01*
X141914285Y-100780952D01*
X141961904Y-100828571D01*
X142009523Y-100923809D01*
X142009523Y-101161904D01*
X141961904Y-101257142D01*
X141914285Y-101304761D01*
X141819047Y-101352380D01*
X141533333Y-101352380D01*
X141438095Y-101304761D01*
X141390476Y-101257142D01*
X142390476Y-100447619D02*
X142438095Y-100400000D01*
X142533333Y-100352380D01*
X142771428Y-100352380D01*
X142866666Y-100400000D01*
X142914285Y-100447619D01*
X142961904Y-100542857D01*
X142961904Y-100638095D01*
X142914285Y-100780952D01*
X142342857Y-101352380D01*
X142961904Y-101352380D01*
X144590476Y-68252380D02*
X144590476Y-68966666D01*
X144542857Y-69109523D01*
X144447619Y-69204761D01*
X144304761Y-69252380D01*
X144209523Y-69252380D01*
X145590476Y-69252380D02*
X145019047Y-69252380D01*
X145304761Y-69252380D02*
X145304761Y-68252380D01*
X145209523Y-68395238D01*
X145114285Y-68490476D01*
X145019047Y-68538095D01*
X146209523Y-68252380D02*
X146304761Y-68252380D01*
X146400000Y-68300000D01*
X146447619Y-68347619D01*
X146495238Y-68442857D01*
X146542857Y-68633333D01*
X146542857Y-68871428D01*
X146495238Y-69061904D01*
X146447619Y-69157142D01*
X146400000Y-69204761D01*
X146304761Y-69252380D01*
X146209523Y-69252380D01*
X146114285Y-69204761D01*
X146066666Y-69157142D01*
X146019047Y-69061904D01*
X145971428Y-68871428D01*
X145971428Y-68633333D01*
X146019047Y-68442857D01*
X146066666Y-68347619D01*
X146114285Y-68300000D01*
X146209523Y-68252380D01*
X127622380Y-108263333D02*
X128336666Y-108263333D01*
X128479523Y-108310952D01*
X128574761Y-108406190D01*
X128622380Y-108549047D01*
X128622380Y-108644285D01*
X127622380Y-107882380D02*
X127622380Y-107215714D01*
X128622380Y-107644285D01*
D11*
X113290000Y-86640000D02*
X113290000Y-85690000D01*
X113290000Y-95910000D02*
X114240000Y-95910000D01*
X114240000Y-95910000D02*
X114240000Y-97250000D01*
X123510000Y-85690000D02*
X122560000Y-85690000D01*
X123510000Y-94960000D02*
X123510000Y-95910000D01*
X123510000Y-95910000D02*
X122560000Y-95910000D01*
X123510000Y-86640000D02*
X123510000Y-85690000D01*
X113290000Y-94960000D02*
X113290000Y-95910000D01*
X113290000Y-85690000D02*
X114240000Y-85690000D01*
X114439564Y-75435000D02*
X113985436Y-75435000D01*
X114439564Y-73965000D02*
X113985436Y-73965000D01*
X126535000Y-96538748D02*
X126535000Y-97061252D01*
X125065000Y-96538748D02*
X125065000Y-97061252D01*
X115735000Y-111061252D02*
X115735000Y-110538748D01*
X114265000Y-111061252D02*
X114265000Y-110538748D01*
X144672936Y-98065000D02*
X145127064Y-98065000D01*
X144672936Y-99535000D02*
X145127064Y-99535000D01*
X101235000Y-113927064D02*
X101235000Y-113472936D01*
X99765000Y-113927064D02*
X99765000Y-113472936D01*
X143127064Y-72965000D02*
X142672936Y-72965000D01*
X143127064Y-74435000D02*
X142672936Y-74435000D01*
X115815000Y-101628748D02*
X115815000Y-102151252D01*
X117285000Y-101628748D02*
X117285000Y-102151252D01*
X144060000Y-95400000D02*
X144060000Y-96200000D01*
X140940000Y-95400000D02*
X140940000Y-94600000D01*
X144060000Y-95400000D02*
X144060000Y-94600000D01*
X140940000Y-95400000D02*
X140940000Y-97200000D01*
X120265000Y-111027064D02*
X120265000Y-110572936D01*
X121735000Y-111027064D02*
X121735000Y-110572936D01*
X98750000Y-104100000D02*
X99250000Y-104100000D01*
X99250000Y-104200000D02*
X98750000Y-104200000D01*
X102250000Y-101650000D02*
X98750000Y-101650000D01*
X98750000Y-101650000D02*
X98750000Y-110550000D01*
X99250000Y-104000000D02*
X99250000Y-104200000D01*
X98750000Y-106000000D02*
X99250000Y-106000000D01*
X100250000Y-111160000D02*
X100250000Y-110550000D01*
X100250000Y-101040000D02*
X100250000Y-101650000D01*
X98750000Y-104000000D02*
X99250000Y-104000000D01*
X98750000Y-108100000D02*
X99250000Y-108100000D01*
X103160000Y-101990000D02*
X103160000Y-100740000D01*
X102860000Y-111160000D02*
X102860000Y-101040000D01*
X102250000Y-108600000D02*
X102860000Y-108600000D01*
X98750000Y-110550000D02*
X102250000Y-110550000D01*
X98750000Y-108000000D02*
X99250000Y-108000000D01*
X102250000Y-110550000D02*
X102250000Y-108600000D01*
X102860000Y-101040000D02*
X98140000Y-101040000D01*
X102860000Y-103600000D02*
X102250000Y-103600000D01*
X103160000Y-100740000D02*
X101910000Y-100740000D01*
X101550000Y-111160000D02*
X101550000Y-110550000D01*
X102860000Y-102800000D02*
X103060000Y-102800000D01*
X103060000Y-102800000D02*
X103060000Y-102500000D01*
X102960000Y-102800000D02*
X102960000Y-102500000D01*
X103060000Y-102500000D02*
X102860000Y-102500000D01*
X99250000Y-106000000D02*
X99250000Y-106200000D01*
X99250000Y-108200000D02*
X98750000Y-108200000D01*
X98750000Y-106100000D02*
X99250000Y-106100000D01*
X98140000Y-101040000D02*
X98140000Y-111160000D01*
X99250000Y-108000000D02*
X99250000Y-108200000D01*
X98140000Y-111160000D02*
X102860000Y-111160000D01*
X101550000Y-101040000D02*
X101550000Y-101650000D01*
X99250000Y-106200000D02*
X98750000Y-106200000D01*
X102250000Y-103600000D02*
X102250000Y-101650000D01*
X145011252Y-112135000D02*
X144488748Y-112135000D01*
X145011252Y-110665000D02*
X144488748Y-110665000D01*
X114414564Y-69565000D02*
X113960436Y-69565000D01*
X114414564Y-71035000D02*
X113960436Y-71035000D01*
X106495000Y-106625000D02*
X106495000Y-105295000D01*
X106495000Y-105295000D02*
X107825000Y-105295000D01*
X109095000Y-107895000D02*
X109095000Y-105295000D01*
X106495000Y-107895000D02*
X109095000Y-107895000D01*
X111695000Y-105295000D02*
X111695000Y-110495000D01*
X106495000Y-107895000D02*
X106495000Y-110495000D01*
X109095000Y-105295000D02*
X111695000Y-105295000D01*
X106495000Y-110495000D02*
X111695000Y-110495000D01*
X110372936Y-76165000D02*
X110827064Y-76165000D01*
X110372936Y-77635000D02*
X110827064Y-77635000D01*
X108940000Y-75660000D02*
X111625000Y-75660000D01*
X111625000Y-73740000D02*
X108940000Y-73740000D01*
X108940000Y-73740000D02*
X108940000Y-75660000D01*
X139900000Y-75265000D02*
X137950000Y-75265000D01*
X139900000Y-75265000D02*
X141850000Y-75265000D01*
X139900000Y-80385000D02*
X143350000Y-80385000D01*
X139900000Y-80385000D02*
X137950000Y-80385000D01*
X119735000Y-111027064D02*
X119735000Y-110572936D01*
X118265000Y-111027064D02*
X118265000Y-110572936D01*
X126238748Y-84135000D02*
X126761252Y-84135000D01*
X126238748Y-82665000D02*
X126761252Y-82665000D01*
X108902500Y-69340000D02*
X108902500Y-71260000D01*
X108902500Y-71260000D02*
X111587500Y-71260000D01*
X111587500Y-69340000D02*
X108902500Y-69340000D01*
X106061252Y-92935000D02*
X105538748Y-92935000D01*
X106061252Y-91465000D02*
X105538748Y-91465000D01*
X105572936Y-93465000D02*
X106027064Y-93465000D01*
X105572936Y-94935000D02*
X106027064Y-94935000D01*
X140700000Y-81400000D02*
X132700000Y-81400000D01*
X140700000Y-89600000D02*
X132700000Y-89600000D01*
X102250000Y-99650000D02*
X102250000Y-97700000D01*
X98750000Y-97200000D02*
X99250000Y-97200000D01*
X102960000Y-93900000D02*
X102960000Y-93600000D01*
X99250000Y-95300000D02*
X98750000Y-95300000D01*
X98140000Y-92140000D02*
X98140000Y-100260000D01*
X102860000Y-92140000D02*
X98140000Y-92140000D01*
X103160000Y-91840000D02*
X101910000Y-91840000D01*
X102860000Y-100260000D02*
X102860000Y-92140000D01*
X98750000Y-95200000D02*
X99250000Y-95200000D01*
X103060000Y-93900000D02*
X103060000Y-93600000D01*
X100250000Y-92140000D02*
X100250000Y-92750000D01*
X98140000Y-100260000D02*
X102860000Y-100260000D01*
X98750000Y-99650000D02*
X102250000Y-99650000D01*
X102250000Y-94700000D02*
X102250000Y-92750000D01*
X101550000Y-100260000D02*
X101550000Y-99650000D01*
X99250000Y-95100000D02*
X99250000Y-95300000D01*
X102250000Y-92750000D02*
X98750000Y-92750000D01*
X98750000Y-92750000D02*
X98750000Y-99650000D01*
X99250000Y-97100000D02*
X99250000Y-97300000D01*
X102250000Y-97700000D02*
X102860000Y-97700000D01*
X103160000Y-93090000D02*
X103160000Y-91840000D01*
X100250000Y-100260000D02*
X100250000Y-99650000D01*
X98750000Y-95100000D02*
X99250000Y-95100000D01*
X99250000Y-97300000D02*
X98750000Y-97300000D01*
X101550000Y-92140000D02*
X101550000Y-92750000D01*
X102860000Y-93900000D02*
X103060000Y-93900000D01*
X102860000Y-94700000D02*
X102250000Y-94700000D01*
X103060000Y-93600000D02*
X102860000Y-93600000D01*
X98750000Y-97100000D02*
X99250000Y-97100000D01*
X140961252Y-97965000D02*
X140438748Y-97965000D01*
X140961252Y-99435000D02*
X140438748Y-99435000D01*
X146110000Y-110060000D02*
X143390000Y-110060000D01*
X143390000Y-110060000D02*
X143390000Y-108750000D01*
X146110000Y-105340000D02*
X146110000Y-105570000D01*
X143390000Y-106650000D02*
X143390000Y-105340000D01*
X147250000Y-109830000D02*
X146110000Y-109830000D01*
X143390000Y-105340000D02*
X146110000Y-105340000D01*
X146110000Y-110060000D02*
X146110000Y-109830000D01*
X134365000Y-76211252D02*
X134365000Y-75688748D01*
X135835000Y-76211252D02*
X135835000Y-75688748D01*
X138072936Y-72990000D02*
X138527064Y-72990000D01*
X138072936Y-74460000D02*
X138527064Y-74460000D01*
X145211252Y-103265000D02*
X144688748Y-103265000D01*
X145211252Y-104735000D02*
X144688748Y-104735000D01*
X111261252Y-95265000D02*
X110738748Y-95265000D01*
X111261252Y-96735000D02*
X110738748Y-96735000D01*
X143338748Y-93035000D02*
X143861252Y-93035000D01*
X143338748Y-91565000D02*
X143861252Y-91565000D01*
X132127064Y-94965000D02*
X131672936Y-94965000D01*
X132127064Y-96435000D02*
X131672936Y-96435000D01*
X117735000Y-111027064D02*
X117735000Y-110572936D01*
X116265000Y-111027064D02*
X116265000Y-110572936D01*
X138527064Y-72485000D02*
X138072936Y-72485000D01*
X138527064Y-71015000D02*
X138072936Y-71015000D01*
X122265000Y-111027064D02*
X122265000Y-110572936D01*
X123735000Y-111027064D02*
X123735000Y-110572936D01*
X144165000Y-79688748D02*
X144165000Y-80211252D01*
X145635000Y-79688748D02*
X145635000Y-80211252D01*
X140400000Y-93300000D02*
X136400000Y-93300000D01*
X140400000Y-97500000D02*
X136400000Y-97500000D01*
X111590000Y-71540000D02*
X108905000Y-71540000D01*
X108905000Y-73460000D02*
X111590000Y-73460000D01*
X108905000Y-71540000D02*
X108905000Y-73460000D01*
X110635000Y-114338748D02*
X110635000Y-114861252D01*
X109165000Y-114338748D02*
X109165000Y-114861252D01*
X131900000Y-79000000D02*
X133900000Y-79000000D01*
X131900000Y-79000000D02*
X131900000Y-75100000D01*
X133900000Y-79000000D02*
X133900000Y-75100000D01*
X143860000Y-114500000D02*
X143250000Y-114500000D01*
X127740000Y-114500000D02*
X128350000Y-114500000D01*
X138700000Y-116800000D02*
X138900000Y-116800000D01*
X128350000Y-113800000D02*
X128350000Y-117300000D01*
X129200000Y-112990000D02*
X129200000Y-113190000D01*
X134700000Y-117300000D02*
X134700000Y-116800000D01*
X140800000Y-117300000D02*
X140800000Y-116800000D01*
X132700000Y-116800000D02*
X132900000Y-116800000D01*
X136700000Y-117300000D02*
X136700000Y-116800000D01*
X128350000Y-117300000D02*
X143250000Y-117300000D01*
X127440000Y-112890000D02*
X127440000Y-114140000D01*
X132900000Y-116800000D02*
X132900000Y-117300000D01*
X134800000Y-117300000D02*
X134800000Y-116800000D01*
X136900000Y-116800000D02*
X136900000Y-117300000D01*
X130300000Y-113190000D02*
X130300000Y-113800000D01*
X134700000Y-116800000D02*
X134900000Y-116800000D01*
X140700000Y-116800000D02*
X140900000Y-116800000D01*
X132800000Y-117300000D02*
X132800000Y-116800000D01*
X136700000Y-116800000D02*
X136900000Y-116800000D01*
X130900000Y-116800000D02*
X130900000Y-117300000D01*
X143860000Y-117910000D02*
X143860000Y-113190000D01*
X130800000Y-117300000D02*
X130800000Y-116800000D01*
X130700000Y-116800000D02*
X130900000Y-116800000D01*
X143250000Y-113800000D02*
X141300000Y-113800000D01*
X138800000Y-117300000D02*
X138800000Y-116800000D01*
X143250000Y-117300000D02*
X143250000Y-113800000D01*
X129500000Y-113090000D02*
X129200000Y-113090000D01*
X127740000Y-113190000D02*
X127740000Y-117910000D01*
X128690000Y-112890000D02*
X127440000Y-112890000D01*
X127740000Y-115800000D02*
X128350000Y-115800000D01*
X143860000Y-115800000D02*
X143250000Y-115800000D01*
X130300000Y-113800000D02*
X128350000Y-113800000D01*
X140900000Y-116800000D02*
X140900000Y-117300000D01*
X140700000Y-117300000D02*
X140700000Y-116800000D01*
X138900000Y-116800000D02*
X138900000Y-117300000D01*
X134900000Y-116800000D02*
X134900000Y-117300000D01*
X127740000Y-117910000D02*
X143860000Y-117910000D01*
X138700000Y-117300000D02*
X138700000Y-116800000D01*
X129500000Y-112990000D02*
X129200000Y-112990000D01*
X130700000Y-117300000D02*
X130700000Y-116800000D01*
X132700000Y-117300000D02*
X132700000Y-116800000D01*
X129500000Y-113190000D02*
X129500000Y-112990000D01*
X141300000Y-113800000D02*
X141300000Y-113190000D01*
X136800000Y-117300000D02*
X136800000Y-116800000D01*
X143860000Y-113190000D02*
X127740000Y-113190000D01*
X111300000Y-103550000D02*
X115300000Y-103550000D01*
X111300000Y-100250000D02*
X111300000Y-103550000D01*
X143372936Y-89565000D02*
X143827064Y-89565000D01*
X143372936Y-91035000D02*
X143827064Y-91035000D01*
X116000000Y-116800000D02*
X116000000Y-117300000D01*
X112840000Y-115800000D02*
X113450000Y-115800000D01*
X113790000Y-112890000D02*
X112540000Y-112890000D01*
X113450000Y-117300000D02*
X126350000Y-117300000D01*
X120000000Y-116800000D02*
X120000000Y-117300000D01*
X117800000Y-117300000D02*
X117800000Y-116800000D01*
X112840000Y-113190000D02*
X112840000Y-117910000D01*
X119800000Y-117300000D02*
X119800000Y-116800000D01*
X119800000Y-116800000D02*
X120000000Y-116800000D01*
X112540000Y-112890000D02*
X112540000Y-114140000D01*
X126960000Y-117910000D02*
X126960000Y-113190000D01*
X121900000Y-117300000D02*
X121900000Y-116800000D01*
X117800000Y-116800000D02*
X118000000Y-116800000D01*
X114600000Y-113190000D02*
X114600000Y-112990000D01*
X114600000Y-113090000D02*
X114300000Y-113090000D01*
X121800000Y-116800000D02*
X122000000Y-116800000D01*
X121800000Y-117300000D02*
X121800000Y-116800000D01*
X122000000Y-116800000D02*
X122000000Y-117300000D01*
X126960000Y-113190000D02*
X112840000Y-113190000D01*
X115800000Y-116800000D02*
X116000000Y-116800000D01*
X123800000Y-117300000D02*
X123800000Y-116800000D01*
X119900000Y-117300000D02*
X119900000Y-116800000D01*
X114300000Y-112990000D02*
X114300000Y-113190000D01*
X115400000Y-113190000D02*
X115400000Y-113800000D01*
X123900000Y-117300000D02*
X123900000Y-116800000D01*
X112840000Y-114500000D02*
X113450000Y-114500000D01*
X124400000Y-113800000D02*
X124400000Y-113190000D01*
X115400000Y-113800000D02*
X113450000Y-113800000D01*
X126960000Y-115800000D02*
X126350000Y-115800000D01*
X115900000Y-117300000D02*
X115900000Y-116800000D01*
X123800000Y-116800000D02*
X124000000Y-116800000D01*
X126350000Y-113800000D02*
X124400000Y-113800000D01*
X124000000Y-116800000D02*
X124000000Y-117300000D01*
X126350000Y-117300000D02*
X126350000Y-113800000D01*
X113450000Y-113800000D02*
X113450000Y-117300000D01*
X126960000Y-114500000D02*
X126350000Y-114500000D01*
X118000000Y-116800000D02*
X118000000Y-117300000D01*
X112840000Y-117910000D02*
X126960000Y-117910000D01*
X114600000Y-112990000D02*
X114300000Y-112990000D01*
X117900000Y-117300000D02*
X117900000Y-116800000D01*
X115800000Y-117300000D02*
X115800000Y-116800000D01*
X117870000Y-69505000D02*
X128150000Y-69505000D01*
X119200000Y-74705000D02*
X117870000Y-74705000D01*
X120470000Y-74705000D02*
X128150000Y-74705000D01*
X120470000Y-72105000D02*
X117870000Y-72105000D01*
X117870000Y-72105000D02*
X117870000Y-69505000D01*
X120470000Y-74705000D02*
X120470000Y-72105000D01*
X117870000Y-74705000D02*
X117870000Y-73375000D01*
X128150000Y-74705000D02*
X128150000Y-69505000D01*
X105300000Y-112240000D02*
X107250000Y-112240000D01*
X105300000Y-117360000D02*
X108750000Y-117360000D01*
X105300000Y-112240000D02*
X103350000Y-112240000D01*
X105300000Y-117360000D02*
X103350000Y-117360000D01*
X98750000Y-88200000D02*
X99250000Y-88200000D01*
X102250000Y-90750000D02*
X102250000Y-88800000D01*
X102960000Y-81000000D02*
X102960000Y-80700000D01*
X98750000Y-86300000D02*
X99250000Y-86300000D01*
X98140000Y-79240000D02*
X98140000Y-91360000D01*
X103060000Y-80700000D02*
X102860000Y-80700000D01*
X102250000Y-81800000D02*
X102250000Y-79850000D01*
X102250000Y-79850000D02*
X98750000Y-79850000D01*
X102250000Y-88800000D02*
X102860000Y-88800000D01*
X101550000Y-79240000D02*
X101550000Y-79850000D01*
X102860000Y-81800000D02*
X102250000Y-81800000D01*
X98750000Y-90750000D02*
X102250000Y-90750000D01*
X102860000Y-81000000D02*
X103060000Y-81000000D01*
X98750000Y-88300000D02*
X99250000Y-88300000D01*
X99250000Y-84400000D02*
X98750000Y-84400000D01*
X98750000Y-79850000D02*
X98750000Y-90750000D01*
X100250000Y-79240000D02*
X100250000Y-79850000D01*
X103060000Y-81000000D02*
X103060000Y-80700000D01*
X103160000Y-80190000D02*
X103160000Y-78940000D01*
X99250000Y-84200000D02*
X99250000Y-84400000D01*
X99250000Y-86400000D02*
X98750000Y-86400000D01*
X102860000Y-79240000D02*
X98140000Y-79240000D01*
X99250000Y-88400000D02*
X98750000Y-88400000D01*
X99250000Y-82200000D02*
X99250000Y-82400000D01*
X98140000Y-91360000D02*
X102860000Y-91360000D01*
X98750000Y-82300000D02*
X99250000Y-82300000D01*
X99250000Y-88200000D02*
X99250000Y-88400000D01*
X99250000Y-86200000D02*
X99250000Y-86400000D01*
X100250000Y-91360000D02*
X100250000Y-90750000D01*
X99250000Y-82400000D02*
X98750000Y-82400000D01*
X98750000Y-82200000D02*
X99250000Y-82200000D01*
X98750000Y-84200000D02*
X99250000Y-84200000D01*
X98750000Y-84300000D02*
X99250000Y-84300000D01*
X103160000Y-78940000D02*
X101910000Y-78940000D01*
X102860000Y-91360000D02*
X102860000Y-79240000D01*
X98750000Y-86200000D02*
X99250000Y-86200000D01*
X101550000Y-91360000D02*
X101550000Y-90750000D01*
X132700000Y-92070000D02*
X133360000Y-92070000D01*
X133360000Y-93480000D02*
X133360000Y-92070000D01*
X131040000Y-92070000D02*
X131700000Y-92070000D01*
X131040000Y-92070000D02*
X131040000Y-94100000D01*
X144311252Y-82240000D02*
X142888748Y-82240000D01*
X144311252Y-84960000D02*
X142888748Y-84960000D01*
X114417064Y-71770000D02*
X113962936Y-71770000D01*
X114417064Y-73240000D02*
X113962936Y-73240000D01*
X99538748Y-115765000D02*
X100061252Y-115765000D01*
X99538748Y-117235000D02*
X100061252Y-117235000D01*
X144165000Y-76727064D02*
X144165000Y-76272936D01*
X145635000Y-76727064D02*
X145635000Y-76272936D01*
X109365000Y-102161252D02*
X109365000Y-101638748D01*
X110835000Y-102161252D02*
X110835000Y-101638748D01*
X111961252Y-82565000D02*
X111438748Y-82565000D01*
X111961252Y-84035000D02*
X111438748Y-84035000D01*
X146335000Y-96227064D02*
X146335000Y-95772936D01*
X144865000Y-96227064D02*
X144865000Y-95772936D01*
X134365000Y-79088748D02*
X134365000Y-79611252D01*
X135835000Y-79088748D02*
X135835000Y-79611252D01*
X129561252Y-79265000D02*
X129038748Y-79265000D01*
X129561252Y-80735000D02*
X129038748Y-80735000D01*
X106061252Y-90835000D02*
X105538748Y-90835000D01*
X106061252Y-89365000D02*
X105538748Y-89365000D01*
X111961252Y-80465000D02*
X111438748Y-80465000D01*
X111961252Y-81935000D02*
X111438748Y-81935000D01*
X114427064Y-77635000D02*
X113972936Y-77635000D01*
X114427064Y-76165000D02*
X113972936Y-76165000D01*
X126238748Y-84665000D02*
X126761252Y-84665000D01*
X126238748Y-86135000D02*
X126761252Y-86135000D01*
X111261252Y-97265000D02*
X110738748Y-97265000D01*
X111261252Y-98735000D02*
X110738748Y-98735000D01*
X144427064Y-87135000D02*
X143972936Y-87135000D01*
X144427064Y-85665000D02*
X143972936Y-85665000D01*
X121335000Y-99938748D02*
X121335000Y-100461252D01*
X119865000Y-99938748D02*
X119865000Y-100461252D01*
X103900000Y-68800000D02*
X101900000Y-68800000D01*
X100000000Y-68800000D02*
X98100000Y-68800000D01*
X103900000Y-78200000D02*
X101900000Y-78200000D01*
X100000000Y-78200000D02*
X98100000Y-78200000D01*
X98100000Y-68800000D02*
X98100000Y-78200000D01*
X144638748Y-100065000D02*
X145161252Y-100065000D01*
X144638748Y-101535000D02*
X145161252Y-101535000D01*
X143930000Y-72130000D02*
X141330000Y-72130000D01*
X145200000Y-69470000D02*
X146530000Y-69470000D01*
X146530000Y-69470000D02*
X146530000Y-70800000D01*
X143930000Y-69470000D02*
X141330000Y-69470000D01*
X143930000Y-69470000D02*
X143930000Y-72130000D01*
X141330000Y-69470000D02*
X141330000Y-72130000D01*
X131770000Y-110530000D02*
X139450000Y-110530000D01*
X129170000Y-105330000D02*
X139450000Y-105330000D01*
X131770000Y-110530000D02*
X131770000Y-107930000D01*
X131770000Y-107930000D02*
X129170000Y-107930000D01*
X129170000Y-107930000D02*
X129170000Y-105330000D01*
X129170000Y-110530000D02*
X129170000Y-109200000D01*
X130500000Y-110530000D02*
X129170000Y-110530000D01*
X139450000Y-110530000D02*
X139450000Y-105330000D01*
%LPC*%
D12*
X114650000Y-96475000D03*
X115150000Y-96475000D03*
X115650000Y-96475000D03*
X116150000Y-96475000D03*
X116650000Y-96475000D03*
X117150000Y-96475000D03*
X117650000Y-96475000D03*
X118150000Y-96475000D03*
X118650000Y-96475000D03*
X119150000Y-96475000D03*
X119650000Y-96475000D03*
X120150000Y-96475000D03*
X120650000Y-96475000D03*
X121150000Y-96475000D03*
X121650000Y-96475000D03*
X122150000Y-96475000D03*
D13*
X124075000Y-94550000D03*
X124075000Y-94050000D03*
X124075000Y-93550000D03*
X124075000Y-93050000D03*
X124075000Y-92550000D03*
X124075000Y-92050000D03*
X124075000Y-91550000D03*
X124075000Y-91050000D03*
X124075000Y-90550000D03*
X124075000Y-90050000D03*
X124075000Y-89550000D03*
X124075000Y-89050000D03*
X124075000Y-88550000D03*
X124075000Y-88050000D03*
X124075000Y-87550000D03*
X124075000Y-87050000D03*
D12*
X122150000Y-85125000D03*
X121650000Y-85125000D03*
X121150000Y-85125000D03*
X120650000Y-85125000D03*
X120150000Y-85125000D03*
X119650000Y-85125000D03*
X119150000Y-85125000D03*
X118650000Y-85125000D03*
X118150000Y-85125000D03*
X117650000Y-85125000D03*
X117150000Y-85125000D03*
X116650000Y-85125000D03*
X116150000Y-85125000D03*
X115650000Y-85125000D03*
X115150000Y-85125000D03*
X114650000Y-85125000D03*
D13*
X112725000Y-87050000D03*
X112725000Y-87550000D03*
X112725000Y-88050000D03*
X112725000Y-88550000D03*
X112725000Y-89050000D03*
X112725000Y-89550000D03*
X112725000Y-90050000D03*
X112725000Y-90550000D03*
X112725000Y-91050000D03*
X112725000Y-91550000D03*
X112725000Y-92050000D03*
X112725000Y-92550000D03*
X112725000Y-93050000D03*
X112725000Y-93550000D03*
X112725000Y-94050000D03*
X112725000Y-94550000D03*
D14*
X115125000Y-74700000D03*
X113300000Y-74700000D03*
D15*
X125800000Y-95850000D03*
X125800000Y-97750000D03*
D16*
X115000000Y-111750000D03*
X115000000Y-109850000D03*
D17*
X143987500Y-98800000D03*
X145812500Y-98800000D03*
D18*
X100500000Y-114612500D03*
X100500000Y-112787500D03*
D14*
X143812500Y-73700000D03*
X141987500Y-73700000D03*
D15*
X116550000Y-100940000D03*
X116550000Y-102840000D03*
D19*
X141550000Y-96537500D03*
X142500000Y-96537500D03*
X143450000Y-96537500D03*
X143450000Y-94262500D03*
X142500000Y-94262500D03*
X141550000Y-94262500D03*
D18*
X121000000Y-111712500D03*
X121000000Y-109887500D03*
D20*
X101050000Y-103100000D03*
D21*
X101050000Y-105100000D03*
X101050000Y-107100000D03*
X101050000Y-109100000D03*
D22*
X145700000Y-111400000D03*
X143800000Y-111400000D03*
D14*
X115100000Y-70300000D03*
X113275000Y-70300000D03*
D23*
X107825000Y-106625000D03*
D24*
X110365000Y-106625000D03*
X107825000Y-109165000D03*
X110365000Y-109165000D03*
D17*
X109687500Y-76900000D03*
X111512500Y-76900000D03*
D25*
X109687500Y-74700000D03*
X111562500Y-74700000D03*
D26*
X142550000Y-79730000D03*
X142550000Y-78460000D03*
X142550000Y-77190000D03*
X142550000Y-75920000D03*
X137250000Y-75920000D03*
X137250000Y-77190000D03*
X137250000Y-78460000D03*
X137250000Y-79730000D03*
D27*
X139900000Y-77825000D03*
D18*
X119000000Y-111712500D03*
X119000000Y-109887500D03*
D28*
X125550000Y-83400000D03*
X127450000Y-83400000D03*
D25*
X109650000Y-70300000D03*
X111525000Y-70300000D03*
D22*
X106750000Y-92200000D03*
X104850000Y-92200000D03*
D17*
X104887500Y-94200000D03*
X106712500Y-94200000D03*
D29*
X139500000Y-85500000D03*
X133900000Y-85500000D03*
D20*
X101050000Y-94200000D03*
D21*
X101050000Y-96200000D03*
X101050000Y-98200000D03*
D22*
X141650000Y-98700000D03*
X139750000Y-98700000D03*
D30*
X146700000Y-109200000D03*
D31*
X146612500Y-107700000D03*
D30*
X146700000Y-106200000D03*
D16*
X135100000Y-76900000D03*
X135100000Y-75000000D03*
D17*
X137387500Y-73725000D03*
X139212500Y-73725000D03*
D22*
X145900000Y-104000000D03*
X144000000Y-104000000D03*
X111950000Y-96000000D03*
X110050000Y-96000000D03*
D28*
X142650000Y-92300000D03*
X144550000Y-92300000D03*
D14*
X132812500Y-95700000D03*
X130987500Y-95700000D03*
D18*
X117000000Y-111712500D03*
X117000000Y-109887500D03*
D14*
X139212500Y-71750000D03*
X137387500Y-71750000D03*
D18*
X123000000Y-111712500D03*
X123000000Y-109887500D03*
D15*
X144900000Y-79000000D03*
X144900000Y-80900000D03*
D32*
X139800000Y-95400000D03*
X137000000Y-95400000D03*
D25*
X109652500Y-72500000D03*
X111527500Y-72500000D03*
D15*
X109900000Y-113650000D03*
X109900000Y-115550000D03*
D33*
X132900000Y-78400000D03*
X132900000Y-75100000D03*
D34*
X129800000Y-115000000D03*
D35*
X131800000Y-115000000D03*
X133800000Y-115000000D03*
X135800000Y-115000000D03*
X137800000Y-115000000D03*
X139800000Y-115000000D03*
X141800000Y-115000000D03*
D36*
X112200000Y-102750000D03*
X114400000Y-102750000D03*
X114400000Y-101050000D03*
X112200000Y-101050000D03*
D17*
X142687500Y-90300000D03*
X144512500Y-90300000D03*
D34*
X114900000Y-115000000D03*
D35*
X116900000Y-115000000D03*
X118900000Y-115000000D03*
X120900000Y-115000000D03*
X122900000Y-115000000D03*
X124900000Y-115000000D03*
D23*
X119200000Y-73375000D03*
D24*
X119200000Y-70835000D03*
X121740000Y-73375000D03*
X121740000Y-70835000D03*
X124280000Y-73375000D03*
X124280000Y-70835000D03*
X126820000Y-73375000D03*
X126820000Y-70835000D03*
D37*
X107775000Y-116705000D03*
X107775000Y-115435000D03*
X107775000Y-114165000D03*
X107775000Y-112895000D03*
X102825000Y-112895000D03*
X102825000Y-114165000D03*
X102825000Y-115435000D03*
X102825000Y-116705000D03*
D20*
X101050000Y-81300000D03*
D21*
X101050000Y-83300000D03*
X101050000Y-85300000D03*
X101050000Y-87300000D03*
X101050000Y-89300000D03*
D38*
X131550000Y-93800000D03*
X132850000Y-93800000D03*
X132200000Y-91800000D03*
D39*
X145075000Y-83600000D03*
X142125000Y-83600000D03*
D14*
X115102500Y-72505000D03*
X113277500Y-72505000D03*
D28*
X98850000Y-116500000D03*
X100750000Y-116500000D03*
D18*
X144900000Y-77412500D03*
X144900000Y-75587500D03*
D16*
X110100000Y-102850000D03*
X110100000Y-100950000D03*
D22*
X112650000Y-83300000D03*
X110750000Y-83300000D03*
D18*
X145600000Y-96912500D03*
X145600000Y-95087500D03*
D15*
X135100000Y-78400000D03*
X135100000Y-80300000D03*
D22*
X130250000Y-80000000D03*
X128350000Y-80000000D03*
X106750000Y-90100000D03*
X104850000Y-90100000D03*
X112650000Y-81200000D03*
X110750000Y-81200000D03*
D14*
X115112500Y-76900000D03*
X113287500Y-76900000D03*
D28*
X125550000Y-85400000D03*
X127450000Y-85400000D03*
D22*
X111950000Y-98000000D03*
X110050000Y-98000000D03*
D14*
X145112500Y-86400000D03*
X143287500Y-86400000D03*
D15*
X120600000Y-99250000D03*
X120600000Y-101150000D03*
D40*
X104600000Y-70610000D03*
X104600000Y-76390000D03*
D41*
X106045000Y-70250000D03*
X106045000Y-71050000D03*
D42*
X106045000Y-72250000D03*
X106045000Y-73250000D03*
X106045000Y-73750000D03*
X106045000Y-74750000D03*
D41*
X106045000Y-75950000D03*
X106045000Y-76750000D03*
X106045000Y-76750000D03*
X106045000Y-75950000D03*
D42*
X106045000Y-75250000D03*
X106045000Y-74250000D03*
X106045000Y-72750000D03*
X106045000Y-71750000D03*
D41*
X106045000Y-71050000D03*
X106045000Y-70250000D03*
D43*
X100950000Y-77820000D03*
D44*
X105130000Y-77820000D03*
X105130000Y-69180000D03*
D43*
X100950000Y-69180000D03*
D28*
X143950000Y-100800000D03*
X145850000Y-100800000D03*
D23*
X145200000Y-70800000D03*
D24*
X142660000Y-70800000D03*
D23*
X130500000Y-109200000D03*
D24*
X130500000Y-106660000D03*
X133040000Y-109200000D03*
X133040000Y-106660000D03*
X135580000Y-109200000D03*
X135580000Y-106660000D03*
X138120000Y-109200000D03*
X138120000Y-106660000D03*
M02*
