M48
; DRILL file {KiCad (6.0.7-1)-1} date 2022 November 21, Monday 10:35:32
; FORMAT={-:-/ absolute / metric / decimal}
; #@! TF.CreationDate,2022-11-21T10:35:32+01:00
; #@! TF.GenerationSoftware,Kicad,Pcbnew,(6.0.7-1)-1
; #@! TF.FileFunction,Plated,1,4,PTH
FMAT,2
METRIC
; #@! TA.AperFunction,Plated,PTH,ComponentDrill
T1C0.600
; #@! TA.AperFunction,Plated,PTH,ComponentDrill
T2C0.750
; #@! TA.AperFunction,Plated,PTH,ComponentDrill
T3C1.000
%
G90
G05
T2
X101.05Y-81.3
X101.05Y-83.3
X101.05Y-85.3
X101.05Y-87.3
X101.05Y-89.3
X101.05Y-94.2
X101.05Y-96.2
X101.05Y-98.2
X101.05Y-103.1
X101.05Y-105.1
X101.05Y-107.1
X101.05Y-109.1
X115.0Y-115.0
X117.0Y-115.0
X119.0Y-115.0
X121.0Y-115.0
X123.0Y-115.0
X125.0Y-115.0
X129.8Y-115.0
X131.8Y-115.0
X133.8Y-115.0
X135.8Y-115.0
X137.8Y-115.0
X139.8Y-115.0
X141.8Y-115.0
T3
X107.825Y-106.625
X107.825Y-109.165
X110.365Y-106.625
X110.365Y-109.165
X119.2Y-70.835
X119.2Y-73.375
X121.74Y-70.835
X121.74Y-73.375
X124.28Y-70.835
X124.28Y-73.375
X126.82Y-70.835
X126.82Y-73.375
X135.625Y-106.625
X135.625Y-109.165
X138.165Y-106.625
X138.165Y-109.165
X142.66Y-70.8
X145.2Y-70.8
T1
X101.09Y-69.18G85X100.49Y-69.18
G05
X101.09Y-77.82G85X100.49Y-77.82
G05
X105.52Y-69.18G85X104.42Y-69.18
G05
X105.52Y-77.82G85X104.42Y-77.82
G05
T0
M30
