G04 #@! TF.GenerationSoftware,KiCad,Pcbnew,(6.0.7-1)-1*
G04 #@! TF.CreationDate,2022-12-05T10:56:52+01:00*
G04 #@! TF.ProjectId,ESC-logic,4553432d-6c6f-4676-9963-2e6b69636164,rev?*
G04 #@! TF.SameCoordinates,Original*
G04 #@! TF.FileFunction,Copper,L3,Inr*
G04 #@! TF.FilePolarity,Positive*
%FSLAX46Y46*%
G04 Gerber Fmt 4.6, Leading zero omitted, Abs format (unit mm)*
G04 Created by KiCad (PCBNEW (6.0.7-1)-1) date 2022-12-05 10:56:52*
%MOMM*%
%LPD*%
G01*
G04 APERTURE LIST*
G04 Aperture macros list*
%AMRoundRect*
0 Rectangle with rounded corners*
0 $1 Rounding radius*
0 $2 $3 $4 $5 $6 $7 $8 $9 X,Y pos of 4 corners*
0 Add a 4 corners polygon primitive as box body*
4,1,4,$2,$3,$4,$5,$6,$7,$8,$9,$2,$3,0*
0 Add four circle primitives for the rounded corners*
1,1,$1+$1,$2,$3*
1,1,$1+$1,$4,$5*
1,1,$1+$1,$6,$7*
1,1,$1+$1,$8,$9*
0 Add four rect primitives between the rounded corners*
20,1,$1+$1,$2,$3,$4,$5,0*
20,1,$1+$1,$4,$5,$6,$7,0*
20,1,$1+$1,$6,$7,$8,$9,0*
20,1,$1+$1,$8,$9,$2,$3,0*%
G04 Aperture macros list end*
G04 #@! TA.AperFunction,ComponentPad*
%ADD10O,1.700000X1.700000*%
G04 #@! TD*
G04 #@! TA.AperFunction,ComponentPad*
%ADD11R,1.700000X1.700000*%
G04 #@! TD*
G04 #@! TA.AperFunction,ComponentPad*
%ADD12RoundRect,0.250000X-0.350000X-0.625000X0.350000X-0.625000X0.350000X0.625000X-0.350000X0.625000X0*%
G04 #@! TD*
G04 #@! TA.AperFunction,ComponentPad*
%ADD13O,1.200000X1.750000*%
G04 #@! TD*
G04 #@! TA.AperFunction,ComponentPad*
%ADD14RoundRect,0.250000X-0.625000X0.350000X-0.625000X-0.350000X0.625000X-0.350000X0.625000X0.350000X0*%
G04 #@! TD*
G04 #@! TA.AperFunction,ComponentPad*
%ADD15O,1.750000X1.200000*%
G04 #@! TD*
G04 #@! TA.AperFunction,ComponentPad*
%ADD16O,1.600000X1.000000*%
G04 #@! TD*
G04 #@! TA.AperFunction,ComponentPad*
%ADD17O,2.100000X1.000000*%
G04 #@! TD*
G04 #@! TA.AperFunction,ViaPad*
%ADD18C,0.600000*%
G04 #@! TD*
G04 #@! TA.AperFunction,ViaPad*
%ADD19C,0.800000*%
G04 #@! TD*
G04 #@! TA.AperFunction,Conductor*
%ADD20C,1.000000*%
G04 #@! TD*
G04 APERTURE END LIST*
D10*
X126820000Y-70835000D03*
X126820000Y-73375000D03*
X124280000Y-70835000D03*
X124280000Y-73375000D03*
X121740000Y-70835000D03*
X121740000Y-73375000D03*
X119200000Y-70835000D03*
D11*
X119200000Y-73375000D03*
D12*
X129800000Y-113000000D03*
D13*
X131800000Y-113000000D03*
X133800000Y-113000000D03*
X135800000Y-113000000D03*
X137800000Y-113000000D03*
X139800000Y-113000000D03*
X141800000Y-113000000D03*
D14*
X103250000Y-103250000D03*
D15*
X103250000Y-105250000D03*
X103250000Y-107250000D03*
X103250000Y-109250000D03*
D14*
X103200000Y-81300000D03*
D15*
X103200000Y-83300000D03*
X103200000Y-85300000D03*
X103200000Y-87300000D03*
X103200000Y-89300000D03*
D14*
X103250000Y-94250000D03*
D15*
X103250000Y-96250000D03*
X103250000Y-98250000D03*
D12*
X114900000Y-113000000D03*
D13*
X116900000Y-113000000D03*
X118900000Y-113000000D03*
X120900000Y-113000000D03*
X122900000Y-113000000D03*
X124900000Y-113000000D03*
D11*
X107825000Y-106625000D03*
D10*
X110365000Y-106625000D03*
X107825000Y-109165000D03*
X110365000Y-109165000D03*
D16*
X100950000Y-77820000D03*
D17*
X105130000Y-77820000D03*
X105130000Y-69180000D03*
D16*
X100950000Y-69180000D03*
D11*
X145200000Y-70800000D03*
D10*
X142660000Y-70800000D03*
D11*
X130500000Y-109200000D03*
D10*
X130500000Y-106660000D03*
X133040000Y-109200000D03*
X133040000Y-106660000D03*
X135580000Y-109200000D03*
X135580000Y-106660000D03*
X138120000Y-109200000D03*
X138120000Y-106660000D03*
D18*
X130000000Y-90750000D03*
X131500000Y-87000000D03*
X129750000Y-87250000D03*
X115500000Y-99750000D03*
D19*
X145300000Y-110200000D03*
X138100000Y-90900000D03*
X115725000Y-106525000D03*
D18*
X114750000Y-94250000D03*
D19*
X111000000Y-104250000D03*
D18*
X108400000Y-73900000D03*
D19*
X106100000Y-114900000D03*
D18*
X120700000Y-94700000D03*
X134300000Y-74000000D03*
X133200000Y-98300000D03*
X142800000Y-98000000D03*
D19*
X123000000Y-103500000D03*
X104450500Y-115900000D03*
D18*
X126700000Y-98900000D03*
D19*
X125900000Y-93800000D03*
X114600000Y-68900000D03*
X113262500Y-97862500D03*
X124100000Y-83300000D03*
X137300000Y-100100000D03*
X110000000Y-112600000D03*
D18*
X122700000Y-91200000D03*
X121250000Y-104000000D03*
X108900000Y-90800000D03*
X117400000Y-94200000D03*
X121000000Y-111000000D03*
X118900000Y-86800000D03*
X119599924Y-87625613D03*
X122750000Y-111000000D03*
X125000000Y-111000000D03*
X120600000Y-88000000D03*
X114900000Y-86500000D03*
X122300000Y-87200000D03*
X116500000Y-73400000D03*
X115900000Y-75600000D03*
X121600000Y-87900000D03*
X108500000Y-75800000D03*
X104800000Y-75300000D03*
X141900000Y-87100000D03*
X121606777Y-90550500D03*
X127400000Y-89800000D03*
D20*
X138100000Y-90900000D02*
X138400000Y-90900000D01*
X138400000Y-90900000D02*
X139250000Y-91750000D01*
X139250000Y-91750000D02*
X139250000Y-105530000D01*
X139250000Y-105530000D02*
X138120000Y-106660000D01*
G04 #@! TA.AperFunction,Conductor*
G36*
X99907808Y-68274502D02*
G01*
X99954301Y-68328158D01*
X99964405Y-68398432D01*
X99935860Y-68460934D01*
X99936292Y-68461292D01*
X99934963Y-68462899D01*
X99934911Y-68463012D01*
X99934544Y-68463405D01*
X99814216Y-68608856D01*
X99807356Y-68619027D01*
X99719196Y-68782076D01*
X99714444Y-68793381D01*
X99678750Y-68908692D01*
X99678544Y-68922795D01*
X99685299Y-68926000D01*
X102207924Y-68926000D01*
X102221455Y-68922027D01*
X102222575Y-68914232D01*
X102190862Y-68806479D01*
X102186269Y-68795111D01*
X102100393Y-68630846D01*
X102093679Y-68620585D01*
X101977532Y-68476127D01*
X101970218Y-68468658D01*
X101936847Y-68405993D01*
X101942653Y-68335234D01*
X101985792Y-68278847D01*
X102052568Y-68254734D01*
X102060241Y-68254500D01*
X103769687Y-68254500D01*
X103837808Y-68274502D01*
X103884301Y-68328158D01*
X103894405Y-68398432D01*
X103865860Y-68460934D01*
X103866292Y-68461292D01*
X103864963Y-68462899D01*
X103864911Y-68463012D01*
X103864544Y-68463405D01*
X103744216Y-68608856D01*
X103737356Y-68619027D01*
X103649196Y-68782076D01*
X103644444Y-68793381D01*
X103608750Y-68908692D01*
X103608544Y-68922795D01*
X103615299Y-68926000D01*
X106637924Y-68926000D01*
X106651455Y-68922027D01*
X106652575Y-68914232D01*
X106620862Y-68806479D01*
X106616269Y-68795111D01*
X106530393Y-68630846D01*
X106523679Y-68620585D01*
X106407532Y-68476127D01*
X106400218Y-68468658D01*
X106366847Y-68405993D01*
X106372653Y-68335234D01*
X106415792Y-68278847D01*
X106482568Y-68254734D01*
X106490241Y-68254500D01*
X114012253Y-68254500D01*
X114080374Y-68274502D01*
X114126867Y-68328158D01*
X114136971Y-68398432D01*
X114109020Y-68458122D01*
X114110039Y-68458838D01*
X114105981Y-68464611D01*
X114105980Y-68464614D01*
X114105674Y-68465048D01*
X114105671Y-68465052D01*
X114048015Y-68547089D01*
X114018950Y-68588444D01*
X113961406Y-68736037D01*
X113960414Y-68743570D01*
X113960414Y-68743571D01*
X113953857Y-68793381D01*
X113940729Y-68893096D01*
X113958113Y-69050553D01*
X114012553Y-69199319D01*
X114100908Y-69330805D01*
X114106527Y-69335918D01*
X114106528Y-69335919D01*
X114117903Y-69346269D01*
X114218076Y-69437419D01*
X114357293Y-69513008D01*
X114510522Y-69553207D01*
X114594477Y-69554526D01*
X114661319Y-69555576D01*
X114661322Y-69555576D01*
X114668916Y-69555695D01*
X114823332Y-69520329D01*
X114916124Y-69473660D01*
X114958072Y-69452563D01*
X114958075Y-69452561D01*
X114964855Y-69449151D01*
X114970626Y-69444222D01*
X114970629Y-69444220D01*
X115079536Y-69351204D01*
X115079536Y-69351203D01*
X115085314Y-69346269D01*
X115177755Y-69217624D01*
X115236842Y-69070641D01*
X115259162Y-68913807D01*
X115259307Y-68900000D01*
X115240276Y-68742733D01*
X115184280Y-68594546D01*
X115094553Y-68463992D01*
X115092350Y-68462030D01*
X115063144Y-68399496D01*
X115072648Y-68329138D01*
X115118681Y-68275088D01*
X115187704Y-68254500D01*
X147619500Y-68254500D01*
X147687621Y-68274502D01*
X147734114Y-68328158D01*
X147745500Y-68380500D01*
X147745500Y-117619500D01*
X147725498Y-117687621D01*
X147671842Y-117734114D01*
X147619500Y-117745500D01*
X98380500Y-117745500D01*
X98312379Y-117725498D01*
X98265886Y-117671842D01*
X98254500Y-117619500D01*
X98254500Y-113672095D01*
X113792001Y-113672095D01*
X113792338Y-113678614D01*
X113802257Y-113774206D01*
X113805149Y-113787600D01*
X113856588Y-113941784D01*
X113862761Y-113954962D01*
X113948063Y-114092807D01*
X113957099Y-114104208D01*
X114071829Y-114218739D01*
X114083240Y-114227751D01*
X114221243Y-114312816D01*
X114234424Y-114318963D01*
X114388710Y-114370138D01*
X114402086Y-114373005D01*
X114496438Y-114382672D01*
X114502854Y-114383000D01*
X114627885Y-114383000D01*
X114643124Y-114378525D01*
X114644329Y-114377135D01*
X114646000Y-114369452D01*
X114646000Y-114364884D01*
X115154000Y-114364884D01*
X115158475Y-114380123D01*
X115159865Y-114381328D01*
X115167548Y-114382999D01*
X115297095Y-114382999D01*
X115303614Y-114382662D01*
X115399206Y-114372743D01*
X115412600Y-114369851D01*
X115566784Y-114318412D01*
X115579962Y-114312239D01*
X115717807Y-114226937D01*
X115729208Y-114217901D01*
X115843739Y-114103171D01*
X115852751Y-114091760D01*
X115937816Y-113953757D01*
X115943964Y-113940574D01*
X115985328Y-113815865D01*
X116025759Y-113757505D01*
X116091323Y-113730268D01*
X116161204Y-113742801D01*
X116206272Y-113784484D01*
X116207711Y-113783392D01*
X116211835Y-113788825D01*
X116215351Y-113794677D01*
X116220039Y-113799634D01*
X116220041Y-113799637D01*
X116297006Y-113881024D01*
X116342916Y-113929572D01*
X116496471Y-114033928D01*
X116502805Y-114036461D01*
X116502808Y-114036463D01*
X116662516Y-114100342D01*
X116662521Y-114100343D01*
X116668853Y-114102876D01*
X116675580Y-114103990D01*
X116675585Y-114103991D01*
X116845282Y-114132084D01*
X116845285Y-114132084D01*
X116852019Y-114133199D01*
X116858836Y-114132842D01*
X116858840Y-114132842D01*
X117009920Y-114124923D01*
X117037424Y-114123482D01*
X117043996Y-114121672D01*
X117044001Y-114121671D01*
X117209835Y-114075992D01*
X117216417Y-114074179D01*
X117380648Y-113987590D01*
X117522454Y-113867755D01*
X117526602Y-113862330D01*
X117631075Y-113725685D01*
X117631077Y-113725681D01*
X117635219Y-113720264D01*
X117646451Y-113696177D01*
X117710802Y-113558177D01*
X117710803Y-113558174D01*
X117713682Y-113552000D01*
X117754182Y-113370812D01*
X117754500Y-113365124D01*
X117754500Y-113321385D01*
X118045500Y-113321385D01*
X118060512Y-113459573D01*
X118119730Y-113635535D01*
X118215351Y-113794677D01*
X118220039Y-113799634D01*
X118220041Y-113799637D01*
X118297006Y-113881024D01*
X118342916Y-113929572D01*
X118496471Y-114033928D01*
X118502805Y-114036461D01*
X118502808Y-114036463D01*
X118662516Y-114100342D01*
X118662521Y-114100343D01*
X118668853Y-114102876D01*
X118675580Y-114103990D01*
X118675585Y-114103991D01*
X118845282Y-114132084D01*
X118845285Y-114132084D01*
X118852019Y-114133199D01*
X118858836Y-114132842D01*
X118858840Y-114132842D01*
X119009920Y-114124923D01*
X119037424Y-114123482D01*
X119043996Y-114121672D01*
X119044001Y-114121671D01*
X119209835Y-114075992D01*
X119216417Y-114074179D01*
X119380648Y-113987590D01*
X119522454Y-113867755D01*
X119526602Y-113862330D01*
X119631075Y-113725685D01*
X119631077Y-113725681D01*
X119635219Y-113720264D01*
X119646451Y-113696177D01*
X119710802Y-113558177D01*
X119710803Y-113558174D01*
X119713682Y-113552000D01*
X119754182Y-113370812D01*
X119754500Y-113365124D01*
X119754500Y-113321385D01*
X120045500Y-113321385D01*
X120060512Y-113459573D01*
X120119730Y-113635535D01*
X120215351Y-113794677D01*
X120220039Y-113799634D01*
X120220041Y-113799637D01*
X120297006Y-113881024D01*
X120342916Y-113929572D01*
X120496471Y-114033928D01*
X120502805Y-114036461D01*
X120502808Y-114036463D01*
X120662516Y-114100342D01*
X120662521Y-114100343D01*
X120668853Y-114102876D01*
X120675580Y-114103990D01*
X120675585Y-114103991D01*
X120845282Y-114132084D01*
X120845285Y-114132084D01*
X120852019Y-114133199D01*
X120858836Y-114132842D01*
X120858840Y-114132842D01*
X121009920Y-114124923D01*
X121037424Y-114123482D01*
X121043996Y-114121672D01*
X121044001Y-114121671D01*
X121209835Y-114075992D01*
X121216417Y-114074179D01*
X121380648Y-113987590D01*
X121522454Y-113867755D01*
X121526602Y-113862330D01*
X121631075Y-113725685D01*
X121631077Y-113725681D01*
X121635219Y-113720264D01*
X121646451Y-113696177D01*
X121710802Y-113558177D01*
X121710803Y-113558174D01*
X121713682Y-113552000D01*
X121754182Y-113370812D01*
X121754500Y-113365124D01*
X121754500Y-113321385D01*
X122045500Y-113321385D01*
X122060512Y-113459573D01*
X122119730Y-113635535D01*
X122215351Y-113794677D01*
X122220039Y-113799634D01*
X122220041Y-113799637D01*
X122297006Y-113881024D01*
X122342916Y-113929572D01*
X122496471Y-114033928D01*
X122502805Y-114036461D01*
X122502808Y-114036463D01*
X122662516Y-114100342D01*
X122662521Y-114100343D01*
X122668853Y-114102876D01*
X122675580Y-114103990D01*
X122675585Y-114103991D01*
X122845282Y-114132084D01*
X122845285Y-114132084D01*
X122852019Y-114133199D01*
X122858836Y-114132842D01*
X122858840Y-114132842D01*
X123009920Y-114124923D01*
X123037424Y-114123482D01*
X123043996Y-114121672D01*
X123044001Y-114121671D01*
X123209835Y-114075992D01*
X123216417Y-114074179D01*
X123380648Y-113987590D01*
X123522454Y-113867755D01*
X123526602Y-113862330D01*
X123631075Y-113725685D01*
X123631077Y-113725681D01*
X123635219Y-113720264D01*
X123646451Y-113696177D01*
X123710802Y-113558177D01*
X123710803Y-113558174D01*
X123713682Y-113552000D01*
X123754182Y-113370812D01*
X123754500Y-113365124D01*
X123754500Y-113321385D01*
X124045500Y-113321385D01*
X124060512Y-113459573D01*
X124119730Y-113635535D01*
X124215351Y-113794677D01*
X124220039Y-113799634D01*
X124220041Y-113799637D01*
X124297006Y-113881024D01*
X124342916Y-113929572D01*
X124496471Y-114033928D01*
X124502805Y-114036461D01*
X124502808Y-114036463D01*
X124662516Y-114100342D01*
X124662521Y-114100343D01*
X124668853Y-114102876D01*
X124675580Y-114103990D01*
X124675585Y-114103991D01*
X124845282Y-114132084D01*
X124845285Y-114132084D01*
X124852019Y-114133199D01*
X124858836Y-114132842D01*
X124858840Y-114132842D01*
X125009920Y-114124923D01*
X125037424Y-114123482D01*
X125043996Y-114121672D01*
X125044001Y-114121671D01*
X125209835Y-114075992D01*
X125216417Y-114074179D01*
X125380648Y-113987590D01*
X125522454Y-113867755D01*
X125526602Y-113862330D01*
X125631075Y-113725685D01*
X125631077Y-113725681D01*
X125635219Y-113720264D01*
X125646451Y-113696177D01*
X125657372Y-113672756D01*
X128945500Y-113672756D01*
X128945869Y-113676152D01*
X128945869Y-113676153D01*
X128949990Y-113714082D01*
X128952202Y-113734448D01*
X128954974Y-113741841D01*
X128954974Y-113741843D01*
X128967106Y-113774206D01*
X129002929Y-113869764D01*
X129008309Y-113876943D01*
X129008311Y-113876946D01*
X129047752Y-113929572D01*
X129089596Y-113985404D01*
X129096776Y-113990785D01*
X129198054Y-114066689D01*
X129198057Y-114066691D01*
X129205236Y-114072071D01*
X129288196Y-114103171D01*
X129333157Y-114120026D01*
X129333159Y-114120026D01*
X129340552Y-114122798D01*
X129348402Y-114123651D01*
X129348403Y-114123651D01*
X129350134Y-114123839D01*
X129402244Y-114129500D01*
X130197756Y-114129500D01*
X130249866Y-114123839D01*
X130251597Y-114123651D01*
X130251598Y-114123651D01*
X130259448Y-114122798D01*
X130266841Y-114120026D01*
X130266843Y-114120026D01*
X130311804Y-114103171D01*
X130394764Y-114072071D01*
X130401943Y-114066691D01*
X130401946Y-114066689D01*
X130503224Y-113990785D01*
X130510404Y-113985404D01*
X130552248Y-113929572D01*
X130591689Y-113876946D01*
X130591691Y-113876943D01*
X130597071Y-113869764D01*
X130632894Y-113774206D01*
X130645026Y-113741843D01*
X130645026Y-113741841D01*
X130647798Y-113734448D01*
X130650011Y-113714082D01*
X130654131Y-113676153D01*
X130654131Y-113676152D01*
X130654500Y-113672756D01*
X130654500Y-113321385D01*
X130945500Y-113321385D01*
X130960512Y-113459573D01*
X131019730Y-113635535D01*
X131115351Y-113794677D01*
X131120039Y-113799634D01*
X131120041Y-113799637D01*
X131197006Y-113881024D01*
X131242916Y-113929572D01*
X131396471Y-114033928D01*
X131402805Y-114036461D01*
X131402808Y-114036463D01*
X131562516Y-114100342D01*
X131562521Y-114100343D01*
X131568853Y-114102876D01*
X131575580Y-114103990D01*
X131575585Y-114103991D01*
X131745282Y-114132084D01*
X131745285Y-114132084D01*
X131752019Y-114133199D01*
X131758836Y-114132842D01*
X131758840Y-114132842D01*
X131909920Y-114124923D01*
X131937424Y-114123482D01*
X131943996Y-114121672D01*
X131944001Y-114121671D01*
X132109835Y-114075992D01*
X132116417Y-114074179D01*
X132280648Y-113987590D01*
X132422454Y-113867755D01*
X132426602Y-113862330D01*
X132531075Y-113725685D01*
X132531077Y-113725681D01*
X132535219Y-113720264D01*
X132544381Y-113700617D01*
X132591299Y-113647333D01*
X132659577Y-113627873D01*
X132727536Y-113648416D01*
X132770591Y-113696177D01*
X132860619Y-113870978D01*
X132867069Y-113881024D01*
X132990262Y-114037857D01*
X132998499Y-114046506D01*
X133149123Y-114177212D01*
X133158847Y-114184147D01*
X133331467Y-114284010D01*
X133342331Y-114288984D01*
X133530727Y-114354407D01*
X133531716Y-114354648D01*
X133542008Y-114353180D01*
X133546000Y-114339615D01*
X133546000Y-114335402D01*
X134054000Y-114335402D01*
X134057973Y-114348933D01*
X134067399Y-114350288D01*
X134156537Y-114328806D01*
X134167832Y-114324917D01*
X134349382Y-114242371D01*
X134359724Y-114236424D01*
X134522397Y-114121032D01*
X134531425Y-114113239D01*
X134669342Y-113969169D01*
X134676738Y-113959804D01*
X134784921Y-113792259D01*
X134790417Y-113781655D01*
X134823155Y-113700421D01*
X134867170Y-113644715D01*
X134934315Y-113621648D01*
X135003271Y-113638545D01*
X135048024Y-113682625D01*
X135115351Y-113794677D01*
X135120039Y-113799634D01*
X135120041Y-113799637D01*
X135197006Y-113881024D01*
X135242916Y-113929572D01*
X135396471Y-114033928D01*
X135402805Y-114036461D01*
X135402808Y-114036463D01*
X135562516Y-114100342D01*
X135562521Y-114100343D01*
X135568853Y-114102876D01*
X135575580Y-114103990D01*
X135575585Y-114103991D01*
X135745282Y-114132084D01*
X135745285Y-114132084D01*
X135752019Y-114133199D01*
X135758836Y-114132842D01*
X135758840Y-114132842D01*
X135909920Y-114124923D01*
X135937424Y-114123482D01*
X135943996Y-114121672D01*
X135944001Y-114121671D01*
X136109835Y-114075992D01*
X136116417Y-114074179D01*
X136280648Y-113987590D01*
X136422454Y-113867755D01*
X136426602Y-113862330D01*
X136531075Y-113725685D01*
X136531077Y-113725681D01*
X136535219Y-113720264D01*
X136546451Y-113696177D01*
X136610802Y-113558177D01*
X136610803Y-113558174D01*
X136613682Y-113552000D01*
X136654182Y-113370812D01*
X136654500Y-113365124D01*
X136654500Y-113321385D01*
X136945500Y-113321385D01*
X136960512Y-113459573D01*
X137019730Y-113635535D01*
X137115351Y-113794677D01*
X137120039Y-113799634D01*
X137120041Y-113799637D01*
X137197006Y-113881024D01*
X137242916Y-113929572D01*
X137396471Y-114033928D01*
X137402805Y-114036461D01*
X137402808Y-114036463D01*
X137562516Y-114100342D01*
X137562521Y-114100343D01*
X137568853Y-114102876D01*
X137575580Y-114103990D01*
X137575585Y-114103991D01*
X137745282Y-114132084D01*
X137745285Y-114132084D01*
X137752019Y-114133199D01*
X137758836Y-114132842D01*
X137758840Y-114132842D01*
X137909920Y-114124923D01*
X137937424Y-114123482D01*
X137943996Y-114121672D01*
X137944001Y-114121671D01*
X138109835Y-114075992D01*
X138116417Y-114074179D01*
X138280648Y-113987590D01*
X138422454Y-113867755D01*
X138426602Y-113862330D01*
X138531075Y-113725685D01*
X138531077Y-113725681D01*
X138535219Y-113720264D01*
X138546451Y-113696177D01*
X138610802Y-113558177D01*
X138610803Y-113558174D01*
X138613682Y-113552000D01*
X138654182Y-113370812D01*
X138654500Y-113365124D01*
X138654500Y-113321385D01*
X138945500Y-113321385D01*
X138960512Y-113459573D01*
X139019730Y-113635535D01*
X139115351Y-113794677D01*
X139120039Y-113799634D01*
X139120041Y-113799637D01*
X139197006Y-113881024D01*
X139242916Y-113929572D01*
X139396471Y-114033928D01*
X139402805Y-114036461D01*
X139402808Y-114036463D01*
X139562516Y-114100342D01*
X139562521Y-114100343D01*
X139568853Y-114102876D01*
X139575580Y-114103990D01*
X139575585Y-114103991D01*
X139745282Y-114132084D01*
X139745285Y-114132084D01*
X139752019Y-114133199D01*
X139758836Y-114132842D01*
X139758840Y-114132842D01*
X139909920Y-114124923D01*
X139937424Y-114123482D01*
X139943996Y-114121672D01*
X139944001Y-114121671D01*
X140109835Y-114075992D01*
X140116417Y-114074179D01*
X140280648Y-113987590D01*
X140422454Y-113867755D01*
X140426602Y-113862330D01*
X140531075Y-113725685D01*
X140531077Y-113725681D01*
X140535219Y-113720264D01*
X140546451Y-113696177D01*
X140610802Y-113558177D01*
X140610803Y-113558174D01*
X140613682Y-113552000D01*
X140654182Y-113370812D01*
X140654500Y-113365124D01*
X140654500Y-113321385D01*
X140945500Y-113321385D01*
X140960512Y-113459573D01*
X141019730Y-113635535D01*
X141115351Y-113794677D01*
X141120039Y-113799634D01*
X141120041Y-113799637D01*
X141197006Y-113881024D01*
X141242916Y-113929572D01*
X141396471Y-114033928D01*
X141402805Y-114036461D01*
X141402808Y-114036463D01*
X141562516Y-114100342D01*
X141562521Y-114100343D01*
X141568853Y-114102876D01*
X141575580Y-114103990D01*
X141575585Y-114103991D01*
X141745282Y-114132084D01*
X141745285Y-114132084D01*
X141752019Y-114133199D01*
X141758836Y-114132842D01*
X141758840Y-114132842D01*
X141909920Y-114124923D01*
X141937424Y-114123482D01*
X141943996Y-114121672D01*
X141944001Y-114121671D01*
X142109835Y-114075992D01*
X142116417Y-114074179D01*
X142280648Y-113987590D01*
X142422454Y-113867755D01*
X142426602Y-113862330D01*
X142531075Y-113725685D01*
X142531077Y-113725681D01*
X142535219Y-113720264D01*
X142546451Y-113696177D01*
X142610802Y-113558177D01*
X142610803Y-113558174D01*
X142613682Y-113552000D01*
X142654182Y-113370812D01*
X142654500Y-113365124D01*
X142654500Y-112678615D01*
X142639488Y-112540427D01*
X142580270Y-112364465D01*
X142484649Y-112205323D01*
X142468754Y-112188514D01*
X142361773Y-112075386D01*
X142361771Y-112075384D01*
X142357084Y-112070428D01*
X142203529Y-111966072D01*
X142197195Y-111963539D01*
X142197192Y-111963537D01*
X142037484Y-111899658D01*
X142037479Y-111899657D01*
X142031147Y-111897124D01*
X142024420Y-111896010D01*
X142024415Y-111896009D01*
X141854718Y-111867916D01*
X141854715Y-111867916D01*
X141847981Y-111866801D01*
X141841164Y-111867158D01*
X141841160Y-111867158D01*
X141690080Y-111875077D01*
X141662576Y-111876518D01*
X141656004Y-111878328D01*
X141655999Y-111878329D01*
X141490165Y-111924008D01*
X141483583Y-111925821D01*
X141319352Y-112012410D01*
X141177546Y-112132245D01*
X141173399Y-112137668D01*
X141173398Y-112137670D01*
X141068925Y-112274315D01*
X141068923Y-112274319D01*
X141064781Y-112279736D01*
X141061899Y-112285916D01*
X141061898Y-112285918D01*
X140992086Y-112435631D01*
X140986318Y-112448000D01*
X140945818Y-112629188D01*
X140945500Y-112634876D01*
X140945500Y-113321385D01*
X140654500Y-113321385D01*
X140654500Y-112678615D01*
X140639488Y-112540427D01*
X140580270Y-112364465D01*
X140484649Y-112205323D01*
X140468754Y-112188514D01*
X140361773Y-112075386D01*
X140361771Y-112075384D01*
X140357084Y-112070428D01*
X140203529Y-111966072D01*
X140197195Y-111963539D01*
X140197192Y-111963537D01*
X140037484Y-111899658D01*
X140037479Y-111899657D01*
X140031147Y-111897124D01*
X140024420Y-111896010D01*
X140024415Y-111896009D01*
X139854718Y-111867916D01*
X139854715Y-111867916D01*
X139847981Y-111866801D01*
X139841164Y-111867158D01*
X139841160Y-111867158D01*
X139690080Y-111875077D01*
X139662576Y-111876518D01*
X139656004Y-111878328D01*
X139655999Y-111878329D01*
X139490165Y-111924008D01*
X139483583Y-111925821D01*
X139319352Y-112012410D01*
X139177546Y-112132245D01*
X139173399Y-112137668D01*
X139173398Y-112137670D01*
X139068925Y-112274315D01*
X139068923Y-112274319D01*
X139064781Y-112279736D01*
X139061899Y-112285916D01*
X139061898Y-112285918D01*
X138992086Y-112435631D01*
X138986318Y-112448000D01*
X138945818Y-112629188D01*
X138945500Y-112634876D01*
X138945500Y-113321385D01*
X138654500Y-113321385D01*
X138654500Y-112678615D01*
X138639488Y-112540427D01*
X138580270Y-112364465D01*
X138484649Y-112205323D01*
X138468754Y-112188514D01*
X138361773Y-112075386D01*
X138361771Y-112075384D01*
X138357084Y-112070428D01*
X138203529Y-111966072D01*
X138197195Y-111963539D01*
X138197192Y-111963537D01*
X138037484Y-111899658D01*
X138037479Y-111899657D01*
X138031147Y-111897124D01*
X138024420Y-111896010D01*
X138024415Y-111896009D01*
X137854718Y-111867916D01*
X137854715Y-111867916D01*
X137847981Y-111866801D01*
X137841164Y-111867158D01*
X137841160Y-111867158D01*
X137690080Y-111875077D01*
X137662576Y-111876518D01*
X137656004Y-111878328D01*
X137655999Y-111878329D01*
X137490165Y-111924008D01*
X137483583Y-111925821D01*
X137319352Y-112012410D01*
X137177546Y-112132245D01*
X137173399Y-112137668D01*
X137173398Y-112137670D01*
X137068925Y-112274315D01*
X137068923Y-112274319D01*
X137064781Y-112279736D01*
X137061899Y-112285916D01*
X137061898Y-112285918D01*
X136992086Y-112435631D01*
X136986318Y-112448000D01*
X136945818Y-112629188D01*
X136945500Y-112634876D01*
X136945500Y-113321385D01*
X136654500Y-113321385D01*
X136654500Y-112678615D01*
X136639488Y-112540427D01*
X136580270Y-112364465D01*
X136484649Y-112205323D01*
X136468754Y-112188514D01*
X136361773Y-112075386D01*
X136361771Y-112075384D01*
X136357084Y-112070428D01*
X136203529Y-111966072D01*
X136197195Y-111963539D01*
X136197192Y-111963537D01*
X136037484Y-111899658D01*
X136037479Y-111899657D01*
X136031147Y-111897124D01*
X136024420Y-111896010D01*
X136024415Y-111896009D01*
X135854718Y-111867916D01*
X135854715Y-111867916D01*
X135847981Y-111866801D01*
X135841164Y-111867158D01*
X135841160Y-111867158D01*
X135690080Y-111875077D01*
X135662576Y-111876518D01*
X135656004Y-111878328D01*
X135655999Y-111878329D01*
X135490165Y-111924008D01*
X135483583Y-111925821D01*
X135319352Y-112012410D01*
X135177546Y-112132245D01*
X135173399Y-112137668D01*
X135173398Y-112137670D01*
X135068925Y-112274315D01*
X135068923Y-112274319D01*
X135064781Y-112279736D01*
X135061898Y-112285919D01*
X135055619Y-112299383D01*
X135008701Y-112352667D01*
X134940423Y-112372127D01*
X134872464Y-112351584D01*
X134829409Y-112303823D01*
X134739381Y-112129022D01*
X134732931Y-112118976D01*
X134609738Y-111962143D01*
X134601501Y-111953494D01*
X134450877Y-111822788D01*
X134441153Y-111815853D01*
X134268533Y-111715990D01*
X134257669Y-111711016D01*
X134069273Y-111645593D01*
X134068284Y-111645352D01*
X134057992Y-111646820D01*
X134054000Y-111660385D01*
X134054000Y-114335402D01*
X133546000Y-114335402D01*
X133546000Y-111664598D01*
X133542027Y-111651067D01*
X133532601Y-111649712D01*
X133443463Y-111671194D01*
X133432168Y-111675083D01*
X133250618Y-111757629D01*
X133240276Y-111763576D01*
X133077603Y-111878968D01*
X133068575Y-111886761D01*
X132930658Y-112030831D01*
X132923262Y-112040196D01*
X132815079Y-112207741D01*
X132809583Y-112218345D01*
X132776845Y-112299579D01*
X132732830Y-112355285D01*
X132665685Y-112378352D01*
X132596729Y-112361455D01*
X132551976Y-112317375D01*
X132488165Y-112211175D01*
X132484649Y-112205323D01*
X132468754Y-112188514D01*
X132361773Y-112075386D01*
X132361771Y-112075384D01*
X132357084Y-112070428D01*
X132203529Y-111966072D01*
X132197195Y-111963539D01*
X132197192Y-111963537D01*
X132037484Y-111899658D01*
X132037479Y-111899657D01*
X132031147Y-111897124D01*
X132024420Y-111896010D01*
X132024415Y-111896009D01*
X131854718Y-111867916D01*
X131854715Y-111867916D01*
X131847981Y-111866801D01*
X131841164Y-111867158D01*
X131841160Y-111867158D01*
X131690080Y-111875077D01*
X131662576Y-111876518D01*
X131656004Y-111878328D01*
X131655999Y-111878329D01*
X131490165Y-111924008D01*
X131483583Y-111925821D01*
X131319352Y-112012410D01*
X131177546Y-112132245D01*
X131173399Y-112137668D01*
X131173398Y-112137670D01*
X131068925Y-112274315D01*
X131068923Y-112274319D01*
X131064781Y-112279736D01*
X131061899Y-112285916D01*
X131061898Y-112285918D01*
X130992086Y-112435631D01*
X130986318Y-112448000D01*
X130945818Y-112629188D01*
X130945500Y-112634876D01*
X130945500Y-113321385D01*
X130654500Y-113321385D01*
X130654500Y-112327244D01*
X130651956Y-112303823D01*
X130648651Y-112273403D01*
X130648651Y-112273402D01*
X130647798Y-112265552D01*
X130597071Y-112130236D01*
X130591691Y-112123057D01*
X130591689Y-112123054D01*
X130515785Y-112021776D01*
X130510404Y-112014596D01*
X130471613Y-111985524D01*
X130401946Y-111933311D01*
X130401943Y-111933309D01*
X130394764Y-111927929D01*
X130284947Y-111886761D01*
X130266843Y-111879974D01*
X130266841Y-111879974D01*
X130259448Y-111877202D01*
X130251598Y-111876349D01*
X130251597Y-111876349D01*
X130201153Y-111870869D01*
X130201152Y-111870869D01*
X130197756Y-111870500D01*
X129402244Y-111870500D01*
X129398848Y-111870869D01*
X129398847Y-111870869D01*
X129348403Y-111876349D01*
X129348402Y-111876349D01*
X129340552Y-111877202D01*
X129333159Y-111879974D01*
X129333157Y-111879974D01*
X129315053Y-111886761D01*
X129205236Y-111927929D01*
X129198057Y-111933309D01*
X129198054Y-111933311D01*
X129128387Y-111985524D01*
X129089596Y-112014596D01*
X129084215Y-112021776D01*
X129008311Y-112123054D01*
X129008309Y-112123057D01*
X129002929Y-112130236D01*
X128952202Y-112265552D01*
X128951349Y-112273402D01*
X128951349Y-112273403D01*
X128948044Y-112303823D01*
X128945500Y-112327244D01*
X128945500Y-113672756D01*
X125657372Y-113672756D01*
X125710802Y-113558177D01*
X125710803Y-113558174D01*
X125713682Y-113552000D01*
X125754182Y-113370812D01*
X125754500Y-113365124D01*
X125754500Y-112678615D01*
X125739488Y-112540427D01*
X125680270Y-112364465D01*
X125584649Y-112205323D01*
X125568754Y-112188514D01*
X125461773Y-112075386D01*
X125461771Y-112075384D01*
X125457084Y-112070428D01*
X125303529Y-111966072D01*
X125297195Y-111963539D01*
X125297192Y-111963537D01*
X125137484Y-111899658D01*
X125137479Y-111899657D01*
X125131147Y-111897124D01*
X125124420Y-111896010D01*
X125124415Y-111896009D01*
X124954718Y-111867916D01*
X124954715Y-111867916D01*
X124947981Y-111866801D01*
X124941164Y-111867158D01*
X124941160Y-111867158D01*
X124790080Y-111875077D01*
X124762576Y-111876518D01*
X124756004Y-111878328D01*
X124755999Y-111878329D01*
X124590165Y-111924008D01*
X124583583Y-111925821D01*
X124419352Y-112012410D01*
X124277546Y-112132245D01*
X124273399Y-112137668D01*
X124273398Y-112137670D01*
X124168925Y-112274315D01*
X124168923Y-112274319D01*
X124164781Y-112279736D01*
X124161899Y-112285916D01*
X124161898Y-112285918D01*
X124092086Y-112435631D01*
X124086318Y-112448000D01*
X124045818Y-112629188D01*
X124045500Y-112634876D01*
X124045500Y-113321385D01*
X123754500Y-113321385D01*
X123754500Y-112678615D01*
X123739488Y-112540427D01*
X123680270Y-112364465D01*
X123584649Y-112205323D01*
X123568754Y-112188514D01*
X123461773Y-112075386D01*
X123461771Y-112075384D01*
X123457084Y-112070428D01*
X123303529Y-111966072D01*
X123297195Y-111963539D01*
X123297192Y-111963537D01*
X123137484Y-111899658D01*
X123137479Y-111899657D01*
X123131147Y-111897124D01*
X123124420Y-111896010D01*
X123124415Y-111896009D01*
X122954718Y-111867916D01*
X122954715Y-111867916D01*
X122947981Y-111866801D01*
X122941164Y-111867158D01*
X122941160Y-111867158D01*
X122790080Y-111875077D01*
X122762576Y-111876518D01*
X122756004Y-111878328D01*
X122755999Y-111878329D01*
X122590165Y-111924008D01*
X122583583Y-111925821D01*
X122419352Y-112012410D01*
X122277546Y-112132245D01*
X122273399Y-112137668D01*
X122273398Y-112137670D01*
X122168925Y-112274315D01*
X122168923Y-112274319D01*
X122164781Y-112279736D01*
X122161899Y-112285916D01*
X122161898Y-112285918D01*
X122092086Y-112435631D01*
X122086318Y-112448000D01*
X122045818Y-112629188D01*
X122045500Y-112634876D01*
X122045500Y-113321385D01*
X121754500Y-113321385D01*
X121754500Y-112678615D01*
X121739488Y-112540427D01*
X121680270Y-112364465D01*
X121584649Y-112205323D01*
X121568754Y-112188514D01*
X121461773Y-112075386D01*
X121461771Y-112075384D01*
X121457084Y-112070428D01*
X121303529Y-111966072D01*
X121297195Y-111963539D01*
X121297192Y-111963537D01*
X121137484Y-111899658D01*
X121137479Y-111899657D01*
X121131147Y-111897124D01*
X121124420Y-111896010D01*
X121124415Y-111896009D01*
X120954718Y-111867916D01*
X120954715Y-111867916D01*
X120947981Y-111866801D01*
X120941164Y-111867158D01*
X120941160Y-111867158D01*
X120790080Y-111875077D01*
X120762576Y-111876518D01*
X120756004Y-111878328D01*
X120755999Y-111878329D01*
X120590165Y-111924008D01*
X120583583Y-111925821D01*
X120419352Y-112012410D01*
X120277546Y-112132245D01*
X120273399Y-112137668D01*
X120273398Y-112137670D01*
X120168925Y-112274315D01*
X120168923Y-112274319D01*
X120164781Y-112279736D01*
X120161899Y-112285916D01*
X120161898Y-112285918D01*
X120092086Y-112435631D01*
X120086318Y-112448000D01*
X120045818Y-112629188D01*
X120045500Y-112634876D01*
X120045500Y-113321385D01*
X119754500Y-113321385D01*
X119754500Y-112678615D01*
X119739488Y-112540427D01*
X119680270Y-112364465D01*
X119584649Y-112205323D01*
X119568754Y-112188514D01*
X119461773Y-112075386D01*
X119461771Y-112075384D01*
X119457084Y-112070428D01*
X119303529Y-111966072D01*
X119297195Y-111963539D01*
X119297192Y-111963537D01*
X119137484Y-111899658D01*
X119137479Y-111899657D01*
X119131147Y-111897124D01*
X119124420Y-111896010D01*
X119124415Y-111896009D01*
X118954718Y-111867916D01*
X118954715Y-111867916D01*
X118947981Y-111866801D01*
X118941164Y-111867158D01*
X118941160Y-111867158D01*
X118790080Y-111875077D01*
X118762576Y-111876518D01*
X118756004Y-111878328D01*
X118755999Y-111878329D01*
X118590165Y-111924008D01*
X118583583Y-111925821D01*
X118419352Y-112012410D01*
X118277546Y-112132245D01*
X118273399Y-112137668D01*
X118273398Y-112137670D01*
X118168925Y-112274315D01*
X118168923Y-112274319D01*
X118164781Y-112279736D01*
X118161899Y-112285916D01*
X118161898Y-112285918D01*
X118092086Y-112435631D01*
X118086318Y-112448000D01*
X118045818Y-112629188D01*
X118045500Y-112634876D01*
X118045500Y-113321385D01*
X117754500Y-113321385D01*
X117754500Y-112678615D01*
X117739488Y-112540427D01*
X117680270Y-112364465D01*
X117584649Y-112205323D01*
X117568754Y-112188514D01*
X117461773Y-112075386D01*
X117461771Y-112075384D01*
X117457084Y-112070428D01*
X117303529Y-111966072D01*
X117297195Y-111963539D01*
X117297192Y-111963537D01*
X117137484Y-111899658D01*
X117137479Y-111899657D01*
X117131147Y-111897124D01*
X117124420Y-111896010D01*
X117124415Y-111896009D01*
X116954718Y-111867916D01*
X116954715Y-111867916D01*
X116947981Y-111866801D01*
X116941164Y-111867158D01*
X116941160Y-111867158D01*
X116790080Y-111875077D01*
X116762576Y-111876518D01*
X116756004Y-111878328D01*
X116755999Y-111878329D01*
X116590165Y-111924008D01*
X116583583Y-111925821D01*
X116419352Y-112012410D01*
X116277546Y-112132245D01*
X116273399Y-112137668D01*
X116273398Y-112137670D01*
X116206502Y-112225167D01*
X116149238Y-112267135D01*
X116078374Y-112271480D01*
X116016411Y-112236824D01*
X115986882Y-112188514D01*
X115943412Y-112058216D01*
X115937239Y-112045038D01*
X115851937Y-111907193D01*
X115842901Y-111895792D01*
X115728171Y-111781261D01*
X115716760Y-111772249D01*
X115578757Y-111687184D01*
X115565576Y-111681037D01*
X115411290Y-111629862D01*
X115397914Y-111626995D01*
X115303562Y-111617328D01*
X115297145Y-111617000D01*
X115172115Y-111617000D01*
X115156876Y-111621475D01*
X115155671Y-111622865D01*
X115154000Y-111630548D01*
X115154000Y-114364884D01*
X114646000Y-114364884D01*
X114646000Y-113272115D01*
X114641525Y-113256876D01*
X114640135Y-113255671D01*
X114632452Y-113254000D01*
X113810116Y-113254000D01*
X113794877Y-113258475D01*
X113793672Y-113259865D01*
X113792001Y-113267548D01*
X113792001Y-113672095D01*
X98254500Y-113672095D01*
X98254500Y-112593096D01*
X109340729Y-112593096D01*
X109344158Y-112624151D01*
X109356963Y-112740135D01*
X109358113Y-112750553D01*
X109412553Y-112899319D01*
X109500908Y-113030805D01*
X109506527Y-113035918D01*
X109506528Y-113035919D01*
X109517903Y-113046269D01*
X109618076Y-113137419D01*
X109757293Y-113213008D01*
X109910522Y-113253207D01*
X109994477Y-113254526D01*
X110061319Y-113255576D01*
X110061322Y-113255576D01*
X110068916Y-113255695D01*
X110223332Y-113220329D01*
X110293742Y-113184917D01*
X110358072Y-113152563D01*
X110358075Y-113152561D01*
X110364855Y-113149151D01*
X110370626Y-113144222D01*
X110370629Y-113144220D01*
X110479536Y-113051204D01*
X110479536Y-113051203D01*
X110485314Y-113046269D01*
X110577755Y-112917624D01*
X110636842Y-112770641D01*
X110642927Y-112727885D01*
X113792000Y-112727885D01*
X113796475Y-112743124D01*
X113797865Y-112744329D01*
X113805548Y-112746000D01*
X114627885Y-112746000D01*
X114643124Y-112741525D01*
X114644329Y-112740135D01*
X114646000Y-112732452D01*
X114646000Y-111635116D01*
X114641525Y-111619877D01*
X114640135Y-111618672D01*
X114632452Y-111617001D01*
X114502905Y-111617001D01*
X114496386Y-111617338D01*
X114400794Y-111627257D01*
X114387400Y-111630149D01*
X114233216Y-111681588D01*
X114220038Y-111687761D01*
X114082193Y-111773063D01*
X114070792Y-111782099D01*
X113956261Y-111896829D01*
X113947249Y-111908240D01*
X113862184Y-112046243D01*
X113856037Y-112059424D01*
X113804862Y-112213710D01*
X113801995Y-112227086D01*
X113792328Y-112321438D01*
X113792000Y-112327855D01*
X113792000Y-112727885D01*
X110642927Y-112727885D01*
X110642965Y-112727615D01*
X110658581Y-112617891D01*
X110658581Y-112617888D01*
X110659162Y-112613807D01*
X110659307Y-112600000D01*
X110640276Y-112442733D01*
X110584280Y-112294546D01*
X110519550Y-112200363D01*
X110498855Y-112170251D01*
X110498854Y-112170249D01*
X110494553Y-112163992D01*
X110376275Y-112058611D01*
X110368889Y-112054700D01*
X110283001Y-112009225D01*
X110236274Y-111984484D01*
X110082633Y-111945892D01*
X110075034Y-111945852D01*
X110075033Y-111945852D01*
X110009181Y-111945507D01*
X109924221Y-111945062D01*
X109916841Y-111946834D01*
X109916839Y-111946834D01*
X109777563Y-111980271D01*
X109777560Y-111980272D01*
X109770184Y-111982043D01*
X109629414Y-112054700D01*
X109510039Y-112158838D01*
X109418950Y-112288444D01*
X109361406Y-112436037D01*
X109360414Y-112443570D01*
X109360414Y-112443571D01*
X109346770Y-112547212D01*
X109340729Y-112593096D01*
X98254500Y-112593096D01*
X98254500Y-111000000D01*
X120440715Y-111000000D01*
X120459772Y-111144754D01*
X120515645Y-111279642D01*
X120604526Y-111395474D01*
X120611076Y-111400500D01*
X120611079Y-111400503D01*
X120713804Y-111479327D01*
X120720357Y-111484355D01*
X120855246Y-111540228D01*
X121000000Y-111559285D01*
X121008188Y-111558207D01*
X121136566Y-111541306D01*
X121144754Y-111540228D01*
X121279643Y-111484355D01*
X121286196Y-111479327D01*
X121388921Y-111400503D01*
X121388924Y-111400500D01*
X121395474Y-111395474D01*
X121484355Y-111279642D01*
X121540228Y-111144754D01*
X121559285Y-111000000D01*
X122190715Y-111000000D01*
X122209772Y-111144754D01*
X122265645Y-111279642D01*
X122354526Y-111395474D01*
X122361076Y-111400500D01*
X122361079Y-111400503D01*
X122463804Y-111479327D01*
X122470357Y-111484355D01*
X122605246Y-111540228D01*
X122750000Y-111559285D01*
X122758188Y-111558207D01*
X122886566Y-111541306D01*
X122894754Y-111540228D01*
X123029643Y-111484355D01*
X123036196Y-111479327D01*
X123138921Y-111400503D01*
X123138924Y-111400500D01*
X123145474Y-111395474D01*
X123234355Y-111279642D01*
X123290228Y-111144754D01*
X123309285Y-111000000D01*
X124440715Y-111000000D01*
X124459772Y-111144754D01*
X124515645Y-111279642D01*
X124604526Y-111395474D01*
X124611076Y-111400500D01*
X124611079Y-111400503D01*
X124713804Y-111479327D01*
X124720357Y-111484355D01*
X124855246Y-111540228D01*
X125000000Y-111559285D01*
X125008188Y-111558207D01*
X125136566Y-111541306D01*
X125144754Y-111540228D01*
X125279643Y-111484355D01*
X125286196Y-111479327D01*
X125388921Y-111400503D01*
X125388924Y-111400500D01*
X125395474Y-111395474D01*
X125484355Y-111279642D01*
X125540228Y-111144754D01*
X125559285Y-111000000D01*
X125540228Y-110855246D01*
X125491422Y-110737419D01*
X125487515Y-110727986D01*
X125487514Y-110727984D01*
X125484355Y-110720358D01*
X125395474Y-110604526D01*
X125388924Y-110599500D01*
X125388921Y-110599497D01*
X125286196Y-110520673D01*
X125286194Y-110520672D01*
X125279643Y-110515645D01*
X125144754Y-110459772D01*
X125000000Y-110440715D01*
X124991812Y-110441793D01*
X124863432Y-110458694D01*
X124863430Y-110458695D01*
X124855246Y-110459772D01*
X124819499Y-110474579D01*
X124727986Y-110512485D01*
X124727984Y-110512486D01*
X124720358Y-110515645D01*
X124604526Y-110604526D01*
X124515645Y-110720358D01*
X124512486Y-110727984D01*
X124512485Y-110727986D01*
X124508578Y-110737419D01*
X124459772Y-110855246D01*
X124440715Y-111000000D01*
X123309285Y-111000000D01*
X123290228Y-110855246D01*
X123241422Y-110737419D01*
X123237515Y-110727986D01*
X123237514Y-110727984D01*
X123234355Y-110720358D01*
X123145474Y-110604526D01*
X123138924Y-110599500D01*
X123138921Y-110599497D01*
X123036196Y-110520673D01*
X123036194Y-110520672D01*
X123029643Y-110515645D01*
X122894754Y-110459772D01*
X122750000Y-110440715D01*
X122741812Y-110441793D01*
X122613432Y-110458694D01*
X122613430Y-110458695D01*
X122605246Y-110459772D01*
X122569499Y-110474579D01*
X122477986Y-110512485D01*
X122477984Y-110512486D01*
X122470358Y-110515645D01*
X122354526Y-110604526D01*
X122265645Y-110720358D01*
X122262486Y-110727984D01*
X122262485Y-110727986D01*
X122258578Y-110737419D01*
X122209772Y-110855246D01*
X122190715Y-111000000D01*
X121559285Y-111000000D01*
X121540228Y-110855246D01*
X121491422Y-110737419D01*
X121487515Y-110727986D01*
X121487514Y-110727984D01*
X121484355Y-110720358D01*
X121395474Y-110604526D01*
X121388924Y-110599500D01*
X121388921Y-110599497D01*
X121286196Y-110520673D01*
X121286194Y-110520672D01*
X121279643Y-110515645D01*
X121144754Y-110459772D01*
X121000000Y-110440715D01*
X120991812Y-110441793D01*
X120863432Y-110458694D01*
X120863430Y-110458695D01*
X120855246Y-110459772D01*
X120819499Y-110474579D01*
X120727986Y-110512485D01*
X120727984Y-110512486D01*
X120720358Y-110515645D01*
X120604526Y-110604526D01*
X120515645Y-110720358D01*
X120512486Y-110727984D01*
X120512485Y-110727986D01*
X120508578Y-110737419D01*
X120459772Y-110855246D01*
X120440715Y-111000000D01*
X98254500Y-111000000D01*
X98254500Y-109517399D01*
X101899712Y-109517399D01*
X101921194Y-109606537D01*
X101925083Y-109617832D01*
X102007629Y-109799382D01*
X102013576Y-109809724D01*
X102128968Y-109972397D01*
X102136761Y-109981425D01*
X102280831Y-110119342D01*
X102290196Y-110126738D01*
X102457741Y-110234921D01*
X102468345Y-110240417D01*
X102653312Y-110314961D01*
X102664770Y-110318355D01*
X102861928Y-110356857D01*
X102870791Y-110357934D01*
X102873500Y-110358000D01*
X102977885Y-110358000D01*
X102993124Y-110353525D01*
X102994329Y-110352135D01*
X102996000Y-110344452D01*
X102996000Y-110339885D01*
X103504000Y-110339885D01*
X103508475Y-110355124D01*
X103509865Y-110356329D01*
X103517548Y-110358000D01*
X103574832Y-110358000D01*
X103580808Y-110357715D01*
X103729494Y-110343529D01*
X103741228Y-110341270D01*
X103932599Y-110285128D01*
X103943675Y-110280698D01*
X104120978Y-110189381D01*
X104131024Y-110182931D01*
X104287857Y-110059738D01*
X104296506Y-110051501D01*
X104427212Y-109900877D01*
X104434147Y-109891153D01*
X104534010Y-109718533D01*
X104538984Y-109707669D01*
X104604407Y-109519273D01*
X104604648Y-109518284D01*
X104603180Y-109507992D01*
X104589615Y-109504000D01*
X103522115Y-109504000D01*
X103506876Y-109508475D01*
X103505671Y-109509865D01*
X103504000Y-109517548D01*
X103504000Y-110339885D01*
X102996000Y-110339885D01*
X102996000Y-109522115D01*
X102991525Y-109506876D01*
X102990135Y-109505671D01*
X102982452Y-109504000D01*
X101914598Y-109504000D01*
X101901067Y-109507973D01*
X101899712Y-109517399D01*
X98254500Y-109517399D01*
X98254500Y-109135964D01*
X106716148Y-109135964D01*
X106729424Y-109338522D01*
X106730845Y-109344118D01*
X106730846Y-109344123D01*
X106774891Y-109517548D01*
X106779392Y-109535269D01*
X106781809Y-109540512D01*
X106817454Y-109617832D01*
X106864377Y-109719616D01*
X106867710Y-109724332D01*
X106934469Y-109818794D01*
X106981533Y-109885389D01*
X106985675Y-109889424D01*
X107012617Y-109915669D01*
X107126938Y-110027035D01*
X107295720Y-110139812D01*
X107301023Y-110142090D01*
X107301026Y-110142092D01*
X107458347Y-110209682D01*
X107482228Y-110219942D01*
X107542075Y-110233484D01*
X107674579Y-110263467D01*
X107674584Y-110263468D01*
X107680216Y-110264742D01*
X107685987Y-110264969D01*
X107685989Y-110264969D01*
X107745756Y-110267317D01*
X107883053Y-110272712D01*
X107996817Y-110256217D01*
X108078231Y-110244413D01*
X108078236Y-110244412D01*
X108083945Y-110243584D01*
X108089409Y-110241729D01*
X108089414Y-110241728D01*
X108270693Y-110180192D01*
X108270698Y-110180190D01*
X108276165Y-110178334D01*
X108453276Y-110079147D01*
X108465625Y-110068877D01*
X108581628Y-109972397D01*
X108609345Y-109949345D01*
X108681837Y-109862183D01*
X108735453Y-109797718D01*
X108735455Y-109797715D01*
X108739147Y-109793276D01*
X108838334Y-109616165D01*
X108840720Y-109609135D01*
X108841170Y-109608496D01*
X108842541Y-109605416D01*
X108843146Y-109605685D01*
X108881553Y-109551059D01*
X108947305Y-109524278D01*
X109017098Y-109537295D01*
X109068773Y-109585980D01*
X109076777Y-109602229D01*
X109146770Y-109774603D01*
X109151413Y-109783794D01*
X109262694Y-109965388D01*
X109268777Y-109973699D01*
X109408213Y-110134667D01*
X109415580Y-110141883D01*
X109579434Y-110277916D01*
X109587881Y-110283831D01*
X109771756Y-110391279D01*
X109781042Y-110395729D01*
X109980001Y-110471703D01*
X109989899Y-110474579D01*
X110093250Y-110495606D01*
X110107299Y-110494410D01*
X110111000Y-110484065D01*
X110111000Y-110483517D01*
X110619000Y-110483517D01*
X110623064Y-110497359D01*
X110636478Y-110499393D01*
X110643184Y-110498534D01*
X110653262Y-110496392D01*
X110857255Y-110435191D01*
X110866842Y-110431433D01*
X111058095Y-110337739D01*
X111066945Y-110332464D01*
X111240328Y-110208792D01*
X111248200Y-110202139D01*
X111399052Y-110051812D01*
X111405730Y-110043965D01*
X111530003Y-109871020D01*
X111535313Y-109862183D01*
X111629670Y-109671267D01*
X111633469Y-109661672D01*
X111695377Y-109457910D01*
X111697555Y-109447837D01*
X111698986Y-109436962D01*
X111696775Y-109422778D01*
X111683617Y-109419000D01*
X110637115Y-109419000D01*
X110621876Y-109423475D01*
X110620671Y-109424865D01*
X110619000Y-109432548D01*
X110619000Y-110483517D01*
X110111000Y-110483517D01*
X110111000Y-109037000D01*
X110131002Y-108968879D01*
X110184658Y-108922386D01*
X110237000Y-108911000D01*
X111683344Y-108911000D01*
X111696875Y-108907027D01*
X111698180Y-108897947D01*
X111656214Y-108730875D01*
X111652894Y-108721124D01*
X111567972Y-108525814D01*
X111563105Y-108516739D01*
X111447426Y-108337926D01*
X111441136Y-108329757D01*
X111297806Y-108172240D01*
X111290273Y-108165215D01*
X111123139Y-108033222D01*
X111114552Y-108027517D01*
X110928117Y-107924599D01*
X110918705Y-107920369D01*
X110804391Y-107879888D01*
X110746855Y-107838294D01*
X110720939Y-107772196D01*
X110734873Y-107702580D01*
X110784232Y-107651549D01*
X110805943Y-107641804D01*
X110816165Y-107638334D01*
X110993276Y-107539147D01*
X111009992Y-107525245D01*
X111144913Y-107413031D01*
X111149345Y-107409345D01*
X111241966Y-107297981D01*
X111275453Y-107257718D01*
X111275455Y-107257715D01*
X111279147Y-107253276D01*
X111361798Y-107105693D01*
X111375510Y-107081208D01*
X111375511Y-107081206D01*
X111378334Y-107076165D01*
X111380190Y-107070698D01*
X111380192Y-107070693D01*
X111441728Y-106889414D01*
X111441729Y-106889409D01*
X111443584Y-106883945D01*
X111444412Y-106878236D01*
X111444413Y-106878231D01*
X111461991Y-106756996D01*
X111472712Y-106683053D01*
X111474232Y-106625000D01*
X111464409Y-106518096D01*
X115065729Y-106518096D01*
X115070558Y-106561835D01*
X115082159Y-106666908D01*
X115083113Y-106675553D01*
X115085723Y-106682684D01*
X115085723Y-106682686D01*
X115128113Y-106798522D01*
X115137553Y-106824319D01*
X115141789Y-106830622D01*
X115141789Y-106830623D01*
X115152439Y-106846471D01*
X115225908Y-106955805D01*
X115231527Y-106960918D01*
X115231528Y-106960919D01*
X115302596Y-107025585D01*
X115343076Y-107062419D01*
X115482293Y-107138008D01*
X115635522Y-107178207D01*
X115719477Y-107179526D01*
X115786319Y-107180576D01*
X115786322Y-107180576D01*
X115793916Y-107180695D01*
X115948332Y-107145329D01*
X116027140Y-107105693D01*
X116083072Y-107077563D01*
X116083075Y-107077561D01*
X116089855Y-107074151D01*
X116095626Y-107069222D01*
X116095629Y-107069220D01*
X116204536Y-106976204D01*
X116204536Y-106976203D01*
X116210314Y-106971269D01*
X116241430Y-106927966D01*
X129168257Y-106927966D01*
X129198565Y-107062446D01*
X129201645Y-107072275D01*
X129281770Y-107269603D01*
X129286413Y-107278794D01*
X129397694Y-107460388D01*
X129403777Y-107468699D01*
X129543213Y-107629667D01*
X129550580Y-107636883D01*
X129714434Y-107772916D01*
X129722881Y-107778831D01*
X129863005Y-107860713D01*
X129911729Y-107912352D01*
X129924800Y-107982135D01*
X129898069Y-108047906D01*
X129840022Y-108088785D01*
X129799436Y-108095501D01*
X129624934Y-108095501D01*
X129595044Y-108101446D01*
X129562874Y-108107844D01*
X129562872Y-108107845D01*
X129550699Y-108110266D01*
X129540379Y-108117161D01*
X129540378Y-108117162D01*
X129501852Y-108142905D01*
X129466516Y-108166516D01*
X129410266Y-108250699D01*
X129395500Y-108324933D01*
X129395501Y-110075066D01*
X129410266Y-110149301D01*
X129417161Y-110159620D01*
X129417162Y-110159622D01*
X129455944Y-110217662D01*
X129466516Y-110233484D01*
X129550699Y-110289734D01*
X129624933Y-110304500D01*
X130499858Y-110304500D01*
X131375066Y-110304499D01*
X131410818Y-110297388D01*
X131437126Y-110292156D01*
X131437128Y-110292155D01*
X131449301Y-110289734D01*
X131459621Y-110282839D01*
X131459622Y-110282838D01*
X131523168Y-110240377D01*
X131533484Y-110233484D01*
X131589734Y-110149301D01*
X131604500Y-110075067D01*
X131604499Y-109170964D01*
X131931148Y-109170964D01*
X131944424Y-109373522D01*
X131945845Y-109379118D01*
X131945846Y-109379123D01*
X131987990Y-109545062D01*
X131994392Y-109570269D01*
X131996809Y-109575512D01*
X132031710Y-109651219D01*
X132079377Y-109754616D01*
X132082710Y-109759332D01*
X132173957Y-109888444D01*
X132196533Y-109920389D01*
X132341938Y-110062035D01*
X132510720Y-110174812D01*
X132516023Y-110177090D01*
X132516026Y-110177092D01*
X132672721Y-110244413D01*
X132697228Y-110254942D01*
X132770244Y-110271464D01*
X132889579Y-110298467D01*
X132889584Y-110298468D01*
X132895216Y-110299742D01*
X132900987Y-110299969D01*
X132900989Y-110299969D01*
X132960756Y-110302317D01*
X133098053Y-110307712D01*
X133205348Y-110292155D01*
X133293231Y-110279413D01*
X133293236Y-110279412D01*
X133298945Y-110278584D01*
X133304409Y-110276729D01*
X133304414Y-110276728D01*
X133485693Y-110215192D01*
X133485698Y-110215190D01*
X133491165Y-110213334D01*
X133499276Y-110208792D01*
X133569138Y-110169667D01*
X133668276Y-110114147D01*
X133707969Y-110081135D01*
X133795696Y-110008172D01*
X133824345Y-109984345D01*
X133898217Y-109895524D01*
X133950453Y-109832718D01*
X133950455Y-109832715D01*
X133954147Y-109828276D01*
X134047450Y-109661672D01*
X134050510Y-109656208D01*
X134050511Y-109656206D01*
X134053334Y-109651165D01*
X134055190Y-109645698D01*
X134055192Y-109645693D01*
X134116728Y-109464414D01*
X134116729Y-109464409D01*
X134118584Y-109458945D01*
X134119412Y-109453236D01*
X134119413Y-109453231D01*
X134147179Y-109261727D01*
X134147712Y-109258053D01*
X134149232Y-109200000D01*
X134146564Y-109170964D01*
X134471148Y-109170964D01*
X134484424Y-109373522D01*
X134485845Y-109379118D01*
X134485846Y-109379123D01*
X134527990Y-109545062D01*
X134534392Y-109570269D01*
X134536809Y-109575512D01*
X134571710Y-109651219D01*
X134619377Y-109754616D01*
X134622710Y-109759332D01*
X134713957Y-109888444D01*
X134736533Y-109920389D01*
X134881938Y-110062035D01*
X135050720Y-110174812D01*
X135056023Y-110177090D01*
X135056026Y-110177092D01*
X135212721Y-110244413D01*
X135237228Y-110254942D01*
X135310244Y-110271464D01*
X135429579Y-110298467D01*
X135429584Y-110298468D01*
X135435216Y-110299742D01*
X135440987Y-110299969D01*
X135440989Y-110299969D01*
X135500756Y-110302317D01*
X135638053Y-110307712D01*
X135745348Y-110292155D01*
X135833231Y-110279413D01*
X135833236Y-110279412D01*
X135838945Y-110278584D01*
X135844409Y-110276729D01*
X135844414Y-110276728D01*
X136025693Y-110215192D01*
X136025698Y-110215190D01*
X136031165Y-110213334D01*
X136039276Y-110208792D01*
X136109138Y-110169667D01*
X136208276Y-110114147D01*
X136247969Y-110081135D01*
X136335696Y-110008172D01*
X136364345Y-109984345D01*
X136438217Y-109895524D01*
X136490453Y-109832718D01*
X136490455Y-109832715D01*
X136494147Y-109828276D01*
X136587450Y-109661672D01*
X136590510Y-109656208D01*
X136590511Y-109656206D01*
X136593334Y-109651165D01*
X136595720Y-109644135D01*
X136596170Y-109643496D01*
X136597541Y-109640416D01*
X136598146Y-109640685D01*
X136636553Y-109586059D01*
X136702305Y-109559278D01*
X136772098Y-109572295D01*
X136823773Y-109620980D01*
X136831777Y-109637229D01*
X136901770Y-109809603D01*
X136906413Y-109818794D01*
X137017694Y-110000388D01*
X137023777Y-110008699D01*
X137163213Y-110169667D01*
X137170580Y-110176883D01*
X137334434Y-110312916D01*
X137342881Y-110318831D01*
X137526756Y-110426279D01*
X137536042Y-110430729D01*
X137735001Y-110506703D01*
X137744899Y-110509579D01*
X137848250Y-110530606D01*
X137862299Y-110529410D01*
X137866000Y-110519065D01*
X137866000Y-110518517D01*
X138374000Y-110518517D01*
X138378064Y-110532359D01*
X138391478Y-110534393D01*
X138398184Y-110533534D01*
X138408262Y-110531392D01*
X138612255Y-110470191D01*
X138621842Y-110466433D01*
X138813095Y-110372739D01*
X138821945Y-110367464D01*
X138995328Y-110243792D01*
X139003200Y-110237139D01*
X139047397Y-110193096D01*
X144640729Y-110193096D01*
X144646098Y-110241728D01*
X144654611Y-110318831D01*
X144658113Y-110350553D01*
X144660723Y-110357684D01*
X144660723Y-110357686D01*
X144703500Y-110474579D01*
X144712553Y-110499319D01*
X144716789Y-110505622D01*
X144716789Y-110505623D01*
X144735545Y-110533534D01*
X144800908Y-110630805D01*
X144806527Y-110635918D01*
X144806528Y-110635919D01*
X144899326Y-110720358D01*
X144918076Y-110737419D01*
X145057293Y-110813008D01*
X145210522Y-110853207D01*
X145294477Y-110854526D01*
X145361319Y-110855576D01*
X145361322Y-110855576D01*
X145368916Y-110855695D01*
X145523332Y-110820329D01*
X145593742Y-110784917D01*
X145658072Y-110752563D01*
X145658075Y-110752561D01*
X145664855Y-110749151D01*
X145670626Y-110744222D01*
X145670629Y-110744220D01*
X145779536Y-110651204D01*
X145779536Y-110651203D01*
X145785314Y-110646269D01*
X145877755Y-110517624D01*
X145936842Y-110370641D01*
X145949012Y-110285128D01*
X145958581Y-110217891D01*
X145958581Y-110217888D01*
X145959162Y-110213807D01*
X145959307Y-110200000D01*
X145957242Y-110182931D01*
X145953172Y-110149301D01*
X145940276Y-110042733D01*
X145884280Y-109894546D01*
X145825984Y-109809724D01*
X145798855Y-109770251D01*
X145798854Y-109770249D01*
X145794553Y-109763992D01*
X145676275Y-109658611D01*
X145668889Y-109654700D01*
X145582835Y-109609137D01*
X145536274Y-109584484D01*
X145382633Y-109545892D01*
X145375034Y-109545852D01*
X145375033Y-109545852D01*
X145309181Y-109545507D01*
X145224221Y-109545062D01*
X145216841Y-109546834D01*
X145216839Y-109546834D01*
X145077563Y-109580271D01*
X145077560Y-109580272D01*
X145070184Y-109582043D01*
X144929414Y-109654700D01*
X144810039Y-109758838D01*
X144718950Y-109888444D01*
X144706495Y-109920389D01*
X144664916Y-110027035D01*
X144661406Y-110036037D01*
X144660414Y-110043570D01*
X144660414Y-110043571D01*
X144642428Y-110180192D01*
X144640729Y-110193096D01*
X139047397Y-110193096D01*
X139154052Y-110086812D01*
X139160730Y-110078965D01*
X139285003Y-109906020D01*
X139290313Y-109897183D01*
X139384670Y-109706267D01*
X139388469Y-109696672D01*
X139450377Y-109492910D01*
X139452555Y-109482837D01*
X139453986Y-109471962D01*
X139451775Y-109457778D01*
X139438617Y-109454000D01*
X138392115Y-109454000D01*
X138376876Y-109458475D01*
X138375671Y-109459865D01*
X138374000Y-109467548D01*
X138374000Y-110518517D01*
X137866000Y-110518517D01*
X137866000Y-109072000D01*
X137886002Y-109003879D01*
X137939658Y-108957386D01*
X137992000Y-108946000D01*
X139438344Y-108946000D01*
X139451875Y-108942027D01*
X139453180Y-108932947D01*
X139411214Y-108765875D01*
X139407894Y-108756124D01*
X139322972Y-108560814D01*
X139318105Y-108551739D01*
X139202426Y-108372926D01*
X139196136Y-108364757D01*
X139052806Y-108207240D01*
X139045273Y-108200215D01*
X138878139Y-108068222D01*
X138869552Y-108062517D01*
X138683117Y-107959599D01*
X138673705Y-107955369D01*
X138559391Y-107914888D01*
X138501855Y-107873294D01*
X138475939Y-107807196D01*
X138489873Y-107737580D01*
X138539232Y-107686549D01*
X138560943Y-107676804D01*
X138571165Y-107673334D01*
X138585374Y-107665377D01*
X138649138Y-107629667D01*
X138748276Y-107574147D01*
X138757571Y-107566417D01*
X138875696Y-107468172D01*
X138904345Y-107444345D01*
X138976837Y-107357183D01*
X139030453Y-107292718D01*
X139030455Y-107292715D01*
X139034147Y-107288276D01*
X139120330Y-107134385D01*
X139130510Y-107116208D01*
X139130511Y-107116206D01*
X139133334Y-107111165D01*
X139135190Y-107105698D01*
X139135192Y-107105693D01*
X139196728Y-106924414D01*
X139196729Y-106924409D01*
X139198584Y-106918945D01*
X139199412Y-106913236D01*
X139199413Y-106913231D01*
X139227179Y-106721727D01*
X139227712Y-106718053D01*
X139229051Y-106666908D01*
X139250829Y-106599334D01*
X139265913Y-106581111D01*
X139736301Y-106110723D01*
X139750712Y-106098338D01*
X139768071Y-106085563D01*
X139802089Y-106045521D01*
X139809019Y-106038005D01*
X139814662Y-106032362D01*
X139832214Y-106010178D01*
X139834981Y-106006804D01*
X139877243Y-105957058D01*
X139881982Y-105951480D01*
X139885311Y-105944961D01*
X139888628Y-105939987D01*
X139891763Y-105934911D01*
X139896307Y-105929168D01*
X139915824Y-105887409D01*
X139927053Y-105863382D01*
X139928985Y-105859430D01*
X139955714Y-105807084D01*
X139961993Y-105794788D01*
X139963732Y-105787680D01*
X139965814Y-105782082D01*
X139967701Y-105776409D01*
X139970800Y-105769779D01*
X139972906Y-105759657D01*
X139985586Y-105698693D01*
X139986557Y-105694404D01*
X139993659Y-105665380D01*
X140003811Y-105623892D01*
X140004500Y-105612786D01*
X140004534Y-105612788D01*
X140004777Y-105608731D01*
X140005137Y-105604696D01*
X140006628Y-105597528D01*
X140004546Y-105520586D01*
X140004500Y-105517178D01*
X140004500Y-91816765D01*
X140005933Y-91797815D01*
X140008074Y-91783745D01*
X140008074Y-91783741D01*
X140009174Y-91776511D01*
X140004915Y-91724152D01*
X140004500Y-91713937D01*
X140004500Y-91705947D01*
X140003655Y-91698698D01*
X140001229Y-91677887D01*
X140000796Y-91673513D01*
X139995504Y-91608451D01*
X139995503Y-91608448D01*
X139994910Y-91601153D01*
X139992655Y-91594191D01*
X139991482Y-91588323D01*
X139990110Y-91582517D01*
X139989262Y-91575246D01*
X139964478Y-91506968D01*
X139963057Y-91502827D01*
X139955547Y-91479642D01*
X139940689Y-91433779D01*
X139936891Y-91427520D01*
X139934397Y-91422073D01*
X139931729Y-91416746D01*
X139929232Y-91409866D01*
X139889426Y-91349152D01*
X139887079Y-91345432D01*
X139852332Y-91288170D01*
X139852329Y-91288166D01*
X139849417Y-91283367D01*
X139842051Y-91275027D01*
X139842077Y-91275004D01*
X139839377Y-91271961D01*
X139836782Y-91268857D01*
X139832766Y-91262732D01*
X139776854Y-91209766D01*
X139774413Y-91207389D01*
X138980724Y-90413700D01*
X138968337Y-90399287D01*
X138959904Y-90387828D01*
X138955563Y-90381929D01*
X138915521Y-90347911D01*
X138908005Y-90340981D01*
X138902362Y-90335338D01*
X138880202Y-90317806D01*
X138876816Y-90315030D01*
X138873821Y-90312485D01*
X138821480Y-90268018D01*
X138814960Y-90264689D01*
X138809982Y-90261369D01*
X138804909Y-90258236D01*
X138799167Y-90253693D01*
X138733383Y-90222947D01*
X138729433Y-90221016D01*
X138671307Y-90191336D01*
X138664788Y-90188007D01*
X138657678Y-90186267D01*
X138652058Y-90184177D01*
X138646407Y-90182297D01*
X138639778Y-90179199D01*
X138632614Y-90177709D01*
X138632611Y-90177708D01*
X138592505Y-90169367D01*
X138568686Y-90164413D01*
X138564427Y-90163449D01*
X138493892Y-90146189D01*
X138488295Y-90145842D01*
X138488290Y-90145841D01*
X138482786Y-90145500D01*
X138482788Y-90145466D01*
X138478729Y-90145223D01*
X138474695Y-90144863D01*
X138467527Y-90143372D01*
X138460210Y-90143570D01*
X138390585Y-90145454D01*
X138387177Y-90145500D01*
X138055947Y-90145500D01*
X137974240Y-90155026D01*
X137932518Y-90159890D01*
X137932516Y-90159890D01*
X137925246Y-90160738D01*
X137918369Y-90163234D01*
X137918366Y-90163235D01*
X137781454Y-90212932D01*
X137759866Y-90220768D01*
X137753749Y-90224778D01*
X137753746Y-90224780D01*
X137700375Y-90259772D01*
X137612732Y-90317234D01*
X137491736Y-90444960D01*
X137403368Y-90597096D01*
X137352370Y-90765480D01*
X137341476Y-90941080D01*
X137342716Y-90948296D01*
X137342716Y-90948298D01*
X137365285Y-91079642D01*
X137371271Y-91114477D01*
X137440156Y-91276368D01*
X137544437Y-91418071D01*
X137678520Y-91531982D01*
X137722034Y-91554201D01*
X137828695Y-91608666D01*
X137828700Y-91608668D01*
X137835212Y-91611993D01*
X137842318Y-91613732D01*
X137842321Y-91613733D01*
X137923710Y-91633648D01*
X138006108Y-91653811D01*
X138011710Y-91654159D01*
X138011713Y-91654159D01*
X138015275Y-91654380D01*
X138015284Y-91654380D01*
X138017214Y-91654500D01*
X138035285Y-91654500D01*
X138103406Y-91674502D01*
X138124380Y-91691405D01*
X138458595Y-92025620D01*
X138492621Y-92087932D01*
X138495500Y-92114715D01*
X138495500Y-105165286D01*
X138475498Y-105233407D01*
X138458595Y-105254381D01*
X138194753Y-105518223D01*
X138132441Y-105552249D01*
X138104009Y-105555117D01*
X138091000Y-105554947D01*
X138032971Y-105554187D01*
X138027274Y-105555166D01*
X138027273Y-105555166D01*
X137997285Y-105560319D01*
X137832910Y-105588564D01*
X137642463Y-105658824D01*
X137468010Y-105762612D01*
X137463670Y-105766418D01*
X137463666Y-105766421D01*
X137353104Y-105863382D01*
X137315392Y-105896455D01*
X137189720Y-106055869D01*
X137187031Y-106060980D01*
X137187029Y-106060983D01*
X137164134Y-106104500D01*
X137095203Y-106235515D01*
X137035007Y-106429378D01*
X137011148Y-106630964D01*
X137024424Y-106833522D01*
X137025845Y-106839118D01*
X137025846Y-106839123D01*
X137069883Y-107012516D01*
X137074392Y-107030269D01*
X137076809Y-107035512D01*
X137112336Y-107112576D01*
X137159377Y-107214616D01*
X137162710Y-107219332D01*
X137251798Y-107345389D01*
X137276533Y-107380389D01*
X137421938Y-107522035D01*
X137590720Y-107634812D01*
X137596023Y-107637090D01*
X137596026Y-107637092D01*
X137692954Y-107678735D01*
X137747647Y-107724003D01*
X137769184Y-107791654D01*
X137750727Y-107860210D01*
X137698136Y-107907904D01*
X137682361Y-107914268D01*
X137596868Y-107942212D01*
X137587359Y-107946209D01*
X137398463Y-108044542D01*
X137389738Y-108050036D01*
X137219433Y-108177905D01*
X137211726Y-108184748D01*
X137064590Y-108338717D01*
X137058104Y-108346727D01*
X136938098Y-108522649D01*
X136933000Y-108531623D01*
X136843338Y-108724783D01*
X136839777Y-108734464D01*
X136835291Y-108750640D01*
X136797813Y-108810939D01*
X136733684Y-108841403D01*
X136663266Y-108832360D01*
X136608915Y-108786682D01*
X136600867Y-108772698D01*
X136528331Y-108625609D01*
X136525776Y-108620428D01*
X136404320Y-108457779D01*
X136255258Y-108319987D01*
X136250375Y-108316906D01*
X136250371Y-108316903D01*
X136088464Y-108214748D01*
X136083581Y-108211667D01*
X135895039Y-108136446D01*
X135889379Y-108135320D01*
X135889375Y-108135319D01*
X135701613Y-108097971D01*
X135701610Y-108097971D01*
X135695946Y-108096844D01*
X135690171Y-108096768D01*
X135690167Y-108096768D01*
X135588793Y-108095441D01*
X135492971Y-108094187D01*
X135487274Y-108095166D01*
X135487273Y-108095166D01*
X135359271Y-108117161D01*
X135292910Y-108128564D01*
X135102463Y-108198824D01*
X134928010Y-108302612D01*
X134923670Y-108306418D01*
X134923666Y-108306421D01*
X134810129Y-108405991D01*
X134775392Y-108436455D01*
X134649720Y-108595869D01*
X134647031Y-108600980D01*
X134647029Y-108600983D01*
X134634073Y-108625609D01*
X134555203Y-108775515D01*
X134495007Y-108969378D01*
X134471148Y-109170964D01*
X134146564Y-109170964D01*
X134130658Y-108997859D01*
X134125826Y-108980727D01*
X134077125Y-108808046D01*
X134077124Y-108808044D01*
X134075557Y-108802487D01*
X134065192Y-108781467D01*
X133988331Y-108625609D01*
X133985776Y-108620428D01*
X133864320Y-108457779D01*
X133715258Y-108319987D01*
X133710375Y-108316906D01*
X133710371Y-108316903D01*
X133548464Y-108214748D01*
X133543581Y-108211667D01*
X133355039Y-108136446D01*
X133349379Y-108135320D01*
X133349375Y-108135319D01*
X133161613Y-108097971D01*
X133161610Y-108097971D01*
X133155946Y-108096844D01*
X133150171Y-108096768D01*
X133150167Y-108096768D01*
X133048793Y-108095441D01*
X132952971Y-108094187D01*
X132947274Y-108095166D01*
X132947273Y-108095166D01*
X132819271Y-108117161D01*
X132752910Y-108128564D01*
X132562463Y-108198824D01*
X132388010Y-108302612D01*
X132383670Y-108306418D01*
X132383666Y-108306421D01*
X132270129Y-108405991D01*
X132235392Y-108436455D01*
X132109720Y-108595869D01*
X132107031Y-108600980D01*
X132107029Y-108600983D01*
X132094073Y-108625609D01*
X132015203Y-108775515D01*
X131955007Y-108969378D01*
X131931148Y-109170964D01*
X131604499Y-109170964D01*
X131604499Y-108324934D01*
X131593098Y-108267612D01*
X131592156Y-108262874D01*
X131592155Y-108262872D01*
X131589734Y-108250699D01*
X131563654Y-108211667D01*
X131540377Y-108176832D01*
X131533484Y-108166516D01*
X131449301Y-108110266D01*
X131375067Y-108095500D01*
X131200334Y-108095500D01*
X131132213Y-108075498D01*
X131085720Y-108021842D01*
X131075616Y-107951568D01*
X131105110Y-107886988D01*
X131144902Y-107856348D01*
X131193100Y-107832736D01*
X131201945Y-107827464D01*
X131375328Y-107703792D01*
X131383200Y-107697139D01*
X131534052Y-107546812D01*
X131540730Y-107538965D01*
X131665003Y-107366020D01*
X131670313Y-107357183D01*
X131764670Y-107166267D01*
X131768469Y-107156672D01*
X131785066Y-107102047D01*
X131824007Y-107042683D01*
X131888862Y-107013796D01*
X131959038Y-107024558D01*
X132012256Y-107071551D01*
X132020048Y-107085922D01*
X132079377Y-107214616D01*
X132082710Y-107219332D01*
X132171798Y-107345389D01*
X132196533Y-107380389D01*
X132341938Y-107522035D01*
X132510720Y-107634812D01*
X132516023Y-107637090D01*
X132516026Y-107637092D01*
X132680693Y-107707838D01*
X132697228Y-107714942D01*
X132756231Y-107728293D01*
X132889579Y-107758467D01*
X132889584Y-107758468D01*
X132895216Y-107759742D01*
X132900987Y-107759969D01*
X132900989Y-107759969D01*
X132960756Y-107762317D01*
X133098053Y-107767712D01*
X133198499Y-107753148D01*
X133293231Y-107739413D01*
X133293236Y-107739412D01*
X133298945Y-107738584D01*
X133304409Y-107736729D01*
X133304414Y-107736728D01*
X133485693Y-107675192D01*
X133485698Y-107675190D01*
X133491165Y-107673334D01*
X133505374Y-107665377D01*
X133569138Y-107629667D01*
X133668276Y-107574147D01*
X133677571Y-107566417D01*
X133795696Y-107468172D01*
X133824345Y-107444345D01*
X133896837Y-107357183D01*
X133950453Y-107292718D01*
X133950455Y-107292715D01*
X133954147Y-107288276D01*
X134040330Y-107134385D01*
X134050510Y-107116208D01*
X134050511Y-107116206D01*
X134053334Y-107111165D01*
X134055190Y-107105698D01*
X134055192Y-107105693D01*
X134116728Y-106924414D01*
X134116729Y-106924409D01*
X134118584Y-106918945D01*
X134119412Y-106913236D01*
X134119413Y-106913231D01*
X134147179Y-106721727D01*
X134147712Y-106718053D01*
X134149232Y-106660000D01*
X134146564Y-106630964D01*
X134471148Y-106630964D01*
X134484424Y-106833522D01*
X134485845Y-106839118D01*
X134485846Y-106839123D01*
X134529883Y-107012516D01*
X134534392Y-107030269D01*
X134536809Y-107035512D01*
X134572336Y-107112576D01*
X134619377Y-107214616D01*
X134622710Y-107219332D01*
X134711798Y-107345389D01*
X134736533Y-107380389D01*
X134881938Y-107522035D01*
X135050720Y-107634812D01*
X135056023Y-107637090D01*
X135056026Y-107637092D01*
X135220693Y-107707838D01*
X135237228Y-107714942D01*
X135296231Y-107728293D01*
X135429579Y-107758467D01*
X135429584Y-107758468D01*
X135435216Y-107759742D01*
X135440987Y-107759969D01*
X135440989Y-107759969D01*
X135500756Y-107762317D01*
X135638053Y-107767712D01*
X135738499Y-107753148D01*
X135833231Y-107739413D01*
X135833236Y-107739412D01*
X135838945Y-107738584D01*
X135844409Y-107736729D01*
X135844414Y-107736728D01*
X136025693Y-107675192D01*
X136025698Y-107675190D01*
X136031165Y-107673334D01*
X136045374Y-107665377D01*
X136109138Y-107629667D01*
X136208276Y-107574147D01*
X136217571Y-107566417D01*
X136335696Y-107468172D01*
X136364345Y-107444345D01*
X136436837Y-107357183D01*
X136490453Y-107292718D01*
X136490455Y-107292715D01*
X136494147Y-107288276D01*
X136580330Y-107134385D01*
X136590510Y-107116208D01*
X136590511Y-107116206D01*
X136593334Y-107111165D01*
X136595190Y-107105698D01*
X136595192Y-107105693D01*
X136656728Y-106924414D01*
X136656729Y-106924409D01*
X136658584Y-106918945D01*
X136659412Y-106913236D01*
X136659413Y-106913231D01*
X136687179Y-106721727D01*
X136687712Y-106718053D01*
X136689232Y-106660000D01*
X136675888Y-106514781D01*
X136671187Y-106463613D01*
X136671186Y-106463610D01*
X136670658Y-106457859D01*
X136664583Y-106436318D01*
X136617125Y-106268046D01*
X136617124Y-106268044D01*
X136615557Y-106262487D01*
X136604978Y-106241033D01*
X136528331Y-106085609D01*
X136525776Y-106080428D01*
X136404320Y-105917779D01*
X136255258Y-105779987D01*
X136250375Y-105776906D01*
X136250371Y-105776903D01*
X136088464Y-105674748D01*
X136083581Y-105671667D01*
X135895039Y-105596446D01*
X135889379Y-105595320D01*
X135889375Y-105595319D01*
X135701613Y-105557971D01*
X135701610Y-105557971D01*
X135695946Y-105556844D01*
X135690171Y-105556768D01*
X135690167Y-105556768D01*
X135588793Y-105555441D01*
X135492971Y-105554187D01*
X135487274Y-105555166D01*
X135487273Y-105555166D01*
X135457285Y-105560319D01*
X135292910Y-105588564D01*
X135102463Y-105658824D01*
X134928010Y-105762612D01*
X134923670Y-105766418D01*
X134923666Y-105766421D01*
X134813104Y-105863382D01*
X134775392Y-105896455D01*
X134649720Y-106055869D01*
X134647031Y-106060980D01*
X134647029Y-106060983D01*
X134624134Y-106104500D01*
X134555203Y-106235515D01*
X134495007Y-106429378D01*
X134471148Y-106630964D01*
X134146564Y-106630964D01*
X134135888Y-106514781D01*
X134131187Y-106463613D01*
X134131186Y-106463610D01*
X134130658Y-106457859D01*
X134124583Y-106436318D01*
X134077125Y-106268046D01*
X134077124Y-106268044D01*
X134075557Y-106262487D01*
X134064978Y-106241033D01*
X133988331Y-106085609D01*
X133985776Y-106080428D01*
X133864320Y-105917779D01*
X133715258Y-105779987D01*
X133710375Y-105776906D01*
X133710371Y-105776903D01*
X133548464Y-105674748D01*
X133543581Y-105671667D01*
X133355039Y-105596446D01*
X133349379Y-105595320D01*
X133349375Y-105595319D01*
X133161613Y-105557971D01*
X133161610Y-105557971D01*
X133155946Y-105556844D01*
X133150171Y-105556768D01*
X133150167Y-105556768D01*
X133048793Y-105555441D01*
X132952971Y-105554187D01*
X132947274Y-105555166D01*
X132947273Y-105555166D01*
X132917285Y-105560319D01*
X132752910Y-105588564D01*
X132562463Y-105658824D01*
X132388010Y-105762612D01*
X132383670Y-105766418D01*
X132383666Y-105766421D01*
X132273104Y-105863382D01*
X132235392Y-105896455D01*
X132109720Y-106055869D01*
X132107031Y-106060980D01*
X132107029Y-106060983D01*
X132017589Y-106230980D01*
X131968170Y-106281952D01*
X131899037Y-106298115D01*
X131832141Y-106274336D01*
X131792003Y-106219973D01*
X131789955Y-106220863D01*
X131702972Y-106020814D01*
X131698105Y-106011739D01*
X131582426Y-105832926D01*
X131576136Y-105824757D01*
X131432806Y-105667240D01*
X131425273Y-105660215D01*
X131258139Y-105528222D01*
X131249552Y-105522517D01*
X131063117Y-105419599D01*
X131053705Y-105415369D01*
X130852959Y-105344280D01*
X130842988Y-105341646D01*
X130771837Y-105328972D01*
X130758540Y-105330432D01*
X130754000Y-105344989D01*
X130754000Y-106788000D01*
X130733998Y-106856121D01*
X130680342Y-106902614D01*
X130628000Y-106914000D01*
X129183225Y-106914000D01*
X129169694Y-106917973D01*
X129168257Y-106927966D01*
X116241430Y-106927966D01*
X116302755Y-106842624D01*
X116361842Y-106695641D01*
X116376844Y-106590229D01*
X116383581Y-106542891D01*
X116383581Y-106542888D01*
X116384162Y-106538807D01*
X116384307Y-106525000D01*
X116368477Y-106394183D01*
X129164389Y-106394183D01*
X129165912Y-106402607D01*
X129178292Y-106406000D01*
X130227885Y-106406000D01*
X130243124Y-106401525D01*
X130244329Y-106400135D01*
X130246000Y-106392452D01*
X130246000Y-105343102D01*
X130242082Y-105329758D01*
X130227806Y-105327771D01*
X130189324Y-105333660D01*
X130179288Y-105336051D01*
X129976868Y-105402212D01*
X129967359Y-105406209D01*
X129778463Y-105504542D01*
X129769738Y-105510036D01*
X129599433Y-105637905D01*
X129591726Y-105644748D01*
X129444590Y-105798717D01*
X129438104Y-105806727D01*
X129318098Y-105982649D01*
X129313000Y-105991623D01*
X129223338Y-106184783D01*
X129219775Y-106194470D01*
X129164389Y-106394183D01*
X116368477Y-106394183D01*
X116365276Y-106367733D01*
X116309280Y-106219546D01*
X116285388Y-106184783D01*
X116223855Y-106095251D01*
X116223854Y-106095249D01*
X116219553Y-106088992D01*
X116101275Y-105983611D01*
X116093889Y-105979700D01*
X115967988Y-105913039D01*
X115967989Y-105913039D01*
X115961274Y-105909484D01*
X115807633Y-105870892D01*
X115800034Y-105870852D01*
X115800033Y-105870852D01*
X115734181Y-105870507D01*
X115649221Y-105870062D01*
X115641841Y-105871834D01*
X115641839Y-105871834D01*
X115502563Y-105905271D01*
X115502560Y-105905272D01*
X115495184Y-105907043D01*
X115354414Y-105979700D01*
X115235039Y-106083838D01*
X115143950Y-106213444D01*
X115086406Y-106361037D01*
X115085414Y-106368570D01*
X115085414Y-106368571D01*
X115072902Y-106463613D01*
X115065729Y-106518096D01*
X111464409Y-106518096D01*
X111458363Y-106452299D01*
X111456187Y-106428613D01*
X111456186Y-106428610D01*
X111455658Y-106422859D01*
X111449249Y-106400135D01*
X111402125Y-106233046D01*
X111402124Y-106233044D01*
X111400557Y-106227487D01*
X111397291Y-106220863D01*
X111313331Y-106050609D01*
X111310776Y-106045428D01*
X111189320Y-105882779D01*
X111040258Y-105744987D01*
X111035375Y-105741906D01*
X111035371Y-105741903D01*
X110873464Y-105639748D01*
X110868581Y-105636667D01*
X110680039Y-105561446D01*
X110674379Y-105560320D01*
X110674375Y-105560319D01*
X110486613Y-105522971D01*
X110486610Y-105522971D01*
X110480946Y-105521844D01*
X110475171Y-105521768D01*
X110475167Y-105521768D01*
X110373793Y-105520441D01*
X110277971Y-105519187D01*
X110272274Y-105520166D01*
X110272273Y-105520166D01*
X110083607Y-105552585D01*
X110077910Y-105553564D01*
X109887463Y-105623824D01*
X109713010Y-105727612D01*
X109708670Y-105731418D01*
X109708666Y-105731421D01*
X109628823Y-105801442D01*
X109560392Y-105861455D01*
X109434720Y-106020869D01*
X109432031Y-106025980D01*
X109432029Y-106025983D01*
X109398399Y-106089903D01*
X109340203Y-106200515D01*
X109280007Y-106394378D01*
X109256148Y-106595964D01*
X109269424Y-106798522D01*
X109270845Y-106804118D01*
X109270846Y-106804123D01*
X109305397Y-106940165D01*
X109319392Y-106995269D01*
X109321809Y-107000512D01*
X109389352Y-107147024D01*
X109404377Y-107179616D01*
X109407710Y-107184332D01*
X109488029Y-107297981D01*
X109521533Y-107345389D01*
X109525675Y-107349424D01*
X109571435Y-107394001D01*
X109666938Y-107487035D01*
X109835720Y-107599812D01*
X109841023Y-107602090D01*
X109841026Y-107602092D01*
X109937954Y-107643735D01*
X109992647Y-107689003D01*
X110014184Y-107756654D01*
X109995727Y-107825210D01*
X109943136Y-107872904D01*
X109927361Y-107879268D01*
X109841868Y-107907212D01*
X109832359Y-107911209D01*
X109643463Y-108009542D01*
X109634738Y-108015036D01*
X109464433Y-108142905D01*
X109456726Y-108149748D01*
X109309590Y-108303717D01*
X109303104Y-108311727D01*
X109183098Y-108487649D01*
X109178000Y-108496623D01*
X109088338Y-108689783D01*
X109084777Y-108699464D01*
X109080291Y-108715640D01*
X109042813Y-108775939D01*
X108978684Y-108806403D01*
X108908266Y-108797360D01*
X108853915Y-108751682D01*
X108845867Y-108737698D01*
X108773331Y-108590609D01*
X108770776Y-108585428D01*
X108649320Y-108422779D01*
X108500258Y-108284987D01*
X108495375Y-108281906D01*
X108495371Y-108281903D01*
X108333464Y-108179748D01*
X108328581Y-108176667D01*
X108140039Y-108101446D01*
X108134379Y-108100320D01*
X108134375Y-108100319D01*
X107946613Y-108062971D01*
X107946610Y-108062971D01*
X107940946Y-108061844D01*
X107935171Y-108061768D01*
X107935167Y-108061768D01*
X107833793Y-108060441D01*
X107737971Y-108059187D01*
X107732274Y-108060166D01*
X107732273Y-108060166D01*
X107543607Y-108092585D01*
X107537910Y-108093564D01*
X107347463Y-108163824D01*
X107173010Y-108267612D01*
X107168670Y-108271418D01*
X107168666Y-108271421D01*
X107082797Y-108346727D01*
X107020392Y-108401455D01*
X106894720Y-108560869D01*
X106892031Y-108565980D01*
X106892029Y-108565983D01*
X106876305Y-108595869D01*
X106800203Y-108740515D01*
X106740007Y-108934378D01*
X106716148Y-109135964D01*
X98254500Y-109135964D01*
X98254500Y-108981716D01*
X101895352Y-108981716D01*
X101896820Y-108992008D01*
X101910385Y-108996000D01*
X104585402Y-108996000D01*
X104598933Y-108992027D01*
X104600288Y-108982601D01*
X104578806Y-108893463D01*
X104574917Y-108882168D01*
X104492371Y-108700618D01*
X104486424Y-108690276D01*
X104371032Y-108527603D01*
X104363239Y-108518575D01*
X104219169Y-108380658D01*
X104209804Y-108373262D01*
X104042259Y-108265079D01*
X104031655Y-108259583D01*
X103950421Y-108226845D01*
X103894715Y-108182830D01*
X103871648Y-108115685D01*
X103888545Y-108046729D01*
X103932625Y-108001976D01*
X104016519Y-107951568D01*
X104044677Y-107934649D01*
X104049634Y-107929961D01*
X104049637Y-107929959D01*
X104174614Y-107811773D01*
X104174616Y-107811771D01*
X104179572Y-107807084D01*
X104283928Y-107653529D01*
X104286463Y-107647192D01*
X104350342Y-107487484D01*
X104350343Y-107487479D01*
X104352876Y-107481147D01*
X104353990Y-107474420D01*
X104353991Y-107474415D01*
X104382084Y-107304718D01*
X104382084Y-107304715D01*
X104383199Y-107297981D01*
X104382691Y-107288276D01*
X104373839Y-107119389D01*
X104373482Y-107112576D01*
X104371672Y-107106004D01*
X104371671Y-107105999D01*
X104325992Y-106940165D01*
X104324179Y-106933583D01*
X104237590Y-106769352D01*
X104117755Y-106627546D01*
X104083989Y-106601730D01*
X103975685Y-106518925D01*
X103975681Y-106518923D01*
X103970264Y-106514781D01*
X103964084Y-106511899D01*
X103964082Y-106511898D01*
X103808177Y-106439198D01*
X103808174Y-106439197D01*
X103802000Y-106436318D01*
X103795352Y-106434832D01*
X103795349Y-106434831D01*
X103625849Y-106396944D01*
X103625850Y-106396944D01*
X103620812Y-106395818D01*
X103615124Y-106395500D01*
X102928615Y-106395500D01*
X102790427Y-106410512D01*
X102705189Y-106439198D01*
X102620936Y-106467552D01*
X102620934Y-106467553D01*
X102614465Y-106469730D01*
X102455323Y-106565351D01*
X102450366Y-106570039D01*
X102450363Y-106570041D01*
X102325386Y-106688227D01*
X102320428Y-106692916D01*
X102216072Y-106846471D01*
X102213539Y-106852805D01*
X102213537Y-106852808D01*
X102149658Y-107012516D01*
X102149657Y-107012521D01*
X102147124Y-107018853D01*
X102146010Y-107025580D01*
X102146009Y-107025585D01*
X102120351Y-107180576D01*
X102116801Y-107202019D01*
X102117158Y-107208836D01*
X102117158Y-107208840D01*
X102121473Y-107291160D01*
X102126518Y-107387424D01*
X102128328Y-107393996D01*
X102128329Y-107394001D01*
X102169088Y-107541972D01*
X102175821Y-107566417D01*
X102262410Y-107730648D01*
X102382245Y-107872454D01*
X102387668Y-107876601D01*
X102387670Y-107876602D01*
X102524315Y-107981075D01*
X102524319Y-107981077D01*
X102529736Y-107985219D01*
X102535919Y-107988102D01*
X102549383Y-107994381D01*
X102602667Y-108041299D01*
X102622127Y-108109577D01*
X102601584Y-108177536D01*
X102553823Y-108220591D01*
X102379022Y-108310619D01*
X102368976Y-108317069D01*
X102212143Y-108440262D01*
X102203494Y-108448499D01*
X102072788Y-108599123D01*
X102065853Y-108608847D01*
X101965990Y-108781467D01*
X101961016Y-108792331D01*
X101895593Y-108980727D01*
X101895352Y-108981716D01*
X98254500Y-108981716D01*
X98254500Y-105202019D01*
X102116801Y-105202019D01*
X102117158Y-105208836D01*
X102117158Y-105208840D01*
X102124119Y-105341646D01*
X102126518Y-105387424D01*
X102128328Y-105393996D01*
X102128329Y-105394001D01*
X102169140Y-105542161D01*
X102175821Y-105566417D01*
X102262410Y-105730648D01*
X102382245Y-105872454D01*
X102387668Y-105876601D01*
X102387670Y-105876602D01*
X102524315Y-105981075D01*
X102524319Y-105981077D01*
X102529736Y-105985219D01*
X102535916Y-105988101D01*
X102535918Y-105988102D01*
X102691823Y-106060802D01*
X102691826Y-106060803D01*
X102698000Y-106063682D01*
X102704648Y-106065168D01*
X102704651Y-106065169D01*
X102816747Y-106090225D01*
X102879188Y-106104182D01*
X102884876Y-106104500D01*
X103571385Y-106104500D01*
X103576154Y-106103982D01*
X103628135Y-106098335D01*
X103709573Y-106089488D01*
X103840494Y-106045428D01*
X103879064Y-106032448D01*
X103879066Y-106032447D01*
X103885535Y-106030270D01*
X104044677Y-105934649D01*
X104049634Y-105929961D01*
X104049637Y-105929959D01*
X104174614Y-105811773D01*
X104174616Y-105811771D01*
X104179572Y-105807084D01*
X104218412Y-105749933D01*
X106720500Y-105749933D01*
X106720501Y-107500066D01*
X106724871Y-107522035D01*
X106732389Y-107559835D01*
X106735266Y-107574301D01*
X106742161Y-107584620D01*
X106742162Y-107584622D01*
X106772261Y-107629667D01*
X106791516Y-107658484D01*
X106875699Y-107714734D01*
X106949933Y-107729500D01*
X107824858Y-107729500D01*
X108700066Y-107729499D01*
X108735818Y-107722388D01*
X108762126Y-107717156D01*
X108762128Y-107717155D01*
X108774301Y-107714734D01*
X108784621Y-107707839D01*
X108784622Y-107707838D01*
X108848168Y-107665377D01*
X108858484Y-107658484D01*
X108914734Y-107574301D01*
X108929500Y-107500067D01*
X108929499Y-105749934D01*
X108922388Y-105714182D01*
X108917156Y-105687874D01*
X108917155Y-105687872D01*
X108914734Y-105675699D01*
X108903459Y-105658824D01*
X108865377Y-105601832D01*
X108858484Y-105591516D01*
X108774301Y-105535266D01*
X108700067Y-105520500D01*
X107825142Y-105520500D01*
X106949934Y-105520501D01*
X106914182Y-105527612D01*
X106887874Y-105532844D01*
X106887872Y-105532845D01*
X106875699Y-105535266D01*
X106865379Y-105542161D01*
X106865378Y-105542162D01*
X106829079Y-105566417D01*
X106791516Y-105591516D01*
X106735266Y-105675699D01*
X106720500Y-105749933D01*
X104218412Y-105749933D01*
X104283928Y-105653529D01*
X104286463Y-105647192D01*
X104350342Y-105487484D01*
X104350343Y-105487479D01*
X104352876Y-105481147D01*
X104353990Y-105474420D01*
X104353991Y-105474415D01*
X104382084Y-105304718D01*
X104382084Y-105304715D01*
X104383199Y-105297981D01*
X104373482Y-105112576D01*
X104371672Y-105106004D01*
X104371671Y-105105999D01*
X104325992Y-104940165D01*
X104324179Y-104933583D01*
X104237590Y-104769352D01*
X104117755Y-104627546D01*
X104112330Y-104623398D01*
X103975685Y-104518925D01*
X103975681Y-104518923D01*
X103970264Y-104514781D01*
X103964084Y-104511899D01*
X103964082Y-104511898D01*
X103808177Y-104439198D01*
X103808174Y-104439197D01*
X103802000Y-104436318D01*
X103795352Y-104434832D01*
X103795349Y-104434831D01*
X103666380Y-104406004D01*
X103620812Y-104395818D01*
X103615124Y-104395500D01*
X102928615Y-104395500D01*
X102790427Y-104410512D01*
X102705189Y-104439198D01*
X102620936Y-104467552D01*
X102620934Y-104467553D01*
X102614465Y-104469730D01*
X102455323Y-104565351D01*
X102450366Y-104570039D01*
X102450363Y-104570041D01*
X102325386Y-104688227D01*
X102320428Y-104692916D01*
X102216072Y-104846471D01*
X102213539Y-104852805D01*
X102213537Y-104852808D01*
X102149658Y-105012516D01*
X102149657Y-105012521D01*
X102147124Y-105018853D01*
X102146010Y-105025580D01*
X102146009Y-105025585D01*
X102132697Y-105105999D01*
X102116801Y-105202019D01*
X98254500Y-105202019D01*
X98254500Y-103647756D01*
X102120500Y-103647756D01*
X102127202Y-103709448D01*
X102177929Y-103844764D01*
X102183309Y-103851943D01*
X102183311Y-103851946D01*
X102249287Y-103939977D01*
X102264596Y-103960404D01*
X102271776Y-103965785D01*
X102373054Y-104041689D01*
X102373057Y-104041691D01*
X102380236Y-104047071D01*
X102469954Y-104080704D01*
X102508157Y-104095026D01*
X102508159Y-104095026D01*
X102515552Y-104097798D01*
X102523402Y-104098651D01*
X102523403Y-104098651D01*
X102573847Y-104104131D01*
X102577244Y-104104500D01*
X103922756Y-104104500D01*
X103926153Y-104104131D01*
X103976597Y-104098651D01*
X103976598Y-104098651D01*
X103984448Y-104097798D01*
X103991841Y-104095026D01*
X103991843Y-104095026D01*
X104030046Y-104080704D01*
X104119764Y-104047071D01*
X104126943Y-104041691D01*
X104126946Y-104041689D01*
X104182571Y-104000000D01*
X120690715Y-104000000D01*
X120691793Y-104008188D01*
X120704473Y-104104500D01*
X120709772Y-104144754D01*
X120765645Y-104279642D01*
X120854526Y-104395474D01*
X120861076Y-104400500D01*
X120861079Y-104400503D01*
X120948459Y-104467552D01*
X120970357Y-104484355D01*
X121105246Y-104540228D01*
X121250000Y-104559285D01*
X121258188Y-104558207D01*
X121386566Y-104541306D01*
X121394754Y-104540228D01*
X121529643Y-104484355D01*
X121551541Y-104467552D01*
X121638921Y-104400503D01*
X121638924Y-104400500D01*
X121645474Y-104395474D01*
X121734355Y-104279642D01*
X121790228Y-104144754D01*
X121795528Y-104104500D01*
X121808207Y-104008188D01*
X121809285Y-104000000D01*
X121790228Y-103855246D01*
X121734355Y-103720358D01*
X121645474Y-103604526D01*
X121638924Y-103599500D01*
X121638921Y-103599497D01*
X121536196Y-103520673D01*
X121536194Y-103520672D01*
X121529643Y-103515645D01*
X121394754Y-103459772D01*
X121250000Y-103440715D01*
X121241812Y-103441793D01*
X121113432Y-103458694D01*
X121113430Y-103458695D01*
X121105246Y-103459772D01*
X121057430Y-103479578D01*
X120977986Y-103512485D01*
X120977984Y-103512486D01*
X120970358Y-103515645D01*
X120854526Y-103604526D01*
X120765645Y-103720358D01*
X120709772Y-103855246D01*
X120690715Y-104000000D01*
X104182571Y-104000000D01*
X104228224Y-103965785D01*
X104235404Y-103960404D01*
X104250713Y-103939977D01*
X104316689Y-103851946D01*
X104316691Y-103851943D01*
X104322071Y-103844764D01*
X104372798Y-103709448D01*
X104379500Y-103647756D01*
X104379500Y-102852244D01*
X104372798Y-102790552D01*
X104322071Y-102655236D01*
X104316691Y-102648057D01*
X104316689Y-102648054D01*
X104240785Y-102546776D01*
X104235404Y-102539596D01*
X104214977Y-102524287D01*
X104126946Y-102458311D01*
X104126943Y-102458309D01*
X104119764Y-102452929D01*
X104030046Y-102419296D01*
X103991843Y-102404974D01*
X103991841Y-102404974D01*
X103984448Y-102402202D01*
X103976598Y-102401349D01*
X103976597Y-102401349D01*
X103926153Y-102395869D01*
X103926152Y-102395869D01*
X103922756Y-102395500D01*
X102577244Y-102395500D01*
X102573848Y-102395869D01*
X102573847Y-102395869D01*
X102523403Y-102401349D01*
X102523402Y-102401349D01*
X102515552Y-102402202D01*
X102508159Y-102404974D01*
X102508157Y-102404974D01*
X102469954Y-102419296D01*
X102380236Y-102452929D01*
X102373057Y-102458309D01*
X102373054Y-102458311D01*
X102285023Y-102524287D01*
X102264596Y-102539596D01*
X102259215Y-102546776D01*
X102183311Y-102648054D01*
X102183309Y-102648057D01*
X102177929Y-102655236D01*
X102127202Y-102790552D01*
X102120500Y-102852244D01*
X102120500Y-103647756D01*
X98254500Y-103647756D01*
X98254500Y-100093096D01*
X136640729Y-100093096D01*
X136658113Y-100250553D01*
X136712553Y-100399319D01*
X136800908Y-100530805D01*
X136806527Y-100535918D01*
X136806528Y-100535919D01*
X136817903Y-100546269D01*
X136918076Y-100637419D01*
X137057293Y-100713008D01*
X137210522Y-100753207D01*
X137294477Y-100754526D01*
X137361319Y-100755576D01*
X137361322Y-100755576D01*
X137368916Y-100755695D01*
X137523332Y-100720329D01*
X137593742Y-100684917D01*
X137658072Y-100652563D01*
X137658075Y-100652561D01*
X137664855Y-100649151D01*
X137670626Y-100644222D01*
X137670629Y-100644220D01*
X137779536Y-100551204D01*
X137779536Y-100551203D01*
X137785314Y-100546269D01*
X137877755Y-100417624D01*
X137936842Y-100270641D01*
X137959162Y-100113807D01*
X137959307Y-100100000D01*
X137940276Y-99942733D01*
X137884280Y-99794546D01*
X137794553Y-99663992D01*
X137676275Y-99558611D01*
X137668889Y-99554700D01*
X137542988Y-99488039D01*
X137542989Y-99488039D01*
X137536274Y-99484484D01*
X137382633Y-99445892D01*
X137375034Y-99445852D01*
X137375033Y-99445852D01*
X137309181Y-99445507D01*
X137224221Y-99445062D01*
X137216841Y-99446834D01*
X137216839Y-99446834D01*
X137077563Y-99480271D01*
X137077560Y-99480272D01*
X137070184Y-99482043D01*
X136929414Y-99554700D01*
X136810039Y-99658838D01*
X136718950Y-99788444D01*
X136661406Y-99936037D01*
X136640729Y-100093096D01*
X98254500Y-100093096D01*
X98254500Y-98202019D01*
X102116801Y-98202019D01*
X102126518Y-98387424D01*
X102128328Y-98393996D01*
X102128329Y-98394001D01*
X102162538Y-98518195D01*
X102175821Y-98566417D01*
X102262410Y-98730648D01*
X102382245Y-98872454D01*
X102387668Y-98876601D01*
X102387670Y-98876602D01*
X102524315Y-98981075D01*
X102524319Y-98981077D01*
X102529736Y-98985219D01*
X102535916Y-98988101D01*
X102535918Y-98988102D01*
X102691823Y-99060802D01*
X102691826Y-99060803D01*
X102698000Y-99063682D01*
X102704648Y-99065168D01*
X102704651Y-99065169D01*
X102803711Y-99087311D01*
X102879188Y-99104182D01*
X102884876Y-99104500D01*
X103571385Y-99104500D01*
X103709573Y-99089488D01*
X103830210Y-99048889D01*
X103879064Y-99032448D01*
X103879066Y-99032447D01*
X103885535Y-99030270D01*
X104044677Y-98934649D01*
X104049634Y-98929961D01*
X104049637Y-98929959D01*
X104174614Y-98811773D01*
X104174616Y-98811771D01*
X104179572Y-98807084D01*
X104283928Y-98653529D01*
X104316355Y-98572456D01*
X104350342Y-98487484D01*
X104350343Y-98487479D01*
X104352876Y-98481147D01*
X104353990Y-98474420D01*
X104353991Y-98474415D01*
X104382084Y-98304718D01*
X104382084Y-98304715D01*
X104383199Y-98297981D01*
X104382624Y-98287000D01*
X104373839Y-98119389D01*
X104373482Y-98112576D01*
X104371672Y-98106004D01*
X104371671Y-98105999D01*
X104325992Y-97940165D01*
X104324179Y-97933583D01*
X104283061Y-97855596D01*
X112603229Y-97855596D01*
X112620613Y-98013053D01*
X112623223Y-98020184D01*
X112623223Y-98020186D01*
X112657033Y-98112576D01*
X112675053Y-98161819D01*
X112763408Y-98293305D01*
X112769027Y-98298418D01*
X112769028Y-98298419D01*
X112866844Y-98387424D01*
X112880576Y-98399919D01*
X113019793Y-98475508D01*
X113173022Y-98515707D01*
X113256977Y-98517026D01*
X113323819Y-98518076D01*
X113323822Y-98518076D01*
X113331416Y-98518195D01*
X113485832Y-98482829D01*
X113556242Y-98447417D01*
X113620572Y-98415063D01*
X113620575Y-98415061D01*
X113627355Y-98411651D01*
X113633126Y-98406722D01*
X113633129Y-98406720D01*
X113742036Y-98313704D01*
X113742036Y-98313703D01*
X113747814Y-98308769D01*
X113840255Y-98180124D01*
X113899342Y-98033141D01*
X113921662Y-97876307D01*
X113921807Y-97862500D01*
X113919185Y-97840828D01*
X113903688Y-97712773D01*
X113902776Y-97705233D01*
X113846780Y-97557046D01*
X113815751Y-97511898D01*
X113761355Y-97432751D01*
X113761354Y-97432749D01*
X113757053Y-97426492D01*
X113638775Y-97321111D01*
X113631389Y-97317200D01*
X113505488Y-97250539D01*
X113505489Y-97250539D01*
X113498774Y-97246984D01*
X113345133Y-97208392D01*
X113337534Y-97208352D01*
X113337533Y-97208352D01*
X113271681Y-97208007D01*
X113186721Y-97207562D01*
X113179341Y-97209334D01*
X113179339Y-97209334D01*
X113040063Y-97242771D01*
X113040060Y-97242772D01*
X113032684Y-97244543D01*
X112891914Y-97317200D01*
X112772539Y-97421338D01*
X112681450Y-97550944D01*
X112653201Y-97623398D01*
X112627926Y-97688227D01*
X112623906Y-97698537D01*
X112603229Y-97855596D01*
X104283061Y-97855596D01*
X104237590Y-97769352D01*
X104117755Y-97627546D01*
X104112330Y-97623398D01*
X103975685Y-97518925D01*
X103975681Y-97518923D01*
X103970264Y-97514781D01*
X103964084Y-97511899D01*
X103964082Y-97511898D01*
X103808177Y-97439198D01*
X103808174Y-97439197D01*
X103802000Y-97436318D01*
X103795352Y-97434832D01*
X103795349Y-97434831D01*
X103625849Y-97396944D01*
X103625850Y-97396944D01*
X103620812Y-97395818D01*
X103615124Y-97395500D01*
X102928615Y-97395500D01*
X102790427Y-97410512D01*
X102705189Y-97439198D01*
X102620936Y-97467552D01*
X102620934Y-97467553D01*
X102614465Y-97469730D01*
X102455323Y-97565351D01*
X102450366Y-97570039D01*
X102450363Y-97570041D01*
X102325386Y-97688227D01*
X102320428Y-97692916D01*
X102216072Y-97846471D01*
X102213539Y-97852805D01*
X102213537Y-97852808D01*
X102149658Y-98012516D01*
X102149657Y-98012521D01*
X102147124Y-98018853D01*
X102146010Y-98025580D01*
X102146009Y-98025585D01*
X102117916Y-98195282D01*
X102116801Y-98202019D01*
X98254500Y-98202019D01*
X98254500Y-94647095D01*
X101867001Y-94647095D01*
X101867338Y-94653614D01*
X101877257Y-94749206D01*
X101880149Y-94762600D01*
X101931588Y-94916784D01*
X101937761Y-94929962D01*
X102023063Y-95067807D01*
X102032099Y-95079208D01*
X102146829Y-95193739D01*
X102158240Y-95202751D01*
X102296243Y-95287816D01*
X102309426Y-95293964D01*
X102434135Y-95335328D01*
X102492495Y-95375759D01*
X102519732Y-95441323D01*
X102507199Y-95511204D01*
X102465516Y-95556272D01*
X102466608Y-95557711D01*
X102461174Y-95561835D01*
X102455323Y-95565351D01*
X102450366Y-95570039D01*
X102450363Y-95570041D01*
X102325386Y-95688227D01*
X102320428Y-95692916D01*
X102216072Y-95846471D01*
X102213539Y-95852805D01*
X102213537Y-95852808D01*
X102149658Y-96012516D01*
X102149657Y-96012521D01*
X102147124Y-96018853D01*
X102146010Y-96025580D01*
X102146009Y-96025585D01*
X102132697Y-96105999D01*
X102116801Y-96202019D01*
X102126518Y-96387424D01*
X102128328Y-96393996D01*
X102128329Y-96394001D01*
X102154079Y-96487484D01*
X102175821Y-96566417D01*
X102262410Y-96730648D01*
X102382245Y-96872454D01*
X102387668Y-96876601D01*
X102387670Y-96876602D01*
X102524315Y-96981075D01*
X102524319Y-96981077D01*
X102529736Y-96985219D01*
X102535916Y-96988101D01*
X102535918Y-96988102D01*
X102691823Y-97060802D01*
X102691826Y-97060803D01*
X102698000Y-97063682D01*
X102704648Y-97065168D01*
X102704651Y-97065169D01*
X102803711Y-97087311D01*
X102879188Y-97104182D01*
X102884876Y-97104500D01*
X103571385Y-97104500D01*
X103709573Y-97089488D01*
X103830210Y-97048889D01*
X103879064Y-97032448D01*
X103879066Y-97032447D01*
X103885535Y-97030270D01*
X104044677Y-96934649D01*
X104049634Y-96929961D01*
X104049637Y-96929959D01*
X104174614Y-96811773D01*
X104174616Y-96811771D01*
X104179572Y-96807084D01*
X104283928Y-96653529D01*
X104316355Y-96572456D01*
X104350342Y-96487484D01*
X104350343Y-96487479D01*
X104352876Y-96481147D01*
X104353990Y-96474420D01*
X104353991Y-96474415D01*
X104382084Y-96304718D01*
X104382084Y-96304715D01*
X104383199Y-96297981D01*
X104373482Y-96112576D01*
X104371672Y-96106004D01*
X104371671Y-96105999D01*
X104325992Y-95940165D01*
X104324179Y-95933583D01*
X104237590Y-95769352D01*
X104117755Y-95627546D01*
X104024833Y-95556502D01*
X103982865Y-95499238D01*
X103978520Y-95428374D01*
X104013176Y-95366411D01*
X104061486Y-95336882D01*
X104191784Y-95293412D01*
X104204962Y-95287239D01*
X104342807Y-95201937D01*
X104354208Y-95192901D01*
X104468739Y-95078171D01*
X104477751Y-95066760D01*
X104562816Y-94928757D01*
X104568963Y-94915576D01*
X104620138Y-94761290D01*
X104623005Y-94747914D01*
X104632672Y-94653562D01*
X104633000Y-94647146D01*
X104633000Y-94522115D01*
X104628525Y-94506876D01*
X104627135Y-94505671D01*
X104619452Y-94504000D01*
X101885116Y-94504000D01*
X101869877Y-94508475D01*
X101868672Y-94509865D01*
X101867001Y-94517548D01*
X101867001Y-94647095D01*
X98254500Y-94647095D01*
X98254500Y-94200000D01*
X116840715Y-94200000D01*
X116841793Y-94208188D01*
X116858134Y-94332309D01*
X116859772Y-94344754D01*
X116862931Y-94352380D01*
X116905726Y-94455695D01*
X116915645Y-94479642D01*
X117004526Y-94595474D01*
X117011076Y-94600500D01*
X117011079Y-94600503D01*
X117113804Y-94679327D01*
X117120357Y-94684355D01*
X117255246Y-94740228D01*
X117400000Y-94759285D01*
X117408188Y-94758207D01*
X117536566Y-94741306D01*
X117544754Y-94740228D01*
X117679643Y-94684355D01*
X117686196Y-94679327D01*
X117788921Y-94600503D01*
X117788924Y-94600500D01*
X117795474Y-94595474D01*
X117884355Y-94479642D01*
X117894275Y-94455695D01*
X117937069Y-94352380D01*
X117940228Y-94344754D01*
X117941867Y-94332309D01*
X117958207Y-94208188D01*
X117959285Y-94200000D01*
X117940228Y-94055246D01*
X117913258Y-93990135D01*
X117887515Y-93927986D01*
X117887514Y-93927984D01*
X117884355Y-93920358D01*
X117827594Y-93846386D01*
X117800501Y-93811077D01*
X117800500Y-93811076D01*
X117795474Y-93804526D01*
X117788924Y-93799500D01*
X117788921Y-93799497D01*
X117780579Y-93793096D01*
X125240729Y-93793096D01*
X125258113Y-93950553D01*
X125260723Y-93957684D01*
X125260723Y-93957686D01*
X125296425Y-94055246D01*
X125312553Y-94099319D01*
X125400908Y-94230805D01*
X125406527Y-94235918D01*
X125406528Y-94235919D01*
X125417903Y-94246269D01*
X125518076Y-94337419D01*
X125657293Y-94413008D01*
X125810522Y-94453207D01*
X125894477Y-94454526D01*
X125961319Y-94455576D01*
X125961322Y-94455576D01*
X125968916Y-94455695D01*
X126123332Y-94420329D01*
X126193742Y-94384917D01*
X126258072Y-94352563D01*
X126258075Y-94352561D01*
X126264855Y-94349151D01*
X126270626Y-94344222D01*
X126270629Y-94344220D01*
X126379536Y-94251204D01*
X126379536Y-94251203D01*
X126385314Y-94246269D01*
X126477755Y-94117624D01*
X126536842Y-93970641D01*
X126554518Y-93846438D01*
X126558581Y-93817891D01*
X126558581Y-93817888D01*
X126559162Y-93813807D01*
X126559231Y-93807265D01*
X126559264Y-93804134D01*
X126559264Y-93804128D01*
X126559307Y-93800000D01*
X126540276Y-93642733D01*
X126484280Y-93494546D01*
X126434303Y-93421829D01*
X126398855Y-93370251D01*
X126398854Y-93370249D01*
X126394553Y-93363992D01*
X126276275Y-93258611D01*
X126268889Y-93254700D01*
X126142988Y-93188039D01*
X126142989Y-93188039D01*
X126136274Y-93184484D01*
X125982633Y-93145892D01*
X125975034Y-93145852D01*
X125975033Y-93145852D01*
X125909181Y-93145507D01*
X125824221Y-93145062D01*
X125816841Y-93146834D01*
X125816839Y-93146834D01*
X125677563Y-93180271D01*
X125677560Y-93180272D01*
X125670184Y-93182043D01*
X125529414Y-93254700D01*
X125410039Y-93358838D01*
X125318950Y-93488444D01*
X125261406Y-93636037D01*
X125260414Y-93643570D01*
X125260414Y-93643571D01*
X125250264Y-93720673D01*
X125240729Y-93793096D01*
X117780579Y-93793096D01*
X117686196Y-93720673D01*
X117686194Y-93720672D01*
X117679643Y-93715645D01*
X117544754Y-93659772D01*
X117400000Y-93640715D01*
X117391812Y-93641793D01*
X117263432Y-93658694D01*
X117263430Y-93658695D01*
X117255246Y-93659772D01*
X117207430Y-93679578D01*
X117127986Y-93712485D01*
X117127984Y-93712486D01*
X117120358Y-93715645D01*
X117004526Y-93804526D01*
X116915645Y-93920358D01*
X116912486Y-93927984D01*
X116912485Y-93927986D01*
X116886742Y-93990135D01*
X116859772Y-94055246D01*
X116840715Y-94200000D01*
X98254500Y-94200000D01*
X98254500Y-93977885D01*
X101867000Y-93977885D01*
X101871475Y-93993124D01*
X101872865Y-93994329D01*
X101880548Y-93996000D01*
X102977885Y-93996000D01*
X102993124Y-93991525D01*
X102994329Y-93990135D01*
X102996000Y-93982452D01*
X102996000Y-93977885D01*
X103504000Y-93977885D01*
X103508475Y-93993124D01*
X103509865Y-93994329D01*
X103517548Y-93996000D01*
X104614884Y-93996000D01*
X104630123Y-93991525D01*
X104631328Y-93990135D01*
X104632999Y-93982452D01*
X104632999Y-93852905D01*
X104632662Y-93846386D01*
X104622743Y-93750794D01*
X104619851Y-93737400D01*
X104568412Y-93583216D01*
X104562239Y-93570038D01*
X104476937Y-93432193D01*
X104467901Y-93420792D01*
X104353171Y-93306261D01*
X104341760Y-93297249D01*
X104203757Y-93212184D01*
X104190576Y-93206037D01*
X104036290Y-93154862D01*
X104022914Y-93151995D01*
X103928562Y-93142328D01*
X103922145Y-93142000D01*
X103522115Y-93142000D01*
X103506876Y-93146475D01*
X103505671Y-93147865D01*
X103504000Y-93155548D01*
X103504000Y-93977885D01*
X102996000Y-93977885D01*
X102996000Y-93160116D01*
X102991525Y-93144877D01*
X102990135Y-93143672D01*
X102982452Y-93142001D01*
X102577905Y-93142001D01*
X102571386Y-93142338D01*
X102475794Y-93152257D01*
X102462400Y-93155149D01*
X102308216Y-93206588D01*
X102295038Y-93212761D01*
X102157193Y-93298063D01*
X102145792Y-93307099D01*
X102031261Y-93421829D01*
X102022249Y-93433240D01*
X101937184Y-93571243D01*
X101931037Y-93584424D01*
X101879862Y-93738710D01*
X101876995Y-93752086D01*
X101867328Y-93846438D01*
X101867000Y-93852855D01*
X101867000Y-93977885D01*
X98254500Y-93977885D01*
X98254500Y-90800000D01*
X108340715Y-90800000D01*
X108359772Y-90944754D01*
X108362931Y-90952380D01*
X108408931Y-91063432D01*
X108415645Y-91079642D01*
X108431903Y-91100830D01*
X108470019Y-91150503D01*
X108504526Y-91195474D01*
X108511076Y-91200500D01*
X108511079Y-91200503D01*
X108613804Y-91279327D01*
X108620357Y-91284355D01*
X108755246Y-91340228D01*
X108900000Y-91359285D01*
X108908188Y-91358207D01*
X109036566Y-91341306D01*
X109044754Y-91340228D01*
X109179643Y-91284355D01*
X109186196Y-91279327D01*
X109288921Y-91200503D01*
X109288924Y-91200500D01*
X109295474Y-91195474D01*
X109329982Y-91150503D01*
X109368097Y-91100830D01*
X109384355Y-91079642D01*
X109391070Y-91063432D01*
X109437069Y-90952380D01*
X109440228Y-90944754D01*
X109459285Y-90800000D01*
X109453780Y-90758188D01*
X109441306Y-90663432D01*
X109441305Y-90663430D01*
X109440228Y-90655246D01*
X109400232Y-90558688D01*
X109396840Y-90550500D01*
X121047492Y-90550500D01*
X121048570Y-90558688D01*
X121062360Y-90663432D01*
X121066549Y-90695254D01*
X121074995Y-90715645D01*
X121109937Y-90800000D01*
X121122422Y-90830142D01*
X121127449Y-90836693D01*
X121204086Y-90936568D01*
X121211303Y-90945974D01*
X121217853Y-90951000D01*
X121217856Y-90951003D01*
X121310399Y-91022014D01*
X121327134Y-91034855D01*
X121396125Y-91063432D01*
X121451075Y-91086193D01*
X121462023Y-91090728D01*
X121606777Y-91109785D01*
X121614965Y-91108707D01*
X121743343Y-91091806D01*
X121751531Y-91090728D01*
X121762480Y-91086193D01*
X121817429Y-91063432D01*
X121886420Y-91034855D01*
X121952145Y-90984422D01*
X122018365Y-90958821D01*
X122087914Y-90973085D01*
X122138710Y-91022686D01*
X122154626Y-91091876D01*
X122153771Y-91100825D01*
X122140715Y-91200000D01*
X122141793Y-91208188D01*
X122154961Y-91308207D01*
X122159772Y-91344754D01*
X122165791Y-91359285D01*
X122186743Y-91409866D01*
X122215645Y-91479642D01*
X122235048Y-91504928D01*
X122289005Y-91575246D01*
X122304526Y-91595474D01*
X122311076Y-91600500D01*
X122311079Y-91600503D01*
X122413804Y-91679327D01*
X122420357Y-91684355D01*
X122555246Y-91740228D01*
X122700000Y-91759285D01*
X122708188Y-91758207D01*
X122836566Y-91741306D01*
X122844754Y-91740228D01*
X122979643Y-91684355D01*
X122986196Y-91679327D01*
X123088921Y-91600503D01*
X123088924Y-91600500D01*
X123095474Y-91595474D01*
X123110996Y-91575246D01*
X123164952Y-91504928D01*
X123184355Y-91479642D01*
X123213258Y-91409866D01*
X123234209Y-91359285D01*
X123240228Y-91344754D01*
X123245040Y-91308207D01*
X123258207Y-91208188D01*
X123259285Y-91200000D01*
X123251244Y-91138923D01*
X123241306Y-91063432D01*
X123241305Y-91063430D01*
X123240228Y-91055246D01*
X123220422Y-91007430D01*
X123187515Y-90927986D01*
X123187514Y-90927984D01*
X123184355Y-90920358D01*
X123095474Y-90804526D01*
X123088924Y-90799500D01*
X123088921Y-90799497D01*
X123024416Y-90750000D01*
X129440715Y-90750000D01*
X129441793Y-90758188D01*
X129450262Y-90822514D01*
X129459772Y-90894754D01*
X129515645Y-91029642D01*
X129604526Y-91145474D01*
X129611076Y-91150500D01*
X129611079Y-91150503D01*
X129713804Y-91229327D01*
X129720357Y-91234355D01*
X129855246Y-91290228D01*
X130000000Y-91309285D01*
X130008188Y-91308207D01*
X130136566Y-91291306D01*
X130144754Y-91290228D01*
X130279643Y-91234355D01*
X130286196Y-91229327D01*
X130388921Y-91150503D01*
X130388924Y-91150500D01*
X130395474Y-91145474D01*
X130484355Y-91029642D01*
X130540228Y-90894754D01*
X130549739Y-90822514D01*
X130558207Y-90758188D01*
X130559285Y-90750000D01*
X130547888Y-90663432D01*
X130541306Y-90613432D01*
X130541305Y-90613430D01*
X130540228Y-90605246D01*
X130505066Y-90520358D01*
X130487515Y-90477986D01*
X130487514Y-90477984D01*
X130484355Y-90470358D01*
X130435707Y-90406959D01*
X130400501Y-90361077D01*
X130400500Y-90361076D01*
X130395474Y-90354526D01*
X130388924Y-90349500D01*
X130388921Y-90349497D01*
X130286196Y-90270673D01*
X130286194Y-90270672D01*
X130279643Y-90265645D01*
X130144754Y-90209772D01*
X130000000Y-90190715D01*
X129991812Y-90191793D01*
X129863432Y-90208694D01*
X129863430Y-90208695D01*
X129855246Y-90209772D01*
X129834728Y-90218271D01*
X129727986Y-90262485D01*
X129727984Y-90262486D01*
X129720358Y-90265645D01*
X129655998Y-90315030D01*
X129623160Y-90340228D01*
X129604526Y-90354526D01*
X129515645Y-90470358D01*
X129512486Y-90477984D01*
X129512485Y-90477986D01*
X129494934Y-90520358D01*
X129459772Y-90605246D01*
X129458695Y-90613430D01*
X129458694Y-90613432D01*
X129452112Y-90663432D01*
X129440715Y-90750000D01*
X123024416Y-90750000D01*
X122986196Y-90720673D01*
X122986194Y-90720672D01*
X122979643Y-90715645D01*
X122844754Y-90659772D01*
X122700000Y-90640715D01*
X122691812Y-90641793D01*
X122563432Y-90658694D01*
X122563430Y-90658695D01*
X122555246Y-90659772D01*
X122546410Y-90663432D01*
X122427986Y-90712485D01*
X122427984Y-90712486D01*
X122420358Y-90715645D01*
X122404502Y-90727812D01*
X122354632Y-90766078D01*
X122288411Y-90791678D01*
X122218863Y-90777413D01*
X122168067Y-90727812D01*
X122152151Y-90658622D01*
X122153006Y-90649669D01*
X122158855Y-90605246D01*
X122166062Y-90550500D01*
X122161231Y-90513807D01*
X122148083Y-90413932D01*
X122148082Y-90413930D01*
X122147005Y-90405746D01*
X122110342Y-90317234D01*
X122094292Y-90278486D01*
X122094291Y-90278484D01*
X122091132Y-90270858D01*
X122019656Y-90177708D01*
X122007278Y-90161577D01*
X122007277Y-90161576D01*
X122002251Y-90155026D01*
X121995701Y-90150000D01*
X121995698Y-90149997D01*
X121892973Y-90071173D01*
X121892971Y-90071172D01*
X121886420Y-90066145D01*
X121751531Y-90010272D01*
X121606777Y-89991215D01*
X121598589Y-89992293D01*
X121470209Y-90009194D01*
X121470207Y-90009195D01*
X121462023Y-90010272D01*
X121414207Y-90030078D01*
X121334763Y-90062985D01*
X121334761Y-90062986D01*
X121327135Y-90066145D01*
X121308727Y-90080270D01*
X121223718Y-90145500D01*
X121211303Y-90155026D01*
X121206280Y-90161572D01*
X121193898Y-90177708D01*
X121122422Y-90270858D01*
X121119263Y-90278484D01*
X121119262Y-90278486D01*
X121103212Y-90317234D01*
X121066549Y-90405746D01*
X121065472Y-90413930D01*
X121065471Y-90413932D01*
X121052323Y-90513807D01*
X121047492Y-90550500D01*
X109396840Y-90550500D01*
X109387515Y-90527986D01*
X109387514Y-90527984D01*
X109384355Y-90520358D01*
X109322421Y-90439644D01*
X109300501Y-90411077D01*
X109300500Y-90411076D01*
X109295474Y-90404526D01*
X109288924Y-90399500D01*
X109288921Y-90399497D01*
X109186196Y-90320673D01*
X109186194Y-90320672D01*
X109179643Y-90315645D01*
X109058933Y-90265645D01*
X109052383Y-90262932D01*
X109044754Y-90259772D01*
X108900000Y-90240715D01*
X108891812Y-90241793D01*
X108763432Y-90258694D01*
X108763430Y-90258695D01*
X108755246Y-90259772D01*
X108723898Y-90272757D01*
X108627986Y-90312485D01*
X108627984Y-90312486D01*
X108620358Y-90315645D01*
X108569687Y-90354526D01*
X108511354Y-90399287D01*
X108504526Y-90404526D01*
X108499503Y-90411072D01*
X108480168Y-90436270D01*
X108415645Y-90520358D01*
X108412486Y-90527984D01*
X108412485Y-90527986D01*
X108399768Y-90558688D01*
X108359772Y-90655246D01*
X108358695Y-90663430D01*
X108358694Y-90663432D01*
X108346220Y-90758188D01*
X108340715Y-90800000D01*
X98254500Y-90800000D01*
X98254500Y-89252019D01*
X102066801Y-89252019D01*
X102067158Y-89258836D01*
X102067158Y-89258840D01*
X102070399Y-89320672D01*
X102076518Y-89437424D01*
X102078328Y-89443996D01*
X102078329Y-89444001D01*
X102104079Y-89537484D01*
X102125821Y-89616417D01*
X102212410Y-89780648D01*
X102332245Y-89922454D01*
X102337668Y-89926601D01*
X102337670Y-89926602D01*
X102474315Y-90031075D01*
X102474319Y-90031077D01*
X102479736Y-90035219D01*
X102485916Y-90038101D01*
X102485918Y-90038102D01*
X102641823Y-90110802D01*
X102641826Y-90110803D01*
X102648000Y-90113682D01*
X102654648Y-90115168D01*
X102654651Y-90115169D01*
X102753711Y-90137311D01*
X102829188Y-90154182D01*
X102834876Y-90154500D01*
X103521385Y-90154500D01*
X103659573Y-90139488D01*
X103780210Y-90098889D01*
X103829064Y-90082448D01*
X103829066Y-90082447D01*
X103835535Y-90080270D01*
X103994677Y-89984649D01*
X103999634Y-89979961D01*
X103999637Y-89979959D01*
X104124614Y-89861773D01*
X104124616Y-89861771D01*
X104129572Y-89857084D01*
X104168366Y-89800000D01*
X126840715Y-89800000D01*
X126859772Y-89944754D01*
X126862931Y-89952380D01*
X126912137Y-90071172D01*
X126915645Y-90079642D01*
X126920672Y-90086193D01*
X126995858Y-90184177D01*
X127004526Y-90195474D01*
X127011076Y-90200500D01*
X127011079Y-90200503D01*
X127105242Y-90272757D01*
X127120357Y-90284355D01*
X127199734Y-90317234D01*
X127243441Y-90335338D01*
X127255246Y-90340228D01*
X127400000Y-90359285D01*
X127408188Y-90358207D01*
X127436149Y-90354526D01*
X127544754Y-90340228D01*
X127556560Y-90335338D01*
X127600266Y-90317234D01*
X127679643Y-90284355D01*
X127694758Y-90272757D01*
X127788921Y-90200503D01*
X127788924Y-90200500D01*
X127795474Y-90195474D01*
X127804143Y-90184177D01*
X127879328Y-90086193D01*
X127884355Y-90079642D01*
X127887864Y-90071172D01*
X127937069Y-89952380D01*
X127940228Y-89944754D01*
X127959285Y-89800000D01*
X127955942Y-89774607D01*
X127941306Y-89663432D01*
X127941305Y-89663430D01*
X127940228Y-89655246D01*
X127884355Y-89520358D01*
X127795474Y-89404526D01*
X127788924Y-89399500D01*
X127788921Y-89399497D01*
X127686196Y-89320673D01*
X127686194Y-89320672D01*
X127679643Y-89315645D01*
X127544754Y-89259772D01*
X127400000Y-89240715D01*
X127391812Y-89241793D01*
X127263432Y-89258694D01*
X127263430Y-89258695D01*
X127255246Y-89259772D01*
X127207430Y-89279578D01*
X127127986Y-89312485D01*
X127127984Y-89312486D01*
X127120358Y-89315645D01*
X127004526Y-89404526D01*
X126915645Y-89520358D01*
X126859772Y-89655246D01*
X126858695Y-89663430D01*
X126858694Y-89663432D01*
X126844058Y-89774607D01*
X126840715Y-89800000D01*
X104168366Y-89800000D01*
X104233928Y-89703529D01*
X104266355Y-89622456D01*
X104300342Y-89537484D01*
X104300343Y-89537479D01*
X104302876Y-89531147D01*
X104303990Y-89524420D01*
X104303991Y-89524415D01*
X104332084Y-89354718D01*
X104332084Y-89354715D01*
X104333199Y-89347981D01*
X104331505Y-89315645D01*
X104323839Y-89169389D01*
X104323482Y-89162576D01*
X104321672Y-89156004D01*
X104321671Y-89155999D01*
X104275992Y-88990165D01*
X104274179Y-88983583D01*
X104187590Y-88819352D01*
X104067755Y-88677546D01*
X104062330Y-88673398D01*
X103925685Y-88568925D01*
X103925681Y-88568923D01*
X103920264Y-88564781D01*
X103914084Y-88561899D01*
X103914082Y-88561898D01*
X103758177Y-88489198D01*
X103758174Y-88489197D01*
X103752000Y-88486318D01*
X103745352Y-88484832D01*
X103745349Y-88484831D01*
X103575849Y-88446944D01*
X103575850Y-88446944D01*
X103570812Y-88445818D01*
X103565124Y-88445500D01*
X102878615Y-88445500D01*
X102740427Y-88460512D01*
X102660190Y-88487515D01*
X102570936Y-88517552D01*
X102570934Y-88517553D01*
X102564465Y-88519730D01*
X102405323Y-88615351D01*
X102400366Y-88620039D01*
X102400363Y-88620041D01*
X102275386Y-88738227D01*
X102270428Y-88742916D01*
X102166072Y-88896471D01*
X102163539Y-88902805D01*
X102163537Y-88902808D01*
X102099658Y-89062516D01*
X102099657Y-89062521D01*
X102097124Y-89068853D01*
X102096010Y-89075580D01*
X102096009Y-89075585D01*
X102082697Y-89155999D01*
X102066801Y-89252019D01*
X98254500Y-89252019D01*
X98254500Y-85567399D01*
X101849712Y-85567399D01*
X101871194Y-85656537D01*
X101875083Y-85667832D01*
X101957629Y-85849382D01*
X101963576Y-85859724D01*
X102078968Y-86022397D01*
X102086761Y-86031425D01*
X102230831Y-86169342D01*
X102240196Y-86176738D01*
X102407741Y-86284921D01*
X102418345Y-86290417D01*
X102499579Y-86323155D01*
X102555285Y-86367170D01*
X102578352Y-86434315D01*
X102561455Y-86503271D01*
X102517375Y-86548024D01*
X102482590Y-86568925D01*
X102405323Y-86615351D01*
X102400366Y-86620039D01*
X102400363Y-86620041D01*
X102275386Y-86738227D01*
X102270428Y-86742916D01*
X102166072Y-86896471D01*
X102163539Y-86902805D01*
X102163537Y-86902808D01*
X102099658Y-87062516D01*
X102099657Y-87062521D01*
X102097124Y-87068853D01*
X102096010Y-87075580D01*
X102096009Y-87075585D01*
X102067916Y-87245282D01*
X102066801Y-87252019D01*
X102067158Y-87258836D01*
X102067158Y-87258840D01*
X102071473Y-87341160D01*
X102076518Y-87437424D01*
X102078328Y-87443996D01*
X102078329Y-87444001D01*
X102122546Y-87604526D01*
X102125821Y-87616417D01*
X102212410Y-87780648D01*
X102332245Y-87922454D01*
X102337668Y-87926601D01*
X102337670Y-87926602D01*
X102474315Y-88031075D01*
X102474319Y-88031077D01*
X102479736Y-88035219D01*
X102485916Y-88038101D01*
X102485918Y-88038102D01*
X102641823Y-88110802D01*
X102641826Y-88110803D01*
X102648000Y-88113682D01*
X102654648Y-88115168D01*
X102654651Y-88115169D01*
X102753711Y-88137311D01*
X102829188Y-88154182D01*
X102834876Y-88154500D01*
X103521385Y-88154500D01*
X103659573Y-88139488D01*
X103780210Y-88098889D01*
X103829064Y-88082448D01*
X103829066Y-88082447D01*
X103835535Y-88080270D01*
X103994677Y-87984649D01*
X103999634Y-87979961D01*
X103999637Y-87979959D01*
X104124614Y-87861773D01*
X104124616Y-87861771D01*
X104129572Y-87857084D01*
X104233928Y-87703529D01*
X104236463Y-87697192D01*
X104300342Y-87537484D01*
X104300343Y-87537479D01*
X104302876Y-87531147D01*
X104303990Y-87524420D01*
X104303991Y-87524415D01*
X104332084Y-87354718D01*
X104332084Y-87354715D01*
X104333199Y-87347981D01*
X104332819Y-87340715D01*
X104323839Y-87169389D01*
X104323482Y-87162576D01*
X104321672Y-87156004D01*
X104321671Y-87155999D01*
X104275992Y-86990165D01*
X104274179Y-86983583D01*
X104187590Y-86819352D01*
X104067755Y-86677546D01*
X104048641Y-86662932D01*
X103925685Y-86568925D01*
X103925681Y-86568923D01*
X103920264Y-86564781D01*
X103909522Y-86559772D01*
X103900617Y-86555619D01*
X103847333Y-86508701D01*
X103844853Y-86500000D01*
X114340715Y-86500000D01*
X114342359Y-86512485D01*
X114356602Y-86620673D01*
X114359772Y-86644754D01*
X114362931Y-86652380D01*
X114391219Y-86720672D01*
X114415645Y-86779642D01*
X114504526Y-86895474D01*
X114511076Y-86900500D01*
X114511079Y-86900503D01*
X114613804Y-86979327D01*
X114620357Y-86984355D01*
X114755246Y-87040228D01*
X114900000Y-87059285D01*
X114908188Y-87058207D01*
X114930680Y-87055246D01*
X115044754Y-87040228D01*
X115179643Y-86984355D01*
X115186196Y-86979327D01*
X115288921Y-86900503D01*
X115288924Y-86900500D01*
X115295474Y-86895474D01*
X115368734Y-86800000D01*
X118340715Y-86800000D01*
X118341793Y-86808188D01*
X118352673Y-86890828D01*
X118359772Y-86944754D01*
X118362931Y-86952380D01*
X118410577Y-87067406D01*
X118415645Y-87079642D01*
X118504526Y-87195474D01*
X118511076Y-87200500D01*
X118511079Y-87200503D01*
X118587105Y-87258840D01*
X118620357Y-87284355D01*
X118755246Y-87340228D01*
X118900000Y-87359285D01*
X118908188Y-87358207D01*
X118908191Y-87358207D01*
X118916001Y-87357179D01*
X118986150Y-87368119D01*
X119039247Y-87415248D01*
X119058436Y-87483603D01*
X119057367Y-87498547D01*
X119052296Y-87537068D01*
X119040639Y-87625613D01*
X119041717Y-87633801D01*
X119051640Y-87709172D01*
X119059696Y-87770367D01*
X119062855Y-87777993D01*
X119106851Y-87884207D01*
X119115569Y-87905255D01*
X119204450Y-88021087D01*
X119211000Y-88026113D01*
X119211003Y-88026116D01*
X119313728Y-88104940D01*
X119320281Y-88109968D01*
X119455170Y-88165841D01*
X119599924Y-88184898D01*
X119608112Y-88183820D01*
X119736490Y-88166919D01*
X119744678Y-88165841D01*
X119772058Y-88154500D01*
X119871939Y-88113128D01*
X119871941Y-88113127D01*
X119879567Y-88109968D01*
X119886116Y-88104943D01*
X119888523Y-88103553D01*
X119957519Y-88086815D01*
X120024611Y-88110036D01*
X120067932Y-88164454D01*
X120071064Y-88172014D01*
X120115645Y-88279642D01*
X120204526Y-88395474D01*
X120211076Y-88400500D01*
X120211079Y-88400503D01*
X120313804Y-88479327D01*
X120320357Y-88484355D01*
X120455246Y-88540228D01*
X120600000Y-88559285D01*
X120608188Y-88558207D01*
X120736566Y-88541306D01*
X120744754Y-88540228D01*
X120879643Y-88484355D01*
X120886196Y-88479327D01*
X120988921Y-88400503D01*
X120988924Y-88400500D01*
X120995474Y-88395474D01*
X121044539Y-88331531D01*
X121101877Y-88289664D01*
X121172748Y-88285442D01*
X121221206Y-88308273D01*
X121320357Y-88384355D01*
X121455246Y-88440228D01*
X121600000Y-88459285D01*
X121608188Y-88458207D01*
X121736566Y-88441306D01*
X121744754Y-88440228D01*
X121879643Y-88384355D01*
X121886196Y-88379327D01*
X121988921Y-88300503D01*
X121988924Y-88300500D01*
X121995474Y-88295474D01*
X122007623Y-88279642D01*
X122079328Y-88186193D01*
X122084355Y-88179642D01*
X122094770Y-88154500D01*
X122137069Y-88052380D01*
X122140228Y-88044754D01*
X122141484Y-88035219D01*
X122158207Y-87908188D01*
X122159285Y-87900000D01*
X122158207Y-87891812D01*
X122158207Y-87884207D01*
X122178209Y-87816086D01*
X122231865Y-87769593D01*
X122284207Y-87758207D01*
X122291812Y-87758207D01*
X122300000Y-87759285D01*
X122308188Y-87758207D01*
X122330680Y-87755246D01*
X122444754Y-87740228D01*
X122579643Y-87684355D01*
X122612315Y-87659285D01*
X122688921Y-87600503D01*
X122688924Y-87600500D01*
X122695474Y-87595474D01*
X122784355Y-87479642D01*
X122801843Y-87437424D01*
X122834454Y-87358694D01*
X122840228Y-87344754D01*
X122859285Y-87200000D01*
X122842436Y-87072014D01*
X122841306Y-87063432D01*
X122841305Y-87063430D01*
X122840228Y-87055246D01*
X122817344Y-87000000D01*
X130940715Y-87000000D01*
X130941793Y-87008188D01*
X130949780Y-87068853D01*
X130959772Y-87144754D01*
X130962931Y-87152380D01*
X131004353Y-87252380D01*
X131015645Y-87279642D01*
X131020672Y-87286193D01*
X131092378Y-87379642D01*
X131104526Y-87395474D01*
X131111076Y-87400500D01*
X131111079Y-87400503D01*
X131192438Y-87462932D01*
X131220357Y-87484355D01*
X131355246Y-87540228D01*
X131500000Y-87559285D01*
X131508188Y-87558207D01*
X131636566Y-87541306D01*
X131644754Y-87540228D01*
X131779643Y-87484355D01*
X131807562Y-87462932D01*
X131888921Y-87400503D01*
X131888924Y-87400500D01*
X131895474Y-87395474D01*
X131907623Y-87379642D01*
X131979328Y-87286193D01*
X131984355Y-87279642D01*
X131995648Y-87252380D01*
X132037069Y-87152380D01*
X132040228Y-87144754D01*
X132046120Y-87100000D01*
X141340715Y-87100000D01*
X141359772Y-87244754D01*
X141362931Y-87252380D01*
X141407213Y-87359285D01*
X141415645Y-87379642D01*
X141443271Y-87415645D01*
X141493312Y-87480859D01*
X141504526Y-87495474D01*
X141511076Y-87500500D01*
X141511079Y-87500503D01*
X141587685Y-87559285D01*
X141620357Y-87584355D01*
X141755246Y-87640228D01*
X141900000Y-87659285D01*
X141908188Y-87658207D01*
X142036566Y-87641306D01*
X142044754Y-87640228D01*
X142179643Y-87584355D01*
X142212315Y-87559285D01*
X142288921Y-87500503D01*
X142288924Y-87500500D01*
X142295474Y-87495474D01*
X142306689Y-87480859D01*
X142356729Y-87415645D01*
X142384355Y-87379642D01*
X142392788Y-87359285D01*
X142437069Y-87252380D01*
X142440228Y-87244754D01*
X142459285Y-87100000D01*
X142451000Y-87037068D01*
X142441306Y-86963432D01*
X142441305Y-86963430D01*
X142440228Y-86955246D01*
X142418507Y-86902808D01*
X142387515Y-86827986D01*
X142387514Y-86827984D01*
X142384355Y-86820358D01*
X142321334Y-86738227D01*
X142300501Y-86711077D01*
X142300500Y-86711076D01*
X142295474Y-86704526D01*
X142288924Y-86699500D01*
X142288921Y-86699497D01*
X142186196Y-86620673D01*
X142186194Y-86620672D01*
X142179643Y-86615645D01*
X142044754Y-86559772D01*
X142013209Y-86555619D01*
X141908188Y-86541793D01*
X141900000Y-86540715D01*
X141891812Y-86541793D01*
X141763432Y-86558694D01*
X141763430Y-86558695D01*
X141755246Y-86559772D01*
X141733149Y-86568925D01*
X141627986Y-86612485D01*
X141627984Y-86612486D01*
X141620358Y-86615645D01*
X141504526Y-86704526D01*
X141499503Y-86711072D01*
X141480168Y-86736270D01*
X141415645Y-86820358D01*
X141412486Y-86827984D01*
X141412485Y-86827986D01*
X141381493Y-86902808D01*
X141359772Y-86955246D01*
X141358695Y-86963430D01*
X141358694Y-86963432D01*
X141349000Y-87037068D01*
X141340715Y-87100000D01*
X132046120Y-87100000D01*
X132050221Y-87068853D01*
X132058207Y-87008188D01*
X132059285Y-87000000D01*
X132046186Y-86900503D01*
X132041306Y-86863432D01*
X132041305Y-86863430D01*
X132040228Y-86855246D01*
X132011625Y-86786193D01*
X131987515Y-86727986D01*
X131987514Y-86727984D01*
X131984355Y-86720358D01*
X131904006Y-86615645D01*
X131900501Y-86611077D01*
X131900500Y-86611076D01*
X131895474Y-86604526D01*
X131888924Y-86599500D01*
X131888921Y-86599497D01*
X131786196Y-86520673D01*
X131786194Y-86520672D01*
X131779643Y-86515645D01*
X131644754Y-86459772D01*
X131500000Y-86440715D01*
X131491812Y-86441793D01*
X131363432Y-86458694D01*
X131363430Y-86458695D01*
X131355246Y-86459772D01*
X131307430Y-86479578D01*
X131227986Y-86512485D01*
X131227984Y-86512486D01*
X131220358Y-86515645D01*
X131104526Y-86604526D01*
X131015645Y-86720358D01*
X131012486Y-86727984D01*
X131012485Y-86727986D01*
X130988375Y-86786193D01*
X130959772Y-86855246D01*
X130958695Y-86863430D01*
X130958694Y-86863432D01*
X130953814Y-86900503D01*
X130940715Y-87000000D01*
X122817344Y-87000000D01*
X122808781Y-86979327D01*
X122787515Y-86927986D01*
X122787514Y-86927984D01*
X122784355Y-86920358D01*
X122728541Y-86847620D01*
X122700501Y-86811077D01*
X122700500Y-86811076D01*
X122695474Y-86804526D01*
X122688924Y-86799500D01*
X122688921Y-86799497D01*
X122586196Y-86720673D01*
X122586194Y-86720672D01*
X122579643Y-86715645D01*
X122444754Y-86659772D01*
X122300000Y-86640715D01*
X122291812Y-86641793D01*
X122163432Y-86658694D01*
X122163430Y-86658695D01*
X122155246Y-86659772D01*
X122146410Y-86663432D01*
X122027986Y-86712485D01*
X122027984Y-86712486D01*
X122020358Y-86715645D01*
X121904526Y-86804526D01*
X121899503Y-86811072D01*
X121880168Y-86836270D01*
X121815645Y-86920358D01*
X121812486Y-86927984D01*
X121812485Y-86927986D01*
X121791219Y-86979327D01*
X121759772Y-87055246D01*
X121758695Y-87063430D01*
X121758694Y-87063432D01*
X121757564Y-87072014D01*
X121740715Y-87200000D01*
X121741793Y-87208188D01*
X121741793Y-87215793D01*
X121721791Y-87283914D01*
X121668135Y-87330407D01*
X121615793Y-87341793D01*
X121608188Y-87341793D01*
X121600000Y-87340715D01*
X121591812Y-87341793D01*
X121463432Y-87358694D01*
X121463430Y-87358695D01*
X121455246Y-87359772D01*
X121407430Y-87379578D01*
X121327986Y-87412485D01*
X121327984Y-87412486D01*
X121320358Y-87415645D01*
X121204526Y-87504526D01*
X121199503Y-87511072D01*
X121155461Y-87568469D01*
X121098123Y-87610336D01*
X121027252Y-87614558D01*
X120978794Y-87591727D01*
X120886196Y-87520673D01*
X120886194Y-87520672D01*
X120879643Y-87515645D01*
X120744754Y-87459772D01*
X120600000Y-87440715D01*
X120591812Y-87441793D01*
X120463432Y-87458694D01*
X120463430Y-87458695D01*
X120455246Y-87459772D01*
X120320358Y-87515645D01*
X120313812Y-87520668D01*
X120311401Y-87522060D01*
X120242405Y-87538798D01*
X120175313Y-87515577D01*
X120131992Y-87461159D01*
X120087440Y-87353602D01*
X120087440Y-87353601D01*
X120084279Y-87345971D01*
X120007018Y-87245282D01*
X120000425Y-87236690D01*
X120000424Y-87236689D01*
X119995398Y-87230139D01*
X119988848Y-87225113D01*
X119988845Y-87225110D01*
X119886120Y-87146286D01*
X119886118Y-87146285D01*
X119879567Y-87141258D01*
X119744678Y-87085385D01*
X119599924Y-87066328D01*
X119591736Y-87067406D01*
X119591733Y-87067406D01*
X119583923Y-87068434D01*
X119513774Y-87057494D01*
X119460677Y-87010365D01*
X119441488Y-86942010D01*
X119442557Y-86927066D01*
X119458207Y-86808188D01*
X119459285Y-86800000D01*
X119448842Y-86720673D01*
X119441306Y-86663432D01*
X119441305Y-86663430D01*
X119440228Y-86655246D01*
X119401990Y-86562932D01*
X119387515Y-86527986D01*
X119387514Y-86527984D01*
X119384355Y-86520358D01*
X119337039Y-86458694D01*
X119300501Y-86411077D01*
X119300500Y-86411076D01*
X119295474Y-86404526D01*
X119288924Y-86399500D01*
X119288921Y-86399497D01*
X119186196Y-86320673D01*
X119186194Y-86320672D01*
X119179643Y-86315645D01*
X119044754Y-86259772D01*
X118900000Y-86240715D01*
X118891812Y-86241793D01*
X118763432Y-86258694D01*
X118763430Y-86258695D01*
X118755246Y-86259772D01*
X118707430Y-86279578D01*
X118627986Y-86312485D01*
X118627984Y-86312486D01*
X118620358Y-86315645D01*
X118504526Y-86404526D01*
X118415645Y-86520358D01*
X118412486Y-86527984D01*
X118412485Y-86527986D01*
X118398010Y-86562932D01*
X118359772Y-86655246D01*
X118358695Y-86663430D01*
X118358694Y-86663432D01*
X118351158Y-86720673D01*
X118340715Y-86800000D01*
X115368734Y-86800000D01*
X115384355Y-86779642D01*
X115408782Y-86720672D01*
X115437069Y-86652380D01*
X115440228Y-86644754D01*
X115443399Y-86620673D01*
X115457641Y-86512485D01*
X115459285Y-86500000D01*
X115446716Y-86404526D01*
X115441306Y-86363432D01*
X115441305Y-86363430D01*
X115440228Y-86355246D01*
X115401990Y-86262932D01*
X115387515Y-86227986D01*
X115387514Y-86227984D01*
X115384355Y-86220358D01*
X115295474Y-86104526D01*
X115288924Y-86099500D01*
X115288921Y-86099497D01*
X115186196Y-86020673D01*
X115186194Y-86020672D01*
X115179643Y-86015645D01*
X115044754Y-85959772D01*
X114900000Y-85940715D01*
X114891812Y-85941793D01*
X114763432Y-85958694D01*
X114763430Y-85958695D01*
X114755246Y-85959772D01*
X114707430Y-85979578D01*
X114627986Y-86012485D01*
X114627984Y-86012486D01*
X114620358Y-86015645D01*
X114504526Y-86104526D01*
X114415645Y-86220358D01*
X114412486Y-86227984D01*
X114412485Y-86227986D01*
X114398010Y-86262932D01*
X114359772Y-86355246D01*
X114358695Y-86363430D01*
X114358694Y-86363432D01*
X114353284Y-86404526D01*
X114340715Y-86500000D01*
X103844853Y-86500000D01*
X103827873Y-86440423D01*
X103848416Y-86372464D01*
X103896177Y-86329409D01*
X104070978Y-86239381D01*
X104081024Y-86232931D01*
X104237857Y-86109738D01*
X104246506Y-86101501D01*
X104377212Y-85950877D01*
X104384147Y-85941153D01*
X104484010Y-85768533D01*
X104488984Y-85757669D01*
X104554407Y-85569273D01*
X104554648Y-85568284D01*
X104553180Y-85557992D01*
X104539615Y-85554000D01*
X101864598Y-85554000D01*
X101851067Y-85557973D01*
X101849712Y-85567399D01*
X98254500Y-85567399D01*
X98254500Y-85031716D01*
X101845352Y-85031716D01*
X101846820Y-85042008D01*
X101860385Y-85046000D01*
X104535402Y-85046000D01*
X104548933Y-85042027D01*
X104550288Y-85032601D01*
X104528806Y-84943463D01*
X104524917Y-84932168D01*
X104442371Y-84750618D01*
X104436424Y-84740276D01*
X104321032Y-84577603D01*
X104313239Y-84568575D01*
X104169169Y-84430658D01*
X104159804Y-84423262D01*
X103992259Y-84315079D01*
X103981655Y-84309583D01*
X103900421Y-84276845D01*
X103844715Y-84232830D01*
X103821648Y-84165685D01*
X103838545Y-84096729D01*
X103882625Y-84051976D01*
X103988825Y-83988165D01*
X103994677Y-83984649D01*
X103999634Y-83979961D01*
X103999637Y-83979959D01*
X104124614Y-83861773D01*
X104124616Y-83861771D01*
X104129572Y-83857084D01*
X104233928Y-83703529D01*
X104236463Y-83697192D01*
X104300342Y-83537484D01*
X104300343Y-83537479D01*
X104302876Y-83531147D01*
X104303990Y-83524420D01*
X104303991Y-83524415D01*
X104332084Y-83354718D01*
X104332084Y-83354715D01*
X104333199Y-83347981D01*
X104330719Y-83300646D01*
X104330323Y-83293096D01*
X123440729Y-83293096D01*
X123458113Y-83450553D01*
X123512553Y-83599319D01*
X123600908Y-83730805D01*
X123606527Y-83735918D01*
X123606528Y-83735919D01*
X123712460Y-83832309D01*
X123718076Y-83837419D01*
X123857293Y-83913008D01*
X124010522Y-83953207D01*
X124094477Y-83954526D01*
X124161319Y-83955576D01*
X124161322Y-83955576D01*
X124168916Y-83955695D01*
X124323332Y-83920329D01*
X124439759Y-83861773D01*
X124458072Y-83852563D01*
X124458075Y-83852561D01*
X124464855Y-83849151D01*
X124470626Y-83844222D01*
X124470629Y-83844220D01*
X124579536Y-83751204D01*
X124579536Y-83751203D01*
X124585314Y-83746269D01*
X124677755Y-83617624D01*
X124736842Y-83470641D01*
X124753340Y-83354718D01*
X124758581Y-83317891D01*
X124758581Y-83317888D01*
X124759162Y-83313807D01*
X124759307Y-83300000D01*
X124740276Y-83142733D01*
X124684280Y-82994546D01*
X124672595Y-82977544D01*
X124598855Y-82870251D01*
X124598854Y-82870249D01*
X124594553Y-82863992D01*
X124476275Y-82758611D01*
X124468889Y-82754700D01*
X124342988Y-82688039D01*
X124342989Y-82688039D01*
X124336274Y-82684484D01*
X124182633Y-82645892D01*
X124175034Y-82645852D01*
X124175033Y-82645852D01*
X124109181Y-82645507D01*
X124024221Y-82645062D01*
X124016841Y-82646834D01*
X124016839Y-82646834D01*
X123877563Y-82680271D01*
X123877560Y-82680272D01*
X123870184Y-82682043D01*
X123729414Y-82754700D01*
X123610039Y-82858838D01*
X123518950Y-82988444D01*
X123461406Y-83136037D01*
X123460414Y-83143570D01*
X123460414Y-83143571D01*
X123445239Y-83258840D01*
X123440729Y-83293096D01*
X104330323Y-83293096D01*
X104323839Y-83169389D01*
X104323482Y-83162576D01*
X104321672Y-83156004D01*
X104321671Y-83155999D01*
X104275992Y-82990165D01*
X104274179Y-82983583D01*
X104187590Y-82819352D01*
X104067755Y-82677546D01*
X104062330Y-82673398D01*
X103925685Y-82568925D01*
X103925681Y-82568923D01*
X103920264Y-82564781D01*
X103914084Y-82561899D01*
X103914082Y-82561898D01*
X103758177Y-82489198D01*
X103758174Y-82489197D01*
X103752000Y-82486318D01*
X103745352Y-82484832D01*
X103745349Y-82484831D01*
X103575849Y-82446944D01*
X103575850Y-82446944D01*
X103570812Y-82445818D01*
X103565124Y-82445500D01*
X102878615Y-82445500D01*
X102740427Y-82460512D01*
X102655189Y-82489198D01*
X102570936Y-82517552D01*
X102570934Y-82517553D01*
X102564465Y-82519730D01*
X102405323Y-82615351D01*
X102400366Y-82620039D01*
X102400363Y-82620041D01*
X102328458Y-82688039D01*
X102270428Y-82742916D01*
X102166072Y-82896471D01*
X102163539Y-82902805D01*
X102163537Y-82902808D01*
X102099658Y-83062516D01*
X102099657Y-83062521D01*
X102097124Y-83068853D01*
X102096010Y-83075580D01*
X102096009Y-83075585D01*
X102084893Y-83142733D01*
X102066801Y-83252019D01*
X102067158Y-83258836D01*
X102067158Y-83258840D01*
X102069532Y-83304134D01*
X102076518Y-83437424D01*
X102078328Y-83443996D01*
X102078329Y-83444001D01*
X102104079Y-83537484D01*
X102125821Y-83616417D01*
X102212410Y-83780648D01*
X102332245Y-83922454D01*
X102337668Y-83926601D01*
X102337670Y-83926602D01*
X102474315Y-84031075D01*
X102474319Y-84031077D01*
X102479736Y-84035219D01*
X102485919Y-84038102D01*
X102499383Y-84044381D01*
X102552667Y-84091299D01*
X102572127Y-84159577D01*
X102551584Y-84227536D01*
X102503823Y-84270591D01*
X102329022Y-84360619D01*
X102318976Y-84367069D01*
X102162143Y-84490262D01*
X102153494Y-84498499D01*
X102022788Y-84649123D01*
X102015853Y-84658847D01*
X101915990Y-84831467D01*
X101911016Y-84842331D01*
X101845593Y-85030727D01*
X101845352Y-85031716D01*
X98254500Y-85031716D01*
X98254500Y-81697756D01*
X102070500Y-81697756D01*
X102077202Y-81759448D01*
X102127929Y-81894764D01*
X102133309Y-81901943D01*
X102133311Y-81901946D01*
X102199287Y-81989977D01*
X102214596Y-82010404D01*
X102221776Y-82015785D01*
X102323054Y-82091689D01*
X102323057Y-82091691D01*
X102330236Y-82097071D01*
X102419954Y-82130704D01*
X102458157Y-82145026D01*
X102458159Y-82145026D01*
X102465552Y-82147798D01*
X102473402Y-82148651D01*
X102473403Y-82148651D01*
X102523847Y-82154131D01*
X102527244Y-82154500D01*
X103872756Y-82154500D01*
X103876153Y-82154131D01*
X103926597Y-82148651D01*
X103926598Y-82148651D01*
X103934448Y-82147798D01*
X103941841Y-82145026D01*
X103941843Y-82145026D01*
X103980046Y-82130704D01*
X104069764Y-82097071D01*
X104076943Y-82091691D01*
X104076946Y-82091689D01*
X104178224Y-82015785D01*
X104185404Y-82010404D01*
X104200713Y-81989977D01*
X104266689Y-81901946D01*
X104266691Y-81901943D01*
X104272071Y-81894764D01*
X104322798Y-81759448D01*
X104329500Y-81697756D01*
X104329500Y-80902244D01*
X104322798Y-80840552D01*
X104272071Y-80705236D01*
X104266691Y-80698057D01*
X104266689Y-80698054D01*
X104190785Y-80596776D01*
X104185404Y-80589596D01*
X104164977Y-80574287D01*
X104076946Y-80508311D01*
X104076943Y-80508309D01*
X104069764Y-80502929D01*
X103980046Y-80469296D01*
X103941843Y-80454974D01*
X103941841Y-80454974D01*
X103934448Y-80452202D01*
X103926598Y-80451349D01*
X103926597Y-80451349D01*
X103876153Y-80445869D01*
X103876152Y-80445869D01*
X103872756Y-80445500D01*
X102527244Y-80445500D01*
X102523848Y-80445869D01*
X102523847Y-80445869D01*
X102473403Y-80451349D01*
X102473402Y-80451349D01*
X102465552Y-80452202D01*
X102458159Y-80454974D01*
X102458157Y-80454974D01*
X102419954Y-80469296D01*
X102330236Y-80502929D01*
X102323057Y-80508309D01*
X102323054Y-80508311D01*
X102235023Y-80574287D01*
X102214596Y-80589596D01*
X102209215Y-80596776D01*
X102133311Y-80698054D01*
X102133309Y-80698057D01*
X102127929Y-80705236D01*
X102077202Y-80840552D01*
X102070500Y-80902244D01*
X102070500Y-81697756D01*
X98254500Y-81697756D01*
X98254500Y-78085768D01*
X99677425Y-78085768D01*
X99709138Y-78193521D01*
X99713731Y-78204889D01*
X99799607Y-78369154D01*
X99806321Y-78379415D01*
X99922468Y-78523873D01*
X99931046Y-78532632D01*
X100073039Y-78651778D01*
X100083159Y-78658708D01*
X100245585Y-78748002D01*
X100256858Y-78752834D01*
X100433538Y-78808880D01*
X100445532Y-78811430D01*
X100589761Y-78827607D01*
X100596785Y-78828000D01*
X100677885Y-78828000D01*
X100693124Y-78823525D01*
X100694329Y-78822135D01*
X100696000Y-78814452D01*
X100696000Y-78809885D01*
X101204000Y-78809885D01*
X101208475Y-78825124D01*
X101209865Y-78826329D01*
X101217548Y-78828000D01*
X101296657Y-78828000D01*
X101302805Y-78827699D01*
X101440603Y-78814188D01*
X101452638Y-78811805D01*
X101630076Y-78758233D01*
X101641416Y-78753559D01*
X101805077Y-78666540D01*
X101815294Y-78659751D01*
X101958933Y-78542603D01*
X101967637Y-78533959D01*
X102085784Y-78391144D01*
X102092644Y-78380973D01*
X102180804Y-78217924D01*
X102185556Y-78206619D01*
X102221250Y-78091308D01*
X102221331Y-78085768D01*
X103607425Y-78085768D01*
X103639138Y-78193521D01*
X103643731Y-78204889D01*
X103729607Y-78369154D01*
X103736321Y-78379415D01*
X103852468Y-78523873D01*
X103861046Y-78532632D01*
X104003039Y-78651778D01*
X104013159Y-78658708D01*
X104175585Y-78748002D01*
X104186858Y-78752834D01*
X104363538Y-78808880D01*
X104375532Y-78811430D01*
X104519761Y-78827607D01*
X104526785Y-78828000D01*
X104857885Y-78828000D01*
X104873124Y-78823525D01*
X104874329Y-78822135D01*
X104876000Y-78814452D01*
X104876000Y-78809885D01*
X105384000Y-78809885D01*
X105388475Y-78825124D01*
X105389865Y-78826329D01*
X105397548Y-78828000D01*
X105726657Y-78828000D01*
X105732805Y-78827699D01*
X105870603Y-78814188D01*
X105882638Y-78811805D01*
X106060076Y-78758233D01*
X106071416Y-78753559D01*
X106235077Y-78666540D01*
X106245294Y-78659751D01*
X106388933Y-78542603D01*
X106397637Y-78533959D01*
X106515784Y-78391144D01*
X106522644Y-78380973D01*
X106610804Y-78217924D01*
X106615556Y-78206619D01*
X106651250Y-78091308D01*
X106651456Y-78077205D01*
X106644701Y-78074000D01*
X105402115Y-78074000D01*
X105386876Y-78078475D01*
X105385671Y-78079865D01*
X105384000Y-78087548D01*
X105384000Y-78809885D01*
X104876000Y-78809885D01*
X104876000Y-78092115D01*
X104871525Y-78076876D01*
X104870135Y-78075671D01*
X104862452Y-78074000D01*
X103622076Y-78074000D01*
X103608545Y-78077973D01*
X103607425Y-78085768D01*
X102221331Y-78085768D01*
X102221456Y-78077205D01*
X102214701Y-78074000D01*
X101222115Y-78074000D01*
X101206876Y-78078475D01*
X101205671Y-78079865D01*
X101204000Y-78087548D01*
X101204000Y-78809885D01*
X100696000Y-78809885D01*
X100696000Y-78092115D01*
X100691525Y-78076876D01*
X100690135Y-78075671D01*
X100682452Y-78074000D01*
X99692076Y-78074000D01*
X99678545Y-78077973D01*
X99677425Y-78085768D01*
X98254500Y-78085768D01*
X98254500Y-77562795D01*
X99678544Y-77562795D01*
X99685299Y-77566000D01*
X100677885Y-77566000D01*
X100693124Y-77561525D01*
X100694329Y-77560135D01*
X100696000Y-77552452D01*
X100696000Y-77547885D01*
X101204000Y-77547885D01*
X101208475Y-77563124D01*
X101209865Y-77564329D01*
X101217548Y-77566000D01*
X102207924Y-77566000D01*
X102218839Y-77562795D01*
X103608544Y-77562795D01*
X103615299Y-77566000D01*
X106637924Y-77566000D01*
X106651455Y-77562027D01*
X106652575Y-77554232D01*
X106620862Y-77446479D01*
X106616269Y-77435111D01*
X106530393Y-77270846D01*
X106523679Y-77260585D01*
X106407532Y-77116127D01*
X106398954Y-77107368D01*
X106256961Y-76988222D01*
X106246841Y-76981292D01*
X106084415Y-76891998D01*
X106073142Y-76887166D01*
X105896462Y-76831120D01*
X105884468Y-76828570D01*
X105740239Y-76812393D01*
X105733215Y-76812000D01*
X105241020Y-76812000D01*
X105172899Y-76791998D01*
X105126406Y-76738342D01*
X105116302Y-76668068D01*
X105124610Y-76637786D01*
X105164584Y-76541280D01*
X105184500Y-76390000D01*
X105164584Y-76238720D01*
X105106192Y-76097750D01*
X105101164Y-76091197D01*
X105101162Y-76091194D01*
X105017274Y-75981869D01*
X104991673Y-75915649D01*
X105005938Y-75846100D01*
X105050953Y-75800000D01*
X107940715Y-75800000D01*
X107959772Y-75944754D01*
X108015645Y-76079642D01*
X108104526Y-76195474D01*
X108111076Y-76200500D01*
X108111079Y-76200503D01*
X108213804Y-76279327D01*
X108220357Y-76284355D01*
X108355246Y-76340228D01*
X108500000Y-76359285D01*
X108508188Y-76358207D01*
X108636566Y-76341306D01*
X108644754Y-76340228D01*
X108779643Y-76284355D01*
X108786196Y-76279327D01*
X108888921Y-76200503D01*
X108888924Y-76200500D01*
X108895474Y-76195474D01*
X108984355Y-76079642D01*
X109040228Y-75944754D01*
X109059285Y-75800000D01*
X109044662Y-75688923D01*
X109041306Y-75663432D01*
X109041305Y-75663430D01*
X109040228Y-75655246D01*
X109017344Y-75600000D01*
X115340715Y-75600000D01*
X115359772Y-75744754D01*
X115362931Y-75752380D01*
X115393184Y-75825416D01*
X115415645Y-75879642D01*
X115420672Y-75886193D01*
X115494087Y-75981869D01*
X115504526Y-75995474D01*
X115511076Y-76000500D01*
X115511079Y-76000503D01*
X115604274Y-76072014D01*
X115620357Y-76084355D01*
X115755246Y-76140228D01*
X115900000Y-76159285D01*
X115908188Y-76158207D01*
X116036566Y-76141306D01*
X116044754Y-76140228D01*
X116179643Y-76084355D01*
X116195726Y-76072014D01*
X116288921Y-76000503D01*
X116288924Y-76000500D01*
X116295474Y-75995474D01*
X116305914Y-75981869D01*
X116379328Y-75886193D01*
X116384355Y-75879642D01*
X116406817Y-75825416D01*
X116437069Y-75752380D01*
X116440228Y-75744754D01*
X116459285Y-75600000D01*
X116440228Y-75455246D01*
X116384355Y-75320358D01*
X116295474Y-75204526D01*
X116288924Y-75199500D01*
X116288921Y-75199497D01*
X116186196Y-75120673D01*
X116186194Y-75120672D01*
X116179643Y-75115645D01*
X116044754Y-75059772D01*
X115900000Y-75040715D01*
X115891812Y-75041793D01*
X115763432Y-75058694D01*
X115763430Y-75058695D01*
X115755246Y-75059772D01*
X115707430Y-75079578D01*
X115627986Y-75112485D01*
X115627984Y-75112486D01*
X115620358Y-75115645D01*
X115504526Y-75204526D01*
X115415645Y-75320358D01*
X115359772Y-75455246D01*
X115340715Y-75600000D01*
X109017344Y-75600000D01*
X109011625Y-75586193D01*
X108987515Y-75527986D01*
X108987514Y-75527984D01*
X108984355Y-75520358D01*
X108895474Y-75404526D01*
X108888924Y-75399500D01*
X108888921Y-75399497D01*
X108786196Y-75320673D01*
X108786194Y-75320672D01*
X108779643Y-75315645D01*
X108644754Y-75259772D01*
X108500000Y-75240715D01*
X108491812Y-75241793D01*
X108363432Y-75258694D01*
X108363430Y-75258695D01*
X108355246Y-75259772D01*
X108307430Y-75279578D01*
X108227986Y-75312485D01*
X108227984Y-75312486D01*
X108220358Y-75315645D01*
X108104526Y-75404526D01*
X108015645Y-75520358D01*
X108012486Y-75527984D01*
X108012485Y-75527986D01*
X107988375Y-75586193D01*
X107959772Y-75655246D01*
X107958695Y-75663430D01*
X107958694Y-75663432D01*
X107955338Y-75688923D01*
X107940715Y-75800000D01*
X105050953Y-75800000D01*
X105055539Y-75795304D01*
X105069018Y-75788756D01*
X105079643Y-75784355D01*
X105086196Y-75779327D01*
X105188921Y-75700503D01*
X105188924Y-75700500D01*
X105195474Y-75695474D01*
X105284355Y-75579642D01*
X105308912Y-75520358D01*
X105337069Y-75452380D01*
X105340228Y-75444754D01*
X105344663Y-75411072D01*
X105358207Y-75308188D01*
X105359285Y-75300000D01*
X105346716Y-75204526D01*
X105341306Y-75163432D01*
X105341305Y-75163430D01*
X105340228Y-75155246D01*
X105301990Y-75062932D01*
X105287515Y-75027986D01*
X105287514Y-75027984D01*
X105284355Y-75020358D01*
X105195474Y-74904526D01*
X105188924Y-74899500D01*
X105188921Y-74899497D01*
X105086196Y-74820673D01*
X105086194Y-74820672D01*
X105079643Y-74815645D01*
X104944754Y-74759772D01*
X104800000Y-74740715D01*
X104791812Y-74741793D01*
X104663432Y-74758694D01*
X104663430Y-74758695D01*
X104655246Y-74759772D01*
X104607430Y-74779578D01*
X104527986Y-74812485D01*
X104527984Y-74812486D01*
X104520358Y-74815645D01*
X104404526Y-74904526D01*
X104315645Y-75020358D01*
X104312486Y-75027984D01*
X104312485Y-75027986D01*
X104298010Y-75062932D01*
X104259772Y-75155246D01*
X104258695Y-75163430D01*
X104258694Y-75163432D01*
X104253284Y-75204526D01*
X104240715Y-75300000D01*
X104241793Y-75308188D01*
X104255338Y-75411072D01*
X104259772Y-75444754D01*
X104262931Y-75452380D01*
X104291089Y-75520358D01*
X104315645Y-75579642D01*
X104320672Y-75586193D01*
X104320675Y-75586198D01*
X104390882Y-75677694D01*
X104416483Y-75743914D01*
X104402218Y-75813463D01*
X104352617Y-75864259D01*
X104339137Y-75870807D01*
X104315382Y-75880646D01*
X104315378Y-75880648D01*
X104307750Y-75883808D01*
X104186696Y-75976696D01*
X104093808Y-76097750D01*
X104035416Y-76238720D01*
X104015500Y-76390000D01*
X104035416Y-76541280D01*
X104093808Y-76682250D01*
X104098836Y-76688803D01*
X104098838Y-76688806D01*
X104141943Y-76744982D01*
X104167544Y-76811202D01*
X104153279Y-76880751D01*
X104101134Y-76932937D01*
X104024931Y-76973455D01*
X104014706Y-76980249D01*
X103871067Y-77097397D01*
X103862363Y-77106041D01*
X103744216Y-77248856D01*
X103737356Y-77259027D01*
X103649196Y-77422076D01*
X103644444Y-77433381D01*
X103608750Y-77548692D01*
X103608544Y-77562795D01*
X102218839Y-77562795D01*
X102221455Y-77562027D01*
X102222575Y-77554232D01*
X102190862Y-77446479D01*
X102186269Y-77435111D01*
X102100393Y-77270846D01*
X102093679Y-77260585D01*
X101977532Y-77116127D01*
X101968954Y-77107368D01*
X101826961Y-76988222D01*
X101816841Y-76981292D01*
X101654415Y-76891998D01*
X101643142Y-76887166D01*
X101466462Y-76831120D01*
X101454468Y-76828570D01*
X101310239Y-76812393D01*
X101303215Y-76812000D01*
X101222115Y-76812000D01*
X101206876Y-76816475D01*
X101205671Y-76817865D01*
X101204000Y-76825548D01*
X101204000Y-77547885D01*
X100696000Y-77547885D01*
X100696000Y-76830115D01*
X100691525Y-76814876D01*
X100690135Y-76813671D01*
X100682452Y-76812000D01*
X100603343Y-76812000D01*
X100597195Y-76812301D01*
X100459397Y-76825812D01*
X100447362Y-76828195D01*
X100269924Y-76881767D01*
X100258584Y-76886441D01*
X100094923Y-76973460D01*
X100084706Y-76980249D01*
X99941067Y-77097397D01*
X99932363Y-77106041D01*
X99814216Y-77248856D01*
X99807356Y-77259027D01*
X99719196Y-77422076D01*
X99714444Y-77433381D01*
X99678750Y-77548692D01*
X99678544Y-77562795D01*
X98254500Y-77562795D01*
X98254500Y-73400000D01*
X115940715Y-73400000D01*
X115959772Y-73544754D01*
X115962931Y-73552380D01*
X115994350Y-73628231D01*
X116015645Y-73679642D01*
X116104526Y-73795474D01*
X116111076Y-73800500D01*
X116111079Y-73800503D01*
X116203828Y-73871672D01*
X116220357Y-73884355D01*
X116355246Y-73940228D01*
X116500000Y-73959285D01*
X116508188Y-73958207D01*
X116636566Y-73941306D01*
X116644754Y-73940228D01*
X116779643Y-73884355D01*
X116796172Y-73871672D01*
X116888921Y-73800503D01*
X116888924Y-73800500D01*
X116895474Y-73795474D01*
X116984355Y-73679642D01*
X117005651Y-73628231D01*
X117037069Y-73552380D01*
X117040228Y-73544754D01*
X117059285Y-73400000D01*
X117040228Y-73255246D01*
X117015131Y-73194658D01*
X116987515Y-73127986D01*
X116987514Y-73127984D01*
X116984355Y-73120358D01*
X116895474Y-73004526D01*
X116888924Y-72999500D01*
X116888921Y-72999497D01*
X116786196Y-72920673D01*
X116786194Y-72920672D01*
X116779643Y-72915645D01*
X116644754Y-72859772D01*
X116500000Y-72840715D01*
X116491812Y-72841793D01*
X116363432Y-72858694D01*
X116363430Y-72858695D01*
X116355246Y-72859772D01*
X116307430Y-72879578D01*
X116227986Y-72912485D01*
X116227984Y-72912486D01*
X116220358Y-72915645D01*
X116104526Y-73004526D01*
X116015645Y-73120358D01*
X116012486Y-73127984D01*
X116012485Y-73127986D01*
X115984869Y-73194658D01*
X115959772Y-73255246D01*
X115940715Y-73400000D01*
X98254500Y-73400000D01*
X98254500Y-72499933D01*
X118095500Y-72499933D01*
X118095501Y-74250066D01*
X118110266Y-74324301D01*
X118117161Y-74334620D01*
X118117162Y-74334622D01*
X118157516Y-74395015D01*
X118166516Y-74408484D01*
X118250699Y-74464734D01*
X118324933Y-74479500D01*
X119199858Y-74479500D01*
X120075066Y-74479499D01*
X120110818Y-74472388D01*
X120137126Y-74467156D01*
X120137128Y-74467155D01*
X120149301Y-74464734D01*
X120159621Y-74457839D01*
X120159622Y-74457838D01*
X120223168Y-74415377D01*
X120233484Y-74408484D01*
X120289734Y-74324301D01*
X120304500Y-74250067D01*
X120304500Y-74078428D01*
X120324502Y-74010307D01*
X120378158Y-73963814D01*
X120448432Y-73953710D01*
X120513012Y-73983204D01*
X120537933Y-74012593D01*
X120637694Y-74175388D01*
X120643777Y-74183699D01*
X120783213Y-74344667D01*
X120790580Y-74351883D01*
X120954434Y-74487916D01*
X120962881Y-74493831D01*
X121146756Y-74601279D01*
X121156042Y-74605729D01*
X121355001Y-74681703D01*
X121364899Y-74684579D01*
X121468250Y-74705606D01*
X121482299Y-74704410D01*
X121486000Y-74694065D01*
X121486000Y-73247000D01*
X121506002Y-73178879D01*
X121559658Y-73132386D01*
X121612000Y-73121000D01*
X121868000Y-73121000D01*
X121936121Y-73141002D01*
X121982614Y-73194658D01*
X121994000Y-73247000D01*
X121994000Y-74693517D01*
X121998064Y-74707359D01*
X122011478Y-74709393D01*
X122018184Y-74708534D01*
X122028262Y-74706392D01*
X122232255Y-74645191D01*
X122241842Y-74641433D01*
X122433095Y-74547739D01*
X122441945Y-74542464D01*
X122615328Y-74418792D01*
X122623200Y-74412139D01*
X122774052Y-74261812D01*
X122780730Y-74253965D01*
X122905003Y-74081020D01*
X122910313Y-74072183D01*
X123004670Y-73881267D01*
X123008469Y-73871672D01*
X123025066Y-73817047D01*
X123064007Y-73757683D01*
X123128862Y-73728796D01*
X123199038Y-73739558D01*
X123252256Y-73786551D01*
X123260048Y-73800922D01*
X123319377Y-73929616D01*
X123436533Y-74095389D01*
X123581938Y-74237035D01*
X123750720Y-74349812D01*
X123756023Y-74352090D01*
X123756026Y-74352092D01*
X123931921Y-74427662D01*
X123937228Y-74429942D01*
X124010244Y-74446464D01*
X124129579Y-74473467D01*
X124129584Y-74473468D01*
X124135216Y-74474742D01*
X124140987Y-74474969D01*
X124140989Y-74474969D01*
X124200756Y-74477317D01*
X124338053Y-74482712D01*
X124445348Y-74467155D01*
X124533231Y-74454413D01*
X124533236Y-74454412D01*
X124538945Y-74453584D01*
X124544409Y-74451729D01*
X124544414Y-74451728D01*
X124725693Y-74390192D01*
X124725698Y-74390190D01*
X124731165Y-74388334D01*
X124908276Y-74289147D01*
X124947969Y-74256135D01*
X125035696Y-74183172D01*
X125064345Y-74159345D01*
X125129488Y-74081020D01*
X125190453Y-74007718D01*
X125190455Y-74007715D01*
X125194147Y-74003276D01*
X125293334Y-73826165D01*
X125295190Y-73820698D01*
X125295192Y-73820693D01*
X125356728Y-73639414D01*
X125356729Y-73639409D01*
X125358584Y-73633945D01*
X125359412Y-73628236D01*
X125359413Y-73628231D01*
X125387179Y-73436727D01*
X125387712Y-73433053D01*
X125389232Y-73375000D01*
X125386564Y-73345964D01*
X125711148Y-73345964D01*
X125711526Y-73351730D01*
X125723641Y-73536568D01*
X125724424Y-73548522D01*
X125725845Y-73554118D01*
X125725846Y-73554123D01*
X125759388Y-73686193D01*
X125774392Y-73745269D01*
X125776809Y-73750512D01*
X125814010Y-73831208D01*
X125859377Y-73929616D01*
X125976533Y-74095389D01*
X126121938Y-74237035D01*
X126290720Y-74349812D01*
X126296023Y-74352090D01*
X126296026Y-74352092D01*
X126471921Y-74427662D01*
X126477228Y-74429942D01*
X126550244Y-74446464D01*
X126669579Y-74473467D01*
X126669584Y-74473468D01*
X126675216Y-74474742D01*
X126680987Y-74474969D01*
X126680989Y-74474969D01*
X126740756Y-74477317D01*
X126878053Y-74482712D01*
X126985348Y-74467155D01*
X127073231Y-74454413D01*
X127073236Y-74454412D01*
X127078945Y-74453584D01*
X127084409Y-74451729D01*
X127084414Y-74451728D01*
X127265693Y-74390192D01*
X127265698Y-74390190D01*
X127271165Y-74388334D01*
X127448276Y-74289147D01*
X127487969Y-74256135D01*
X127575696Y-74183172D01*
X127604345Y-74159345D01*
X127669488Y-74081020D01*
X127730453Y-74007718D01*
X127730455Y-74007715D01*
X127734147Y-74003276D01*
X127833334Y-73826165D01*
X127835190Y-73820698D01*
X127835192Y-73820693D01*
X127896728Y-73639414D01*
X127896729Y-73639409D01*
X127898584Y-73633945D01*
X127899412Y-73628236D01*
X127899413Y-73628231D01*
X127927179Y-73436727D01*
X127927712Y-73433053D01*
X127929232Y-73375000D01*
X127910658Y-73172859D01*
X127909090Y-73167299D01*
X127857125Y-72983046D01*
X127857124Y-72983044D01*
X127855557Y-72977487D01*
X127844978Y-72956033D01*
X127768331Y-72800609D01*
X127765776Y-72795428D01*
X127751897Y-72776841D01*
X127692761Y-72697649D01*
X127644320Y-72632779D01*
X127495258Y-72494987D01*
X127490375Y-72491906D01*
X127490371Y-72491903D01*
X127328464Y-72389748D01*
X127323581Y-72386667D01*
X127135039Y-72311446D01*
X127129379Y-72310320D01*
X127129375Y-72310319D01*
X126941613Y-72272971D01*
X126941610Y-72272971D01*
X126935946Y-72271844D01*
X126930171Y-72271768D01*
X126930167Y-72271768D01*
X126828793Y-72270441D01*
X126732971Y-72269187D01*
X126727274Y-72270166D01*
X126727273Y-72270166D01*
X126639397Y-72285266D01*
X126532910Y-72303564D01*
X126342463Y-72373824D01*
X126168010Y-72477612D01*
X126163670Y-72481418D01*
X126163666Y-72481421D01*
X126019733Y-72607648D01*
X126015392Y-72611455D01*
X125889720Y-72770869D01*
X125887031Y-72775980D01*
X125887029Y-72775983D01*
X125875833Y-72797264D01*
X125795203Y-72950515D01*
X125735007Y-73144378D01*
X125711148Y-73345964D01*
X125386564Y-73345964D01*
X125370658Y-73172859D01*
X125369090Y-73167299D01*
X125317125Y-72983046D01*
X125317124Y-72983044D01*
X125315557Y-72977487D01*
X125304978Y-72956033D01*
X125228331Y-72800609D01*
X125225776Y-72795428D01*
X125211897Y-72776841D01*
X125152761Y-72697649D01*
X125104320Y-72632779D01*
X124955258Y-72494987D01*
X124950375Y-72491906D01*
X124950371Y-72491903D01*
X124788464Y-72389748D01*
X124783581Y-72386667D01*
X124595039Y-72311446D01*
X124589379Y-72310320D01*
X124589375Y-72310319D01*
X124401613Y-72272971D01*
X124401610Y-72272971D01*
X124395946Y-72271844D01*
X124390171Y-72271768D01*
X124390167Y-72271768D01*
X124288793Y-72270441D01*
X124192971Y-72269187D01*
X124187274Y-72270166D01*
X124187273Y-72270166D01*
X124099397Y-72285266D01*
X123992910Y-72303564D01*
X123802463Y-72373824D01*
X123628010Y-72477612D01*
X123623670Y-72481418D01*
X123623666Y-72481421D01*
X123479733Y-72607648D01*
X123475392Y-72611455D01*
X123349720Y-72770869D01*
X123347031Y-72775980D01*
X123347029Y-72775983D01*
X123257589Y-72945980D01*
X123208170Y-72996952D01*
X123139037Y-73013115D01*
X123072141Y-72989336D01*
X123032003Y-72934973D01*
X123029955Y-72935863D01*
X122942972Y-72735814D01*
X122938105Y-72726739D01*
X122822426Y-72547926D01*
X122816136Y-72539757D01*
X122672806Y-72382240D01*
X122665273Y-72375215D01*
X122498139Y-72243222D01*
X122489552Y-72237517D01*
X122303117Y-72134599D01*
X122293705Y-72130369D01*
X122179391Y-72089888D01*
X122121855Y-72048294D01*
X122095939Y-71982196D01*
X122109873Y-71912580D01*
X122159232Y-71861549D01*
X122180943Y-71851804D01*
X122191165Y-71848334D01*
X122199276Y-71843792D01*
X122331635Y-71769667D01*
X122368276Y-71749147D01*
X122382728Y-71737128D01*
X122519913Y-71623031D01*
X122524345Y-71619345D01*
X122654147Y-71463276D01*
X122753334Y-71286165D01*
X122755190Y-71280698D01*
X122755192Y-71280693D01*
X122816728Y-71099414D01*
X122816729Y-71099409D01*
X122818584Y-71093945D01*
X122819412Y-71088236D01*
X122819413Y-71088231D01*
X122836991Y-70966996D01*
X122847712Y-70893053D01*
X122849232Y-70835000D01*
X122846564Y-70805964D01*
X123171148Y-70805964D01*
X123184424Y-71008522D01*
X123185845Y-71014118D01*
X123185846Y-71014123D01*
X123225796Y-71171424D01*
X123234392Y-71205269D01*
X123236809Y-71210512D01*
X123274010Y-71291208D01*
X123319377Y-71389616D01*
X123436533Y-71555389D01*
X123581938Y-71697035D01*
X123750720Y-71809812D01*
X123756023Y-71812090D01*
X123756026Y-71812092D01*
X123871141Y-71861549D01*
X123937228Y-71889942D01*
X123996231Y-71903293D01*
X124129579Y-71933467D01*
X124129584Y-71933468D01*
X124135216Y-71934742D01*
X124140987Y-71934969D01*
X124140989Y-71934969D01*
X124200756Y-71937317D01*
X124338053Y-71942712D01*
X124438499Y-71928148D01*
X124533231Y-71914413D01*
X124533236Y-71914412D01*
X124538945Y-71913584D01*
X124544409Y-71911729D01*
X124544414Y-71911728D01*
X124725693Y-71850192D01*
X124725698Y-71850190D01*
X124731165Y-71848334D01*
X124739276Y-71843792D01*
X124871635Y-71769667D01*
X124908276Y-71749147D01*
X124922728Y-71737128D01*
X125059913Y-71623031D01*
X125064345Y-71619345D01*
X125194147Y-71463276D01*
X125293334Y-71286165D01*
X125295190Y-71280698D01*
X125295192Y-71280693D01*
X125356728Y-71099414D01*
X125356729Y-71099409D01*
X125358584Y-71093945D01*
X125359412Y-71088236D01*
X125359413Y-71088231D01*
X125376991Y-70966996D01*
X125387712Y-70893053D01*
X125389232Y-70835000D01*
X125386564Y-70805964D01*
X125711148Y-70805964D01*
X125724424Y-71008522D01*
X125725845Y-71014118D01*
X125725846Y-71014123D01*
X125765796Y-71171424D01*
X125774392Y-71205269D01*
X125776809Y-71210512D01*
X125814010Y-71291208D01*
X125859377Y-71389616D01*
X125976533Y-71555389D01*
X126121938Y-71697035D01*
X126290720Y-71809812D01*
X126296023Y-71812090D01*
X126296026Y-71812092D01*
X126411141Y-71861549D01*
X126477228Y-71889942D01*
X126536231Y-71903293D01*
X126669579Y-71933467D01*
X126669584Y-71933468D01*
X126675216Y-71934742D01*
X126680987Y-71934969D01*
X126680989Y-71934969D01*
X126740756Y-71937317D01*
X126878053Y-71942712D01*
X126978499Y-71928148D01*
X127073231Y-71914413D01*
X127073236Y-71914412D01*
X127078945Y-71913584D01*
X127084409Y-71911729D01*
X127084414Y-71911728D01*
X127265693Y-71850192D01*
X127265698Y-71850190D01*
X127271165Y-71848334D01*
X127279276Y-71843792D01*
X127411635Y-71769667D01*
X127448276Y-71749147D01*
X127462728Y-71737128D01*
X127599913Y-71623031D01*
X127604345Y-71619345D01*
X127734147Y-71463276D01*
X127833334Y-71286165D01*
X127835190Y-71280698D01*
X127835192Y-71280693D01*
X127896728Y-71099414D01*
X127896729Y-71099409D01*
X127898584Y-71093945D01*
X127899412Y-71088236D01*
X127899413Y-71088231D01*
X127902351Y-71067966D01*
X141328257Y-71067966D01*
X141358565Y-71202446D01*
X141361645Y-71212275D01*
X141441770Y-71409603D01*
X141446413Y-71418794D01*
X141557694Y-71600388D01*
X141563777Y-71608699D01*
X141703213Y-71769667D01*
X141710580Y-71776883D01*
X141874434Y-71912916D01*
X141882881Y-71918831D01*
X142066756Y-72026279D01*
X142076042Y-72030729D01*
X142275001Y-72106703D01*
X142284899Y-72109579D01*
X142388250Y-72130606D01*
X142402299Y-72129410D01*
X142406000Y-72119065D01*
X142406000Y-72118517D01*
X142914000Y-72118517D01*
X142918064Y-72132359D01*
X142931478Y-72134393D01*
X142938184Y-72133534D01*
X142948262Y-72131392D01*
X143152255Y-72070191D01*
X143161842Y-72066433D01*
X143353095Y-71972739D01*
X143361945Y-71967464D01*
X143535328Y-71843792D01*
X143543200Y-71837139D01*
X143694052Y-71686812D01*
X143700730Y-71678965D01*
X143825003Y-71506020D01*
X143830310Y-71497188D01*
X143856544Y-71444109D01*
X143904658Y-71391903D01*
X143973360Y-71373996D01*
X144040836Y-71396075D01*
X144085664Y-71451129D01*
X144095501Y-71499937D01*
X144095501Y-71675066D01*
X144110266Y-71749301D01*
X144166516Y-71833484D01*
X144250699Y-71889734D01*
X144324933Y-71904500D01*
X145199858Y-71904500D01*
X146075066Y-71904499D01*
X146110818Y-71897388D01*
X146137126Y-71892156D01*
X146137128Y-71892155D01*
X146149301Y-71889734D01*
X146159621Y-71882839D01*
X146159622Y-71882838D01*
X146223168Y-71840377D01*
X146233484Y-71833484D01*
X146289734Y-71749301D01*
X146304500Y-71675067D01*
X146304499Y-69924934D01*
X146289734Y-69850699D01*
X146278459Y-69833824D01*
X146240377Y-69776832D01*
X146233484Y-69766516D01*
X146149301Y-69710266D01*
X146075067Y-69695500D01*
X145200142Y-69695500D01*
X144324934Y-69695501D01*
X144289182Y-69702612D01*
X144262874Y-69707844D01*
X144262872Y-69707845D01*
X144250699Y-69710266D01*
X144240379Y-69717161D01*
X144240378Y-69717162D01*
X144179985Y-69757516D01*
X144166516Y-69766516D01*
X144110266Y-69850699D01*
X144095500Y-69924933D01*
X144095500Y-70092852D01*
X144075498Y-70160973D01*
X144021842Y-70207466D01*
X143951568Y-70217570D01*
X143886988Y-70188076D01*
X143861235Y-70155868D01*
X143860912Y-70156077D01*
X143858836Y-70152868D01*
X143858453Y-70152389D01*
X143858099Y-70151729D01*
X143742426Y-69972926D01*
X143736136Y-69964757D01*
X143592806Y-69807240D01*
X143585273Y-69800215D01*
X143418139Y-69668222D01*
X143409552Y-69662517D01*
X143223117Y-69559599D01*
X143213705Y-69555369D01*
X143012959Y-69484280D01*
X143002988Y-69481646D01*
X142931837Y-69468972D01*
X142918540Y-69470432D01*
X142914000Y-69484989D01*
X142914000Y-72118517D01*
X142406000Y-72118517D01*
X142406000Y-71072115D01*
X142401525Y-71056876D01*
X142400135Y-71055671D01*
X142392452Y-71054000D01*
X141343225Y-71054000D01*
X141329694Y-71057973D01*
X141328257Y-71067966D01*
X127902351Y-71067966D01*
X127916991Y-70966996D01*
X127927712Y-70893053D01*
X127929232Y-70835000D01*
X127910658Y-70632859D01*
X127906520Y-70618188D01*
X127882828Y-70534183D01*
X141324389Y-70534183D01*
X141325912Y-70542607D01*
X141338292Y-70546000D01*
X142387885Y-70546000D01*
X142403124Y-70541525D01*
X142404329Y-70540135D01*
X142406000Y-70532452D01*
X142406000Y-69483102D01*
X142402082Y-69469758D01*
X142387806Y-69467771D01*
X142349324Y-69473660D01*
X142339288Y-69476051D01*
X142136868Y-69542212D01*
X142127359Y-69546209D01*
X141938463Y-69644542D01*
X141929738Y-69650036D01*
X141759433Y-69777905D01*
X141751726Y-69784748D01*
X141604590Y-69938717D01*
X141598104Y-69946727D01*
X141478098Y-70122649D01*
X141473000Y-70131623D01*
X141383338Y-70324783D01*
X141379775Y-70334470D01*
X141324389Y-70534183D01*
X127882828Y-70534183D01*
X127857125Y-70443046D01*
X127857124Y-70443044D01*
X127855557Y-70437487D01*
X127844978Y-70416033D01*
X127768331Y-70260609D01*
X127765776Y-70255428D01*
X127644320Y-70092779D01*
X127495258Y-69954987D01*
X127490375Y-69951906D01*
X127490371Y-69951903D01*
X127328464Y-69849748D01*
X127323581Y-69846667D01*
X127135039Y-69771446D01*
X127129379Y-69770320D01*
X127129375Y-69770319D01*
X126941613Y-69732971D01*
X126941610Y-69732971D01*
X126935946Y-69731844D01*
X126930171Y-69731768D01*
X126930167Y-69731768D01*
X126828793Y-69730441D01*
X126732971Y-69729187D01*
X126727274Y-69730166D01*
X126727273Y-69730166D01*
X126555845Y-69759623D01*
X126532910Y-69763564D01*
X126342463Y-69833824D01*
X126168010Y-69937612D01*
X126163670Y-69941418D01*
X126163666Y-69941421D01*
X126062092Y-70030500D01*
X126015392Y-70071455D01*
X125889720Y-70230869D01*
X125887031Y-70235980D01*
X125887029Y-70235983D01*
X125874073Y-70260609D01*
X125795203Y-70410515D01*
X125735007Y-70604378D01*
X125711148Y-70805964D01*
X125386564Y-70805964D01*
X125370658Y-70632859D01*
X125366520Y-70618188D01*
X125317125Y-70443046D01*
X125317124Y-70443044D01*
X125315557Y-70437487D01*
X125304978Y-70416033D01*
X125228331Y-70260609D01*
X125225776Y-70255428D01*
X125104320Y-70092779D01*
X124955258Y-69954987D01*
X124950375Y-69951906D01*
X124950371Y-69951903D01*
X124788464Y-69849748D01*
X124783581Y-69846667D01*
X124595039Y-69771446D01*
X124589379Y-69770320D01*
X124589375Y-69770319D01*
X124401613Y-69732971D01*
X124401610Y-69732971D01*
X124395946Y-69731844D01*
X124390171Y-69731768D01*
X124390167Y-69731768D01*
X124288793Y-69730441D01*
X124192971Y-69729187D01*
X124187274Y-69730166D01*
X124187273Y-69730166D01*
X124015845Y-69759623D01*
X123992910Y-69763564D01*
X123802463Y-69833824D01*
X123628010Y-69937612D01*
X123623670Y-69941418D01*
X123623666Y-69941421D01*
X123522092Y-70030500D01*
X123475392Y-70071455D01*
X123349720Y-70230869D01*
X123347031Y-70235980D01*
X123347029Y-70235983D01*
X123334073Y-70260609D01*
X123255203Y-70410515D01*
X123195007Y-70604378D01*
X123171148Y-70805964D01*
X122846564Y-70805964D01*
X122830658Y-70632859D01*
X122826520Y-70618188D01*
X122777125Y-70443046D01*
X122777124Y-70443044D01*
X122775557Y-70437487D01*
X122764978Y-70416033D01*
X122688331Y-70260609D01*
X122685776Y-70255428D01*
X122564320Y-70092779D01*
X122415258Y-69954987D01*
X122410375Y-69951906D01*
X122410371Y-69951903D01*
X122248464Y-69849748D01*
X122243581Y-69846667D01*
X122055039Y-69771446D01*
X122049379Y-69770320D01*
X122049375Y-69770319D01*
X121861613Y-69732971D01*
X121861610Y-69732971D01*
X121855946Y-69731844D01*
X121850171Y-69731768D01*
X121850167Y-69731768D01*
X121748793Y-69730441D01*
X121652971Y-69729187D01*
X121647274Y-69730166D01*
X121647273Y-69730166D01*
X121475845Y-69759623D01*
X121452910Y-69763564D01*
X121262463Y-69833824D01*
X121088010Y-69937612D01*
X121083670Y-69941418D01*
X121083666Y-69941421D01*
X120982092Y-70030500D01*
X120935392Y-70071455D01*
X120809720Y-70230869D01*
X120807031Y-70235980D01*
X120807029Y-70235983D01*
X120794073Y-70260609D01*
X120715203Y-70410515D01*
X120655007Y-70604378D01*
X120631148Y-70805964D01*
X120644424Y-71008522D01*
X120645845Y-71014118D01*
X120645846Y-71014123D01*
X120685796Y-71171424D01*
X120694392Y-71205269D01*
X120696809Y-71210512D01*
X120734010Y-71291208D01*
X120779377Y-71389616D01*
X120896533Y-71555389D01*
X121041938Y-71697035D01*
X121210720Y-71809812D01*
X121216023Y-71812090D01*
X121216026Y-71812092D01*
X121312954Y-71853735D01*
X121367647Y-71899003D01*
X121389184Y-71966654D01*
X121370727Y-72035210D01*
X121318136Y-72082904D01*
X121302361Y-72089268D01*
X121216868Y-72117212D01*
X121207359Y-72121209D01*
X121018463Y-72219542D01*
X121009738Y-72225036D01*
X120839433Y-72352905D01*
X120831726Y-72359748D01*
X120684590Y-72513717D01*
X120678104Y-72521727D01*
X120558098Y-72697649D01*
X120553000Y-72706623D01*
X120544787Y-72724316D01*
X120497963Y-72777683D01*
X120429720Y-72797264D01*
X120361724Y-72776841D01*
X120315564Y-72722899D01*
X120304499Y-72671266D01*
X120304499Y-72499934D01*
X120289734Y-72425699D01*
X120263654Y-72386667D01*
X120240377Y-72351832D01*
X120233484Y-72341516D01*
X120149301Y-72285266D01*
X120075067Y-72270500D01*
X119200142Y-72270500D01*
X118324934Y-72270501D01*
X118289182Y-72277612D01*
X118262874Y-72282844D01*
X118262872Y-72282845D01*
X118250699Y-72285266D01*
X118240379Y-72292161D01*
X118240378Y-72292162D01*
X118179985Y-72332516D01*
X118166516Y-72341516D01*
X118110266Y-72425699D01*
X118095500Y-72499933D01*
X98254500Y-72499933D01*
X98254500Y-69445768D01*
X99677425Y-69445768D01*
X99709138Y-69553521D01*
X99713731Y-69564889D01*
X99799607Y-69729154D01*
X99806321Y-69739415D01*
X99922468Y-69883873D01*
X99931046Y-69892632D01*
X100073039Y-70011778D01*
X100083159Y-70018708D01*
X100245585Y-70108002D01*
X100256858Y-70112834D01*
X100433538Y-70168880D01*
X100445532Y-70171430D01*
X100589761Y-70187607D01*
X100596785Y-70188000D01*
X100677885Y-70188000D01*
X100693124Y-70183525D01*
X100694329Y-70182135D01*
X100696000Y-70174452D01*
X100696000Y-70169885D01*
X101204000Y-70169885D01*
X101208475Y-70185124D01*
X101209865Y-70186329D01*
X101217548Y-70188000D01*
X101296657Y-70188000D01*
X101302805Y-70187699D01*
X101440603Y-70174188D01*
X101452638Y-70171805D01*
X101630076Y-70118233D01*
X101641416Y-70113559D01*
X101805077Y-70026540D01*
X101815294Y-70019751D01*
X101958933Y-69902603D01*
X101967637Y-69893959D01*
X102085784Y-69751144D01*
X102092644Y-69740973D01*
X102180804Y-69577924D01*
X102185556Y-69566619D01*
X102221250Y-69451308D01*
X102221331Y-69445768D01*
X103607425Y-69445768D01*
X103639138Y-69553521D01*
X103643731Y-69564889D01*
X103729607Y-69729154D01*
X103736321Y-69739415D01*
X103852468Y-69883873D01*
X103861046Y-69892632D01*
X104003039Y-70011778D01*
X104013152Y-70018702D01*
X104102669Y-70067915D01*
X104152728Y-70118261D01*
X104167621Y-70187678D01*
X104141931Y-70255033D01*
X104098837Y-70311195D01*
X104098834Y-70311199D01*
X104093808Y-70317750D01*
X104035416Y-70458720D01*
X104015500Y-70610000D01*
X104035416Y-70761280D01*
X104093808Y-70902250D01*
X104186696Y-71023304D01*
X104307750Y-71116192D01*
X104448720Y-71174584D01*
X104562020Y-71189500D01*
X104637980Y-71189500D01*
X104751280Y-71174584D01*
X104892250Y-71116192D01*
X105013304Y-71023304D01*
X105106192Y-70902250D01*
X105146075Y-70805964D01*
X118091148Y-70805964D01*
X118104424Y-71008522D01*
X118105845Y-71014118D01*
X118105846Y-71014123D01*
X118145796Y-71171424D01*
X118154392Y-71205269D01*
X118156809Y-71210512D01*
X118194010Y-71291208D01*
X118239377Y-71389616D01*
X118356533Y-71555389D01*
X118501938Y-71697035D01*
X118670720Y-71809812D01*
X118676023Y-71812090D01*
X118676026Y-71812092D01*
X118791141Y-71861549D01*
X118857228Y-71889942D01*
X118916231Y-71903293D01*
X119049579Y-71933467D01*
X119049584Y-71933468D01*
X119055216Y-71934742D01*
X119060987Y-71934969D01*
X119060989Y-71934969D01*
X119120756Y-71937317D01*
X119258053Y-71942712D01*
X119358499Y-71928148D01*
X119453231Y-71914413D01*
X119453236Y-71914412D01*
X119458945Y-71913584D01*
X119464409Y-71911729D01*
X119464414Y-71911728D01*
X119645693Y-71850192D01*
X119645698Y-71850190D01*
X119651165Y-71848334D01*
X119659276Y-71843792D01*
X119791635Y-71769667D01*
X119828276Y-71749147D01*
X119842728Y-71737128D01*
X119979913Y-71623031D01*
X119984345Y-71619345D01*
X120114147Y-71463276D01*
X120213334Y-71286165D01*
X120215190Y-71280698D01*
X120215192Y-71280693D01*
X120276728Y-71099414D01*
X120276729Y-71099409D01*
X120278584Y-71093945D01*
X120279412Y-71088236D01*
X120279413Y-71088231D01*
X120296991Y-70966996D01*
X120307712Y-70893053D01*
X120309232Y-70835000D01*
X120290658Y-70632859D01*
X120286520Y-70618188D01*
X120237125Y-70443046D01*
X120237124Y-70443044D01*
X120235557Y-70437487D01*
X120224978Y-70416033D01*
X120148331Y-70260609D01*
X120145776Y-70255428D01*
X120024320Y-70092779D01*
X119875258Y-69954987D01*
X119870375Y-69951906D01*
X119870371Y-69951903D01*
X119708464Y-69849748D01*
X119703581Y-69846667D01*
X119515039Y-69771446D01*
X119509379Y-69770320D01*
X119509375Y-69770319D01*
X119321613Y-69732971D01*
X119321610Y-69732971D01*
X119315946Y-69731844D01*
X119310171Y-69731768D01*
X119310167Y-69731768D01*
X119208793Y-69730441D01*
X119112971Y-69729187D01*
X119107274Y-69730166D01*
X119107273Y-69730166D01*
X118935845Y-69759623D01*
X118912910Y-69763564D01*
X118722463Y-69833824D01*
X118548010Y-69937612D01*
X118543670Y-69941418D01*
X118543666Y-69941421D01*
X118442092Y-70030500D01*
X118395392Y-70071455D01*
X118269720Y-70230869D01*
X118267031Y-70235980D01*
X118267029Y-70235983D01*
X118254073Y-70260609D01*
X118175203Y-70410515D01*
X118115007Y-70604378D01*
X118091148Y-70805964D01*
X105146075Y-70805964D01*
X105164584Y-70761280D01*
X105184500Y-70610000D01*
X105164584Y-70458720D01*
X105124611Y-70362217D01*
X105117022Y-70291629D01*
X105148801Y-70228142D01*
X105209859Y-70191914D01*
X105241020Y-70188000D01*
X105726657Y-70188000D01*
X105732805Y-70187699D01*
X105870603Y-70174188D01*
X105882638Y-70171805D01*
X106060076Y-70118233D01*
X106071416Y-70113559D01*
X106235077Y-70026540D01*
X106245294Y-70019751D01*
X106388933Y-69902603D01*
X106397637Y-69893959D01*
X106515784Y-69751144D01*
X106522644Y-69740973D01*
X106610804Y-69577924D01*
X106615556Y-69566619D01*
X106651250Y-69451308D01*
X106651456Y-69437205D01*
X106644701Y-69434000D01*
X103622076Y-69434000D01*
X103608545Y-69437973D01*
X103607425Y-69445768D01*
X102221331Y-69445768D01*
X102221456Y-69437205D01*
X102214701Y-69434000D01*
X101222115Y-69434000D01*
X101206876Y-69438475D01*
X101205671Y-69439865D01*
X101204000Y-69447548D01*
X101204000Y-70169885D01*
X100696000Y-70169885D01*
X100696000Y-69452115D01*
X100691525Y-69436876D01*
X100690135Y-69435671D01*
X100682452Y-69434000D01*
X99692076Y-69434000D01*
X99678545Y-69437973D01*
X99677425Y-69445768D01*
X98254500Y-69445768D01*
X98254500Y-68380500D01*
X98274502Y-68312379D01*
X98328158Y-68265886D01*
X98380500Y-68254500D01*
X99839687Y-68254500D01*
X99907808Y-68274502D01*
G37*
G04 #@! TD.AperFunction*
M02*
