G04 #@! TF.GenerationSoftware,KiCad,Pcbnew,(6.0.7-1)-1*
G04 #@! TF.CreationDate,2022-12-05T10:56:52+01:00*
G04 #@! TF.ProjectId,ESC-logic,4553432d-6c6f-4676-9963-2e6b69636164,rev?*
G04 #@! TF.SameCoordinates,Original*
G04 #@! TF.FileFunction,Paste,Top*
G04 #@! TF.FilePolarity,Positive*
%FSLAX46Y46*%
G04 Gerber Fmt 4.6, Leading zero omitted, Abs format (unit mm)*
G04 Created by KiCad (PCBNEW (6.0.7-1)-1) date 2022-12-05 10:56:52*
%MOMM*%
%LPD*%
G01*
G04 APERTURE LIST*
G04 Aperture macros list*
%AMRoundRect*
0 Rectangle with rounded corners*
0 $1 Rounding radius*
0 $2 $3 $4 $5 $6 $7 $8 $9 X,Y pos of 4 corners*
0 Add a 4 corners polygon primitive as box body*
4,1,4,$2,$3,$4,$5,$6,$7,$8,$9,$2,$3,0*
0 Add four circle primitives for the rounded corners*
1,1,$1+$1,$2,$3*
1,1,$1+$1,$4,$5*
1,1,$1+$1,$6,$7*
1,1,$1+$1,$8,$9*
0 Add four rect primitives between the rounded corners*
20,1,$1+$1,$2,$3,$4,$5,0*
20,1,$1+$1,$4,$5,$6,$7,0*
20,1,$1+$1,$6,$7,$8,$9,0*
20,1,$1+$1,$8,$9,$2,$3,0*%
%AMFreePoly0*
4,1,9,3.862500,-0.866500,0.737500,-0.866500,0.737500,-0.450000,-0.737500,-0.450000,-0.737500,0.450000,0.737500,0.450000,0.737500,0.866500,3.862500,0.866500,3.862500,-0.866500,3.862500,-0.866500,$1*%
G04 Aperture macros list end*
%ADD10RoundRect,0.075000X0.075000X-0.700000X0.075000X0.700000X-0.075000X0.700000X-0.075000X-0.700000X0*%
%ADD11RoundRect,0.075000X0.700000X-0.075000X0.700000X0.075000X-0.700000X0.075000X-0.700000X-0.075000X0*%
%ADD12RoundRect,0.250000X0.262500X0.450000X-0.262500X0.450000X-0.262500X-0.450000X0.262500X-0.450000X0*%
%ADD13RoundRect,0.250000X-0.475000X0.250000X-0.475000X-0.250000X0.475000X-0.250000X0.475000X0.250000X0*%
%ADD14RoundRect,0.250000X0.475000X-0.250000X0.475000X0.250000X-0.475000X0.250000X-0.475000X-0.250000X0*%
%ADD15RoundRect,0.250000X-0.262500X-0.450000X0.262500X-0.450000X0.262500X0.450000X-0.262500X0.450000X0*%
%ADD16RoundRect,0.250000X0.450000X-0.262500X0.450000X0.262500X-0.450000X0.262500X-0.450000X-0.262500X0*%
%ADD17RoundRect,0.150000X0.150000X-0.512500X0.150000X0.512500X-0.150000X0.512500X-0.150000X-0.512500X0*%
%ADD18RoundRect,0.243750X-0.243750X-0.456250X0.243750X-0.456250X0.243750X0.456250X-0.243750X0.456250X0*%
%ADD19RoundRect,0.242500X0.242500X0.382500X-0.242500X0.382500X-0.242500X-0.382500X0.242500X-0.382500X0*%
%ADD20RoundRect,0.150000X0.650000X0.150000X-0.650000X0.150000X-0.650000X-0.150000X0.650000X-0.150000X0*%
%ADD21RoundRect,0.250000X-0.250000X-0.475000X0.250000X-0.475000X0.250000X0.475000X-0.250000X0.475000X0*%
%ADD22RoundRect,0.250000X0.250000X0.475000X-0.250000X0.475000X-0.250000X-0.475000X0.250000X-0.475000X0*%
%ADD23R,1.800000X7.500000*%
%ADD24R,1.300000X0.900000*%
%ADD25FreePoly0,180.000000*%
%ADD26R,1.200000X3.700000*%
%ADD27R,1.200000X0.900000*%
%ADD28R,1.400000X1.200000*%
%ADD29RoundRect,0.150000X0.825000X0.150000X-0.825000X0.150000X-0.825000X-0.150000X0.825000X-0.150000X0*%
%ADD30R,0.700000X0.450000*%
%ADD31RoundRect,0.250000X0.325000X1.100000X-0.325000X1.100000X-0.325000X-1.100000X0.325000X-1.100000X0*%
%ADD32R,1.450000X0.600000*%
%ADD33R,1.450000X0.300000*%
G04 APERTURE END LIST*
D10*
X114650000Y-96475000D03*
X115150000Y-96475000D03*
X115650000Y-96475000D03*
X116150000Y-96475000D03*
X116650000Y-96475000D03*
X117150000Y-96475000D03*
X117650000Y-96475000D03*
X118150000Y-96475000D03*
X118650000Y-96475000D03*
X119150000Y-96475000D03*
X119650000Y-96475000D03*
X120150000Y-96475000D03*
X120650000Y-96475000D03*
X121150000Y-96475000D03*
X121650000Y-96475000D03*
X122150000Y-96475000D03*
D11*
X124075000Y-94550000D03*
X124075000Y-94050000D03*
X124075000Y-93550000D03*
X124075000Y-93050000D03*
X124075000Y-92550000D03*
X124075000Y-92050000D03*
X124075000Y-91550000D03*
X124075000Y-91050000D03*
X124075000Y-90550000D03*
X124075000Y-90050000D03*
X124075000Y-89550000D03*
X124075000Y-89050000D03*
X124075000Y-88550000D03*
X124075000Y-88050000D03*
X124075000Y-87550000D03*
X124075000Y-87050000D03*
D10*
X122150000Y-85125000D03*
X121650000Y-85125000D03*
X121150000Y-85125000D03*
X120650000Y-85125000D03*
X120150000Y-85125000D03*
X119650000Y-85125000D03*
X119150000Y-85125000D03*
X118650000Y-85125000D03*
X118150000Y-85125000D03*
X117650000Y-85125000D03*
X117150000Y-85125000D03*
X116650000Y-85125000D03*
X116150000Y-85125000D03*
X115650000Y-85125000D03*
X115150000Y-85125000D03*
X114650000Y-85125000D03*
D11*
X112725000Y-87050000D03*
X112725000Y-87550000D03*
X112725000Y-88050000D03*
X112725000Y-88550000D03*
X112725000Y-89050000D03*
X112725000Y-89550000D03*
X112725000Y-90050000D03*
X112725000Y-90550000D03*
X112725000Y-91050000D03*
X112725000Y-91550000D03*
X112725000Y-92050000D03*
X112725000Y-92550000D03*
X112725000Y-93050000D03*
X112725000Y-93550000D03*
X112725000Y-94050000D03*
X112725000Y-94550000D03*
D12*
X115125000Y-74700000D03*
X113300000Y-74700000D03*
D13*
X125800000Y-95850000D03*
X125800000Y-97750000D03*
D14*
X117500000Y-109950000D03*
X117500000Y-108050000D03*
D15*
X143987500Y-98800000D03*
X145812500Y-98800000D03*
D16*
X100500000Y-114612500D03*
X100500000Y-112787500D03*
D12*
X143812500Y-73700000D03*
X141987500Y-73700000D03*
D13*
X116550000Y-100940000D03*
X116550000Y-102840000D03*
D17*
X141550000Y-96537500D03*
X142500000Y-96537500D03*
X143450000Y-96537500D03*
X143450000Y-94262500D03*
X142500000Y-94262500D03*
X141550000Y-94262500D03*
D16*
X123500000Y-109912500D03*
X123500000Y-108087500D03*
D13*
X146500000Y-111300000D03*
X146500000Y-113200000D03*
D12*
X115100000Y-70300000D03*
X113275000Y-70300000D03*
D15*
X109687500Y-76900000D03*
X111512500Y-76900000D03*
D18*
X109687500Y-74700000D03*
X111562500Y-74700000D03*
D19*
X140500000Y-77050000D03*
X140500000Y-78600000D03*
X139300000Y-78600000D03*
X139300000Y-77050000D03*
D20*
X142550000Y-79730000D03*
X142550000Y-78460000D03*
X142550000Y-77190000D03*
X142550000Y-75920000D03*
X137250000Y-75920000D03*
X137250000Y-77190000D03*
X137250000Y-78460000D03*
X137250000Y-79730000D03*
D16*
X121500000Y-109912500D03*
X121500000Y-108087500D03*
D21*
X125550000Y-83250000D03*
X127450000Y-83250000D03*
D18*
X109650000Y-70300000D03*
X111525000Y-70300000D03*
D22*
X107750000Y-92250000D03*
X105850000Y-92250000D03*
D15*
X105887500Y-94500000D03*
X107712500Y-94500000D03*
D23*
X139500000Y-85500000D03*
X133900000Y-85500000D03*
D22*
X141650000Y-98700000D03*
X139750000Y-98700000D03*
D24*
X146700000Y-108500000D03*
D25*
X146612500Y-107000000D03*
D24*
X146700000Y-105500000D03*
D14*
X135100000Y-76900000D03*
X135100000Y-75000000D03*
D15*
X137387500Y-73725000D03*
X139212500Y-73725000D03*
D22*
X145900000Y-103500000D03*
X144000000Y-103500000D03*
X111950000Y-96000000D03*
X110050000Y-96000000D03*
D21*
X142650000Y-92300000D03*
X144550000Y-92300000D03*
D12*
X132812500Y-92250000D03*
X130987500Y-92250000D03*
D16*
X119500000Y-109912500D03*
X119500000Y-108087500D03*
D12*
X139212500Y-71750000D03*
X137387500Y-71750000D03*
D16*
X125500000Y-109912500D03*
X125500000Y-108087500D03*
D13*
X144900000Y-79000000D03*
X144900000Y-80900000D03*
D26*
X139800000Y-95400000D03*
X137000000Y-95400000D03*
D18*
X109652500Y-72500000D03*
X111527500Y-72500000D03*
D13*
X110250000Y-113650000D03*
X110250000Y-115550000D03*
D27*
X132900000Y-78400000D03*
X132900000Y-75100000D03*
D28*
X112200000Y-102750000D03*
X114400000Y-102750000D03*
X114400000Y-101050000D03*
X112200000Y-101050000D03*
D15*
X142687500Y-90300000D03*
X144512500Y-90300000D03*
D29*
X107775000Y-116705000D03*
X107775000Y-115435000D03*
X107775000Y-114165000D03*
X107775000Y-112895000D03*
X102825000Y-112895000D03*
X102825000Y-114165000D03*
X102825000Y-115435000D03*
X102825000Y-116705000D03*
D30*
X133000000Y-95400000D03*
X133000000Y-94100000D03*
X131000000Y-94750000D03*
D31*
X145075000Y-83600000D03*
X142125000Y-83600000D03*
D12*
X115102500Y-72505000D03*
X113277500Y-72505000D03*
D21*
X98850000Y-116500000D03*
X100750000Y-116500000D03*
D16*
X144900000Y-77412500D03*
X144900000Y-75587500D03*
D14*
X110100000Y-102850000D03*
X110100000Y-100950000D03*
D22*
X111950000Y-85250000D03*
X110050000Y-85250000D03*
D16*
X145600000Y-96912500D03*
X145600000Y-95087500D03*
D13*
X135100000Y-78400000D03*
X135100000Y-80300000D03*
D22*
X130250000Y-80000000D03*
X128350000Y-80000000D03*
X107750000Y-90000000D03*
X105850000Y-90000000D03*
X111950000Y-83250000D03*
X110050000Y-83250000D03*
D12*
X115112500Y-76900000D03*
X113287500Y-76900000D03*
D21*
X125550000Y-85250000D03*
X127450000Y-85250000D03*
D22*
X111950000Y-98000000D03*
X110050000Y-98000000D03*
D12*
X145112500Y-86400000D03*
X143287500Y-86400000D03*
D13*
X120750000Y-102850000D03*
X120750000Y-100950000D03*
D32*
X106045000Y-70250000D03*
X106045000Y-71050000D03*
D33*
X106045000Y-72250000D03*
X106045000Y-73250000D03*
X106045000Y-73750000D03*
X106045000Y-74750000D03*
D32*
X106045000Y-75950000D03*
X106045000Y-76750000D03*
X106045000Y-76750000D03*
X106045000Y-75950000D03*
D33*
X106045000Y-75250000D03*
X106045000Y-74250000D03*
X106045000Y-72750000D03*
X106045000Y-71750000D03*
D32*
X106045000Y-71050000D03*
X106045000Y-70250000D03*
D21*
X143950000Y-100800000D03*
X145850000Y-100800000D03*
M02*
