G04 #@! TF.GenerationSoftware,KiCad,Pcbnew,(6.0.7-1)-1*
G04 #@! TF.CreationDate,2022-11-25T13:43:26+01:00*
G04 #@! TF.ProjectId,ESC-logic,4553432d-6c6f-4676-9963-2e6b69636164,rev?*
G04 #@! TF.SameCoordinates,Original*
G04 #@! TF.FileFunction,Copper,L2,Inr*
G04 #@! TF.FilePolarity,Positive*
%FSLAX46Y46*%
G04 Gerber Fmt 4.6, Leading zero omitted, Abs format (unit mm)*
G04 Created by KiCad (PCBNEW (6.0.7-1)-1) date 2022-11-25 13:43:26*
%MOMM*%
%LPD*%
G01*
G04 APERTURE LIST*
G04 Aperture macros list*
%AMRoundRect*
0 Rectangle with rounded corners*
0 $1 Rounding radius*
0 $2 $3 $4 $5 $6 $7 $8 $9 X,Y pos of 4 corners*
0 Add a 4 corners polygon primitive as box body*
4,1,4,$2,$3,$4,$5,$6,$7,$8,$9,$2,$3,0*
0 Add four circle primitives for the rounded corners*
1,1,$1+$1,$2,$3*
1,1,$1+$1,$4,$5*
1,1,$1+$1,$6,$7*
1,1,$1+$1,$8,$9*
0 Add four rect primitives between the rounded corners*
20,1,$1+$1,$2,$3,$4,$5,0*
20,1,$1+$1,$4,$5,$6,$7,0*
20,1,$1+$1,$6,$7,$8,$9,0*
20,1,$1+$1,$8,$9,$2,$3,0*%
G04 Aperture macros list end*
G04 #@! TA.AperFunction,ComponentPad*
%ADD10RoundRect,0.250000X-0.625000X0.350000X-0.625000X-0.350000X0.625000X-0.350000X0.625000X0.350000X0*%
G04 #@! TD*
G04 #@! TA.AperFunction,ComponentPad*
%ADD11O,1.750000X1.200000*%
G04 #@! TD*
G04 #@! TA.AperFunction,ComponentPad*
%ADD12R,1.700000X1.700000*%
G04 #@! TD*
G04 #@! TA.AperFunction,ComponentPad*
%ADD13O,1.700000X1.700000*%
G04 #@! TD*
G04 #@! TA.AperFunction,ComponentPad*
%ADD14RoundRect,0.250000X-0.350000X-0.625000X0.350000X-0.625000X0.350000X0.625000X-0.350000X0.625000X0*%
G04 #@! TD*
G04 #@! TA.AperFunction,ComponentPad*
%ADD15O,1.200000X1.750000*%
G04 #@! TD*
G04 #@! TA.AperFunction,ComponentPad*
%ADD16O,1.600000X1.000000*%
G04 #@! TD*
G04 #@! TA.AperFunction,ComponentPad*
%ADD17O,2.100000X1.000000*%
G04 #@! TD*
G04 #@! TA.AperFunction,ViaPad*
%ADD18C,0.600000*%
G04 #@! TD*
G04 #@! TA.AperFunction,ViaPad*
%ADD19C,0.800000*%
G04 #@! TD*
G04 APERTURE END LIST*
D10*
X101050000Y-103100000D03*
D11*
X101050000Y-105100000D03*
X101050000Y-107100000D03*
X101050000Y-109100000D03*
D12*
X107825000Y-106625000D03*
D13*
X110365000Y-106625000D03*
X107825000Y-109165000D03*
X110365000Y-109165000D03*
D10*
X101050000Y-94200000D03*
D11*
X101050000Y-96200000D03*
X101050000Y-98200000D03*
D14*
X129800000Y-115000000D03*
D15*
X131800000Y-115000000D03*
X133800000Y-115000000D03*
X135800000Y-115000000D03*
X137800000Y-115000000D03*
X139800000Y-115000000D03*
X141800000Y-115000000D03*
D14*
X114900000Y-115000000D03*
D15*
X116900000Y-115000000D03*
X118900000Y-115000000D03*
X120900000Y-115000000D03*
X122900000Y-115000000D03*
X124900000Y-115000000D03*
D12*
X119200000Y-73375000D03*
D13*
X119200000Y-70835000D03*
X121740000Y-73375000D03*
X121740000Y-70835000D03*
X124280000Y-73375000D03*
X124280000Y-70835000D03*
X126820000Y-73375000D03*
X126820000Y-70835000D03*
D10*
X101050000Y-81300000D03*
D11*
X101050000Y-83300000D03*
X101050000Y-85300000D03*
X101050000Y-87300000D03*
X101050000Y-89300000D03*
D16*
X100950000Y-77820000D03*
D17*
X105130000Y-77820000D03*
X105130000Y-69180000D03*
D16*
X100950000Y-69180000D03*
D12*
X145200000Y-70800000D03*
D13*
X142660000Y-70800000D03*
D12*
X130500000Y-109200000D03*
D13*
X130500000Y-106660000D03*
X133040000Y-109200000D03*
X133040000Y-106660000D03*
X135580000Y-109200000D03*
X135580000Y-106660000D03*
X138120000Y-109200000D03*
X138120000Y-106660000D03*
D18*
X110500000Y-94400000D03*
D19*
X115200000Y-104200000D03*
D18*
X108400000Y-73900000D03*
D19*
X106100000Y-114900000D03*
D18*
X120700000Y-94700000D03*
X134300000Y-74000000D03*
X133200000Y-98300000D03*
X142800000Y-98000000D03*
D19*
X121500000Y-105100000D03*
X104450500Y-115900000D03*
D18*
X126700000Y-98900000D03*
D19*
X125900000Y-93800000D03*
X116200000Y-108900000D03*
X145300000Y-113300000D03*
X114600000Y-68900000D03*
X113262500Y-97862500D03*
X124100000Y-83300000D03*
X137300000Y-100100000D03*
X110000000Y-112600000D03*
D18*
X122700000Y-91200000D03*
X121400000Y-103500000D03*
X108000000Y-90900000D03*
X117400000Y-94200000D03*
X119000000Y-112700000D03*
X118900000Y-86800000D03*
X119599924Y-87625613D03*
X121000000Y-112700000D03*
X122900000Y-112700000D03*
X120600000Y-88000000D03*
X114900000Y-86500000D03*
X122300000Y-87200000D03*
X116500000Y-73400000D03*
X115900000Y-75600000D03*
X121600000Y-87900000D03*
X108500000Y-75800000D03*
X104800000Y-75300000D03*
X141900000Y-87100000D03*
X132300000Y-90800000D03*
X121606777Y-90550500D03*
X127400000Y-89800000D03*
G04 #@! TA.AperFunction,Conductor*
G36*
X99907808Y-68274502D02*
G01*
X99954301Y-68328158D01*
X99964405Y-68398432D01*
X99935860Y-68460934D01*
X99936292Y-68461292D01*
X99934963Y-68462899D01*
X99934911Y-68463012D01*
X99934544Y-68463405D01*
X99814216Y-68608856D01*
X99807356Y-68619027D01*
X99719196Y-68782076D01*
X99714444Y-68793381D01*
X99678750Y-68908692D01*
X99678544Y-68922795D01*
X99685299Y-68926000D01*
X102207924Y-68926000D01*
X102221455Y-68922027D01*
X102222575Y-68914232D01*
X102190862Y-68806479D01*
X102186269Y-68795111D01*
X102100393Y-68630846D01*
X102093679Y-68620585D01*
X101977532Y-68476127D01*
X101970218Y-68468658D01*
X101936847Y-68405993D01*
X101942653Y-68335234D01*
X101985792Y-68278847D01*
X102052568Y-68254734D01*
X102060241Y-68254500D01*
X103769687Y-68254500D01*
X103837808Y-68274502D01*
X103884301Y-68328158D01*
X103894405Y-68398432D01*
X103865860Y-68460934D01*
X103866292Y-68461292D01*
X103864963Y-68462899D01*
X103864911Y-68463012D01*
X103864544Y-68463405D01*
X103744216Y-68608856D01*
X103737356Y-68619027D01*
X103649196Y-68782076D01*
X103644444Y-68793381D01*
X103608750Y-68908692D01*
X103608544Y-68922795D01*
X103615299Y-68926000D01*
X106637924Y-68926000D01*
X106651455Y-68922027D01*
X106652575Y-68914232D01*
X106620862Y-68806479D01*
X106616269Y-68795111D01*
X106530393Y-68630846D01*
X106523679Y-68620585D01*
X106407532Y-68476127D01*
X106400218Y-68468658D01*
X106366847Y-68405993D01*
X106372653Y-68335234D01*
X106415792Y-68278847D01*
X106482568Y-68254734D01*
X106490241Y-68254500D01*
X114012253Y-68254500D01*
X114080374Y-68274502D01*
X114126867Y-68328158D01*
X114136971Y-68398432D01*
X114109020Y-68458122D01*
X114110039Y-68458838D01*
X114105981Y-68464611D01*
X114105980Y-68464614D01*
X114105674Y-68465048D01*
X114105671Y-68465052D01*
X114048015Y-68547089D01*
X114018950Y-68588444D01*
X113961406Y-68736037D01*
X113960414Y-68743570D01*
X113960414Y-68743571D01*
X113953857Y-68793381D01*
X113940729Y-68893096D01*
X113958113Y-69050553D01*
X114012553Y-69199319D01*
X114100908Y-69330805D01*
X114106527Y-69335918D01*
X114106528Y-69335919D01*
X114117903Y-69346269D01*
X114218076Y-69437419D01*
X114357293Y-69513008D01*
X114510522Y-69553207D01*
X114594477Y-69554526D01*
X114661319Y-69555576D01*
X114661322Y-69555576D01*
X114668916Y-69555695D01*
X114823332Y-69520329D01*
X114916124Y-69473660D01*
X114958072Y-69452563D01*
X114958075Y-69452561D01*
X114964855Y-69449151D01*
X114970626Y-69444222D01*
X114970629Y-69444220D01*
X115079536Y-69351204D01*
X115079536Y-69351203D01*
X115085314Y-69346269D01*
X115177755Y-69217624D01*
X115236842Y-69070641D01*
X115259162Y-68913807D01*
X115259307Y-68900000D01*
X115240276Y-68742733D01*
X115184280Y-68594546D01*
X115094553Y-68463992D01*
X115092350Y-68462030D01*
X115063144Y-68399496D01*
X115072648Y-68329138D01*
X115118681Y-68275088D01*
X115187704Y-68254500D01*
X147619500Y-68254500D01*
X147687621Y-68274502D01*
X147734114Y-68328158D01*
X147745500Y-68380500D01*
X147745500Y-117619500D01*
X147725498Y-117687621D01*
X147671842Y-117734114D01*
X147619500Y-117745500D01*
X98380500Y-117745500D01*
X98312379Y-117725498D01*
X98265886Y-117671842D01*
X98254500Y-117619500D01*
X98254500Y-115672095D01*
X113792001Y-115672095D01*
X113792338Y-115678614D01*
X113802257Y-115774206D01*
X113805149Y-115787600D01*
X113856588Y-115941784D01*
X113862761Y-115954962D01*
X113948063Y-116092807D01*
X113957099Y-116104208D01*
X114071829Y-116218739D01*
X114083240Y-116227751D01*
X114221243Y-116312816D01*
X114234424Y-116318963D01*
X114388710Y-116370138D01*
X114402086Y-116373005D01*
X114496438Y-116382672D01*
X114502854Y-116383000D01*
X114627885Y-116383000D01*
X114643124Y-116378525D01*
X114644329Y-116377135D01*
X114646000Y-116369452D01*
X114646000Y-116364884D01*
X115154000Y-116364884D01*
X115158475Y-116380123D01*
X115159865Y-116381328D01*
X115167548Y-116382999D01*
X115297095Y-116382999D01*
X115303614Y-116382662D01*
X115399206Y-116372743D01*
X115412600Y-116369851D01*
X115566784Y-116318412D01*
X115579962Y-116312239D01*
X115717807Y-116226937D01*
X115729208Y-116217901D01*
X115843739Y-116103171D01*
X115852751Y-116091760D01*
X115937816Y-115953757D01*
X115943964Y-115940574D01*
X115985328Y-115815865D01*
X116025759Y-115757505D01*
X116091323Y-115730268D01*
X116161204Y-115742801D01*
X116206272Y-115784484D01*
X116207711Y-115783392D01*
X116211835Y-115788825D01*
X116215351Y-115794677D01*
X116220039Y-115799634D01*
X116220041Y-115799637D01*
X116297006Y-115881024D01*
X116342916Y-115929572D01*
X116496471Y-116033928D01*
X116502805Y-116036461D01*
X116502808Y-116036463D01*
X116662516Y-116100342D01*
X116662521Y-116100343D01*
X116668853Y-116102876D01*
X116675580Y-116103990D01*
X116675585Y-116103991D01*
X116845282Y-116132084D01*
X116845285Y-116132084D01*
X116852019Y-116133199D01*
X116858836Y-116132842D01*
X116858840Y-116132842D01*
X117009920Y-116124923D01*
X117037424Y-116123482D01*
X117043996Y-116121672D01*
X117044001Y-116121671D01*
X117209835Y-116075992D01*
X117216417Y-116074179D01*
X117380648Y-115987590D01*
X117522454Y-115867755D01*
X117526602Y-115862330D01*
X117631075Y-115725685D01*
X117631077Y-115725681D01*
X117635219Y-115720264D01*
X117646451Y-115696177D01*
X117710802Y-115558177D01*
X117710803Y-115558174D01*
X117713682Y-115552000D01*
X117754182Y-115370812D01*
X117754500Y-115365124D01*
X117754500Y-115321385D01*
X118045500Y-115321385D01*
X118060512Y-115459573D01*
X118119730Y-115635535D01*
X118215351Y-115794677D01*
X118220039Y-115799634D01*
X118220041Y-115799637D01*
X118297006Y-115881024D01*
X118342916Y-115929572D01*
X118496471Y-116033928D01*
X118502805Y-116036461D01*
X118502808Y-116036463D01*
X118662516Y-116100342D01*
X118662521Y-116100343D01*
X118668853Y-116102876D01*
X118675580Y-116103990D01*
X118675585Y-116103991D01*
X118845282Y-116132084D01*
X118845285Y-116132084D01*
X118852019Y-116133199D01*
X118858836Y-116132842D01*
X118858840Y-116132842D01*
X119009920Y-116124923D01*
X119037424Y-116123482D01*
X119043996Y-116121672D01*
X119044001Y-116121671D01*
X119209835Y-116075992D01*
X119216417Y-116074179D01*
X119380648Y-115987590D01*
X119522454Y-115867755D01*
X119526602Y-115862330D01*
X119631075Y-115725685D01*
X119631077Y-115725681D01*
X119635219Y-115720264D01*
X119646451Y-115696177D01*
X119710802Y-115558177D01*
X119710803Y-115558174D01*
X119713682Y-115552000D01*
X119754182Y-115370812D01*
X119754500Y-115365124D01*
X119754500Y-115321385D01*
X120045500Y-115321385D01*
X120060512Y-115459573D01*
X120119730Y-115635535D01*
X120215351Y-115794677D01*
X120220039Y-115799634D01*
X120220041Y-115799637D01*
X120297006Y-115881024D01*
X120342916Y-115929572D01*
X120496471Y-116033928D01*
X120502805Y-116036461D01*
X120502808Y-116036463D01*
X120662516Y-116100342D01*
X120662521Y-116100343D01*
X120668853Y-116102876D01*
X120675580Y-116103990D01*
X120675585Y-116103991D01*
X120845282Y-116132084D01*
X120845285Y-116132084D01*
X120852019Y-116133199D01*
X120858836Y-116132842D01*
X120858840Y-116132842D01*
X121009920Y-116124923D01*
X121037424Y-116123482D01*
X121043996Y-116121672D01*
X121044001Y-116121671D01*
X121209835Y-116075992D01*
X121216417Y-116074179D01*
X121380648Y-115987590D01*
X121522454Y-115867755D01*
X121526602Y-115862330D01*
X121631075Y-115725685D01*
X121631077Y-115725681D01*
X121635219Y-115720264D01*
X121646451Y-115696177D01*
X121710802Y-115558177D01*
X121710803Y-115558174D01*
X121713682Y-115552000D01*
X121754182Y-115370812D01*
X121754500Y-115365124D01*
X121754500Y-115321385D01*
X122045500Y-115321385D01*
X122060512Y-115459573D01*
X122119730Y-115635535D01*
X122215351Y-115794677D01*
X122220039Y-115799634D01*
X122220041Y-115799637D01*
X122297006Y-115881024D01*
X122342916Y-115929572D01*
X122496471Y-116033928D01*
X122502805Y-116036461D01*
X122502808Y-116036463D01*
X122662516Y-116100342D01*
X122662521Y-116100343D01*
X122668853Y-116102876D01*
X122675580Y-116103990D01*
X122675585Y-116103991D01*
X122845282Y-116132084D01*
X122845285Y-116132084D01*
X122852019Y-116133199D01*
X122858836Y-116132842D01*
X122858840Y-116132842D01*
X123009920Y-116124923D01*
X123037424Y-116123482D01*
X123043996Y-116121672D01*
X123044001Y-116121671D01*
X123209835Y-116075992D01*
X123216417Y-116074179D01*
X123380648Y-115987590D01*
X123522454Y-115867755D01*
X123526602Y-115862330D01*
X123631075Y-115725685D01*
X123631077Y-115725681D01*
X123635219Y-115720264D01*
X123646451Y-115696177D01*
X123710802Y-115558177D01*
X123710803Y-115558174D01*
X123713682Y-115552000D01*
X123754182Y-115370812D01*
X123754500Y-115365124D01*
X123754500Y-115321385D01*
X124045500Y-115321385D01*
X124060512Y-115459573D01*
X124119730Y-115635535D01*
X124215351Y-115794677D01*
X124220039Y-115799634D01*
X124220041Y-115799637D01*
X124297006Y-115881024D01*
X124342916Y-115929572D01*
X124496471Y-116033928D01*
X124502805Y-116036461D01*
X124502808Y-116036463D01*
X124662516Y-116100342D01*
X124662521Y-116100343D01*
X124668853Y-116102876D01*
X124675580Y-116103990D01*
X124675585Y-116103991D01*
X124845282Y-116132084D01*
X124845285Y-116132084D01*
X124852019Y-116133199D01*
X124858836Y-116132842D01*
X124858840Y-116132842D01*
X125009920Y-116124923D01*
X125037424Y-116123482D01*
X125043996Y-116121672D01*
X125044001Y-116121671D01*
X125209835Y-116075992D01*
X125216417Y-116074179D01*
X125380648Y-115987590D01*
X125522454Y-115867755D01*
X125526602Y-115862330D01*
X125631075Y-115725685D01*
X125631077Y-115725681D01*
X125635219Y-115720264D01*
X125646451Y-115696177D01*
X125657372Y-115672756D01*
X128945500Y-115672756D01*
X128945869Y-115676152D01*
X128945869Y-115676153D01*
X128949990Y-115714082D01*
X128952202Y-115734448D01*
X128954974Y-115741841D01*
X128954974Y-115741843D01*
X128967106Y-115774206D01*
X129002929Y-115869764D01*
X129008309Y-115876943D01*
X129008311Y-115876946D01*
X129047752Y-115929572D01*
X129089596Y-115985404D01*
X129096776Y-115990785D01*
X129198054Y-116066689D01*
X129198057Y-116066691D01*
X129205236Y-116072071D01*
X129288196Y-116103171D01*
X129333157Y-116120026D01*
X129333159Y-116120026D01*
X129340552Y-116122798D01*
X129348402Y-116123651D01*
X129348403Y-116123651D01*
X129350134Y-116123839D01*
X129402244Y-116129500D01*
X130197756Y-116129500D01*
X130249866Y-116123839D01*
X130251597Y-116123651D01*
X130251598Y-116123651D01*
X130259448Y-116122798D01*
X130266841Y-116120026D01*
X130266843Y-116120026D01*
X130311804Y-116103171D01*
X130394764Y-116072071D01*
X130401943Y-116066691D01*
X130401946Y-116066689D01*
X130503224Y-115990785D01*
X130510404Y-115985404D01*
X130552248Y-115929572D01*
X130591689Y-115876946D01*
X130591691Y-115876943D01*
X130597071Y-115869764D01*
X130632894Y-115774206D01*
X130645026Y-115741843D01*
X130645026Y-115741841D01*
X130647798Y-115734448D01*
X130650011Y-115714082D01*
X130654131Y-115676153D01*
X130654131Y-115676152D01*
X130654500Y-115672756D01*
X130654500Y-115321385D01*
X130945500Y-115321385D01*
X130960512Y-115459573D01*
X131019730Y-115635535D01*
X131115351Y-115794677D01*
X131120039Y-115799634D01*
X131120041Y-115799637D01*
X131197006Y-115881024D01*
X131242916Y-115929572D01*
X131396471Y-116033928D01*
X131402805Y-116036461D01*
X131402808Y-116036463D01*
X131562516Y-116100342D01*
X131562521Y-116100343D01*
X131568853Y-116102876D01*
X131575580Y-116103990D01*
X131575585Y-116103991D01*
X131745282Y-116132084D01*
X131745285Y-116132084D01*
X131752019Y-116133199D01*
X131758836Y-116132842D01*
X131758840Y-116132842D01*
X131909920Y-116124923D01*
X131937424Y-116123482D01*
X131943996Y-116121672D01*
X131944001Y-116121671D01*
X132109835Y-116075992D01*
X132116417Y-116074179D01*
X132280648Y-115987590D01*
X132422454Y-115867755D01*
X132426602Y-115862330D01*
X132531075Y-115725685D01*
X132531077Y-115725681D01*
X132535219Y-115720264D01*
X132544381Y-115700617D01*
X132591299Y-115647333D01*
X132659577Y-115627873D01*
X132727536Y-115648416D01*
X132770591Y-115696177D01*
X132860619Y-115870978D01*
X132867069Y-115881024D01*
X132990262Y-116037857D01*
X132998499Y-116046506D01*
X133149123Y-116177212D01*
X133158847Y-116184147D01*
X133331467Y-116284010D01*
X133342331Y-116288984D01*
X133530727Y-116354407D01*
X133531716Y-116354648D01*
X133542008Y-116353180D01*
X133546000Y-116339615D01*
X133546000Y-116335402D01*
X134054000Y-116335402D01*
X134057973Y-116348933D01*
X134067399Y-116350288D01*
X134156537Y-116328806D01*
X134167832Y-116324917D01*
X134349382Y-116242371D01*
X134359724Y-116236424D01*
X134522397Y-116121032D01*
X134531425Y-116113239D01*
X134669342Y-115969169D01*
X134676738Y-115959804D01*
X134784921Y-115792259D01*
X134790417Y-115781655D01*
X134823155Y-115700421D01*
X134867170Y-115644715D01*
X134934315Y-115621648D01*
X135003271Y-115638545D01*
X135048024Y-115682625D01*
X135115351Y-115794677D01*
X135120039Y-115799634D01*
X135120041Y-115799637D01*
X135197006Y-115881024D01*
X135242916Y-115929572D01*
X135396471Y-116033928D01*
X135402805Y-116036461D01*
X135402808Y-116036463D01*
X135562516Y-116100342D01*
X135562521Y-116100343D01*
X135568853Y-116102876D01*
X135575580Y-116103990D01*
X135575585Y-116103991D01*
X135745282Y-116132084D01*
X135745285Y-116132084D01*
X135752019Y-116133199D01*
X135758836Y-116132842D01*
X135758840Y-116132842D01*
X135909920Y-116124923D01*
X135937424Y-116123482D01*
X135943996Y-116121672D01*
X135944001Y-116121671D01*
X136109835Y-116075992D01*
X136116417Y-116074179D01*
X136280648Y-115987590D01*
X136422454Y-115867755D01*
X136426602Y-115862330D01*
X136531075Y-115725685D01*
X136531077Y-115725681D01*
X136535219Y-115720264D01*
X136546451Y-115696177D01*
X136610802Y-115558177D01*
X136610803Y-115558174D01*
X136613682Y-115552000D01*
X136654182Y-115370812D01*
X136654500Y-115365124D01*
X136654500Y-115321385D01*
X136945500Y-115321385D01*
X136960512Y-115459573D01*
X137019730Y-115635535D01*
X137115351Y-115794677D01*
X137120039Y-115799634D01*
X137120041Y-115799637D01*
X137197006Y-115881024D01*
X137242916Y-115929572D01*
X137396471Y-116033928D01*
X137402805Y-116036461D01*
X137402808Y-116036463D01*
X137562516Y-116100342D01*
X137562521Y-116100343D01*
X137568853Y-116102876D01*
X137575580Y-116103990D01*
X137575585Y-116103991D01*
X137745282Y-116132084D01*
X137745285Y-116132084D01*
X137752019Y-116133199D01*
X137758836Y-116132842D01*
X137758840Y-116132842D01*
X137909920Y-116124923D01*
X137937424Y-116123482D01*
X137943996Y-116121672D01*
X137944001Y-116121671D01*
X138109835Y-116075992D01*
X138116417Y-116074179D01*
X138280648Y-115987590D01*
X138422454Y-115867755D01*
X138426602Y-115862330D01*
X138531075Y-115725685D01*
X138531077Y-115725681D01*
X138535219Y-115720264D01*
X138546451Y-115696177D01*
X138610802Y-115558177D01*
X138610803Y-115558174D01*
X138613682Y-115552000D01*
X138654182Y-115370812D01*
X138654500Y-115365124D01*
X138654500Y-115321385D01*
X138945500Y-115321385D01*
X138960512Y-115459573D01*
X139019730Y-115635535D01*
X139115351Y-115794677D01*
X139120039Y-115799634D01*
X139120041Y-115799637D01*
X139197006Y-115881024D01*
X139242916Y-115929572D01*
X139396471Y-116033928D01*
X139402805Y-116036461D01*
X139402808Y-116036463D01*
X139562516Y-116100342D01*
X139562521Y-116100343D01*
X139568853Y-116102876D01*
X139575580Y-116103990D01*
X139575585Y-116103991D01*
X139745282Y-116132084D01*
X139745285Y-116132084D01*
X139752019Y-116133199D01*
X139758836Y-116132842D01*
X139758840Y-116132842D01*
X139909920Y-116124923D01*
X139937424Y-116123482D01*
X139943996Y-116121672D01*
X139944001Y-116121671D01*
X140109835Y-116075992D01*
X140116417Y-116074179D01*
X140280648Y-115987590D01*
X140422454Y-115867755D01*
X140426602Y-115862330D01*
X140531075Y-115725685D01*
X140531077Y-115725681D01*
X140535219Y-115720264D01*
X140546451Y-115696177D01*
X140610802Y-115558177D01*
X140610803Y-115558174D01*
X140613682Y-115552000D01*
X140654182Y-115370812D01*
X140654500Y-115365124D01*
X140654500Y-115321385D01*
X140945500Y-115321385D01*
X140960512Y-115459573D01*
X141019730Y-115635535D01*
X141115351Y-115794677D01*
X141120039Y-115799634D01*
X141120041Y-115799637D01*
X141197006Y-115881024D01*
X141242916Y-115929572D01*
X141396471Y-116033928D01*
X141402805Y-116036461D01*
X141402808Y-116036463D01*
X141562516Y-116100342D01*
X141562521Y-116100343D01*
X141568853Y-116102876D01*
X141575580Y-116103990D01*
X141575585Y-116103991D01*
X141745282Y-116132084D01*
X141745285Y-116132084D01*
X141752019Y-116133199D01*
X141758836Y-116132842D01*
X141758840Y-116132842D01*
X141909920Y-116124923D01*
X141937424Y-116123482D01*
X141943996Y-116121672D01*
X141944001Y-116121671D01*
X142109835Y-116075992D01*
X142116417Y-116074179D01*
X142280648Y-115987590D01*
X142422454Y-115867755D01*
X142426602Y-115862330D01*
X142531075Y-115725685D01*
X142531077Y-115725681D01*
X142535219Y-115720264D01*
X142546451Y-115696177D01*
X142610802Y-115558177D01*
X142610803Y-115558174D01*
X142613682Y-115552000D01*
X142654182Y-115370812D01*
X142654500Y-115365124D01*
X142654500Y-114678615D01*
X142639488Y-114540427D01*
X142580270Y-114364465D01*
X142484649Y-114205323D01*
X142468754Y-114188514D01*
X142361773Y-114075386D01*
X142361771Y-114075384D01*
X142357084Y-114070428D01*
X142203529Y-113966072D01*
X142197195Y-113963539D01*
X142197192Y-113963537D01*
X142037484Y-113899658D01*
X142037479Y-113899657D01*
X142031147Y-113897124D01*
X142024420Y-113896010D01*
X142024415Y-113896009D01*
X141854718Y-113867916D01*
X141854715Y-113867916D01*
X141847981Y-113866801D01*
X141841164Y-113867158D01*
X141841160Y-113867158D01*
X141690080Y-113875077D01*
X141662576Y-113876518D01*
X141656004Y-113878328D01*
X141655999Y-113878329D01*
X141497368Y-113922024D01*
X141483583Y-113925821D01*
X141319352Y-114012410D01*
X141177546Y-114132245D01*
X141173399Y-114137668D01*
X141173398Y-114137670D01*
X141068925Y-114274315D01*
X141068923Y-114274319D01*
X141064781Y-114279736D01*
X141061899Y-114285916D01*
X141061898Y-114285918D01*
X141022254Y-114370936D01*
X140986318Y-114448000D01*
X140945818Y-114629188D01*
X140945500Y-114634876D01*
X140945500Y-115321385D01*
X140654500Y-115321385D01*
X140654500Y-114678615D01*
X140639488Y-114540427D01*
X140580270Y-114364465D01*
X140484649Y-114205323D01*
X140468754Y-114188514D01*
X140361773Y-114075386D01*
X140361771Y-114075384D01*
X140357084Y-114070428D01*
X140203529Y-113966072D01*
X140197195Y-113963539D01*
X140197192Y-113963537D01*
X140037484Y-113899658D01*
X140037479Y-113899657D01*
X140031147Y-113897124D01*
X140024420Y-113896010D01*
X140024415Y-113896009D01*
X139854718Y-113867916D01*
X139854715Y-113867916D01*
X139847981Y-113866801D01*
X139841164Y-113867158D01*
X139841160Y-113867158D01*
X139690080Y-113875077D01*
X139662576Y-113876518D01*
X139656004Y-113878328D01*
X139655999Y-113878329D01*
X139497368Y-113922024D01*
X139483583Y-113925821D01*
X139319352Y-114012410D01*
X139177546Y-114132245D01*
X139173399Y-114137668D01*
X139173398Y-114137670D01*
X139068925Y-114274315D01*
X139068923Y-114274319D01*
X139064781Y-114279736D01*
X139061899Y-114285916D01*
X139061898Y-114285918D01*
X139022254Y-114370936D01*
X138986318Y-114448000D01*
X138945818Y-114629188D01*
X138945500Y-114634876D01*
X138945500Y-115321385D01*
X138654500Y-115321385D01*
X138654500Y-114678615D01*
X138639488Y-114540427D01*
X138580270Y-114364465D01*
X138484649Y-114205323D01*
X138468754Y-114188514D01*
X138361773Y-114075386D01*
X138361771Y-114075384D01*
X138357084Y-114070428D01*
X138203529Y-113966072D01*
X138197195Y-113963539D01*
X138197192Y-113963537D01*
X138037484Y-113899658D01*
X138037479Y-113899657D01*
X138031147Y-113897124D01*
X138024420Y-113896010D01*
X138024415Y-113896009D01*
X137854718Y-113867916D01*
X137854715Y-113867916D01*
X137847981Y-113866801D01*
X137841164Y-113867158D01*
X137841160Y-113867158D01*
X137690080Y-113875077D01*
X137662576Y-113876518D01*
X137656004Y-113878328D01*
X137655999Y-113878329D01*
X137497368Y-113922024D01*
X137483583Y-113925821D01*
X137319352Y-114012410D01*
X137177546Y-114132245D01*
X137173399Y-114137668D01*
X137173398Y-114137670D01*
X137068925Y-114274315D01*
X137068923Y-114274319D01*
X137064781Y-114279736D01*
X137061899Y-114285916D01*
X137061898Y-114285918D01*
X137022254Y-114370936D01*
X136986318Y-114448000D01*
X136945818Y-114629188D01*
X136945500Y-114634876D01*
X136945500Y-115321385D01*
X136654500Y-115321385D01*
X136654500Y-114678615D01*
X136639488Y-114540427D01*
X136580270Y-114364465D01*
X136484649Y-114205323D01*
X136468754Y-114188514D01*
X136361773Y-114075386D01*
X136361771Y-114075384D01*
X136357084Y-114070428D01*
X136203529Y-113966072D01*
X136197195Y-113963539D01*
X136197192Y-113963537D01*
X136037484Y-113899658D01*
X136037479Y-113899657D01*
X136031147Y-113897124D01*
X136024420Y-113896010D01*
X136024415Y-113896009D01*
X135854718Y-113867916D01*
X135854715Y-113867916D01*
X135847981Y-113866801D01*
X135841164Y-113867158D01*
X135841160Y-113867158D01*
X135690080Y-113875077D01*
X135662576Y-113876518D01*
X135656004Y-113878328D01*
X135655999Y-113878329D01*
X135497368Y-113922024D01*
X135483583Y-113925821D01*
X135319352Y-114012410D01*
X135177546Y-114132245D01*
X135173399Y-114137668D01*
X135173398Y-114137670D01*
X135068925Y-114274315D01*
X135068923Y-114274319D01*
X135064781Y-114279736D01*
X135061898Y-114285919D01*
X135055619Y-114299383D01*
X135008701Y-114352667D01*
X134940423Y-114372127D01*
X134872464Y-114351584D01*
X134829409Y-114303823D01*
X134739381Y-114129022D01*
X134732931Y-114118976D01*
X134609738Y-113962143D01*
X134601501Y-113953494D01*
X134450877Y-113822788D01*
X134441153Y-113815853D01*
X134268533Y-113715990D01*
X134257669Y-113711016D01*
X134069273Y-113645593D01*
X134068284Y-113645352D01*
X134057992Y-113646820D01*
X134054000Y-113660385D01*
X134054000Y-116335402D01*
X133546000Y-116335402D01*
X133546000Y-113664598D01*
X133542027Y-113651067D01*
X133532601Y-113649712D01*
X133443463Y-113671194D01*
X133432168Y-113675083D01*
X133250618Y-113757629D01*
X133240276Y-113763576D01*
X133077603Y-113878968D01*
X133068575Y-113886761D01*
X132930658Y-114030831D01*
X132923262Y-114040196D01*
X132815079Y-114207741D01*
X132809583Y-114218345D01*
X132776845Y-114299579D01*
X132732830Y-114355285D01*
X132665685Y-114378352D01*
X132596729Y-114361455D01*
X132551976Y-114317375D01*
X132488165Y-114211175D01*
X132484649Y-114205323D01*
X132468754Y-114188514D01*
X132361773Y-114075386D01*
X132361771Y-114075384D01*
X132357084Y-114070428D01*
X132203529Y-113966072D01*
X132197195Y-113963539D01*
X132197192Y-113963537D01*
X132037484Y-113899658D01*
X132037479Y-113899657D01*
X132031147Y-113897124D01*
X132024420Y-113896010D01*
X132024415Y-113896009D01*
X131854718Y-113867916D01*
X131854715Y-113867916D01*
X131847981Y-113866801D01*
X131841164Y-113867158D01*
X131841160Y-113867158D01*
X131690080Y-113875077D01*
X131662576Y-113876518D01*
X131656004Y-113878328D01*
X131655999Y-113878329D01*
X131497368Y-113922024D01*
X131483583Y-113925821D01*
X131319352Y-114012410D01*
X131177546Y-114132245D01*
X131173399Y-114137668D01*
X131173398Y-114137670D01*
X131068925Y-114274315D01*
X131068923Y-114274319D01*
X131064781Y-114279736D01*
X131061899Y-114285916D01*
X131061898Y-114285918D01*
X131022254Y-114370936D01*
X130986318Y-114448000D01*
X130945818Y-114629188D01*
X130945500Y-114634876D01*
X130945500Y-115321385D01*
X130654500Y-115321385D01*
X130654500Y-114327244D01*
X130650011Y-114285919D01*
X130648651Y-114273403D01*
X130648651Y-114273402D01*
X130647798Y-114265552D01*
X130597071Y-114130236D01*
X130591691Y-114123057D01*
X130591689Y-114123054D01*
X130515785Y-114021776D01*
X130510404Y-114014596D01*
X130489977Y-113999287D01*
X130401946Y-113933311D01*
X130401943Y-113933309D01*
X130394764Y-113927929D01*
X130284947Y-113886761D01*
X130266843Y-113879974D01*
X130266841Y-113879974D01*
X130259448Y-113877202D01*
X130251598Y-113876349D01*
X130251597Y-113876349D01*
X130201153Y-113870869D01*
X130201152Y-113870869D01*
X130197756Y-113870500D01*
X129402244Y-113870500D01*
X129398848Y-113870869D01*
X129398847Y-113870869D01*
X129348403Y-113876349D01*
X129348402Y-113876349D01*
X129340552Y-113877202D01*
X129333159Y-113879974D01*
X129333157Y-113879974D01*
X129315053Y-113886761D01*
X129205236Y-113927929D01*
X129198057Y-113933309D01*
X129198054Y-113933311D01*
X129110023Y-113999287D01*
X129089596Y-114014596D01*
X129084215Y-114021776D01*
X129008311Y-114123054D01*
X129008309Y-114123057D01*
X129002929Y-114130236D01*
X128952202Y-114265552D01*
X128951349Y-114273402D01*
X128951349Y-114273403D01*
X128949989Y-114285919D01*
X128945500Y-114327244D01*
X128945500Y-115672756D01*
X125657372Y-115672756D01*
X125710802Y-115558177D01*
X125710803Y-115558174D01*
X125713682Y-115552000D01*
X125754182Y-115370812D01*
X125754500Y-115365124D01*
X125754500Y-114678615D01*
X125739488Y-114540427D01*
X125680270Y-114364465D01*
X125584649Y-114205323D01*
X125568754Y-114188514D01*
X125461773Y-114075386D01*
X125461771Y-114075384D01*
X125457084Y-114070428D01*
X125303529Y-113966072D01*
X125297195Y-113963539D01*
X125297192Y-113963537D01*
X125137484Y-113899658D01*
X125137479Y-113899657D01*
X125131147Y-113897124D01*
X125124420Y-113896010D01*
X125124415Y-113896009D01*
X124954718Y-113867916D01*
X124954715Y-113867916D01*
X124947981Y-113866801D01*
X124941164Y-113867158D01*
X124941160Y-113867158D01*
X124790080Y-113875077D01*
X124762576Y-113876518D01*
X124756004Y-113878328D01*
X124755999Y-113878329D01*
X124597368Y-113922024D01*
X124583583Y-113925821D01*
X124419352Y-114012410D01*
X124277546Y-114132245D01*
X124273399Y-114137668D01*
X124273398Y-114137670D01*
X124168925Y-114274315D01*
X124168923Y-114274319D01*
X124164781Y-114279736D01*
X124161899Y-114285916D01*
X124161898Y-114285918D01*
X124122254Y-114370936D01*
X124086318Y-114448000D01*
X124045818Y-114629188D01*
X124045500Y-114634876D01*
X124045500Y-115321385D01*
X123754500Y-115321385D01*
X123754500Y-114678615D01*
X123739488Y-114540427D01*
X123680270Y-114364465D01*
X123584649Y-114205323D01*
X123568754Y-114188514D01*
X123461773Y-114075386D01*
X123461771Y-114075384D01*
X123457084Y-114070428D01*
X123303529Y-113966072D01*
X123297195Y-113963539D01*
X123297192Y-113963537D01*
X123137484Y-113899658D01*
X123137479Y-113899657D01*
X123131147Y-113897124D01*
X123124420Y-113896010D01*
X123124415Y-113896009D01*
X122954718Y-113867916D01*
X122954715Y-113867916D01*
X122947981Y-113866801D01*
X122941164Y-113867158D01*
X122941160Y-113867158D01*
X122790080Y-113875077D01*
X122762576Y-113876518D01*
X122756004Y-113878328D01*
X122755999Y-113878329D01*
X122597368Y-113922024D01*
X122583583Y-113925821D01*
X122419352Y-114012410D01*
X122277546Y-114132245D01*
X122273399Y-114137668D01*
X122273398Y-114137670D01*
X122168925Y-114274315D01*
X122168923Y-114274319D01*
X122164781Y-114279736D01*
X122161899Y-114285916D01*
X122161898Y-114285918D01*
X122122254Y-114370936D01*
X122086318Y-114448000D01*
X122045818Y-114629188D01*
X122045500Y-114634876D01*
X122045500Y-115321385D01*
X121754500Y-115321385D01*
X121754500Y-114678615D01*
X121739488Y-114540427D01*
X121680270Y-114364465D01*
X121584649Y-114205323D01*
X121568754Y-114188514D01*
X121461773Y-114075386D01*
X121461771Y-114075384D01*
X121457084Y-114070428D01*
X121303529Y-113966072D01*
X121297195Y-113963539D01*
X121297192Y-113963537D01*
X121137484Y-113899658D01*
X121137479Y-113899657D01*
X121131147Y-113897124D01*
X121124420Y-113896010D01*
X121124415Y-113896009D01*
X120954718Y-113867916D01*
X120954715Y-113867916D01*
X120947981Y-113866801D01*
X120941164Y-113867158D01*
X120941160Y-113867158D01*
X120790080Y-113875077D01*
X120762576Y-113876518D01*
X120756004Y-113878328D01*
X120755999Y-113878329D01*
X120597368Y-113922024D01*
X120583583Y-113925821D01*
X120419352Y-114012410D01*
X120277546Y-114132245D01*
X120273399Y-114137668D01*
X120273398Y-114137670D01*
X120168925Y-114274315D01*
X120168923Y-114274319D01*
X120164781Y-114279736D01*
X120161899Y-114285916D01*
X120161898Y-114285918D01*
X120122254Y-114370936D01*
X120086318Y-114448000D01*
X120045818Y-114629188D01*
X120045500Y-114634876D01*
X120045500Y-115321385D01*
X119754500Y-115321385D01*
X119754500Y-114678615D01*
X119739488Y-114540427D01*
X119680270Y-114364465D01*
X119584649Y-114205323D01*
X119568754Y-114188514D01*
X119461773Y-114075386D01*
X119461771Y-114075384D01*
X119457084Y-114070428D01*
X119303529Y-113966072D01*
X119297195Y-113963539D01*
X119297192Y-113963537D01*
X119137484Y-113899658D01*
X119137479Y-113899657D01*
X119131147Y-113897124D01*
X119124420Y-113896010D01*
X119124415Y-113896009D01*
X118954718Y-113867916D01*
X118954715Y-113867916D01*
X118947981Y-113866801D01*
X118941164Y-113867158D01*
X118941160Y-113867158D01*
X118790080Y-113875077D01*
X118762576Y-113876518D01*
X118756004Y-113878328D01*
X118755999Y-113878329D01*
X118597368Y-113922024D01*
X118583583Y-113925821D01*
X118419352Y-114012410D01*
X118277546Y-114132245D01*
X118273399Y-114137668D01*
X118273398Y-114137670D01*
X118168925Y-114274315D01*
X118168923Y-114274319D01*
X118164781Y-114279736D01*
X118161899Y-114285916D01*
X118161898Y-114285918D01*
X118122254Y-114370936D01*
X118086318Y-114448000D01*
X118045818Y-114629188D01*
X118045500Y-114634876D01*
X118045500Y-115321385D01*
X117754500Y-115321385D01*
X117754500Y-114678615D01*
X117739488Y-114540427D01*
X117680270Y-114364465D01*
X117584649Y-114205323D01*
X117568754Y-114188514D01*
X117461773Y-114075386D01*
X117461771Y-114075384D01*
X117457084Y-114070428D01*
X117303529Y-113966072D01*
X117297195Y-113963539D01*
X117297192Y-113963537D01*
X117137484Y-113899658D01*
X117137479Y-113899657D01*
X117131147Y-113897124D01*
X117124420Y-113896010D01*
X117124415Y-113896009D01*
X116954718Y-113867916D01*
X116954715Y-113867916D01*
X116947981Y-113866801D01*
X116941164Y-113867158D01*
X116941160Y-113867158D01*
X116790080Y-113875077D01*
X116762576Y-113876518D01*
X116756004Y-113878328D01*
X116755999Y-113878329D01*
X116597368Y-113922024D01*
X116583583Y-113925821D01*
X116419352Y-114012410D01*
X116277546Y-114132245D01*
X116273399Y-114137668D01*
X116273398Y-114137670D01*
X116206502Y-114225167D01*
X116149238Y-114267135D01*
X116078374Y-114271480D01*
X116016411Y-114236824D01*
X115986882Y-114188514D01*
X115943412Y-114058216D01*
X115937239Y-114045038D01*
X115851937Y-113907193D01*
X115842901Y-113895792D01*
X115728171Y-113781261D01*
X115716760Y-113772249D01*
X115578757Y-113687184D01*
X115565576Y-113681037D01*
X115411290Y-113629862D01*
X115397914Y-113626995D01*
X115303562Y-113617328D01*
X115297145Y-113617000D01*
X115172115Y-113617000D01*
X115156876Y-113621475D01*
X115155671Y-113622865D01*
X115154000Y-113630548D01*
X115154000Y-116364884D01*
X114646000Y-116364884D01*
X114646000Y-115272115D01*
X114641525Y-115256876D01*
X114640135Y-115255671D01*
X114632452Y-115254000D01*
X113810116Y-115254000D01*
X113794877Y-115258475D01*
X113793672Y-115259865D01*
X113792001Y-115267548D01*
X113792001Y-115672095D01*
X98254500Y-115672095D01*
X98254500Y-114727885D01*
X113792000Y-114727885D01*
X113796475Y-114743124D01*
X113797865Y-114744329D01*
X113805548Y-114746000D01*
X114627885Y-114746000D01*
X114643124Y-114741525D01*
X114644329Y-114740135D01*
X114646000Y-114732452D01*
X114646000Y-113635116D01*
X114641525Y-113619877D01*
X114640135Y-113618672D01*
X114632452Y-113617001D01*
X114502905Y-113617001D01*
X114496386Y-113617338D01*
X114400794Y-113627257D01*
X114387400Y-113630149D01*
X114233216Y-113681588D01*
X114220038Y-113687761D01*
X114082193Y-113773063D01*
X114070792Y-113782099D01*
X113956261Y-113896829D01*
X113947249Y-113908240D01*
X113862184Y-114046243D01*
X113856037Y-114059424D01*
X113804862Y-114213710D01*
X113801995Y-114227086D01*
X113792328Y-114321438D01*
X113792000Y-114327855D01*
X113792000Y-114727885D01*
X98254500Y-114727885D01*
X98254500Y-113293096D01*
X144640729Y-113293096D01*
X144658113Y-113450553D01*
X144712553Y-113599319D01*
X144716789Y-113605622D01*
X144716789Y-113605623D01*
X144771984Y-113687761D01*
X144800908Y-113730805D01*
X144806527Y-113735918D01*
X144806528Y-113735919D01*
X144912460Y-113832309D01*
X144918076Y-113837419D01*
X145057293Y-113913008D01*
X145210522Y-113953207D01*
X145294477Y-113954526D01*
X145361319Y-113955576D01*
X145361322Y-113955576D01*
X145368916Y-113955695D01*
X145523332Y-113920329D01*
X145605570Y-113878968D01*
X145658072Y-113852563D01*
X145658075Y-113852561D01*
X145664855Y-113849151D01*
X145670626Y-113844222D01*
X145670629Y-113844220D01*
X145779536Y-113751204D01*
X145779536Y-113751203D01*
X145785314Y-113746269D01*
X145877755Y-113617624D01*
X145936842Y-113470641D01*
X145959162Y-113313807D01*
X145959307Y-113300000D01*
X145940276Y-113142733D01*
X145884280Y-112994546D01*
X145868794Y-112972014D01*
X145798855Y-112870251D01*
X145798854Y-112870249D01*
X145794553Y-112863992D01*
X145676275Y-112758611D01*
X145668889Y-112754700D01*
X145581043Y-112708188D01*
X145536274Y-112684484D01*
X145382633Y-112645892D01*
X145375034Y-112645852D01*
X145375033Y-112645852D01*
X145309181Y-112645507D01*
X145224221Y-112645062D01*
X145216841Y-112646834D01*
X145216839Y-112646834D01*
X145077563Y-112680271D01*
X145077560Y-112680272D01*
X145070184Y-112682043D01*
X144929414Y-112754700D01*
X144810039Y-112858838D01*
X144718950Y-112988444D01*
X144661406Y-113136037D01*
X144660414Y-113143570D01*
X144660414Y-113143571D01*
X144645653Y-113255695D01*
X144640729Y-113293096D01*
X98254500Y-113293096D01*
X98254500Y-112593096D01*
X109340729Y-112593096D01*
X109346466Y-112645062D01*
X109353436Y-112708188D01*
X109358113Y-112750553D01*
X109360723Y-112757684D01*
X109360723Y-112757686D01*
X109401916Y-112870251D01*
X109412553Y-112899319D01*
X109416789Y-112905622D01*
X109416789Y-112905623D01*
X109472443Y-112988444D01*
X109500908Y-113030805D01*
X109506527Y-113035918D01*
X109506528Y-113035919D01*
X109608776Y-113128957D01*
X109618076Y-113137419D01*
X109757293Y-113213008D01*
X109910522Y-113253207D01*
X109994477Y-113254526D01*
X110061319Y-113255576D01*
X110061322Y-113255576D01*
X110068916Y-113255695D01*
X110223332Y-113220329D01*
X110304856Y-113179327D01*
X110358072Y-113152563D01*
X110358075Y-113152561D01*
X110364855Y-113149151D01*
X110370626Y-113144222D01*
X110370629Y-113144220D01*
X110479536Y-113051204D01*
X110479536Y-113051203D01*
X110485314Y-113046269D01*
X110577755Y-112917624D01*
X110636842Y-112770641D01*
X110646895Y-112700000D01*
X118440715Y-112700000D01*
X118441793Y-112708188D01*
X118450944Y-112777695D01*
X118459772Y-112844754D01*
X118462931Y-112852380D01*
X118487035Y-112910571D01*
X118515645Y-112979642D01*
X118604526Y-113095474D01*
X118611076Y-113100500D01*
X118611079Y-113100503D01*
X118678925Y-113152563D01*
X118720357Y-113184355D01*
X118855246Y-113240228D01*
X119000000Y-113259285D01*
X119008188Y-113258207D01*
X119040152Y-113253999D01*
X119144754Y-113240228D01*
X119279643Y-113184355D01*
X119321075Y-113152563D01*
X119388921Y-113100503D01*
X119388924Y-113100500D01*
X119395474Y-113095474D01*
X119484355Y-112979642D01*
X119512966Y-112910571D01*
X119537069Y-112852380D01*
X119540228Y-112844754D01*
X119549057Y-112777695D01*
X119558207Y-112708188D01*
X119559285Y-112700000D01*
X120440715Y-112700000D01*
X120441793Y-112708188D01*
X120450944Y-112777695D01*
X120459772Y-112844754D01*
X120462931Y-112852380D01*
X120487035Y-112910571D01*
X120515645Y-112979642D01*
X120604526Y-113095474D01*
X120611076Y-113100500D01*
X120611079Y-113100503D01*
X120678925Y-113152563D01*
X120720357Y-113184355D01*
X120855246Y-113240228D01*
X121000000Y-113259285D01*
X121008188Y-113258207D01*
X121040152Y-113253999D01*
X121144754Y-113240228D01*
X121279643Y-113184355D01*
X121321075Y-113152563D01*
X121388921Y-113100503D01*
X121388924Y-113100500D01*
X121395474Y-113095474D01*
X121484355Y-112979642D01*
X121512966Y-112910571D01*
X121537069Y-112852380D01*
X121540228Y-112844754D01*
X121549057Y-112777695D01*
X121558207Y-112708188D01*
X121559285Y-112700000D01*
X122340715Y-112700000D01*
X122341793Y-112708188D01*
X122350944Y-112777695D01*
X122359772Y-112844754D01*
X122362931Y-112852380D01*
X122387035Y-112910571D01*
X122415645Y-112979642D01*
X122504526Y-113095474D01*
X122511076Y-113100500D01*
X122511079Y-113100503D01*
X122578925Y-113152563D01*
X122620357Y-113184355D01*
X122755246Y-113240228D01*
X122900000Y-113259285D01*
X122908188Y-113258207D01*
X122940152Y-113253999D01*
X123044754Y-113240228D01*
X123179643Y-113184355D01*
X123221075Y-113152563D01*
X123288921Y-113100503D01*
X123288924Y-113100500D01*
X123295474Y-113095474D01*
X123384355Y-112979642D01*
X123412966Y-112910571D01*
X123437069Y-112852380D01*
X123440228Y-112844754D01*
X123449057Y-112777695D01*
X123458207Y-112708188D01*
X123459285Y-112700000D01*
X123440228Y-112555246D01*
X123420422Y-112507430D01*
X123387515Y-112427986D01*
X123387514Y-112427984D01*
X123384355Y-112420358D01*
X123295474Y-112304526D01*
X123288924Y-112299500D01*
X123288921Y-112299497D01*
X123186196Y-112220673D01*
X123186194Y-112220672D01*
X123179643Y-112215645D01*
X123044754Y-112159772D01*
X122900000Y-112140715D01*
X122891812Y-112141793D01*
X122763432Y-112158694D01*
X122763430Y-112158695D01*
X122755246Y-112159772D01*
X122742499Y-112165052D01*
X122627986Y-112212485D01*
X122627984Y-112212486D01*
X122620358Y-112215645D01*
X122504526Y-112304526D01*
X122415645Y-112420358D01*
X122412486Y-112427984D01*
X122412485Y-112427986D01*
X122379578Y-112507430D01*
X122359772Y-112555246D01*
X122340715Y-112700000D01*
X121559285Y-112700000D01*
X121540228Y-112555246D01*
X121520422Y-112507430D01*
X121487515Y-112427986D01*
X121487514Y-112427984D01*
X121484355Y-112420358D01*
X121395474Y-112304526D01*
X121388924Y-112299500D01*
X121388921Y-112299497D01*
X121286196Y-112220673D01*
X121286194Y-112220672D01*
X121279643Y-112215645D01*
X121144754Y-112159772D01*
X121000000Y-112140715D01*
X120991812Y-112141793D01*
X120863432Y-112158694D01*
X120863430Y-112158695D01*
X120855246Y-112159772D01*
X120842499Y-112165052D01*
X120727986Y-112212485D01*
X120727984Y-112212486D01*
X120720358Y-112215645D01*
X120604526Y-112304526D01*
X120515645Y-112420358D01*
X120512486Y-112427984D01*
X120512485Y-112427986D01*
X120479578Y-112507430D01*
X120459772Y-112555246D01*
X120440715Y-112700000D01*
X119559285Y-112700000D01*
X119540228Y-112555246D01*
X119520422Y-112507430D01*
X119487515Y-112427986D01*
X119487514Y-112427984D01*
X119484355Y-112420358D01*
X119395474Y-112304526D01*
X119388924Y-112299500D01*
X119388921Y-112299497D01*
X119286196Y-112220673D01*
X119286194Y-112220672D01*
X119279643Y-112215645D01*
X119144754Y-112159772D01*
X119000000Y-112140715D01*
X118991812Y-112141793D01*
X118863432Y-112158694D01*
X118863430Y-112158695D01*
X118855246Y-112159772D01*
X118842499Y-112165052D01*
X118727986Y-112212485D01*
X118727984Y-112212486D01*
X118720358Y-112215645D01*
X118604526Y-112304526D01*
X118515645Y-112420358D01*
X118512486Y-112427984D01*
X118512485Y-112427986D01*
X118479578Y-112507430D01*
X118459772Y-112555246D01*
X118440715Y-112700000D01*
X110646895Y-112700000D01*
X110649703Y-112680271D01*
X110658581Y-112617891D01*
X110658581Y-112617888D01*
X110659162Y-112613807D01*
X110659307Y-112600000D01*
X110640276Y-112442733D01*
X110584280Y-112294546D01*
X110494553Y-112163992D01*
X110376275Y-112058611D01*
X110368889Y-112054700D01*
X110242988Y-111988039D01*
X110242989Y-111988039D01*
X110236274Y-111984484D01*
X110082633Y-111945892D01*
X110075034Y-111945852D01*
X110075033Y-111945852D01*
X110009181Y-111945507D01*
X109924221Y-111945062D01*
X109916841Y-111946834D01*
X109916839Y-111946834D01*
X109777563Y-111980271D01*
X109777560Y-111980272D01*
X109770184Y-111982043D01*
X109629414Y-112054700D01*
X109510039Y-112158838D01*
X109418950Y-112288444D01*
X109361406Y-112436037D01*
X109340729Y-112593096D01*
X98254500Y-112593096D01*
X98254500Y-109367399D01*
X99699712Y-109367399D01*
X99721194Y-109456537D01*
X99725083Y-109467832D01*
X99807629Y-109649382D01*
X99813576Y-109659724D01*
X99928968Y-109822397D01*
X99936761Y-109831425D01*
X100080831Y-109969342D01*
X100090196Y-109976738D01*
X100257741Y-110084921D01*
X100268345Y-110090417D01*
X100453312Y-110164961D01*
X100464770Y-110168355D01*
X100661928Y-110206857D01*
X100670791Y-110207934D01*
X100673500Y-110208000D01*
X100777885Y-110208000D01*
X100793124Y-110203525D01*
X100794329Y-110202135D01*
X100796000Y-110194452D01*
X100796000Y-110189885D01*
X101304000Y-110189885D01*
X101308475Y-110205124D01*
X101309865Y-110206329D01*
X101317548Y-110208000D01*
X101374832Y-110208000D01*
X101380808Y-110207715D01*
X101529494Y-110193529D01*
X101541228Y-110191270D01*
X101732599Y-110135128D01*
X101743675Y-110130698D01*
X101920978Y-110039381D01*
X101931024Y-110032931D01*
X102087857Y-109909738D01*
X102096506Y-109901501D01*
X102227212Y-109750877D01*
X102234147Y-109741153D01*
X102334010Y-109568533D01*
X102338984Y-109557669D01*
X102404407Y-109369273D01*
X102404648Y-109368284D01*
X102403180Y-109357992D01*
X102389615Y-109354000D01*
X101322115Y-109354000D01*
X101306876Y-109358475D01*
X101305671Y-109359865D01*
X101304000Y-109367548D01*
X101304000Y-110189885D01*
X100796000Y-110189885D01*
X100796000Y-109372115D01*
X100791525Y-109356876D01*
X100790135Y-109355671D01*
X100782452Y-109354000D01*
X99714598Y-109354000D01*
X99701067Y-109357973D01*
X99699712Y-109367399D01*
X98254500Y-109367399D01*
X98254500Y-109135964D01*
X106716148Y-109135964D01*
X106729424Y-109338522D01*
X106730845Y-109344118D01*
X106730846Y-109344123D01*
X106774731Y-109516916D01*
X106779392Y-109535269D01*
X106781809Y-109540512D01*
X106818905Y-109620980D01*
X106864377Y-109719616D01*
X106867710Y-109724332D01*
X106934469Y-109818794D01*
X106981533Y-109885389D01*
X106985675Y-109889424D01*
X107006528Y-109909738D01*
X107126938Y-110027035D01*
X107295720Y-110139812D01*
X107301023Y-110142090D01*
X107301026Y-110142092D01*
X107460274Y-110210510D01*
X107482228Y-110219942D01*
X107542075Y-110233484D01*
X107674579Y-110263467D01*
X107674584Y-110263468D01*
X107680216Y-110264742D01*
X107685987Y-110264969D01*
X107685989Y-110264969D01*
X107745756Y-110267317D01*
X107883053Y-110272712D01*
X107996817Y-110256217D01*
X108078231Y-110244413D01*
X108078236Y-110244412D01*
X108083945Y-110243584D01*
X108089409Y-110241729D01*
X108089414Y-110241728D01*
X108270693Y-110180192D01*
X108270698Y-110180190D01*
X108276165Y-110178334D01*
X108453276Y-110079147D01*
X108465625Y-110068877D01*
X108585301Y-109969342D01*
X108609345Y-109949345D01*
X108681837Y-109862183D01*
X108735453Y-109797718D01*
X108735455Y-109797715D01*
X108739147Y-109793276D01*
X108838334Y-109616165D01*
X108840720Y-109609135D01*
X108841170Y-109608496D01*
X108842541Y-109605416D01*
X108843146Y-109605685D01*
X108881553Y-109551059D01*
X108947305Y-109524278D01*
X109017098Y-109537295D01*
X109068773Y-109585980D01*
X109076777Y-109602229D01*
X109146770Y-109774603D01*
X109151413Y-109783794D01*
X109262694Y-109965388D01*
X109268777Y-109973699D01*
X109408213Y-110134667D01*
X109415580Y-110141883D01*
X109579434Y-110277916D01*
X109587881Y-110283831D01*
X109771756Y-110391279D01*
X109781042Y-110395729D01*
X109980001Y-110471703D01*
X109989899Y-110474579D01*
X110093250Y-110495606D01*
X110107299Y-110494410D01*
X110111000Y-110484065D01*
X110111000Y-110483517D01*
X110619000Y-110483517D01*
X110623064Y-110497359D01*
X110636478Y-110499393D01*
X110643184Y-110498534D01*
X110653262Y-110496392D01*
X110857255Y-110435191D01*
X110866842Y-110431433D01*
X111058095Y-110337739D01*
X111066945Y-110332464D01*
X111240328Y-110208792D01*
X111248200Y-110202139D01*
X111399052Y-110051812D01*
X111405730Y-110043965D01*
X111530003Y-109871020D01*
X111535313Y-109862183D01*
X111629670Y-109671267D01*
X111633469Y-109661672D01*
X111695377Y-109457910D01*
X111697555Y-109447837D01*
X111698986Y-109436962D01*
X111696775Y-109422778D01*
X111683617Y-109419000D01*
X110637115Y-109419000D01*
X110621876Y-109423475D01*
X110620671Y-109424865D01*
X110619000Y-109432548D01*
X110619000Y-110483517D01*
X110111000Y-110483517D01*
X110111000Y-109037000D01*
X110131002Y-108968879D01*
X110184658Y-108922386D01*
X110237000Y-108911000D01*
X111683344Y-108911000D01*
X111696875Y-108907027D01*
X111698180Y-108897947D01*
X111696962Y-108893096D01*
X115540729Y-108893096D01*
X115546570Y-108946000D01*
X115556617Y-109037000D01*
X115558113Y-109050553D01*
X115560723Y-109057684D01*
X115560723Y-109057686D01*
X115604287Y-109176730D01*
X115612553Y-109199319D01*
X115616789Y-109205622D01*
X115616789Y-109205623D01*
X115652021Y-109258053D01*
X115700908Y-109330805D01*
X115706527Y-109335918D01*
X115706528Y-109335919D01*
X115803268Y-109423945D01*
X115818076Y-109437419D01*
X115957293Y-109513008D01*
X116110522Y-109553207D01*
X116194477Y-109554526D01*
X116261319Y-109555576D01*
X116261322Y-109555576D01*
X116268916Y-109555695D01*
X116423332Y-109520329D01*
X116527712Y-109467832D01*
X116558072Y-109452563D01*
X116558075Y-109452561D01*
X116564855Y-109449151D01*
X116570626Y-109444222D01*
X116570629Y-109444220D01*
X116679536Y-109351204D01*
X116679536Y-109351203D01*
X116685314Y-109346269D01*
X116777755Y-109217624D01*
X116836842Y-109070641D01*
X116852181Y-108962859D01*
X116858581Y-108917891D01*
X116858581Y-108917888D01*
X116859162Y-108913807D01*
X116859307Y-108900000D01*
X116840276Y-108742733D01*
X116784280Y-108594546D01*
X116754089Y-108550618D01*
X116698855Y-108470251D01*
X116698854Y-108470249D01*
X116694553Y-108463992D01*
X116683176Y-108453855D01*
X116643892Y-108418855D01*
X116576275Y-108358611D01*
X116568889Y-108354700D01*
X116512669Y-108324933D01*
X129395500Y-108324933D01*
X129395501Y-110075066D01*
X129410266Y-110149301D01*
X129417161Y-110159620D01*
X129417162Y-110159622D01*
X129455944Y-110217662D01*
X129466516Y-110233484D01*
X129550699Y-110289734D01*
X129624933Y-110304500D01*
X130499858Y-110304500D01*
X131375066Y-110304499D01*
X131410818Y-110297388D01*
X131437126Y-110292156D01*
X131437128Y-110292155D01*
X131449301Y-110289734D01*
X131459621Y-110282839D01*
X131459622Y-110282838D01*
X131523168Y-110240377D01*
X131533484Y-110233484D01*
X131589734Y-110149301D01*
X131604500Y-110075067D01*
X131604499Y-109170964D01*
X131931148Y-109170964D01*
X131944424Y-109373522D01*
X131945845Y-109379118D01*
X131945846Y-109379123D01*
X131989513Y-109551059D01*
X131994392Y-109570269D01*
X131996809Y-109575512D01*
X132034010Y-109656208D01*
X132079377Y-109754616D01*
X132082710Y-109759332D01*
X132189006Y-109909738D01*
X132196533Y-109920389D01*
X132341938Y-110062035D01*
X132510720Y-110174812D01*
X132516023Y-110177090D01*
X132516026Y-110177092D01*
X132672721Y-110244413D01*
X132697228Y-110254942D01*
X132770244Y-110271464D01*
X132889579Y-110298467D01*
X132889584Y-110298468D01*
X132895216Y-110299742D01*
X132900987Y-110299969D01*
X132900989Y-110299969D01*
X132960756Y-110302317D01*
X133098053Y-110307712D01*
X133205348Y-110292155D01*
X133293231Y-110279413D01*
X133293236Y-110279412D01*
X133298945Y-110278584D01*
X133304409Y-110276729D01*
X133304414Y-110276728D01*
X133485693Y-110215192D01*
X133485698Y-110215190D01*
X133491165Y-110213334D01*
X133499276Y-110208792D01*
X133577541Y-110164961D01*
X133668276Y-110114147D01*
X133703417Y-110084921D01*
X133795696Y-110008172D01*
X133824345Y-109984345D01*
X133881463Y-109915669D01*
X133950453Y-109832718D01*
X133950455Y-109832715D01*
X133954147Y-109828276D01*
X134053334Y-109651165D01*
X134055190Y-109645698D01*
X134055192Y-109645693D01*
X134116728Y-109464414D01*
X134116729Y-109464409D01*
X134118584Y-109458945D01*
X134119412Y-109453236D01*
X134119413Y-109453231D01*
X134147179Y-109261727D01*
X134147712Y-109258053D01*
X134149232Y-109200000D01*
X134146564Y-109170964D01*
X134471148Y-109170964D01*
X134484424Y-109373522D01*
X134485845Y-109379118D01*
X134485846Y-109379123D01*
X134529513Y-109551059D01*
X134534392Y-109570269D01*
X134536809Y-109575512D01*
X134574010Y-109656208D01*
X134619377Y-109754616D01*
X134622710Y-109759332D01*
X134729006Y-109909738D01*
X134736533Y-109920389D01*
X134881938Y-110062035D01*
X135050720Y-110174812D01*
X135056023Y-110177090D01*
X135056026Y-110177092D01*
X135212721Y-110244413D01*
X135237228Y-110254942D01*
X135310244Y-110271464D01*
X135429579Y-110298467D01*
X135429584Y-110298468D01*
X135435216Y-110299742D01*
X135440987Y-110299969D01*
X135440989Y-110299969D01*
X135500756Y-110302317D01*
X135638053Y-110307712D01*
X135745348Y-110292155D01*
X135833231Y-110279413D01*
X135833236Y-110279412D01*
X135838945Y-110278584D01*
X135844409Y-110276729D01*
X135844414Y-110276728D01*
X136025693Y-110215192D01*
X136025698Y-110215190D01*
X136031165Y-110213334D01*
X136039276Y-110208792D01*
X136117541Y-110164961D01*
X136208276Y-110114147D01*
X136243417Y-110084921D01*
X136335696Y-110008172D01*
X136364345Y-109984345D01*
X136421463Y-109915669D01*
X136490453Y-109832718D01*
X136490455Y-109832715D01*
X136494147Y-109828276D01*
X136593334Y-109651165D01*
X136595720Y-109644135D01*
X136596170Y-109643496D01*
X136597541Y-109640416D01*
X136598146Y-109640685D01*
X136636553Y-109586059D01*
X136702305Y-109559278D01*
X136772098Y-109572295D01*
X136823773Y-109620980D01*
X136831777Y-109637229D01*
X136901770Y-109809603D01*
X136906413Y-109818794D01*
X137017694Y-110000388D01*
X137023777Y-110008699D01*
X137163213Y-110169667D01*
X137170580Y-110176883D01*
X137334434Y-110312916D01*
X137342881Y-110318831D01*
X137526756Y-110426279D01*
X137536042Y-110430729D01*
X137735001Y-110506703D01*
X137744899Y-110509579D01*
X137848250Y-110530606D01*
X137862299Y-110529410D01*
X137866000Y-110519065D01*
X137866000Y-110518517D01*
X138374000Y-110518517D01*
X138378064Y-110532359D01*
X138391478Y-110534393D01*
X138398184Y-110533534D01*
X138408262Y-110531392D01*
X138612255Y-110470191D01*
X138621842Y-110466433D01*
X138813095Y-110372739D01*
X138821945Y-110367464D01*
X138995328Y-110243792D01*
X139003200Y-110237139D01*
X139154052Y-110086812D01*
X139160730Y-110078965D01*
X139285003Y-109906020D01*
X139290313Y-109897183D01*
X139384670Y-109706267D01*
X139388469Y-109696672D01*
X139450377Y-109492910D01*
X139452555Y-109482837D01*
X139453986Y-109471962D01*
X139451775Y-109457778D01*
X139438617Y-109454000D01*
X138392115Y-109454000D01*
X138376876Y-109458475D01*
X138375671Y-109459865D01*
X138374000Y-109467548D01*
X138374000Y-110518517D01*
X137866000Y-110518517D01*
X137866000Y-108927885D01*
X138374000Y-108927885D01*
X138378475Y-108943124D01*
X138379865Y-108944329D01*
X138387548Y-108946000D01*
X139438344Y-108946000D01*
X139451875Y-108942027D01*
X139453180Y-108932947D01*
X139411214Y-108765875D01*
X139407894Y-108756124D01*
X139322972Y-108560814D01*
X139318105Y-108551739D01*
X139202426Y-108372926D01*
X139196136Y-108364757D01*
X139052806Y-108207240D01*
X139045273Y-108200215D01*
X138878139Y-108068222D01*
X138869552Y-108062517D01*
X138832116Y-108041851D01*
X138782146Y-107991419D01*
X138767374Y-107921976D01*
X138792490Y-107855571D01*
X138819842Y-107828964D01*
X138995327Y-107703792D01*
X139003200Y-107697139D01*
X139154052Y-107546812D01*
X139160730Y-107538965D01*
X139285003Y-107366020D01*
X139290313Y-107357183D01*
X139384670Y-107166267D01*
X139388469Y-107156672D01*
X139450377Y-106952910D01*
X139452555Y-106942837D01*
X139453986Y-106931962D01*
X139451775Y-106917778D01*
X139438617Y-106914000D01*
X138392115Y-106914000D01*
X138376876Y-106918475D01*
X138375671Y-106919865D01*
X138374000Y-106927548D01*
X138374000Y-108927885D01*
X137866000Y-108927885D01*
X137866000Y-106387885D01*
X138374000Y-106387885D01*
X138378475Y-106403124D01*
X138379865Y-106404329D01*
X138387548Y-106406000D01*
X139438344Y-106406000D01*
X139451875Y-106402027D01*
X139453180Y-106392947D01*
X139411214Y-106225875D01*
X139407894Y-106216124D01*
X139322972Y-106020814D01*
X139318105Y-106011739D01*
X139202426Y-105832926D01*
X139196136Y-105824757D01*
X139052806Y-105667240D01*
X139045273Y-105660215D01*
X138878139Y-105528222D01*
X138869552Y-105522517D01*
X138683117Y-105419599D01*
X138673705Y-105415369D01*
X138472959Y-105344280D01*
X138462988Y-105341646D01*
X138391837Y-105328972D01*
X138378540Y-105330432D01*
X138374000Y-105344989D01*
X138374000Y-106387885D01*
X137866000Y-106387885D01*
X137866000Y-105343102D01*
X137862082Y-105329758D01*
X137847806Y-105327771D01*
X137809324Y-105333660D01*
X137799288Y-105336051D01*
X137596868Y-105402212D01*
X137587359Y-105406209D01*
X137398463Y-105504542D01*
X137389738Y-105510036D01*
X137219433Y-105637905D01*
X137211726Y-105644748D01*
X137064590Y-105798717D01*
X137058104Y-105806727D01*
X136938098Y-105982649D01*
X136933000Y-105991623D01*
X136843338Y-106184783D01*
X136839777Y-106194464D01*
X136835291Y-106210640D01*
X136797813Y-106270939D01*
X136733684Y-106301403D01*
X136663266Y-106292360D01*
X136608915Y-106246682D01*
X136600867Y-106232698D01*
X136528331Y-106085609D01*
X136525776Y-106080428D01*
X136404320Y-105917779D01*
X136312527Y-105832926D01*
X136259503Y-105783911D01*
X136255258Y-105779987D01*
X136250375Y-105776906D01*
X136250371Y-105776903D01*
X136088464Y-105674748D01*
X136083581Y-105671667D01*
X135895039Y-105596446D01*
X135889379Y-105595320D01*
X135889375Y-105595319D01*
X135701613Y-105557971D01*
X135701610Y-105557971D01*
X135695946Y-105556844D01*
X135690171Y-105556768D01*
X135690167Y-105556768D01*
X135588793Y-105555441D01*
X135492971Y-105554187D01*
X135487274Y-105555166D01*
X135487273Y-105555166D01*
X135457285Y-105560319D01*
X135292910Y-105588564D01*
X135102463Y-105658824D01*
X134928010Y-105762612D01*
X134923670Y-105766418D01*
X134923666Y-105766421D01*
X134810129Y-105865991D01*
X134775392Y-105896455D01*
X134649720Y-106055869D01*
X134647031Y-106060980D01*
X134647029Y-106060983D01*
X134634073Y-106085609D01*
X134555203Y-106235515D01*
X134495007Y-106429378D01*
X134471148Y-106630964D01*
X134484424Y-106833522D01*
X134485845Y-106839118D01*
X134485846Y-106839123D01*
X134531601Y-107019278D01*
X134534392Y-107030269D01*
X134536809Y-107035512D01*
X134574010Y-107116208D01*
X134619377Y-107214616D01*
X134622710Y-107219332D01*
X134711798Y-107345389D01*
X134736533Y-107380389D01*
X134881938Y-107522035D01*
X135050720Y-107634812D01*
X135056023Y-107637090D01*
X135056026Y-107637092D01*
X135220693Y-107707838D01*
X135237228Y-107714942D01*
X135296231Y-107728293D01*
X135429579Y-107758467D01*
X135429584Y-107758468D01*
X135435216Y-107759742D01*
X135440987Y-107759969D01*
X135440989Y-107759969D01*
X135500756Y-107762317D01*
X135638053Y-107767712D01*
X135738499Y-107753148D01*
X135833231Y-107739413D01*
X135833236Y-107739412D01*
X135838945Y-107738584D01*
X135844409Y-107736729D01*
X135844414Y-107736728D01*
X136025693Y-107675192D01*
X136025698Y-107675190D01*
X136031165Y-107673334D01*
X136045374Y-107665377D01*
X136109138Y-107629667D01*
X136208276Y-107574147D01*
X136222728Y-107562128D01*
X136335696Y-107468172D01*
X136364345Y-107444345D01*
X136436837Y-107357183D01*
X136490453Y-107292718D01*
X136490455Y-107292715D01*
X136494147Y-107288276D01*
X136593334Y-107111165D01*
X136595720Y-107104135D01*
X136596170Y-107103496D01*
X136597541Y-107100416D01*
X136598146Y-107100685D01*
X136636553Y-107046059D01*
X136702305Y-107019278D01*
X136772098Y-107032295D01*
X136823773Y-107080980D01*
X136831777Y-107097229D01*
X136901770Y-107269603D01*
X136906413Y-107278794D01*
X137017694Y-107460388D01*
X137023777Y-107468699D01*
X137163213Y-107629667D01*
X137170580Y-107636883D01*
X137334434Y-107772916D01*
X137342881Y-107778831D01*
X137412479Y-107819501D01*
X137461203Y-107871140D01*
X137474274Y-107940923D01*
X137447543Y-108006694D01*
X137407087Y-108040053D01*
X137398462Y-108044542D01*
X137389738Y-108050036D01*
X137219433Y-108177905D01*
X137211726Y-108184748D01*
X137064590Y-108338717D01*
X137058104Y-108346727D01*
X136938098Y-108522649D01*
X136933000Y-108531623D01*
X136843338Y-108724783D01*
X136839777Y-108734464D01*
X136835291Y-108750640D01*
X136797813Y-108810939D01*
X136733684Y-108841403D01*
X136663266Y-108832360D01*
X136608915Y-108786682D01*
X136600867Y-108772698D01*
X136528331Y-108625609D01*
X136525776Y-108620428D01*
X136404320Y-108457779D01*
X136255258Y-108319987D01*
X136250375Y-108316906D01*
X136250371Y-108316903D01*
X136088464Y-108214748D01*
X136083581Y-108211667D01*
X135895039Y-108136446D01*
X135889379Y-108135320D01*
X135889375Y-108135319D01*
X135701613Y-108097971D01*
X135701610Y-108097971D01*
X135695946Y-108096844D01*
X135690171Y-108096768D01*
X135690167Y-108096768D01*
X135588793Y-108095441D01*
X135492971Y-108094187D01*
X135487274Y-108095166D01*
X135487273Y-108095166D01*
X135359271Y-108117161D01*
X135292910Y-108128564D01*
X135102463Y-108198824D01*
X134928010Y-108302612D01*
X134923670Y-108306418D01*
X134923666Y-108306421D01*
X134810129Y-108405991D01*
X134775392Y-108436455D01*
X134771817Y-108440990D01*
X134771816Y-108440991D01*
X134757665Y-108458941D01*
X134649720Y-108595869D01*
X134647031Y-108600980D01*
X134647029Y-108600983D01*
X134634073Y-108625609D01*
X134555203Y-108775515D01*
X134495007Y-108969378D01*
X134471148Y-109170964D01*
X134146564Y-109170964D01*
X134130658Y-108997859D01*
X134129090Y-108992299D01*
X134077125Y-108808046D01*
X134077124Y-108808044D01*
X134075557Y-108802487D01*
X134064978Y-108781033D01*
X133988331Y-108625609D01*
X133985776Y-108620428D01*
X133864320Y-108457779D01*
X133715258Y-108319987D01*
X133710375Y-108316906D01*
X133710371Y-108316903D01*
X133548464Y-108214748D01*
X133543581Y-108211667D01*
X133355039Y-108136446D01*
X133349379Y-108135320D01*
X133349375Y-108135319D01*
X133161613Y-108097971D01*
X133161610Y-108097971D01*
X133155946Y-108096844D01*
X133150171Y-108096768D01*
X133150167Y-108096768D01*
X133048793Y-108095441D01*
X132952971Y-108094187D01*
X132947274Y-108095166D01*
X132947273Y-108095166D01*
X132819271Y-108117161D01*
X132752910Y-108128564D01*
X132562463Y-108198824D01*
X132388010Y-108302612D01*
X132383670Y-108306418D01*
X132383666Y-108306421D01*
X132270129Y-108405991D01*
X132235392Y-108436455D01*
X132231817Y-108440990D01*
X132231816Y-108440991D01*
X132217665Y-108458941D01*
X132109720Y-108595869D01*
X132107031Y-108600980D01*
X132107029Y-108600983D01*
X132094073Y-108625609D01*
X132015203Y-108775515D01*
X131955007Y-108969378D01*
X131931148Y-109170964D01*
X131604499Y-109170964D01*
X131604499Y-108324934D01*
X131593098Y-108267612D01*
X131592156Y-108262874D01*
X131592155Y-108262872D01*
X131589734Y-108250699D01*
X131563654Y-108211667D01*
X131540377Y-108176832D01*
X131533484Y-108166516D01*
X131449301Y-108110266D01*
X131375067Y-108095500D01*
X130500142Y-108095500D01*
X129624934Y-108095501D01*
X129595044Y-108101446D01*
X129562874Y-108107844D01*
X129562872Y-108107845D01*
X129550699Y-108110266D01*
X129540379Y-108117161D01*
X129540378Y-108117162D01*
X129501852Y-108142905D01*
X129466516Y-108166516D01*
X129410266Y-108250699D01*
X129395500Y-108324933D01*
X116512669Y-108324933D01*
X116464931Y-108299657D01*
X116436274Y-108284484D01*
X116282633Y-108245892D01*
X116275034Y-108245852D01*
X116275033Y-108245852D01*
X116209181Y-108245507D01*
X116124221Y-108245062D01*
X116116841Y-108246834D01*
X116116839Y-108246834D01*
X115977563Y-108280271D01*
X115977560Y-108280272D01*
X115970184Y-108282043D01*
X115829414Y-108354700D01*
X115710039Y-108458838D01*
X115618950Y-108588444D01*
X115613802Y-108601649D01*
X115565794Y-108724783D01*
X115561406Y-108736037D01*
X115560414Y-108743570D01*
X115560414Y-108743571D01*
X115547455Y-108842008D01*
X115540729Y-108893096D01*
X111696962Y-108893096D01*
X111656214Y-108730875D01*
X111652894Y-108721124D01*
X111567972Y-108525814D01*
X111563105Y-108516739D01*
X111447426Y-108337926D01*
X111441136Y-108329757D01*
X111297806Y-108172240D01*
X111290273Y-108165215D01*
X111123139Y-108033222D01*
X111114552Y-108027517D01*
X110928117Y-107924599D01*
X110918705Y-107920369D01*
X110804391Y-107879888D01*
X110746855Y-107838294D01*
X110720939Y-107772196D01*
X110734873Y-107702580D01*
X110784232Y-107651549D01*
X110805943Y-107641804D01*
X110816165Y-107638334D01*
X110993276Y-107539147D01*
X111009992Y-107525245D01*
X111144913Y-107413031D01*
X111149345Y-107409345D01*
X111219981Y-107324415D01*
X111275453Y-107257718D01*
X111275455Y-107257715D01*
X111279147Y-107253276D01*
X111378334Y-107076165D01*
X111380190Y-107070698D01*
X111380192Y-107070693D01*
X111441728Y-106889414D01*
X111441729Y-106889409D01*
X111443584Y-106883945D01*
X111444412Y-106878236D01*
X111444413Y-106878231D01*
X111461991Y-106756996D01*
X111472712Y-106683053D01*
X111474076Y-106630964D01*
X129391148Y-106630964D01*
X129404424Y-106833522D01*
X129405845Y-106839118D01*
X129405846Y-106839123D01*
X129451601Y-107019278D01*
X129454392Y-107030269D01*
X129456809Y-107035512D01*
X129494010Y-107116208D01*
X129539377Y-107214616D01*
X129542710Y-107219332D01*
X129631798Y-107345389D01*
X129656533Y-107380389D01*
X129801938Y-107522035D01*
X129970720Y-107634812D01*
X129976023Y-107637090D01*
X129976026Y-107637092D01*
X130140693Y-107707838D01*
X130157228Y-107714942D01*
X130216231Y-107728293D01*
X130349579Y-107758467D01*
X130349584Y-107758468D01*
X130355216Y-107759742D01*
X130360987Y-107759969D01*
X130360989Y-107759969D01*
X130420756Y-107762317D01*
X130558053Y-107767712D01*
X130658499Y-107753148D01*
X130753231Y-107739413D01*
X130753236Y-107739412D01*
X130758945Y-107738584D01*
X130764409Y-107736729D01*
X130764414Y-107736728D01*
X130945693Y-107675192D01*
X130945698Y-107675190D01*
X130951165Y-107673334D01*
X130965374Y-107665377D01*
X131029138Y-107629667D01*
X131128276Y-107574147D01*
X131142728Y-107562128D01*
X131255696Y-107468172D01*
X131284345Y-107444345D01*
X131356837Y-107357183D01*
X131410453Y-107292718D01*
X131410455Y-107292715D01*
X131414147Y-107288276D01*
X131513334Y-107111165D01*
X131515190Y-107105698D01*
X131515192Y-107105693D01*
X131576728Y-106924414D01*
X131576729Y-106924409D01*
X131578584Y-106918945D01*
X131579412Y-106913236D01*
X131579413Y-106913231D01*
X131607179Y-106721727D01*
X131607712Y-106718053D01*
X131609232Y-106660000D01*
X131606564Y-106630964D01*
X131931148Y-106630964D01*
X131944424Y-106833522D01*
X131945845Y-106839118D01*
X131945846Y-106839123D01*
X131991601Y-107019278D01*
X131994392Y-107030269D01*
X131996809Y-107035512D01*
X132034010Y-107116208D01*
X132079377Y-107214616D01*
X132082710Y-107219332D01*
X132171798Y-107345389D01*
X132196533Y-107380389D01*
X132341938Y-107522035D01*
X132510720Y-107634812D01*
X132516023Y-107637090D01*
X132516026Y-107637092D01*
X132680693Y-107707838D01*
X132697228Y-107714942D01*
X132756231Y-107728293D01*
X132889579Y-107758467D01*
X132889584Y-107758468D01*
X132895216Y-107759742D01*
X132900987Y-107759969D01*
X132900989Y-107759969D01*
X132960756Y-107762317D01*
X133098053Y-107767712D01*
X133198499Y-107753148D01*
X133293231Y-107739413D01*
X133293236Y-107739412D01*
X133298945Y-107738584D01*
X133304409Y-107736729D01*
X133304414Y-107736728D01*
X133485693Y-107675192D01*
X133485698Y-107675190D01*
X133491165Y-107673334D01*
X133505374Y-107665377D01*
X133569138Y-107629667D01*
X133668276Y-107574147D01*
X133682728Y-107562128D01*
X133795696Y-107468172D01*
X133824345Y-107444345D01*
X133896837Y-107357183D01*
X133950453Y-107292718D01*
X133950455Y-107292715D01*
X133954147Y-107288276D01*
X134053334Y-107111165D01*
X134055190Y-107105698D01*
X134055192Y-107105693D01*
X134116728Y-106924414D01*
X134116729Y-106924409D01*
X134118584Y-106918945D01*
X134119412Y-106913236D01*
X134119413Y-106913231D01*
X134147179Y-106721727D01*
X134147712Y-106718053D01*
X134149232Y-106660000D01*
X134130658Y-106457859D01*
X134129090Y-106452299D01*
X134077125Y-106268046D01*
X134077124Y-106268044D01*
X134075557Y-106262487D01*
X134067893Y-106246944D01*
X133988331Y-106085609D01*
X133985776Y-106080428D01*
X133864320Y-105917779D01*
X133772527Y-105832926D01*
X133719503Y-105783911D01*
X133715258Y-105779987D01*
X133710375Y-105776906D01*
X133710371Y-105776903D01*
X133548464Y-105674748D01*
X133543581Y-105671667D01*
X133355039Y-105596446D01*
X133349379Y-105595320D01*
X133349375Y-105595319D01*
X133161613Y-105557971D01*
X133161610Y-105557971D01*
X133155946Y-105556844D01*
X133150171Y-105556768D01*
X133150167Y-105556768D01*
X133048793Y-105555441D01*
X132952971Y-105554187D01*
X132947274Y-105555166D01*
X132947273Y-105555166D01*
X132917285Y-105560319D01*
X132752910Y-105588564D01*
X132562463Y-105658824D01*
X132388010Y-105762612D01*
X132383670Y-105766418D01*
X132383666Y-105766421D01*
X132270129Y-105865991D01*
X132235392Y-105896455D01*
X132109720Y-106055869D01*
X132107031Y-106060980D01*
X132107029Y-106060983D01*
X132094073Y-106085609D01*
X132015203Y-106235515D01*
X131955007Y-106429378D01*
X131931148Y-106630964D01*
X131606564Y-106630964D01*
X131590658Y-106457859D01*
X131589090Y-106452299D01*
X131537125Y-106268046D01*
X131537124Y-106268044D01*
X131535557Y-106262487D01*
X131527893Y-106246944D01*
X131448331Y-106085609D01*
X131445776Y-106080428D01*
X131324320Y-105917779D01*
X131232527Y-105832926D01*
X131179503Y-105783911D01*
X131175258Y-105779987D01*
X131170375Y-105776906D01*
X131170371Y-105776903D01*
X131008464Y-105674748D01*
X131003581Y-105671667D01*
X130815039Y-105596446D01*
X130809379Y-105595320D01*
X130809375Y-105595319D01*
X130621613Y-105557971D01*
X130621610Y-105557971D01*
X130615946Y-105556844D01*
X130610171Y-105556768D01*
X130610167Y-105556768D01*
X130508793Y-105555441D01*
X130412971Y-105554187D01*
X130407274Y-105555166D01*
X130407273Y-105555166D01*
X130377285Y-105560319D01*
X130212910Y-105588564D01*
X130022463Y-105658824D01*
X129848010Y-105762612D01*
X129843670Y-105766418D01*
X129843666Y-105766421D01*
X129730129Y-105865991D01*
X129695392Y-105896455D01*
X129569720Y-106055869D01*
X129567031Y-106060980D01*
X129567029Y-106060983D01*
X129554073Y-106085609D01*
X129475203Y-106235515D01*
X129415007Y-106429378D01*
X129391148Y-106630964D01*
X111474076Y-106630964D01*
X111474232Y-106625000D01*
X111455658Y-106422859D01*
X111449783Y-106402027D01*
X111402125Y-106233046D01*
X111402124Y-106233044D01*
X111400557Y-106227487D01*
X111394954Y-106216124D01*
X111313331Y-106050609D01*
X111310776Y-106045428D01*
X111189320Y-105882779D01*
X111040258Y-105744987D01*
X111035375Y-105741906D01*
X111035371Y-105741903D01*
X110873464Y-105639748D01*
X110868581Y-105636667D01*
X110680039Y-105561446D01*
X110674379Y-105560320D01*
X110674375Y-105560319D01*
X110486613Y-105522971D01*
X110486610Y-105522971D01*
X110480946Y-105521844D01*
X110475171Y-105521768D01*
X110475167Y-105521768D01*
X110373793Y-105520441D01*
X110277971Y-105519187D01*
X110272274Y-105520166D01*
X110272273Y-105520166D01*
X110184397Y-105535266D01*
X110077910Y-105553564D01*
X109887463Y-105623824D01*
X109713010Y-105727612D01*
X109708670Y-105731418D01*
X109708666Y-105731421D01*
X109592923Y-105832926D01*
X109560392Y-105861455D01*
X109434720Y-106020869D01*
X109432031Y-106025980D01*
X109432029Y-106025983D01*
X109416305Y-106055869D01*
X109340203Y-106200515D01*
X109280007Y-106394378D01*
X109256148Y-106595964D01*
X109269424Y-106798522D01*
X109270845Y-106804118D01*
X109270846Y-106804123D01*
X109311089Y-106962576D01*
X109319392Y-106995269D01*
X109321809Y-107000512D01*
X109358905Y-107080980D01*
X109404377Y-107179616D01*
X109407710Y-107184332D01*
X109474469Y-107278794D01*
X109521533Y-107345389D01*
X109525675Y-107349424D01*
X109552617Y-107375669D01*
X109666938Y-107487035D01*
X109835720Y-107599812D01*
X109841023Y-107602090D01*
X109841026Y-107602092D01*
X109937954Y-107643735D01*
X109992647Y-107689003D01*
X110014184Y-107756654D01*
X109995727Y-107825210D01*
X109943136Y-107872904D01*
X109927361Y-107879268D01*
X109841868Y-107907212D01*
X109832359Y-107911209D01*
X109643463Y-108009542D01*
X109634738Y-108015036D01*
X109464433Y-108142905D01*
X109456726Y-108149748D01*
X109309590Y-108303717D01*
X109303104Y-108311727D01*
X109183098Y-108487649D01*
X109178000Y-108496623D01*
X109088338Y-108689783D01*
X109084777Y-108699464D01*
X109080291Y-108715640D01*
X109042813Y-108775939D01*
X108978684Y-108806403D01*
X108908266Y-108797360D01*
X108853915Y-108751682D01*
X108845867Y-108737698D01*
X108773331Y-108590609D01*
X108770776Y-108585428D01*
X108649320Y-108422779D01*
X108500258Y-108284987D01*
X108495375Y-108281906D01*
X108495371Y-108281903D01*
X108333464Y-108179748D01*
X108328581Y-108176667D01*
X108140039Y-108101446D01*
X108134379Y-108100320D01*
X108134375Y-108100319D01*
X107946613Y-108062971D01*
X107946610Y-108062971D01*
X107940946Y-108061844D01*
X107935171Y-108061768D01*
X107935167Y-108061768D01*
X107833793Y-108060441D01*
X107737971Y-108059187D01*
X107732274Y-108060166D01*
X107732273Y-108060166D01*
X107671604Y-108070591D01*
X107537910Y-108093564D01*
X107347463Y-108163824D01*
X107173010Y-108267612D01*
X107168670Y-108271418D01*
X107168666Y-108271421D01*
X107073301Y-108355055D01*
X107020392Y-108401455D01*
X106894720Y-108560869D01*
X106892031Y-108565980D01*
X106892029Y-108565983D01*
X106876487Y-108595524D01*
X106800203Y-108740515D01*
X106740007Y-108934378D01*
X106716148Y-109135964D01*
X98254500Y-109135964D01*
X98254500Y-108831716D01*
X99695352Y-108831716D01*
X99696820Y-108842008D01*
X99710385Y-108846000D01*
X102385402Y-108846000D01*
X102398933Y-108842027D01*
X102400288Y-108832601D01*
X102378806Y-108743463D01*
X102374917Y-108732168D01*
X102292371Y-108550618D01*
X102286424Y-108540276D01*
X102171032Y-108377603D01*
X102163239Y-108368575D01*
X102019169Y-108230658D01*
X102009804Y-108223262D01*
X101842259Y-108115079D01*
X101831655Y-108109583D01*
X101750421Y-108076845D01*
X101694715Y-108032830D01*
X101671648Y-107965685D01*
X101688545Y-107896729D01*
X101732625Y-107851976D01*
X101838825Y-107788165D01*
X101844677Y-107784649D01*
X101849634Y-107779961D01*
X101849637Y-107779959D01*
X101974614Y-107661773D01*
X101974616Y-107661771D01*
X101979572Y-107657084D01*
X102083928Y-107503529D01*
X102086463Y-107497192D01*
X102150342Y-107337484D01*
X102150343Y-107337479D01*
X102152876Y-107331147D01*
X102153990Y-107324420D01*
X102153991Y-107324415D01*
X102182084Y-107154718D01*
X102182084Y-107154715D01*
X102183199Y-107147981D01*
X102181270Y-107111165D01*
X102173839Y-106969389D01*
X102173482Y-106962576D01*
X102171672Y-106956004D01*
X102171671Y-106955999D01*
X102125992Y-106790165D01*
X102124179Y-106783583D01*
X102037590Y-106619352D01*
X101917755Y-106477546D01*
X101912330Y-106473398D01*
X101775685Y-106368925D01*
X101775681Y-106368923D01*
X101770264Y-106364781D01*
X101764084Y-106361899D01*
X101764082Y-106361898D01*
X101608177Y-106289198D01*
X101608174Y-106289197D01*
X101602000Y-106286318D01*
X101595352Y-106284832D01*
X101595349Y-106284831D01*
X101425849Y-106246944D01*
X101425850Y-106246944D01*
X101420812Y-106245818D01*
X101415124Y-106245500D01*
X100728615Y-106245500D01*
X100590427Y-106260512D01*
X100505189Y-106289198D01*
X100420936Y-106317552D01*
X100420934Y-106317553D01*
X100414465Y-106319730D01*
X100255323Y-106415351D01*
X100250366Y-106420039D01*
X100250363Y-106420041D01*
X100125386Y-106538227D01*
X100120428Y-106542916D01*
X100016072Y-106696471D01*
X100013539Y-106702805D01*
X100013537Y-106702808D01*
X99949658Y-106862516D01*
X99949657Y-106862521D01*
X99947124Y-106868853D01*
X99946010Y-106875580D01*
X99946009Y-106875585D01*
X99917916Y-107045282D01*
X99916801Y-107052019D01*
X99917158Y-107058836D01*
X99917158Y-107058840D01*
X99919499Y-107103496D01*
X99926518Y-107237424D01*
X99928328Y-107243996D01*
X99928329Y-107244001D01*
X99957368Y-107349424D01*
X99975821Y-107416417D01*
X100062410Y-107580648D01*
X100182245Y-107722454D01*
X100187668Y-107726601D01*
X100187670Y-107726602D01*
X100324315Y-107831075D01*
X100324319Y-107831077D01*
X100329736Y-107835219D01*
X100340019Y-107840014D01*
X100349383Y-107844381D01*
X100402667Y-107891299D01*
X100422127Y-107959577D01*
X100401584Y-108027536D01*
X100353823Y-108070591D01*
X100179022Y-108160619D01*
X100168976Y-108167069D01*
X100012143Y-108290262D01*
X100003494Y-108298499D01*
X99872788Y-108449123D01*
X99865853Y-108458847D01*
X99765990Y-108631467D01*
X99761016Y-108642331D01*
X99695593Y-108830727D01*
X99695352Y-108831716D01*
X98254500Y-108831716D01*
X98254500Y-105052019D01*
X99916801Y-105052019D01*
X99926518Y-105237424D01*
X99928328Y-105243996D01*
X99928329Y-105244001D01*
X99955951Y-105344280D01*
X99975821Y-105416417D01*
X100062410Y-105580648D01*
X100182245Y-105722454D01*
X100187668Y-105726601D01*
X100187670Y-105726602D01*
X100324315Y-105831075D01*
X100324319Y-105831077D01*
X100329736Y-105835219D01*
X100335916Y-105838101D01*
X100335918Y-105838102D01*
X100491823Y-105910802D01*
X100491826Y-105910803D01*
X100498000Y-105913682D01*
X100504648Y-105915168D01*
X100504651Y-105915169D01*
X100603711Y-105937311D01*
X100679188Y-105954182D01*
X100684876Y-105954500D01*
X101371385Y-105954500D01*
X101509573Y-105939488D01*
X101630210Y-105898889D01*
X101679064Y-105882448D01*
X101679066Y-105882447D01*
X101685535Y-105880270D01*
X101844677Y-105784649D01*
X101849634Y-105779961D01*
X101849637Y-105779959D01*
X101881388Y-105749933D01*
X106720500Y-105749933D01*
X106720501Y-107500066D01*
X106724871Y-107522035D01*
X106729799Y-107546812D01*
X106735266Y-107574301D01*
X106742161Y-107584620D01*
X106742162Y-107584622D01*
X106772261Y-107629667D01*
X106791516Y-107658484D01*
X106875699Y-107714734D01*
X106949933Y-107729500D01*
X107824858Y-107729500D01*
X108700066Y-107729499D01*
X108735818Y-107722388D01*
X108762126Y-107717156D01*
X108762128Y-107717155D01*
X108774301Y-107714734D01*
X108784621Y-107707839D01*
X108784622Y-107707838D01*
X108848168Y-107665377D01*
X108858484Y-107658484D01*
X108914734Y-107574301D01*
X108929500Y-107500067D01*
X108929499Y-105749934D01*
X108914734Y-105675699D01*
X108903459Y-105658824D01*
X108865377Y-105601832D01*
X108858484Y-105591516D01*
X108774301Y-105535266D01*
X108700067Y-105520500D01*
X107825142Y-105520500D01*
X106949934Y-105520501D01*
X106914182Y-105527612D01*
X106887874Y-105532844D01*
X106887872Y-105532845D01*
X106875699Y-105535266D01*
X106865379Y-105542161D01*
X106865378Y-105542162D01*
X106816822Y-105574607D01*
X106791516Y-105591516D01*
X106735266Y-105675699D01*
X106720500Y-105749933D01*
X101881388Y-105749933D01*
X101974614Y-105661773D01*
X101974616Y-105661771D01*
X101979572Y-105657084D01*
X102083928Y-105503529D01*
X102117498Y-105419599D01*
X102150342Y-105337484D01*
X102150343Y-105337479D01*
X102152876Y-105331147D01*
X102153990Y-105324420D01*
X102153991Y-105324415D01*
X102182084Y-105154718D01*
X102182084Y-105154715D01*
X102183199Y-105147981D01*
X102173482Y-104962576D01*
X102171672Y-104956004D01*
X102171671Y-104955999D01*
X102125992Y-104790165D01*
X102124179Y-104783583D01*
X102037590Y-104619352D01*
X101917755Y-104477546D01*
X101912330Y-104473398D01*
X101775685Y-104368925D01*
X101775681Y-104368923D01*
X101770264Y-104364781D01*
X101764084Y-104361899D01*
X101764082Y-104361898D01*
X101608177Y-104289198D01*
X101608174Y-104289197D01*
X101602000Y-104286318D01*
X101595352Y-104284832D01*
X101595349Y-104284831D01*
X101425849Y-104246944D01*
X101425850Y-104246944D01*
X101420812Y-104245818D01*
X101415124Y-104245500D01*
X100728615Y-104245500D01*
X100590427Y-104260512D01*
X100505189Y-104289198D01*
X100420936Y-104317552D01*
X100420934Y-104317553D01*
X100414465Y-104319730D01*
X100255323Y-104415351D01*
X100250366Y-104420039D01*
X100250363Y-104420041D01*
X100125386Y-104538227D01*
X100120428Y-104542916D01*
X100016072Y-104696471D01*
X100013539Y-104702805D01*
X100013537Y-104702808D01*
X99949658Y-104862516D01*
X99949657Y-104862521D01*
X99947124Y-104868853D01*
X99946010Y-104875580D01*
X99946009Y-104875585D01*
X99932697Y-104955999D01*
X99916801Y-105052019D01*
X98254500Y-105052019D01*
X98254500Y-103497756D01*
X99920500Y-103497756D01*
X99927202Y-103559448D01*
X99977929Y-103694764D01*
X99983309Y-103701943D01*
X99983311Y-103701946D01*
X100035824Y-103772014D01*
X100064596Y-103810404D01*
X100071776Y-103815785D01*
X100173054Y-103891689D01*
X100173057Y-103891691D01*
X100180236Y-103897071D01*
X100269954Y-103930704D01*
X100308157Y-103945026D01*
X100308159Y-103945026D01*
X100315552Y-103947798D01*
X100323402Y-103948651D01*
X100323403Y-103948651D01*
X100373847Y-103954131D01*
X100377244Y-103954500D01*
X101722756Y-103954500D01*
X101726153Y-103954131D01*
X101776597Y-103948651D01*
X101776598Y-103948651D01*
X101784448Y-103947798D01*
X101791841Y-103945026D01*
X101791843Y-103945026D01*
X101830046Y-103930704D01*
X101919764Y-103897071D01*
X101926943Y-103891691D01*
X101926946Y-103891689D01*
X102028224Y-103815785D01*
X102035404Y-103810404D01*
X102064176Y-103772014D01*
X102116689Y-103701946D01*
X102116691Y-103701943D01*
X102122071Y-103694764D01*
X102172798Y-103559448D01*
X102179256Y-103500000D01*
X120840715Y-103500000D01*
X120859772Y-103644754D01*
X120915645Y-103779642D01*
X121004526Y-103895474D01*
X121011076Y-103900500D01*
X121011079Y-103900503D01*
X121113804Y-103979327D01*
X121120357Y-103984355D01*
X121255246Y-104040228D01*
X121400000Y-104059285D01*
X121408188Y-104058207D01*
X121536566Y-104041306D01*
X121544754Y-104040228D01*
X121679643Y-103984355D01*
X121686196Y-103979327D01*
X121788921Y-103900503D01*
X121788924Y-103900500D01*
X121795474Y-103895474D01*
X121884355Y-103779642D01*
X121940228Y-103644754D01*
X121959285Y-103500000D01*
X121940228Y-103355246D01*
X121884355Y-103220358D01*
X121795474Y-103104526D01*
X121788924Y-103099500D01*
X121788921Y-103099497D01*
X121686196Y-103020673D01*
X121686194Y-103020672D01*
X121679643Y-103015645D01*
X121544754Y-102959772D01*
X121400000Y-102940715D01*
X121391812Y-102941793D01*
X121263432Y-102958694D01*
X121263430Y-102958695D01*
X121255246Y-102959772D01*
X121207430Y-102979578D01*
X121127986Y-103012485D01*
X121127984Y-103012486D01*
X121120358Y-103015645D01*
X121004526Y-103104526D01*
X120915645Y-103220358D01*
X120859772Y-103355246D01*
X120840715Y-103500000D01*
X102179256Y-103500000D01*
X102179500Y-103497756D01*
X102179500Y-102702244D01*
X102172798Y-102640552D01*
X102122071Y-102505236D01*
X102116691Y-102498057D01*
X102116689Y-102498054D01*
X102040785Y-102396776D01*
X102035404Y-102389596D01*
X102014977Y-102374287D01*
X101926946Y-102308311D01*
X101926943Y-102308309D01*
X101919764Y-102302929D01*
X101830046Y-102269296D01*
X101791843Y-102254974D01*
X101791841Y-102254974D01*
X101784448Y-102252202D01*
X101776598Y-102251349D01*
X101776597Y-102251349D01*
X101726153Y-102245869D01*
X101726152Y-102245869D01*
X101722756Y-102245500D01*
X100377244Y-102245500D01*
X100373848Y-102245869D01*
X100373847Y-102245869D01*
X100323403Y-102251349D01*
X100323402Y-102251349D01*
X100315552Y-102252202D01*
X100308159Y-102254974D01*
X100308157Y-102254974D01*
X100269954Y-102269296D01*
X100180236Y-102302929D01*
X100173057Y-102308309D01*
X100173054Y-102308311D01*
X100085023Y-102374287D01*
X100064596Y-102389596D01*
X100059215Y-102396776D01*
X99983311Y-102498054D01*
X99983309Y-102498057D01*
X99977929Y-102505236D01*
X99927202Y-102640552D01*
X99920500Y-102702244D01*
X99920500Y-103497756D01*
X98254500Y-103497756D01*
X98254500Y-100093096D01*
X136640729Y-100093096D01*
X136658113Y-100250553D01*
X136712553Y-100399319D01*
X136800908Y-100530805D01*
X136806527Y-100535918D01*
X136806528Y-100535919D01*
X136817903Y-100546269D01*
X136918076Y-100637419D01*
X137057293Y-100713008D01*
X137210522Y-100753207D01*
X137294477Y-100754526D01*
X137361319Y-100755576D01*
X137361322Y-100755576D01*
X137368916Y-100755695D01*
X137523332Y-100720329D01*
X137593742Y-100684917D01*
X137658072Y-100652563D01*
X137658075Y-100652561D01*
X137664855Y-100649151D01*
X137670626Y-100644222D01*
X137670629Y-100644220D01*
X137779536Y-100551204D01*
X137779536Y-100551203D01*
X137785314Y-100546269D01*
X137877755Y-100417624D01*
X137936842Y-100270641D01*
X137959162Y-100113807D01*
X137959307Y-100100000D01*
X137940276Y-99942733D01*
X137884280Y-99794546D01*
X137794553Y-99663992D01*
X137676275Y-99558611D01*
X137668889Y-99554700D01*
X137542988Y-99488039D01*
X137542989Y-99488039D01*
X137536274Y-99484484D01*
X137382633Y-99445892D01*
X137375034Y-99445852D01*
X137375033Y-99445852D01*
X137309181Y-99445507D01*
X137224221Y-99445062D01*
X137216841Y-99446834D01*
X137216839Y-99446834D01*
X137077563Y-99480271D01*
X137077560Y-99480272D01*
X137070184Y-99482043D01*
X136929414Y-99554700D01*
X136810039Y-99658838D01*
X136718950Y-99788444D01*
X136661406Y-99936037D01*
X136640729Y-100093096D01*
X98254500Y-100093096D01*
X98254500Y-98152019D01*
X99916801Y-98152019D01*
X99917158Y-98158836D01*
X99917158Y-98158840D01*
X99921473Y-98241160D01*
X99926518Y-98337424D01*
X99928328Y-98343996D01*
X99928329Y-98344001D01*
X99954079Y-98437484D01*
X99975821Y-98516417D01*
X100062410Y-98680648D01*
X100182245Y-98822454D01*
X100187668Y-98826601D01*
X100187670Y-98826602D01*
X100324315Y-98931075D01*
X100324319Y-98931077D01*
X100329736Y-98935219D01*
X100335916Y-98938101D01*
X100335918Y-98938102D01*
X100491823Y-99010802D01*
X100491826Y-99010803D01*
X100498000Y-99013682D01*
X100504648Y-99015168D01*
X100504651Y-99015169D01*
X100603711Y-99037311D01*
X100679188Y-99054182D01*
X100684876Y-99054500D01*
X101371385Y-99054500D01*
X101509573Y-99039488D01*
X101630210Y-98998889D01*
X101679064Y-98982448D01*
X101679066Y-98982447D01*
X101685535Y-98980270D01*
X101844677Y-98884649D01*
X101849634Y-98879961D01*
X101849637Y-98879959D01*
X101974614Y-98761773D01*
X101974616Y-98761771D01*
X101979572Y-98757084D01*
X102083928Y-98603529D01*
X102116355Y-98522456D01*
X102150342Y-98437484D01*
X102150343Y-98437479D01*
X102152876Y-98431147D01*
X102153990Y-98424420D01*
X102153991Y-98424415D01*
X102182084Y-98254718D01*
X102182084Y-98254715D01*
X102183199Y-98247981D01*
X102179967Y-98186298D01*
X102173839Y-98069389D01*
X102173482Y-98062576D01*
X102171672Y-98056004D01*
X102171671Y-98055999D01*
X102125992Y-97890165D01*
X102124179Y-97883583D01*
X102109423Y-97855596D01*
X112603229Y-97855596D01*
X112620613Y-98013053D01*
X112623223Y-98020184D01*
X112623223Y-98020186D01*
X112671467Y-98152019D01*
X112675053Y-98161819D01*
X112679289Y-98168122D01*
X112679289Y-98168123D01*
X112737479Y-98254718D01*
X112763408Y-98293305D01*
X112769027Y-98298418D01*
X112769028Y-98298419D01*
X112874960Y-98394809D01*
X112880576Y-98399919D01*
X113019793Y-98475508D01*
X113173022Y-98515707D01*
X113256977Y-98517026D01*
X113323819Y-98518076D01*
X113323822Y-98518076D01*
X113331416Y-98518195D01*
X113485832Y-98482829D01*
X113556242Y-98447417D01*
X113620572Y-98415063D01*
X113620575Y-98415061D01*
X113627355Y-98411651D01*
X113633126Y-98406722D01*
X113633129Y-98406720D01*
X113742036Y-98313704D01*
X113742036Y-98313703D01*
X113747814Y-98308769D01*
X113840255Y-98180124D01*
X113899342Y-98033141D01*
X113921662Y-97876307D01*
X113921807Y-97862500D01*
X113902776Y-97705233D01*
X113846780Y-97557046D01*
X113818124Y-97515351D01*
X113761355Y-97432751D01*
X113761354Y-97432749D01*
X113757053Y-97426492D01*
X113749464Y-97419730D01*
X113710293Y-97384831D01*
X113638775Y-97321111D01*
X113631389Y-97317200D01*
X113505488Y-97250539D01*
X113505489Y-97250539D01*
X113498774Y-97246984D01*
X113345133Y-97208392D01*
X113337534Y-97208352D01*
X113337533Y-97208352D01*
X113271681Y-97208007D01*
X113186721Y-97207562D01*
X113179341Y-97209334D01*
X113179339Y-97209334D01*
X113040063Y-97242771D01*
X113040060Y-97242772D01*
X113032684Y-97244543D01*
X112891914Y-97317200D01*
X112772539Y-97421338D01*
X112681450Y-97550944D01*
X112623906Y-97698537D01*
X112622914Y-97706070D01*
X112622914Y-97706071D01*
X112610179Y-97802808D01*
X112603229Y-97855596D01*
X102109423Y-97855596D01*
X102037590Y-97719352D01*
X101917755Y-97577546D01*
X101912330Y-97573398D01*
X101775685Y-97468925D01*
X101775681Y-97468923D01*
X101770264Y-97464781D01*
X101764084Y-97461899D01*
X101764082Y-97461898D01*
X101608177Y-97389198D01*
X101608174Y-97389197D01*
X101602000Y-97386318D01*
X101595352Y-97384832D01*
X101595349Y-97384831D01*
X101425849Y-97346944D01*
X101425850Y-97346944D01*
X101420812Y-97345818D01*
X101415124Y-97345500D01*
X100728615Y-97345500D01*
X100590427Y-97360512D01*
X100505189Y-97389198D01*
X100420936Y-97417552D01*
X100420934Y-97417553D01*
X100414465Y-97419730D01*
X100255323Y-97515351D01*
X100250366Y-97520039D01*
X100250363Y-97520041D01*
X100125386Y-97638227D01*
X100120428Y-97642916D01*
X100016072Y-97796471D01*
X100013539Y-97802805D01*
X100013537Y-97802808D01*
X99949658Y-97962516D01*
X99949657Y-97962521D01*
X99947124Y-97968853D01*
X99946010Y-97975580D01*
X99946009Y-97975585D01*
X99937727Y-98025615D01*
X99916801Y-98152019D01*
X98254500Y-98152019D01*
X98254500Y-94597095D01*
X99667001Y-94597095D01*
X99667338Y-94603614D01*
X99677257Y-94699206D01*
X99680149Y-94712600D01*
X99731588Y-94866784D01*
X99737761Y-94879962D01*
X99823063Y-95017807D01*
X99832099Y-95029208D01*
X99946829Y-95143739D01*
X99958240Y-95152751D01*
X100096243Y-95237816D01*
X100109426Y-95243964D01*
X100234135Y-95285328D01*
X100292495Y-95325759D01*
X100319732Y-95391323D01*
X100307199Y-95461204D01*
X100265516Y-95506272D01*
X100266608Y-95507711D01*
X100261174Y-95511835D01*
X100255323Y-95515351D01*
X100250366Y-95520039D01*
X100250363Y-95520041D01*
X100125386Y-95638227D01*
X100120428Y-95642916D01*
X100016072Y-95796471D01*
X100013539Y-95802805D01*
X100013537Y-95802808D01*
X99949658Y-95962516D01*
X99949657Y-95962521D01*
X99947124Y-95968853D01*
X99946010Y-95975580D01*
X99946009Y-95975585D01*
X99932697Y-96055999D01*
X99916801Y-96152019D01*
X99926518Y-96337424D01*
X99928328Y-96343996D01*
X99928329Y-96344001D01*
X99954079Y-96437484D01*
X99975821Y-96516417D01*
X100062410Y-96680648D01*
X100182245Y-96822454D01*
X100187668Y-96826601D01*
X100187670Y-96826602D01*
X100324315Y-96931075D01*
X100324319Y-96931077D01*
X100329736Y-96935219D01*
X100335916Y-96938101D01*
X100335918Y-96938102D01*
X100491823Y-97010802D01*
X100491826Y-97010803D01*
X100498000Y-97013682D01*
X100504648Y-97015168D01*
X100504651Y-97015169D01*
X100603711Y-97037311D01*
X100679188Y-97054182D01*
X100684876Y-97054500D01*
X101371385Y-97054500D01*
X101509573Y-97039488D01*
X101630210Y-96998889D01*
X101679064Y-96982448D01*
X101679066Y-96982447D01*
X101685535Y-96980270D01*
X101844677Y-96884649D01*
X101849634Y-96879961D01*
X101849637Y-96879959D01*
X101974614Y-96761773D01*
X101974616Y-96761771D01*
X101979572Y-96757084D01*
X102083928Y-96603529D01*
X102116355Y-96522456D01*
X102150342Y-96437484D01*
X102150343Y-96437479D01*
X102152876Y-96431147D01*
X102153990Y-96424420D01*
X102153991Y-96424415D01*
X102182084Y-96254718D01*
X102182084Y-96254715D01*
X102183199Y-96247981D01*
X102173482Y-96062576D01*
X102171672Y-96056004D01*
X102171671Y-96055999D01*
X102125992Y-95890165D01*
X102124179Y-95883583D01*
X102037590Y-95719352D01*
X101917755Y-95577546D01*
X101824833Y-95506502D01*
X101782865Y-95449238D01*
X101778520Y-95378374D01*
X101813176Y-95316411D01*
X101861486Y-95286882D01*
X101991784Y-95243412D01*
X102004962Y-95237239D01*
X102142807Y-95151937D01*
X102154208Y-95142901D01*
X102268739Y-95028171D01*
X102277751Y-95016760D01*
X102362816Y-94878757D01*
X102368963Y-94865576D01*
X102420138Y-94711290D01*
X102423005Y-94697914D01*
X102432672Y-94603562D01*
X102433000Y-94597146D01*
X102433000Y-94472115D01*
X102428525Y-94456876D01*
X102427135Y-94455671D01*
X102419452Y-94454000D01*
X99685116Y-94454000D01*
X99669877Y-94458475D01*
X99668672Y-94459865D01*
X99667001Y-94467548D01*
X99667001Y-94597095D01*
X98254500Y-94597095D01*
X98254500Y-94200000D01*
X116840715Y-94200000D01*
X116841793Y-94208188D01*
X116858134Y-94332309D01*
X116859772Y-94344754D01*
X116862931Y-94352380D01*
X116905726Y-94455695D01*
X116915645Y-94479642D01*
X117004526Y-94595474D01*
X117011076Y-94600500D01*
X117011079Y-94600503D01*
X117113804Y-94679327D01*
X117120357Y-94684355D01*
X117255246Y-94740228D01*
X117400000Y-94759285D01*
X117408188Y-94758207D01*
X117536566Y-94741306D01*
X117544754Y-94740228D01*
X117679643Y-94684355D01*
X117686196Y-94679327D01*
X117788921Y-94600503D01*
X117788924Y-94600500D01*
X117795474Y-94595474D01*
X117884355Y-94479642D01*
X117894275Y-94455695D01*
X117937069Y-94352380D01*
X117940228Y-94344754D01*
X117941867Y-94332309D01*
X117958207Y-94208188D01*
X117959285Y-94200000D01*
X117940228Y-94055246D01*
X117899817Y-93957686D01*
X117887515Y-93927986D01*
X117887514Y-93927984D01*
X117884355Y-93920358D01*
X117839914Y-93862442D01*
X117800501Y-93811077D01*
X117800500Y-93811076D01*
X117795474Y-93804526D01*
X117788924Y-93799500D01*
X117788921Y-93799497D01*
X117780579Y-93793096D01*
X125240729Y-93793096D01*
X125249421Y-93871824D01*
X125256963Y-93940135D01*
X125258113Y-93950553D01*
X125260723Y-93957684D01*
X125260723Y-93957686D01*
X125296425Y-94055246D01*
X125312553Y-94099319D01*
X125400908Y-94230805D01*
X125406527Y-94235918D01*
X125406528Y-94235919D01*
X125417903Y-94246269D01*
X125518076Y-94337419D01*
X125657293Y-94413008D01*
X125810522Y-94453207D01*
X125894477Y-94454526D01*
X125961319Y-94455576D01*
X125961322Y-94455576D01*
X125968916Y-94455695D01*
X126123332Y-94420329D01*
X126193742Y-94384917D01*
X126258072Y-94352563D01*
X126258075Y-94352561D01*
X126264855Y-94349151D01*
X126270626Y-94344222D01*
X126270629Y-94344220D01*
X126379536Y-94251204D01*
X126379536Y-94251203D01*
X126385314Y-94246269D01*
X126477755Y-94117624D01*
X126536842Y-93970641D01*
X126559162Y-93813807D01*
X126559231Y-93807265D01*
X126559264Y-93804134D01*
X126559264Y-93804128D01*
X126559307Y-93800000D01*
X126540276Y-93642733D01*
X126484280Y-93494546D01*
X126407062Y-93382193D01*
X126398855Y-93370251D01*
X126398854Y-93370249D01*
X126394553Y-93363992D01*
X126276275Y-93258611D01*
X126268889Y-93254700D01*
X126142988Y-93188039D01*
X126142989Y-93188039D01*
X126136274Y-93184484D01*
X125982633Y-93145892D01*
X125975034Y-93145852D01*
X125975033Y-93145852D01*
X125909181Y-93145507D01*
X125824221Y-93145062D01*
X125816841Y-93146834D01*
X125816839Y-93146834D01*
X125677563Y-93180271D01*
X125677560Y-93180272D01*
X125670184Y-93182043D01*
X125529414Y-93254700D01*
X125410039Y-93358838D01*
X125318950Y-93488444D01*
X125261406Y-93636037D01*
X125260414Y-93643570D01*
X125260414Y-93643571D01*
X125250264Y-93720673D01*
X125240729Y-93793096D01*
X117780579Y-93793096D01*
X117686196Y-93720673D01*
X117686194Y-93720672D01*
X117679643Y-93715645D01*
X117544754Y-93659772D01*
X117400000Y-93640715D01*
X117391812Y-93641793D01*
X117263432Y-93658694D01*
X117263430Y-93658695D01*
X117255246Y-93659772D01*
X117207430Y-93679578D01*
X117127986Y-93712485D01*
X117127984Y-93712486D01*
X117120358Y-93715645D01*
X117004526Y-93804526D01*
X116915645Y-93920358D01*
X116912486Y-93927984D01*
X116912485Y-93927986D01*
X116900183Y-93957686D01*
X116859772Y-94055246D01*
X116840715Y-94200000D01*
X98254500Y-94200000D01*
X98254500Y-93927885D01*
X99667000Y-93927885D01*
X99671475Y-93943124D01*
X99672865Y-93944329D01*
X99680548Y-93946000D01*
X100777885Y-93946000D01*
X100793124Y-93941525D01*
X100794329Y-93940135D01*
X100796000Y-93932452D01*
X100796000Y-93927885D01*
X101304000Y-93927885D01*
X101308475Y-93943124D01*
X101309865Y-93944329D01*
X101317548Y-93946000D01*
X102414884Y-93946000D01*
X102430123Y-93941525D01*
X102431328Y-93940135D01*
X102432999Y-93932452D01*
X102432999Y-93802905D01*
X102432662Y-93796386D01*
X102422743Y-93700794D01*
X102419851Y-93687400D01*
X102368412Y-93533216D01*
X102362239Y-93520038D01*
X102276937Y-93382193D01*
X102267901Y-93370792D01*
X102153171Y-93256261D01*
X102141760Y-93247249D01*
X102003757Y-93162184D01*
X101990576Y-93156037D01*
X101836290Y-93104862D01*
X101822914Y-93101995D01*
X101728562Y-93092328D01*
X101722145Y-93092000D01*
X101322115Y-93092000D01*
X101306876Y-93096475D01*
X101305671Y-93097865D01*
X101304000Y-93105548D01*
X101304000Y-93927885D01*
X100796000Y-93927885D01*
X100796000Y-93110116D01*
X100791525Y-93094877D01*
X100790135Y-93093672D01*
X100782452Y-93092001D01*
X100377905Y-93092001D01*
X100371386Y-93092338D01*
X100275794Y-93102257D01*
X100262400Y-93105149D01*
X100108216Y-93156588D01*
X100095038Y-93162761D01*
X99957193Y-93248063D01*
X99945792Y-93257099D01*
X99831261Y-93371829D01*
X99822249Y-93383240D01*
X99737184Y-93521243D01*
X99731037Y-93534424D01*
X99679862Y-93688710D01*
X99676995Y-93702086D01*
X99667328Y-93796438D01*
X99667000Y-93802855D01*
X99667000Y-93927885D01*
X98254500Y-93927885D01*
X98254500Y-90900000D01*
X107440715Y-90900000D01*
X107441793Y-90908188D01*
X107458469Y-91034855D01*
X107459772Y-91044754D01*
X107515645Y-91179642D01*
X107604526Y-91295474D01*
X107611076Y-91300500D01*
X107611079Y-91300503D01*
X107687685Y-91359285D01*
X107720357Y-91384355D01*
X107855246Y-91440228D01*
X108000000Y-91459285D01*
X108008188Y-91458207D01*
X108136566Y-91441306D01*
X108144754Y-91440228D01*
X108279643Y-91384355D01*
X108312315Y-91359285D01*
X108388921Y-91300503D01*
X108388924Y-91300500D01*
X108395474Y-91295474D01*
X108484355Y-91179642D01*
X108540228Y-91044754D01*
X108541532Y-91034855D01*
X108558207Y-90908188D01*
X108559285Y-90900000D01*
X108545042Y-90791812D01*
X108541306Y-90763432D01*
X108541305Y-90763430D01*
X108540228Y-90755246D01*
X108515378Y-90695254D01*
X108487515Y-90627986D01*
X108487514Y-90627984D01*
X108484355Y-90620358D01*
X108430751Y-90550500D01*
X121047492Y-90550500D01*
X121048570Y-90558688D01*
X121062360Y-90663432D01*
X121066549Y-90695254D01*
X121074995Y-90715645D01*
X121109937Y-90800000D01*
X121122422Y-90830142D01*
X121127449Y-90836693D01*
X121204086Y-90936568D01*
X121211303Y-90945974D01*
X121217853Y-90951000D01*
X121217856Y-90951003D01*
X121311275Y-91022686D01*
X121327134Y-91034855D01*
X121396125Y-91063432D01*
X121451075Y-91086193D01*
X121462023Y-91090728D01*
X121606777Y-91109785D01*
X121614965Y-91108707D01*
X121743343Y-91091806D01*
X121751531Y-91090728D01*
X121762480Y-91086193D01*
X121817429Y-91063432D01*
X121886420Y-91034855D01*
X121952145Y-90984422D01*
X122018365Y-90958821D01*
X122087914Y-90973085D01*
X122138710Y-91022686D01*
X122154626Y-91091876D01*
X122153771Y-91100825D01*
X122140715Y-91200000D01*
X122159772Y-91344754D01*
X122165791Y-91359285D01*
X122207213Y-91459285D01*
X122215645Y-91479642D01*
X122304526Y-91595474D01*
X122311076Y-91600500D01*
X122311079Y-91600503D01*
X122413804Y-91679327D01*
X122420357Y-91684355D01*
X122555246Y-91740228D01*
X122700000Y-91759285D01*
X122708188Y-91758207D01*
X122836566Y-91741306D01*
X122844754Y-91740228D01*
X122979643Y-91684355D01*
X122986196Y-91679327D01*
X123088921Y-91600503D01*
X123088924Y-91600500D01*
X123095474Y-91595474D01*
X123184355Y-91479642D01*
X123192788Y-91459285D01*
X123234209Y-91359285D01*
X123240228Y-91344754D01*
X123259285Y-91200000D01*
X123246229Y-91100830D01*
X123241306Y-91063432D01*
X123241305Y-91063430D01*
X123240228Y-91055246D01*
X123220422Y-91007430D01*
X123187515Y-90927986D01*
X123187514Y-90927984D01*
X123184355Y-90920358D01*
X123095474Y-90804526D01*
X123089576Y-90800000D01*
X131740715Y-90800000D01*
X131759772Y-90944754D01*
X131762931Y-90952380D01*
X131808931Y-91063432D01*
X131815645Y-91079642D01*
X131831903Y-91100830D01*
X131892378Y-91179642D01*
X131904526Y-91195474D01*
X131911076Y-91200500D01*
X131911079Y-91200503D01*
X132013804Y-91279327D01*
X132020357Y-91284355D01*
X132155246Y-91340228D01*
X132300000Y-91359285D01*
X132308188Y-91358207D01*
X132436566Y-91341306D01*
X132444754Y-91340228D01*
X132579643Y-91284355D01*
X132586196Y-91279327D01*
X132688921Y-91200503D01*
X132688924Y-91200500D01*
X132695474Y-91195474D01*
X132707623Y-91179642D01*
X132768097Y-91100830D01*
X132784355Y-91079642D01*
X132791070Y-91063432D01*
X132837069Y-90952380D01*
X132840228Y-90944754D01*
X132859285Y-90800000D01*
X132852389Y-90747620D01*
X132841306Y-90663432D01*
X132841305Y-90663430D01*
X132840228Y-90655246D01*
X132800232Y-90558688D01*
X132787515Y-90527986D01*
X132787514Y-90527984D01*
X132784355Y-90520358D01*
X132704006Y-90415645D01*
X132700501Y-90411077D01*
X132700500Y-90411076D01*
X132695474Y-90404526D01*
X132688924Y-90399500D01*
X132688921Y-90399497D01*
X132586196Y-90320673D01*
X132586194Y-90320672D01*
X132579643Y-90315645D01*
X132462779Y-90267238D01*
X132452383Y-90262932D01*
X132444754Y-90259772D01*
X132300000Y-90240715D01*
X132291812Y-90241793D01*
X132163432Y-90258694D01*
X132163430Y-90258695D01*
X132155246Y-90259772D01*
X132110067Y-90278486D01*
X132027986Y-90312485D01*
X132027984Y-90312486D01*
X132020358Y-90315645D01*
X131904526Y-90404526D01*
X131899503Y-90411072D01*
X131895994Y-90415645D01*
X131815645Y-90520358D01*
X131812486Y-90527984D01*
X131812485Y-90527986D01*
X131799768Y-90558688D01*
X131759772Y-90655246D01*
X131758695Y-90663430D01*
X131758694Y-90663432D01*
X131747611Y-90747620D01*
X131740715Y-90800000D01*
X123089576Y-90800000D01*
X123088924Y-90799500D01*
X123088921Y-90799497D01*
X122986196Y-90720673D01*
X122986194Y-90720672D01*
X122979643Y-90715645D01*
X122844754Y-90659772D01*
X122700000Y-90640715D01*
X122691812Y-90641793D01*
X122563432Y-90658694D01*
X122563430Y-90658695D01*
X122555246Y-90659772D01*
X122546410Y-90663432D01*
X122427986Y-90712485D01*
X122427984Y-90712486D01*
X122420358Y-90715645D01*
X122404502Y-90727812D01*
X122354632Y-90766078D01*
X122288411Y-90791678D01*
X122218863Y-90777413D01*
X122168067Y-90727812D01*
X122152151Y-90658622D01*
X122153006Y-90649669D01*
X122157728Y-90613807D01*
X122166062Y-90550500D01*
X122160871Y-90511072D01*
X122148083Y-90413932D01*
X122148082Y-90413930D01*
X122147005Y-90405746D01*
X122091132Y-90270858D01*
X122002251Y-90155026D01*
X121995701Y-90150000D01*
X121995698Y-90149997D01*
X121892973Y-90071173D01*
X121892971Y-90071172D01*
X121886420Y-90066145D01*
X121751531Y-90010272D01*
X121606777Y-89991215D01*
X121598589Y-89992293D01*
X121470209Y-90009194D01*
X121470207Y-90009195D01*
X121462023Y-90010272D01*
X121414207Y-90030078D01*
X121334763Y-90062985D01*
X121334761Y-90062986D01*
X121327135Y-90066145D01*
X121308727Y-90080270D01*
X121231553Y-90139488D01*
X121211303Y-90155026D01*
X121122422Y-90270858D01*
X121066549Y-90405746D01*
X121065472Y-90413930D01*
X121065471Y-90413932D01*
X121052683Y-90511072D01*
X121047492Y-90550500D01*
X108430751Y-90550500D01*
X108424468Y-90542312D01*
X108400501Y-90511077D01*
X108400500Y-90511076D01*
X108395474Y-90504526D01*
X108388924Y-90499500D01*
X108388921Y-90499497D01*
X108286196Y-90420673D01*
X108286194Y-90420672D01*
X108279643Y-90415645D01*
X108144754Y-90359772D01*
X108000000Y-90340715D01*
X107991812Y-90341793D01*
X107863432Y-90358694D01*
X107863430Y-90358695D01*
X107855246Y-90359772D01*
X107807430Y-90379578D01*
X107727986Y-90412485D01*
X107727984Y-90412486D01*
X107720358Y-90415645D01*
X107604526Y-90504526D01*
X107599503Y-90511072D01*
X107580168Y-90536270D01*
X107515645Y-90620358D01*
X107512486Y-90627984D01*
X107512485Y-90627986D01*
X107484622Y-90695254D01*
X107459772Y-90755246D01*
X107458695Y-90763430D01*
X107458694Y-90763432D01*
X107454958Y-90791812D01*
X107440715Y-90900000D01*
X98254500Y-90900000D01*
X98254500Y-89252019D01*
X99916801Y-89252019D01*
X99917158Y-89258836D01*
X99917158Y-89258840D01*
X99920399Y-89320672D01*
X99926518Y-89437424D01*
X99928328Y-89443996D01*
X99928329Y-89444001D01*
X99954079Y-89537484D01*
X99975821Y-89616417D01*
X100062410Y-89780648D01*
X100182245Y-89922454D01*
X100187668Y-89926601D01*
X100187670Y-89926602D01*
X100324315Y-90031075D01*
X100324319Y-90031077D01*
X100329736Y-90035219D01*
X100335916Y-90038101D01*
X100335918Y-90038102D01*
X100491823Y-90110802D01*
X100491826Y-90110803D01*
X100498000Y-90113682D01*
X100504648Y-90115168D01*
X100504651Y-90115169D01*
X100603711Y-90137311D01*
X100679188Y-90154182D01*
X100684876Y-90154500D01*
X101371385Y-90154500D01*
X101509573Y-90139488D01*
X101630210Y-90098889D01*
X101679064Y-90082448D01*
X101679066Y-90082447D01*
X101685535Y-90080270D01*
X101844677Y-89984649D01*
X101849634Y-89979961D01*
X101849637Y-89979959D01*
X101974614Y-89861773D01*
X101974616Y-89861771D01*
X101979572Y-89857084D01*
X102018366Y-89800000D01*
X126840715Y-89800000D01*
X126859772Y-89944754D01*
X126862931Y-89952380D01*
X126912137Y-90071172D01*
X126915645Y-90079642D01*
X126920672Y-90086193D01*
X126973086Y-90154500D01*
X127004526Y-90195474D01*
X127011076Y-90200500D01*
X127011079Y-90200503D01*
X127112708Y-90278486D01*
X127120357Y-90284355D01*
X127255246Y-90340228D01*
X127400000Y-90359285D01*
X127408188Y-90358207D01*
X127536566Y-90341306D01*
X127544754Y-90340228D01*
X127679643Y-90284355D01*
X127687292Y-90278486D01*
X127788921Y-90200503D01*
X127788924Y-90200500D01*
X127795474Y-90195474D01*
X127826915Y-90154500D01*
X127879328Y-90086193D01*
X127884355Y-90079642D01*
X127887864Y-90071172D01*
X127937069Y-89952380D01*
X127940228Y-89944754D01*
X127959285Y-89800000D01*
X127955942Y-89774607D01*
X127941306Y-89663432D01*
X127941305Y-89663430D01*
X127940228Y-89655246D01*
X127884355Y-89520358D01*
X127795474Y-89404526D01*
X127788924Y-89399500D01*
X127788921Y-89399497D01*
X127686196Y-89320673D01*
X127686194Y-89320672D01*
X127679643Y-89315645D01*
X127544754Y-89259772D01*
X127400000Y-89240715D01*
X127391812Y-89241793D01*
X127263432Y-89258694D01*
X127263430Y-89258695D01*
X127255246Y-89259772D01*
X127207430Y-89279578D01*
X127127986Y-89312485D01*
X127127984Y-89312486D01*
X127120358Y-89315645D01*
X127004526Y-89404526D01*
X126915645Y-89520358D01*
X126859772Y-89655246D01*
X126858695Y-89663430D01*
X126858694Y-89663432D01*
X126844058Y-89774607D01*
X126840715Y-89800000D01*
X102018366Y-89800000D01*
X102083928Y-89703529D01*
X102116355Y-89622456D01*
X102150342Y-89537484D01*
X102150343Y-89537479D01*
X102152876Y-89531147D01*
X102153990Y-89524420D01*
X102153991Y-89524415D01*
X102182084Y-89354718D01*
X102182084Y-89354715D01*
X102183199Y-89347981D01*
X102181505Y-89315645D01*
X102173839Y-89169389D01*
X102173482Y-89162576D01*
X102171672Y-89156004D01*
X102171671Y-89155999D01*
X102125992Y-88990165D01*
X102124179Y-88983583D01*
X102037590Y-88819352D01*
X101917755Y-88677546D01*
X101912330Y-88673398D01*
X101775685Y-88568925D01*
X101775681Y-88568923D01*
X101770264Y-88564781D01*
X101764084Y-88561899D01*
X101764082Y-88561898D01*
X101608177Y-88489198D01*
X101608174Y-88489197D01*
X101602000Y-88486318D01*
X101595352Y-88484832D01*
X101595349Y-88484831D01*
X101425849Y-88446944D01*
X101425850Y-88446944D01*
X101420812Y-88445818D01*
X101415124Y-88445500D01*
X100728615Y-88445500D01*
X100590427Y-88460512D01*
X100510190Y-88487515D01*
X100420936Y-88517552D01*
X100420934Y-88517553D01*
X100414465Y-88519730D01*
X100255323Y-88615351D01*
X100250366Y-88620039D01*
X100250363Y-88620041D01*
X100125386Y-88738227D01*
X100120428Y-88742916D01*
X100016072Y-88896471D01*
X100013539Y-88902805D01*
X100013537Y-88902808D01*
X99949658Y-89062516D01*
X99949657Y-89062521D01*
X99947124Y-89068853D01*
X99946010Y-89075580D01*
X99946009Y-89075585D01*
X99932697Y-89155999D01*
X99916801Y-89252019D01*
X98254500Y-89252019D01*
X98254500Y-85567399D01*
X99699712Y-85567399D01*
X99721194Y-85656537D01*
X99725083Y-85667832D01*
X99807629Y-85849382D01*
X99813576Y-85859724D01*
X99928968Y-86022397D01*
X99936761Y-86031425D01*
X100080831Y-86169342D01*
X100090196Y-86176738D01*
X100257741Y-86284921D01*
X100268345Y-86290417D01*
X100349579Y-86323155D01*
X100405285Y-86367170D01*
X100428352Y-86434315D01*
X100411455Y-86503271D01*
X100367375Y-86548024D01*
X100332590Y-86568925D01*
X100255323Y-86615351D01*
X100250366Y-86620039D01*
X100250363Y-86620041D01*
X100149266Y-86715645D01*
X100120428Y-86742916D01*
X100016072Y-86896471D01*
X100013539Y-86902805D01*
X100013537Y-86902808D01*
X99949658Y-87062516D01*
X99949657Y-87062521D01*
X99947124Y-87068853D01*
X99946010Y-87075580D01*
X99946009Y-87075585D01*
X99917916Y-87245282D01*
X99916801Y-87252019D01*
X99917158Y-87258836D01*
X99917158Y-87258840D01*
X99921473Y-87341160D01*
X99926518Y-87437424D01*
X99928328Y-87443996D01*
X99928329Y-87444001D01*
X99972546Y-87604526D01*
X99975821Y-87616417D01*
X100062410Y-87780648D01*
X100182245Y-87922454D01*
X100187668Y-87926601D01*
X100187670Y-87926602D01*
X100324315Y-88031075D01*
X100324319Y-88031077D01*
X100329736Y-88035219D01*
X100335916Y-88038101D01*
X100335918Y-88038102D01*
X100491823Y-88110802D01*
X100491826Y-88110803D01*
X100498000Y-88113682D01*
X100504648Y-88115168D01*
X100504651Y-88115169D01*
X100603711Y-88137311D01*
X100679188Y-88154182D01*
X100684876Y-88154500D01*
X101371385Y-88154500D01*
X101509573Y-88139488D01*
X101630210Y-88098889D01*
X101679064Y-88082448D01*
X101679066Y-88082447D01*
X101685535Y-88080270D01*
X101844677Y-87984649D01*
X101849634Y-87979961D01*
X101849637Y-87979959D01*
X101974614Y-87861773D01*
X101974616Y-87861771D01*
X101979572Y-87857084D01*
X102083928Y-87703529D01*
X102086463Y-87697192D01*
X102150342Y-87537484D01*
X102150343Y-87537479D01*
X102152876Y-87531147D01*
X102153990Y-87524420D01*
X102153991Y-87524415D01*
X102182084Y-87354718D01*
X102182084Y-87354715D01*
X102183199Y-87347981D01*
X102182819Y-87340715D01*
X102173839Y-87169389D01*
X102173482Y-87162576D01*
X102171672Y-87156004D01*
X102171671Y-87155999D01*
X102125992Y-86990165D01*
X102124179Y-86983583D01*
X102037590Y-86819352D01*
X101917755Y-86677546D01*
X101898641Y-86662932D01*
X101775685Y-86568925D01*
X101775681Y-86568923D01*
X101770264Y-86564781D01*
X101759522Y-86559772D01*
X101750617Y-86555619D01*
X101697333Y-86508701D01*
X101694853Y-86500000D01*
X114340715Y-86500000D01*
X114342533Y-86513807D01*
X114356602Y-86620673D01*
X114359772Y-86644754D01*
X114362931Y-86652380D01*
X114391219Y-86720672D01*
X114415645Y-86779642D01*
X114504526Y-86895474D01*
X114511076Y-86900500D01*
X114511079Y-86900503D01*
X114613804Y-86979327D01*
X114620357Y-86984355D01*
X114755246Y-87040228D01*
X114900000Y-87059285D01*
X114908188Y-87058207D01*
X114930680Y-87055246D01*
X115044754Y-87040228D01*
X115179643Y-86984355D01*
X115186196Y-86979327D01*
X115288921Y-86900503D01*
X115288924Y-86900500D01*
X115295474Y-86895474D01*
X115368734Y-86800000D01*
X118340715Y-86800000D01*
X118341793Y-86808188D01*
X118352673Y-86890828D01*
X118359772Y-86944754D01*
X118362931Y-86952380D01*
X118410577Y-87067406D01*
X118415645Y-87079642D01*
X118504526Y-87195474D01*
X118511076Y-87200500D01*
X118511079Y-87200503D01*
X118587105Y-87258840D01*
X118620357Y-87284355D01*
X118755246Y-87340228D01*
X118900000Y-87359285D01*
X118908188Y-87358207D01*
X118908191Y-87358207D01*
X118916001Y-87357179D01*
X118986150Y-87368119D01*
X119039247Y-87415248D01*
X119058436Y-87483603D01*
X119057367Y-87498547D01*
X119052241Y-87537484D01*
X119040639Y-87625613D01*
X119041717Y-87633801D01*
X119051640Y-87709172D01*
X119059696Y-87770367D01*
X119062855Y-87777993D01*
X119106851Y-87884207D01*
X119115569Y-87905255D01*
X119204450Y-88021087D01*
X119211000Y-88026113D01*
X119211003Y-88026116D01*
X119313728Y-88104940D01*
X119320281Y-88109968D01*
X119455170Y-88165841D01*
X119599924Y-88184898D01*
X119608112Y-88183820D01*
X119736490Y-88166919D01*
X119744678Y-88165841D01*
X119772058Y-88154500D01*
X119871939Y-88113128D01*
X119871941Y-88113127D01*
X119879567Y-88109968D01*
X119886116Y-88104943D01*
X119888523Y-88103553D01*
X119957519Y-88086815D01*
X120024611Y-88110036D01*
X120067932Y-88164454D01*
X120071064Y-88172014D01*
X120115645Y-88279642D01*
X120204526Y-88395474D01*
X120211076Y-88400500D01*
X120211079Y-88400503D01*
X120313804Y-88479327D01*
X120320357Y-88484355D01*
X120455246Y-88540228D01*
X120600000Y-88559285D01*
X120608188Y-88558207D01*
X120736566Y-88541306D01*
X120744754Y-88540228D01*
X120879643Y-88484355D01*
X120886196Y-88479327D01*
X120988921Y-88400503D01*
X120988924Y-88400500D01*
X120995474Y-88395474D01*
X121044539Y-88331531D01*
X121101877Y-88289664D01*
X121172748Y-88285442D01*
X121221206Y-88308273D01*
X121320357Y-88384355D01*
X121455246Y-88440228D01*
X121600000Y-88459285D01*
X121608188Y-88458207D01*
X121736566Y-88441306D01*
X121744754Y-88440228D01*
X121879643Y-88384355D01*
X121886196Y-88379327D01*
X121988921Y-88300503D01*
X121988924Y-88300500D01*
X121995474Y-88295474D01*
X122007623Y-88279642D01*
X122079328Y-88186193D01*
X122084355Y-88179642D01*
X122094770Y-88154500D01*
X122137069Y-88052380D01*
X122140228Y-88044754D01*
X122141484Y-88035219D01*
X122158207Y-87908188D01*
X122159285Y-87900000D01*
X122158207Y-87891812D01*
X122158207Y-87884207D01*
X122178209Y-87816086D01*
X122231865Y-87769593D01*
X122284207Y-87758207D01*
X122291812Y-87758207D01*
X122300000Y-87759285D01*
X122308188Y-87758207D01*
X122330680Y-87755246D01*
X122444754Y-87740228D01*
X122579643Y-87684355D01*
X122612315Y-87659285D01*
X122688921Y-87600503D01*
X122688924Y-87600500D01*
X122695474Y-87595474D01*
X122784355Y-87479642D01*
X122801843Y-87437424D01*
X122834454Y-87358694D01*
X122840228Y-87344754D01*
X122859285Y-87200000D01*
X122846120Y-87100000D01*
X141340715Y-87100000D01*
X141359772Y-87244754D01*
X141362931Y-87252380D01*
X141407213Y-87359285D01*
X141415645Y-87379642D01*
X141443271Y-87415645D01*
X141493312Y-87480859D01*
X141504526Y-87495474D01*
X141511076Y-87500500D01*
X141511079Y-87500503D01*
X141560986Y-87538798D01*
X141620357Y-87584355D01*
X141755246Y-87640228D01*
X141900000Y-87659285D01*
X141908188Y-87658207D01*
X142036566Y-87641306D01*
X142044754Y-87640228D01*
X142179643Y-87584355D01*
X142239014Y-87538798D01*
X142288921Y-87500503D01*
X142288924Y-87500500D01*
X142295474Y-87495474D01*
X142306689Y-87480859D01*
X142356729Y-87415645D01*
X142384355Y-87379642D01*
X142392788Y-87359285D01*
X142437069Y-87252380D01*
X142440228Y-87244754D01*
X142459285Y-87100000D01*
X142451000Y-87037068D01*
X142441306Y-86963432D01*
X142441305Y-86963430D01*
X142440228Y-86955246D01*
X142418507Y-86902808D01*
X142387515Y-86827986D01*
X142387514Y-86827984D01*
X142384355Y-86820358D01*
X142295474Y-86704526D01*
X142288924Y-86699500D01*
X142288921Y-86699497D01*
X142186196Y-86620673D01*
X142186194Y-86620672D01*
X142179643Y-86615645D01*
X142044754Y-86559772D01*
X142013209Y-86555619D01*
X141908188Y-86541793D01*
X141900000Y-86540715D01*
X141891812Y-86541793D01*
X141763432Y-86558694D01*
X141763430Y-86558695D01*
X141755246Y-86559772D01*
X141733149Y-86568925D01*
X141627986Y-86612485D01*
X141627984Y-86612486D01*
X141620358Y-86615645D01*
X141504526Y-86704526D01*
X141415645Y-86820358D01*
X141412486Y-86827984D01*
X141412485Y-86827986D01*
X141381493Y-86902808D01*
X141359772Y-86955246D01*
X141358695Y-86963430D01*
X141358694Y-86963432D01*
X141349000Y-87037068D01*
X141340715Y-87100000D01*
X122846120Y-87100000D01*
X122842436Y-87072014D01*
X122841306Y-87063432D01*
X122841305Y-87063430D01*
X122840228Y-87055246D01*
X122808781Y-86979327D01*
X122787515Y-86927986D01*
X122787514Y-86927984D01*
X122784355Y-86920358D01*
X122739915Y-86862442D01*
X122700501Y-86811077D01*
X122700500Y-86811076D01*
X122695474Y-86804526D01*
X122688924Y-86799500D01*
X122688921Y-86799497D01*
X122586196Y-86720673D01*
X122586194Y-86720672D01*
X122579643Y-86715645D01*
X122444754Y-86659772D01*
X122300000Y-86640715D01*
X122291812Y-86641793D01*
X122163432Y-86658694D01*
X122163430Y-86658695D01*
X122155246Y-86659772D01*
X122146410Y-86663432D01*
X122027986Y-86712485D01*
X122027984Y-86712486D01*
X122020358Y-86715645D01*
X121904526Y-86804526D01*
X121899503Y-86811072D01*
X121880168Y-86836270D01*
X121815645Y-86920358D01*
X121812486Y-86927984D01*
X121812485Y-86927986D01*
X121791219Y-86979327D01*
X121759772Y-87055246D01*
X121758695Y-87063430D01*
X121758694Y-87063432D01*
X121757564Y-87072014D01*
X121740715Y-87200000D01*
X121741793Y-87208188D01*
X121741793Y-87215793D01*
X121721791Y-87283914D01*
X121668135Y-87330407D01*
X121615793Y-87341793D01*
X121608188Y-87341793D01*
X121600000Y-87340715D01*
X121591812Y-87341793D01*
X121463432Y-87358694D01*
X121463430Y-87358695D01*
X121455246Y-87359772D01*
X121407430Y-87379578D01*
X121327986Y-87412485D01*
X121327984Y-87412486D01*
X121320358Y-87415645D01*
X121204526Y-87504526D01*
X121199503Y-87511072D01*
X121155461Y-87568469D01*
X121098123Y-87610336D01*
X121027252Y-87614558D01*
X120978794Y-87591727D01*
X120886196Y-87520673D01*
X120886194Y-87520672D01*
X120879643Y-87515645D01*
X120744754Y-87459772D01*
X120600000Y-87440715D01*
X120591812Y-87441793D01*
X120463432Y-87458694D01*
X120463430Y-87458695D01*
X120455246Y-87459772D01*
X120320358Y-87515645D01*
X120313812Y-87520668D01*
X120311401Y-87522060D01*
X120242405Y-87538798D01*
X120175313Y-87515577D01*
X120131992Y-87461159D01*
X120087440Y-87353602D01*
X120087440Y-87353601D01*
X120084279Y-87345971D01*
X120007018Y-87245282D01*
X120000425Y-87236690D01*
X120000424Y-87236689D01*
X119995398Y-87230139D01*
X119988848Y-87225113D01*
X119988845Y-87225110D01*
X119886120Y-87146286D01*
X119886118Y-87146285D01*
X119879567Y-87141258D01*
X119744678Y-87085385D01*
X119599924Y-87066328D01*
X119591736Y-87067406D01*
X119591733Y-87067406D01*
X119583923Y-87068434D01*
X119513774Y-87057494D01*
X119460677Y-87010365D01*
X119441488Y-86942010D01*
X119442557Y-86927066D01*
X119458207Y-86808188D01*
X119459285Y-86800000D01*
X119448842Y-86720673D01*
X119441306Y-86663432D01*
X119441305Y-86663430D01*
X119440228Y-86655246D01*
X119401990Y-86562932D01*
X119387515Y-86527986D01*
X119387514Y-86527984D01*
X119384355Y-86520358D01*
X119338434Y-86460512D01*
X119300501Y-86411077D01*
X119300500Y-86411076D01*
X119295474Y-86404526D01*
X119288924Y-86399500D01*
X119288921Y-86399497D01*
X119186196Y-86320673D01*
X119186194Y-86320672D01*
X119179643Y-86315645D01*
X119044754Y-86259772D01*
X118900000Y-86240715D01*
X118891812Y-86241793D01*
X118763432Y-86258694D01*
X118763430Y-86258695D01*
X118755246Y-86259772D01*
X118707430Y-86279578D01*
X118627986Y-86312485D01*
X118627984Y-86312486D01*
X118620358Y-86315645D01*
X118504526Y-86404526D01*
X118415645Y-86520358D01*
X118412486Y-86527984D01*
X118412485Y-86527986D01*
X118398010Y-86562932D01*
X118359772Y-86655246D01*
X118358695Y-86663430D01*
X118358694Y-86663432D01*
X118351158Y-86720673D01*
X118340715Y-86800000D01*
X115368734Y-86800000D01*
X115384355Y-86779642D01*
X115408782Y-86720672D01*
X115437069Y-86652380D01*
X115440228Y-86644754D01*
X115443399Y-86620673D01*
X115457467Y-86513807D01*
X115459285Y-86500000D01*
X115446716Y-86404526D01*
X115441306Y-86363432D01*
X115441305Y-86363430D01*
X115440228Y-86355246D01*
X115401990Y-86262932D01*
X115387515Y-86227986D01*
X115387514Y-86227984D01*
X115384355Y-86220358D01*
X115295474Y-86104526D01*
X115288924Y-86099500D01*
X115288921Y-86099497D01*
X115186196Y-86020673D01*
X115186194Y-86020672D01*
X115179643Y-86015645D01*
X115044754Y-85959772D01*
X114900000Y-85940715D01*
X114891812Y-85941793D01*
X114763432Y-85958694D01*
X114763430Y-85958695D01*
X114755246Y-85959772D01*
X114707430Y-85979578D01*
X114627986Y-86012485D01*
X114627984Y-86012486D01*
X114620358Y-86015645D01*
X114504526Y-86104526D01*
X114415645Y-86220358D01*
X114412486Y-86227984D01*
X114412485Y-86227986D01*
X114398010Y-86262932D01*
X114359772Y-86355246D01*
X114358695Y-86363430D01*
X114358694Y-86363432D01*
X114353284Y-86404526D01*
X114340715Y-86500000D01*
X101694853Y-86500000D01*
X101677873Y-86440423D01*
X101698416Y-86372464D01*
X101746177Y-86329409D01*
X101920978Y-86239381D01*
X101931024Y-86232931D01*
X102087857Y-86109738D01*
X102096506Y-86101501D01*
X102227212Y-85950877D01*
X102234147Y-85941153D01*
X102334010Y-85768533D01*
X102338984Y-85757669D01*
X102404407Y-85569273D01*
X102404648Y-85568284D01*
X102403180Y-85557992D01*
X102389615Y-85554000D01*
X99714598Y-85554000D01*
X99701067Y-85557973D01*
X99699712Y-85567399D01*
X98254500Y-85567399D01*
X98254500Y-85031716D01*
X99695352Y-85031716D01*
X99696820Y-85042008D01*
X99710385Y-85046000D01*
X102385402Y-85046000D01*
X102398933Y-85042027D01*
X102400288Y-85032601D01*
X102378806Y-84943463D01*
X102374917Y-84932168D01*
X102292371Y-84750618D01*
X102286424Y-84740276D01*
X102171032Y-84577603D01*
X102163239Y-84568575D01*
X102019169Y-84430658D01*
X102009804Y-84423262D01*
X101842259Y-84315079D01*
X101831655Y-84309583D01*
X101750421Y-84276845D01*
X101694715Y-84232830D01*
X101671648Y-84165685D01*
X101688545Y-84096729D01*
X101732625Y-84051976D01*
X101838825Y-83988165D01*
X101844677Y-83984649D01*
X101849634Y-83979961D01*
X101849637Y-83979959D01*
X101974614Y-83861773D01*
X101974616Y-83861771D01*
X101979572Y-83857084D01*
X102083928Y-83703529D01*
X102086463Y-83697192D01*
X102150342Y-83537484D01*
X102150343Y-83537479D01*
X102152876Y-83531147D01*
X102153990Y-83524420D01*
X102153991Y-83524415D01*
X102182084Y-83354718D01*
X102182084Y-83354715D01*
X102183199Y-83347981D01*
X102180719Y-83300646D01*
X102180323Y-83293096D01*
X123440729Y-83293096D01*
X123458113Y-83450553D01*
X123512553Y-83599319D01*
X123600908Y-83730805D01*
X123606527Y-83735918D01*
X123606528Y-83735919D01*
X123712460Y-83832309D01*
X123718076Y-83837419D01*
X123857293Y-83913008D01*
X124010522Y-83953207D01*
X124094477Y-83954526D01*
X124161319Y-83955576D01*
X124161322Y-83955576D01*
X124168916Y-83955695D01*
X124323332Y-83920329D01*
X124439759Y-83861773D01*
X124458072Y-83852563D01*
X124458075Y-83852561D01*
X124464855Y-83849151D01*
X124470626Y-83844222D01*
X124470629Y-83844220D01*
X124579536Y-83751204D01*
X124579536Y-83751203D01*
X124585314Y-83746269D01*
X124677755Y-83617624D01*
X124736842Y-83470641D01*
X124753340Y-83354718D01*
X124758581Y-83317891D01*
X124758581Y-83317888D01*
X124759162Y-83313807D01*
X124759307Y-83300000D01*
X124740276Y-83142733D01*
X124684280Y-82994546D01*
X124672595Y-82977544D01*
X124598855Y-82870251D01*
X124598854Y-82870249D01*
X124594553Y-82863992D01*
X124476275Y-82758611D01*
X124468889Y-82754700D01*
X124342988Y-82688039D01*
X124342989Y-82688039D01*
X124336274Y-82684484D01*
X124182633Y-82645892D01*
X124175034Y-82645852D01*
X124175033Y-82645852D01*
X124109181Y-82645507D01*
X124024221Y-82645062D01*
X124016841Y-82646834D01*
X124016839Y-82646834D01*
X123877563Y-82680271D01*
X123877560Y-82680272D01*
X123870184Y-82682043D01*
X123729414Y-82754700D01*
X123610039Y-82858838D01*
X123518950Y-82988444D01*
X123461406Y-83136037D01*
X123460414Y-83143570D01*
X123460414Y-83143571D01*
X123445239Y-83258840D01*
X123440729Y-83293096D01*
X102180323Y-83293096D01*
X102173839Y-83169389D01*
X102173482Y-83162576D01*
X102171672Y-83156004D01*
X102171671Y-83155999D01*
X102125992Y-82990165D01*
X102124179Y-82983583D01*
X102037590Y-82819352D01*
X101917755Y-82677546D01*
X101912330Y-82673398D01*
X101775685Y-82568925D01*
X101775681Y-82568923D01*
X101770264Y-82564781D01*
X101764084Y-82561899D01*
X101764082Y-82561898D01*
X101608177Y-82489198D01*
X101608174Y-82489197D01*
X101602000Y-82486318D01*
X101595352Y-82484832D01*
X101595349Y-82484831D01*
X101425849Y-82446944D01*
X101425850Y-82446944D01*
X101420812Y-82445818D01*
X101415124Y-82445500D01*
X100728615Y-82445500D01*
X100590427Y-82460512D01*
X100505189Y-82489198D01*
X100420936Y-82517552D01*
X100420934Y-82517553D01*
X100414465Y-82519730D01*
X100255323Y-82615351D01*
X100250366Y-82620039D01*
X100250363Y-82620041D01*
X100178458Y-82688039D01*
X100120428Y-82742916D01*
X100016072Y-82896471D01*
X100013539Y-82902805D01*
X100013537Y-82902808D01*
X99949658Y-83062516D01*
X99949657Y-83062521D01*
X99947124Y-83068853D01*
X99946010Y-83075580D01*
X99946009Y-83075585D01*
X99934893Y-83142733D01*
X99916801Y-83252019D01*
X99917158Y-83258836D01*
X99917158Y-83258840D01*
X99919532Y-83304134D01*
X99926518Y-83437424D01*
X99928328Y-83443996D01*
X99928329Y-83444001D01*
X99954079Y-83537484D01*
X99975821Y-83616417D01*
X100062410Y-83780648D01*
X100182245Y-83922454D01*
X100187668Y-83926601D01*
X100187670Y-83926602D01*
X100324315Y-84031075D01*
X100324319Y-84031077D01*
X100329736Y-84035219D01*
X100335919Y-84038102D01*
X100349383Y-84044381D01*
X100402667Y-84091299D01*
X100422127Y-84159577D01*
X100401584Y-84227536D01*
X100353823Y-84270591D01*
X100179022Y-84360619D01*
X100168976Y-84367069D01*
X100012143Y-84490262D01*
X100003494Y-84498499D01*
X99872788Y-84649123D01*
X99865853Y-84658847D01*
X99765990Y-84831467D01*
X99761016Y-84842331D01*
X99695593Y-85030727D01*
X99695352Y-85031716D01*
X98254500Y-85031716D01*
X98254500Y-81697756D01*
X99920500Y-81697756D01*
X99927202Y-81759448D01*
X99977929Y-81894764D01*
X99983309Y-81901943D01*
X99983311Y-81901946D01*
X100049287Y-81989977D01*
X100064596Y-82010404D01*
X100071776Y-82015785D01*
X100173054Y-82091689D01*
X100173057Y-82091691D01*
X100180236Y-82097071D01*
X100269954Y-82130704D01*
X100308157Y-82145026D01*
X100308159Y-82145026D01*
X100315552Y-82147798D01*
X100323402Y-82148651D01*
X100323403Y-82148651D01*
X100373847Y-82154131D01*
X100377244Y-82154500D01*
X101722756Y-82154500D01*
X101726153Y-82154131D01*
X101776597Y-82148651D01*
X101776598Y-82148651D01*
X101784448Y-82147798D01*
X101791841Y-82145026D01*
X101791843Y-82145026D01*
X101830046Y-82130704D01*
X101919764Y-82097071D01*
X101926943Y-82091691D01*
X101926946Y-82091689D01*
X102028224Y-82015785D01*
X102035404Y-82010404D01*
X102050713Y-81989977D01*
X102116689Y-81901946D01*
X102116691Y-81901943D01*
X102122071Y-81894764D01*
X102172798Y-81759448D01*
X102179500Y-81697756D01*
X102179500Y-80902244D01*
X102172798Y-80840552D01*
X102122071Y-80705236D01*
X102116691Y-80698057D01*
X102116689Y-80698054D01*
X102040785Y-80596776D01*
X102035404Y-80589596D01*
X102014977Y-80574287D01*
X101926946Y-80508311D01*
X101926943Y-80508309D01*
X101919764Y-80502929D01*
X101830046Y-80469296D01*
X101791843Y-80454974D01*
X101791841Y-80454974D01*
X101784448Y-80452202D01*
X101776598Y-80451349D01*
X101776597Y-80451349D01*
X101726153Y-80445869D01*
X101726152Y-80445869D01*
X101722756Y-80445500D01*
X100377244Y-80445500D01*
X100373848Y-80445869D01*
X100373847Y-80445869D01*
X100323403Y-80451349D01*
X100323402Y-80451349D01*
X100315552Y-80452202D01*
X100308159Y-80454974D01*
X100308157Y-80454974D01*
X100269954Y-80469296D01*
X100180236Y-80502929D01*
X100173057Y-80508309D01*
X100173054Y-80508311D01*
X100085023Y-80574287D01*
X100064596Y-80589596D01*
X100059215Y-80596776D01*
X99983311Y-80698054D01*
X99983309Y-80698057D01*
X99977929Y-80705236D01*
X99927202Y-80840552D01*
X99920500Y-80902244D01*
X99920500Y-81697756D01*
X98254500Y-81697756D01*
X98254500Y-78085768D01*
X99677425Y-78085768D01*
X99709138Y-78193521D01*
X99713731Y-78204889D01*
X99799607Y-78369154D01*
X99806321Y-78379415D01*
X99922468Y-78523873D01*
X99931046Y-78532632D01*
X100073039Y-78651778D01*
X100083159Y-78658708D01*
X100245585Y-78748002D01*
X100256858Y-78752834D01*
X100433538Y-78808880D01*
X100445532Y-78811430D01*
X100589761Y-78827607D01*
X100596785Y-78828000D01*
X100677885Y-78828000D01*
X100693124Y-78823525D01*
X100694329Y-78822135D01*
X100696000Y-78814452D01*
X100696000Y-78809885D01*
X101204000Y-78809885D01*
X101208475Y-78825124D01*
X101209865Y-78826329D01*
X101217548Y-78828000D01*
X101296657Y-78828000D01*
X101302805Y-78827699D01*
X101440603Y-78814188D01*
X101452638Y-78811805D01*
X101630076Y-78758233D01*
X101641416Y-78753559D01*
X101805077Y-78666540D01*
X101815294Y-78659751D01*
X101958933Y-78542603D01*
X101967637Y-78533959D01*
X102085784Y-78391144D01*
X102092644Y-78380973D01*
X102180804Y-78217924D01*
X102185556Y-78206619D01*
X102221250Y-78091308D01*
X102221331Y-78085768D01*
X103607425Y-78085768D01*
X103639138Y-78193521D01*
X103643731Y-78204889D01*
X103729607Y-78369154D01*
X103736321Y-78379415D01*
X103852468Y-78523873D01*
X103861046Y-78532632D01*
X104003039Y-78651778D01*
X104013159Y-78658708D01*
X104175585Y-78748002D01*
X104186858Y-78752834D01*
X104363538Y-78808880D01*
X104375532Y-78811430D01*
X104519761Y-78827607D01*
X104526785Y-78828000D01*
X104857885Y-78828000D01*
X104873124Y-78823525D01*
X104874329Y-78822135D01*
X104876000Y-78814452D01*
X104876000Y-78809885D01*
X105384000Y-78809885D01*
X105388475Y-78825124D01*
X105389865Y-78826329D01*
X105397548Y-78828000D01*
X105726657Y-78828000D01*
X105732805Y-78827699D01*
X105870603Y-78814188D01*
X105882638Y-78811805D01*
X106060076Y-78758233D01*
X106071416Y-78753559D01*
X106235077Y-78666540D01*
X106245294Y-78659751D01*
X106388933Y-78542603D01*
X106397637Y-78533959D01*
X106515784Y-78391144D01*
X106522644Y-78380973D01*
X106610804Y-78217924D01*
X106615556Y-78206619D01*
X106651250Y-78091308D01*
X106651456Y-78077205D01*
X106644701Y-78074000D01*
X105402115Y-78074000D01*
X105386876Y-78078475D01*
X105385671Y-78079865D01*
X105384000Y-78087548D01*
X105384000Y-78809885D01*
X104876000Y-78809885D01*
X104876000Y-78092115D01*
X104871525Y-78076876D01*
X104870135Y-78075671D01*
X104862452Y-78074000D01*
X103622076Y-78074000D01*
X103608545Y-78077973D01*
X103607425Y-78085768D01*
X102221331Y-78085768D01*
X102221456Y-78077205D01*
X102214701Y-78074000D01*
X101222115Y-78074000D01*
X101206876Y-78078475D01*
X101205671Y-78079865D01*
X101204000Y-78087548D01*
X101204000Y-78809885D01*
X100696000Y-78809885D01*
X100696000Y-78092115D01*
X100691525Y-78076876D01*
X100690135Y-78075671D01*
X100682452Y-78074000D01*
X99692076Y-78074000D01*
X99678545Y-78077973D01*
X99677425Y-78085768D01*
X98254500Y-78085768D01*
X98254500Y-77562795D01*
X99678544Y-77562795D01*
X99685299Y-77566000D01*
X100677885Y-77566000D01*
X100693124Y-77561525D01*
X100694329Y-77560135D01*
X100696000Y-77552452D01*
X100696000Y-77547885D01*
X101204000Y-77547885D01*
X101208475Y-77563124D01*
X101209865Y-77564329D01*
X101217548Y-77566000D01*
X102207924Y-77566000D01*
X102218839Y-77562795D01*
X103608544Y-77562795D01*
X103615299Y-77566000D01*
X106637924Y-77566000D01*
X106651455Y-77562027D01*
X106652575Y-77554232D01*
X106620862Y-77446479D01*
X106616269Y-77435111D01*
X106530393Y-77270846D01*
X106523679Y-77260585D01*
X106407532Y-77116127D01*
X106398954Y-77107368D01*
X106256961Y-76988222D01*
X106246841Y-76981292D01*
X106084415Y-76891998D01*
X106073142Y-76887166D01*
X105896462Y-76831120D01*
X105884468Y-76828570D01*
X105740239Y-76812393D01*
X105733215Y-76812000D01*
X105241020Y-76812000D01*
X105172899Y-76791998D01*
X105126406Y-76738342D01*
X105116302Y-76668068D01*
X105124610Y-76637786D01*
X105164584Y-76541280D01*
X105184500Y-76390000D01*
X105164584Y-76238720D01*
X105106192Y-76097750D01*
X105101164Y-76091197D01*
X105101162Y-76091194D01*
X105017274Y-75981869D01*
X104991673Y-75915649D01*
X105005938Y-75846100D01*
X105050953Y-75800000D01*
X107940715Y-75800000D01*
X107959772Y-75944754D01*
X108015645Y-76079642D01*
X108104526Y-76195474D01*
X108111076Y-76200500D01*
X108111079Y-76200503D01*
X108213804Y-76279327D01*
X108220357Y-76284355D01*
X108355246Y-76340228D01*
X108500000Y-76359285D01*
X108508188Y-76358207D01*
X108636566Y-76341306D01*
X108644754Y-76340228D01*
X108779643Y-76284355D01*
X108786196Y-76279327D01*
X108888921Y-76200503D01*
X108888924Y-76200500D01*
X108895474Y-76195474D01*
X108984355Y-76079642D01*
X109040228Y-75944754D01*
X109059285Y-75800000D01*
X109044662Y-75688923D01*
X109041306Y-75663432D01*
X109041305Y-75663430D01*
X109040228Y-75655246D01*
X109017344Y-75600000D01*
X115340715Y-75600000D01*
X115359772Y-75744754D01*
X115362931Y-75752380D01*
X115393184Y-75825416D01*
X115415645Y-75879642D01*
X115420672Y-75886193D01*
X115494087Y-75981869D01*
X115504526Y-75995474D01*
X115511076Y-76000500D01*
X115511079Y-76000503D01*
X115604274Y-76072014D01*
X115620357Y-76084355D01*
X115755246Y-76140228D01*
X115900000Y-76159285D01*
X115908188Y-76158207D01*
X116036566Y-76141306D01*
X116044754Y-76140228D01*
X116179643Y-76084355D01*
X116195726Y-76072014D01*
X116288921Y-76000503D01*
X116288924Y-76000500D01*
X116295474Y-75995474D01*
X116305914Y-75981869D01*
X116379328Y-75886193D01*
X116384355Y-75879642D01*
X116406817Y-75825416D01*
X116437069Y-75752380D01*
X116440228Y-75744754D01*
X116459285Y-75600000D01*
X116440228Y-75455246D01*
X116384355Y-75320358D01*
X116295474Y-75204526D01*
X116288924Y-75199500D01*
X116288921Y-75199497D01*
X116186196Y-75120673D01*
X116186194Y-75120672D01*
X116179643Y-75115645D01*
X116044754Y-75059772D01*
X115900000Y-75040715D01*
X115891812Y-75041793D01*
X115763432Y-75058694D01*
X115763430Y-75058695D01*
X115755246Y-75059772D01*
X115707430Y-75079578D01*
X115627986Y-75112485D01*
X115627984Y-75112486D01*
X115620358Y-75115645D01*
X115504526Y-75204526D01*
X115415645Y-75320358D01*
X115359772Y-75455246D01*
X115340715Y-75600000D01*
X109017344Y-75600000D01*
X109011625Y-75586193D01*
X108987515Y-75527986D01*
X108987514Y-75527984D01*
X108984355Y-75520358D01*
X108895474Y-75404526D01*
X108888924Y-75399500D01*
X108888921Y-75399497D01*
X108786196Y-75320673D01*
X108786194Y-75320672D01*
X108779643Y-75315645D01*
X108644754Y-75259772D01*
X108500000Y-75240715D01*
X108491812Y-75241793D01*
X108363432Y-75258694D01*
X108363430Y-75258695D01*
X108355246Y-75259772D01*
X108307430Y-75279578D01*
X108227986Y-75312485D01*
X108227984Y-75312486D01*
X108220358Y-75315645D01*
X108104526Y-75404526D01*
X108015645Y-75520358D01*
X108012486Y-75527984D01*
X108012485Y-75527986D01*
X107988375Y-75586193D01*
X107959772Y-75655246D01*
X107958695Y-75663430D01*
X107958694Y-75663432D01*
X107955338Y-75688923D01*
X107940715Y-75800000D01*
X105050953Y-75800000D01*
X105055539Y-75795304D01*
X105069018Y-75788756D01*
X105079643Y-75784355D01*
X105086196Y-75779327D01*
X105188921Y-75700503D01*
X105188924Y-75700500D01*
X105195474Y-75695474D01*
X105284355Y-75579642D01*
X105308912Y-75520358D01*
X105337069Y-75452380D01*
X105340228Y-75444754D01*
X105344663Y-75411072D01*
X105358207Y-75308188D01*
X105359285Y-75300000D01*
X105346716Y-75204526D01*
X105341306Y-75163432D01*
X105341305Y-75163430D01*
X105340228Y-75155246D01*
X105301990Y-75062932D01*
X105287515Y-75027986D01*
X105287514Y-75027984D01*
X105284355Y-75020358D01*
X105195474Y-74904526D01*
X105188924Y-74899500D01*
X105188921Y-74899497D01*
X105086196Y-74820673D01*
X105086194Y-74820672D01*
X105079643Y-74815645D01*
X104944754Y-74759772D01*
X104800000Y-74740715D01*
X104791812Y-74741793D01*
X104663432Y-74758694D01*
X104663430Y-74758695D01*
X104655246Y-74759772D01*
X104607430Y-74779578D01*
X104527986Y-74812485D01*
X104527984Y-74812486D01*
X104520358Y-74815645D01*
X104404526Y-74904526D01*
X104315645Y-75020358D01*
X104312486Y-75027984D01*
X104312485Y-75027986D01*
X104298010Y-75062932D01*
X104259772Y-75155246D01*
X104258695Y-75163430D01*
X104258694Y-75163432D01*
X104253284Y-75204526D01*
X104240715Y-75300000D01*
X104241793Y-75308188D01*
X104255338Y-75411072D01*
X104259772Y-75444754D01*
X104262931Y-75452380D01*
X104291089Y-75520358D01*
X104315645Y-75579642D01*
X104320672Y-75586193D01*
X104320675Y-75586198D01*
X104390882Y-75677694D01*
X104416483Y-75743914D01*
X104402218Y-75813463D01*
X104352617Y-75864259D01*
X104339137Y-75870807D01*
X104315382Y-75880646D01*
X104315378Y-75880648D01*
X104307750Y-75883808D01*
X104186696Y-75976696D01*
X104093808Y-76097750D01*
X104035416Y-76238720D01*
X104015500Y-76390000D01*
X104035416Y-76541280D01*
X104093808Y-76682250D01*
X104098836Y-76688803D01*
X104098838Y-76688806D01*
X104141943Y-76744982D01*
X104167544Y-76811202D01*
X104153279Y-76880751D01*
X104101134Y-76932937D01*
X104024931Y-76973455D01*
X104014706Y-76980249D01*
X103871067Y-77097397D01*
X103862363Y-77106041D01*
X103744216Y-77248856D01*
X103737356Y-77259027D01*
X103649196Y-77422076D01*
X103644444Y-77433381D01*
X103608750Y-77548692D01*
X103608544Y-77562795D01*
X102218839Y-77562795D01*
X102221455Y-77562027D01*
X102222575Y-77554232D01*
X102190862Y-77446479D01*
X102186269Y-77435111D01*
X102100393Y-77270846D01*
X102093679Y-77260585D01*
X101977532Y-77116127D01*
X101968954Y-77107368D01*
X101826961Y-76988222D01*
X101816841Y-76981292D01*
X101654415Y-76891998D01*
X101643142Y-76887166D01*
X101466462Y-76831120D01*
X101454468Y-76828570D01*
X101310239Y-76812393D01*
X101303215Y-76812000D01*
X101222115Y-76812000D01*
X101206876Y-76816475D01*
X101205671Y-76817865D01*
X101204000Y-76825548D01*
X101204000Y-77547885D01*
X100696000Y-77547885D01*
X100696000Y-76830115D01*
X100691525Y-76814876D01*
X100690135Y-76813671D01*
X100682452Y-76812000D01*
X100603343Y-76812000D01*
X100597195Y-76812301D01*
X100459397Y-76825812D01*
X100447362Y-76828195D01*
X100269924Y-76881767D01*
X100258584Y-76886441D01*
X100094923Y-76973460D01*
X100084706Y-76980249D01*
X99941067Y-77097397D01*
X99932363Y-77106041D01*
X99814216Y-77248856D01*
X99807356Y-77259027D01*
X99719196Y-77422076D01*
X99714444Y-77433381D01*
X99678750Y-77548692D01*
X99678544Y-77562795D01*
X98254500Y-77562795D01*
X98254500Y-73400000D01*
X115940715Y-73400000D01*
X115959772Y-73544754D01*
X115962931Y-73552380D01*
X115994350Y-73628231D01*
X116015645Y-73679642D01*
X116104526Y-73795474D01*
X116111076Y-73800500D01*
X116111079Y-73800503D01*
X116213804Y-73879327D01*
X116220357Y-73884355D01*
X116355246Y-73940228D01*
X116500000Y-73959285D01*
X116508188Y-73958207D01*
X116636566Y-73941306D01*
X116644754Y-73940228D01*
X116779643Y-73884355D01*
X116786196Y-73879327D01*
X116888921Y-73800503D01*
X116888924Y-73800500D01*
X116895474Y-73795474D01*
X116984355Y-73679642D01*
X117005651Y-73628231D01*
X117037069Y-73552380D01*
X117040228Y-73544754D01*
X117059285Y-73400000D01*
X117040228Y-73255246D01*
X116994305Y-73144378D01*
X116987515Y-73127986D01*
X116987514Y-73127984D01*
X116984355Y-73120358D01*
X116895474Y-73004526D01*
X116888924Y-72999500D01*
X116888921Y-72999497D01*
X116786196Y-72920673D01*
X116786194Y-72920672D01*
X116779643Y-72915645D01*
X116644754Y-72859772D01*
X116500000Y-72840715D01*
X116491812Y-72841793D01*
X116363432Y-72858694D01*
X116363430Y-72858695D01*
X116355246Y-72859772D01*
X116307430Y-72879578D01*
X116227986Y-72912485D01*
X116227984Y-72912486D01*
X116220358Y-72915645D01*
X116104526Y-73004526D01*
X116015645Y-73120358D01*
X116012486Y-73127984D01*
X116012485Y-73127986D01*
X116005695Y-73144378D01*
X115959772Y-73255246D01*
X115940715Y-73400000D01*
X98254500Y-73400000D01*
X98254500Y-69445768D01*
X99677425Y-69445768D01*
X99709138Y-69553521D01*
X99713731Y-69564889D01*
X99799607Y-69729154D01*
X99806321Y-69739415D01*
X99922468Y-69883873D01*
X99931046Y-69892632D01*
X100073039Y-70011778D01*
X100083159Y-70018708D01*
X100245585Y-70108002D01*
X100256858Y-70112834D01*
X100433538Y-70168880D01*
X100445532Y-70171430D01*
X100589761Y-70187607D01*
X100596785Y-70188000D01*
X100677885Y-70188000D01*
X100693124Y-70183525D01*
X100694329Y-70182135D01*
X100696000Y-70174452D01*
X100696000Y-70169885D01*
X101204000Y-70169885D01*
X101208475Y-70185124D01*
X101209865Y-70186329D01*
X101217548Y-70188000D01*
X101296657Y-70188000D01*
X101302805Y-70187699D01*
X101440603Y-70174188D01*
X101452638Y-70171805D01*
X101630076Y-70118233D01*
X101641416Y-70113559D01*
X101805077Y-70026540D01*
X101815294Y-70019751D01*
X101958933Y-69902603D01*
X101967637Y-69893959D01*
X102085784Y-69751144D01*
X102092644Y-69740973D01*
X102180804Y-69577924D01*
X102185556Y-69566619D01*
X102221250Y-69451308D01*
X102221331Y-69445768D01*
X103607425Y-69445768D01*
X103639138Y-69553521D01*
X103643731Y-69564889D01*
X103729607Y-69729154D01*
X103736321Y-69739415D01*
X103852468Y-69883873D01*
X103861046Y-69892632D01*
X104003039Y-70011778D01*
X104013152Y-70018702D01*
X104102669Y-70067915D01*
X104152728Y-70118261D01*
X104167621Y-70187678D01*
X104141931Y-70255033D01*
X104098837Y-70311195D01*
X104098834Y-70311199D01*
X104093808Y-70317750D01*
X104035416Y-70458720D01*
X104015500Y-70610000D01*
X104035416Y-70761280D01*
X104093808Y-70902250D01*
X104186696Y-71023304D01*
X104307750Y-71116192D01*
X104448720Y-71174584D01*
X104456908Y-71175662D01*
X104556673Y-71188796D01*
X104562020Y-71189500D01*
X104637980Y-71189500D01*
X104643328Y-71188796D01*
X104743092Y-71175662D01*
X104751280Y-71174584D01*
X104892250Y-71116192D01*
X104909486Y-71102966D01*
X117868257Y-71102966D01*
X117898565Y-71237446D01*
X117901645Y-71247275D01*
X117981770Y-71444603D01*
X117986413Y-71453794D01*
X118097694Y-71635388D01*
X118103777Y-71643699D01*
X118243213Y-71804667D01*
X118250580Y-71811883D01*
X118414434Y-71947916D01*
X118422881Y-71953831D01*
X118563005Y-72035713D01*
X118611729Y-72087352D01*
X118624800Y-72157135D01*
X118598069Y-72222906D01*
X118540022Y-72263785D01*
X118499436Y-72270501D01*
X118324934Y-72270501D01*
X118289182Y-72277612D01*
X118262874Y-72282844D01*
X118262872Y-72282845D01*
X118250699Y-72285266D01*
X118240379Y-72292161D01*
X118240378Y-72292162D01*
X118179985Y-72332516D01*
X118166516Y-72341516D01*
X118110266Y-72425699D01*
X118095500Y-72499933D01*
X118095501Y-74250066D01*
X118110266Y-74324301D01*
X118117161Y-74334620D01*
X118117162Y-74334622D01*
X118157516Y-74395015D01*
X118166516Y-74408484D01*
X118250699Y-74464734D01*
X118324933Y-74479500D01*
X119199858Y-74479500D01*
X120075066Y-74479499D01*
X120110818Y-74472388D01*
X120137126Y-74467156D01*
X120137128Y-74467155D01*
X120149301Y-74464734D01*
X120159621Y-74457839D01*
X120159622Y-74457838D01*
X120223168Y-74415377D01*
X120233484Y-74408484D01*
X120289734Y-74324301D01*
X120304500Y-74250067D01*
X120304499Y-73345964D01*
X120631148Y-73345964D01*
X120631526Y-73351730D01*
X120643641Y-73536568D01*
X120644424Y-73548522D01*
X120645845Y-73554118D01*
X120645846Y-73554123D01*
X120679388Y-73686193D01*
X120694392Y-73745269D01*
X120696809Y-73750512D01*
X120734010Y-73831208D01*
X120779377Y-73929616D01*
X120896533Y-74095389D01*
X121041938Y-74237035D01*
X121210720Y-74349812D01*
X121216023Y-74352090D01*
X121216026Y-74352092D01*
X121347283Y-74408484D01*
X121397228Y-74429942D01*
X121470244Y-74446464D01*
X121589579Y-74473467D01*
X121589584Y-74473468D01*
X121595216Y-74474742D01*
X121600987Y-74474969D01*
X121600989Y-74474969D01*
X121660756Y-74477317D01*
X121798053Y-74482712D01*
X121905348Y-74467155D01*
X121993231Y-74454413D01*
X121993236Y-74454412D01*
X121998945Y-74453584D01*
X122004409Y-74451729D01*
X122004414Y-74451728D01*
X122185693Y-74390192D01*
X122185698Y-74390190D01*
X122191165Y-74388334D01*
X122368276Y-74289147D01*
X122407969Y-74256135D01*
X122519913Y-74163031D01*
X122524345Y-74159345D01*
X122654147Y-74003276D01*
X122753334Y-73826165D01*
X122755190Y-73820698D01*
X122755192Y-73820693D01*
X122816728Y-73639414D01*
X122816729Y-73639409D01*
X122818584Y-73633945D01*
X122819412Y-73628236D01*
X122819413Y-73628231D01*
X122847179Y-73436727D01*
X122847712Y-73433053D01*
X122849232Y-73375000D01*
X122846564Y-73345964D01*
X123171148Y-73345964D01*
X123171526Y-73351730D01*
X123183641Y-73536568D01*
X123184424Y-73548522D01*
X123185845Y-73554118D01*
X123185846Y-73554123D01*
X123219388Y-73686193D01*
X123234392Y-73745269D01*
X123236809Y-73750512D01*
X123274010Y-73831208D01*
X123319377Y-73929616D01*
X123436533Y-74095389D01*
X123581938Y-74237035D01*
X123750720Y-74349812D01*
X123756023Y-74352090D01*
X123756026Y-74352092D01*
X123887283Y-74408484D01*
X123937228Y-74429942D01*
X124010244Y-74446464D01*
X124129579Y-74473467D01*
X124129584Y-74473468D01*
X124135216Y-74474742D01*
X124140987Y-74474969D01*
X124140989Y-74474969D01*
X124200756Y-74477317D01*
X124338053Y-74482712D01*
X124445348Y-74467155D01*
X124533231Y-74454413D01*
X124533236Y-74454412D01*
X124538945Y-74453584D01*
X124544409Y-74451729D01*
X124544414Y-74451728D01*
X124725693Y-74390192D01*
X124725698Y-74390190D01*
X124731165Y-74388334D01*
X124908276Y-74289147D01*
X124947969Y-74256135D01*
X125059913Y-74163031D01*
X125064345Y-74159345D01*
X125194147Y-74003276D01*
X125293334Y-73826165D01*
X125295190Y-73820698D01*
X125295192Y-73820693D01*
X125356728Y-73639414D01*
X125356729Y-73639409D01*
X125358584Y-73633945D01*
X125359412Y-73628236D01*
X125359413Y-73628231D01*
X125387179Y-73436727D01*
X125387712Y-73433053D01*
X125389232Y-73375000D01*
X125386564Y-73345964D01*
X125711148Y-73345964D01*
X125711526Y-73351730D01*
X125723641Y-73536568D01*
X125724424Y-73548522D01*
X125725845Y-73554118D01*
X125725846Y-73554123D01*
X125759388Y-73686193D01*
X125774392Y-73745269D01*
X125776809Y-73750512D01*
X125814010Y-73831208D01*
X125859377Y-73929616D01*
X125976533Y-74095389D01*
X126121938Y-74237035D01*
X126290720Y-74349812D01*
X126296023Y-74352090D01*
X126296026Y-74352092D01*
X126427283Y-74408484D01*
X126477228Y-74429942D01*
X126550244Y-74446464D01*
X126669579Y-74473467D01*
X126669584Y-74473468D01*
X126675216Y-74474742D01*
X126680987Y-74474969D01*
X126680989Y-74474969D01*
X126740756Y-74477317D01*
X126878053Y-74482712D01*
X126985348Y-74467155D01*
X127073231Y-74454413D01*
X127073236Y-74454412D01*
X127078945Y-74453584D01*
X127084409Y-74451729D01*
X127084414Y-74451728D01*
X127265693Y-74390192D01*
X127265698Y-74390190D01*
X127271165Y-74388334D01*
X127448276Y-74289147D01*
X127487969Y-74256135D01*
X127599913Y-74163031D01*
X127604345Y-74159345D01*
X127734147Y-74003276D01*
X127833334Y-73826165D01*
X127835190Y-73820698D01*
X127835192Y-73820693D01*
X127896728Y-73639414D01*
X127896729Y-73639409D01*
X127898584Y-73633945D01*
X127899412Y-73628236D01*
X127899413Y-73628231D01*
X127927179Y-73436727D01*
X127927712Y-73433053D01*
X127929232Y-73375000D01*
X127910658Y-73172859D01*
X127909090Y-73167299D01*
X127857125Y-72983046D01*
X127857124Y-72983044D01*
X127855557Y-72977487D01*
X127844978Y-72956033D01*
X127768331Y-72800609D01*
X127765776Y-72795428D01*
X127644320Y-72632779D01*
X127495258Y-72494987D01*
X127490375Y-72491906D01*
X127490371Y-72491903D01*
X127328464Y-72389748D01*
X127323581Y-72386667D01*
X127135039Y-72311446D01*
X127129379Y-72310320D01*
X127129375Y-72310319D01*
X126941613Y-72272971D01*
X126941610Y-72272971D01*
X126935946Y-72271844D01*
X126930171Y-72271768D01*
X126930167Y-72271768D01*
X126828793Y-72270441D01*
X126732971Y-72269187D01*
X126727274Y-72270166D01*
X126727273Y-72270166D01*
X126639397Y-72285266D01*
X126532910Y-72303564D01*
X126342463Y-72373824D01*
X126168010Y-72477612D01*
X126163670Y-72481418D01*
X126163666Y-72481421D01*
X126019733Y-72607648D01*
X126015392Y-72611455D01*
X125889720Y-72770869D01*
X125887031Y-72775980D01*
X125887029Y-72775983D01*
X125874073Y-72800609D01*
X125795203Y-72950515D01*
X125735007Y-73144378D01*
X125711148Y-73345964D01*
X125386564Y-73345964D01*
X125370658Y-73172859D01*
X125369090Y-73167299D01*
X125317125Y-72983046D01*
X125317124Y-72983044D01*
X125315557Y-72977487D01*
X125304978Y-72956033D01*
X125228331Y-72800609D01*
X125225776Y-72795428D01*
X125104320Y-72632779D01*
X124955258Y-72494987D01*
X124950375Y-72491906D01*
X124950371Y-72491903D01*
X124788464Y-72389748D01*
X124783581Y-72386667D01*
X124595039Y-72311446D01*
X124589379Y-72310320D01*
X124589375Y-72310319D01*
X124401613Y-72272971D01*
X124401610Y-72272971D01*
X124395946Y-72271844D01*
X124390171Y-72271768D01*
X124390167Y-72271768D01*
X124288793Y-72270441D01*
X124192971Y-72269187D01*
X124187274Y-72270166D01*
X124187273Y-72270166D01*
X124099397Y-72285266D01*
X123992910Y-72303564D01*
X123802463Y-72373824D01*
X123628010Y-72477612D01*
X123623670Y-72481418D01*
X123623666Y-72481421D01*
X123479733Y-72607648D01*
X123475392Y-72611455D01*
X123349720Y-72770869D01*
X123347031Y-72775980D01*
X123347029Y-72775983D01*
X123334073Y-72800609D01*
X123255203Y-72950515D01*
X123195007Y-73144378D01*
X123171148Y-73345964D01*
X122846564Y-73345964D01*
X122830658Y-73172859D01*
X122829090Y-73167299D01*
X122777125Y-72983046D01*
X122777124Y-72983044D01*
X122775557Y-72977487D01*
X122764978Y-72956033D01*
X122688331Y-72800609D01*
X122685776Y-72795428D01*
X122564320Y-72632779D01*
X122415258Y-72494987D01*
X122410375Y-72491906D01*
X122410371Y-72491903D01*
X122248464Y-72389748D01*
X122243581Y-72386667D01*
X122055039Y-72311446D01*
X122049379Y-72310320D01*
X122049375Y-72310319D01*
X121861613Y-72272971D01*
X121861610Y-72272971D01*
X121855946Y-72271844D01*
X121850171Y-72271768D01*
X121850167Y-72271768D01*
X121748793Y-72270441D01*
X121652971Y-72269187D01*
X121647274Y-72270166D01*
X121647273Y-72270166D01*
X121559397Y-72285266D01*
X121452910Y-72303564D01*
X121262463Y-72373824D01*
X121088010Y-72477612D01*
X121083670Y-72481418D01*
X121083666Y-72481421D01*
X120939733Y-72607648D01*
X120935392Y-72611455D01*
X120809720Y-72770869D01*
X120807031Y-72775980D01*
X120807029Y-72775983D01*
X120794073Y-72800609D01*
X120715203Y-72950515D01*
X120655007Y-73144378D01*
X120631148Y-73345964D01*
X120304499Y-73345964D01*
X120304499Y-72499934D01*
X120289734Y-72425699D01*
X120263654Y-72386667D01*
X120240377Y-72351832D01*
X120233484Y-72341516D01*
X120149301Y-72285266D01*
X120075067Y-72270500D01*
X119900334Y-72270500D01*
X119832213Y-72250498D01*
X119785720Y-72196842D01*
X119775616Y-72126568D01*
X119805110Y-72061988D01*
X119844902Y-72031348D01*
X119893100Y-72007736D01*
X119901945Y-72002464D01*
X120075328Y-71878792D01*
X120083200Y-71872139D01*
X120234052Y-71721812D01*
X120240730Y-71713965D01*
X120365003Y-71541020D01*
X120370313Y-71532183D01*
X120464670Y-71341267D01*
X120468469Y-71331672D01*
X120485066Y-71277047D01*
X120524007Y-71217683D01*
X120588862Y-71188796D01*
X120659038Y-71199558D01*
X120712256Y-71246551D01*
X120720048Y-71260922D01*
X120779377Y-71389616D01*
X120896533Y-71555389D01*
X121041938Y-71697035D01*
X121210720Y-71809812D01*
X121216023Y-71812090D01*
X121216026Y-71812092D01*
X121380693Y-71882838D01*
X121397228Y-71889942D01*
X121456231Y-71903293D01*
X121589579Y-71933467D01*
X121589584Y-71933468D01*
X121595216Y-71934742D01*
X121600987Y-71934969D01*
X121600989Y-71934969D01*
X121660756Y-71937317D01*
X121798053Y-71942712D01*
X121898499Y-71928148D01*
X121993231Y-71914413D01*
X121993236Y-71914412D01*
X121998945Y-71913584D01*
X122004409Y-71911729D01*
X122004414Y-71911728D01*
X122185693Y-71850192D01*
X122185698Y-71850190D01*
X122191165Y-71848334D01*
X122199276Y-71843792D01*
X122331635Y-71769667D01*
X122368276Y-71749147D01*
X122382728Y-71737128D01*
X122495696Y-71643172D01*
X122524345Y-71619345D01*
X122654147Y-71463276D01*
X122753334Y-71286165D01*
X122755190Y-71280698D01*
X122755192Y-71280693D01*
X122816728Y-71099414D01*
X122816729Y-71099409D01*
X122818584Y-71093945D01*
X122819412Y-71088236D01*
X122819413Y-71088231D01*
X122837570Y-70963000D01*
X122847712Y-70893053D01*
X122849232Y-70835000D01*
X122846564Y-70805964D01*
X123171148Y-70805964D01*
X123184424Y-71008522D01*
X123185845Y-71014118D01*
X123185846Y-71014123D01*
X123225796Y-71171424D01*
X123234392Y-71205269D01*
X123236809Y-71210512D01*
X123274010Y-71291208D01*
X123319377Y-71389616D01*
X123436533Y-71555389D01*
X123581938Y-71697035D01*
X123750720Y-71809812D01*
X123756023Y-71812090D01*
X123756026Y-71812092D01*
X123920693Y-71882838D01*
X123937228Y-71889942D01*
X123996231Y-71903293D01*
X124129579Y-71933467D01*
X124129584Y-71933468D01*
X124135216Y-71934742D01*
X124140987Y-71934969D01*
X124140989Y-71934969D01*
X124200756Y-71937317D01*
X124338053Y-71942712D01*
X124438499Y-71928148D01*
X124533231Y-71914413D01*
X124533236Y-71914412D01*
X124538945Y-71913584D01*
X124544409Y-71911729D01*
X124544414Y-71911728D01*
X124725693Y-71850192D01*
X124725698Y-71850190D01*
X124731165Y-71848334D01*
X124739276Y-71843792D01*
X124871635Y-71769667D01*
X124908276Y-71749147D01*
X124922728Y-71737128D01*
X125035696Y-71643172D01*
X125064345Y-71619345D01*
X125194147Y-71463276D01*
X125293334Y-71286165D01*
X125295190Y-71280698D01*
X125295192Y-71280693D01*
X125356728Y-71099414D01*
X125356729Y-71099409D01*
X125358584Y-71093945D01*
X125359412Y-71088236D01*
X125359413Y-71088231D01*
X125377570Y-70963000D01*
X125387712Y-70893053D01*
X125389232Y-70835000D01*
X125386564Y-70805964D01*
X125711148Y-70805964D01*
X125724424Y-71008522D01*
X125725845Y-71014118D01*
X125725846Y-71014123D01*
X125765796Y-71171424D01*
X125774392Y-71205269D01*
X125776809Y-71210512D01*
X125814010Y-71291208D01*
X125859377Y-71389616D01*
X125976533Y-71555389D01*
X126121938Y-71697035D01*
X126290720Y-71809812D01*
X126296023Y-71812090D01*
X126296026Y-71812092D01*
X126460693Y-71882838D01*
X126477228Y-71889942D01*
X126536231Y-71903293D01*
X126669579Y-71933467D01*
X126669584Y-71933468D01*
X126675216Y-71934742D01*
X126680987Y-71934969D01*
X126680989Y-71934969D01*
X126740756Y-71937317D01*
X126878053Y-71942712D01*
X126978499Y-71928148D01*
X127073231Y-71914413D01*
X127073236Y-71914412D01*
X127078945Y-71913584D01*
X127084409Y-71911729D01*
X127084414Y-71911728D01*
X127265693Y-71850192D01*
X127265698Y-71850190D01*
X127271165Y-71848334D01*
X127279276Y-71843792D01*
X127411635Y-71769667D01*
X127448276Y-71749147D01*
X127462728Y-71737128D01*
X127575696Y-71643172D01*
X127604345Y-71619345D01*
X127734147Y-71463276D01*
X127833334Y-71286165D01*
X127835190Y-71280698D01*
X127835192Y-71280693D01*
X127896728Y-71099414D01*
X127896729Y-71099409D01*
X127898584Y-71093945D01*
X127899412Y-71088236D01*
X127899413Y-71088231D01*
X127902351Y-71067966D01*
X141328257Y-71067966D01*
X141358565Y-71202446D01*
X141361645Y-71212275D01*
X141441770Y-71409603D01*
X141446413Y-71418794D01*
X141557694Y-71600388D01*
X141563777Y-71608699D01*
X141703213Y-71769667D01*
X141710580Y-71776883D01*
X141874434Y-71912916D01*
X141882881Y-71918831D01*
X142066756Y-72026279D01*
X142076042Y-72030729D01*
X142275001Y-72106703D01*
X142284899Y-72109579D01*
X142388250Y-72130606D01*
X142402299Y-72129410D01*
X142406000Y-72119065D01*
X142406000Y-72118517D01*
X142914000Y-72118517D01*
X142918064Y-72132359D01*
X142931478Y-72134393D01*
X142938184Y-72133534D01*
X142948262Y-72131392D01*
X143152255Y-72070191D01*
X143161842Y-72066433D01*
X143353095Y-71972739D01*
X143361945Y-71967464D01*
X143535328Y-71843792D01*
X143543200Y-71837139D01*
X143694052Y-71686812D01*
X143700730Y-71678965D01*
X143825003Y-71506020D01*
X143830310Y-71497188D01*
X143856544Y-71444109D01*
X143904658Y-71391903D01*
X143973360Y-71373996D01*
X144040836Y-71396075D01*
X144085664Y-71451129D01*
X144095501Y-71499937D01*
X144095501Y-71675066D01*
X144099871Y-71697035D01*
X144104799Y-71721812D01*
X144110266Y-71749301D01*
X144166516Y-71833484D01*
X144250699Y-71889734D01*
X144324933Y-71904500D01*
X145199858Y-71904500D01*
X146075066Y-71904499D01*
X146110818Y-71897388D01*
X146137126Y-71892156D01*
X146137128Y-71892155D01*
X146149301Y-71889734D01*
X146159621Y-71882839D01*
X146159622Y-71882838D01*
X146223168Y-71840377D01*
X146233484Y-71833484D01*
X146289734Y-71749301D01*
X146304500Y-71675067D01*
X146304499Y-69924934D01*
X146289734Y-69850699D01*
X146278459Y-69833824D01*
X146240377Y-69776832D01*
X146233484Y-69766516D01*
X146149301Y-69710266D01*
X146075067Y-69695500D01*
X145200142Y-69695500D01*
X144324934Y-69695501D01*
X144289182Y-69702612D01*
X144262874Y-69707844D01*
X144262872Y-69707845D01*
X144250699Y-69710266D01*
X144240379Y-69717161D01*
X144240378Y-69717162D01*
X144179985Y-69757516D01*
X144166516Y-69766516D01*
X144110266Y-69850699D01*
X144095500Y-69924933D01*
X144095500Y-70092852D01*
X144075498Y-70160973D01*
X144021842Y-70207466D01*
X143951568Y-70217570D01*
X143886988Y-70188076D01*
X143861235Y-70155868D01*
X143860912Y-70156077D01*
X143858836Y-70152868D01*
X143858453Y-70152389D01*
X143858099Y-70151729D01*
X143742426Y-69972926D01*
X143736136Y-69964757D01*
X143592806Y-69807240D01*
X143585273Y-69800215D01*
X143418139Y-69668222D01*
X143409552Y-69662517D01*
X143223117Y-69559599D01*
X143213705Y-69555369D01*
X143012959Y-69484280D01*
X143002988Y-69481646D01*
X142931837Y-69468972D01*
X142918540Y-69470432D01*
X142914000Y-69484989D01*
X142914000Y-72118517D01*
X142406000Y-72118517D01*
X142406000Y-71072115D01*
X142401525Y-71056876D01*
X142400135Y-71055671D01*
X142392452Y-71054000D01*
X141343225Y-71054000D01*
X141329694Y-71057973D01*
X141328257Y-71067966D01*
X127902351Y-71067966D01*
X127917570Y-70963000D01*
X127927712Y-70893053D01*
X127929232Y-70835000D01*
X127910658Y-70632859D01*
X127906520Y-70618188D01*
X127882828Y-70534183D01*
X141324389Y-70534183D01*
X141325912Y-70542607D01*
X141338292Y-70546000D01*
X142387885Y-70546000D01*
X142403124Y-70541525D01*
X142404329Y-70540135D01*
X142406000Y-70532452D01*
X142406000Y-69483102D01*
X142402082Y-69469758D01*
X142387806Y-69467771D01*
X142349324Y-69473660D01*
X142339288Y-69476051D01*
X142136868Y-69542212D01*
X142127359Y-69546209D01*
X141938463Y-69644542D01*
X141929738Y-69650036D01*
X141759433Y-69777905D01*
X141751726Y-69784748D01*
X141604590Y-69938717D01*
X141598104Y-69946727D01*
X141478098Y-70122649D01*
X141473000Y-70131623D01*
X141383338Y-70324783D01*
X141379775Y-70334470D01*
X141324389Y-70534183D01*
X127882828Y-70534183D01*
X127857125Y-70443046D01*
X127857124Y-70443044D01*
X127855557Y-70437487D01*
X127844978Y-70416033D01*
X127768331Y-70260609D01*
X127765776Y-70255428D01*
X127644320Y-70092779D01*
X127495258Y-69954987D01*
X127490375Y-69951906D01*
X127490371Y-69951903D01*
X127328464Y-69849748D01*
X127323581Y-69846667D01*
X127135039Y-69771446D01*
X127129379Y-69770320D01*
X127129375Y-69770319D01*
X126941613Y-69732971D01*
X126941610Y-69732971D01*
X126935946Y-69731844D01*
X126930171Y-69731768D01*
X126930167Y-69731768D01*
X126828793Y-69730441D01*
X126732971Y-69729187D01*
X126727274Y-69730166D01*
X126727273Y-69730166D01*
X126555845Y-69759623D01*
X126532910Y-69763564D01*
X126342463Y-69833824D01*
X126168010Y-69937612D01*
X126163670Y-69941418D01*
X126163666Y-69941421D01*
X126062092Y-70030500D01*
X126015392Y-70071455D01*
X125889720Y-70230869D01*
X125887031Y-70235980D01*
X125887029Y-70235983D01*
X125874073Y-70260609D01*
X125795203Y-70410515D01*
X125735007Y-70604378D01*
X125711148Y-70805964D01*
X125386564Y-70805964D01*
X125370658Y-70632859D01*
X125366520Y-70618188D01*
X125317125Y-70443046D01*
X125317124Y-70443044D01*
X125315557Y-70437487D01*
X125304978Y-70416033D01*
X125228331Y-70260609D01*
X125225776Y-70255428D01*
X125104320Y-70092779D01*
X124955258Y-69954987D01*
X124950375Y-69951906D01*
X124950371Y-69951903D01*
X124788464Y-69849748D01*
X124783581Y-69846667D01*
X124595039Y-69771446D01*
X124589379Y-69770320D01*
X124589375Y-69770319D01*
X124401613Y-69732971D01*
X124401610Y-69732971D01*
X124395946Y-69731844D01*
X124390171Y-69731768D01*
X124390167Y-69731768D01*
X124288793Y-69730441D01*
X124192971Y-69729187D01*
X124187274Y-69730166D01*
X124187273Y-69730166D01*
X124015845Y-69759623D01*
X123992910Y-69763564D01*
X123802463Y-69833824D01*
X123628010Y-69937612D01*
X123623670Y-69941418D01*
X123623666Y-69941421D01*
X123522092Y-70030500D01*
X123475392Y-70071455D01*
X123349720Y-70230869D01*
X123347031Y-70235980D01*
X123347029Y-70235983D01*
X123334073Y-70260609D01*
X123255203Y-70410515D01*
X123195007Y-70604378D01*
X123171148Y-70805964D01*
X122846564Y-70805964D01*
X122830658Y-70632859D01*
X122826520Y-70618188D01*
X122777125Y-70443046D01*
X122777124Y-70443044D01*
X122775557Y-70437487D01*
X122764978Y-70416033D01*
X122688331Y-70260609D01*
X122685776Y-70255428D01*
X122564320Y-70092779D01*
X122415258Y-69954987D01*
X122410375Y-69951906D01*
X122410371Y-69951903D01*
X122248464Y-69849748D01*
X122243581Y-69846667D01*
X122055039Y-69771446D01*
X122049379Y-69770320D01*
X122049375Y-69770319D01*
X121861613Y-69732971D01*
X121861610Y-69732971D01*
X121855946Y-69731844D01*
X121850171Y-69731768D01*
X121850167Y-69731768D01*
X121748793Y-69730441D01*
X121652971Y-69729187D01*
X121647274Y-69730166D01*
X121647273Y-69730166D01*
X121475845Y-69759623D01*
X121452910Y-69763564D01*
X121262463Y-69833824D01*
X121088010Y-69937612D01*
X121083670Y-69941418D01*
X121083666Y-69941421D01*
X120982092Y-70030500D01*
X120935392Y-70071455D01*
X120809720Y-70230869D01*
X120807031Y-70235980D01*
X120807029Y-70235983D01*
X120717589Y-70405980D01*
X120668170Y-70456952D01*
X120599037Y-70473115D01*
X120532141Y-70449336D01*
X120492003Y-70394973D01*
X120489955Y-70395863D01*
X120402972Y-70195814D01*
X120398105Y-70186739D01*
X120282426Y-70007926D01*
X120276136Y-69999757D01*
X120132806Y-69842240D01*
X120125273Y-69835215D01*
X119958139Y-69703222D01*
X119949552Y-69697517D01*
X119763117Y-69594599D01*
X119753705Y-69590369D01*
X119552959Y-69519280D01*
X119542988Y-69516646D01*
X119471837Y-69503972D01*
X119458540Y-69505432D01*
X119454000Y-69519989D01*
X119454000Y-70963000D01*
X119433998Y-71031121D01*
X119380342Y-71077614D01*
X119328000Y-71089000D01*
X117883225Y-71089000D01*
X117869694Y-71092973D01*
X117868257Y-71102966D01*
X104909486Y-71102966D01*
X105013304Y-71023304D01*
X105106192Y-70902250D01*
X105164584Y-70761280D01*
X105184500Y-70610000D01*
X105179126Y-70569183D01*
X117864389Y-70569183D01*
X117865912Y-70577607D01*
X117878292Y-70581000D01*
X118927885Y-70581000D01*
X118943124Y-70576525D01*
X118944329Y-70575135D01*
X118946000Y-70567452D01*
X118946000Y-69518102D01*
X118942082Y-69504758D01*
X118927806Y-69502771D01*
X118889324Y-69508660D01*
X118879288Y-69511051D01*
X118676868Y-69577212D01*
X118667359Y-69581209D01*
X118478463Y-69679542D01*
X118469738Y-69685036D01*
X118299433Y-69812905D01*
X118291726Y-69819748D01*
X118144590Y-69973717D01*
X118138104Y-69981727D01*
X118018098Y-70157649D01*
X118013000Y-70166623D01*
X117923338Y-70359783D01*
X117919775Y-70369470D01*
X117864389Y-70569183D01*
X105179126Y-70569183D01*
X105164584Y-70458720D01*
X105124611Y-70362217D01*
X105117022Y-70291629D01*
X105148801Y-70228142D01*
X105209859Y-70191914D01*
X105241020Y-70188000D01*
X105726657Y-70188000D01*
X105732805Y-70187699D01*
X105870603Y-70174188D01*
X105882638Y-70171805D01*
X106060076Y-70118233D01*
X106071416Y-70113559D01*
X106235077Y-70026540D01*
X106245294Y-70019751D01*
X106388933Y-69902603D01*
X106397637Y-69893959D01*
X106515784Y-69751144D01*
X106522644Y-69740973D01*
X106610804Y-69577924D01*
X106615556Y-69566619D01*
X106651250Y-69451308D01*
X106651456Y-69437205D01*
X106644701Y-69434000D01*
X103622076Y-69434000D01*
X103608545Y-69437973D01*
X103607425Y-69445768D01*
X102221331Y-69445768D01*
X102221456Y-69437205D01*
X102214701Y-69434000D01*
X101222115Y-69434000D01*
X101206876Y-69438475D01*
X101205671Y-69439865D01*
X101204000Y-69447548D01*
X101204000Y-70169885D01*
X100696000Y-70169885D01*
X100696000Y-69452115D01*
X100691525Y-69436876D01*
X100690135Y-69435671D01*
X100682452Y-69434000D01*
X99692076Y-69434000D01*
X99678545Y-69437973D01*
X99677425Y-69445768D01*
X98254500Y-69445768D01*
X98254500Y-68380500D01*
X98274502Y-68312379D01*
X98328158Y-68265886D01*
X98380500Y-68254500D01*
X99839687Y-68254500D01*
X99907808Y-68274502D01*
G37*
G04 #@! TD.AperFunction*
M02*
