M48
; DRILL file {KiCad (6.0.7-1)-1} date 2022 December 09, Friday 20:13:02
; FORMAT={-:-/ absolute / metric / decimal}
; #@! TF.CreationDate,2022-12-09T20:13:02+01:00
; #@! TF.GenerationSoftware,Kicad,Pcbnew,(6.0.7-1)-1
; #@! TF.FileFunction,Plated,1,4,PTH
FMAT,2
METRIC
; #@! TA.AperFunction,Plated,PTH,ViaDrill
T1C0.300
; #@! TA.AperFunction,Plated,PTH,ViaDrill
T2C0.400
; #@! TA.AperFunction,Plated,PTH,ComponentDrill
T3C0.600
; #@! TA.AperFunction,Plated,PTH,ComponentDrill
T4C0.750
; #@! TA.AperFunction,Plated,PTH,ComponentDrill
T5C1.000
%
G90
G05
T1
X104.8Y-75.3
X108.4Y-73.9
X108.5Y-75.8
X108.9Y-90.8
X114.75Y-94.25
X115.5Y-99.75
X115.9Y-75.6
X116.5Y-73.4
X116.9Y-110.75
X117.4Y-94.2
X118.9Y-86.8
X119.0Y-110.75
X119.6Y-87.626
X120.6Y-88.0
X120.7Y-94.7
X121.0Y-110.75
X121.6Y-87.9
X121.607Y-90.55
X122.3Y-87.2
X122.7Y-91.2
X123.25Y-110.75
X126.5Y-108.0
X126.7Y-98.9
X127.4Y-89.8
X129.75Y-87.25
X130.0Y-90.75
X131.5Y-87.0
X133.2Y-98.3
X134.3Y-74.0
X141.9Y-87.1
X142.8Y-98.0
T2
X104.45Y-115.9
X106.0Y-85.75
X106.1Y-114.9
X110.0Y-112.6
X111.0Y-104.25
X113.262Y-97.862
X114.6Y-68.9
X115.725Y-107.25
X123.0Y-103.5
X124.1Y-83.3
X125.9Y-93.8
X137.3Y-100.1
X138.1Y-90.9
X141.75Y-102.25
X145.0Y-117.0
X145.3Y-110.2
T4
X103.2Y-81.3
X103.2Y-83.3
X103.2Y-85.3
X103.2Y-87.3
X103.2Y-89.3
X103.25Y-94.25
X103.25Y-96.25
X103.25Y-98.25
X103.25Y-103.25
X103.25Y-105.25
X103.25Y-107.25
X103.25Y-109.25
X114.9Y-113.0
X116.9Y-113.0
X118.9Y-113.0
X120.9Y-113.0
X122.9Y-113.0
X124.9Y-113.0
X129.8Y-113.0
X131.8Y-113.0
X133.8Y-113.0
X135.8Y-113.0
X137.8Y-113.0
X139.8Y-113.0
X141.8Y-113.0
T5
X107.825Y-106.625
X107.825Y-109.165
X110.365Y-106.625
X110.365Y-109.165
X119.2Y-70.835
X119.2Y-73.375
X121.74Y-70.835
X121.74Y-73.375
X124.28Y-70.835
X124.28Y-73.375
X126.82Y-70.835
X126.82Y-73.375
X130.5Y-106.66
X130.5Y-109.2
X133.04Y-106.66
X133.04Y-109.2
X135.58Y-106.66
X135.58Y-109.2
X138.12Y-106.66
X138.12Y-109.2
X142.66Y-70.8
X145.2Y-70.8
T3
X101.25Y-69.18G85X100.65Y-69.18
G05
X101.25Y-77.82G85X100.65Y-77.82
G05
X105.68Y-69.18G85X104.58Y-69.18
G05
X105.68Y-77.82G85X104.58Y-77.82
G05
T0
M30
