G04 #@! TF.GenerationSoftware,KiCad,Pcbnew,(6.0.7-1)-1*
G04 #@! TF.CreationDate,2022-11-25T13:43:26+01:00*
G04 #@! TF.ProjectId,ESC-logic,4553432d-6c6f-4676-9963-2e6b69636164,rev?*
G04 #@! TF.SameCoordinates,Original*
G04 #@! TF.FileFunction,Copper,L4,Bot*
G04 #@! TF.FilePolarity,Positive*
%FSLAX46Y46*%
G04 Gerber Fmt 4.6, Leading zero omitted, Abs format (unit mm)*
G04 Created by KiCad (PCBNEW (6.0.7-1)-1) date 2022-11-25 13:43:26*
%MOMM*%
%LPD*%
G01*
G04 APERTURE LIST*
G04 Aperture macros list*
%AMRoundRect*
0 Rectangle with rounded corners*
0 $1 Rounding radius*
0 $2 $3 $4 $5 $6 $7 $8 $9 X,Y pos of 4 corners*
0 Add a 4 corners polygon primitive as box body*
4,1,4,$2,$3,$4,$5,$6,$7,$8,$9,$2,$3,0*
0 Add four circle primitives for the rounded corners*
1,1,$1+$1,$2,$3*
1,1,$1+$1,$4,$5*
1,1,$1+$1,$6,$7*
1,1,$1+$1,$8,$9*
0 Add four rect primitives between the rounded corners*
20,1,$1+$1,$2,$3,$4,$5,0*
20,1,$1+$1,$4,$5,$6,$7,0*
20,1,$1+$1,$6,$7,$8,$9,0*
20,1,$1+$1,$8,$9,$2,$3,0*%
G04 Aperture macros list end*
G04 #@! TA.AperFunction,ComponentPad*
%ADD10RoundRect,0.250000X-0.625000X0.350000X-0.625000X-0.350000X0.625000X-0.350000X0.625000X0.350000X0*%
G04 #@! TD*
G04 #@! TA.AperFunction,ComponentPad*
%ADD11O,1.750000X1.200000*%
G04 #@! TD*
G04 #@! TA.AperFunction,ComponentPad*
%ADD12R,1.700000X1.700000*%
G04 #@! TD*
G04 #@! TA.AperFunction,ComponentPad*
%ADD13O,1.700000X1.700000*%
G04 #@! TD*
G04 #@! TA.AperFunction,ComponentPad*
%ADD14RoundRect,0.250000X-0.350000X-0.625000X0.350000X-0.625000X0.350000X0.625000X-0.350000X0.625000X0*%
G04 #@! TD*
G04 #@! TA.AperFunction,ComponentPad*
%ADD15O,1.200000X1.750000*%
G04 #@! TD*
G04 #@! TA.AperFunction,ComponentPad*
%ADD16O,1.600000X1.000000*%
G04 #@! TD*
G04 #@! TA.AperFunction,ComponentPad*
%ADD17O,2.100000X1.000000*%
G04 #@! TD*
G04 #@! TA.AperFunction,ViaPad*
%ADD18C,0.600000*%
G04 #@! TD*
G04 #@! TA.AperFunction,ViaPad*
%ADD19C,0.800000*%
G04 #@! TD*
G04 #@! TA.AperFunction,Conductor*
%ADD20C,1.000000*%
G04 #@! TD*
G04 #@! TA.AperFunction,Conductor*
%ADD21C,0.300000*%
G04 #@! TD*
G04 #@! TA.AperFunction,Conductor*
%ADD22C,0.250000*%
G04 #@! TD*
G04 APERTURE END LIST*
D10*
X101050000Y-103100000D03*
D11*
X101050000Y-105100000D03*
X101050000Y-107100000D03*
X101050000Y-109100000D03*
D12*
X107825000Y-106625000D03*
D13*
X110365000Y-106625000D03*
X107825000Y-109165000D03*
X110365000Y-109165000D03*
D10*
X101050000Y-94200000D03*
D11*
X101050000Y-96200000D03*
X101050000Y-98200000D03*
D14*
X129800000Y-115000000D03*
D15*
X131800000Y-115000000D03*
X133800000Y-115000000D03*
X135800000Y-115000000D03*
X137800000Y-115000000D03*
X139800000Y-115000000D03*
X141800000Y-115000000D03*
D14*
X114900000Y-115000000D03*
D15*
X116900000Y-115000000D03*
X118900000Y-115000000D03*
X120900000Y-115000000D03*
X122900000Y-115000000D03*
X124900000Y-115000000D03*
D12*
X119200000Y-73375000D03*
D13*
X119200000Y-70835000D03*
X121740000Y-73375000D03*
X121740000Y-70835000D03*
X124280000Y-73375000D03*
X124280000Y-70835000D03*
X126820000Y-73375000D03*
X126820000Y-70835000D03*
D10*
X101050000Y-81300000D03*
D11*
X101050000Y-83300000D03*
X101050000Y-85300000D03*
X101050000Y-87300000D03*
X101050000Y-89300000D03*
D16*
X100950000Y-77820000D03*
D17*
X105130000Y-77820000D03*
X105130000Y-69180000D03*
D16*
X100950000Y-69180000D03*
D12*
X145200000Y-70800000D03*
D13*
X142660000Y-70800000D03*
D12*
X130500000Y-109200000D03*
D13*
X130500000Y-106660000D03*
X133040000Y-109200000D03*
X133040000Y-106660000D03*
X135580000Y-109200000D03*
X135580000Y-106660000D03*
X138120000Y-109200000D03*
X138120000Y-106660000D03*
D18*
X110500000Y-94400000D03*
D19*
X115200000Y-104200000D03*
D18*
X108400000Y-73900000D03*
D19*
X106100000Y-114900000D03*
D18*
X120700000Y-94700000D03*
X134300000Y-74000000D03*
X133200000Y-98300000D03*
X142800000Y-98000000D03*
D19*
X121500000Y-105100000D03*
X104450500Y-115900000D03*
D18*
X126700000Y-98900000D03*
D19*
X125900000Y-93800000D03*
X116200000Y-108900000D03*
X145300000Y-113300000D03*
X114600000Y-68900000D03*
X113262500Y-97862500D03*
X124100000Y-83300000D03*
X137300000Y-100100000D03*
X110000000Y-112600000D03*
D18*
X122700000Y-91200000D03*
X121400000Y-103500000D03*
X108000000Y-90900000D03*
X117400000Y-94200000D03*
X119000000Y-112700000D03*
X118900000Y-86800000D03*
X119599924Y-87625613D03*
X121000000Y-112700000D03*
X122900000Y-112700000D03*
X120600000Y-88000000D03*
X114900000Y-86500000D03*
X122300000Y-87200000D03*
X116500000Y-73400000D03*
X115900000Y-75600000D03*
X121600000Y-87900000D03*
X108500000Y-75800000D03*
X104800000Y-75300000D03*
X141900000Y-87100000D03*
X132300000Y-90800000D03*
X121606777Y-90550500D03*
X127400000Y-89800000D03*
D20*
X131800000Y-110500000D02*
X130500000Y-109200000D01*
X145300000Y-113300000D02*
X145300000Y-102900000D01*
X113262500Y-98337500D02*
X113262500Y-97862500D01*
X124100000Y-84500000D02*
X129000000Y-89400000D01*
X99100000Y-81900000D02*
X99700000Y-81300000D01*
X99100000Y-97575000D02*
X99100000Y-81900000D01*
X145300000Y-102900000D02*
X136200000Y-93800000D01*
X131800000Y-115000000D02*
X131800000Y-110500000D01*
X110400000Y-76900000D02*
X110400000Y-71400000D01*
X116200000Y-108900000D02*
X116200000Y-107000000D01*
X124900000Y-116000000D02*
X124900000Y-115000000D01*
X124100000Y-83300000D02*
X124100000Y-84500000D01*
X132100000Y-116800000D02*
X131800000Y-116500000D01*
X143200000Y-116800000D02*
X132100000Y-116800000D01*
X112900000Y-68900000D02*
X114600000Y-68900000D01*
X110400000Y-71400000D02*
X112900000Y-68900000D01*
X110400000Y-101200000D02*
X107400000Y-98200000D01*
X101050000Y-81300000D02*
X106000000Y-81300000D01*
X129000000Y-89400000D02*
X129000000Y-92700000D01*
X110400000Y-101200000D02*
X113262500Y-98337500D01*
X128400000Y-93800000D02*
X125900000Y-93800000D01*
X125700000Y-116800000D02*
X124900000Y-116000000D01*
X132100000Y-116800000D02*
X125700000Y-116800000D01*
X116200000Y-107000000D02*
X110400000Y-101200000D01*
X136200000Y-93800000D02*
X128400000Y-93800000D01*
X145300000Y-114700000D02*
X143200000Y-116800000D01*
X145300000Y-113300000D02*
X145300000Y-114700000D01*
X128400000Y-93300000D02*
X128400000Y-93800000D01*
X101050000Y-98200000D02*
X99725000Y-98200000D01*
X107400000Y-98200000D02*
X101050000Y-98200000D01*
X99725000Y-98200000D02*
X99100000Y-97575000D01*
X99700000Y-81300000D02*
X101050000Y-81300000D01*
X131800000Y-116500000D02*
X131800000Y-115000000D01*
X129000000Y-92700000D02*
X128400000Y-93300000D01*
X106000000Y-81300000D02*
X110400000Y-76900000D01*
X128300000Y-104900000D02*
X128300000Y-106500000D01*
D21*
X129800000Y-115000000D02*
X128200000Y-113400000D01*
D20*
X128300000Y-106500000D02*
X128300000Y-113500000D01*
X128300000Y-113500000D02*
X129800000Y-115000000D01*
X128460000Y-106660000D02*
X130500000Y-106660000D01*
D21*
X128200000Y-113400000D02*
X110800000Y-113400000D01*
D20*
X133100000Y-100100000D02*
X128300000Y-104900000D01*
X137300000Y-100100000D02*
X133100000Y-100100000D01*
D21*
X110800000Y-113400000D02*
X110000000Y-112600000D01*
D20*
X128300000Y-106500000D02*
X128460000Y-106660000D01*
D21*
X121400000Y-91300000D02*
X121500000Y-91200000D01*
X121500000Y-91200000D02*
X122700000Y-91200000D01*
X121400000Y-103500000D02*
X121400000Y-91300000D01*
X117400000Y-94200000D02*
X114100000Y-90900000D01*
X114100000Y-90900000D02*
X108000000Y-90900000D01*
X118200000Y-111900000D02*
X118200000Y-87500000D01*
X119000000Y-112700000D02*
X118200000Y-111900000D01*
X118200000Y-87500000D02*
X118900000Y-86800000D01*
X119200000Y-88025537D02*
X119599924Y-87625613D01*
X121000000Y-112700000D02*
X119200000Y-110900000D01*
X119200000Y-110900000D02*
X119200000Y-88025537D01*
X122700000Y-112700000D02*
X120000000Y-110000000D01*
X120000000Y-88600000D02*
X120600000Y-88000000D01*
X120000000Y-110000000D02*
X120000000Y-88600000D01*
X122900000Y-112700000D02*
X122700000Y-112700000D01*
X114100000Y-87300000D02*
X101050000Y-87300000D01*
X114900000Y-86500000D02*
X114100000Y-87300000D01*
X116500000Y-74900000D02*
X116500000Y-73400000D01*
X122300000Y-80700000D02*
X116500000Y-74900000D01*
X122300000Y-87200000D02*
X122300000Y-80700000D01*
X115900000Y-75600000D02*
X121600000Y-81300000D01*
X121600000Y-81300000D02*
X121600000Y-87900000D01*
D22*
X108500000Y-75800000D02*
X108000000Y-75300000D01*
X108000000Y-75300000D02*
X104800000Y-75300000D01*
D21*
X136000000Y-87100000D02*
X132300000Y-90800000D01*
X141900000Y-87100000D02*
X136000000Y-87100000D01*
X124149500Y-90550500D02*
X124949500Y-90550500D01*
X121606777Y-90550500D02*
X124149500Y-90550500D01*
X124949500Y-90550500D02*
X125600000Y-89900000D01*
X125600000Y-89900000D02*
X125700000Y-89800000D01*
X125700000Y-89800000D02*
X127400000Y-89800000D01*
G04 #@! TA.AperFunction,Conductor*
G36*
X147687621Y-68274502D02*
G01*
X147734114Y-68328158D01*
X147745500Y-68380500D01*
X147745500Y-117619500D01*
X147725498Y-117687621D01*
X147671842Y-117734114D01*
X147619500Y-117745500D01*
X143527441Y-117745500D01*
X143459320Y-117725498D01*
X143412827Y-117671842D01*
X143402723Y-117601568D01*
X143432217Y-117536988D01*
X143488610Y-117499633D01*
X143489498Y-117499345D01*
X143516222Y-117490688D01*
X143522479Y-117486891D01*
X143527926Y-117484398D01*
X143533254Y-117481730D01*
X143540134Y-117479232D01*
X143600849Y-117439426D01*
X143604559Y-117437085D01*
X143661838Y-117402327D01*
X143661840Y-117402325D01*
X143666633Y-117399417D01*
X143674974Y-117392051D01*
X143674996Y-117392076D01*
X143678041Y-117389376D01*
X143681146Y-117386780D01*
X143687268Y-117382766D01*
X143740216Y-117326873D01*
X143742593Y-117324432D01*
X145786301Y-115280723D01*
X145800712Y-115268338D01*
X145818071Y-115255563D01*
X145852089Y-115215521D01*
X145859019Y-115208005D01*
X145864662Y-115202362D01*
X145882214Y-115180178D01*
X145884981Y-115176804D01*
X145927243Y-115127058D01*
X145931982Y-115121480D01*
X145935311Y-115114961D01*
X145938628Y-115109987D01*
X145941763Y-115104911D01*
X145946307Y-115099168D01*
X145977053Y-115033382D01*
X145978985Y-115029430D01*
X146008665Y-114971305D01*
X146011993Y-114964788D01*
X146013732Y-114957680D01*
X146015814Y-114952082D01*
X146017701Y-114946409D01*
X146020800Y-114939779D01*
X146035587Y-114868689D01*
X146036557Y-114864404D01*
X146052476Y-114799346D01*
X146053811Y-114793892D01*
X146054500Y-114782786D01*
X146054534Y-114782788D01*
X146054777Y-114778731D01*
X146055137Y-114774696D01*
X146056628Y-114767528D01*
X146054546Y-114690586D01*
X146054500Y-114687178D01*
X146054500Y-102966766D01*
X146055933Y-102947816D01*
X146058074Y-102933746D01*
X146058074Y-102933740D01*
X146059174Y-102926511D01*
X146054915Y-102874152D01*
X146054500Y-102863937D01*
X146054500Y-102855947D01*
X146051226Y-102827865D01*
X146050795Y-102823509D01*
X146045503Y-102758448D01*
X146044910Y-102751152D01*
X146042653Y-102744186D01*
X146041481Y-102738318D01*
X146040110Y-102732517D01*
X146039262Y-102725246D01*
X146014477Y-102656965D01*
X146013051Y-102652810D01*
X145992945Y-102590744D01*
X145992944Y-102590741D01*
X145990688Y-102583778D01*
X145986889Y-102577518D01*
X145984390Y-102572059D01*
X145981729Y-102566744D01*
X145979232Y-102559866D01*
X145975224Y-102553752D01*
X145975220Y-102553745D01*
X145939408Y-102499124D01*
X145937061Y-102495404D01*
X145902324Y-102438160D01*
X145899416Y-102433367D01*
X145892050Y-102425026D01*
X145892075Y-102425004D01*
X145889385Y-102421970D01*
X145886781Y-102418855D01*
X145882766Y-102412732D01*
X145826854Y-102359766D01*
X145824413Y-102357389D01*
X136780724Y-93313700D01*
X136768337Y-93299287D01*
X136759904Y-93287828D01*
X136755563Y-93281929D01*
X136715521Y-93247911D01*
X136708005Y-93240981D01*
X136702362Y-93235338D01*
X136680202Y-93217806D01*
X136676816Y-93215030D01*
X136627058Y-93172757D01*
X136627059Y-93172757D01*
X136621480Y-93168018D01*
X136614960Y-93164689D01*
X136609982Y-93161369D01*
X136604909Y-93158236D01*
X136599167Y-93153693D01*
X136567604Y-93138941D01*
X136533383Y-93122947D01*
X136529433Y-93121016D01*
X136484094Y-93097865D01*
X136464788Y-93088007D01*
X136457678Y-93086267D01*
X136452058Y-93084177D01*
X136446407Y-93082297D01*
X136439778Y-93079199D01*
X136432614Y-93077709D01*
X136432611Y-93077708D01*
X136392505Y-93069367D01*
X136368686Y-93064413D01*
X136364427Y-93063449D01*
X136293892Y-93046189D01*
X136288295Y-93045842D01*
X136288290Y-93045841D01*
X136282786Y-93045500D01*
X136282788Y-93045466D01*
X136278729Y-93045223D01*
X136274695Y-93044863D01*
X136267527Y-93043372D01*
X136260210Y-93043570D01*
X136190585Y-93045454D01*
X136187177Y-93045500D01*
X129853716Y-93045500D01*
X129785595Y-93025498D01*
X129739102Y-92971842D01*
X129728998Y-92901568D01*
X129730356Y-92893842D01*
X129735588Y-92868687D01*
X129736559Y-92864397D01*
X129752476Y-92799347D01*
X129753811Y-92793892D01*
X129754500Y-92782786D01*
X129754534Y-92782788D01*
X129754777Y-92778729D01*
X129755137Y-92774695D01*
X129756628Y-92767527D01*
X129754546Y-92690585D01*
X129754500Y-92687177D01*
X129754500Y-90800000D01*
X131740715Y-90800000D01*
X131741793Y-90808188D01*
X131757220Y-90925366D01*
X131759772Y-90944754D01*
X131762931Y-90952380D01*
X131805540Y-91055246D01*
X131815645Y-91079642D01*
X131858349Y-91135295D01*
X131892378Y-91179642D01*
X131904526Y-91195474D01*
X131911076Y-91200500D01*
X131911079Y-91200503D01*
X132013804Y-91279327D01*
X132020357Y-91284355D01*
X132155246Y-91340228D01*
X132300000Y-91359285D01*
X132308188Y-91358207D01*
X132436566Y-91341306D01*
X132444754Y-91340228D01*
X132579643Y-91284355D01*
X132586196Y-91279327D01*
X132688921Y-91200503D01*
X132688924Y-91200500D01*
X132695474Y-91195474D01*
X132707623Y-91179642D01*
X132741651Y-91135295D01*
X132784355Y-91079642D01*
X132794461Y-91055246D01*
X132837069Y-90952380D01*
X132840228Y-90944754D01*
X132842781Y-90925366D01*
X132851767Y-90857105D01*
X132880489Y-90792178D01*
X132887594Y-90784456D01*
X136130645Y-87541405D01*
X136192957Y-87507379D01*
X136219740Y-87504500D01*
X141473518Y-87504500D01*
X141541639Y-87524502D01*
X141550222Y-87530538D01*
X141562100Y-87539652D01*
X141620357Y-87584355D01*
X141755246Y-87640228D01*
X141763434Y-87641306D01*
X141827623Y-87649756D01*
X141900000Y-87659285D01*
X141908188Y-87658207D01*
X142036566Y-87641306D01*
X142044754Y-87640228D01*
X142179643Y-87584355D01*
X142186196Y-87579327D01*
X142288921Y-87500503D01*
X142288924Y-87500500D01*
X142295474Y-87495474D01*
X142306689Y-87480859D01*
X142364782Y-87405150D01*
X142384355Y-87379642D01*
X142395648Y-87352380D01*
X142437069Y-87252380D01*
X142440228Y-87244754D01*
X142459285Y-87100000D01*
X142451000Y-87037068D01*
X142441306Y-86963432D01*
X142441305Y-86963430D01*
X142440228Y-86955246D01*
X142420422Y-86907430D01*
X142387515Y-86827986D01*
X142387514Y-86827984D01*
X142384355Y-86820358D01*
X142311289Y-86725136D01*
X142300501Y-86711077D01*
X142300500Y-86711076D01*
X142295474Y-86704526D01*
X142288924Y-86699500D01*
X142288921Y-86699497D01*
X142186196Y-86620673D01*
X142186194Y-86620672D01*
X142179643Y-86615645D01*
X142044754Y-86559772D01*
X142013209Y-86555619D01*
X141908188Y-86541793D01*
X141900000Y-86540715D01*
X141891812Y-86541793D01*
X141763432Y-86558694D01*
X141763430Y-86558695D01*
X141755246Y-86559772D01*
X141620358Y-86615645D01*
X141550220Y-86669464D01*
X141484001Y-86695063D01*
X141473518Y-86695500D01*
X135935934Y-86695500D01*
X135926501Y-86698565D01*
X135914714Y-86702395D01*
X135895483Y-86707012D01*
X135889363Y-86707981D01*
X135883244Y-86708950D01*
X135883243Y-86708950D01*
X135873445Y-86710502D01*
X135864610Y-86715004D01*
X135864606Y-86715005D01*
X135853557Y-86720635D01*
X135835295Y-86728199D01*
X135823503Y-86732031D01*
X135823501Y-86732032D01*
X135814071Y-86735096D01*
X135803337Y-86742895D01*
X135796017Y-86748213D01*
X135779160Y-86758543D01*
X135759277Y-86768674D01*
X135736489Y-86791462D01*
X135736485Y-86791465D01*
X132315544Y-90212406D01*
X132253232Y-90246432D01*
X132242901Y-90248232D01*
X132205667Y-90253134D01*
X132163432Y-90258694D01*
X132163430Y-90258695D01*
X132155246Y-90259772D01*
X132110067Y-90278486D01*
X132027986Y-90312485D01*
X132027984Y-90312486D01*
X132020358Y-90315645D01*
X131904526Y-90404526D01*
X131899503Y-90411072D01*
X131895994Y-90415645D01*
X131815645Y-90520358D01*
X131812486Y-90527984D01*
X131812485Y-90527986D01*
X131792726Y-90575689D01*
X131759772Y-90655246D01*
X131758695Y-90663430D01*
X131758694Y-90663432D01*
X131754505Y-90695254D01*
X131740715Y-90800000D01*
X129754500Y-90800000D01*
X129754500Y-89466765D01*
X129755933Y-89447814D01*
X129758074Y-89433744D01*
X129758074Y-89433740D01*
X129759174Y-89426511D01*
X129756652Y-89395500D01*
X129754915Y-89374152D01*
X129754500Y-89363937D01*
X129754500Y-89355947D01*
X129751226Y-89327865D01*
X129750795Y-89323509D01*
X129750564Y-89320668D01*
X129744910Y-89251152D01*
X129742653Y-89244186D01*
X129741481Y-89238318D01*
X129740110Y-89232517D01*
X129739262Y-89225246D01*
X129714477Y-89156965D01*
X129713051Y-89152810D01*
X129692945Y-89090744D01*
X129692944Y-89090741D01*
X129690688Y-89083778D01*
X129686892Y-89077523D01*
X129684391Y-89072059D01*
X129681728Y-89066741D01*
X129679232Y-89059866D01*
X129639421Y-88999144D01*
X129637074Y-88995425D01*
X129599416Y-88933366D01*
X129592050Y-88925026D01*
X129592076Y-88925003D01*
X129589378Y-88921962D01*
X129586781Y-88918856D01*
X129582766Y-88912732D01*
X129526854Y-88859766D01*
X129524413Y-88857389D01*
X124891405Y-84224381D01*
X124857379Y-84162069D01*
X124854500Y-84135286D01*
X124854500Y-83255947D01*
X124839262Y-83125246D01*
X124818793Y-83068853D01*
X124781729Y-82966745D01*
X124779232Y-82959866D01*
X124682766Y-82812732D01*
X124555040Y-82691736D01*
X124402904Y-82603368D01*
X124234520Y-82552370D01*
X124058920Y-82541476D01*
X124051704Y-82542716D01*
X124051702Y-82542716D01*
X123892738Y-82570031D01*
X123892736Y-82570032D01*
X123885523Y-82571271D01*
X123723632Y-82640156D01*
X123581929Y-82744437D01*
X123468018Y-82878520D01*
X123464690Y-82885038D01*
X123391334Y-83028695D01*
X123391332Y-83028700D01*
X123388007Y-83035212D01*
X123346189Y-83206108D01*
X123345500Y-83217214D01*
X123345500Y-84433235D01*
X123344067Y-84452184D01*
X123340826Y-84473489D01*
X123341419Y-84480780D01*
X123341419Y-84480783D01*
X123345085Y-84525848D01*
X123345500Y-84536063D01*
X123345500Y-84544053D01*
X123345925Y-84547697D01*
X123348771Y-84572113D01*
X123349204Y-84576487D01*
X123355090Y-84648847D01*
X123357345Y-84655809D01*
X123358518Y-84661677D01*
X123359890Y-84667484D01*
X123360738Y-84674754D01*
X123385532Y-84743060D01*
X123386940Y-84747163D01*
X123409312Y-84816222D01*
X123413109Y-84822479D01*
X123415602Y-84827926D01*
X123418270Y-84833254D01*
X123420768Y-84840134D01*
X123424782Y-84846256D01*
X123460568Y-84900839D01*
X123462915Y-84904559D01*
X123500583Y-84966633D01*
X123504295Y-84970836D01*
X123507949Y-84974974D01*
X123507924Y-84974996D01*
X123510624Y-84978041D01*
X123513220Y-84981146D01*
X123517234Y-84987268D01*
X123573126Y-85040215D01*
X123575568Y-85042593D01*
X125906421Y-87373445D01*
X127567881Y-89034905D01*
X127601907Y-89097217D01*
X127596842Y-89168032D01*
X127554295Y-89224868D01*
X127487775Y-89249679D01*
X127462340Y-89248922D01*
X127408188Y-89241793D01*
X127400000Y-89240715D01*
X127391812Y-89241793D01*
X127263432Y-89258694D01*
X127263430Y-89258695D01*
X127255246Y-89259772D01*
X127120358Y-89315645D01*
X127050220Y-89369464D01*
X126984001Y-89395063D01*
X126973518Y-89395500D01*
X125668166Y-89395500D01*
X125668162Y-89395501D01*
X125635934Y-89395501D01*
X125626497Y-89398567D01*
X125626498Y-89398567D01*
X125614718Y-89402394D01*
X125595493Y-89407010D01*
X125573445Y-89410502D01*
X125553560Y-89420634D01*
X125535296Y-89428199D01*
X125523507Y-89432030D01*
X125523506Y-89432031D01*
X125514071Y-89435096D01*
X125506047Y-89440926D01*
X125506045Y-89440927D01*
X125496023Y-89448209D01*
X125479164Y-89458541D01*
X125459277Y-89468674D01*
X125436485Y-89491466D01*
X125336486Y-89591464D01*
X124818855Y-90109095D01*
X124756543Y-90143121D01*
X124729760Y-90146000D01*
X122033259Y-90146000D01*
X121965138Y-90125998D01*
X121956555Y-90119962D01*
X121892973Y-90071173D01*
X121892971Y-90071172D01*
X121886420Y-90066145D01*
X121751531Y-90010272D01*
X121606777Y-89991215D01*
X121598589Y-89992293D01*
X121470209Y-90009194D01*
X121470207Y-90009195D01*
X121462023Y-90010272D01*
X121414207Y-90030078D01*
X121334763Y-90062985D01*
X121334761Y-90062986D01*
X121327135Y-90066145D01*
X121268937Y-90110802D01*
X121231553Y-90139488D01*
X121211303Y-90155026D01*
X121122422Y-90270858D01*
X121066549Y-90405746D01*
X121065472Y-90413930D01*
X121065471Y-90413932D01*
X121053422Y-90505460D01*
X121047492Y-90550500D01*
X121048570Y-90558688D01*
X121062360Y-90663432D01*
X121066549Y-90695254D01*
X121069708Y-90702880D01*
X121116026Y-90814700D01*
X121122422Y-90830142D01*
X121127449Y-90836693D01*
X121131303Y-90841716D01*
X121156903Y-90907937D01*
X121142638Y-90977485D01*
X121120435Y-91007515D01*
X121091465Y-91036485D01*
X121091462Y-91036489D01*
X121068674Y-91059277D01*
X121064171Y-91068115D01*
X121058546Y-91079154D01*
X121048216Y-91096011D01*
X121045265Y-91100073D01*
X121035095Y-91114071D01*
X121032030Y-91123504D01*
X121028199Y-91135295D01*
X121020634Y-91153561D01*
X121010502Y-91173445D01*
X121008951Y-91183238D01*
X121007011Y-91195487D01*
X121002395Y-91214713D01*
X120995500Y-91235934D01*
X120995500Y-103073518D01*
X120975498Y-103141639D01*
X120969471Y-103150211D01*
X120915645Y-103220358D01*
X120859772Y-103355246D01*
X120840715Y-103500000D01*
X120859772Y-103644754D01*
X120915645Y-103779642D01*
X121004526Y-103895474D01*
X121011076Y-103900500D01*
X121011079Y-103900503D01*
X121113804Y-103979327D01*
X121120357Y-103984355D01*
X121255246Y-104040228D01*
X121400000Y-104059285D01*
X121408188Y-104058207D01*
X121536566Y-104041306D01*
X121544754Y-104040228D01*
X121679643Y-103984355D01*
X121686196Y-103979327D01*
X121788921Y-103900503D01*
X121788924Y-103900500D01*
X121795474Y-103895474D01*
X121884355Y-103779642D01*
X121940228Y-103644754D01*
X121959285Y-103500000D01*
X121940228Y-103355246D01*
X121884355Y-103220358D01*
X121830536Y-103150220D01*
X121804937Y-103084001D01*
X121804500Y-103073518D01*
X121804500Y-91730500D01*
X121824502Y-91662379D01*
X121878158Y-91615886D01*
X121930500Y-91604500D01*
X122273518Y-91604500D01*
X122341639Y-91624502D01*
X122350222Y-91630538D01*
X122391718Y-91662379D01*
X122420357Y-91684355D01*
X122555246Y-91740228D01*
X122700000Y-91759285D01*
X122708188Y-91758207D01*
X122836566Y-91741306D01*
X122844754Y-91740228D01*
X122979643Y-91684355D01*
X122986196Y-91679327D01*
X123088921Y-91600503D01*
X123088924Y-91600500D01*
X123095474Y-91595474D01*
X123184355Y-91479642D01*
X123192788Y-91459285D01*
X123234209Y-91359285D01*
X123240228Y-91344754D01*
X123245528Y-91304500D01*
X123258207Y-91208188D01*
X123259285Y-91200000D01*
X123254626Y-91164612D01*
X123245784Y-91097446D01*
X123256724Y-91027297D01*
X123303852Y-90974199D01*
X123370706Y-90955000D01*
X125013566Y-90955000D01*
X125022998Y-90951935D01*
X125023000Y-90951935D01*
X125034787Y-90948105D01*
X125054013Y-90943489D01*
X125066262Y-90941549D01*
X125076055Y-90939998D01*
X125095939Y-90929866D01*
X125114205Y-90922301D01*
X125125996Y-90918470D01*
X125135429Y-90915405D01*
X125153489Y-90902284D01*
X125170346Y-90891954D01*
X125170625Y-90891812D01*
X125190223Y-90881826D01*
X125213011Y-90859038D01*
X125213015Y-90859035D01*
X125830645Y-90241405D01*
X125892957Y-90207379D01*
X125919740Y-90204500D01*
X126973518Y-90204500D01*
X127041639Y-90224502D01*
X127050222Y-90230538D01*
X127102768Y-90270858D01*
X127120357Y-90284355D01*
X127255246Y-90340228D01*
X127400000Y-90359285D01*
X127408188Y-90358207D01*
X127536566Y-90341306D01*
X127544754Y-90340228D01*
X127679643Y-90284355D01*
X127687292Y-90278486D01*
X127788921Y-90200503D01*
X127788924Y-90200500D01*
X127795474Y-90195474D01*
X127826915Y-90154500D01*
X127879328Y-90086193D01*
X127884355Y-90079642D01*
X127887864Y-90071172D01*
X127937069Y-89952380D01*
X127940228Y-89944754D01*
X127959285Y-89800000D01*
X127951078Y-89737660D01*
X127962018Y-89667511D01*
X128009146Y-89614413D01*
X128077500Y-89595223D01*
X128145378Y-89616034D01*
X128165095Y-89632119D01*
X128208595Y-89675619D01*
X128242621Y-89737931D01*
X128245500Y-89764714D01*
X128245500Y-92335284D01*
X128225498Y-92403405D01*
X128208596Y-92424379D01*
X127913697Y-92719279D01*
X127899283Y-92731666D01*
X127887823Y-92740099D01*
X127887820Y-92740102D01*
X127881929Y-92744437D01*
X127847909Y-92784481D01*
X127840994Y-92791981D01*
X127835338Y-92797638D01*
X127817806Y-92819798D01*
X127815039Y-92823173D01*
X127768018Y-92878520D01*
X127764689Y-92885040D01*
X127761369Y-92890018D01*
X127758236Y-92895091D01*
X127753693Y-92900833D01*
X127750593Y-92907466D01*
X127722947Y-92966617D01*
X127721014Y-92970572D01*
X127717831Y-92976805D01*
X127669036Y-93028376D01*
X127605616Y-93045500D01*
X125855947Y-93045500D01*
X125764050Y-93056214D01*
X125732518Y-93059890D01*
X125732516Y-93059890D01*
X125725246Y-93060738D01*
X125718369Y-93063234D01*
X125718366Y-93063235D01*
X125601796Y-93105548D01*
X125559866Y-93120768D01*
X125553749Y-93124778D01*
X125553746Y-93124780D01*
X125495815Y-93162762D01*
X125412732Y-93217234D01*
X125291736Y-93344960D01*
X125203368Y-93497096D01*
X125152370Y-93665480D01*
X125141476Y-93841080D01*
X125142716Y-93848296D01*
X125142716Y-93848298D01*
X125170031Y-94007262D01*
X125171271Y-94014477D01*
X125240156Y-94176368D01*
X125344437Y-94318071D01*
X125478520Y-94431982D01*
X125521640Y-94454000D01*
X125628695Y-94508666D01*
X125628700Y-94508668D01*
X125635212Y-94511993D01*
X125642318Y-94513732D01*
X125642321Y-94513733D01*
X125723710Y-94533648D01*
X125806108Y-94553811D01*
X125811710Y-94554159D01*
X125811713Y-94554159D01*
X125815275Y-94554380D01*
X125815284Y-94554380D01*
X125817214Y-94554500D01*
X128372316Y-94554500D01*
X128380118Y-94554742D01*
X128441080Y-94558524D01*
X128453908Y-94556320D01*
X128475244Y-94554500D01*
X135835285Y-94554500D01*
X135903406Y-94574502D01*
X135924380Y-94591405D01*
X144508595Y-103175619D01*
X144542621Y-103237931D01*
X144545500Y-103264714D01*
X144545500Y-114335286D01*
X144525498Y-114403407D01*
X144508595Y-114424381D01*
X142924381Y-116008595D01*
X142862069Y-116042621D01*
X142835286Y-116045500D01*
X142541499Y-116045500D01*
X142473378Y-116025498D01*
X142426885Y-115971842D01*
X142416781Y-115901568D01*
X142441403Y-115842971D01*
X142506746Y-115757505D01*
X142535219Y-115720264D01*
X142544472Y-115700421D01*
X142610802Y-115558177D01*
X142610803Y-115558174D01*
X142613682Y-115552000D01*
X142654182Y-115370812D01*
X142654500Y-115365124D01*
X142654500Y-114678615D01*
X142639488Y-114540427D01*
X142598889Y-114419790D01*
X142582448Y-114370936D01*
X142582447Y-114370934D01*
X142580270Y-114364465D01*
X142484649Y-114205323D01*
X142468754Y-114188514D01*
X142361773Y-114075386D01*
X142361771Y-114075384D01*
X142357084Y-114070428D01*
X142203529Y-113966072D01*
X142197195Y-113963539D01*
X142197192Y-113963537D01*
X142037484Y-113899658D01*
X142037479Y-113899657D01*
X142031147Y-113897124D01*
X142024420Y-113896010D01*
X142024415Y-113896009D01*
X141854718Y-113867916D01*
X141854715Y-113867916D01*
X141847981Y-113866801D01*
X141841164Y-113867158D01*
X141841160Y-113867158D01*
X141690080Y-113875077D01*
X141662576Y-113876518D01*
X141656004Y-113878328D01*
X141655999Y-113878329D01*
X141490165Y-113924008D01*
X141483583Y-113925821D01*
X141319352Y-114012410D01*
X141177546Y-114132245D01*
X141173399Y-114137668D01*
X141173398Y-114137670D01*
X141068925Y-114274315D01*
X141068923Y-114274319D01*
X141064781Y-114279736D01*
X141061899Y-114285916D01*
X141061898Y-114285918D01*
X140997332Y-114424381D01*
X140986318Y-114448000D01*
X140945818Y-114629188D01*
X140945500Y-114634876D01*
X140945500Y-115321385D01*
X140960512Y-115459573D01*
X141019730Y-115635535D01*
X141115351Y-115794677D01*
X141120039Y-115799634D01*
X141120041Y-115799637D01*
X141151522Y-115832926D01*
X141183795Y-115896164D01*
X141176756Y-115966810D01*
X141132639Y-116022436D01*
X141059975Y-116045500D01*
X140541499Y-116045500D01*
X140473378Y-116025498D01*
X140426885Y-115971842D01*
X140416781Y-115901568D01*
X140441403Y-115842971D01*
X140506746Y-115757505D01*
X140535219Y-115720264D01*
X140544472Y-115700421D01*
X140610802Y-115558177D01*
X140610803Y-115558174D01*
X140613682Y-115552000D01*
X140654182Y-115370812D01*
X140654500Y-115365124D01*
X140654500Y-114678615D01*
X140639488Y-114540427D01*
X140598889Y-114419790D01*
X140582448Y-114370936D01*
X140582447Y-114370934D01*
X140580270Y-114364465D01*
X140484649Y-114205323D01*
X140468754Y-114188514D01*
X140361773Y-114075386D01*
X140361771Y-114075384D01*
X140357084Y-114070428D01*
X140203529Y-113966072D01*
X140197195Y-113963539D01*
X140197192Y-113963537D01*
X140037484Y-113899658D01*
X140037479Y-113899657D01*
X140031147Y-113897124D01*
X140024420Y-113896010D01*
X140024415Y-113896009D01*
X139854718Y-113867916D01*
X139854715Y-113867916D01*
X139847981Y-113866801D01*
X139841164Y-113867158D01*
X139841160Y-113867158D01*
X139690080Y-113875077D01*
X139662576Y-113876518D01*
X139656004Y-113878328D01*
X139655999Y-113878329D01*
X139490165Y-113924008D01*
X139483583Y-113925821D01*
X139319352Y-114012410D01*
X139177546Y-114132245D01*
X139173399Y-114137668D01*
X139173398Y-114137670D01*
X139068925Y-114274315D01*
X139068923Y-114274319D01*
X139064781Y-114279736D01*
X139061899Y-114285916D01*
X139061898Y-114285918D01*
X138997332Y-114424381D01*
X138986318Y-114448000D01*
X138945818Y-114629188D01*
X138945500Y-114634876D01*
X138945500Y-115321385D01*
X138960512Y-115459573D01*
X139019730Y-115635535D01*
X139115351Y-115794677D01*
X139120039Y-115799634D01*
X139120041Y-115799637D01*
X139151522Y-115832926D01*
X139183795Y-115896164D01*
X139176756Y-115966810D01*
X139132639Y-116022436D01*
X139059975Y-116045500D01*
X138541499Y-116045500D01*
X138473378Y-116025498D01*
X138426885Y-115971842D01*
X138416781Y-115901568D01*
X138441403Y-115842971D01*
X138506746Y-115757505D01*
X138535219Y-115720264D01*
X138544472Y-115700421D01*
X138610802Y-115558177D01*
X138610803Y-115558174D01*
X138613682Y-115552000D01*
X138654182Y-115370812D01*
X138654500Y-115365124D01*
X138654500Y-114678615D01*
X138639488Y-114540427D01*
X138598889Y-114419790D01*
X138582448Y-114370936D01*
X138582447Y-114370934D01*
X138580270Y-114364465D01*
X138484649Y-114205323D01*
X138468754Y-114188514D01*
X138361773Y-114075386D01*
X138361771Y-114075384D01*
X138357084Y-114070428D01*
X138203529Y-113966072D01*
X138197195Y-113963539D01*
X138197192Y-113963537D01*
X138037484Y-113899658D01*
X138037479Y-113899657D01*
X138031147Y-113897124D01*
X138024420Y-113896010D01*
X138024415Y-113896009D01*
X137854718Y-113867916D01*
X137854715Y-113867916D01*
X137847981Y-113866801D01*
X137841164Y-113867158D01*
X137841160Y-113867158D01*
X137690080Y-113875077D01*
X137662576Y-113876518D01*
X137656004Y-113878328D01*
X137655999Y-113878329D01*
X137490165Y-113924008D01*
X137483583Y-113925821D01*
X137319352Y-114012410D01*
X137177546Y-114132245D01*
X137173399Y-114137668D01*
X137173398Y-114137670D01*
X137068925Y-114274315D01*
X137068923Y-114274319D01*
X137064781Y-114279736D01*
X137061899Y-114285916D01*
X137061898Y-114285918D01*
X136997332Y-114424381D01*
X136986318Y-114448000D01*
X136945818Y-114629188D01*
X136945500Y-114634876D01*
X136945500Y-115321385D01*
X136960512Y-115459573D01*
X137019730Y-115635535D01*
X137115351Y-115794677D01*
X137120039Y-115799634D01*
X137120041Y-115799637D01*
X137151522Y-115832926D01*
X137183795Y-115896164D01*
X137176756Y-115966810D01*
X137132639Y-116022436D01*
X137059975Y-116045500D01*
X136541499Y-116045500D01*
X136473378Y-116025498D01*
X136426885Y-115971842D01*
X136416781Y-115901568D01*
X136441403Y-115842971D01*
X136506746Y-115757505D01*
X136535219Y-115720264D01*
X136544472Y-115700421D01*
X136610802Y-115558177D01*
X136610803Y-115558174D01*
X136613682Y-115552000D01*
X136654182Y-115370812D01*
X136654500Y-115365124D01*
X136654500Y-114678615D01*
X136639488Y-114540427D01*
X136598889Y-114419790D01*
X136582448Y-114370936D01*
X136582447Y-114370934D01*
X136580270Y-114364465D01*
X136484649Y-114205323D01*
X136468754Y-114188514D01*
X136361773Y-114075386D01*
X136361771Y-114075384D01*
X136357084Y-114070428D01*
X136203529Y-113966072D01*
X136197195Y-113963539D01*
X136197192Y-113963537D01*
X136037484Y-113899658D01*
X136037479Y-113899657D01*
X136031147Y-113897124D01*
X136024420Y-113896010D01*
X136024415Y-113896009D01*
X135854718Y-113867916D01*
X135854715Y-113867916D01*
X135847981Y-113866801D01*
X135841164Y-113867158D01*
X135841160Y-113867158D01*
X135690080Y-113875077D01*
X135662576Y-113876518D01*
X135656004Y-113878328D01*
X135655999Y-113878329D01*
X135490165Y-113924008D01*
X135483583Y-113925821D01*
X135319352Y-114012410D01*
X135177546Y-114132245D01*
X135173399Y-114137668D01*
X135173398Y-114137670D01*
X135068925Y-114274315D01*
X135068923Y-114274319D01*
X135064781Y-114279736D01*
X135061898Y-114285919D01*
X135055619Y-114299383D01*
X135008701Y-114352667D01*
X134940423Y-114372127D01*
X134872464Y-114351584D01*
X134829409Y-114303823D01*
X134739381Y-114129022D01*
X134732931Y-114118976D01*
X134609738Y-113962143D01*
X134601501Y-113953494D01*
X134450877Y-113822788D01*
X134441153Y-113815853D01*
X134268533Y-113715990D01*
X134257669Y-113711016D01*
X134069273Y-113645593D01*
X134068284Y-113645352D01*
X134057992Y-113646820D01*
X134054000Y-113660385D01*
X134054000Y-115128000D01*
X134033998Y-115196121D01*
X133980342Y-115242614D01*
X133928000Y-115254000D01*
X133672000Y-115254000D01*
X133603879Y-115233998D01*
X133557386Y-115180342D01*
X133546000Y-115128000D01*
X133546000Y-113664598D01*
X133542027Y-113651067D01*
X133532601Y-113649712D01*
X133443463Y-113671194D01*
X133432168Y-113675083D01*
X133250618Y-113757629D01*
X133240276Y-113763576D01*
X133077603Y-113878968D01*
X133068575Y-113886761D01*
X132930658Y-114030831D01*
X132923262Y-114040196D01*
X132815079Y-114207741D01*
X132809583Y-114218345D01*
X132797366Y-114248659D01*
X132753351Y-114304365D01*
X132686206Y-114327432D01*
X132617249Y-114310535D01*
X132568374Y-114259040D01*
X132554500Y-114201561D01*
X132554500Y-110566765D01*
X132555933Y-110547815D01*
X132558074Y-110533745D01*
X132558074Y-110533741D01*
X132559174Y-110526511D01*
X132558569Y-110519065D01*
X132554915Y-110474152D01*
X132554500Y-110463937D01*
X132554500Y-110455947D01*
X132551560Y-110430729D01*
X132551229Y-110427887D01*
X132550796Y-110423512D01*
X132547988Y-110388990D01*
X132562401Y-110319472D01*
X132612111Y-110268782D01*
X132681335Y-110253014D01*
X132701381Y-110255882D01*
X132889579Y-110298467D01*
X132889584Y-110298468D01*
X132895216Y-110299742D01*
X132900987Y-110299969D01*
X132900989Y-110299969D01*
X132960756Y-110302317D01*
X133098053Y-110307712D01*
X133205348Y-110292155D01*
X133293231Y-110279413D01*
X133293236Y-110279412D01*
X133298945Y-110278584D01*
X133304409Y-110276729D01*
X133304414Y-110276728D01*
X133485693Y-110215192D01*
X133485698Y-110215190D01*
X133491165Y-110213334D01*
X133499276Y-110208792D01*
X133586639Y-110159866D01*
X133668276Y-110114147D01*
X133691635Y-110094720D01*
X133795696Y-110008172D01*
X133824345Y-109984345D01*
X133881463Y-109915669D01*
X133950453Y-109832718D01*
X133950455Y-109832715D01*
X133954147Y-109828276D01*
X134053334Y-109651165D01*
X134055190Y-109645698D01*
X134055192Y-109645693D01*
X134116728Y-109464414D01*
X134116729Y-109464409D01*
X134118584Y-109458945D01*
X134119412Y-109453236D01*
X134119413Y-109453231D01*
X134137726Y-109326928D01*
X134147712Y-109258053D01*
X134149232Y-109200000D01*
X134146564Y-109170964D01*
X134471148Y-109170964D01*
X134484424Y-109373522D01*
X134485845Y-109379118D01*
X134485846Y-109379123D01*
X134529513Y-109551059D01*
X134534392Y-109570269D01*
X134536809Y-109575512D01*
X134574010Y-109656208D01*
X134619377Y-109754616D01*
X134622710Y-109759332D01*
X134729006Y-109909738D01*
X134736533Y-109920389D01*
X134881938Y-110062035D01*
X135050720Y-110174812D01*
X135056023Y-110177090D01*
X135056026Y-110177092D01*
X135212721Y-110244413D01*
X135237228Y-110254942D01*
X135298392Y-110268782D01*
X135429579Y-110298467D01*
X135429584Y-110298468D01*
X135435216Y-110299742D01*
X135440987Y-110299969D01*
X135440989Y-110299969D01*
X135500756Y-110302317D01*
X135638053Y-110307712D01*
X135745348Y-110292155D01*
X135833231Y-110279413D01*
X135833236Y-110279412D01*
X135838945Y-110278584D01*
X135844409Y-110276729D01*
X135844414Y-110276728D01*
X136025693Y-110215192D01*
X136025698Y-110215190D01*
X136031165Y-110213334D01*
X136039276Y-110208792D01*
X136126639Y-110159866D01*
X136208276Y-110114147D01*
X136231635Y-110094720D01*
X136335696Y-110008172D01*
X136364345Y-109984345D01*
X136421463Y-109915669D01*
X136490453Y-109832718D01*
X136490455Y-109832715D01*
X136494147Y-109828276D01*
X136593334Y-109651165D01*
X136595720Y-109644135D01*
X136596170Y-109643496D01*
X136597541Y-109640416D01*
X136598146Y-109640685D01*
X136636553Y-109586059D01*
X136702305Y-109559278D01*
X136772098Y-109572295D01*
X136823773Y-109620980D01*
X136831777Y-109637229D01*
X136901770Y-109809603D01*
X136906413Y-109818794D01*
X137017694Y-110000388D01*
X137023777Y-110008699D01*
X137163213Y-110169667D01*
X137170580Y-110176883D01*
X137334434Y-110312916D01*
X137342881Y-110318831D01*
X137526756Y-110426279D01*
X137536042Y-110430729D01*
X137735001Y-110506703D01*
X137744899Y-110509579D01*
X137848250Y-110530606D01*
X137862299Y-110529410D01*
X137866000Y-110519065D01*
X137866000Y-110518517D01*
X138374000Y-110518517D01*
X138378064Y-110532359D01*
X138391478Y-110534393D01*
X138398184Y-110533534D01*
X138408262Y-110531392D01*
X138612255Y-110470191D01*
X138621842Y-110466433D01*
X138813095Y-110372739D01*
X138821945Y-110367464D01*
X138995328Y-110243792D01*
X139003200Y-110237139D01*
X139154052Y-110086812D01*
X139160730Y-110078965D01*
X139285003Y-109906020D01*
X139290313Y-109897183D01*
X139384670Y-109706267D01*
X139388469Y-109696672D01*
X139450377Y-109492910D01*
X139452555Y-109482837D01*
X139453986Y-109471962D01*
X139451775Y-109457778D01*
X139438617Y-109454000D01*
X138392115Y-109454000D01*
X138376876Y-109458475D01*
X138375671Y-109459865D01*
X138374000Y-109467548D01*
X138374000Y-110518517D01*
X137866000Y-110518517D01*
X137866000Y-108927885D01*
X138374000Y-108927885D01*
X138378475Y-108943124D01*
X138379865Y-108944329D01*
X138387548Y-108946000D01*
X139438344Y-108946000D01*
X139451875Y-108942027D01*
X139453180Y-108932947D01*
X139411214Y-108765875D01*
X139407894Y-108756124D01*
X139322972Y-108560814D01*
X139318105Y-108551739D01*
X139202426Y-108372926D01*
X139196136Y-108364757D01*
X139052806Y-108207240D01*
X139045273Y-108200215D01*
X138878139Y-108068222D01*
X138869552Y-108062517D01*
X138832116Y-108041851D01*
X138782146Y-107991419D01*
X138767374Y-107921976D01*
X138792490Y-107855571D01*
X138819842Y-107828964D01*
X138995327Y-107703792D01*
X139003200Y-107697139D01*
X139154052Y-107546812D01*
X139160730Y-107538965D01*
X139285003Y-107366020D01*
X139290313Y-107357183D01*
X139384670Y-107166267D01*
X139388469Y-107156672D01*
X139450377Y-106952910D01*
X139452555Y-106942837D01*
X139453986Y-106931962D01*
X139451775Y-106917778D01*
X139438617Y-106914000D01*
X138392115Y-106914000D01*
X138376876Y-106918475D01*
X138375671Y-106919865D01*
X138374000Y-106927548D01*
X138374000Y-108927885D01*
X137866000Y-108927885D01*
X137866000Y-106387885D01*
X138374000Y-106387885D01*
X138378475Y-106403124D01*
X138379865Y-106404329D01*
X138387548Y-106406000D01*
X139438344Y-106406000D01*
X139451875Y-106402027D01*
X139453180Y-106392947D01*
X139411214Y-106225875D01*
X139407894Y-106216124D01*
X139322972Y-106020814D01*
X139318105Y-106011739D01*
X139202426Y-105832926D01*
X139196136Y-105824757D01*
X139052806Y-105667240D01*
X139045273Y-105660215D01*
X138878139Y-105528222D01*
X138869552Y-105522517D01*
X138683117Y-105419599D01*
X138673705Y-105415369D01*
X138472959Y-105344280D01*
X138462988Y-105341646D01*
X138391837Y-105328972D01*
X138378540Y-105330432D01*
X138374000Y-105344989D01*
X138374000Y-106387885D01*
X137866000Y-106387885D01*
X137866000Y-105343102D01*
X137862082Y-105329758D01*
X137847806Y-105327771D01*
X137809324Y-105333660D01*
X137799288Y-105336051D01*
X137596868Y-105402212D01*
X137587359Y-105406209D01*
X137398463Y-105504542D01*
X137389738Y-105510036D01*
X137219433Y-105637905D01*
X137211726Y-105644748D01*
X137064590Y-105798717D01*
X137058104Y-105806727D01*
X136938098Y-105982649D01*
X136933000Y-105991623D01*
X136843338Y-106184783D01*
X136839777Y-106194464D01*
X136835291Y-106210640D01*
X136797813Y-106270939D01*
X136733684Y-106301403D01*
X136663266Y-106292360D01*
X136608915Y-106246682D01*
X136600867Y-106232698D01*
X136528331Y-106085609D01*
X136525776Y-106080428D01*
X136404320Y-105917779D01*
X136311354Y-105831842D01*
X136259503Y-105783911D01*
X136255258Y-105779987D01*
X136250375Y-105776906D01*
X136250371Y-105776903D01*
X136088464Y-105674748D01*
X136083581Y-105671667D01*
X135895039Y-105596446D01*
X135889379Y-105595320D01*
X135889375Y-105595319D01*
X135701613Y-105557971D01*
X135701610Y-105557971D01*
X135695946Y-105556844D01*
X135690171Y-105556768D01*
X135690167Y-105556768D01*
X135588793Y-105555441D01*
X135492971Y-105554187D01*
X135487274Y-105555166D01*
X135487273Y-105555166D01*
X135457285Y-105560319D01*
X135292910Y-105588564D01*
X135102463Y-105658824D01*
X134928010Y-105762612D01*
X134923670Y-105766418D01*
X134923666Y-105766421D01*
X134810129Y-105865991D01*
X134775392Y-105896455D01*
X134649720Y-106055869D01*
X134647031Y-106060980D01*
X134647029Y-106060983D01*
X134634073Y-106085609D01*
X134555203Y-106235515D01*
X134495007Y-106429378D01*
X134471148Y-106630964D01*
X134484424Y-106833522D01*
X134485845Y-106839118D01*
X134485846Y-106839123D01*
X134531585Y-107019217D01*
X134534392Y-107030269D01*
X134536809Y-107035512D01*
X134574010Y-107116208D01*
X134619377Y-107214616D01*
X134622710Y-107219332D01*
X134711798Y-107345389D01*
X134736533Y-107380389D01*
X134881938Y-107522035D01*
X134886742Y-107525245D01*
X134902019Y-107535453D01*
X135050720Y-107634812D01*
X135056023Y-107637090D01*
X135056026Y-107637092D01*
X135220693Y-107707838D01*
X135237228Y-107714942D01*
X135296231Y-107728293D01*
X135429579Y-107758467D01*
X135429584Y-107758468D01*
X135435216Y-107759742D01*
X135440987Y-107759969D01*
X135440989Y-107759969D01*
X135500756Y-107762317D01*
X135638053Y-107767712D01*
X135738499Y-107753148D01*
X135833231Y-107739413D01*
X135833236Y-107739412D01*
X135838945Y-107738584D01*
X135844409Y-107736729D01*
X135844414Y-107736728D01*
X136025693Y-107675192D01*
X136025698Y-107675190D01*
X136031165Y-107673334D01*
X136045374Y-107665377D01*
X136109138Y-107629667D01*
X136208276Y-107574147D01*
X136222728Y-107562128D01*
X136335696Y-107468172D01*
X136364345Y-107444345D01*
X136436837Y-107357183D01*
X136490453Y-107292718D01*
X136490455Y-107292715D01*
X136494147Y-107288276D01*
X136593334Y-107111165D01*
X136595720Y-107104135D01*
X136596170Y-107103496D01*
X136597541Y-107100416D01*
X136598146Y-107100685D01*
X136636553Y-107046059D01*
X136702305Y-107019278D01*
X136772098Y-107032295D01*
X136823773Y-107080980D01*
X136831777Y-107097229D01*
X136901770Y-107269603D01*
X136906413Y-107278794D01*
X137017694Y-107460388D01*
X137023777Y-107468699D01*
X137163213Y-107629667D01*
X137170580Y-107636883D01*
X137334434Y-107772916D01*
X137342881Y-107778831D01*
X137412479Y-107819501D01*
X137461203Y-107871140D01*
X137474274Y-107940923D01*
X137447543Y-108006694D01*
X137407087Y-108040053D01*
X137398462Y-108044542D01*
X137389738Y-108050036D01*
X137219433Y-108177905D01*
X137211726Y-108184748D01*
X137064590Y-108338717D01*
X137058104Y-108346727D01*
X136938098Y-108522649D01*
X136933000Y-108531623D01*
X136843338Y-108724783D01*
X136839777Y-108734464D01*
X136835291Y-108750640D01*
X136797813Y-108810939D01*
X136733684Y-108841403D01*
X136663266Y-108832360D01*
X136608915Y-108786682D01*
X136600867Y-108772698D01*
X136528331Y-108625609D01*
X136525776Y-108620428D01*
X136404320Y-108457779D01*
X136255258Y-108319987D01*
X136250375Y-108316906D01*
X136250371Y-108316903D01*
X136088464Y-108214748D01*
X136083581Y-108211667D01*
X135895039Y-108136446D01*
X135889379Y-108135320D01*
X135889375Y-108135319D01*
X135701613Y-108097971D01*
X135701610Y-108097971D01*
X135695946Y-108096844D01*
X135690171Y-108096768D01*
X135690167Y-108096768D01*
X135588793Y-108095441D01*
X135492971Y-108094187D01*
X135487274Y-108095166D01*
X135487273Y-108095166D01*
X135359271Y-108117161D01*
X135292910Y-108128564D01*
X135102463Y-108198824D01*
X134928010Y-108302612D01*
X134923670Y-108306418D01*
X134923666Y-108306421D01*
X134810129Y-108405991D01*
X134775392Y-108436455D01*
X134771817Y-108440990D01*
X134771816Y-108440991D01*
X134754931Y-108462409D01*
X134649720Y-108595869D01*
X134647031Y-108600980D01*
X134647029Y-108600983D01*
X134634073Y-108625609D01*
X134555203Y-108775515D01*
X134495007Y-108969378D01*
X134471148Y-109170964D01*
X134146564Y-109170964D01*
X134130658Y-108997859D01*
X134125860Y-108980847D01*
X134077125Y-108808046D01*
X134077124Y-108808044D01*
X134075557Y-108802487D01*
X134064978Y-108781033D01*
X133988331Y-108625609D01*
X133985776Y-108620428D01*
X133864320Y-108457779D01*
X133715258Y-108319987D01*
X133710375Y-108316906D01*
X133710371Y-108316903D01*
X133548464Y-108214748D01*
X133543581Y-108211667D01*
X133355039Y-108136446D01*
X133349379Y-108135320D01*
X133349375Y-108135319D01*
X133161613Y-108097971D01*
X133161610Y-108097971D01*
X133155946Y-108096844D01*
X133150171Y-108096768D01*
X133150167Y-108096768D01*
X133048793Y-108095441D01*
X132952971Y-108094187D01*
X132947274Y-108095166D01*
X132947273Y-108095166D01*
X132819271Y-108117161D01*
X132752910Y-108128564D01*
X132562463Y-108198824D01*
X132388010Y-108302612D01*
X132383670Y-108306418D01*
X132383666Y-108306421D01*
X132270129Y-108405991D01*
X132235392Y-108436455D01*
X132231817Y-108440990D01*
X132231816Y-108440991D01*
X132214931Y-108462409D01*
X132109720Y-108595869D01*
X132107031Y-108600980D01*
X132107029Y-108600983D01*
X132094073Y-108625609D01*
X132015203Y-108775515D01*
X131955007Y-108969378D01*
X131931148Y-109170964D01*
X131931526Y-109176730D01*
X131931526Y-109176731D01*
X131936829Y-109257645D01*
X131921325Y-109326928D01*
X131870825Y-109376830D01*
X131801362Y-109391508D01*
X131734991Y-109366302D01*
X131722004Y-109354980D01*
X131641405Y-109274381D01*
X131607379Y-109212069D01*
X131604500Y-109185286D01*
X131604499Y-108331123D01*
X131604499Y-108324934D01*
X131593098Y-108267612D01*
X131592156Y-108262874D01*
X131592155Y-108262872D01*
X131589734Y-108250699D01*
X131563654Y-108211667D01*
X131540377Y-108176832D01*
X131533484Y-108166516D01*
X131449301Y-108110266D01*
X131375067Y-108095500D01*
X130500142Y-108095500D01*
X129624934Y-108095501D01*
X129595044Y-108101446D01*
X129562874Y-108107844D01*
X129562872Y-108107845D01*
X129550699Y-108110266D01*
X129540379Y-108117161D01*
X129540378Y-108117162D01*
X129501852Y-108142905D01*
X129466516Y-108166516D01*
X129410266Y-108250699D01*
X129395500Y-108324933D01*
X129395501Y-110075066D01*
X129410266Y-110149301D01*
X129417161Y-110159621D01*
X129417162Y-110159622D01*
X129455944Y-110217662D01*
X129466516Y-110233484D01*
X129550699Y-110289734D01*
X129624933Y-110304500D01*
X129721647Y-110304500D01*
X130485284Y-110304499D01*
X130553405Y-110324501D01*
X130574379Y-110341404D01*
X131008595Y-110775620D01*
X131042621Y-110837932D01*
X131045500Y-110864715D01*
X131045500Y-114293150D01*
X131033695Y-114346400D01*
X130997332Y-114424381D01*
X130986318Y-114448000D01*
X130945818Y-114629188D01*
X130945500Y-114634876D01*
X130945500Y-115321385D01*
X130960512Y-115459573D01*
X131019730Y-115635535D01*
X131023247Y-115641388D01*
X131027504Y-115648473D01*
X131045500Y-115713366D01*
X131045500Y-115919500D01*
X131025498Y-115987621D01*
X130971842Y-116034114D01*
X130919500Y-116045500D01*
X130712038Y-116045500D01*
X130643917Y-116025498D01*
X130597424Y-115971842D01*
X130587320Y-115901568D01*
X130597831Y-115870049D01*
X130597071Y-115869764D01*
X130645026Y-115741843D01*
X130645026Y-115741841D01*
X130647798Y-115734448D01*
X130650011Y-115714082D01*
X130654131Y-115676153D01*
X130654131Y-115676152D01*
X130654500Y-115672756D01*
X130654500Y-114327244D01*
X130650011Y-114285919D01*
X130648651Y-114273403D01*
X130648651Y-114273402D01*
X130647798Y-114265552D01*
X130597071Y-114130236D01*
X130591691Y-114123057D01*
X130591689Y-114123054D01*
X130515785Y-114021776D01*
X130510404Y-114014596D01*
X130457566Y-113974996D01*
X130401946Y-113933311D01*
X130401943Y-113933309D01*
X130394764Y-113927929D01*
X130284947Y-113886761D01*
X130266843Y-113879974D01*
X130266841Y-113879974D01*
X130259448Y-113877202D01*
X130251598Y-113876349D01*
X130251597Y-113876349D01*
X130201153Y-113870869D01*
X130201152Y-113870869D01*
X130197756Y-113870500D01*
X129789714Y-113870500D01*
X129721593Y-113850498D01*
X129700619Y-113833595D01*
X129091405Y-113224381D01*
X129057379Y-113162069D01*
X129054500Y-113135286D01*
X129054500Y-107540500D01*
X129074502Y-107472379D01*
X129128158Y-107425886D01*
X129180500Y-107414500D01*
X129640322Y-107414500D01*
X129708443Y-107434502D01*
X129728243Y-107450246D01*
X129797793Y-107517998D01*
X129797798Y-107518002D01*
X129801938Y-107522035D01*
X129970720Y-107634812D01*
X129976023Y-107637090D01*
X129976026Y-107637092D01*
X130140693Y-107707838D01*
X130157228Y-107714942D01*
X130216231Y-107728293D01*
X130349579Y-107758467D01*
X130349584Y-107758468D01*
X130355216Y-107759742D01*
X130360987Y-107759969D01*
X130360989Y-107759969D01*
X130420756Y-107762317D01*
X130558053Y-107767712D01*
X130658499Y-107753148D01*
X130753231Y-107739413D01*
X130753236Y-107739412D01*
X130758945Y-107738584D01*
X130764409Y-107736729D01*
X130764414Y-107736728D01*
X130945693Y-107675192D01*
X130945698Y-107675190D01*
X130951165Y-107673334D01*
X130965374Y-107665377D01*
X131029138Y-107629667D01*
X131128276Y-107574147D01*
X131142728Y-107562128D01*
X131255696Y-107468172D01*
X131284345Y-107444345D01*
X131356837Y-107357183D01*
X131410453Y-107292718D01*
X131410455Y-107292715D01*
X131414147Y-107288276D01*
X131513334Y-107111165D01*
X131515190Y-107105698D01*
X131515192Y-107105693D01*
X131576728Y-106924414D01*
X131576729Y-106924409D01*
X131578584Y-106918945D01*
X131579412Y-106913236D01*
X131579413Y-106913231D01*
X131607179Y-106721727D01*
X131607712Y-106718053D01*
X131609232Y-106660000D01*
X131606564Y-106630964D01*
X131931148Y-106630964D01*
X131944424Y-106833522D01*
X131945845Y-106839118D01*
X131945846Y-106839123D01*
X131991585Y-107019217D01*
X131994392Y-107030269D01*
X131996809Y-107035512D01*
X132034010Y-107116208D01*
X132079377Y-107214616D01*
X132082710Y-107219332D01*
X132171798Y-107345389D01*
X132196533Y-107380389D01*
X132341938Y-107522035D01*
X132346742Y-107525245D01*
X132362019Y-107535453D01*
X132510720Y-107634812D01*
X132516023Y-107637090D01*
X132516026Y-107637092D01*
X132680693Y-107707838D01*
X132697228Y-107714942D01*
X132756231Y-107728293D01*
X132889579Y-107758467D01*
X132889584Y-107758468D01*
X132895216Y-107759742D01*
X132900987Y-107759969D01*
X132900989Y-107759969D01*
X132960756Y-107762317D01*
X133098053Y-107767712D01*
X133198499Y-107753148D01*
X133293231Y-107739413D01*
X133293236Y-107739412D01*
X133298945Y-107738584D01*
X133304409Y-107736729D01*
X133304414Y-107736728D01*
X133485693Y-107675192D01*
X133485698Y-107675190D01*
X133491165Y-107673334D01*
X133505374Y-107665377D01*
X133569138Y-107629667D01*
X133668276Y-107574147D01*
X133682728Y-107562128D01*
X133795696Y-107468172D01*
X133824345Y-107444345D01*
X133896837Y-107357183D01*
X133950453Y-107292718D01*
X133950455Y-107292715D01*
X133954147Y-107288276D01*
X134053334Y-107111165D01*
X134055190Y-107105698D01*
X134055192Y-107105693D01*
X134116728Y-106924414D01*
X134116729Y-106924409D01*
X134118584Y-106918945D01*
X134119412Y-106913236D01*
X134119413Y-106913231D01*
X134147179Y-106721727D01*
X134147712Y-106718053D01*
X134149232Y-106660000D01*
X134132946Y-106482760D01*
X134131187Y-106463613D01*
X134131186Y-106463610D01*
X134130658Y-106457859D01*
X134126401Y-106442765D01*
X134077125Y-106268046D01*
X134077124Y-106268044D01*
X134075557Y-106262487D01*
X134067893Y-106246944D01*
X133988331Y-106085609D01*
X133985776Y-106080428D01*
X133864320Y-105917779D01*
X133771354Y-105831842D01*
X133719503Y-105783911D01*
X133715258Y-105779987D01*
X133710375Y-105776906D01*
X133710371Y-105776903D01*
X133548464Y-105674748D01*
X133543581Y-105671667D01*
X133355039Y-105596446D01*
X133349379Y-105595320D01*
X133349375Y-105595319D01*
X133161613Y-105557971D01*
X133161610Y-105557971D01*
X133155946Y-105556844D01*
X133150171Y-105556768D01*
X133150167Y-105556768D01*
X133048793Y-105555441D01*
X132952971Y-105554187D01*
X132947274Y-105555166D01*
X132947273Y-105555166D01*
X132917285Y-105560319D01*
X132752910Y-105588564D01*
X132562463Y-105658824D01*
X132388010Y-105762612D01*
X132383670Y-105766418D01*
X132383666Y-105766421D01*
X132270129Y-105865991D01*
X132235392Y-105896455D01*
X132109720Y-106055869D01*
X132107031Y-106060980D01*
X132107029Y-106060983D01*
X132094073Y-106085609D01*
X132015203Y-106235515D01*
X131955007Y-106429378D01*
X131931148Y-106630964D01*
X131606564Y-106630964D01*
X131592946Y-106482760D01*
X131591187Y-106463613D01*
X131591186Y-106463610D01*
X131590658Y-106457859D01*
X131586401Y-106442765D01*
X131537125Y-106268046D01*
X131537124Y-106268044D01*
X131535557Y-106262487D01*
X131527893Y-106246944D01*
X131448331Y-106085609D01*
X131445776Y-106080428D01*
X131324320Y-105917779D01*
X131231354Y-105831842D01*
X131179503Y-105783911D01*
X131175258Y-105779987D01*
X131170375Y-105776906D01*
X131170371Y-105776903D01*
X131008464Y-105674748D01*
X131003581Y-105671667D01*
X130815039Y-105596446D01*
X130809379Y-105595320D01*
X130809375Y-105595319D01*
X130621613Y-105557971D01*
X130621610Y-105557971D01*
X130615946Y-105556844D01*
X130610171Y-105556768D01*
X130610167Y-105556768D01*
X130508793Y-105555441D01*
X130412971Y-105554187D01*
X130407274Y-105555166D01*
X130407273Y-105555166D01*
X130377285Y-105560319D01*
X130212910Y-105588564D01*
X130022463Y-105658824D01*
X129848010Y-105762612D01*
X129797707Y-105806727D01*
X129720732Y-105874232D01*
X129656328Y-105904109D01*
X129637654Y-105905500D01*
X129180500Y-105905500D01*
X129112379Y-105885498D01*
X129065886Y-105831842D01*
X129054500Y-105779500D01*
X129054500Y-105264715D01*
X129074502Y-105196594D01*
X129091405Y-105175620D01*
X133375619Y-100891405D01*
X133437931Y-100857379D01*
X133464714Y-100854500D01*
X137344053Y-100854500D01*
X137435950Y-100843786D01*
X137467482Y-100840110D01*
X137467484Y-100840110D01*
X137474754Y-100839262D01*
X137481631Y-100836766D01*
X137481634Y-100836765D01*
X137633255Y-100781729D01*
X137640134Y-100779232D01*
X137646251Y-100775222D01*
X137646254Y-100775220D01*
X137713701Y-100730999D01*
X137787268Y-100682766D01*
X137908264Y-100555040D01*
X137996632Y-100402904D01*
X138047630Y-100234520D01*
X138058524Y-100058920D01*
X138028729Y-99885523D01*
X137959844Y-99723632D01*
X137855563Y-99581929D01*
X137721480Y-99468018D01*
X137628947Y-99420768D01*
X137571305Y-99391334D01*
X137571300Y-99391332D01*
X137564788Y-99388007D01*
X137557682Y-99386268D01*
X137557679Y-99386267D01*
X137463549Y-99363234D01*
X137393892Y-99346189D01*
X137388290Y-99345841D01*
X137388287Y-99345841D01*
X137384725Y-99345620D01*
X137384716Y-99345620D01*
X137382786Y-99345500D01*
X133166766Y-99345500D01*
X133147816Y-99344067D01*
X133133746Y-99341926D01*
X133133740Y-99341926D01*
X133126511Y-99340826D01*
X133119220Y-99341419D01*
X133119217Y-99341419D01*
X133074152Y-99345085D01*
X133063937Y-99345500D01*
X133055947Y-99345500D01*
X133050038Y-99346189D01*
X133027887Y-99348771D01*
X133023513Y-99349204D01*
X132958451Y-99354496D01*
X132958448Y-99354497D01*
X132951153Y-99355090D01*
X132944191Y-99357345D01*
X132938323Y-99358518D01*
X132932516Y-99359890D01*
X132925246Y-99360738D01*
X132856940Y-99385532D01*
X132852837Y-99386940D01*
X132783778Y-99409312D01*
X132777516Y-99413112D01*
X132772059Y-99415610D01*
X132766744Y-99418271D01*
X132759866Y-99420768D01*
X132753752Y-99424776D01*
X132753745Y-99424780D01*
X132699124Y-99460592D01*
X132695404Y-99462939D01*
X132692519Y-99464690D01*
X132633367Y-99500584D01*
X132625026Y-99507949D01*
X132625004Y-99507924D01*
X132621956Y-99510626D01*
X132618851Y-99513222D01*
X132612732Y-99517234D01*
X132607699Y-99522546D01*
X132607700Y-99522546D01*
X132559785Y-99573126D01*
X132557407Y-99575568D01*
X127813700Y-104319276D01*
X127799287Y-104331663D01*
X127781929Y-104344437D01*
X127777186Y-104350020D01*
X127747911Y-104384479D01*
X127740981Y-104391995D01*
X127735338Y-104397638D01*
X127717806Y-104419798D01*
X127715039Y-104423173D01*
X127668018Y-104478520D01*
X127664689Y-104485040D01*
X127661369Y-104490018D01*
X127658236Y-104495091D01*
X127653693Y-104500833D01*
X127650593Y-104507466D01*
X127622947Y-104566617D01*
X127621016Y-104570567D01*
X127588007Y-104635212D01*
X127586267Y-104642322D01*
X127584177Y-104647942D01*
X127582297Y-104653593D01*
X127579199Y-104660222D01*
X127577709Y-104667386D01*
X127577708Y-104667389D01*
X127564415Y-104731303D01*
X127563449Y-104735573D01*
X127546189Y-104806108D01*
X127545500Y-104817214D01*
X127545466Y-104817212D01*
X127545223Y-104821271D01*
X127544863Y-104825305D01*
X127543372Y-104832473D01*
X127543570Y-104839790D01*
X127545454Y-104909415D01*
X127545500Y-104912823D01*
X127545500Y-106433235D01*
X127544067Y-106452185D01*
X127542914Y-106459767D01*
X127540826Y-106473489D01*
X127541419Y-106480780D01*
X127541419Y-106480783D01*
X127545085Y-106525848D01*
X127545500Y-106536063D01*
X127545500Y-112869500D01*
X127525498Y-112937621D01*
X127471842Y-112984114D01*
X127419500Y-112995500D01*
X123562926Y-112995500D01*
X123494805Y-112975498D01*
X123448312Y-112921842D01*
X123438208Y-112851568D01*
X123438995Y-112847730D01*
X123440228Y-112844754D01*
X123459285Y-112700000D01*
X123440228Y-112555246D01*
X123420422Y-112507430D01*
X123387515Y-112427986D01*
X123387514Y-112427984D01*
X123384355Y-112420358D01*
X123295474Y-112304526D01*
X123288924Y-112299500D01*
X123288921Y-112299497D01*
X123186196Y-112220673D01*
X123186193Y-112220671D01*
X123179643Y-112215645D01*
X123044754Y-112159772D01*
X123003851Y-112154387D01*
X122972377Y-112150244D01*
X122900000Y-112140715D01*
X122796150Y-112154387D01*
X122726001Y-112143448D01*
X122690609Y-112118560D01*
X121566770Y-110994720D01*
X120441405Y-109869355D01*
X120407379Y-109807043D01*
X120404500Y-109780260D01*
X120404500Y-88819740D01*
X120424502Y-88751619D01*
X120441405Y-88730645D01*
X120584456Y-88587594D01*
X120646768Y-88553568D01*
X120657099Y-88551768D01*
X120744754Y-88540228D01*
X120879643Y-88484355D01*
X120886196Y-88479327D01*
X120988921Y-88400503D01*
X120988924Y-88400500D01*
X120995474Y-88395474D01*
X121044539Y-88331531D01*
X121101877Y-88289664D01*
X121172748Y-88285442D01*
X121221206Y-88308273D01*
X121320357Y-88384355D01*
X121455246Y-88440228D01*
X121600000Y-88459285D01*
X121608188Y-88458207D01*
X121736566Y-88441306D01*
X121744754Y-88440228D01*
X121879643Y-88384355D01*
X121886196Y-88379327D01*
X121988921Y-88300503D01*
X121988924Y-88300500D01*
X121995474Y-88295474D01*
X122007623Y-88279642D01*
X122079328Y-88186193D01*
X122084355Y-88179642D01*
X122094770Y-88154500D01*
X122137069Y-88052380D01*
X122140228Y-88044754D01*
X122141484Y-88035219D01*
X122158207Y-87908188D01*
X122159285Y-87900000D01*
X122158207Y-87891812D01*
X122158207Y-87884207D01*
X122178209Y-87816086D01*
X122231865Y-87769593D01*
X122284207Y-87758207D01*
X122291812Y-87758207D01*
X122300000Y-87759285D01*
X122308188Y-87758207D01*
X122330680Y-87755246D01*
X122444754Y-87740228D01*
X122579643Y-87684355D01*
X122586196Y-87679327D01*
X122688921Y-87600503D01*
X122688924Y-87600500D01*
X122695474Y-87595474D01*
X122716197Y-87568468D01*
X122749933Y-87524502D01*
X122784355Y-87479642D01*
X122801843Y-87437424D01*
X122832002Y-87364612D01*
X122840228Y-87344754D01*
X122841474Y-87335295D01*
X122858207Y-87208188D01*
X122859285Y-87200000D01*
X122843440Y-87079642D01*
X122841306Y-87063432D01*
X122841305Y-87063430D01*
X122840228Y-87055246D01*
X122784355Y-86920358D01*
X122730536Y-86850220D01*
X122704937Y-86784001D01*
X122704500Y-86773518D01*
X122704500Y-80635934D01*
X122697605Y-80614713D01*
X122692989Y-80595487D01*
X122691049Y-80583238D01*
X122689498Y-80573445D01*
X122679366Y-80553561D01*
X122671801Y-80535295D01*
X122667969Y-80523502D01*
X122664905Y-80514071D01*
X122651784Y-80496013D01*
X122641455Y-80479157D01*
X122635826Y-80468109D01*
X122631326Y-80459277D01*
X120246049Y-78074000D01*
X116941405Y-74769355D01*
X116907379Y-74707043D01*
X116904500Y-74680260D01*
X116904500Y-73826482D01*
X116924502Y-73758361D01*
X116930529Y-73749789D01*
X116984355Y-73679642D01*
X117040228Y-73544754D01*
X117059285Y-73400000D01*
X117040228Y-73255246D01*
X116994305Y-73144378D01*
X116987515Y-73127986D01*
X116987514Y-73127984D01*
X116984355Y-73120358D01*
X116895474Y-73004526D01*
X116888924Y-72999500D01*
X116888921Y-72999497D01*
X116786196Y-72920673D01*
X116786194Y-72920672D01*
X116779643Y-72915645D01*
X116644754Y-72859772D01*
X116500000Y-72840715D01*
X116491812Y-72841793D01*
X116363432Y-72858694D01*
X116363430Y-72858695D01*
X116355246Y-72859772D01*
X116307430Y-72879578D01*
X116227986Y-72912485D01*
X116227984Y-72912486D01*
X116220358Y-72915645D01*
X116104526Y-73004526D01*
X116015645Y-73120358D01*
X116012486Y-73127984D01*
X116012485Y-73127986D01*
X116005695Y-73144378D01*
X115959772Y-73255246D01*
X115940715Y-73400000D01*
X115959772Y-73544754D01*
X116015645Y-73679642D01*
X116069464Y-73749780D01*
X116095063Y-73815999D01*
X116095500Y-73826482D01*
X116095500Y-74922778D01*
X116075498Y-74990899D01*
X116021842Y-75037392D01*
X115953055Y-75047700D01*
X115900000Y-75040715D01*
X115891812Y-75041793D01*
X115763432Y-75058694D01*
X115763430Y-75058695D01*
X115755246Y-75059772D01*
X115747619Y-75062931D01*
X115747620Y-75062931D01*
X115627986Y-75112485D01*
X115627984Y-75112486D01*
X115620358Y-75115645D01*
X115504526Y-75204526D01*
X115415645Y-75320358D01*
X115359772Y-75455246D01*
X115340715Y-75600000D01*
X115341793Y-75608188D01*
X115353815Y-75699502D01*
X115359772Y-75744754D01*
X115362931Y-75752380D01*
X115393184Y-75825416D01*
X115415645Y-75879642D01*
X115420672Y-75886193D01*
X115494087Y-75981869D01*
X115504526Y-75995474D01*
X115511076Y-76000500D01*
X115511079Y-76000503D01*
X115604274Y-76072014D01*
X115620357Y-76084355D01*
X115755246Y-76140228D01*
X115842896Y-76151767D01*
X115907822Y-76180489D01*
X115915544Y-76187594D01*
X121158595Y-81430645D01*
X121192621Y-81492957D01*
X121195500Y-81519740D01*
X121195500Y-87473518D01*
X121175498Y-87541639D01*
X121169474Y-87550206D01*
X121155460Y-87568470D01*
X121098125Y-87610336D01*
X121027254Y-87614558D01*
X120978795Y-87591728D01*
X120879643Y-87515645D01*
X120744754Y-87459772D01*
X120600000Y-87440715D01*
X120591812Y-87441793D01*
X120463432Y-87458694D01*
X120463430Y-87458695D01*
X120455246Y-87459772D01*
X120320358Y-87515645D01*
X120313812Y-87520668D01*
X120311401Y-87522060D01*
X120242405Y-87538798D01*
X120175313Y-87515577D01*
X120131992Y-87461159D01*
X120087440Y-87353602D01*
X120087440Y-87353601D01*
X120084279Y-87345971D01*
X120024538Y-87268115D01*
X120000425Y-87236690D01*
X120000424Y-87236689D01*
X119995398Y-87230139D01*
X119988848Y-87225113D01*
X119988845Y-87225110D01*
X119886120Y-87146286D01*
X119886118Y-87146285D01*
X119879567Y-87141258D01*
X119744678Y-87085385D01*
X119599924Y-87066328D01*
X119591736Y-87067406D01*
X119591733Y-87067406D01*
X119583923Y-87068434D01*
X119513774Y-87057494D01*
X119460677Y-87010365D01*
X119441488Y-86942010D01*
X119442557Y-86927066D01*
X119458207Y-86808188D01*
X119459285Y-86800000D01*
X119455161Y-86768674D01*
X119441306Y-86663432D01*
X119441305Y-86663430D01*
X119440228Y-86655246D01*
X119401990Y-86562932D01*
X119387515Y-86527986D01*
X119387514Y-86527984D01*
X119384355Y-86520358D01*
X119338434Y-86460512D01*
X119300501Y-86411077D01*
X119300500Y-86411076D01*
X119295474Y-86404526D01*
X119288924Y-86399500D01*
X119288921Y-86399497D01*
X119186196Y-86320673D01*
X119186194Y-86320672D01*
X119179643Y-86315645D01*
X119044754Y-86259772D01*
X118900000Y-86240715D01*
X118891812Y-86241793D01*
X118763432Y-86258694D01*
X118763430Y-86258695D01*
X118755246Y-86259772D01*
X118707430Y-86279578D01*
X118627986Y-86312485D01*
X118627984Y-86312486D01*
X118620358Y-86315645D01*
X118504526Y-86404526D01*
X118415645Y-86520358D01*
X118412486Y-86527984D01*
X118412485Y-86527986D01*
X118398010Y-86562932D01*
X118359772Y-86655246D01*
X118348848Y-86738227D01*
X118348233Y-86742895D01*
X118319511Y-86807822D01*
X118312406Y-86815544D01*
X117891465Y-87236485D01*
X117891462Y-87236489D01*
X117868674Y-87259277D01*
X117864171Y-87268115D01*
X117858546Y-87279154D01*
X117848216Y-87296011D01*
X117835095Y-87314071D01*
X117832030Y-87323504D01*
X117828199Y-87335295D01*
X117820634Y-87353561D01*
X117810502Y-87373445D01*
X117808951Y-87383238D01*
X117807011Y-87395487D01*
X117802395Y-87414713D01*
X117795500Y-87435934D01*
X117795500Y-93575062D01*
X117775498Y-93643183D01*
X117721842Y-93689676D01*
X117651568Y-93699780D01*
X117621282Y-93691471D01*
X117552383Y-93662932D01*
X117544754Y-93659772D01*
X117457103Y-93648233D01*
X117392177Y-93619511D01*
X117384455Y-93612406D01*
X114363523Y-90591473D01*
X114363515Y-90591465D01*
X114363511Y-90591462D01*
X114340723Y-90568674D01*
X114320844Y-90558545D01*
X114303989Y-90548216D01*
X114293953Y-90540925D01*
X114285929Y-90535095D01*
X114264704Y-90528199D01*
X114246438Y-90520633D01*
X114226555Y-90510502D01*
X114204513Y-90507011D01*
X114185287Y-90502395D01*
X114173500Y-90498565D01*
X114173498Y-90498565D01*
X114164066Y-90495500D01*
X108426482Y-90495500D01*
X108358361Y-90475498D01*
X108349778Y-90469462D01*
X108286196Y-90420673D01*
X108286194Y-90420672D01*
X108279643Y-90415645D01*
X108144754Y-90359772D01*
X108000000Y-90340715D01*
X107991812Y-90341793D01*
X107863432Y-90358694D01*
X107863430Y-90358695D01*
X107855246Y-90359772D01*
X107807430Y-90379578D01*
X107727986Y-90412485D01*
X107727984Y-90412486D01*
X107720358Y-90415645D01*
X107650222Y-90469462D01*
X107612295Y-90498565D01*
X107604526Y-90504526D01*
X107599503Y-90511072D01*
X107586361Y-90528199D01*
X107515645Y-90620358D01*
X107512486Y-90627984D01*
X107512485Y-90627986D01*
X107484622Y-90695254D01*
X107459772Y-90755246D01*
X107440715Y-90900000D01*
X107441793Y-90908188D01*
X107457474Y-91027297D01*
X107459772Y-91044754D01*
X107462931Y-91052380D01*
X107497276Y-91135295D01*
X107515645Y-91179642D01*
X107604526Y-91295474D01*
X107611076Y-91300500D01*
X107611079Y-91300503D01*
X107687685Y-91359285D01*
X107720357Y-91384355D01*
X107855246Y-91440228D01*
X108000000Y-91459285D01*
X108008188Y-91458207D01*
X108136566Y-91441306D01*
X108144754Y-91440228D01*
X108279643Y-91384355D01*
X108313720Y-91358207D01*
X108349778Y-91330538D01*
X108415998Y-91304937D01*
X108426482Y-91304500D01*
X113880260Y-91304500D01*
X113948381Y-91324502D01*
X113969355Y-91341405D01*
X116812406Y-94184455D01*
X116846432Y-94246767D01*
X116848233Y-94257104D01*
X116856884Y-94322814D01*
X116859772Y-94344754D01*
X116862931Y-94352380D01*
X116905024Y-94454000D01*
X116915645Y-94479642D01*
X116920672Y-94486193D01*
X116988434Y-94574502D01*
X117004526Y-94595474D01*
X117011076Y-94600500D01*
X117011079Y-94600503D01*
X117015066Y-94603562D01*
X117120357Y-94684355D01*
X117255246Y-94740228D01*
X117400000Y-94759285D01*
X117408188Y-94758207D01*
X117536566Y-94741306D01*
X117544754Y-94740228D01*
X117621282Y-94708529D01*
X117691872Y-94700940D01*
X117755359Y-94732719D01*
X117791586Y-94793777D01*
X117795500Y-94824938D01*
X117795500Y-111964066D01*
X117798565Y-111973498D01*
X117798565Y-111973500D01*
X117802395Y-111985287D01*
X117807011Y-112004513D01*
X117810502Y-112026555D01*
X117815003Y-112035388D01*
X117820633Y-112046438D01*
X117828199Y-112064704D01*
X117835095Y-112085929D01*
X117840925Y-112093953D01*
X117848216Y-112103989D01*
X117858545Y-112120844D01*
X117868674Y-112140723D01*
X117891462Y-112163511D01*
X117891465Y-112163515D01*
X118412406Y-112684456D01*
X118446432Y-112746768D01*
X118448232Y-112757099D01*
X118458774Y-112837174D01*
X118458774Y-112837175D01*
X118459772Y-112844754D01*
X118458590Y-112844910D01*
X118457091Y-112907865D01*
X118417297Y-112966661D01*
X118352033Y-112994609D01*
X118337074Y-112995500D01*
X111019740Y-112995500D01*
X110951619Y-112975498D01*
X110930645Y-112958595D01*
X110694548Y-112722498D01*
X110660522Y-112660186D01*
X110659133Y-112622069D01*
X110658268Y-112622003D01*
X110658581Y-112617892D01*
X110659162Y-112613807D01*
X110659307Y-112600000D01*
X110640276Y-112442733D01*
X110584280Y-112294546D01*
X110512233Y-112189716D01*
X110498855Y-112170251D01*
X110498854Y-112170249D01*
X110494553Y-112163992D01*
X110483773Y-112154387D01*
X110444628Y-112119511D01*
X110376275Y-112058611D01*
X110368889Y-112054700D01*
X110242988Y-111988039D01*
X110242989Y-111988039D01*
X110236274Y-111984484D01*
X110082633Y-111945892D01*
X110075034Y-111945852D01*
X110075033Y-111945852D01*
X110009181Y-111945507D01*
X109924221Y-111945062D01*
X109916841Y-111946834D01*
X109916839Y-111946834D01*
X109777563Y-111980271D01*
X109777560Y-111980272D01*
X109770184Y-111982043D01*
X109629414Y-112054700D01*
X109510039Y-112158838D01*
X109418950Y-112288444D01*
X109361406Y-112436037D01*
X109340729Y-112593096D01*
X109343928Y-112622069D01*
X109355016Y-112722498D01*
X109358113Y-112750553D01*
X109360723Y-112757684D01*
X109360723Y-112757686D01*
X109395079Y-112851568D01*
X109412553Y-112899319D01*
X109500908Y-113030805D01*
X109618076Y-113137419D01*
X109757293Y-113213008D01*
X109910522Y-113253207D01*
X109968613Y-113254119D01*
X110032852Y-113255129D01*
X110100651Y-113276198D01*
X110119968Y-113292018D01*
X110536485Y-113708535D01*
X110536489Y-113708538D01*
X110559277Y-113731326D01*
X110579154Y-113741454D01*
X110596011Y-113751784D01*
X110614071Y-113764905D01*
X110623504Y-113767970D01*
X110635295Y-113771801D01*
X110653561Y-113779366D01*
X110673445Y-113789498D01*
X110683238Y-113791049D01*
X110695487Y-113792989D01*
X110714713Y-113797605D01*
X110726500Y-113801435D01*
X110726502Y-113801435D01*
X110735934Y-113804500D01*
X113785514Y-113804500D01*
X113853635Y-113824502D01*
X113900128Y-113878158D01*
X113910232Y-113948432D01*
X113892774Y-113996616D01*
X113862184Y-114046243D01*
X113856037Y-114059424D01*
X113804862Y-114213710D01*
X113801995Y-114227086D01*
X113792328Y-114321438D01*
X113792000Y-114327855D01*
X113792000Y-114727885D01*
X113796475Y-114743124D01*
X113797865Y-114744329D01*
X113805548Y-114746000D01*
X115028000Y-114746000D01*
X115096121Y-114766002D01*
X115142614Y-114819658D01*
X115154000Y-114872000D01*
X115154000Y-116364884D01*
X115158475Y-116380123D01*
X115159865Y-116381328D01*
X115167548Y-116382999D01*
X115297095Y-116382999D01*
X115303614Y-116382662D01*
X115399206Y-116372743D01*
X115412600Y-116369851D01*
X115566784Y-116318412D01*
X115579962Y-116312239D01*
X115717807Y-116226937D01*
X115729208Y-116217901D01*
X115843739Y-116103171D01*
X115852751Y-116091760D01*
X115937816Y-115953757D01*
X115943964Y-115940574D01*
X115985328Y-115815865D01*
X116025759Y-115757505D01*
X116091323Y-115730268D01*
X116161204Y-115742801D01*
X116206272Y-115784484D01*
X116207711Y-115783392D01*
X116211835Y-115788825D01*
X116215351Y-115794677D01*
X116220039Y-115799634D01*
X116220041Y-115799637D01*
X116333391Y-115919500D01*
X116342916Y-115929572D01*
X116496471Y-116033928D01*
X116502805Y-116036461D01*
X116502808Y-116036463D01*
X116662516Y-116100342D01*
X116662521Y-116100343D01*
X116668853Y-116102876D01*
X116675580Y-116103990D01*
X116675585Y-116103991D01*
X116845282Y-116132084D01*
X116845285Y-116132084D01*
X116852019Y-116133199D01*
X116858836Y-116132842D01*
X116858840Y-116132842D01*
X117009920Y-116124923D01*
X117037424Y-116123482D01*
X117043996Y-116121672D01*
X117044001Y-116121671D01*
X117209835Y-116075992D01*
X117216417Y-116074179D01*
X117380648Y-115987590D01*
X117522454Y-115867755D01*
X117574534Y-115799637D01*
X117631075Y-115725685D01*
X117631077Y-115725681D01*
X117635219Y-115720264D01*
X117644472Y-115700421D01*
X117710802Y-115558177D01*
X117710803Y-115558174D01*
X117713682Y-115552000D01*
X117754182Y-115370812D01*
X117754500Y-115365124D01*
X117754500Y-114678615D01*
X117739488Y-114540427D01*
X117698889Y-114419790D01*
X117682448Y-114370936D01*
X117682447Y-114370934D01*
X117680270Y-114364465D01*
X117584649Y-114205323D01*
X117568754Y-114188514D01*
X117461773Y-114075386D01*
X117461771Y-114075384D01*
X117457084Y-114070428D01*
X117451446Y-114066596D01*
X117451442Y-114066593D01*
X117404530Y-114034712D01*
X117359432Y-113979879D01*
X117351138Y-113909368D01*
X117382281Y-113845567D01*
X117442974Y-113808731D01*
X117475353Y-113804500D01*
X118321069Y-113804500D01*
X118389190Y-113824502D01*
X118435683Y-113878158D01*
X118445787Y-113948432D01*
X118416293Y-114013012D01*
X118402397Y-114026738D01*
X118277546Y-114132245D01*
X118273399Y-114137668D01*
X118273398Y-114137670D01*
X118168925Y-114274315D01*
X118168923Y-114274319D01*
X118164781Y-114279736D01*
X118161899Y-114285916D01*
X118161898Y-114285918D01*
X118097332Y-114424381D01*
X118086318Y-114448000D01*
X118045818Y-114629188D01*
X118045500Y-114634876D01*
X118045500Y-115321385D01*
X118060512Y-115459573D01*
X118119730Y-115635535D01*
X118215351Y-115794677D01*
X118220039Y-115799634D01*
X118220041Y-115799637D01*
X118333391Y-115919500D01*
X118342916Y-115929572D01*
X118496471Y-116033928D01*
X118502805Y-116036461D01*
X118502808Y-116036463D01*
X118662516Y-116100342D01*
X118662521Y-116100343D01*
X118668853Y-116102876D01*
X118675580Y-116103990D01*
X118675585Y-116103991D01*
X118845282Y-116132084D01*
X118845285Y-116132084D01*
X118852019Y-116133199D01*
X118858836Y-116132842D01*
X118858840Y-116132842D01*
X119009920Y-116124923D01*
X119037424Y-116123482D01*
X119043996Y-116121672D01*
X119044001Y-116121671D01*
X119209835Y-116075992D01*
X119216417Y-116074179D01*
X119380648Y-115987590D01*
X119522454Y-115867755D01*
X119574534Y-115799637D01*
X119631075Y-115725685D01*
X119631077Y-115725681D01*
X119635219Y-115720264D01*
X119644472Y-115700421D01*
X119710802Y-115558177D01*
X119710803Y-115558174D01*
X119713682Y-115552000D01*
X119754182Y-115370812D01*
X119754500Y-115365124D01*
X119754500Y-114678615D01*
X119739488Y-114540427D01*
X119698889Y-114419790D01*
X119682448Y-114370936D01*
X119682447Y-114370934D01*
X119680270Y-114364465D01*
X119584649Y-114205323D01*
X119568754Y-114188514D01*
X119461773Y-114075386D01*
X119461771Y-114075384D01*
X119457084Y-114070428D01*
X119451446Y-114066596D01*
X119451442Y-114066593D01*
X119404530Y-114034712D01*
X119359432Y-113979879D01*
X119351138Y-113909368D01*
X119382281Y-113845567D01*
X119442974Y-113808731D01*
X119475353Y-113804500D01*
X120321069Y-113804500D01*
X120389190Y-113824502D01*
X120435683Y-113878158D01*
X120445787Y-113948432D01*
X120416293Y-114013012D01*
X120402397Y-114026738D01*
X120277546Y-114132245D01*
X120273399Y-114137668D01*
X120273398Y-114137670D01*
X120168925Y-114274315D01*
X120168923Y-114274319D01*
X120164781Y-114279736D01*
X120161899Y-114285916D01*
X120161898Y-114285918D01*
X120097332Y-114424381D01*
X120086318Y-114448000D01*
X120045818Y-114629188D01*
X120045500Y-114634876D01*
X120045500Y-115321385D01*
X120060512Y-115459573D01*
X120119730Y-115635535D01*
X120215351Y-115794677D01*
X120220039Y-115799634D01*
X120220041Y-115799637D01*
X120333391Y-115919500D01*
X120342916Y-115929572D01*
X120496471Y-116033928D01*
X120502805Y-116036461D01*
X120502808Y-116036463D01*
X120662516Y-116100342D01*
X120662521Y-116100343D01*
X120668853Y-116102876D01*
X120675580Y-116103990D01*
X120675585Y-116103991D01*
X120845282Y-116132084D01*
X120845285Y-116132084D01*
X120852019Y-116133199D01*
X120858836Y-116132842D01*
X120858840Y-116132842D01*
X121009920Y-116124923D01*
X121037424Y-116123482D01*
X121043996Y-116121672D01*
X121044001Y-116121671D01*
X121209835Y-116075992D01*
X121216417Y-116074179D01*
X121380648Y-115987590D01*
X121522454Y-115867755D01*
X121574534Y-115799637D01*
X121631075Y-115725685D01*
X121631077Y-115725681D01*
X121635219Y-115720264D01*
X121644472Y-115700421D01*
X121710802Y-115558177D01*
X121710803Y-115558174D01*
X121713682Y-115552000D01*
X121754182Y-115370812D01*
X121754500Y-115365124D01*
X121754500Y-114678615D01*
X121739488Y-114540427D01*
X121698889Y-114419790D01*
X121682448Y-114370936D01*
X121682447Y-114370934D01*
X121680270Y-114364465D01*
X121584649Y-114205323D01*
X121568754Y-114188514D01*
X121461773Y-114075386D01*
X121461771Y-114075384D01*
X121457084Y-114070428D01*
X121451446Y-114066596D01*
X121451442Y-114066593D01*
X121404530Y-114034712D01*
X121359432Y-113979879D01*
X121351138Y-113909368D01*
X121382281Y-113845567D01*
X121442974Y-113808731D01*
X121475353Y-113804500D01*
X122321069Y-113804500D01*
X122389190Y-113824502D01*
X122435683Y-113878158D01*
X122445787Y-113948432D01*
X122416293Y-114013012D01*
X122402397Y-114026738D01*
X122277546Y-114132245D01*
X122273399Y-114137668D01*
X122273398Y-114137670D01*
X122168925Y-114274315D01*
X122168923Y-114274319D01*
X122164781Y-114279736D01*
X122161899Y-114285916D01*
X122161898Y-114285918D01*
X122097332Y-114424381D01*
X122086318Y-114448000D01*
X122045818Y-114629188D01*
X122045500Y-114634876D01*
X122045500Y-115321385D01*
X122060512Y-115459573D01*
X122119730Y-115635535D01*
X122215351Y-115794677D01*
X122220039Y-115799634D01*
X122220041Y-115799637D01*
X122333391Y-115919500D01*
X122342916Y-115929572D01*
X122496471Y-116033928D01*
X122502805Y-116036461D01*
X122502808Y-116036463D01*
X122662516Y-116100342D01*
X122662521Y-116100343D01*
X122668853Y-116102876D01*
X122675580Y-116103990D01*
X122675585Y-116103991D01*
X122845282Y-116132084D01*
X122845285Y-116132084D01*
X122852019Y-116133199D01*
X122858836Y-116132842D01*
X122858840Y-116132842D01*
X123009920Y-116124923D01*
X123037424Y-116123482D01*
X123043996Y-116121672D01*
X123044001Y-116121671D01*
X123209835Y-116075992D01*
X123216417Y-116074179D01*
X123380648Y-115987590D01*
X123522454Y-115867755D01*
X123574534Y-115799637D01*
X123631075Y-115725685D01*
X123631077Y-115725681D01*
X123635219Y-115720264D01*
X123644472Y-115700421D01*
X123710802Y-115558177D01*
X123710803Y-115558174D01*
X123713682Y-115552000D01*
X123754182Y-115370812D01*
X123754500Y-115365124D01*
X123754500Y-114678615D01*
X123739488Y-114540427D01*
X123698889Y-114419790D01*
X123682448Y-114370936D01*
X123682447Y-114370934D01*
X123680270Y-114364465D01*
X123584649Y-114205323D01*
X123568754Y-114188514D01*
X123461773Y-114075386D01*
X123461771Y-114075384D01*
X123457084Y-114070428D01*
X123451446Y-114066596D01*
X123451442Y-114066593D01*
X123404530Y-114034712D01*
X123359432Y-113979879D01*
X123351138Y-113909368D01*
X123382281Y-113845567D01*
X123442974Y-113808731D01*
X123475353Y-113804500D01*
X124321069Y-113804500D01*
X124389190Y-113824502D01*
X124435683Y-113878158D01*
X124445787Y-113948432D01*
X124416293Y-114013012D01*
X124402397Y-114026738D01*
X124277546Y-114132245D01*
X124273399Y-114137668D01*
X124273398Y-114137670D01*
X124168925Y-114274315D01*
X124168923Y-114274319D01*
X124164781Y-114279736D01*
X124161899Y-114285916D01*
X124161898Y-114285918D01*
X124097332Y-114424381D01*
X124086318Y-114448000D01*
X124045818Y-114629188D01*
X124045500Y-114634876D01*
X124045500Y-115321385D01*
X124060512Y-115459573D01*
X124119730Y-115635535D01*
X124123247Y-115641388D01*
X124127504Y-115648473D01*
X124145500Y-115713366D01*
X124145500Y-115933235D01*
X124144067Y-115952184D01*
X124140826Y-115973489D01*
X124141419Y-115980780D01*
X124141419Y-115980783D01*
X124145085Y-116025848D01*
X124145500Y-116036063D01*
X124145500Y-116044053D01*
X124145925Y-116047697D01*
X124148771Y-116072113D01*
X124149204Y-116076487D01*
X124153727Y-116132084D01*
X124155090Y-116148847D01*
X124157345Y-116155809D01*
X124158518Y-116161677D01*
X124159890Y-116167484D01*
X124160738Y-116174754D01*
X124185532Y-116243060D01*
X124186940Y-116247163D01*
X124209312Y-116316222D01*
X124213109Y-116322479D01*
X124215602Y-116327926D01*
X124218270Y-116333254D01*
X124220768Y-116340134D01*
X124248872Y-116383000D01*
X124260568Y-116400839D01*
X124262915Y-116404559D01*
X124300583Y-116466633D01*
X124304295Y-116470836D01*
X124307949Y-116474974D01*
X124307924Y-116474996D01*
X124310624Y-116478041D01*
X124313220Y-116481146D01*
X124317234Y-116487268D01*
X124322547Y-116492301D01*
X124373108Y-116540198D01*
X124375550Y-116542575D01*
X125119279Y-117286303D01*
X125131666Y-117300717D01*
X125144437Y-117318071D01*
X125153369Y-117325659D01*
X125184479Y-117352089D01*
X125191995Y-117359019D01*
X125197638Y-117364662D01*
X125219798Y-117382194D01*
X125223173Y-117384961D01*
X125278520Y-117431982D01*
X125285040Y-117435311D01*
X125290018Y-117438631D01*
X125295091Y-117441764D01*
X125300833Y-117446307D01*
X125307467Y-117449407D01*
X125307466Y-117449407D01*
X125366617Y-117477053D01*
X125370567Y-117478984D01*
X125425988Y-117507283D01*
X125477561Y-117556076D01*
X125494568Y-117625005D01*
X125471608Y-117692187D01*
X125415972Y-117736291D01*
X125368688Y-117745500D01*
X98380500Y-117745500D01*
X98312379Y-117725498D01*
X98265886Y-117671842D01*
X98254500Y-117619500D01*
X98254500Y-115672095D01*
X113792001Y-115672095D01*
X113792338Y-115678614D01*
X113802257Y-115774206D01*
X113805149Y-115787600D01*
X113856588Y-115941784D01*
X113862761Y-115954962D01*
X113948063Y-116092807D01*
X113957099Y-116104208D01*
X114071829Y-116218739D01*
X114083240Y-116227751D01*
X114221243Y-116312816D01*
X114234424Y-116318963D01*
X114388710Y-116370138D01*
X114402086Y-116373005D01*
X114496438Y-116382672D01*
X114502854Y-116383000D01*
X114627885Y-116383000D01*
X114643124Y-116378525D01*
X114644329Y-116377135D01*
X114646000Y-116369452D01*
X114646000Y-115272115D01*
X114641525Y-115256876D01*
X114640135Y-115255671D01*
X114632452Y-115254000D01*
X113810116Y-115254000D01*
X113794877Y-115258475D01*
X113793672Y-115259865D01*
X113792001Y-115267548D01*
X113792001Y-115672095D01*
X98254500Y-115672095D01*
X98254500Y-109367399D01*
X99699712Y-109367399D01*
X99721194Y-109456537D01*
X99725083Y-109467832D01*
X99807627Y-109649379D01*
X99813576Y-109659724D01*
X99928968Y-109822397D01*
X99936761Y-109831425D01*
X100080831Y-109969342D01*
X100090196Y-109976738D01*
X100257741Y-110084921D01*
X100268345Y-110090417D01*
X100453312Y-110164961D01*
X100464770Y-110168355D01*
X100661928Y-110206857D01*
X100670791Y-110207934D01*
X100673500Y-110208000D01*
X100777885Y-110208000D01*
X100793124Y-110203525D01*
X100794329Y-110202135D01*
X100796000Y-110194452D01*
X100796000Y-110189885D01*
X101304000Y-110189885D01*
X101308475Y-110205124D01*
X101309865Y-110206329D01*
X101317548Y-110208000D01*
X101374832Y-110208000D01*
X101380808Y-110207715D01*
X101529494Y-110193529D01*
X101541228Y-110191270D01*
X101732599Y-110135128D01*
X101743675Y-110130698D01*
X101920978Y-110039381D01*
X101931024Y-110032931D01*
X102087857Y-109909738D01*
X102096506Y-109901501D01*
X102227212Y-109750877D01*
X102234147Y-109741153D01*
X102334010Y-109568533D01*
X102338984Y-109557669D01*
X102404407Y-109369273D01*
X102404648Y-109368284D01*
X102403180Y-109357992D01*
X102389615Y-109354000D01*
X101322115Y-109354000D01*
X101306876Y-109358475D01*
X101305671Y-109359865D01*
X101304000Y-109367548D01*
X101304000Y-110189885D01*
X100796000Y-110189885D01*
X100796000Y-109372115D01*
X100791525Y-109356876D01*
X100790135Y-109355671D01*
X100782452Y-109354000D01*
X99714598Y-109354000D01*
X99701067Y-109357973D01*
X99699712Y-109367399D01*
X98254500Y-109367399D01*
X98254500Y-109135964D01*
X106716148Y-109135964D01*
X106729424Y-109338522D01*
X106730845Y-109344118D01*
X106730846Y-109344123D01*
X106773467Y-109511941D01*
X106779392Y-109535269D01*
X106781809Y-109540512D01*
X106818905Y-109620980D01*
X106864377Y-109719616D01*
X106867710Y-109724332D01*
X106934469Y-109818794D01*
X106981533Y-109885389D01*
X106985675Y-109889424D01*
X107006528Y-109909738D01*
X107126938Y-110027035D01*
X107295720Y-110139812D01*
X107301023Y-110142090D01*
X107301026Y-110142092D01*
X107460274Y-110210510D01*
X107482228Y-110219942D01*
X107542075Y-110233484D01*
X107674579Y-110263467D01*
X107674584Y-110263468D01*
X107680216Y-110264742D01*
X107685987Y-110264969D01*
X107685989Y-110264969D01*
X107745756Y-110267317D01*
X107883053Y-110272712D01*
X107996817Y-110256217D01*
X108078231Y-110244413D01*
X108078236Y-110244412D01*
X108083945Y-110243584D01*
X108089409Y-110241729D01*
X108089414Y-110241728D01*
X108270693Y-110180192D01*
X108270698Y-110180190D01*
X108276165Y-110178334D01*
X108453276Y-110079147D01*
X108465625Y-110068877D01*
X108585301Y-109969342D01*
X108609345Y-109949345D01*
X108674488Y-109871020D01*
X108735453Y-109797718D01*
X108735455Y-109797715D01*
X108739147Y-109793276D01*
X108826538Y-109637229D01*
X108835510Y-109621208D01*
X108835511Y-109621206D01*
X108838334Y-109616165D01*
X108840720Y-109609135D01*
X108841170Y-109608496D01*
X108842541Y-109605416D01*
X108843146Y-109605685D01*
X108881553Y-109551059D01*
X108947305Y-109524278D01*
X109017098Y-109537295D01*
X109068773Y-109585980D01*
X109076777Y-109602229D01*
X109146770Y-109774603D01*
X109151413Y-109783794D01*
X109262694Y-109965388D01*
X109268777Y-109973699D01*
X109408213Y-110134667D01*
X109415580Y-110141883D01*
X109579434Y-110277916D01*
X109587881Y-110283831D01*
X109771756Y-110391279D01*
X109781042Y-110395729D01*
X109980001Y-110471703D01*
X109989899Y-110474579D01*
X110093250Y-110495606D01*
X110107299Y-110494410D01*
X110111000Y-110484065D01*
X110111000Y-110483517D01*
X110619000Y-110483517D01*
X110623064Y-110497359D01*
X110636478Y-110499393D01*
X110643184Y-110498534D01*
X110653262Y-110496392D01*
X110857255Y-110435191D01*
X110866842Y-110431433D01*
X111058095Y-110337739D01*
X111066945Y-110332464D01*
X111240328Y-110208792D01*
X111248200Y-110202139D01*
X111399052Y-110051812D01*
X111405730Y-110043965D01*
X111530003Y-109871020D01*
X111535313Y-109862183D01*
X111629670Y-109671267D01*
X111633469Y-109661672D01*
X111695377Y-109457910D01*
X111697555Y-109447837D01*
X111698986Y-109436962D01*
X111696775Y-109422778D01*
X111683617Y-109419000D01*
X110637115Y-109419000D01*
X110621876Y-109423475D01*
X110620671Y-109424865D01*
X110619000Y-109432548D01*
X110619000Y-110483517D01*
X110111000Y-110483517D01*
X110111000Y-109037000D01*
X110131002Y-108968879D01*
X110184658Y-108922386D01*
X110237000Y-108911000D01*
X111683344Y-108911000D01*
X111696875Y-108907027D01*
X111698180Y-108897947D01*
X111656214Y-108730875D01*
X111652894Y-108721124D01*
X111567972Y-108525814D01*
X111563105Y-108516739D01*
X111447426Y-108337926D01*
X111441136Y-108329757D01*
X111297806Y-108172240D01*
X111290273Y-108165215D01*
X111123139Y-108033222D01*
X111114552Y-108027517D01*
X110928117Y-107924599D01*
X110918705Y-107920369D01*
X110804391Y-107879888D01*
X110746855Y-107838294D01*
X110720939Y-107772196D01*
X110734873Y-107702580D01*
X110784232Y-107651549D01*
X110805943Y-107641804D01*
X110816165Y-107638334D01*
X110993276Y-107539147D01*
X111009992Y-107525245D01*
X111144913Y-107413031D01*
X111149345Y-107409345D01*
X111229871Y-107312524D01*
X111275453Y-107257718D01*
X111275455Y-107257715D01*
X111279147Y-107253276D01*
X111378334Y-107076165D01*
X111380190Y-107070698D01*
X111380192Y-107070693D01*
X111441728Y-106889414D01*
X111441729Y-106889409D01*
X111443584Y-106883945D01*
X111444412Y-106878236D01*
X111444413Y-106878231D01*
X111462595Y-106752827D01*
X111472712Y-106683053D01*
X111474232Y-106625000D01*
X111461162Y-106482760D01*
X111456187Y-106428613D01*
X111456186Y-106428610D01*
X111455658Y-106422859D01*
X111449783Y-106402027D01*
X111402125Y-106233046D01*
X111402124Y-106233044D01*
X111400557Y-106227487D01*
X111394954Y-106216124D01*
X111313331Y-106050609D01*
X111310776Y-106045428D01*
X111189320Y-105882779D01*
X111040258Y-105744987D01*
X111035375Y-105741906D01*
X111035371Y-105741903D01*
X110873464Y-105639748D01*
X110868581Y-105636667D01*
X110680039Y-105561446D01*
X110674379Y-105560320D01*
X110674375Y-105560319D01*
X110486613Y-105522971D01*
X110486610Y-105522971D01*
X110480946Y-105521844D01*
X110475171Y-105521768D01*
X110475167Y-105521768D01*
X110373793Y-105520441D01*
X110277971Y-105519187D01*
X110272274Y-105520166D01*
X110272273Y-105520166D01*
X110184397Y-105535266D01*
X110077910Y-105553564D01*
X109887463Y-105623824D01*
X109713010Y-105727612D01*
X109708670Y-105731418D01*
X109708666Y-105731421D01*
X109594159Y-105831842D01*
X109560392Y-105861455D01*
X109434720Y-106020869D01*
X109432031Y-106025980D01*
X109432029Y-106025983D01*
X109416305Y-106055869D01*
X109340203Y-106200515D01*
X109280007Y-106394378D01*
X109256148Y-106595964D01*
X109269424Y-106798522D01*
X109270845Y-106804118D01*
X109270846Y-106804123D01*
X109312733Y-106969050D01*
X109319392Y-106995269D01*
X109321809Y-107000512D01*
X109358905Y-107080980D01*
X109404377Y-107179616D01*
X109407710Y-107184332D01*
X109474469Y-107278794D01*
X109521533Y-107345389D01*
X109525675Y-107349424D01*
X109552617Y-107375669D01*
X109666938Y-107487035D01*
X109835720Y-107599812D01*
X109841023Y-107602090D01*
X109841026Y-107602092D01*
X109937954Y-107643735D01*
X109992647Y-107689003D01*
X110014184Y-107756654D01*
X109995727Y-107825210D01*
X109943136Y-107872904D01*
X109927361Y-107879268D01*
X109841868Y-107907212D01*
X109832359Y-107911209D01*
X109643463Y-108009542D01*
X109634738Y-108015036D01*
X109464433Y-108142905D01*
X109456726Y-108149748D01*
X109309590Y-108303717D01*
X109303104Y-108311727D01*
X109183098Y-108487649D01*
X109178000Y-108496623D01*
X109088338Y-108689783D01*
X109084777Y-108699464D01*
X109080291Y-108715640D01*
X109042813Y-108775939D01*
X108978684Y-108806403D01*
X108908266Y-108797360D01*
X108853915Y-108751682D01*
X108845867Y-108737698D01*
X108773331Y-108590609D01*
X108770776Y-108585428D01*
X108649320Y-108422779D01*
X108500258Y-108284987D01*
X108495375Y-108281906D01*
X108495371Y-108281903D01*
X108333464Y-108179748D01*
X108328581Y-108176667D01*
X108140039Y-108101446D01*
X108134379Y-108100320D01*
X108134375Y-108100319D01*
X107946613Y-108062971D01*
X107946610Y-108062971D01*
X107940946Y-108061844D01*
X107935171Y-108061768D01*
X107935167Y-108061768D01*
X107833793Y-108060441D01*
X107737971Y-108059187D01*
X107732274Y-108060166D01*
X107732273Y-108060166D01*
X107671604Y-108070591D01*
X107537910Y-108093564D01*
X107347463Y-108163824D01*
X107173010Y-108267612D01*
X107168670Y-108271418D01*
X107168666Y-108271421D01*
X107082797Y-108346727D01*
X107020392Y-108401455D01*
X106894720Y-108560869D01*
X106892031Y-108565980D01*
X106892029Y-108565983D01*
X106876305Y-108595869D01*
X106800203Y-108740515D01*
X106740007Y-108934378D01*
X106716148Y-109135964D01*
X98254500Y-109135964D01*
X98254500Y-108831716D01*
X99695352Y-108831716D01*
X99696820Y-108842008D01*
X99710385Y-108846000D01*
X102385402Y-108846000D01*
X102398933Y-108842027D01*
X102400288Y-108832601D01*
X102378806Y-108743463D01*
X102374917Y-108732168D01*
X102292371Y-108550618D01*
X102286424Y-108540276D01*
X102171032Y-108377603D01*
X102163239Y-108368575D01*
X102019169Y-108230658D01*
X102009804Y-108223262D01*
X101842259Y-108115079D01*
X101831655Y-108109583D01*
X101750421Y-108076845D01*
X101694715Y-108032830D01*
X101671648Y-107965685D01*
X101688545Y-107896729D01*
X101732625Y-107851976D01*
X101838825Y-107788165D01*
X101844677Y-107784649D01*
X101849634Y-107779961D01*
X101849637Y-107779959D01*
X101974614Y-107661773D01*
X101974616Y-107661771D01*
X101979572Y-107657084D01*
X102083928Y-107503529D01*
X102086463Y-107497192D01*
X102150342Y-107337484D01*
X102150343Y-107337479D01*
X102152876Y-107331147D01*
X102153990Y-107324420D01*
X102153991Y-107324415D01*
X102182084Y-107154718D01*
X102182084Y-107154715D01*
X102183199Y-107147981D01*
X102181270Y-107111165D01*
X102173839Y-106969389D01*
X102173482Y-106962576D01*
X102171672Y-106956004D01*
X102171671Y-106955999D01*
X102125992Y-106790165D01*
X102124179Y-106783583D01*
X102037590Y-106619352D01*
X101917755Y-106477546D01*
X101902987Y-106466255D01*
X101775685Y-106368925D01*
X101775681Y-106368923D01*
X101770264Y-106364781D01*
X101764084Y-106361899D01*
X101764082Y-106361898D01*
X101608177Y-106289198D01*
X101608174Y-106289197D01*
X101602000Y-106286318D01*
X101595352Y-106284832D01*
X101595349Y-106284831D01*
X101425849Y-106246944D01*
X101425850Y-106246944D01*
X101420812Y-106245818D01*
X101415124Y-106245500D01*
X100728615Y-106245500D01*
X100590427Y-106260512D01*
X100505189Y-106289198D01*
X100420936Y-106317552D01*
X100420934Y-106317553D01*
X100414465Y-106319730D01*
X100255323Y-106415351D01*
X100250366Y-106420039D01*
X100250363Y-106420041D01*
X100125386Y-106538227D01*
X100120428Y-106542916D01*
X100016072Y-106696471D01*
X100013539Y-106702805D01*
X100013537Y-106702808D01*
X99949658Y-106862516D01*
X99949657Y-106862521D01*
X99947124Y-106868853D01*
X99946010Y-106875580D01*
X99946009Y-106875585D01*
X99917916Y-107045282D01*
X99916801Y-107052019D01*
X99917158Y-107058836D01*
X99917158Y-107058840D01*
X99919499Y-107103496D01*
X99926518Y-107237424D01*
X99928328Y-107243996D01*
X99928329Y-107244001D01*
X99961939Y-107366020D01*
X99975821Y-107416417D01*
X100062410Y-107580648D01*
X100182245Y-107722454D01*
X100187668Y-107726601D01*
X100187670Y-107726602D01*
X100324315Y-107831075D01*
X100324319Y-107831077D01*
X100329736Y-107835219D01*
X100340019Y-107840014D01*
X100349383Y-107844381D01*
X100402667Y-107891299D01*
X100422127Y-107959577D01*
X100401584Y-108027536D01*
X100353823Y-108070591D01*
X100179022Y-108160619D01*
X100168976Y-108167069D01*
X100012143Y-108290262D01*
X100003494Y-108298499D01*
X99872788Y-108449123D01*
X99865853Y-108458847D01*
X99765990Y-108631467D01*
X99761016Y-108642331D01*
X99695593Y-108830727D01*
X99695352Y-108831716D01*
X98254500Y-108831716D01*
X98254500Y-105052019D01*
X99916801Y-105052019D01*
X99926518Y-105237424D01*
X99928328Y-105243996D01*
X99928329Y-105244001D01*
X99955951Y-105344280D01*
X99975821Y-105416417D01*
X100062410Y-105580648D01*
X100182245Y-105722454D01*
X100187668Y-105726601D01*
X100187670Y-105726602D01*
X100324315Y-105831075D01*
X100324319Y-105831077D01*
X100329736Y-105835219D01*
X100335916Y-105838101D01*
X100335918Y-105838102D01*
X100491823Y-105910802D01*
X100491826Y-105910803D01*
X100498000Y-105913682D01*
X100504648Y-105915168D01*
X100504651Y-105915169D01*
X100603711Y-105937311D01*
X100679188Y-105954182D01*
X100684876Y-105954500D01*
X101371385Y-105954500D01*
X101509573Y-105939488D01*
X101630210Y-105898889D01*
X101679064Y-105882448D01*
X101679066Y-105882447D01*
X101685535Y-105880270D01*
X101844677Y-105784649D01*
X101849634Y-105779961D01*
X101849637Y-105779959D01*
X101881388Y-105749933D01*
X106720500Y-105749933D01*
X106720501Y-107500066D01*
X106724871Y-107522035D01*
X106729799Y-107546812D01*
X106735266Y-107574301D01*
X106742161Y-107584620D01*
X106742162Y-107584622D01*
X106772261Y-107629667D01*
X106791516Y-107658484D01*
X106875699Y-107714734D01*
X106949933Y-107729500D01*
X107824858Y-107729500D01*
X108700066Y-107729499D01*
X108735818Y-107722388D01*
X108762126Y-107717156D01*
X108762128Y-107717155D01*
X108774301Y-107714734D01*
X108784621Y-107707839D01*
X108784622Y-107707838D01*
X108848168Y-107665377D01*
X108858484Y-107658484D01*
X108914734Y-107574301D01*
X108929500Y-107500067D01*
X108929499Y-105749934D01*
X108914734Y-105675699D01*
X108903459Y-105658824D01*
X108865377Y-105601832D01*
X108858484Y-105591516D01*
X108774301Y-105535266D01*
X108700067Y-105520500D01*
X107825142Y-105520500D01*
X106949934Y-105520501D01*
X106914182Y-105527612D01*
X106887874Y-105532844D01*
X106887872Y-105532845D01*
X106875699Y-105535266D01*
X106865379Y-105542161D01*
X106865378Y-105542162D01*
X106816822Y-105574607D01*
X106791516Y-105591516D01*
X106735266Y-105675699D01*
X106720500Y-105749933D01*
X101881388Y-105749933D01*
X101974614Y-105661773D01*
X101974616Y-105661771D01*
X101979572Y-105657084D01*
X102083928Y-105503529D01*
X102117498Y-105419599D01*
X102150342Y-105337484D01*
X102150343Y-105337479D01*
X102152876Y-105331147D01*
X102153990Y-105324420D01*
X102153991Y-105324415D01*
X102182084Y-105154718D01*
X102182084Y-105154715D01*
X102183199Y-105147981D01*
X102173482Y-104962576D01*
X102171672Y-104956004D01*
X102171671Y-104955999D01*
X102125992Y-104790165D01*
X102124179Y-104783583D01*
X102037590Y-104619352D01*
X101917755Y-104477546D01*
X101912330Y-104473398D01*
X101775685Y-104368925D01*
X101775681Y-104368923D01*
X101770264Y-104364781D01*
X101764084Y-104361899D01*
X101764082Y-104361898D01*
X101608177Y-104289198D01*
X101608174Y-104289197D01*
X101602000Y-104286318D01*
X101595352Y-104284832D01*
X101595349Y-104284831D01*
X101425849Y-104246944D01*
X101425850Y-104246944D01*
X101420812Y-104245818D01*
X101415124Y-104245500D01*
X100728615Y-104245500D01*
X100590427Y-104260512D01*
X100505189Y-104289198D01*
X100420936Y-104317552D01*
X100420934Y-104317553D01*
X100414465Y-104319730D01*
X100255323Y-104415351D01*
X100250366Y-104420039D01*
X100250363Y-104420041D01*
X100164929Y-104500833D01*
X100120428Y-104542916D01*
X100016072Y-104696471D01*
X100013539Y-104702805D01*
X100013537Y-104702808D01*
X99949658Y-104862516D01*
X99949657Y-104862521D01*
X99947124Y-104868853D01*
X99946010Y-104875580D01*
X99946009Y-104875585D01*
X99932697Y-104955999D01*
X99916801Y-105052019D01*
X98254500Y-105052019D01*
X98254500Y-103497756D01*
X99920500Y-103497756D01*
X99927202Y-103559448D01*
X99977929Y-103694764D01*
X99983309Y-103701943D01*
X99983311Y-103701946D01*
X100035824Y-103772014D01*
X100064596Y-103810404D01*
X100071776Y-103815785D01*
X100173054Y-103891689D01*
X100173057Y-103891691D01*
X100180236Y-103897071D01*
X100269954Y-103930704D01*
X100308157Y-103945026D01*
X100308159Y-103945026D01*
X100315552Y-103947798D01*
X100323402Y-103948651D01*
X100323403Y-103948651D01*
X100373847Y-103954131D01*
X100377244Y-103954500D01*
X101722756Y-103954500D01*
X101726153Y-103954131D01*
X101776597Y-103948651D01*
X101776598Y-103948651D01*
X101784448Y-103947798D01*
X101791841Y-103945026D01*
X101791843Y-103945026D01*
X101830046Y-103930704D01*
X101919764Y-103897071D01*
X101926943Y-103891691D01*
X101926946Y-103891689D01*
X102028224Y-103815785D01*
X102035404Y-103810404D01*
X102064176Y-103772014D01*
X102116689Y-103701946D01*
X102116691Y-103701943D01*
X102122071Y-103694764D01*
X102172798Y-103559448D01*
X102179500Y-103497756D01*
X102179500Y-102702244D01*
X102172798Y-102640552D01*
X102122071Y-102505236D01*
X102116691Y-102498057D01*
X102116689Y-102498054D01*
X102040785Y-102396776D01*
X102035404Y-102389596D01*
X101992430Y-102357389D01*
X101926946Y-102308311D01*
X101926943Y-102308309D01*
X101919764Y-102302929D01*
X101830046Y-102269296D01*
X101791843Y-102254974D01*
X101791841Y-102254974D01*
X101784448Y-102252202D01*
X101776598Y-102251349D01*
X101776597Y-102251349D01*
X101726153Y-102245869D01*
X101726152Y-102245869D01*
X101722756Y-102245500D01*
X100377244Y-102245500D01*
X100373848Y-102245869D01*
X100373847Y-102245869D01*
X100323403Y-102251349D01*
X100323402Y-102251349D01*
X100315552Y-102252202D01*
X100308159Y-102254974D01*
X100308157Y-102254974D01*
X100269954Y-102269296D01*
X100180236Y-102302929D01*
X100173057Y-102308309D01*
X100173054Y-102308311D01*
X100107570Y-102357389D01*
X100064596Y-102389596D01*
X100059215Y-102396776D01*
X99983311Y-102498054D01*
X99983309Y-102498057D01*
X99977929Y-102505236D01*
X99927202Y-102640552D01*
X99920500Y-102702244D01*
X99920500Y-103497756D01*
X98254500Y-103497756D01*
X98254500Y-98086624D01*
X98274502Y-98018503D01*
X98328158Y-97972010D01*
X98398432Y-97961906D01*
X98463012Y-97991400D01*
X98488219Y-98021258D01*
X98500583Y-98041633D01*
X98504295Y-98045836D01*
X98507949Y-98049974D01*
X98507924Y-98049996D01*
X98510624Y-98053041D01*
X98513220Y-98056146D01*
X98517234Y-98062268D01*
X98522547Y-98067301D01*
X98573108Y-98115198D01*
X98575550Y-98117575D01*
X99144279Y-98686303D01*
X99156666Y-98700717D01*
X99165099Y-98712177D01*
X99165102Y-98712180D01*
X99169437Y-98718071D01*
X99209481Y-98752091D01*
X99216981Y-98759006D01*
X99220048Y-98762073D01*
X99220055Y-98762079D01*
X99222638Y-98764662D01*
X99244822Y-98782214D01*
X99248196Y-98784981D01*
X99303520Y-98831982D01*
X99310039Y-98835311D01*
X99315013Y-98838628D01*
X99320089Y-98841763D01*
X99325832Y-98846307D01*
X99332464Y-98849406D01*
X99332463Y-98849406D01*
X99391618Y-98877053D01*
X99395570Y-98878985D01*
X99460212Y-98911993D01*
X99467320Y-98913732D01*
X99472918Y-98915814D01*
X99478591Y-98917701D01*
X99485221Y-98920800D01*
X99556307Y-98935586D01*
X99560591Y-98936556D01*
X99631108Y-98953811D01*
X99636710Y-98954159D01*
X99636713Y-98954159D01*
X99642214Y-98954500D01*
X99642212Y-98954534D01*
X99646269Y-98954777D01*
X99650304Y-98955137D01*
X99657472Y-98956628D01*
X99664789Y-98956430D01*
X99734414Y-98954546D01*
X99737822Y-98954500D01*
X100343150Y-98954500D01*
X100396400Y-98966305D01*
X100491823Y-99010802D01*
X100491826Y-99010803D01*
X100498000Y-99013682D01*
X100504648Y-99015168D01*
X100504651Y-99015169D01*
X100603711Y-99037311D01*
X100679188Y-99054182D01*
X100684876Y-99054500D01*
X101371385Y-99054500D01*
X101509573Y-99039488D01*
X101630210Y-98998889D01*
X101679064Y-98982448D01*
X101679066Y-98982447D01*
X101685535Y-98980270D01*
X101698473Y-98972496D01*
X101763366Y-98954500D01*
X107035285Y-98954500D01*
X107103406Y-98974502D01*
X107124380Y-98991405D01*
X109807942Y-101674966D01*
X109807949Y-101674974D01*
X109846910Y-101713935D01*
X109852255Y-101719621D01*
X109892690Y-101765405D01*
X109898673Y-101769634D01*
X109898676Y-101769636D01*
X109903317Y-101772916D01*
X109919693Y-101786718D01*
X112675892Y-104542916D01*
X115408595Y-107275619D01*
X115442621Y-107337931D01*
X115445500Y-107364714D01*
X115445500Y-108944053D01*
X115460738Y-109074754D01*
X115463234Y-109081631D01*
X115463235Y-109081634D01*
X115510581Y-109212069D01*
X115520768Y-109240134D01*
X115524778Y-109246251D01*
X115524780Y-109246254D01*
X115532516Y-109258053D01*
X115617234Y-109387268D01*
X115744960Y-109508264D01*
X115897096Y-109596632D01*
X116065480Y-109647630D01*
X116241080Y-109658524D01*
X116248296Y-109657284D01*
X116248298Y-109657284D01*
X116407262Y-109629969D01*
X116407264Y-109629968D01*
X116414477Y-109628729D01*
X116576368Y-109559844D01*
X116718071Y-109455563D01*
X116831982Y-109321480D01*
X116856032Y-109274381D01*
X116908666Y-109171305D01*
X116908668Y-109171300D01*
X116911993Y-109164788D01*
X116917636Y-109141730D01*
X116935804Y-109067482D01*
X116953811Y-108993892D01*
X116954500Y-108982786D01*
X116954500Y-107066765D01*
X116955933Y-107047815D01*
X116958074Y-107033745D01*
X116958074Y-107033741D01*
X116959174Y-107026511D01*
X116954915Y-106974152D01*
X116954500Y-106963937D01*
X116954500Y-106955947D01*
X116953655Y-106948698D01*
X116951229Y-106927887D01*
X116950796Y-106923513D01*
X116945504Y-106858451D01*
X116945503Y-106858448D01*
X116944910Y-106851153D01*
X116942655Y-106844191D01*
X116941482Y-106838323D01*
X116940110Y-106832517D01*
X116939262Y-106825246D01*
X116914478Y-106756968D01*
X116913057Y-106752827D01*
X116892946Y-106690745D01*
X116892945Y-106690742D01*
X116890689Y-106683779D01*
X116886891Y-106677520D01*
X116884397Y-106672073D01*
X116881729Y-106666746D01*
X116879232Y-106659866D01*
X116839426Y-106599152D01*
X116837079Y-106595432D01*
X116802332Y-106538170D01*
X116802329Y-106538166D01*
X116799417Y-106533367D01*
X116792051Y-106525027D01*
X116792077Y-106525004D01*
X116789377Y-106521961D01*
X116786782Y-106518857D01*
X116782766Y-106512732D01*
X116726854Y-106459766D01*
X116724413Y-106457389D01*
X111556119Y-101289095D01*
X111522093Y-101226783D01*
X111527158Y-101155968D01*
X111556119Y-101110905D01*
X112615323Y-100051702D01*
X113748804Y-98918221D01*
X113763206Y-98905843D01*
X113780571Y-98893063D01*
X113814589Y-98853021D01*
X113821519Y-98845505D01*
X113827162Y-98839862D01*
X113844714Y-98817678D01*
X113847481Y-98814304D01*
X113889743Y-98764558D01*
X113894482Y-98758980D01*
X113897811Y-98752461D01*
X113901128Y-98747487D01*
X113904263Y-98742411D01*
X113908807Y-98736668D01*
X113939553Y-98670882D01*
X113941485Y-98666930D01*
X113971165Y-98608805D01*
X113974493Y-98602288D01*
X113976232Y-98595180D01*
X113978314Y-98589582D01*
X113980201Y-98583909D01*
X113983300Y-98577279D01*
X113998087Y-98506189D01*
X113999057Y-98501904D01*
X114014976Y-98436846D01*
X114016311Y-98431392D01*
X114017000Y-98420286D01*
X114017034Y-98420288D01*
X114017277Y-98416231D01*
X114017637Y-98412196D01*
X114019128Y-98405028D01*
X114017046Y-98328085D01*
X114017000Y-98324677D01*
X114017000Y-97818447D01*
X114001762Y-97687746D01*
X113986102Y-97644602D01*
X113944229Y-97529245D01*
X113941732Y-97522366D01*
X113917130Y-97484841D01*
X113867140Y-97408595D01*
X113845266Y-97375232D01*
X113717540Y-97254236D01*
X113565404Y-97165868D01*
X113397020Y-97114870D01*
X113221420Y-97103976D01*
X113214204Y-97105216D01*
X113214202Y-97105216D01*
X113055238Y-97132531D01*
X113055236Y-97132532D01*
X113048023Y-97133771D01*
X112886132Y-97202656D01*
X112744429Y-97306937D01*
X112630518Y-97441020D01*
X112627190Y-97447538D01*
X112553834Y-97591195D01*
X112553832Y-97591200D01*
X112550507Y-97597712D01*
X112548768Y-97604818D01*
X112548767Y-97604821D01*
X112539919Y-97640981D01*
X112508689Y-97768608D01*
X112508000Y-97779714D01*
X112508000Y-97972786D01*
X112487998Y-98040907D01*
X112471095Y-98061881D01*
X110489095Y-100043881D01*
X110426783Y-100077907D01*
X110355968Y-100072842D01*
X110310905Y-100043881D01*
X107980724Y-97713700D01*
X107968337Y-97699287D01*
X107959904Y-97687828D01*
X107955563Y-97681929D01*
X107915521Y-97647911D01*
X107908005Y-97640981D01*
X107902362Y-97635338D01*
X107880202Y-97617806D01*
X107876816Y-97615030D01*
X107866129Y-97605950D01*
X107821480Y-97568018D01*
X107814960Y-97564689D01*
X107809982Y-97561369D01*
X107804909Y-97558236D01*
X107799167Y-97553693D01*
X107733383Y-97522947D01*
X107729433Y-97521016D01*
X107671307Y-97491336D01*
X107664788Y-97488007D01*
X107657678Y-97486267D01*
X107652058Y-97484177D01*
X107646407Y-97482297D01*
X107639778Y-97479199D01*
X107632614Y-97477709D01*
X107632611Y-97477708D01*
X107592505Y-97469367D01*
X107568686Y-97464413D01*
X107564427Y-97463449D01*
X107493892Y-97446189D01*
X107488295Y-97445842D01*
X107488290Y-97445841D01*
X107482786Y-97445500D01*
X107482788Y-97445466D01*
X107478729Y-97445223D01*
X107474695Y-97444863D01*
X107467527Y-97443372D01*
X107460210Y-97443570D01*
X107390585Y-97445454D01*
X107387177Y-97445500D01*
X101756850Y-97445500D01*
X101703600Y-97433695D01*
X101608177Y-97389198D01*
X101608174Y-97389197D01*
X101602000Y-97386318D01*
X101595352Y-97384832D01*
X101595349Y-97384831D01*
X101425849Y-97346944D01*
X101425850Y-97346944D01*
X101420812Y-97345818D01*
X101415124Y-97345500D01*
X100728615Y-97345500D01*
X100590427Y-97360512D01*
X100505189Y-97389198D01*
X100420936Y-97417552D01*
X100420934Y-97417553D01*
X100414465Y-97419730D01*
X100401527Y-97427504D01*
X100336634Y-97445500D01*
X100089714Y-97445500D01*
X100021593Y-97425498D01*
X100000619Y-97408595D01*
X99891405Y-97299381D01*
X99857379Y-97237069D01*
X99854500Y-97210286D01*
X99854500Y-96778931D01*
X99874502Y-96710810D01*
X99928158Y-96664317D01*
X99998432Y-96654213D01*
X100063012Y-96683707D01*
X100076738Y-96697603D01*
X100182245Y-96822454D01*
X100187668Y-96826601D01*
X100187670Y-96826602D01*
X100324315Y-96931075D01*
X100324319Y-96931077D01*
X100329736Y-96935219D01*
X100335916Y-96938101D01*
X100335918Y-96938102D01*
X100491823Y-97010802D01*
X100491826Y-97010803D01*
X100498000Y-97013682D01*
X100504648Y-97015168D01*
X100504651Y-97015169D01*
X100603711Y-97037311D01*
X100679188Y-97054182D01*
X100684876Y-97054500D01*
X101371385Y-97054500D01*
X101509573Y-97039488D01*
X101630210Y-96998889D01*
X101679064Y-96982448D01*
X101679066Y-96982447D01*
X101685535Y-96980270D01*
X101844677Y-96884649D01*
X101849634Y-96879961D01*
X101849637Y-96879959D01*
X101974614Y-96761773D01*
X101974616Y-96761771D01*
X101979572Y-96757084D01*
X102083928Y-96603529D01*
X102086463Y-96597192D01*
X102150342Y-96437484D01*
X102150343Y-96437479D01*
X102152876Y-96431147D01*
X102153990Y-96424420D01*
X102153991Y-96424415D01*
X102182084Y-96254718D01*
X102182084Y-96254715D01*
X102183199Y-96247981D01*
X102173482Y-96062576D01*
X102171672Y-96056004D01*
X102171671Y-96055999D01*
X102125992Y-95890165D01*
X102124179Y-95883583D01*
X102037590Y-95719352D01*
X101917755Y-95577546D01*
X101824833Y-95506502D01*
X101782865Y-95449238D01*
X101778520Y-95378374D01*
X101813176Y-95316411D01*
X101861486Y-95286882D01*
X101991784Y-95243412D01*
X102004962Y-95237239D01*
X102142807Y-95151937D01*
X102154208Y-95142901D01*
X102268739Y-95028171D01*
X102277751Y-95016760D01*
X102362816Y-94878757D01*
X102368963Y-94865576D01*
X102420138Y-94711290D01*
X102423005Y-94697914D01*
X102432672Y-94603562D01*
X102433000Y-94597146D01*
X102433000Y-94472115D01*
X102428525Y-94456876D01*
X102427135Y-94455671D01*
X102419452Y-94454000D01*
X100922000Y-94454000D01*
X100853879Y-94433998D01*
X100807386Y-94380342D01*
X100796000Y-94328000D01*
X100796000Y-93927885D01*
X101304000Y-93927885D01*
X101308475Y-93943124D01*
X101309865Y-93944329D01*
X101317548Y-93946000D01*
X102414884Y-93946000D01*
X102430123Y-93941525D01*
X102431328Y-93940135D01*
X102432999Y-93932452D01*
X102432999Y-93802905D01*
X102432662Y-93796386D01*
X102422743Y-93700794D01*
X102419851Y-93687400D01*
X102368412Y-93533216D01*
X102362239Y-93520038D01*
X102276937Y-93382193D01*
X102267901Y-93370792D01*
X102153171Y-93256261D01*
X102141760Y-93247249D01*
X102003757Y-93162184D01*
X101990576Y-93156037D01*
X101836290Y-93104862D01*
X101822914Y-93101995D01*
X101728562Y-93092328D01*
X101722145Y-93092000D01*
X101322115Y-93092000D01*
X101306876Y-93096475D01*
X101305671Y-93097865D01*
X101304000Y-93105548D01*
X101304000Y-93927885D01*
X100796000Y-93927885D01*
X100796000Y-93110116D01*
X100791525Y-93094877D01*
X100790135Y-93093672D01*
X100782452Y-93092001D01*
X100377905Y-93092001D01*
X100371386Y-93092338D01*
X100275794Y-93102257D01*
X100262400Y-93105149D01*
X100108216Y-93156588D01*
X100095037Y-93162762D01*
X100046803Y-93192610D01*
X99978351Y-93211448D01*
X99910581Y-93190287D01*
X99865010Y-93135846D01*
X99854500Y-93085466D01*
X99854500Y-89878931D01*
X99874502Y-89810810D01*
X99928158Y-89764317D01*
X99998432Y-89754213D01*
X100063012Y-89783707D01*
X100076738Y-89797603D01*
X100182245Y-89922454D01*
X100187668Y-89926601D01*
X100187670Y-89926602D01*
X100324315Y-90031075D01*
X100324319Y-90031077D01*
X100329736Y-90035219D01*
X100335916Y-90038101D01*
X100335918Y-90038102D01*
X100491823Y-90110802D01*
X100491826Y-90110803D01*
X100498000Y-90113682D01*
X100504648Y-90115168D01*
X100504651Y-90115169D01*
X100633620Y-90143996D01*
X100679188Y-90154182D01*
X100684876Y-90154500D01*
X101371385Y-90154500D01*
X101509573Y-90139488D01*
X101630210Y-90098889D01*
X101679064Y-90082448D01*
X101679066Y-90082447D01*
X101685535Y-90080270D01*
X101844677Y-89984649D01*
X101849634Y-89979961D01*
X101849637Y-89979959D01*
X101974614Y-89861773D01*
X101974616Y-89861771D01*
X101979572Y-89857084D01*
X102083928Y-89703529D01*
X102086463Y-89697192D01*
X102150342Y-89537484D01*
X102150343Y-89537479D01*
X102152876Y-89531147D01*
X102153990Y-89524420D01*
X102153991Y-89524415D01*
X102182084Y-89354718D01*
X102182084Y-89354715D01*
X102183199Y-89347981D01*
X102181917Y-89323509D01*
X102173839Y-89169389D01*
X102173482Y-89162576D01*
X102171672Y-89156004D01*
X102171671Y-89155999D01*
X102125992Y-88990165D01*
X102124179Y-88983583D01*
X102037590Y-88819352D01*
X101917755Y-88677546D01*
X101912330Y-88673398D01*
X101775685Y-88568925D01*
X101775681Y-88568923D01*
X101770264Y-88564781D01*
X101764084Y-88561899D01*
X101764082Y-88561898D01*
X101608177Y-88489198D01*
X101608174Y-88489197D01*
X101602000Y-88486318D01*
X101595352Y-88484832D01*
X101595349Y-88484831D01*
X101425849Y-88446944D01*
X101425850Y-88446944D01*
X101420812Y-88445818D01*
X101415124Y-88445500D01*
X100728615Y-88445500D01*
X100590427Y-88460512D01*
X100510190Y-88487515D01*
X100420936Y-88517552D01*
X100420934Y-88517553D01*
X100414465Y-88519730D01*
X100255323Y-88615351D01*
X100250366Y-88620039D01*
X100250363Y-88620041D01*
X100133404Y-88730645D01*
X100120428Y-88742916D01*
X100116596Y-88748554D01*
X100116593Y-88748558D01*
X100084712Y-88795470D01*
X100029879Y-88840568D01*
X99959368Y-88848862D01*
X99895567Y-88817719D01*
X99858731Y-88757026D01*
X99854500Y-88724647D01*
X99854500Y-87878931D01*
X99874502Y-87810810D01*
X99928158Y-87764317D01*
X99998432Y-87754213D01*
X100063012Y-87783707D01*
X100076738Y-87797603D01*
X100182245Y-87922454D01*
X100187668Y-87926601D01*
X100187670Y-87926602D01*
X100324315Y-88031075D01*
X100324319Y-88031077D01*
X100329736Y-88035219D01*
X100335916Y-88038101D01*
X100335918Y-88038102D01*
X100491823Y-88110802D01*
X100491826Y-88110803D01*
X100498000Y-88113682D01*
X100504648Y-88115168D01*
X100504651Y-88115169D01*
X100603711Y-88137311D01*
X100679188Y-88154182D01*
X100684876Y-88154500D01*
X101371385Y-88154500D01*
X101509573Y-88139488D01*
X101630210Y-88098889D01*
X101679064Y-88082448D01*
X101679066Y-88082447D01*
X101685535Y-88080270D01*
X101844677Y-87984649D01*
X101849634Y-87979961D01*
X101849637Y-87979959D01*
X101974614Y-87861773D01*
X101974616Y-87861771D01*
X101979572Y-87857084D01*
X102033454Y-87777799D01*
X102045770Y-87759677D01*
X102100603Y-87714579D01*
X102149982Y-87704500D01*
X114164066Y-87704500D01*
X114173498Y-87701435D01*
X114173500Y-87701435D01*
X114185287Y-87697605D01*
X114204513Y-87692989D01*
X114216762Y-87691049D01*
X114226555Y-87689498D01*
X114246439Y-87679366D01*
X114264705Y-87671801D01*
X114265792Y-87671448D01*
X114285929Y-87664905D01*
X114303989Y-87651784D01*
X114320846Y-87641454D01*
X114340723Y-87631326D01*
X114363511Y-87608538D01*
X114363515Y-87608535D01*
X114884456Y-87087594D01*
X114946768Y-87053568D01*
X114957099Y-87051768D01*
X115044754Y-87040228D01*
X115179643Y-86984355D01*
X115186196Y-86979327D01*
X115288921Y-86900503D01*
X115288924Y-86900500D01*
X115295474Y-86895474D01*
X115384355Y-86779642D01*
X115397374Y-86748213D01*
X115437069Y-86652380D01*
X115440228Y-86644754D01*
X115443399Y-86620673D01*
X115457467Y-86513807D01*
X115459285Y-86500000D01*
X115446716Y-86404526D01*
X115441306Y-86363432D01*
X115441305Y-86363430D01*
X115440228Y-86355246D01*
X115401990Y-86262932D01*
X115387515Y-86227986D01*
X115387514Y-86227984D01*
X115384355Y-86220358D01*
X115295474Y-86104526D01*
X115288924Y-86099500D01*
X115288921Y-86099497D01*
X115186196Y-86020673D01*
X115186194Y-86020672D01*
X115179643Y-86015645D01*
X115044754Y-85959772D01*
X114900000Y-85940715D01*
X114891812Y-85941793D01*
X114763432Y-85958694D01*
X114763430Y-85958695D01*
X114755246Y-85959772D01*
X114707430Y-85979578D01*
X114627986Y-86012485D01*
X114627984Y-86012486D01*
X114620358Y-86015645D01*
X114504526Y-86104526D01*
X114415645Y-86220358D01*
X114412486Y-86227984D01*
X114412485Y-86227986D01*
X114398010Y-86262932D01*
X114359772Y-86355246D01*
X114349363Y-86434315D01*
X114348233Y-86442895D01*
X114319511Y-86507822D01*
X114312406Y-86515544D01*
X113969355Y-86858595D01*
X113907043Y-86892621D01*
X113880260Y-86895500D01*
X102153746Y-86895500D01*
X102085625Y-86875498D01*
X102044742Y-86830939D01*
X102044587Y-86831044D01*
X102043891Y-86830011D01*
X102042290Y-86828267D01*
X102040772Y-86825387D01*
X102040771Y-86825386D01*
X102037590Y-86819352D01*
X102032905Y-86813807D01*
X101922161Y-86682760D01*
X101917755Y-86677546D01*
X101888588Y-86655246D01*
X101775685Y-86568925D01*
X101775681Y-86568923D01*
X101770264Y-86564781D01*
X101759522Y-86559772D01*
X101750617Y-86555619D01*
X101697333Y-86508701D01*
X101677873Y-86440423D01*
X101698416Y-86372464D01*
X101746177Y-86329409D01*
X101920978Y-86239381D01*
X101931024Y-86232931D01*
X102087857Y-86109738D01*
X102096506Y-86101501D01*
X102227212Y-85950877D01*
X102234147Y-85941153D01*
X102334010Y-85768533D01*
X102338984Y-85757669D01*
X102404407Y-85569273D01*
X102404648Y-85568284D01*
X102403180Y-85557992D01*
X102389615Y-85554000D01*
X100922000Y-85554000D01*
X100853879Y-85533998D01*
X100807386Y-85480342D01*
X100796000Y-85428000D01*
X100796000Y-85172000D01*
X100816002Y-85103879D01*
X100869658Y-85057386D01*
X100922000Y-85046000D01*
X102385402Y-85046000D01*
X102398933Y-85042027D01*
X102400288Y-85032601D01*
X102378806Y-84943463D01*
X102374917Y-84932168D01*
X102292371Y-84750618D01*
X102286424Y-84740276D01*
X102171032Y-84577603D01*
X102163239Y-84568575D01*
X102019169Y-84430658D01*
X102009804Y-84423262D01*
X101842259Y-84315079D01*
X101831655Y-84309583D01*
X101750421Y-84276845D01*
X101694715Y-84232830D01*
X101671648Y-84165685D01*
X101688545Y-84096729D01*
X101732625Y-84051976D01*
X101838825Y-83988165D01*
X101844677Y-83984649D01*
X101849634Y-83979961D01*
X101849637Y-83979959D01*
X101974614Y-83861773D01*
X101974616Y-83861771D01*
X101979572Y-83857084D01*
X102083928Y-83703529D01*
X102086463Y-83697192D01*
X102150342Y-83537484D01*
X102150343Y-83537479D01*
X102152876Y-83531147D01*
X102153990Y-83524420D01*
X102153991Y-83524415D01*
X102182084Y-83354718D01*
X102182084Y-83354715D01*
X102183199Y-83347981D01*
X102175764Y-83206108D01*
X102173839Y-83169389D01*
X102173482Y-83162576D01*
X102171672Y-83156004D01*
X102171671Y-83155999D01*
X102125992Y-82990165D01*
X102124179Y-82983583D01*
X102037590Y-82819352D01*
X101917755Y-82677546D01*
X101912330Y-82673398D01*
X101775685Y-82568925D01*
X101775681Y-82568923D01*
X101770264Y-82564781D01*
X101764084Y-82561899D01*
X101764082Y-82561898D01*
X101608177Y-82489198D01*
X101608174Y-82489197D01*
X101602000Y-82486318D01*
X101595352Y-82484832D01*
X101595349Y-82484831D01*
X101425849Y-82446944D01*
X101425850Y-82446944D01*
X101420812Y-82445818D01*
X101415124Y-82445500D01*
X100728615Y-82445500D01*
X100590427Y-82460512D01*
X100505189Y-82489198D01*
X100420936Y-82517552D01*
X100420934Y-82517553D01*
X100414465Y-82519730D01*
X100255323Y-82615351D01*
X100250366Y-82620039D01*
X100250363Y-82620041D01*
X100125386Y-82738227D01*
X100120428Y-82742916D01*
X100116596Y-82748554D01*
X100116593Y-82748558D01*
X100084712Y-82795470D01*
X100029879Y-82840568D01*
X99959368Y-82848862D01*
X99895567Y-82817719D01*
X99858731Y-82757026D01*
X99854500Y-82724647D01*
X99854500Y-82264716D01*
X99874502Y-82196595D01*
X99891404Y-82175621D01*
X99975619Y-82091405D01*
X100037931Y-82057380D01*
X100064715Y-82054500D01*
X100081458Y-82054500D01*
X100149579Y-82074502D01*
X100157023Y-82079674D01*
X100172676Y-82091405D01*
X100180236Y-82097071D01*
X100248629Y-82122710D01*
X100308157Y-82145026D01*
X100308159Y-82145026D01*
X100315552Y-82147798D01*
X100323402Y-82148651D01*
X100323403Y-82148651D01*
X100373847Y-82154131D01*
X100377244Y-82154500D01*
X101722756Y-82154500D01*
X101726153Y-82154131D01*
X101776597Y-82148651D01*
X101776598Y-82148651D01*
X101784448Y-82147798D01*
X101791841Y-82145026D01*
X101791843Y-82145026D01*
X101851371Y-82122710D01*
X101919764Y-82097071D01*
X101927325Y-82091405D01*
X101942977Y-82079674D01*
X102009483Y-82054826D01*
X102018542Y-82054500D01*
X105933235Y-82054500D01*
X105952185Y-82055933D01*
X105966255Y-82058074D01*
X105966259Y-82058074D01*
X105973489Y-82059174D01*
X105980780Y-82058581D01*
X105980783Y-82058581D01*
X106025848Y-82054915D01*
X106036063Y-82054500D01*
X106044053Y-82054500D01*
X106051302Y-82053655D01*
X106072113Y-82051229D01*
X106076487Y-82050796D01*
X106141549Y-82045504D01*
X106141552Y-82045503D01*
X106148847Y-82044910D01*
X106155809Y-82042655D01*
X106161677Y-82041482D01*
X106167484Y-82040110D01*
X106174754Y-82039262D01*
X106243060Y-82014468D01*
X106247163Y-82013060D01*
X106316222Y-81990688D01*
X106322479Y-81986891D01*
X106327926Y-81984398D01*
X106333254Y-81981730D01*
X106340134Y-81979232D01*
X106400849Y-81939426D01*
X106404559Y-81937085D01*
X106461838Y-81902327D01*
X106461840Y-81902325D01*
X106466633Y-81899417D01*
X106474974Y-81892051D01*
X106474996Y-81892076D01*
X106478041Y-81889376D01*
X106481146Y-81886780D01*
X106487268Y-81882766D01*
X106540216Y-81826873D01*
X106542593Y-81824432D01*
X110886300Y-77480724D01*
X110900713Y-77468337D01*
X110912172Y-77459904D01*
X110918071Y-77455563D01*
X110952089Y-77415521D01*
X110959019Y-77408005D01*
X110964662Y-77402362D01*
X110982194Y-77380202D01*
X110984970Y-77376816D01*
X111027243Y-77327058D01*
X111031982Y-77321480D01*
X111035311Y-77314960D01*
X111038631Y-77309982D01*
X111041764Y-77304909D01*
X111046307Y-77299167D01*
X111064339Y-77260585D01*
X111077053Y-77233383D01*
X111078984Y-77229433D01*
X111108664Y-77171307D01*
X111111993Y-77164788D01*
X111113733Y-77157678D01*
X111115820Y-77152066D01*
X111117702Y-77146409D01*
X111120801Y-77139778D01*
X111125721Y-77116127D01*
X111135591Y-77068672D01*
X111136562Y-77064383D01*
X111152476Y-76999346D01*
X111153811Y-76993892D01*
X111154500Y-76982786D01*
X111154534Y-76982788D01*
X111154777Y-76978750D01*
X111155139Y-76974689D01*
X111156629Y-76967527D01*
X111154546Y-76890548D01*
X111154500Y-76887140D01*
X111154500Y-71764715D01*
X111174502Y-71696594D01*
X111191405Y-71675620D01*
X111764058Y-71102966D01*
X117868257Y-71102966D01*
X117898565Y-71237446D01*
X117901645Y-71247275D01*
X117981770Y-71444603D01*
X117986413Y-71453794D01*
X118097694Y-71635388D01*
X118103777Y-71643699D01*
X118243213Y-71804667D01*
X118250580Y-71811883D01*
X118414434Y-71947916D01*
X118422881Y-71953831D01*
X118563005Y-72035713D01*
X118611729Y-72087352D01*
X118624800Y-72157135D01*
X118598069Y-72222906D01*
X118540022Y-72263785D01*
X118499436Y-72270501D01*
X118324934Y-72270501D01*
X118289182Y-72277612D01*
X118262874Y-72282844D01*
X118262872Y-72282845D01*
X118250699Y-72285266D01*
X118240379Y-72292161D01*
X118240378Y-72292162D01*
X118179985Y-72332516D01*
X118166516Y-72341516D01*
X118110266Y-72425699D01*
X118095500Y-72499933D01*
X118095501Y-74250066D01*
X118110266Y-74324301D01*
X118117161Y-74334620D01*
X118117162Y-74334622D01*
X118157516Y-74395015D01*
X118166516Y-74408484D01*
X118250699Y-74464734D01*
X118324933Y-74479500D01*
X119199858Y-74479500D01*
X120075066Y-74479499D01*
X120110818Y-74472388D01*
X120137126Y-74467156D01*
X120137128Y-74467155D01*
X120149301Y-74464734D01*
X120159621Y-74457839D01*
X120159622Y-74457838D01*
X120223168Y-74415377D01*
X120233484Y-74408484D01*
X120289734Y-74324301D01*
X120304500Y-74250067D01*
X120304499Y-73345964D01*
X120631148Y-73345964D01*
X120631526Y-73351730D01*
X120643641Y-73536568D01*
X120644424Y-73548522D01*
X120645845Y-73554118D01*
X120645846Y-73554123D01*
X120679387Y-73686187D01*
X120694392Y-73745269D01*
X120696809Y-73750512D01*
X120731832Y-73826482D01*
X120779377Y-73929616D01*
X120896533Y-74095389D01*
X121041938Y-74237035D01*
X121210720Y-74349812D01*
X121216023Y-74352090D01*
X121216026Y-74352092D01*
X121347283Y-74408484D01*
X121397228Y-74429942D01*
X121470244Y-74446464D01*
X121589579Y-74473467D01*
X121589584Y-74473468D01*
X121595216Y-74474742D01*
X121600987Y-74474969D01*
X121600989Y-74474969D01*
X121660756Y-74477317D01*
X121798053Y-74482712D01*
X121905348Y-74467155D01*
X121993231Y-74454413D01*
X121993236Y-74454412D01*
X121998945Y-74453584D01*
X122004409Y-74451729D01*
X122004414Y-74451728D01*
X122185693Y-74390192D01*
X122185698Y-74390190D01*
X122191165Y-74388334D01*
X122368276Y-74289147D01*
X122407969Y-74256135D01*
X122519913Y-74163031D01*
X122524345Y-74159345D01*
X122654147Y-74003276D01*
X122753334Y-73826165D01*
X122755190Y-73820698D01*
X122755192Y-73820693D01*
X122816728Y-73639414D01*
X122816729Y-73639409D01*
X122818584Y-73633945D01*
X122819412Y-73628236D01*
X122819413Y-73628231D01*
X122847179Y-73436727D01*
X122847712Y-73433053D01*
X122849232Y-73375000D01*
X122846564Y-73345964D01*
X123171148Y-73345964D01*
X123171526Y-73351730D01*
X123183641Y-73536568D01*
X123184424Y-73548522D01*
X123185845Y-73554118D01*
X123185846Y-73554123D01*
X123219387Y-73686187D01*
X123234392Y-73745269D01*
X123236809Y-73750512D01*
X123271832Y-73826482D01*
X123319377Y-73929616D01*
X123436533Y-74095389D01*
X123581938Y-74237035D01*
X123750720Y-74349812D01*
X123756023Y-74352090D01*
X123756026Y-74352092D01*
X123887283Y-74408484D01*
X123937228Y-74429942D01*
X124010244Y-74446464D01*
X124129579Y-74473467D01*
X124129584Y-74473468D01*
X124135216Y-74474742D01*
X124140987Y-74474969D01*
X124140989Y-74474969D01*
X124200756Y-74477317D01*
X124338053Y-74482712D01*
X124445348Y-74467155D01*
X124533231Y-74454413D01*
X124533236Y-74454412D01*
X124538945Y-74453584D01*
X124544409Y-74451729D01*
X124544414Y-74451728D01*
X124725693Y-74390192D01*
X124725698Y-74390190D01*
X124731165Y-74388334D01*
X124908276Y-74289147D01*
X124947969Y-74256135D01*
X125059913Y-74163031D01*
X125064345Y-74159345D01*
X125194147Y-74003276D01*
X125293334Y-73826165D01*
X125295190Y-73820698D01*
X125295192Y-73820693D01*
X125356728Y-73639414D01*
X125356729Y-73639409D01*
X125358584Y-73633945D01*
X125359412Y-73628236D01*
X125359413Y-73628231D01*
X125387179Y-73436727D01*
X125387712Y-73433053D01*
X125389232Y-73375000D01*
X125386564Y-73345964D01*
X125711148Y-73345964D01*
X125711526Y-73351730D01*
X125723641Y-73536568D01*
X125724424Y-73548522D01*
X125725845Y-73554118D01*
X125725846Y-73554123D01*
X125759387Y-73686187D01*
X125774392Y-73745269D01*
X125776809Y-73750512D01*
X125811832Y-73826482D01*
X125859377Y-73929616D01*
X125976533Y-74095389D01*
X126121938Y-74237035D01*
X126290720Y-74349812D01*
X126296023Y-74352090D01*
X126296026Y-74352092D01*
X126427283Y-74408484D01*
X126477228Y-74429942D01*
X126550244Y-74446464D01*
X126669579Y-74473467D01*
X126669584Y-74473468D01*
X126675216Y-74474742D01*
X126680987Y-74474969D01*
X126680989Y-74474969D01*
X126740756Y-74477317D01*
X126878053Y-74482712D01*
X126985348Y-74467155D01*
X127073231Y-74454413D01*
X127073236Y-74454412D01*
X127078945Y-74453584D01*
X127084409Y-74451729D01*
X127084414Y-74451728D01*
X127265693Y-74390192D01*
X127265698Y-74390190D01*
X127271165Y-74388334D01*
X127448276Y-74289147D01*
X127487969Y-74256135D01*
X127599913Y-74163031D01*
X127604345Y-74159345D01*
X127734147Y-74003276D01*
X127833334Y-73826165D01*
X127835190Y-73820698D01*
X127835192Y-73820693D01*
X127896728Y-73639414D01*
X127896729Y-73639409D01*
X127898584Y-73633945D01*
X127899412Y-73628236D01*
X127899413Y-73628231D01*
X127927179Y-73436727D01*
X127927712Y-73433053D01*
X127929232Y-73375000D01*
X127910658Y-73172859D01*
X127909090Y-73167299D01*
X127857125Y-72983046D01*
X127857124Y-72983044D01*
X127855557Y-72977487D01*
X127844978Y-72956033D01*
X127768331Y-72800609D01*
X127765776Y-72795428D01*
X127644320Y-72632779D01*
X127495258Y-72494987D01*
X127490375Y-72491906D01*
X127490371Y-72491903D01*
X127328464Y-72389748D01*
X127323581Y-72386667D01*
X127135039Y-72311446D01*
X127129379Y-72310320D01*
X127129375Y-72310319D01*
X126941613Y-72272971D01*
X126941610Y-72272971D01*
X126935946Y-72271844D01*
X126930171Y-72271768D01*
X126930167Y-72271768D01*
X126828793Y-72270441D01*
X126732971Y-72269187D01*
X126727274Y-72270166D01*
X126727273Y-72270166D01*
X126639397Y-72285266D01*
X126532910Y-72303564D01*
X126342463Y-72373824D01*
X126168010Y-72477612D01*
X126163670Y-72481418D01*
X126163666Y-72481421D01*
X126019733Y-72607648D01*
X126015392Y-72611455D01*
X125889720Y-72770869D01*
X125887031Y-72775980D01*
X125887029Y-72775983D01*
X125874073Y-72800609D01*
X125795203Y-72950515D01*
X125735007Y-73144378D01*
X125711148Y-73345964D01*
X125386564Y-73345964D01*
X125370658Y-73172859D01*
X125369090Y-73167299D01*
X125317125Y-72983046D01*
X125317124Y-72983044D01*
X125315557Y-72977487D01*
X125304978Y-72956033D01*
X125228331Y-72800609D01*
X125225776Y-72795428D01*
X125104320Y-72632779D01*
X124955258Y-72494987D01*
X124950375Y-72491906D01*
X124950371Y-72491903D01*
X124788464Y-72389748D01*
X124783581Y-72386667D01*
X124595039Y-72311446D01*
X124589379Y-72310320D01*
X124589375Y-72310319D01*
X124401613Y-72272971D01*
X124401610Y-72272971D01*
X124395946Y-72271844D01*
X124390171Y-72271768D01*
X124390167Y-72271768D01*
X124288793Y-72270441D01*
X124192971Y-72269187D01*
X124187274Y-72270166D01*
X124187273Y-72270166D01*
X124099397Y-72285266D01*
X123992910Y-72303564D01*
X123802463Y-72373824D01*
X123628010Y-72477612D01*
X123623670Y-72481418D01*
X123623666Y-72481421D01*
X123479733Y-72607648D01*
X123475392Y-72611455D01*
X123349720Y-72770869D01*
X123347031Y-72775980D01*
X123347029Y-72775983D01*
X123334073Y-72800609D01*
X123255203Y-72950515D01*
X123195007Y-73144378D01*
X123171148Y-73345964D01*
X122846564Y-73345964D01*
X122830658Y-73172859D01*
X122829090Y-73167299D01*
X122777125Y-72983046D01*
X122777124Y-72983044D01*
X122775557Y-72977487D01*
X122764978Y-72956033D01*
X122688331Y-72800609D01*
X122685776Y-72795428D01*
X122564320Y-72632779D01*
X122415258Y-72494987D01*
X122410375Y-72491906D01*
X122410371Y-72491903D01*
X122248464Y-72389748D01*
X122243581Y-72386667D01*
X122055039Y-72311446D01*
X122049379Y-72310320D01*
X122049375Y-72310319D01*
X121861613Y-72272971D01*
X121861610Y-72272971D01*
X121855946Y-72271844D01*
X121850171Y-72271768D01*
X121850167Y-72271768D01*
X121748793Y-72270441D01*
X121652971Y-72269187D01*
X121647274Y-72270166D01*
X121647273Y-72270166D01*
X121559397Y-72285266D01*
X121452910Y-72303564D01*
X121262463Y-72373824D01*
X121088010Y-72477612D01*
X121083670Y-72481418D01*
X121083666Y-72481421D01*
X120939733Y-72607648D01*
X120935392Y-72611455D01*
X120809720Y-72770869D01*
X120807031Y-72775980D01*
X120807029Y-72775983D01*
X120794073Y-72800609D01*
X120715203Y-72950515D01*
X120655007Y-73144378D01*
X120631148Y-73345964D01*
X120304499Y-73345964D01*
X120304499Y-72499934D01*
X120289734Y-72425699D01*
X120263654Y-72386667D01*
X120240377Y-72351832D01*
X120233484Y-72341516D01*
X120149301Y-72285266D01*
X120075067Y-72270500D01*
X119900334Y-72270500D01*
X119832213Y-72250498D01*
X119785720Y-72196842D01*
X119775616Y-72126568D01*
X119805110Y-72061988D01*
X119844902Y-72031348D01*
X119893100Y-72007736D01*
X119901945Y-72002464D01*
X120075328Y-71878792D01*
X120083200Y-71872139D01*
X120234052Y-71721812D01*
X120240730Y-71713965D01*
X120365003Y-71541020D01*
X120370313Y-71532183D01*
X120464670Y-71341267D01*
X120468469Y-71331672D01*
X120485066Y-71277047D01*
X120524007Y-71217683D01*
X120588862Y-71188796D01*
X120659038Y-71199558D01*
X120712256Y-71246551D01*
X120720048Y-71260922D01*
X120779377Y-71389616D01*
X120896533Y-71555389D01*
X121041938Y-71697035D01*
X121210720Y-71809812D01*
X121216023Y-71812090D01*
X121216026Y-71812092D01*
X121380693Y-71882838D01*
X121397228Y-71889942D01*
X121456231Y-71903293D01*
X121589579Y-71933467D01*
X121589584Y-71933468D01*
X121595216Y-71934742D01*
X121600987Y-71934969D01*
X121600989Y-71934969D01*
X121660756Y-71937317D01*
X121798053Y-71942712D01*
X121898499Y-71928148D01*
X121993231Y-71914413D01*
X121993236Y-71914412D01*
X121998945Y-71913584D01*
X122004409Y-71911729D01*
X122004414Y-71911728D01*
X122185693Y-71850192D01*
X122185698Y-71850190D01*
X122191165Y-71848334D01*
X122199276Y-71843792D01*
X122340477Y-71764715D01*
X122368276Y-71749147D01*
X122382728Y-71737128D01*
X122495696Y-71643172D01*
X122524345Y-71619345D01*
X122654147Y-71463276D01*
X122739028Y-71311710D01*
X122750510Y-71291208D01*
X122750511Y-71291206D01*
X122753334Y-71286165D01*
X122755190Y-71280698D01*
X122755192Y-71280693D01*
X122816728Y-71099414D01*
X122816729Y-71099409D01*
X122818584Y-71093945D01*
X122819412Y-71088236D01*
X122819413Y-71088231D01*
X122843837Y-70919780D01*
X122847712Y-70893053D01*
X122849232Y-70835000D01*
X122846564Y-70805964D01*
X123171148Y-70805964D01*
X123184424Y-71008522D01*
X123185845Y-71014118D01*
X123185846Y-71014123D01*
X123225796Y-71171424D01*
X123234392Y-71205269D01*
X123236809Y-71210512D01*
X123274010Y-71291208D01*
X123319377Y-71389616D01*
X123436533Y-71555389D01*
X123581938Y-71697035D01*
X123750720Y-71809812D01*
X123756023Y-71812090D01*
X123756026Y-71812092D01*
X123920693Y-71882838D01*
X123937228Y-71889942D01*
X123996231Y-71903293D01*
X124129579Y-71933467D01*
X124129584Y-71933468D01*
X124135216Y-71934742D01*
X124140987Y-71934969D01*
X124140989Y-71934969D01*
X124200756Y-71937317D01*
X124338053Y-71942712D01*
X124438499Y-71928148D01*
X124533231Y-71914413D01*
X124533236Y-71914412D01*
X124538945Y-71913584D01*
X124544409Y-71911729D01*
X124544414Y-71911728D01*
X124725693Y-71850192D01*
X124725698Y-71850190D01*
X124731165Y-71848334D01*
X124739276Y-71843792D01*
X124880477Y-71764715D01*
X124908276Y-71749147D01*
X124922728Y-71737128D01*
X125035696Y-71643172D01*
X125064345Y-71619345D01*
X125194147Y-71463276D01*
X125279028Y-71311710D01*
X125290510Y-71291208D01*
X125290511Y-71291206D01*
X125293334Y-71286165D01*
X125295190Y-71280698D01*
X125295192Y-71280693D01*
X125356728Y-71099414D01*
X125356729Y-71099409D01*
X125358584Y-71093945D01*
X125359412Y-71088236D01*
X125359413Y-71088231D01*
X125383837Y-70919780D01*
X125387712Y-70893053D01*
X125389232Y-70835000D01*
X125386564Y-70805964D01*
X125711148Y-70805964D01*
X125724424Y-71008522D01*
X125725845Y-71014118D01*
X125725846Y-71014123D01*
X125765796Y-71171424D01*
X125774392Y-71205269D01*
X125776809Y-71210512D01*
X125814010Y-71291208D01*
X125859377Y-71389616D01*
X125976533Y-71555389D01*
X126121938Y-71697035D01*
X126290720Y-71809812D01*
X126296023Y-71812090D01*
X126296026Y-71812092D01*
X126460693Y-71882838D01*
X126477228Y-71889942D01*
X126536231Y-71903293D01*
X126669579Y-71933467D01*
X126669584Y-71933468D01*
X126675216Y-71934742D01*
X126680987Y-71934969D01*
X126680989Y-71934969D01*
X126740756Y-71937317D01*
X126878053Y-71942712D01*
X126978499Y-71928148D01*
X127073231Y-71914413D01*
X127073236Y-71914412D01*
X127078945Y-71913584D01*
X127084409Y-71911729D01*
X127084414Y-71911728D01*
X127265693Y-71850192D01*
X127265698Y-71850190D01*
X127271165Y-71848334D01*
X127279276Y-71843792D01*
X127420477Y-71764715D01*
X127448276Y-71749147D01*
X127462728Y-71737128D01*
X127575696Y-71643172D01*
X127604345Y-71619345D01*
X127734147Y-71463276D01*
X127819028Y-71311710D01*
X127830510Y-71291208D01*
X127830511Y-71291206D01*
X127833334Y-71286165D01*
X127835190Y-71280698D01*
X127835192Y-71280693D01*
X127896728Y-71099414D01*
X127896729Y-71099409D01*
X127898584Y-71093945D01*
X127899412Y-71088236D01*
X127899413Y-71088231D01*
X127902351Y-71067966D01*
X141328257Y-71067966D01*
X141358565Y-71202446D01*
X141361645Y-71212275D01*
X141441770Y-71409603D01*
X141446413Y-71418794D01*
X141557694Y-71600388D01*
X141563777Y-71608699D01*
X141703213Y-71769667D01*
X141710580Y-71776883D01*
X141874434Y-71912916D01*
X141882881Y-71918831D01*
X142066756Y-72026279D01*
X142076042Y-72030729D01*
X142275001Y-72106703D01*
X142284899Y-72109579D01*
X142388250Y-72130606D01*
X142402299Y-72129410D01*
X142406000Y-72119065D01*
X142406000Y-72118517D01*
X142914000Y-72118517D01*
X142918064Y-72132359D01*
X142931478Y-72134393D01*
X142938184Y-72133534D01*
X142948262Y-72131392D01*
X143152255Y-72070191D01*
X143161842Y-72066433D01*
X143353095Y-71972739D01*
X143361945Y-71967464D01*
X143535328Y-71843792D01*
X143543200Y-71837139D01*
X143694052Y-71686812D01*
X143700730Y-71678965D01*
X143825003Y-71506020D01*
X143830310Y-71497188D01*
X143856544Y-71444109D01*
X143904658Y-71391903D01*
X143973360Y-71373996D01*
X144040836Y-71396075D01*
X144085664Y-71451129D01*
X144095501Y-71499937D01*
X144095501Y-71675066D01*
X144099783Y-71696594D01*
X144104799Y-71721812D01*
X144110266Y-71749301D01*
X144166516Y-71833484D01*
X144250699Y-71889734D01*
X144324933Y-71904500D01*
X145199858Y-71904500D01*
X146075066Y-71904499D01*
X146110818Y-71897388D01*
X146137126Y-71892156D01*
X146137128Y-71892155D01*
X146149301Y-71889734D01*
X146159621Y-71882839D01*
X146159622Y-71882838D01*
X146223168Y-71840377D01*
X146233484Y-71833484D01*
X146289734Y-71749301D01*
X146304500Y-71675067D01*
X146304499Y-69924934D01*
X146289734Y-69850699D01*
X146278459Y-69833824D01*
X146240377Y-69776832D01*
X146233484Y-69766516D01*
X146149301Y-69710266D01*
X146075067Y-69695500D01*
X145200142Y-69695500D01*
X144324934Y-69695501D01*
X144289182Y-69702612D01*
X144262874Y-69707844D01*
X144262872Y-69707845D01*
X144250699Y-69710266D01*
X144240379Y-69717161D01*
X144240378Y-69717162D01*
X144179985Y-69757516D01*
X144166516Y-69766516D01*
X144110266Y-69850699D01*
X144095500Y-69924933D01*
X144095500Y-70092852D01*
X144075498Y-70160973D01*
X144021842Y-70207466D01*
X143951568Y-70217570D01*
X143886988Y-70188076D01*
X143861235Y-70155868D01*
X143860912Y-70156077D01*
X143858836Y-70152868D01*
X143858453Y-70152389D01*
X143858099Y-70151729D01*
X143742426Y-69972926D01*
X143736136Y-69964757D01*
X143592806Y-69807240D01*
X143585273Y-69800215D01*
X143418139Y-69668222D01*
X143409552Y-69662517D01*
X143223117Y-69559599D01*
X143213705Y-69555369D01*
X143012959Y-69484280D01*
X143002988Y-69481646D01*
X142931837Y-69468972D01*
X142918540Y-69470432D01*
X142914000Y-69484989D01*
X142914000Y-72118517D01*
X142406000Y-72118517D01*
X142406000Y-71072115D01*
X142401525Y-71056876D01*
X142400135Y-71055671D01*
X142392452Y-71054000D01*
X141343225Y-71054000D01*
X141329694Y-71057973D01*
X141328257Y-71067966D01*
X127902351Y-71067966D01*
X127923837Y-70919780D01*
X127927712Y-70893053D01*
X127929232Y-70835000D01*
X127910658Y-70632859D01*
X127906520Y-70618188D01*
X127882828Y-70534183D01*
X141324389Y-70534183D01*
X141325912Y-70542607D01*
X141338292Y-70546000D01*
X142387885Y-70546000D01*
X142403124Y-70541525D01*
X142404329Y-70540135D01*
X142406000Y-70532452D01*
X142406000Y-69483102D01*
X142402082Y-69469758D01*
X142387806Y-69467771D01*
X142349324Y-69473660D01*
X142339288Y-69476051D01*
X142136868Y-69542212D01*
X142127359Y-69546209D01*
X141938463Y-69644542D01*
X141929738Y-69650036D01*
X141759433Y-69777905D01*
X141751726Y-69784748D01*
X141604590Y-69938717D01*
X141598104Y-69946727D01*
X141478098Y-70122649D01*
X141473000Y-70131623D01*
X141383338Y-70324783D01*
X141379775Y-70334470D01*
X141324389Y-70534183D01*
X127882828Y-70534183D01*
X127857125Y-70443046D01*
X127857124Y-70443044D01*
X127855557Y-70437487D01*
X127844978Y-70416033D01*
X127768331Y-70260609D01*
X127765776Y-70255428D01*
X127644320Y-70092779D01*
X127495258Y-69954987D01*
X127490375Y-69951906D01*
X127490371Y-69951903D01*
X127328464Y-69849748D01*
X127323581Y-69846667D01*
X127135039Y-69771446D01*
X127129379Y-69770320D01*
X127129375Y-69770319D01*
X126941613Y-69732971D01*
X126941610Y-69732971D01*
X126935946Y-69731844D01*
X126930171Y-69731768D01*
X126930167Y-69731768D01*
X126828793Y-69730441D01*
X126732971Y-69729187D01*
X126727274Y-69730166D01*
X126727273Y-69730166D01*
X126555845Y-69759623D01*
X126532910Y-69763564D01*
X126342463Y-69833824D01*
X126168010Y-69937612D01*
X126163670Y-69941418D01*
X126163666Y-69941421D01*
X126062092Y-70030500D01*
X126015392Y-70071455D01*
X125889720Y-70230869D01*
X125887031Y-70235980D01*
X125887029Y-70235983D01*
X125874073Y-70260609D01*
X125795203Y-70410515D01*
X125735007Y-70604378D01*
X125711148Y-70805964D01*
X125386564Y-70805964D01*
X125370658Y-70632859D01*
X125366520Y-70618188D01*
X125317125Y-70443046D01*
X125317124Y-70443044D01*
X125315557Y-70437487D01*
X125304978Y-70416033D01*
X125228331Y-70260609D01*
X125225776Y-70255428D01*
X125104320Y-70092779D01*
X124955258Y-69954987D01*
X124950375Y-69951906D01*
X124950371Y-69951903D01*
X124788464Y-69849748D01*
X124783581Y-69846667D01*
X124595039Y-69771446D01*
X124589379Y-69770320D01*
X124589375Y-69770319D01*
X124401613Y-69732971D01*
X124401610Y-69732971D01*
X124395946Y-69731844D01*
X124390171Y-69731768D01*
X124390167Y-69731768D01*
X124288793Y-69730441D01*
X124192971Y-69729187D01*
X124187274Y-69730166D01*
X124187273Y-69730166D01*
X124015845Y-69759623D01*
X123992910Y-69763564D01*
X123802463Y-69833824D01*
X123628010Y-69937612D01*
X123623670Y-69941418D01*
X123623666Y-69941421D01*
X123522092Y-70030500D01*
X123475392Y-70071455D01*
X123349720Y-70230869D01*
X123347031Y-70235980D01*
X123347029Y-70235983D01*
X123334073Y-70260609D01*
X123255203Y-70410515D01*
X123195007Y-70604378D01*
X123171148Y-70805964D01*
X122846564Y-70805964D01*
X122830658Y-70632859D01*
X122826520Y-70618188D01*
X122777125Y-70443046D01*
X122777124Y-70443044D01*
X122775557Y-70437487D01*
X122764978Y-70416033D01*
X122688331Y-70260609D01*
X122685776Y-70255428D01*
X122564320Y-70092779D01*
X122415258Y-69954987D01*
X122410375Y-69951906D01*
X122410371Y-69951903D01*
X122248464Y-69849748D01*
X122243581Y-69846667D01*
X122055039Y-69771446D01*
X122049379Y-69770320D01*
X122049375Y-69770319D01*
X121861613Y-69732971D01*
X121861610Y-69732971D01*
X121855946Y-69731844D01*
X121850171Y-69731768D01*
X121850167Y-69731768D01*
X121748793Y-69730441D01*
X121652971Y-69729187D01*
X121647274Y-69730166D01*
X121647273Y-69730166D01*
X121475845Y-69759623D01*
X121452910Y-69763564D01*
X121262463Y-69833824D01*
X121088010Y-69937612D01*
X121083670Y-69941418D01*
X121083666Y-69941421D01*
X120982092Y-70030500D01*
X120935392Y-70071455D01*
X120809720Y-70230869D01*
X120807031Y-70235980D01*
X120807029Y-70235983D01*
X120717589Y-70405980D01*
X120668170Y-70456952D01*
X120599037Y-70473115D01*
X120532141Y-70449336D01*
X120492003Y-70394973D01*
X120489955Y-70395863D01*
X120402972Y-70195814D01*
X120398105Y-70186739D01*
X120282426Y-70007926D01*
X120276136Y-69999757D01*
X120132806Y-69842240D01*
X120125273Y-69835215D01*
X119958139Y-69703222D01*
X119949552Y-69697517D01*
X119763117Y-69594599D01*
X119753705Y-69590369D01*
X119552959Y-69519280D01*
X119542988Y-69516646D01*
X119471837Y-69503972D01*
X119458540Y-69505432D01*
X119454000Y-69519989D01*
X119454000Y-70963000D01*
X119433998Y-71031121D01*
X119380342Y-71077614D01*
X119328000Y-71089000D01*
X117883225Y-71089000D01*
X117869694Y-71092973D01*
X117868257Y-71102966D01*
X111764058Y-71102966D01*
X112297841Y-70569183D01*
X117864389Y-70569183D01*
X117865912Y-70577607D01*
X117878292Y-70581000D01*
X118927885Y-70581000D01*
X118943124Y-70576525D01*
X118944329Y-70575135D01*
X118946000Y-70567452D01*
X118946000Y-69518102D01*
X118942082Y-69504758D01*
X118927806Y-69502771D01*
X118889324Y-69508660D01*
X118879288Y-69511051D01*
X118676868Y-69577212D01*
X118667359Y-69581209D01*
X118478463Y-69679542D01*
X118469738Y-69685036D01*
X118299433Y-69812905D01*
X118291726Y-69819748D01*
X118144590Y-69973717D01*
X118138104Y-69981727D01*
X118018098Y-70157649D01*
X118013000Y-70166623D01*
X117923338Y-70359783D01*
X117919775Y-70369470D01*
X117864389Y-70569183D01*
X112297841Y-70569183D01*
X113175619Y-69691405D01*
X113237931Y-69657380D01*
X113264714Y-69654500D01*
X114644053Y-69654500D01*
X114735950Y-69643786D01*
X114767482Y-69640110D01*
X114767484Y-69640110D01*
X114774754Y-69639262D01*
X114781631Y-69636766D01*
X114781634Y-69636765D01*
X114933255Y-69581729D01*
X114940134Y-69579232D01*
X114946251Y-69575222D01*
X114946254Y-69575220D01*
X115035593Y-69516646D01*
X115087268Y-69482766D01*
X115208264Y-69355040D01*
X115296632Y-69202904D01*
X115347630Y-69034520D01*
X115358524Y-68858920D01*
X115347263Y-68793381D01*
X115329969Y-68692738D01*
X115329968Y-68692736D01*
X115328729Y-68685523D01*
X115259844Y-68523632D01*
X115229493Y-68482390D01*
X115209471Y-68455182D01*
X115185205Y-68388461D01*
X115200863Y-68319212D01*
X115251474Y-68269422D01*
X115310953Y-68254500D01*
X147619500Y-68254500D01*
X147687621Y-68274502D01*
G37*
G04 #@! TD.AperFunction*
G04 #@! TA.AperFunction,Conductor*
G36*
X99907808Y-68274502D02*
G01*
X99954301Y-68328158D01*
X99964405Y-68398432D01*
X99935860Y-68460934D01*
X99936292Y-68461292D01*
X99934963Y-68462899D01*
X99934911Y-68463012D01*
X99934544Y-68463405D01*
X99814216Y-68608856D01*
X99807356Y-68619027D01*
X99719196Y-68782076D01*
X99714444Y-68793381D01*
X99678750Y-68908692D01*
X99678544Y-68922795D01*
X99685299Y-68926000D01*
X102207924Y-68926000D01*
X102221455Y-68922027D01*
X102222575Y-68914232D01*
X102190862Y-68806479D01*
X102186269Y-68795111D01*
X102100393Y-68630846D01*
X102093679Y-68620585D01*
X101977532Y-68476127D01*
X101970218Y-68468658D01*
X101936847Y-68405993D01*
X101942653Y-68335234D01*
X101985792Y-68278847D01*
X102052568Y-68254734D01*
X102060241Y-68254500D01*
X103769687Y-68254500D01*
X103837808Y-68274502D01*
X103884301Y-68328158D01*
X103894405Y-68398432D01*
X103865860Y-68460934D01*
X103866292Y-68461292D01*
X103864963Y-68462899D01*
X103864911Y-68463012D01*
X103864544Y-68463405D01*
X103744216Y-68608856D01*
X103737356Y-68619027D01*
X103649196Y-68782076D01*
X103644444Y-68793381D01*
X103608750Y-68908692D01*
X103608544Y-68922795D01*
X103615299Y-68926000D01*
X106637924Y-68926000D01*
X106651455Y-68922027D01*
X106652575Y-68914232D01*
X106620862Y-68806479D01*
X106616269Y-68795111D01*
X106530393Y-68630846D01*
X106523679Y-68620585D01*
X106407532Y-68476127D01*
X106400218Y-68468658D01*
X106366847Y-68405993D01*
X106372653Y-68335234D01*
X106415792Y-68278847D01*
X106482568Y-68254734D01*
X106490241Y-68254500D01*
X112174286Y-68254500D01*
X112242407Y-68274502D01*
X112288900Y-68328158D01*
X112299004Y-68398432D01*
X112269510Y-68463012D01*
X112263381Y-68469595D01*
X109913700Y-70819276D01*
X109899287Y-70831663D01*
X109881929Y-70844437D01*
X109877186Y-70850020D01*
X109847911Y-70884479D01*
X109840981Y-70891995D01*
X109835338Y-70897638D01*
X109817806Y-70919798D01*
X109815039Y-70923173D01*
X109768018Y-70978520D01*
X109764689Y-70985040D01*
X109761369Y-70990018D01*
X109758236Y-70995091D01*
X109753693Y-71000833D01*
X109750593Y-71007466D01*
X109722947Y-71066617D01*
X109721016Y-71070567D01*
X109711604Y-71089000D01*
X109688007Y-71135212D01*
X109686267Y-71142322D01*
X109684177Y-71147942D01*
X109682297Y-71153593D01*
X109679199Y-71160222D01*
X109677709Y-71167386D01*
X109677708Y-71167389D01*
X109664415Y-71231303D01*
X109663449Y-71235573D01*
X109646189Y-71306108D01*
X109645500Y-71317214D01*
X109645466Y-71317212D01*
X109645223Y-71321271D01*
X109644863Y-71325305D01*
X109643372Y-71332473D01*
X109643570Y-71339790D01*
X109645454Y-71409415D01*
X109645500Y-71412823D01*
X109645500Y-76535286D01*
X109625498Y-76603407D01*
X109608595Y-76624381D01*
X105724381Y-80508595D01*
X105662069Y-80542621D01*
X105635286Y-80545500D01*
X102018542Y-80545500D01*
X101950421Y-80525498D01*
X101942977Y-80520326D01*
X101926947Y-80508312D01*
X101926946Y-80508311D01*
X101919764Y-80502929D01*
X101851371Y-80477290D01*
X101791843Y-80454974D01*
X101791841Y-80454974D01*
X101784448Y-80452202D01*
X101776598Y-80451349D01*
X101776597Y-80451349D01*
X101726153Y-80445869D01*
X101726152Y-80445869D01*
X101722756Y-80445500D01*
X100377244Y-80445500D01*
X100373848Y-80445869D01*
X100373847Y-80445869D01*
X100323403Y-80451349D01*
X100323402Y-80451349D01*
X100315552Y-80452202D01*
X100308159Y-80454974D01*
X100308157Y-80454974D01*
X100248629Y-80477290D01*
X100180236Y-80502929D01*
X100173054Y-80508311D01*
X100173053Y-80508312D01*
X100157023Y-80520326D01*
X100090517Y-80545174D01*
X100081458Y-80545500D01*
X99766766Y-80545500D01*
X99747816Y-80544067D01*
X99733746Y-80541926D01*
X99733740Y-80541926D01*
X99726511Y-80540826D01*
X99719220Y-80541419D01*
X99719217Y-80541419D01*
X99674152Y-80545085D01*
X99663937Y-80545500D01*
X99655947Y-80545500D01*
X99648698Y-80546345D01*
X99627887Y-80548771D01*
X99623513Y-80549204D01*
X99558451Y-80554496D01*
X99558448Y-80554497D01*
X99551153Y-80555090D01*
X99544191Y-80557345D01*
X99538323Y-80558518D01*
X99532516Y-80559890D01*
X99525246Y-80560738D01*
X99456940Y-80585532D01*
X99452837Y-80586940D01*
X99383778Y-80609312D01*
X99377516Y-80613112D01*
X99372059Y-80615610D01*
X99366744Y-80618271D01*
X99359866Y-80620768D01*
X99353752Y-80624776D01*
X99353745Y-80624780D01*
X99299124Y-80660592D01*
X99295404Y-80662939D01*
X99233367Y-80700584D01*
X99225026Y-80707949D01*
X99225004Y-80707924D01*
X99221956Y-80710626D01*
X99218851Y-80713222D01*
X99212732Y-80717234D01*
X99207699Y-80722546D01*
X99207700Y-80722546D01*
X99159802Y-80773108D01*
X99157425Y-80775550D01*
X98613697Y-81319279D01*
X98599283Y-81331666D01*
X98587823Y-81340099D01*
X98587820Y-81340102D01*
X98581929Y-81344437D01*
X98547909Y-81384481D01*
X98540994Y-81391981D01*
X98535338Y-81397638D01*
X98517806Y-81419798D01*
X98515030Y-81423184D01*
X98476525Y-81468507D01*
X98417176Y-81507471D01*
X98346183Y-81508164D01*
X98286085Y-81470364D01*
X98255963Y-81406074D01*
X98254500Y-81386927D01*
X98254500Y-78085768D01*
X99677425Y-78085768D01*
X99709138Y-78193521D01*
X99713731Y-78204889D01*
X99799607Y-78369154D01*
X99806321Y-78379415D01*
X99922468Y-78523873D01*
X99931046Y-78532632D01*
X100073039Y-78651778D01*
X100083159Y-78658708D01*
X100245585Y-78748002D01*
X100256858Y-78752834D01*
X100433538Y-78808880D01*
X100445532Y-78811430D01*
X100589761Y-78827607D01*
X100596785Y-78828000D01*
X100677885Y-78828000D01*
X100693124Y-78823525D01*
X100694329Y-78822135D01*
X100696000Y-78814452D01*
X100696000Y-78809885D01*
X101204000Y-78809885D01*
X101208475Y-78825124D01*
X101209865Y-78826329D01*
X101217548Y-78828000D01*
X101296657Y-78828000D01*
X101302805Y-78827699D01*
X101440603Y-78814188D01*
X101452638Y-78811805D01*
X101630076Y-78758233D01*
X101641416Y-78753559D01*
X101805077Y-78666540D01*
X101815294Y-78659751D01*
X101958933Y-78542603D01*
X101967637Y-78533959D01*
X102085784Y-78391144D01*
X102092644Y-78380973D01*
X102180804Y-78217924D01*
X102185556Y-78206619D01*
X102221250Y-78091308D01*
X102221331Y-78085768D01*
X103607425Y-78085768D01*
X103639138Y-78193521D01*
X103643731Y-78204889D01*
X103729607Y-78369154D01*
X103736321Y-78379415D01*
X103852468Y-78523873D01*
X103861046Y-78532632D01*
X104003039Y-78651778D01*
X104013159Y-78658708D01*
X104175585Y-78748002D01*
X104186858Y-78752834D01*
X104363538Y-78808880D01*
X104375532Y-78811430D01*
X104519761Y-78827607D01*
X104526785Y-78828000D01*
X104857885Y-78828000D01*
X104873124Y-78823525D01*
X104874329Y-78822135D01*
X104876000Y-78814452D01*
X104876000Y-78809885D01*
X105384000Y-78809885D01*
X105388475Y-78825124D01*
X105389865Y-78826329D01*
X105397548Y-78828000D01*
X105726657Y-78828000D01*
X105732805Y-78827699D01*
X105870603Y-78814188D01*
X105882638Y-78811805D01*
X106060076Y-78758233D01*
X106071416Y-78753559D01*
X106235077Y-78666540D01*
X106245294Y-78659751D01*
X106388933Y-78542603D01*
X106397637Y-78533959D01*
X106515784Y-78391144D01*
X106522644Y-78380973D01*
X106610804Y-78217924D01*
X106615556Y-78206619D01*
X106651250Y-78091308D01*
X106651456Y-78077205D01*
X106644701Y-78074000D01*
X105402115Y-78074000D01*
X105386876Y-78078475D01*
X105385671Y-78079865D01*
X105384000Y-78087548D01*
X105384000Y-78809885D01*
X104876000Y-78809885D01*
X104876000Y-78092115D01*
X104871525Y-78076876D01*
X104870135Y-78075671D01*
X104862452Y-78074000D01*
X103622076Y-78074000D01*
X103608545Y-78077973D01*
X103607425Y-78085768D01*
X102221331Y-78085768D01*
X102221456Y-78077205D01*
X102214701Y-78074000D01*
X101222115Y-78074000D01*
X101206876Y-78078475D01*
X101205671Y-78079865D01*
X101204000Y-78087548D01*
X101204000Y-78809885D01*
X100696000Y-78809885D01*
X100696000Y-78092115D01*
X100691525Y-78076876D01*
X100690135Y-78075671D01*
X100682452Y-78074000D01*
X99692076Y-78074000D01*
X99678545Y-78077973D01*
X99677425Y-78085768D01*
X98254500Y-78085768D01*
X98254500Y-77562795D01*
X99678544Y-77562795D01*
X99685299Y-77566000D01*
X100677885Y-77566000D01*
X100693124Y-77561525D01*
X100694329Y-77560135D01*
X100696000Y-77552452D01*
X100696000Y-77547885D01*
X101204000Y-77547885D01*
X101208475Y-77563124D01*
X101209865Y-77564329D01*
X101217548Y-77566000D01*
X102207924Y-77566000D01*
X102218839Y-77562795D01*
X103608544Y-77562795D01*
X103615299Y-77566000D01*
X106637924Y-77566000D01*
X106651455Y-77562027D01*
X106652575Y-77554232D01*
X106620862Y-77446479D01*
X106616269Y-77435111D01*
X106530393Y-77270846D01*
X106523679Y-77260585D01*
X106407532Y-77116127D01*
X106398954Y-77107368D01*
X106256961Y-76988222D01*
X106246841Y-76981292D01*
X106084415Y-76891998D01*
X106073142Y-76887166D01*
X105896462Y-76831120D01*
X105884468Y-76828570D01*
X105740239Y-76812393D01*
X105733215Y-76812000D01*
X105241020Y-76812000D01*
X105172899Y-76791998D01*
X105126406Y-76738342D01*
X105116302Y-76668068D01*
X105124610Y-76637786D01*
X105164584Y-76541280D01*
X105184500Y-76390000D01*
X105164584Y-76238720D01*
X105106192Y-76097750D01*
X105101164Y-76091197D01*
X105101162Y-76091194D01*
X105017274Y-75981869D01*
X104991673Y-75915649D01*
X105005938Y-75846100D01*
X105055539Y-75795304D01*
X105069018Y-75788756D01*
X105079643Y-75784355D01*
X105182360Y-75705537D01*
X105248578Y-75679937D01*
X105259062Y-75679500D01*
X107790616Y-75679500D01*
X107858737Y-75699502D01*
X107879711Y-75716405D01*
X107907046Y-75743740D01*
X107941072Y-75806052D01*
X107942871Y-75816380D01*
X107959772Y-75944754D01*
X108015645Y-76079642D01*
X108059710Y-76137068D01*
X108093028Y-76180489D01*
X108104526Y-76195474D01*
X108111076Y-76200500D01*
X108111079Y-76200503D01*
X108213804Y-76279327D01*
X108220357Y-76284355D01*
X108355246Y-76340228D01*
X108500000Y-76359285D01*
X108508188Y-76358207D01*
X108636566Y-76341306D01*
X108644754Y-76340228D01*
X108779643Y-76284355D01*
X108786196Y-76279327D01*
X108888921Y-76200503D01*
X108888924Y-76200500D01*
X108895474Y-76195474D01*
X108906973Y-76180489D01*
X108940290Y-76137068D01*
X108984355Y-76079642D01*
X109040228Y-75944754D01*
X109059285Y-75800000D01*
X109046849Y-75705538D01*
X109041306Y-75663432D01*
X109041305Y-75663430D01*
X109040228Y-75655246D01*
X109011255Y-75585300D01*
X108987515Y-75527986D01*
X108987514Y-75527984D01*
X108984355Y-75520358D01*
X108895474Y-75404526D01*
X108888924Y-75399500D01*
X108888921Y-75399497D01*
X108786196Y-75320673D01*
X108786194Y-75320672D01*
X108779643Y-75315645D01*
X108644754Y-75259772D01*
X108516388Y-75242872D01*
X108451462Y-75214151D01*
X108443740Y-75207046D01*
X108306478Y-75069784D01*
X108291336Y-75051036D01*
X108290221Y-75049811D01*
X108284571Y-75041060D01*
X108276393Y-75034613D01*
X108276391Y-75034611D01*
X108258200Y-75020271D01*
X108253759Y-75016325D01*
X108253697Y-75016398D01*
X108249733Y-75013039D01*
X108246056Y-75009362D01*
X108230308Y-74998108D01*
X108225638Y-74994602D01*
X108185353Y-74962844D01*
X108176719Y-74959812D01*
X108169266Y-74954486D01*
X108120150Y-74939797D01*
X108114508Y-74937964D01*
X108073633Y-74923610D01*
X108073632Y-74923610D01*
X108066149Y-74920982D01*
X108060584Y-74920500D01*
X108057876Y-74920500D01*
X108055242Y-74920386D01*
X108055144Y-74920357D01*
X108055151Y-74920193D01*
X108054447Y-74920149D01*
X108048222Y-74918287D01*
X107994365Y-74920403D01*
X107989418Y-74920500D01*
X105259062Y-74920500D01*
X105190941Y-74900498D01*
X105182374Y-74894474D01*
X105079643Y-74815645D01*
X104944754Y-74759772D01*
X104800000Y-74740715D01*
X104791812Y-74741793D01*
X104663432Y-74758694D01*
X104663430Y-74758695D01*
X104655246Y-74759772D01*
X104632111Y-74769355D01*
X104527986Y-74812485D01*
X104527984Y-74812486D01*
X104520358Y-74815645D01*
X104404526Y-74904526D01*
X104315645Y-75020358D01*
X104312486Y-75027984D01*
X104312485Y-75027986D01*
X104295172Y-75069784D01*
X104259772Y-75155246D01*
X104258695Y-75163430D01*
X104258694Y-75163432D01*
X104253284Y-75204526D01*
X104240715Y-75300000D01*
X104259772Y-75444754D01*
X104262931Y-75452380D01*
X104291089Y-75520358D01*
X104315645Y-75579642D01*
X104320673Y-75586195D01*
X104320675Y-75586198D01*
X104390882Y-75677694D01*
X104416483Y-75743914D01*
X104402218Y-75813463D01*
X104352617Y-75864259D01*
X104339137Y-75870807D01*
X104315382Y-75880646D01*
X104315378Y-75880648D01*
X104307750Y-75883808D01*
X104186696Y-75976696D01*
X104093808Y-76097750D01*
X104035416Y-76238720D01*
X104015500Y-76390000D01*
X104035416Y-76541280D01*
X104093808Y-76682250D01*
X104098836Y-76688803D01*
X104098838Y-76688806D01*
X104141943Y-76744982D01*
X104167544Y-76811202D01*
X104153279Y-76880751D01*
X104101134Y-76932937D01*
X104024931Y-76973455D01*
X104014706Y-76980249D01*
X103871067Y-77097397D01*
X103862363Y-77106041D01*
X103744216Y-77248856D01*
X103737356Y-77259027D01*
X103649196Y-77422076D01*
X103644444Y-77433381D01*
X103608750Y-77548692D01*
X103608544Y-77562795D01*
X102218839Y-77562795D01*
X102221455Y-77562027D01*
X102222575Y-77554232D01*
X102190862Y-77446479D01*
X102186269Y-77435111D01*
X102100393Y-77270846D01*
X102093679Y-77260585D01*
X101977532Y-77116127D01*
X101968954Y-77107368D01*
X101826961Y-76988222D01*
X101816841Y-76981292D01*
X101654415Y-76891998D01*
X101643142Y-76887166D01*
X101466462Y-76831120D01*
X101454468Y-76828570D01*
X101310239Y-76812393D01*
X101303215Y-76812000D01*
X101222115Y-76812000D01*
X101206876Y-76816475D01*
X101205671Y-76817865D01*
X101204000Y-76825548D01*
X101204000Y-77547885D01*
X100696000Y-77547885D01*
X100696000Y-76830115D01*
X100691525Y-76814876D01*
X100690135Y-76813671D01*
X100682452Y-76812000D01*
X100603343Y-76812000D01*
X100597195Y-76812301D01*
X100459397Y-76825812D01*
X100447362Y-76828195D01*
X100269924Y-76881767D01*
X100258584Y-76886441D01*
X100094923Y-76973460D01*
X100084706Y-76980249D01*
X99941067Y-77097397D01*
X99932363Y-77106041D01*
X99814216Y-77248856D01*
X99807356Y-77259027D01*
X99719196Y-77422076D01*
X99714444Y-77433381D01*
X99678750Y-77548692D01*
X99678544Y-77562795D01*
X98254500Y-77562795D01*
X98254500Y-69445768D01*
X99677425Y-69445768D01*
X99709138Y-69553521D01*
X99713731Y-69564889D01*
X99799607Y-69729154D01*
X99806321Y-69739415D01*
X99922468Y-69883873D01*
X99931046Y-69892632D01*
X100073039Y-70011778D01*
X100083159Y-70018708D01*
X100245585Y-70108002D01*
X100256858Y-70112834D01*
X100433538Y-70168880D01*
X100445532Y-70171430D01*
X100589761Y-70187607D01*
X100596785Y-70188000D01*
X100677885Y-70188000D01*
X100693124Y-70183525D01*
X100694329Y-70182135D01*
X100696000Y-70174452D01*
X100696000Y-70169885D01*
X101204000Y-70169885D01*
X101208475Y-70185124D01*
X101209865Y-70186329D01*
X101217548Y-70188000D01*
X101296657Y-70188000D01*
X101302805Y-70187699D01*
X101440603Y-70174188D01*
X101452638Y-70171805D01*
X101630076Y-70118233D01*
X101641416Y-70113559D01*
X101805077Y-70026540D01*
X101815294Y-70019751D01*
X101958933Y-69902603D01*
X101967637Y-69893959D01*
X102085784Y-69751144D01*
X102092644Y-69740973D01*
X102180804Y-69577924D01*
X102185556Y-69566619D01*
X102221250Y-69451308D01*
X102221331Y-69445768D01*
X103607425Y-69445768D01*
X103639138Y-69553521D01*
X103643731Y-69564889D01*
X103729607Y-69729154D01*
X103736321Y-69739415D01*
X103852468Y-69883873D01*
X103861046Y-69892632D01*
X104003039Y-70011778D01*
X104013152Y-70018702D01*
X104102669Y-70067915D01*
X104152728Y-70118261D01*
X104167621Y-70187678D01*
X104141931Y-70255033D01*
X104098837Y-70311195D01*
X104098834Y-70311199D01*
X104093808Y-70317750D01*
X104035416Y-70458720D01*
X104015500Y-70610000D01*
X104035416Y-70761280D01*
X104093808Y-70902250D01*
X104186696Y-71023304D01*
X104307750Y-71116192D01*
X104448720Y-71174584D01*
X104456908Y-71175662D01*
X104556673Y-71188796D01*
X104562020Y-71189500D01*
X104637980Y-71189500D01*
X104643328Y-71188796D01*
X104743092Y-71175662D01*
X104751280Y-71174584D01*
X104892250Y-71116192D01*
X105013304Y-71023304D01*
X105106192Y-70902250D01*
X105164584Y-70761280D01*
X105184500Y-70610000D01*
X105164584Y-70458720D01*
X105124611Y-70362217D01*
X105117022Y-70291629D01*
X105148801Y-70228142D01*
X105209859Y-70191914D01*
X105241020Y-70188000D01*
X105726657Y-70188000D01*
X105732805Y-70187699D01*
X105870603Y-70174188D01*
X105882638Y-70171805D01*
X106060076Y-70118233D01*
X106071416Y-70113559D01*
X106235077Y-70026540D01*
X106245294Y-70019751D01*
X106388933Y-69902603D01*
X106397637Y-69893959D01*
X106515784Y-69751144D01*
X106522644Y-69740973D01*
X106610804Y-69577924D01*
X106615556Y-69566619D01*
X106651250Y-69451308D01*
X106651456Y-69437205D01*
X106644701Y-69434000D01*
X103622076Y-69434000D01*
X103608545Y-69437973D01*
X103607425Y-69445768D01*
X102221331Y-69445768D01*
X102221456Y-69437205D01*
X102214701Y-69434000D01*
X101222115Y-69434000D01*
X101206876Y-69438475D01*
X101205671Y-69439865D01*
X101204000Y-69447548D01*
X101204000Y-70169885D01*
X100696000Y-70169885D01*
X100696000Y-69452115D01*
X100691525Y-69436876D01*
X100690135Y-69435671D01*
X100682452Y-69434000D01*
X99692076Y-69434000D01*
X99678545Y-69437973D01*
X99677425Y-69445768D01*
X98254500Y-69445768D01*
X98254500Y-68380500D01*
X98274502Y-68312379D01*
X98328158Y-68265886D01*
X98380500Y-68254500D01*
X99839687Y-68254500D01*
X99907808Y-68274502D01*
G37*
G04 #@! TD.AperFunction*
M02*
