G04 #@! TF.GenerationSoftware,KiCad,Pcbnew,(6.0.7-1)-1*
G04 #@! TF.CreationDate,2022-12-05T10:56:52+01:00*
G04 #@! TF.ProjectId,ESC-logic,4553432d-6c6f-4676-9963-2e6b69636164,rev?*
G04 #@! TF.SameCoordinates,Original*
G04 #@! TF.FileFunction,Copper,L4,Bot*
G04 #@! TF.FilePolarity,Positive*
%FSLAX46Y46*%
G04 Gerber Fmt 4.6, Leading zero omitted, Abs format (unit mm)*
G04 Created by KiCad (PCBNEW (6.0.7-1)-1) date 2022-12-05 10:56:52*
%MOMM*%
%LPD*%
G01*
G04 APERTURE LIST*
G04 Aperture macros list*
%AMRoundRect*
0 Rectangle with rounded corners*
0 $1 Rounding radius*
0 $2 $3 $4 $5 $6 $7 $8 $9 X,Y pos of 4 corners*
0 Add a 4 corners polygon primitive as box body*
4,1,4,$2,$3,$4,$5,$6,$7,$8,$9,$2,$3,0*
0 Add four circle primitives for the rounded corners*
1,1,$1+$1,$2,$3*
1,1,$1+$1,$4,$5*
1,1,$1+$1,$6,$7*
1,1,$1+$1,$8,$9*
0 Add four rect primitives between the rounded corners*
20,1,$1+$1,$2,$3,$4,$5,0*
20,1,$1+$1,$4,$5,$6,$7,0*
20,1,$1+$1,$6,$7,$8,$9,0*
20,1,$1+$1,$8,$9,$2,$3,0*%
G04 Aperture macros list end*
G04 #@! TA.AperFunction,ComponentPad*
%ADD10O,1.700000X1.700000*%
G04 #@! TD*
G04 #@! TA.AperFunction,ComponentPad*
%ADD11R,1.700000X1.700000*%
G04 #@! TD*
G04 #@! TA.AperFunction,ComponentPad*
%ADD12RoundRect,0.250000X-0.350000X-0.625000X0.350000X-0.625000X0.350000X0.625000X-0.350000X0.625000X0*%
G04 #@! TD*
G04 #@! TA.AperFunction,ComponentPad*
%ADD13O,1.200000X1.750000*%
G04 #@! TD*
G04 #@! TA.AperFunction,ComponentPad*
%ADD14RoundRect,0.250000X-0.625000X0.350000X-0.625000X-0.350000X0.625000X-0.350000X0.625000X0.350000X0*%
G04 #@! TD*
G04 #@! TA.AperFunction,ComponentPad*
%ADD15O,1.750000X1.200000*%
G04 #@! TD*
G04 #@! TA.AperFunction,ComponentPad*
%ADD16O,1.600000X1.000000*%
G04 #@! TD*
G04 #@! TA.AperFunction,ComponentPad*
%ADD17O,2.100000X1.000000*%
G04 #@! TD*
G04 #@! TA.AperFunction,ViaPad*
%ADD18C,0.600000*%
G04 #@! TD*
G04 #@! TA.AperFunction,ViaPad*
%ADD19C,0.800000*%
G04 #@! TD*
G04 #@! TA.AperFunction,Conductor*
%ADD20C,0.250000*%
G04 #@! TD*
G04 #@! TA.AperFunction,Conductor*
%ADD21C,0.500000*%
G04 #@! TD*
G04 #@! TA.AperFunction,Conductor*
%ADD22C,0.300000*%
G04 #@! TD*
G04 #@! TA.AperFunction,Conductor*
%ADD23C,1.000000*%
G04 #@! TD*
G04 APERTURE END LIST*
D10*
X126820000Y-70835000D03*
X126820000Y-73375000D03*
X124280000Y-70835000D03*
X124280000Y-73375000D03*
X121740000Y-70835000D03*
X121740000Y-73375000D03*
X119200000Y-70835000D03*
D11*
X119200000Y-73375000D03*
D12*
X129800000Y-113000000D03*
D13*
X131800000Y-113000000D03*
X133800000Y-113000000D03*
X135800000Y-113000000D03*
X137800000Y-113000000D03*
X139800000Y-113000000D03*
X141800000Y-113000000D03*
D14*
X103250000Y-103250000D03*
D15*
X103250000Y-105250000D03*
X103250000Y-107250000D03*
X103250000Y-109250000D03*
D14*
X103200000Y-81300000D03*
D15*
X103200000Y-83300000D03*
X103200000Y-85300000D03*
X103200000Y-87300000D03*
X103200000Y-89300000D03*
D14*
X103250000Y-94250000D03*
D15*
X103250000Y-96250000D03*
X103250000Y-98250000D03*
D12*
X114900000Y-113000000D03*
D13*
X116900000Y-113000000D03*
X118900000Y-113000000D03*
X120900000Y-113000000D03*
X122900000Y-113000000D03*
X124900000Y-113000000D03*
D11*
X107825000Y-106625000D03*
D10*
X110365000Y-106625000D03*
X107825000Y-109165000D03*
X110365000Y-109165000D03*
D16*
X100950000Y-77820000D03*
D17*
X105130000Y-77820000D03*
X105130000Y-69180000D03*
D16*
X100950000Y-69180000D03*
D11*
X145200000Y-70800000D03*
D10*
X142660000Y-70800000D03*
D11*
X130500000Y-109200000D03*
D10*
X130500000Y-106660000D03*
X133040000Y-109200000D03*
X133040000Y-106660000D03*
X135580000Y-109200000D03*
X135580000Y-106660000D03*
X138120000Y-109200000D03*
X138120000Y-106660000D03*
D18*
X130000000Y-90750000D03*
X131500000Y-87000000D03*
X129750000Y-87250000D03*
X115500000Y-99750000D03*
D19*
X145300000Y-110200000D03*
X138100000Y-90900000D03*
X115725000Y-106525000D03*
D18*
X114750000Y-94250000D03*
D19*
X111000000Y-104250000D03*
D18*
X108400000Y-73900000D03*
D19*
X106100000Y-114900000D03*
D18*
X120700000Y-94700000D03*
X134300000Y-74000000D03*
X133200000Y-98300000D03*
X142800000Y-98000000D03*
D19*
X123000000Y-103500000D03*
X104450500Y-115900000D03*
D18*
X126700000Y-98900000D03*
D19*
X125900000Y-93800000D03*
X114600000Y-68900000D03*
X113262500Y-97862500D03*
X124100000Y-83300000D03*
X137300000Y-100100000D03*
X110000000Y-112600000D03*
D18*
X122700000Y-91200000D03*
X121250000Y-104000000D03*
X108900000Y-90800000D03*
X117400000Y-94200000D03*
X121000000Y-111000000D03*
X118900000Y-86800000D03*
X119599924Y-87625613D03*
X122750000Y-111000000D03*
X125000000Y-111000000D03*
X120600000Y-88000000D03*
X114900000Y-86500000D03*
X122300000Y-87200000D03*
X116500000Y-73400000D03*
X115900000Y-75600000D03*
X121600000Y-87900000D03*
X108500000Y-75800000D03*
X104800000Y-75300000D03*
X141900000Y-87100000D03*
X121606777Y-90550500D03*
X127400000Y-89800000D03*
D20*
X130000000Y-90750000D02*
X133650000Y-87100000D01*
X133650000Y-87100000D02*
X136000000Y-87100000D01*
D21*
X131500000Y-87000000D02*
X131500000Y-78055000D01*
X131500000Y-78055000D02*
X126820000Y-73375000D01*
D22*
X121250000Y-104000000D02*
X121400000Y-103850000D01*
X121400000Y-103850000D02*
X121400000Y-91300000D01*
X121400000Y-91300000D02*
X121500000Y-91200000D01*
X121500000Y-91200000D02*
X122700000Y-91200000D01*
D23*
X145300000Y-113300000D02*
X145300000Y-110200000D01*
X145300000Y-110200000D02*
X145300000Y-102900000D01*
D22*
X136000000Y-87100000D02*
X141900000Y-87100000D01*
D23*
X125700000Y-116800000D02*
X124900000Y-116000000D01*
X132100000Y-116800000D02*
X125700000Y-116800000D01*
X124900000Y-116000000D02*
X124900000Y-113000000D01*
D22*
X129800000Y-113000000D02*
X128550000Y-111750000D01*
X128550000Y-111750000D02*
X110850000Y-111750000D01*
X110850000Y-111750000D02*
X110000000Y-112600000D01*
X125000000Y-111000000D02*
X120000000Y-106000000D01*
X120000000Y-106000000D02*
X120000000Y-88600000D01*
X120000000Y-88600000D02*
X120600000Y-88000000D01*
X122750000Y-111000000D02*
X121000000Y-109250000D01*
X121000000Y-109250000D02*
X121000000Y-107750000D01*
X121000000Y-107750000D02*
X119200000Y-105950000D01*
X119200000Y-105950000D02*
X119200000Y-88025537D01*
X119200000Y-88025537D02*
X119599924Y-87625613D01*
X121000000Y-111000000D02*
X119750000Y-109750000D01*
X119750000Y-109750000D02*
X119750000Y-107500000D01*
X119750000Y-107500000D02*
X118200000Y-105950000D01*
X118200000Y-105950000D02*
X118200000Y-87500000D01*
X118200000Y-87500000D02*
X118900000Y-86800000D01*
D23*
X115725000Y-106525000D02*
X110400000Y-101200000D01*
X101050000Y-98200000D02*
X99725000Y-98200000D01*
X113262500Y-98337500D02*
X113262500Y-97862500D01*
X99100000Y-97575000D02*
X99100000Y-81900000D01*
X124100000Y-84500000D02*
X129000000Y-89400000D01*
X131800000Y-116500000D02*
X131800000Y-113000000D01*
X145300000Y-102900000D02*
X136200000Y-93800000D01*
X106000000Y-81300000D02*
X110400000Y-76900000D01*
X110400000Y-76900000D02*
X110400000Y-71400000D01*
X124100000Y-83300000D02*
X124100000Y-84500000D01*
X143200000Y-116800000D02*
X132100000Y-116800000D01*
X110400000Y-101200000D02*
X107400000Y-98200000D01*
X99100000Y-81900000D02*
X99700000Y-81300000D01*
X129000000Y-89400000D02*
X129000000Y-92700000D01*
X110400000Y-101200000D02*
X113262500Y-98337500D01*
X128400000Y-93800000D02*
X125900000Y-93800000D01*
X131800000Y-113000000D02*
X131800000Y-110500000D01*
X136200000Y-93800000D02*
X128400000Y-93800000D01*
X145300000Y-114700000D02*
X143200000Y-116800000D01*
X145300000Y-113300000D02*
X145300000Y-114700000D01*
X110400000Y-71400000D02*
X112900000Y-68900000D01*
X128400000Y-93300000D02*
X128400000Y-93800000D01*
X112900000Y-68900000D02*
X114600000Y-68900000D01*
X107400000Y-98200000D02*
X101050000Y-98200000D01*
X131800000Y-110500000D02*
X130500000Y-109200000D01*
X103000000Y-81300000D02*
X106000000Y-81300000D01*
X99700000Y-81300000D02*
X103000000Y-81300000D01*
X99725000Y-98200000D02*
X99100000Y-97575000D01*
X132100000Y-116800000D02*
X131800000Y-116500000D01*
X129000000Y-92700000D02*
X128400000Y-93300000D01*
X128300000Y-104900000D02*
X128300000Y-106500000D01*
X128300000Y-111500000D02*
X129800000Y-113000000D01*
X128300000Y-106500000D02*
X128300000Y-111500000D01*
X133100000Y-100100000D02*
X128300000Y-104900000D01*
X137300000Y-100100000D02*
X133100000Y-100100000D01*
D22*
X109000000Y-90900000D02*
X114100000Y-90900000D01*
X114100000Y-90900000D02*
X117400000Y-94200000D01*
X108900000Y-90800000D02*
X109000000Y-90900000D01*
X114900000Y-86500000D02*
X114100000Y-87300000D01*
X114100000Y-87300000D02*
X103000000Y-87300000D01*
X116500000Y-74900000D02*
X116500000Y-73400000D01*
X122300000Y-80700000D02*
X116500000Y-74900000D01*
X122300000Y-87200000D02*
X122300000Y-80700000D01*
X115900000Y-75600000D02*
X121600000Y-81300000D01*
X121600000Y-81300000D02*
X121600000Y-87900000D01*
D20*
X108500000Y-75800000D02*
X108000000Y-75300000D01*
X108000000Y-75300000D02*
X104800000Y-75300000D01*
D22*
X124149500Y-90550500D02*
X124949500Y-90550500D01*
X121606777Y-90550500D02*
X124149500Y-90550500D01*
X124949500Y-90550500D02*
X125600000Y-89900000D01*
X125600000Y-89900000D02*
X125700000Y-89800000D01*
X125700000Y-89800000D02*
X127400000Y-89800000D01*
G04 #@! TA.AperFunction,Conductor*
G36*
X147687621Y-68274502D02*
G01*
X147734114Y-68328158D01*
X147745500Y-68380500D01*
X147745500Y-117619500D01*
X147725498Y-117687621D01*
X147671842Y-117734114D01*
X147619500Y-117745500D01*
X143527441Y-117745500D01*
X143459320Y-117725498D01*
X143412827Y-117671842D01*
X143402723Y-117601568D01*
X143432217Y-117536988D01*
X143488610Y-117499633D01*
X143489498Y-117499345D01*
X143516222Y-117490688D01*
X143522479Y-117486891D01*
X143527926Y-117484398D01*
X143533254Y-117481730D01*
X143540134Y-117479232D01*
X143600849Y-117439426D01*
X143604559Y-117437085D01*
X143661838Y-117402327D01*
X143661840Y-117402325D01*
X143666633Y-117399417D01*
X143674974Y-117392051D01*
X143674996Y-117392076D01*
X143678041Y-117389376D01*
X143681146Y-117386780D01*
X143687268Y-117382766D01*
X143740216Y-117326873D01*
X143742593Y-117324432D01*
X145786301Y-115280723D01*
X145800712Y-115268338D01*
X145818071Y-115255563D01*
X145852089Y-115215521D01*
X145859019Y-115208005D01*
X145864662Y-115202362D01*
X145882214Y-115180178D01*
X145884981Y-115176804D01*
X145927243Y-115127058D01*
X145931982Y-115121480D01*
X145935311Y-115114961D01*
X145938628Y-115109987D01*
X145941763Y-115104911D01*
X145946307Y-115099168D01*
X145977053Y-115033382D01*
X145978985Y-115029430D01*
X146008665Y-114971305D01*
X146011993Y-114964788D01*
X146013732Y-114957680D01*
X146015814Y-114952082D01*
X146017701Y-114946409D01*
X146020800Y-114939779D01*
X146035587Y-114868689D01*
X146036557Y-114864404D01*
X146052476Y-114799346D01*
X146053811Y-114793892D01*
X146054500Y-114782786D01*
X146054534Y-114782788D01*
X146054777Y-114778731D01*
X146055137Y-114774696D01*
X146056628Y-114767528D01*
X146054546Y-114690586D01*
X146054500Y-114687178D01*
X146054500Y-102966766D01*
X146055933Y-102947816D01*
X146058074Y-102933746D01*
X146058074Y-102933740D01*
X146059174Y-102926511D01*
X146054915Y-102874152D01*
X146054500Y-102863937D01*
X146054500Y-102855947D01*
X146051226Y-102827865D01*
X146050795Y-102823509D01*
X146048753Y-102798403D01*
X146044910Y-102751152D01*
X146042653Y-102744186D01*
X146041481Y-102738318D01*
X146040110Y-102732517D01*
X146039262Y-102725246D01*
X146014477Y-102656965D01*
X146013051Y-102652810D01*
X145992945Y-102590744D01*
X145992944Y-102590741D01*
X145990688Y-102583778D01*
X145986889Y-102577518D01*
X145984390Y-102572059D01*
X145981729Y-102566744D01*
X145979232Y-102559866D01*
X145975224Y-102553752D01*
X145975220Y-102553745D01*
X145939408Y-102499124D01*
X145937061Y-102495404D01*
X145902324Y-102438160D01*
X145899416Y-102433367D01*
X145892050Y-102425026D01*
X145892075Y-102425004D01*
X145889385Y-102421970D01*
X145886781Y-102418855D01*
X145882766Y-102412732D01*
X145874577Y-102404974D01*
X145826855Y-102359767D01*
X145824413Y-102357389D01*
X136780724Y-93313700D01*
X136768337Y-93299287D01*
X136759904Y-93287828D01*
X136755563Y-93281929D01*
X136715521Y-93247911D01*
X136708005Y-93240981D01*
X136702362Y-93235338D01*
X136680202Y-93217806D01*
X136676816Y-93215030D01*
X136674146Y-93212761D01*
X136621480Y-93168018D01*
X136614960Y-93164689D01*
X136609982Y-93161369D01*
X136604909Y-93158236D01*
X136599167Y-93153693D01*
X136533383Y-93122947D01*
X136529433Y-93121016D01*
X136471307Y-93091336D01*
X136464788Y-93088007D01*
X136457678Y-93086267D01*
X136452058Y-93084177D01*
X136446407Y-93082297D01*
X136439778Y-93079199D01*
X136432614Y-93077709D01*
X136432611Y-93077708D01*
X136392505Y-93069367D01*
X136368686Y-93064413D01*
X136364427Y-93063449D01*
X136293892Y-93046189D01*
X136288295Y-93045842D01*
X136288290Y-93045841D01*
X136282786Y-93045500D01*
X136282788Y-93045466D01*
X136278729Y-93045223D01*
X136274695Y-93044863D01*
X136267527Y-93043372D01*
X136260210Y-93043570D01*
X136190585Y-93045454D01*
X136187177Y-93045500D01*
X129853716Y-93045500D01*
X129785595Y-93025498D01*
X129739102Y-92971842D01*
X129728998Y-92901568D01*
X129730356Y-92893842D01*
X129735588Y-92868687D01*
X129736559Y-92864397D01*
X129752476Y-92799347D01*
X129753811Y-92793892D01*
X129754500Y-92782786D01*
X129754534Y-92782788D01*
X129754777Y-92778729D01*
X129755137Y-92774695D01*
X129756628Y-92767527D01*
X129754546Y-92690585D01*
X129754500Y-92687177D01*
X129754500Y-91420640D01*
X129774502Y-91352519D01*
X129828158Y-91306026D01*
X129896946Y-91295718D01*
X129991812Y-91308207D01*
X130000000Y-91309285D01*
X130008188Y-91308207D01*
X130136566Y-91291306D01*
X130144754Y-91290228D01*
X130279643Y-91234355D01*
X130289880Y-91226500D01*
X130388921Y-91150503D01*
X130388924Y-91150500D01*
X130395474Y-91145474D01*
X130484355Y-91029642D01*
X130493521Y-91007515D01*
X130522908Y-90936568D01*
X130540228Y-90894754D01*
X130540446Y-90893096D01*
X137440729Y-90893096D01*
X137449421Y-90971824D01*
X137456560Y-91036485D01*
X137458113Y-91050553D01*
X137460723Y-91057684D01*
X137460723Y-91057686D01*
X137508749Y-91188923D01*
X137512553Y-91199319D01*
X137516789Y-91205622D01*
X137516789Y-91205623D01*
X137589677Y-91314091D01*
X137600908Y-91330805D01*
X137606527Y-91335918D01*
X137606528Y-91335919D01*
X137632207Y-91359285D01*
X137718076Y-91437419D01*
X137857293Y-91513008D01*
X138010522Y-91553207D01*
X138094477Y-91554526D01*
X138161319Y-91555576D01*
X138161322Y-91555576D01*
X138168916Y-91555695D01*
X138323332Y-91520329D01*
X138419397Y-91472014D01*
X138458072Y-91452563D01*
X138458075Y-91452561D01*
X138464855Y-91449151D01*
X138470626Y-91444222D01*
X138470629Y-91444220D01*
X138579536Y-91351204D01*
X138579536Y-91351203D01*
X138585314Y-91346269D01*
X138677755Y-91217624D01*
X138736842Y-91070641D01*
X138753300Y-90955000D01*
X138758581Y-90917891D01*
X138758581Y-90917888D01*
X138759162Y-90913807D01*
X138759307Y-90900000D01*
X138740276Y-90742733D01*
X138684280Y-90594546D01*
X138648381Y-90542312D01*
X138598855Y-90470251D01*
X138598854Y-90470249D01*
X138594553Y-90463992D01*
X138476275Y-90358611D01*
X138468889Y-90354700D01*
X138342988Y-90288039D01*
X138342989Y-90288039D01*
X138336274Y-90284484D01*
X138182633Y-90245892D01*
X138175034Y-90245852D01*
X138175033Y-90245852D01*
X138109181Y-90245507D01*
X138024221Y-90245062D01*
X138016841Y-90246834D01*
X138016839Y-90246834D01*
X137877563Y-90280271D01*
X137877560Y-90280272D01*
X137870184Y-90282043D01*
X137729414Y-90354700D01*
X137610039Y-90458838D01*
X137518950Y-90588444D01*
X137516190Y-90595524D01*
X137477307Y-90695254D01*
X137461406Y-90736037D01*
X137460414Y-90743570D01*
X137460414Y-90743571D01*
X137442213Y-90881826D01*
X137440729Y-90893096D01*
X130540446Y-90893096D01*
X130544931Y-90859035D01*
X130557127Y-90766389D01*
X130585849Y-90701462D01*
X130592954Y-90693740D01*
X133770289Y-87516405D01*
X133832601Y-87482379D01*
X133859384Y-87479500D01*
X135827737Y-87479500D01*
X135865590Y-87485496D01*
X135873445Y-87489498D01*
X135883232Y-87491048D01*
X135883235Y-87491049D01*
X135938631Y-87499822D01*
X135968166Y-87504500D01*
X141473518Y-87504500D01*
X141541639Y-87524502D01*
X141550222Y-87530538D01*
X141586281Y-87558207D01*
X141620357Y-87584355D01*
X141755246Y-87640228D01*
X141763434Y-87641306D01*
X141827623Y-87649756D01*
X141900000Y-87659285D01*
X141908188Y-87658207D01*
X142036566Y-87641306D01*
X142044754Y-87640228D01*
X142179643Y-87584355D01*
X142186196Y-87579327D01*
X142288921Y-87500503D01*
X142288924Y-87500500D01*
X142295474Y-87495474D01*
X142306689Y-87480859D01*
X142368348Y-87400503D01*
X142384355Y-87379642D01*
X142395648Y-87352380D01*
X142437069Y-87252380D01*
X142440228Y-87244754D01*
X142459285Y-87100000D01*
X142451000Y-87037068D01*
X142441306Y-86963432D01*
X142441305Y-86963430D01*
X142440228Y-86955246D01*
X142418507Y-86902808D01*
X142387515Y-86827986D01*
X142387514Y-86827984D01*
X142384355Y-86820358D01*
X142329261Y-86748558D01*
X142300501Y-86711077D01*
X142300500Y-86711076D01*
X142295474Y-86704526D01*
X142288924Y-86699500D01*
X142288921Y-86699497D01*
X142186196Y-86620673D01*
X142186194Y-86620672D01*
X142179643Y-86615645D01*
X142044754Y-86559772D01*
X142013209Y-86555619D01*
X141908188Y-86541793D01*
X141900000Y-86540715D01*
X141891812Y-86541793D01*
X141763432Y-86558694D01*
X141763430Y-86558695D01*
X141755246Y-86559772D01*
X141620358Y-86615645D01*
X141550220Y-86669464D01*
X141484001Y-86695063D01*
X141473518Y-86695500D01*
X135968166Y-86695500D01*
X135938631Y-86700178D01*
X135883235Y-86708951D01*
X135883232Y-86708952D01*
X135873445Y-86710502D01*
X135865590Y-86714504D01*
X135827737Y-86720500D01*
X133703924Y-86720500D01*
X133679966Y-86717950D01*
X133678309Y-86717872D01*
X133668124Y-86715679D01*
X133657782Y-86716903D01*
X133657779Y-86716903D01*
X133634779Y-86719626D01*
X133628848Y-86719976D01*
X133628856Y-86720072D01*
X133623680Y-86720500D01*
X133618476Y-86720500D01*
X133599412Y-86723673D01*
X133593566Y-86724504D01*
X133582117Y-86725859D01*
X133542659Y-86730530D01*
X133534407Y-86734493D01*
X133525374Y-86735996D01*
X133516205Y-86740943D01*
X133516203Y-86740944D01*
X133480255Y-86760341D01*
X133475002Y-86763018D01*
X133428769Y-86785219D01*
X133424493Y-86788813D01*
X133422553Y-86790753D01*
X133420641Y-86792507D01*
X133420552Y-86792555D01*
X133420440Y-86792432D01*
X133419904Y-86792905D01*
X133414186Y-86795990D01*
X133407119Y-86803635D01*
X133377584Y-86835586D01*
X133374154Y-86839152D01*
X130056260Y-90157046D01*
X129993948Y-90191072D01*
X129983616Y-90192872D01*
X129944080Y-90198077D01*
X129896945Y-90204282D01*
X129826797Y-90193342D01*
X129773698Y-90146214D01*
X129754500Y-90079360D01*
X129754500Y-89466765D01*
X129755933Y-89447814D01*
X129758074Y-89433744D01*
X129758074Y-89433740D01*
X129759174Y-89426511D01*
X129756652Y-89395500D01*
X129754915Y-89374152D01*
X129754500Y-89363937D01*
X129754500Y-89355947D01*
X129751226Y-89327865D01*
X129750795Y-89323509D01*
X129750564Y-89320668D01*
X129744910Y-89251152D01*
X129742653Y-89244186D01*
X129741481Y-89238318D01*
X129740110Y-89232517D01*
X129739262Y-89225246D01*
X129714477Y-89156965D01*
X129713051Y-89152810D01*
X129692945Y-89090744D01*
X129692944Y-89090741D01*
X129690688Y-89083778D01*
X129686892Y-89077523D01*
X129684391Y-89072059D01*
X129681728Y-89066741D01*
X129679232Y-89059866D01*
X129639421Y-88999144D01*
X129637074Y-88995425D01*
X129599416Y-88933366D01*
X129592050Y-88925026D01*
X129592076Y-88925003D01*
X129589378Y-88921962D01*
X129586781Y-88918856D01*
X129582766Y-88912732D01*
X129526854Y-88859766D01*
X129524413Y-88857389D01*
X124891405Y-84224381D01*
X124857379Y-84162069D01*
X124854500Y-84135286D01*
X124854500Y-83255947D01*
X124839262Y-83125246D01*
X124818793Y-83068853D01*
X124781729Y-82966745D01*
X124779232Y-82959866D01*
X124682766Y-82812732D01*
X124555040Y-82691736D01*
X124402904Y-82603368D01*
X124234520Y-82552370D01*
X124058920Y-82541476D01*
X124051704Y-82542716D01*
X124051702Y-82542716D01*
X123892738Y-82570031D01*
X123892736Y-82570032D01*
X123885523Y-82571271D01*
X123723632Y-82640156D01*
X123581929Y-82744437D01*
X123468018Y-82878520D01*
X123464690Y-82885038D01*
X123391334Y-83028695D01*
X123391332Y-83028700D01*
X123388007Y-83035212D01*
X123386268Y-83042318D01*
X123386267Y-83042321D01*
X123379775Y-83068853D01*
X123346189Y-83206108D01*
X123345500Y-83217214D01*
X123345500Y-84433235D01*
X123344067Y-84452184D01*
X123340826Y-84473489D01*
X123341419Y-84480780D01*
X123341419Y-84480783D01*
X123345085Y-84525848D01*
X123345500Y-84536063D01*
X123345500Y-84544053D01*
X123345925Y-84547697D01*
X123348771Y-84572113D01*
X123349204Y-84576487D01*
X123355090Y-84648847D01*
X123357345Y-84655809D01*
X123358518Y-84661677D01*
X123359890Y-84667484D01*
X123360738Y-84674754D01*
X123385532Y-84743060D01*
X123386940Y-84747163D01*
X123409312Y-84816222D01*
X123413109Y-84822479D01*
X123415602Y-84827926D01*
X123418270Y-84833254D01*
X123420768Y-84840134D01*
X123424782Y-84846256D01*
X123460568Y-84900839D01*
X123462915Y-84904559D01*
X123500583Y-84966633D01*
X123504295Y-84970836D01*
X123507949Y-84974974D01*
X123507924Y-84974996D01*
X123510624Y-84978041D01*
X123513220Y-84981146D01*
X123517234Y-84987268D01*
X123573126Y-85040215D01*
X123575568Y-85042593D01*
X125906421Y-87373445D01*
X127567881Y-89034905D01*
X127601907Y-89097217D01*
X127596842Y-89168032D01*
X127554295Y-89224868D01*
X127487775Y-89249679D01*
X127462340Y-89248922D01*
X127408188Y-89241793D01*
X127400000Y-89240715D01*
X127391812Y-89241793D01*
X127263432Y-89258694D01*
X127263430Y-89258695D01*
X127255246Y-89259772D01*
X127120358Y-89315645D01*
X127050220Y-89369464D01*
X126984001Y-89395063D01*
X126973518Y-89395500D01*
X125668166Y-89395500D01*
X125668162Y-89395501D01*
X125635934Y-89395501D01*
X125626497Y-89398567D01*
X125626498Y-89398567D01*
X125614718Y-89402394D01*
X125595493Y-89407010D01*
X125573445Y-89410502D01*
X125553560Y-89420634D01*
X125535296Y-89428199D01*
X125523507Y-89432030D01*
X125523506Y-89432031D01*
X125514071Y-89435096D01*
X125506047Y-89440926D01*
X125506045Y-89440927D01*
X125496023Y-89448209D01*
X125479164Y-89458541D01*
X125459277Y-89468674D01*
X125436485Y-89491466D01*
X125336486Y-89591464D01*
X124818855Y-90109095D01*
X124756543Y-90143121D01*
X124729760Y-90146000D01*
X122033259Y-90146000D01*
X121965138Y-90125998D01*
X121956555Y-90119962D01*
X121892973Y-90071173D01*
X121892971Y-90071172D01*
X121886420Y-90066145D01*
X121751531Y-90010272D01*
X121606777Y-89991215D01*
X121598589Y-89992293D01*
X121470209Y-90009194D01*
X121470207Y-90009195D01*
X121462023Y-90010272D01*
X121414207Y-90030078D01*
X121334763Y-90062985D01*
X121334761Y-90062986D01*
X121327135Y-90066145D01*
X121268937Y-90110802D01*
X121231553Y-90139488D01*
X121211303Y-90155026D01*
X121122422Y-90270858D01*
X121066549Y-90405746D01*
X121065472Y-90413930D01*
X121065471Y-90413932D01*
X121059559Y-90458838D01*
X121047492Y-90550500D01*
X121048570Y-90558688D01*
X121062360Y-90663432D01*
X121066549Y-90695254D01*
X121069708Y-90702880D01*
X121109937Y-90800000D01*
X121122422Y-90830142D01*
X121127449Y-90836693D01*
X121131303Y-90841716D01*
X121156903Y-90907937D01*
X121142638Y-90977485D01*
X121120435Y-91007515D01*
X121091465Y-91036485D01*
X121091462Y-91036489D01*
X121068674Y-91059277D01*
X121064171Y-91068115D01*
X121058546Y-91079154D01*
X121048216Y-91096011D01*
X121045265Y-91100073D01*
X121035095Y-91114071D01*
X121032030Y-91123504D01*
X121028199Y-91135295D01*
X121020634Y-91153561D01*
X121010502Y-91173445D01*
X121008951Y-91183238D01*
X121007011Y-91195487D01*
X121002395Y-91214713D01*
X120995500Y-91235934D01*
X120995500Y-103434216D01*
X120975498Y-103502337D01*
X120946204Y-103534179D01*
X120854526Y-103604526D01*
X120765645Y-103720358D01*
X120709772Y-103855246D01*
X120690715Y-104000000D01*
X120691793Y-104008188D01*
X120704473Y-104104500D01*
X120709772Y-104144754D01*
X120765645Y-104279642D01*
X120854526Y-104395474D01*
X120861076Y-104400500D01*
X120861079Y-104400503D01*
X120963804Y-104479327D01*
X120970357Y-104484355D01*
X121105246Y-104540228D01*
X121250000Y-104559285D01*
X121258188Y-104558207D01*
X121386566Y-104541306D01*
X121394754Y-104540228D01*
X121529643Y-104484355D01*
X121536196Y-104479327D01*
X121638921Y-104400503D01*
X121638924Y-104400500D01*
X121645474Y-104395474D01*
X121734355Y-104279642D01*
X121790228Y-104144754D01*
X121795528Y-104104500D01*
X121808207Y-104008188D01*
X121809285Y-104000000D01*
X121808207Y-103991810D01*
X121802607Y-103949272D01*
X121803008Y-103918659D01*
X121804500Y-103914066D01*
X121804500Y-91730500D01*
X121824502Y-91662379D01*
X121878158Y-91615886D01*
X121930500Y-91604500D01*
X122273518Y-91604500D01*
X122341639Y-91624502D01*
X122350222Y-91630538D01*
X122391718Y-91662379D01*
X122420357Y-91684355D01*
X122555246Y-91740228D01*
X122700000Y-91759285D01*
X122708188Y-91758207D01*
X122836566Y-91741306D01*
X122844754Y-91740228D01*
X122979643Y-91684355D01*
X122986196Y-91679327D01*
X123088921Y-91600503D01*
X123088924Y-91600500D01*
X123095474Y-91595474D01*
X123125998Y-91555695D01*
X123155754Y-91516916D01*
X123184355Y-91479642D01*
X123199028Y-91444220D01*
X123234209Y-91359285D01*
X123240228Y-91344754D01*
X123242065Y-91330805D01*
X123258207Y-91208188D01*
X123259285Y-91200000D01*
X123254626Y-91164612D01*
X123245784Y-91097446D01*
X123256724Y-91027297D01*
X123303852Y-90974199D01*
X123370706Y-90955000D01*
X125013566Y-90955000D01*
X125022998Y-90951935D01*
X125023000Y-90951935D01*
X125034787Y-90948105D01*
X125054013Y-90943489D01*
X125066262Y-90941549D01*
X125076055Y-90939998D01*
X125095939Y-90929866D01*
X125114205Y-90922301D01*
X125125996Y-90918470D01*
X125135429Y-90915405D01*
X125153489Y-90902284D01*
X125170346Y-90891954D01*
X125190223Y-90881826D01*
X125213011Y-90859038D01*
X125213015Y-90859035D01*
X125830645Y-90241405D01*
X125892957Y-90207379D01*
X125919740Y-90204500D01*
X126973518Y-90204500D01*
X127041639Y-90224502D01*
X127050222Y-90230538D01*
X127102768Y-90270858D01*
X127120357Y-90284355D01*
X127255246Y-90340228D01*
X127400000Y-90359285D01*
X127408188Y-90358207D01*
X127536566Y-90341306D01*
X127544754Y-90340228D01*
X127679643Y-90284355D01*
X127687292Y-90278486D01*
X127788921Y-90200503D01*
X127788924Y-90200500D01*
X127795474Y-90195474D01*
X127826915Y-90154500D01*
X127879328Y-90086193D01*
X127884355Y-90079642D01*
X127887864Y-90071172D01*
X127937069Y-89952380D01*
X127940228Y-89944754D01*
X127959285Y-89800000D01*
X127951078Y-89737660D01*
X127962018Y-89667511D01*
X128009146Y-89614413D01*
X128077500Y-89595223D01*
X128145378Y-89616034D01*
X128165095Y-89632119D01*
X128208595Y-89675619D01*
X128242621Y-89737931D01*
X128245500Y-89764714D01*
X128245500Y-92335284D01*
X128225498Y-92403405D01*
X128208596Y-92424379D01*
X127913697Y-92719279D01*
X127899283Y-92731666D01*
X127887823Y-92740099D01*
X127887820Y-92740102D01*
X127881929Y-92744437D01*
X127847909Y-92784481D01*
X127840994Y-92791981D01*
X127835338Y-92797638D01*
X127817806Y-92819798D01*
X127815039Y-92823173D01*
X127768018Y-92878520D01*
X127764689Y-92885040D01*
X127761369Y-92890018D01*
X127758236Y-92895091D01*
X127753693Y-92900833D01*
X127750593Y-92907466D01*
X127722947Y-92966617D01*
X127721014Y-92970572D01*
X127717831Y-92976805D01*
X127669036Y-93028376D01*
X127605616Y-93045500D01*
X125855947Y-93045500D01*
X125764050Y-93056214D01*
X125732518Y-93059890D01*
X125732516Y-93059890D01*
X125725246Y-93060738D01*
X125718369Y-93063234D01*
X125718366Y-93063235D01*
X125566745Y-93118271D01*
X125559866Y-93120768D01*
X125553749Y-93124778D01*
X125553746Y-93124780D01*
X125506818Y-93155548D01*
X125412732Y-93217234D01*
X125291736Y-93344960D01*
X125203368Y-93497096D01*
X125152370Y-93665480D01*
X125141476Y-93841080D01*
X125171271Y-94014477D01*
X125240156Y-94176368D01*
X125344437Y-94318071D01*
X125478520Y-94431982D01*
X125522034Y-94454201D01*
X125628695Y-94508666D01*
X125628700Y-94508668D01*
X125635212Y-94511993D01*
X125642318Y-94513732D01*
X125642321Y-94513733D01*
X125723710Y-94533648D01*
X125806108Y-94553811D01*
X125811710Y-94554159D01*
X125811713Y-94554159D01*
X125815275Y-94554380D01*
X125815284Y-94554380D01*
X125817214Y-94554500D01*
X128372316Y-94554500D01*
X128380118Y-94554742D01*
X128441080Y-94558524D01*
X128453908Y-94556320D01*
X128475244Y-94554500D01*
X135835285Y-94554500D01*
X135903406Y-94574502D01*
X135924380Y-94591405D01*
X144508595Y-103175619D01*
X144542621Y-103237931D01*
X144545500Y-103264714D01*
X144545500Y-114335286D01*
X144525498Y-114403407D01*
X144508595Y-114424381D01*
X142924381Y-116008595D01*
X142862069Y-116042621D01*
X142835286Y-116045500D01*
X132680500Y-116045500D01*
X132612379Y-116025498D01*
X132565886Y-115971842D01*
X132554500Y-115919500D01*
X132554500Y-113796439D01*
X132574502Y-113728318D01*
X132628158Y-113681825D01*
X132698432Y-113671721D01*
X132763012Y-113701215D01*
X132792516Y-113738747D01*
X132860619Y-113870978D01*
X132867069Y-113881024D01*
X132990262Y-114037857D01*
X132998499Y-114046506D01*
X133149123Y-114177212D01*
X133158847Y-114184147D01*
X133331467Y-114284010D01*
X133342331Y-114288984D01*
X133530727Y-114354407D01*
X133531716Y-114354648D01*
X133542008Y-114353180D01*
X133546000Y-114339615D01*
X133546000Y-114335402D01*
X134054000Y-114335402D01*
X134057973Y-114348933D01*
X134067399Y-114350288D01*
X134156537Y-114328806D01*
X134167832Y-114324917D01*
X134349382Y-114242371D01*
X134359724Y-114236424D01*
X134522397Y-114121032D01*
X134531425Y-114113239D01*
X134669342Y-113969169D01*
X134676738Y-113959804D01*
X134784921Y-113792259D01*
X134790417Y-113781655D01*
X134823155Y-113700421D01*
X134867170Y-113644715D01*
X134934315Y-113621648D01*
X135003271Y-113638545D01*
X135048024Y-113682625D01*
X135115351Y-113794677D01*
X135120039Y-113799634D01*
X135120041Y-113799637D01*
X135197006Y-113881024D01*
X135242916Y-113929572D01*
X135396471Y-114033928D01*
X135402805Y-114036461D01*
X135402808Y-114036463D01*
X135562516Y-114100342D01*
X135562521Y-114100343D01*
X135568853Y-114102876D01*
X135575580Y-114103990D01*
X135575585Y-114103991D01*
X135745282Y-114132084D01*
X135745285Y-114132084D01*
X135752019Y-114133199D01*
X135758836Y-114132842D01*
X135758840Y-114132842D01*
X135909920Y-114124923D01*
X135937424Y-114123482D01*
X135943996Y-114121672D01*
X135944001Y-114121671D01*
X136109835Y-114075992D01*
X136116417Y-114074179D01*
X136280648Y-113987590D01*
X136422454Y-113867755D01*
X136426602Y-113862330D01*
X136531075Y-113725685D01*
X136531077Y-113725681D01*
X136535219Y-113720264D01*
X136544472Y-113700421D01*
X136610802Y-113558177D01*
X136610803Y-113558174D01*
X136613682Y-113552000D01*
X136654182Y-113370812D01*
X136654500Y-113365124D01*
X136654500Y-113321385D01*
X136945500Y-113321385D01*
X136960512Y-113459573D01*
X137019730Y-113635535D01*
X137115351Y-113794677D01*
X137120039Y-113799634D01*
X137120041Y-113799637D01*
X137197006Y-113881024D01*
X137242916Y-113929572D01*
X137396471Y-114033928D01*
X137402805Y-114036461D01*
X137402808Y-114036463D01*
X137562516Y-114100342D01*
X137562521Y-114100343D01*
X137568853Y-114102876D01*
X137575580Y-114103990D01*
X137575585Y-114103991D01*
X137745282Y-114132084D01*
X137745285Y-114132084D01*
X137752019Y-114133199D01*
X137758836Y-114132842D01*
X137758840Y-114132842D01*
X137909920Y-114124923D01*
X137937424Y-114123482D01*
X137943996Y-114121672D01*
X137944001Y-114121671D01*
X138109835Y-114075992D01*
X138116417Y-114074179D01*
X138280648Y-113987590D01*
X138422454Y-113867755D01*
X138426602Y-113862330D01*
X138531075Y-113725685D01*
X138531077Y-113725681D01*
X138535219Y-113720264D01*
X138544472Y-113700421D01*
X138610802Y-113558177D01*
X138610803Y-113558174D01*
X138613682Y-113552000D01*
X138654182Y-113370812D01*
X138654500Y-113365124D01*
X138654500Y-113321385D01*
X138945500Y-113321385D01*
X138960512Y-113459573D01*
X139019730Y-113635535D01*
X139115351Y-113794677D01*
X139120039Y-113799634D01*
X139120041Y-113799637D01*
X139197006Y-113881024D01*
X139242916Y-113929572D01*
X139396471Y-114033928D01*
X139402805Y-114036461D01*
X139402808Y-114036463D01*
X139562516Y-114100342D01*
X139562521Y-114100343D01*
X139568853Y-114102876D01*
X139575580Y-114103990D01*
X139575585Y-114103991D01*
X139745282Y-114132084D01*
X139745285Y-114132084D01*
X139752019Y-114133199D01*
X139758836Y-114132842D01*
X139758840Y-114132842D01*
X139909920Y-114124923D01*
X139937424Y-114123482D01*
X139943996Y-114121672D01*
X139944001Y-114121671D01*
X140109835Y-114075992D01*
X140116417Y-114074179D01*
X140280648Y-113987590D01*
X140422454Y-113867755D01*
X140426602Y-113862330D01*
X140531075Y-113725685D01*
X140531077Y-113725681D01*
X140535219Y-113720264D01*
X140544472Y-113700421D01*
X140610802Y-113558177D01*
X140610803Y-113558174D01*
X140613682Y-113552000D01*
X140654182Y-113370812D01*
X140654500Y-113365124D01*
X140654500Y-113321385D01*
X140945500Y-113321385D01*
X140960512Y-113459573D01*
X141019730Y-113635535D01*
X141115351Y-113794677D01*
X141120039Y-113799634D01*
X141120041Y-113799637D01*
X141197006Y-113881024D01*
X141242916Y-113929572D01*
X141396471Y-114033928D01*
X141402805Y-114036461D01*
X141402808Y-114036463D01*
X141562516Y-114100342D01*
X141562521Y-114100343D01*
X141568853Y-114102876D01*
X141575580Y-114103990D01*
X141575585Y-114103991D01*
X141745282Y-114132084D01*
X141745285Y-114132084D01*
X141752019Y-114133199D01*
X141758836Y-114132842D01*
X141758840Y-114132842D01*
X141909920Y-114124923D01*
X141937424Y-114123482D01*
X141943996Y-114121672D01*
X141944001Y-114121671D01*
X142109835Y-114075992D01*
X142116417Y-114074179D01*
X142280648Y-113987590D01*
X142422454Y-113867755D01*
X142426602Y-113862330D01*
X142531075Y-113725685D01*
X142531077Y-113725681D01*
X142535219Y-113720264D01*
X142544472Y-113700421D01*
X142610802Y-113558177D01*
X142610803Y-113558174D01*
X142613682Y-113552000D01*
X142654182Y-113370812D01*
X142654500Y-113365124D01*
X142654500Y-112678615D01*
X142639488Y-112540427D01*
X142580270Y-112364465D01*
X142484649Y-112205323D01*
X142471488Y-112191405D01*
X142361773Y-112075386D01*
X142361771Y-112075384D01*
X142357084Y-112070428D01*
X142203529Y-111966072D01*
X142197195Y-111963539D01*
X142197192Y-111963537D01*
X142037484Y-111899658D01*
X142037479Y-111899657D01*
X142031147Y-111897124D01*
X142024420Y-111896010D01*
X142024415Y-111896009D01*
X141854718Y-111867916D01*
X141854715Y-111867916D01*
X141847981Y-111866801D01*
X141841164Y-111867158D01*
X141841160Y-111867158D01*
X141690080Y-111875077D01*
X141662576Y-111876518D01*
X141656004Y-111878328D01*
X141655999Y-111878329D01*
X141545700Y-111908711D01*
X141483583Y-111925821D01*
X141319352Y-112012410D01*
X141177546Y-112132245D01*
X141173399Y-112137668D01*
X141173398Y-112137670D01*
X141068925Y-112274315D01*
X141068923Y-112274319D01*
X141064781Y-112279736D01*
X141061899Y-112285916D01*
X141061898Y-112285918D01*
X141022254Y-112370936D01*
X140986318Y-112448000D01*
X140984832Y-112454648D01*
X140984831Y-112454651D01*
X140971787Y-112513007D01*
X140945818Y-112629188D01*
X140945500Y-112634876D01*
X140945500Y-113321385D01*
X140654500Y-113321385D01*
X140654500Y-112678615D01*
X140639488Y-112540427D01*
X140580270Y-112364465D01*
X140484649Y-112205323D01*
X140471488Y-112191405D01*
X140361773Y-112075386D01*
X140361771Y-112075384D01*
X140357084Y-112070428D01*
X140203529Y-111966072D01*
X140197195Y-111963539D01*
X140197192Y-111963537D01*
X140037484Y-111899658D01*
X140037479Y-111899657D01*
X140031147Y-111897124D01*
X140024420Y-111896010D01*
X140024415Y-111896009D01*
X139854718Y-111867916D01*
X139854715Y-111867916D01*
X139847981Y-111866801D01*
X139841164Y-111867158D01*
X139841160Y-111867158D01*
X139690080Y-111875077D01*
X139662576Y-111876518D01*
X139656004Y-111878328D01*
X139655999Y-111878329D01*
X139545700Y-111908711D01*
X139483583Y-111925821D01*
X139319352Y-112012410D01*
X139177546Y-112132245D01*
X139173399Y-112137668D01*
X139173398Y-112137670D01*
X139068925Y-112274315D01*
X139068923Y-112274319D01*
X139064781Y-112279736D01*
X139061899Y-112285916D01*
X139061898Y-112285918D01*
X139022254Y-112370936D01*
X138986318Y-112448000D01*
X138984832Y-112454648D01*
X138984831Y-112454651D01*
X138971787Y-112513007D01*
X138945818Y-112629188D01*
X138945500Y-112634876D01*
X138945500Y-113321385D01*
X138654500Y-113321385D01*
X138654500Y-112678615D01*
X138639488Y-112540427D01*
X138580270Y-112364465D01*
X138484649Y-112205323D01*
X138471488Y-112191405D01*
X138361773Y-112075386D01*
X138361771Y-112075384D01*
X138357084Y-112070428D01*
X138203529Y-111966072D01*
X138197195Y-111963539D01*
X138197192Y-111963537D01*
X138037484Y-111899658D01*
X138037479Y-111899657D01*
X138031147Y-111897124D01*
X138024420Y-111896010D01*
X138024415Y-111896009D01*
X137854718Y-111867916D01*
X137854715Y-111867916D01*
X137847981Y-111866801D01*
X137841164Y-111867158D01*
X137841160Y-111867158D01*
X137690080Y-111875077D01*
X137662576Y-111876518D01*
X137656004Y-111878328D01*
X137655999Y-111878329D01*
X137545700Y-111908711D01*
X137483583Y-111925821D01*
X137319352Y-112012410D01*
X137177546Y-112132245D01*
X137173399Y-112137668D01*
X137173398Y-112137670D01*
X137068925Y-112274315D01*
X137068923Y-112274319D01*
X137064781Y-112279736D01*
X137061899Y-112285916D01*
X137061898Y-112285918D01*
X137022254Y-112370936D01*
X136986318Y-112448000D01*
X136984832Y-112454648D01*
X136984831Y-112454651D01*
X136971787Y-112513007D01*
X136945818Y-112629188D01*
X136945500Y-112634876D01*
X136945500Y-113321385D01*
X136654500Y-113321385D01*
X136654500Y-112678615D01*
X136639488Y-112540427D01*
X136580270Y-112364465D01*
X136484649Y-112205323D01*
X136471488Y-112191405D01*
X136361773Y-112075386D01*
X136361771Y-112075384D01*
X136357084Y-112070428D01*
X136203529Y-111966072D01*
X136197195Y-111963539D01*
X136197192Y-111963537D01*
X136037484Y-111899658D01*
X136037479Y-111899657D01*
X136031147Y-111897124D01*
X136024420Y-111896010D01*
X136024415Y-111896009D01*
X135854718Y-111867916D01*
X135854715Y-111867916D01*
X135847981Y-111866801D01*
X135841164Y-111867158D01*
X135841160Y-111867158D01*
X135690080Y-111875077D01*
X135662576Y-111876518D01*
X135656004Y-111878328D01*
X135655999Y-111878329D01*
X135545700Y-111908711D01*
X135483583Y-111925821D01*
X135319352Y-112012410D01*
X135177546Y-112132245D01*
X135173399Y-112137668D01*
X135173398Y-112137670D01*
X135068925Y-112274315D01*
X135068923Y-112274319D01*
X135064781Y-112279736D01*
X135061898Y-112285919D01*
X135055619Y-112299383D01*
X135008701Y-112352667D01*
X134940423Y-112372127D01*
X134872464Y-112351584D01*
X134829409Y-112303823D01*
X134739381Y-112129022D01*
X134732931Y-112118976D01*
X134609738Y-111962143D01*
X134601501Y-111953494D01*
X134450877Y-111822788D01*
X134441153Y-111815853D01*
X134268533Y-111715990D01*
X134257669Y-111711016D01*
X134069273Y-111645593D01*
X134068284Y-111645352D01*
X134057992Y-111646820D01*
X134054000Y-111660385D01*
X134054000Y-114335402D01*
X133546000Y-114335402D01*
X133546000Y-111664598D01*
X133542027Y-111651067D01*
X133532601Y-111649712D01*
X133443463Y-111671194D01*
X133432168Y-111675083D01*
X133250618Y-111757629D01*
X133240276Y-111763576D01*
X133077603Y-111878968D01*
X133068575Y-111886761D01*
X132930658Y-112030831D01*
X132923262Y-112040196D01*
X132815079Y-112207741D01*
X132809583Y-112218345D01*
X132797366Y-112248659D01*
X132753351Y-112304365D01*
X132686206Y-112327432D01*
X132617249Y-112310535D01*
X132568374Y-112259040D01*
X132554500Y-112201561D01*
X132554500Y-110566765D01*
X132555933Y-110547815D01*
X132558074Y-110533745D01*
X132558074Y-110533741D01*
X132559174Y-110526511D01*
X132558569Y-110519065D01*
X132554915Y-110474152D01*
X132554500Y-110463937D01*
X132554500Y-110455947D01*
X132551560Y-110430729D01*
X132551229Y-110427887D01*
X132550796Y-110423512D01*
X132547988Y-110388990D01*
X132562401Y-110319472D01*
X132612111Y-110268782D01*
X132681335Y-110253014D01*
X132701381Y-110255882D01*
X132889579Y-110298467D01*
X132889584Y-110298468D01*
X132895216Y-110299742D01*
X132900987Y-110299969D01*
X132900989Y-110299969D01*
X132960756Y-110302317D01*
X133098053Y-110307712D01*
X133205348Y-110292155D01*
X133293231Y-110279413D01*
X133293236Y-110279412D01*
X133298945Y-110278584D01*
X133304409Y-110276729D01*
X133304414Y-110276728D01*
X133485693Y-110215192D01*
X133485698Y-110215190D01*
X133491165Y-110213334D01*
X133499276Y-110208792D01*
X133586639Y-110159866D01*
X133668276Y-110114147D01*
X133714801Y-110075453D01*
X133795696Y-110008172D01*
X133824345Y-109984345D01*
X133897457Y-109896438D01*
X133950453Y-109832718D01*
X133950455Y-109832715D01*
X133954147Y-109828276D01*
X134053334Y-109651165D01*
X134055190Y-109645698D01*
X134055192Y-109645693D01*
X134116728Y-109464414D01*
X134116729Y-109464409D01*
X134118584Y-109458945D01*
X134119412Y-109453236D01*
X134119413Y-109453231D01*
X134141029Y-109304147D01*
X134147712Y-109258053D01*
X134149232Y-109200000D01*
X134146564Y-109170964D01*
X134471148Y-109170964D01*
X134484424Y-109373522D01*
X134485845Y-109379118D01*
X134485846Y-109379123D01*
X134529513Y-109551059D01*
X134534392Y-109570269D01*
X134536809Y-109575512D01*
X134574010Y-109656208D01*
X134619377Y-109754616D01*
X134622710Y-109759332D01*
X134711798Y-109885389D01*
X134736533Y-109920389D01*
X134740675Y-109924424D01*
X134815935Y-109997738D01*
X134881938Y-110062035D01*
X135050720Y-110174812D01*
X135056023Y-110177090D01*
X135056026Y-110177092D01*
X135212721Y-110244413D01*
X135237228Y-110254942D01*
X135298392Y-110268782D01*
X135429579Y-110298467D01*
X135429584Y-110298468D01*
X135435216Y-110299742D01*
X135440987Y-110299969D01*
X135440989Y-110299969D01*
X135500756Y-110302317D01*
X135638053Y-110307712D01*
X135745348Y-110292155D01*
X135833231Y-110279413D01*
X135833236Y-110279412D01*
X135838945Y-110278584D01*
X135844409Y-110276729D01*
X135844414Y-110276728D01*
X136025693Y-110215192D01*
X136025698Y-110215190D01*
X136031165Y-110213334D01*
X136039276Y-110208792D01*
X136126639Y-110159866D01*
X136208276Y-110114147D01*
X136254801Y-110075453D01*
X136335696Y-110008172D01*
X136364345Y-109984345D01*
X136437457Y-109896438D01*
X136490453Y-109832718D01*
X136490455Y-109832715D01*
X136494147Y-109828276D01*
X136593334Y-109651165D01*
X136595720Y-109644135D01*
X136596170Y-109643496D01*
X136597541Y-109640416D01*
X136598146Y-109640685D01*
X136636553Y-109586059D01*
X136702305Y-109559278D01*
X136772098Y-109572295D01*
X136823773Y-109620980D01*
X136831777Y-109637229D01*
X136901770Y-109809603D01*
X136906413Y-109818794D01*
X137017694Y-110000388D01*
X137023777Y-110008699D01*
X137163213Y-110169667D01*
X137170580Y-110176883D01*
X137334434Y-110312916D01*
X137342881Y-110318831D01*
X137526756Y-110426279D01*
X137536042Y-110430729D01*
X137735001Y-110506703D01*
X137744899Y-110509579D01*
X137848250Y-110530606D01*
X137862299Y-110529410D01*
X137866000Y-110519065D01*
X137866000Y-110518517D01*
X138374000Y-110518517D01*
X138378064Y-110532359D01*
X138391478Y-110534393D01*
X138398184Y-110533534D01*
X138408262Y-110531392D01*
X138612255Y-110470191D01*
X138621842Y-110466433D01*
X138813095Y-110372739D01*
X138821945Y-110367464D01*
X138995328Y-110243792D01*
X139003200Y-110237139D01*
X139154052Y-110086812D01*
X139160730Y-110078965D01*
X139285003Y-109906020D01*
X139290313Y-109897183D01*
X139384670Y-109706267D01*
X139388469Y-109696672D01*
X139450377Y-109492910D01*
X139452555Y-109482837D01*
X139453986Y-109471962D01*
X139451775Y-109457778D01*
X139438617Y-109454000D01*
X138392115Y-109454000D01*
X138376876Y-109458475D01*
X138375671Y-109459865D01*
X138374000Y-109467548D01*
X138374000Y-110518517D01*
X137866000Y-110518517D01*
X137866000Y-109072000D01*
X137886002Y-109003879D01*
X137939658Y-108957386D01*
X137992000Y-108946000D01*
X139438344Y-108946000D01*
X139451875Y-108942027D01*
X139453180Y-108932947D01*
X139411214Y-108765875D01*
X139407894Y-108756124D01*
X139322972Y-108560814D01*
X139318105Y-108551739D01*
X139202426Y-108372926D01*
X139196136Y-108364757D01*
X139052806Y-108207240D01*
X139045273Y-108200215D01*
X138878139Y-108068222D01*
X138869552Y-108062517D01*
X138683117Y-107959599D01*
X138673705Y-107955369D01*
X138559391Y-107914888D01*
X138501855Y-107873294D01*
X138475939Y-107807196D01*
X138489873Y-107737580D01*
X138539232Y-107686549D01*
X138560943Y-107676804D01*
X138571165Y-107673334D01*
X138585374Y-107665377D01*
X138649138Y-107629667D01*
X138748276Y-107574147D01*
X138757571Y-107566417D01*
X138875696Y-107468172D01*
X138904345Y-107444345D01*
X138976837Y-107357183D01*
X139030453Y-107292718D01*
X139030455Y-107292715D01*
X139034147Y-107288276D01*
X139114985Y-107143929D01*
X139130510Y-107116208D01*
X139130511Y-107116206D01*
X139133334Y-107111165D01*
X139135190Y-107105698D01*
X139135192Y-107105693D01*
X139196728Y-106924414D01*
X139196729Y-106924409D01*
X139198584Y-106918945D01*
X139199412Y-106913236D01*
X139199413Y-106913231D01*
X139225655Y-106732240D01*
X139227712Y-106718053D01*
X139229232Y-106660000D01*
X139215888Y-106514781D01*
X139211187Y-106463613D01*
X139211186Y-106463610D01*
X139210658Y-106457859D01*
X139204583Y-106436318D01*
X139157125Y-106268046D01*
X139157124Y-106268044D01*
X139155557Y-106262487D01*
X139144978Y-106241033D01*
X139068331Y-106085609D01*
X139065776Y-106080428D01*
X138944320Y-105917779D01*
X138795258Y-105779987D01*
X138790375Y-105776906D01*
X138790371Y-105776903D01*
X138628464Y-105674748D01*
X138623581Y-105671667D01*
X138435039Y-105596446D01*
X138429379Y-105595320D01*
X138429375Y-105595319D01*
X138241613Y-105557971D01*
X138241610Y-105557971D01*
X138235946Y-105556844D01*
X138230171Y-105556768D01*
X138230167Y-105556768D01*
X138128793Y-105555441D01*
X138032971Y-105554187D01*
X138027274Y-105555166D01*
X138027273Y-105555166D01*
X137997285Y-105560319D01*
X137832910Y-105588564D01*
X137642463Y-105658824D01*
X137468010Y-105762612D01*
X137463670Y-105766418D01*
X137463666Y-105766421D01*
X137350129Y-105865991D01*
X137315392Y-105896455D01*
X137189720Y-106055869D01*
X137187031Y-106060980D01*
X137187029Y-106060983D01*
X137158765Y-106114705D01*
X137095203Y-106235515D01*
X137035007Y-106429378D01*
X137011148Y-106630964D01*
X137024424Y-106833522D01*
X137025845Y-106839118D01*
X137025846Y-106839123D01*
X137069883Y-107012516D01*
X137074392Y-107030269D01*
X137076809Y-107035512D01*
X137112336Y-107112576D01*
X137159377Y-107214616D01*
X137169067Y-107228327D01*
X137251798Y-107345389D01*
X137276533Y-107380389D01*
X137421938Y-107522035D01*
X137590720Y-107634812D01*
X137596023Y-107637090D01*
X137596026Y-107637092D01*
X137692954Y-107678735D01*
X137747647Y-107724003D01*
X137769184Y-107791654D01*
X137750727Y-107860210D01*
X137698136Y-107907904D01*
X137682361Y-107914268D01*
X137596868Y-107942212D01*
X137587359Y-107946209D01*
X137398463Y-108044542D01*
X137389738Y-108050036D01*
X137219433Y-108177905D01*
X137211726Y-108184748D01*
X137064590Y-108338717D01*
X137058104Y-108346727D01*
X136938098Y-108522649D01*
X136933000Y-108531623D01*
X136843338Y-108724783D01*
X136839777Y-108734464D01*
X136835291Y-108750640D01*
X136797813Y-108810939D01*
X136733684Y-108841403D01*
X136663266Y-108832360D01*
X136608915Y-108786682D01*
X136600867Y-108772698D01*
X136528331Y-108625609D01*
X136525776Y-108620428D01*
X136404320Y-108457779D01*
X136255258Y-108319987D01*
X136250375Y-108316906D01*
X136250371Y-108316903D01*
X136088464Y-108214748D01*
X136083581Y-108211667D01*
X135895039Y-108136446D01*
X135889379Y-108135320D01*
X135889375Y-108135319D01*
X135701613Y-108097971D01*
X135701610Y-108097971D01*
X135695946Y-108096844D01*
X135690171Y-108096768D01*
X135690167Y-108096768D01*
X135588793Y-108095441D01*
X135492971Y-108094187D01*
X135487274Y-108095166D01*
X135487273Y-108095166D01*
X135359271Y-108117161D01*
X135292910Y-108128564D01*
X135102463Y-108198824D01*
X134928010Y-108302612D01*
X134923670Y-108306418D01*
X134923666Y-108306421D01*
X134810129Y-108405991D01*
X134775392Y-108436455D01*
X134649720Y-108595869D01*
X134647031Y-108600980D01*
X134647029Y-108600983D01*
X134634073Y-108625609D01*
X134555203Y-108775515D01*
X134495007Y-108969378D01*
X134471148Y-109170964D01*
X134146564Y-109170964D01*
X134130658Y-108997859D01*
X134125826Y-108980727D01*
X134077125Y-108808046D01*
X134077124Y-108808044D01*
X134075557Y-108802487D01*
X134065192Y-108781467D01*
X133988331Y-108625609D01*
X133985776Y-108620428D01*
X133864320Y-108457779D01*
X133715258Y-108319987D01*
X133710375Y-108316906D01*
X133710371Y-108316903D01*
X133548464Y-108214748D01*
X133543581Y-108211667D01*
X133355039Y-108136446D01*
X133349379Y-108135320D01*
X133349375Y-108135319D01*
X133161613Y-108097971D01*
X133161610Y-108097971D01*
X133155946Y-108096844D01*
X133150171Y-108096768D01*
X133150167Y-108096768D01*
X133048793Y-108095441D01*
X132952971Y-108094187D01*
X132947274Y-108095166D01*
X132947273Y-108095166D01*
X132819271Y-108117161D01*
X132752910Y-108128564D01*
X132562463Y-108198824D01*
X132388010Y-108302612D01*
X132383670Y-108306418D01*
X132383666Y-108306421D01*
X132270129Y-108405991D01*
X132235392Y-108436455D01*
X132109720Y-108595869D01*
X132107031Y-108600980D01*
X132107029Y-108600983D01*
X132094073Y-108625609D01*
X132015203Y-108775515D01*
X131955007Y-108969378D01*
X131931148Y-109170964D01*
X131931526Y-109176730D01*
X131931526Y-109176731D01*
X131936829Y-109257645D01*
X131921325Y-109326928D01*
X131870825Y-109376830D01*
X131801362Y-109391508D01*
X131734991Y-109366302D01*
X131722004Y-109354980D01*
X131641405Y-109274381D01*
X131607379Y-109212069D01*
X131604500Y-109185286D01*
X131604499Y-108331123D01*
X131604499Y-108324934D01*
X131593098Y-108267612D01*
X131592156Y-108262874D01*
X131592155Y-108262872D01*
X131589734Y-108250699D01*
X131564290Y-108212619D01*
X131540377Y-108176832D01*
X131533484Y-108166516D01*
X131449301Y-108110266D01*
X131375067Y-108095500D01*
X131200334Y-108095500D01*
X131132213Y-108075498D01*
X131085720Y-108021842D01*
X131075616Y-107951568D01*
X131105110Y-107886988D01*
X131144902Y-107856348D01*
X131193100Y-107832736D01*
X131201945Y-107827464D01*
X131375328Y-107703792D01*
X131383200Y-107697139D01*
X131534052Y-107546812D01*
X131540730Y-107538965D01*
X131665003Y-107366020D01*
X131670313Y-107357183D01*
X131764670Y-107166267D01*
X131768469Y-107156672D01*
X131785066Y-107102047D01*
X131824007Y-107042683D01*
X131888862Y-107013796D01*
X131959038Y-107024558D01*
X132012256Y-107071551D01*
X132020048Y-107085922D01*
X132079377Y-107214616D01*
X132089067Y-107228327D01*
X132171798Y-107345389D01*
X132196533Y-107380389D01*
X132341938Y-107522035D01*
X132510720Y-107634812D01*
X132516023Y-107637090D01*
X132516026Y-107637092D01*
X132680693Y-107707838D01*
X132697228Y-107714942D01*
X132756231Y-107728293D01*
X132889579Y-107758467D01*
X132889584Y-107758468D01*
X132895216Y-107759742D01*
X132900987Y-107759969D01*
X132900989Y-107759969D01*
X132960756Y-107762317D01*
X133098053Y-107767712D01*
X133198499Y-107753148D01*
X133293231Y-107739413D01*
X133293236Y-107739412D01*
X133298945Y-107738584D01*
X133304409Y-107736729D01*
X133304414Y-107736728D01*
X133485693Y-107675192D01*
X133485698Y-107675190D01*
X133491165Y-107673334D01*
X133505374Y-107665377D01*
X133569138Y-107629667D01*
X133668276Y-107574147D01*
X133677571Y-107566417D01*
X133795696Y-107468172D01*
X133824345Y-107444345D01*
X133896837Y-107357183D01*
X133950453Y-107292718D01*
X133950455Y-107292715D01*
X133954147Y-107288276D01*
X134034985Y-107143929D01*
X134050510Y-107116208D01*
X134050511Y-107116206D01*
X134053334Y-107111165D01*
X134055190Y-107105698D01*
X134055192Y-107105693D01*
X134116728Y-106924414D01*
X134116729Y-106924409D01*
X134118584Y-106918945D01*
X134119412Y-106913236D01*
X134119413Y-106913231D01*
X134145655Y-106732240D01*
X134147712Y-106718053D01*
X134149232Y-106660000D01*
X134146564Y-106630964D01*
X134471148Y-106630964D01*
X134484424Y-106833522D01*
X134485845Y-106839118D01*
X134485846Y-106839123D01*
X134529883Y-107012516D01*
X134534392Y-107030269D01*
X134536809Y-107035512D01*
X134572336Y-107112576D01*
X134619377Y-107214616D01*
X134629067Y-107228327D01*
X134711798Y-107345389D01*
X134736533Y-107380389D01*
X134881938Y-107522035D01*
X135050720Y-107634812D01*
X135056023Y-107637090D01*
X135056026Y-107637092D01*
X135220693Y-107707838D01*
X135237228Y-107714942D01*
X135296231Y-107728293D01*
X135429579Y-107758467D01*
X135429584Y-107758468D01*
X135435216Y-107759742D01*
X135440987Y-107759969D01*
X135440989Y-107759969D01*
X135500756Y-107762317D01*
X135638053Y-107767712D01*
X135738499Y-107753148D01*
X135833231Y-107739413D01*
X135833236Y-107739412D01*
X135838945Y-107738584D01*
X135844409Y-107736729D01*
X135844414Y-107736728D01*
X136025693Y-107675192D01*
X136025698Y-107675190D01*
X136031165Y-107673334D01*
X136045374Y-107665377D01*
X136109138Y-107629667D01*
X136208276Y-107574147D01*
X136217571Y-107566417D01*
X136335696Y-107468172D01*
X136364345Y-107444345D01*
X136436837Y-107357183D01*
X136490453Y-107292718D01*
X136490455Y-107292715D01*
X136494147Y-107288276D01*
X136574985Y-107143929D01*
X136590510Y-107116208D01*
X136590511Y-107116206D01*
X136593334Y-107111165D01*
X136595190Y-107105698D01*
X136595192Y-107105693D01*
X136656728Y-106924414D01*
X136656729Y-106924409D01*
X136658584Y-106918945D01*
X136659412Y-106913236D01*
X136659413Y-106913231D01*
X136685655Y-106732240D01*
X136687712Y-106718053D01*
X136689232Y-106660000D01*
X136675888Y-106514781D01*
X136671187Y-106463613D01*
X136671186Y-106463610D01*
X136670658Y-106457859D01*
X136664583Y-106436318D01*
X136617125Y-106268046D01*
X136617124Y-106268044D01*
X136615557Y-106262487D01*
X136604978Y-106241033D01*
X136528331Y-106085609D01*
X136525776Y-106080428D01*
X136404320Y-105917779D01*
X136255258Y-105779987D01*
X136250375Y-105776906D01*
X136250371Y-105776903D01*
X136088464Y-105674748D01*
X136083581Y-105671667D01*
X135895039Y-105596446D01*
X135889379Y-105595320D01*
X135889375Y-105595319D01*
X135701613Y-105557971D01*
X135701610Y-105557971D01*
X135695946Y-105556844D01*
X135690171Y-105556768D01*
X135690167Y-105556768D01*
X135588793Y-105555441D01*
X135492971Y-105554187D01*
X135487274Y-105555166D01*
X135487273Y-105555166D01*
X135457285Y-105560319D01*
X135292910Y-105588564D01*
X135102463Y-105658824D01*
X134928010Y-105762612D01*
X134923670Y-105766418D01*
X134923666Y-105766421D01*
X134810129Y-105865991D01*
X134775392Y-105896455D01*
X134649720Y-106055869D01*
X134647031Y-106060980D01*
X134647029Y-106060983D01*
X134618765Y-106114705D01*
X134555203Y-106235515D01*
X134495007Y-106429378D01*
X134471148Y-106630964D01*
X134146564Y-106630964D01*
X134135888Y-106514781D01*
X134131187Y-106463613D01*
X134131186Y-106463610D01*
X134130658Y-106457859D01*
X134124583Y-106436318D01*
X134077125Y-106268046D01*
X134077124Y-106268044D01*
X134075557Y-106262487D01*
X134064978Y-106241033D01*
X133988331Y-106085609D01*
X133985776Y-106080428D01*
X133864320Y-105917779D01*
X133715258Y-105779987D01*
X133710375Y-105776906D01*
X133710371Y-105776903D01*
X133548464Y-105674748D01*
X133543581Y-105671667D01*
X133355039Y-105596446D01*
X133349379Y-105595320D01*
X133349375Y-105595319D01*
X133161613Y-105557971D01*
X133161610Y-105557971D01*
X133155946Y-105556844D01*
X133150171Y-105556768D01*
X133150167Y-105556768D01*
X133048793Y-105555441D01*
X132952971Y-105554187D01*
X132947274Y-105555166D01*
X132947273Y-105555166D01*
X132917285Y-105560319D01*
X132752910Y-105588564D01*
X132562463Y-105658824D01*
X132388010Y-105762612D01*
X132383670Y-105766418D01*
X132383666Y-105766421D01*
X132270129Y-105865991D01*
X132235392Y-105896455D01*
X132109720Y-106055869D01*
X132107031Y-106060980D01*
X132107029Y-106060983D01*
X132017589Y-106230980D01*
X131968170Y-106281952D01*
X131899037Y-106298115D01*
X131832141Y-106274336D01*
X131792003Y-106219973D01*
X131789955Y-106220863D01*
X131702972Y-106020814D01*
X131698105Y-106011739D01*
X131582426Y-105832926D01*
X131576136Y-105824757D01*
X131432806Y-105667240D01*
X131425273Y-105660215D01*
X131258139Y-105528222D01*
X131249552Y-105522517D01*
X131063117Y-105419599D01*
X131053705Y-105415369D01*
X130852959Y-105344280D01*
X130842988Y-105341646D01*
X130771837Y-105328972D01*
X130758540Y-105330432D01*
X130754000Y-105344989D01*
X130754000Y-106788000D01*
X130733998Y-106856121D01*
X130680342Y-106902614D01*
X130628000Y-106914000D01*
X130372000Y-106914000D01*
X130303879Y-106893998D01*
X130257386Y-106840342D01*
X130246000Y-106788000D01*
X130246000Y-105343102D01*
X130242082Y-105329758D01*
X130227806Y-105327771D01*
X130189324Y-105333660D01*
X130179288Y-105336051D01*
X129976868Y-105402212D01*
X129967359Y-105406209D01*
X129778463Y-105504542D01*
X129769738Y-105510036D01*
X129599433Y-105637905D01*
X129591726Y-105644748D01*
X129444590Y-105798717D01*
X129438104Y-105806727D01*
X129318098Y-105982649D01*
X129313000Y-105991623D01*
X129294788Y-106030857D01*
X129247964Y-106084224D01*
X129179721Y-106103805D01*
X129111725Y-106083382D01*
X129065565Y-106029439D01*
X129054500Y-105977807D01*
X129054500Y-105264715D01*
X129074502Y-105196594D01*
X129091405Y-105175620D01*
X133375619Y-100891405D01*
X133437931Y-100857379D01*
X133464714Y-100854500D01*
X137344053Y-100854500D01*
X137435950Y-100843786D01*
X137467482Y-100840110D01*
X137467484Y-100840110D01*
X137474754Y-100839262D01*
X137481631Y-100836766D01*
X137481634Y-100836765D01*
X137633255Y-100781729D01*
X137640134Y-100779232D01*
X137646251Y-100775222D01*
X137646254Y-100775220D01*
X137713701Y-100730999D01*
X137787268Y-100682766D01*
X137908264Y-100555040D01*
X137996632Y-100402904D01*
X138047630Y-100234520D01*
X138058524Y-100058920D01*
X138028729Y-99885523D01*
X137959844Y-99723632D01*
X137855563Y-99581929D01*
X137721480Y-99468018D01*
X137628947Y-99420768D01*
X137571305Y-99391334D01*
X137571300Y-99391332D01*
X137564788Y-99388007D01*
X137557682Y-99386268D01*
X137557679Y-99386267D01*
X137463549Y-99363234D01*
X137393892Y-99346189D01*
X137388290Y-99345841D01*
X137388287Y-99345841D01*
X137384725Y-99345620D01*
X137384716Y-99345620D01*
X137382786Y-99345500D01*
X133166766Y-99345500D01*
X133147816Y-99344067D01*
X133133746Y-99341926D01*
X133133740Y-99341926D01*
X133126511Y-99340826D01*
X133119220Y-99341419D01*
X133119217Y-99341419D01*
X133074152Y-99345085D01*
X133063937Y-99345500D01*
X133055947Y-99345500D01*
X133050038Y-99346189D01*
X133027887Y-99348771D01*
X133023513Y-99349204D01*
X132958451Y-99354496D01*
X132958448Y-99354497D01*
X132951153Y-99355090D01*
X132944191Y-99357345D01*
X132938323Y-99358518D01*
X132932516Y-99359890D01*
X132925246Y-99360738D01*
X132856940Y-99385532D01*
X132852837Y-99386940D01*
X132783778Y-99409312D01*
X132777516Y-99413112D01*
X132772059Y-99415610D01*
X132766744Y-99418271D01*
X132759866Y-99420768D01*
X132753752Y-99424776D01*
X132753745Y-99424780D01*
X132699124Y-99460592D01*
X132695404Y-99462939D01*
X132692519Y-99464690D01*
X132633367Y-99500584D01*
X132625026Y-99507949D01*
X132625004Y-99507924D01*
X132621956Y-99510626D01*
X132618851Y-99513222D01*
X132612732Y-99517234D01*
X132607699Y-99522546D01*
X132607700Y-99522546D01*
X132559785Y-99573126D01*
X132557407Y-99575568D01*
X127813700Y-104319276D01*
X127799287Y-104331663D01*
X127781929Y-104344437D01*
X127777186Y-104350020D01*
X127747911Y-104384479D01*
X127740981Y-104391995D01*
X127735338Y-104397638D01*
X127717806Y-104419798D01*
X127715039Y-104423173D01*
X127668018Y-104478520D01*
X127664689Y-104485040D01*
X127661369Y-104490018D01*
X127658236Y-104495091D01*
X127653693Y-104500833D01*
X127647174Y-104514781D01*
X127622947Y-104566617D01*
X127621016Y-104570567D01*
X127588007Y-104635212D01*
X127586267Y-104642322D01*
X127584177Y-104647942D01*
X127582297Y-104653593D01*
X127579199Y-104660222D01*
X127577709Y-104667386D01*
X127577708Y-104667389D01*
X127564415Y-104731303D01*
X127563449Y-104735573D01*
X127546189Y-104806108D01*
X127545500Y-104817214D01*
X127545466Y-104817212D01*
X127545223Y-104821271D01*
X127544863Y-104825305D01*
X127543372Y-104832473D01*
X127543570Y-104839790D01*
X127545454Y-104909415D01*
X127545500Y-104912823D01*
X127545500Y-111219500D01*
X127525498Y-111287621D01*
X127471842Y-111334114D01*
X127419500Y-111345500D01*
X125645649Y-111345500D01*
X125577528Y-111325498D01*
X125531035Y-111271842D01*
X125520931Y-111201568D01*
X125529240Y-111171281D01*
X125537069Y-111152380D01*
X125540228Y-111144754D01*
X125541475Y-111135286D01*
X125558207Y-111008188D01*
X125559285Y-111000000D01*
X125540228Y-110855246D01*
X125520422Y-110807430D01*
X125487515Y-110727986D01*
X125487514Y-110727984D01*
X125484355Y-110720358D01*
X125395474Y-110604526D01*
X125388924Y-110599500D01*
X125388921Y-110599497D01*
X125286196Y-110520673D01*
X125286194Y-110520672D01*
X125279643Y-110515645D01*
X125144754Y-110459772D01*
X125057104Y-110448233D01*
X124992178Y-110419511D01*
X124984456Y-110412406D01*
X120441405Y-105869355D01*
X120407379Y-105807043D01*
X120404500Y-105780260D01*
X120404500Y-88819740D01*
X120424502Y-88751619D01*
X120441405Y-88730645D01*
X120584456Y-88587594D01*
X120646768Y-88553568D01*
X120657099Y-88551768D01*
X120744754Y-88540228D01*
X120879643Y-88484355D01*
X120886196Y-88479327D01*
X120988921Y-88400503D01*
X120988924Y-88400500D01*
X120995474Y-88395474D01*
X121044539Y-88331531D01*
X121101877Y-88289664D01*
X121172748Y-88285442D01*
X121221206Y-88308273D01*
X121320357Y-88384355D01*
X121455246Y-88440228D01*
X121600000Y-88459285D01*
X121608188Y-88458207D01*
X121736566Y-88441306D01*
X121744754Y-88440228D01*
X121879643Y-88384355D01*
X121886196Y-88379327D01*
X121988921Y-88300503D01*
X121988924Y-88300500D01*
X121995474Y-88295474D01*
X122007623Y-88279642D01*
X122079328Y-88186193D01*
X122084355Y-88179642D01*
X122094770Y-88154500D01*
X122137069Y-88052380D01*
X122140228Y-88044754D01*
X122141484Y-88035219D01*
X122158207Y-87908188D01*
X122159285Y-87900000D01*
X122158207Y-87891812D01*
X122158207Y-87884207D01*
X122178209Y-87816086D01*
X122231865Y-87769593D01*
X122284207Y-87758207D01*
X122291812Y-87758207D01*
X122300000Y-87759285D01*
X122308188Y-87758207D01*
X122330680Y-87755246D01*
X122444754Y-87740228D01*
X122579643Y-87684355D01*
X122586196Y-87679327D01*
X122688921Y-87600503D01*
X122688924Y-87600500D01*
X122695474Y-87595474D01*
X122716197Y-87568468D01*
X122749933Y-87524502D01*
X122784355Y-87479642D01*
X122801843Y-87437424D01*
X122832002Y-87364612D01*
X122840228Y-87344754D01*
X122841474Y-87335295D01*
X122858207Y-87208188D01*
X122859285Y-87200000D01*
X122842906Y-87075585D01*
X122841306Y-87063432D01*
X122841305Y-87063430D01*
X122840228Y-87055246D01*
X122784355Y-86920358D01*
X122730536Y-86850220D01*
X122704937Y-86784001D01*
X122704500Y-86773518D01*
X122704500Y-80635934D01*
X122697605Y-80614713D01*
X122692989Y-80595487D01*
X122691049Y-80583238D01*
X122689498Y-80573445D01*
X122679366Y-80553561D01*
X122671801Y-80535295D01*
X122667969Y-80523502D01*
X122664905Y-80514071D01*
X122651784Y-80496013D01*
X122641455Y-80479157D01*
X122635826Y-80468109D01*
X122631326Y-80459277D01*
X119823121Y-77651072D01*
X116941405Y-74769355D01*
X116907379Y-74707043D01*
X116904500Y-74680260D01*
X116904500Y-73826482D01*
X116924502Y-73758361D01*
X116930529Y-73749789D01*
X116984355Y-73679642D01*
X117040228Y-73544754D01*
X117059285Y-73400000D01*
X117040228Y-73255246D01*
X117015131Y-73194658D01*
X116987515Y-73127986D01*
X116987514Y-73127984D01*
X116984355Y-73120358D01*
X116895474Y-73004526D01*
X116888924Y-72999500D01*
X116888921Y-72999497D01*
X116786196Y-72920673D01*
X116786194Y-72920672D01*
X116779643Y-72915645D01*
X116644754Y-72859772D01*
X116500000Y-72840715D01*
X116491812Y-72841793D01*
X116363432Y-72858694D01*
X116363430Y-72858695D01*
X116355246Y-72859772D01*
X116307430Y-72879578D01*
X116227986Y-72912485D01*
X116227984Y-72912486D01*
X116220358Y-72915645D01*
X116104526Y-73004526D01*
X116015645Y-73120358D01*
X116012486Y-73127984D01*
X116012485Y-73127986D01*
X115984869Y-73194658D01*
X115959772Y-73255246D01*
X115940715Y-73400000D01*
X115959772Y-73544754D01*
X116015645Y-73679642D01*
X116069464Y-73749780D01*
X116095063Y-73815999D01*
X116095500Y-73826482D01*
X116095500Y-74922778D01*
X116075498Y-74990899D01*
X116021842Y-75037392D01*
X115953055Y-75047700D01*
X115900000Y-75040715D01*
X115891812Y-75041793D01*
X115763432Y-75058694D01*
X115763430Y-75058695D01*
X115755246Y-75059772D01*
X115747619Y-75062931D01*
X115747620Y-75062931D01*
X115627986Y-75112485D01*
X115627984Y-75112486D01*
X115620358Y-75115645D01*
X115504526Y-75204526D01*
X115415645Y-75320358D01*
X115359772Y-75455246D01*
X115340715Y-75600000D01*
X115341793Y-75608188D01*
X115353815Y-75699502D01*
X115359772Y-75744754D01*
X115362931Y-75752380D01*
X115393184Y-75825416D01*
X115415645Y-75879642D01*
X115420672Y-75886193D01*
X115494087Y-75981869D01*
X115504526Y-75995474D01*
X115511076Y-76000500D01*
X115511079Y-76000503D01*
X115604274Y-76072014D01*
X115620357Y-76084355D01*
X115755246Y-76140228D01*
X115842896Y-76151767D01*
X115907822Y-76180489D01*
X115915544Y-76187594D01*
X121158595Y-81430645D01*
X121192621Y-81492957D01*
X121195500Y-81519740D01*
X121195500Y-87473518D01*
X121175498Y-87541639D01*
X121169474Y-87550206D01*
X121155460Y-87568470D01*
X121098125Y-87610336D01*
X121027254Y-87614558D01*
X120978795Y-87591728D01*
X120879643Y-87515645D01*
X120744754Y-87459772D01*
X120600000Y-87440715D01*
X120591812Y-87441793D01*
X120463432Y-87458694D01*
X120463430Y-87458695D01*
X120455246Y-87459772D01*
X120320358Y-87515645D01*
X120313812Y-87520668D01*
X120311401Y-87522060D01*
X120242405Y-87538798D01*
X120175313Y-87515577D01*
X120131992Y-87461159D01*
X120087440Y-87353602D01*
X120087440Y-87353601D01*
X120084279Y-87345971D01*
X120024538Y-87268115D01*
X120000425Y-87236690D01*
X120000424Y-87236689D01*
X119995398Y-87230139D01*
X119988848Y-87225113D01*
X119988845Y-87225110D01*
X119886120Y-87146286D01*
X119886118Y-87146285D01*
X119879567Y-87141258D01*
X119744678Y-87085385D01*
X119599924Y-87066328D01*
X119591736Y-87067406D01*
X119591733Y-87067406D01*
X119583923Y-87068434D01*
X119513774Y-87057494D01*
X119460677Y-87010365D01*
X119441488Y-86942010D01*
X119442557Y-86927066D01*
X119458207Y-86808188D01*
X119459285Y-86800000D01*
X119451153Y-86738227D01*
X119441306Y-86663432D01*
X119441305Y-86663430D01*
X119440228Y-86655246D01*
X119401990Y-86562932D01*
X119387515Y-86527986D01*
X119387514Y-86527984D01*
X119384355Y-86520358D01*
X119338434Y-86460512D01*
X119300501Y-86411077D01*
X119300500Y-86411076D01*
X119295474Y-86404526D01*
X119288924Y-86399500D01*
X119288921Y-86399497D01*
X119186196Y-86320673D01*
X119186194Y-86320672D01*
X119179643Y-86315645D01*
X119044754Y-86259772D01*
X118900000Y-86240715D01*
X118891812Y-86241793D01*
X118763432Y-86258694D01*
X118763430Y-86258695D01*
X118755246Y-86259772D01*
X118707430Y-86279578D01*
X118627986Y-86312485D01*
X118627984Y-86312486D01*
X118620358Y-86315645D01*
X118504526Y-86404526D01*
X118415645Y-86520358D01*
X118412486Y-86527984D01*
X118412485Y-86527986D01*
X118398010Y-86562932D01*
X118359772Y-86655246D01*
X118348848Y-86738227D01*
X118348233Y-86742895D01*
X118319511Y-86807822D01*
X118312406Y-86815544D01*
X117891465Y-87236485D01*
X117891462Y-87236489D01*
X117868674Y-87259277D01*
X117864171Y-87268115D01*
X117858546Y-87279154D01*
X117848216Y-87296011D01*
X117835095Y-87314071D01*
X117832030Y-87323504D01*
X117828199Y-87335295D01*
X117820634Y-87353561D01*
X117810502Y-87373445D01*
X117808951Y-87383238D01*
X117807011Y-87395487D01*
X117802395Y-87414713D01*
X117795500Y-87435934D01*
X117795500Y-93575062D01*
X117775498Y-93643183D01*
X117721842Y-93689676D01*
X117651568Y-93699780D01*
X117621282Y-93691471D01*
X117552383Y-93662932D01*
X117544754Y-93659772D01*
X117457103Y-93648233D01*
X117392177Y-93619511D01*
X117384455Y-93612406D01*
X114363523Y-90591473D01*
X114363515Y-90591465D01*
X114363511Y-90591462D01*
X114340723Y-90568674D01*
X114320844Y-90558545D01*
X114303989Y-90548216D01*
X114293953Y-90540925D01*
X114285929Y-90535095D01*
X114264704Y-90528199D01*
X114246438Y-90520633D01*
X114226555Y-90510502D01*
X114204513Y-90507011D01*
X114185287Y-90502395D01*
X114173500Y-90498565D01*
X114173498Y-90498565D01*
X114164066Y-90495500D01*
X109427417Y-90495500D01*
X109359296Y-90475498D01*
X109327455Y-90446204D01*
X109300500Y-90411076D01*
X109295474Y-90404526D01*
X109235637Y-90358611D01*
X109186196Y-90320673D01*
X109186194Y-90320672D01*
X109179643Y-90315645D01*
X109062779Y-90267238D01*
X109052383Y-90262932D01*
X109044754Y-90259772D01*
X108900000Y-90240715D01*
X108891812Y-90241793D01*
X108763432Y-90258694D01*
X108763430Y-90258695D01*
X108755246Y-90259772D01*
X108710067Y-90278486D01*
X108627986Y-90312485D01*
X108627984Y-90312486D01*
X108620358Y-90315645D01*
X108504526Y-90404526D01*
X108499503Y-90411072D01*
X108480168Y-90436270D01*
X108415645Y-90520358D01*
X108412486Y-90527984D01*
X108412485Y-90527986D01*
X108386194Y-90591458D01*
X108359772Y-90655246D01*
X108358695Y-90663430D01*
X108358694Y-90663432D01*
X108347262Y-90750273D01*
X108340715Y-90800000D01*
X108341793Y-90808188D01*
X108357220Y-90925366D01*
X108359772Y-90944754D01*
X108362931Y-90952380D01*
X108411917Y-91070641D01*
X108415645Y-91079642D01*
X108458349Y-91135295D01*
X108487623Y-91173445D01*
X108504526Y-91195474D01*
X108511076Y-91200500D01*
X108511079Y-91200503D01*
X108613804Y-91279327D01*
X108620357Y-91284355D01*
X108755246Y-91340228D01*
X108900000Y-91359285D01*
X108908188Y-91358207D01*
X109036566Y-91341306D01*
X109044754Y-91340228D01*
X109107855Y-91314091D01*
X109156072Y-91304500D01*
X113880260Y-91304500D01*
X113948381Y-91324502D01*
X113969355Y-91341405D01*
X116812406Y-94184455D01*
X116846432Y-94246767D01*
X116848233Y-94257104D01*
X116856884Y-94322814D01*
X116859772Y-94344754D01*
X116915645Y-94479642D01*
X116937769Y-94508475D01*
X116988434Y-94574502D01*
X117004526Y-94595474D01*
X117011076Y-94600500D01*
X117011079Y-94600503D01*
X117113804Y-94679327D01*
X117120357Y-94684355D01*
X117255246Y-94740228D01*
X117400000Y-94759285D01*
X117408188Y-94758207D01*
X117536566Y-94741306D01*
X117544754Y-94740228D01*
X117621282Y-94708529D01*
X117691872Y-94700940D01*
X117755359Y-94732719D01*
X117791586Y-94793777D01*
X117795500Y-94824938D01*
X117795500Y-106014066D01*
X117798565Y-106023498D01*
X117798565Y-106023500D01*
X117802395Y-106035287D01*
X117807011Y-106054513D01*
X117810502Y-106076555D01*
X117817092Y-106089488D01*
X117820633Y-106096438D01*
X117828199Y-106114704D01*
X117835095Y-106135929D01*
X117840925Y-106143953D01*
X117848216Y-106153989D01*
X117858545Y-106170844D01*
X117868674Y-106190723D01*
X117891462Y-106213511D01*
X117891465Y-106213515D01*
X119308595Y-107630645D01*
X119342621Y-107692957D01*
X119345500Y-107719740D01*
X119345500Y-109814066D01*
X119348565Y-109823498D01*
X119348565Y-109823500D01*
X119352395Y-109835287D01*
X119357011Y-109854513D01*
X119360502Y-109876555D01*
X119367059Y-109889424D01*
X119370633Y-109896438D01*
X119378199Y-109914704D01*
X119385095Y-109935929D01*
X119390925Y-109943953D01*
X119398216Y-109953989D01*
X119408545Y-109970844D01*
X119418674Y-109990723D01*
X119441462Y-110013511D01*
X119441465Y-110013515D01*
X120412406Y-110984456D01*
X120446432Y-111046768D01*
X120448233Y-111057105D01*
X120458526Y-111135286D01*
X120459772Y-111144754D01*
X120462931Y-111152380D01*
X120470760Y-111171281D01*
X120478349Y-111241871D01*
X120446570Y-111305358D01*
X120385512Y-111341586D01*
X120354351Y-111345500D01*
X110785934Y-111345500D01*
X110776502Y-111348565D01*
X110776500Y-111348565D01*
X110764713Y-111352395D01*
X110745487Y-111357011D01*
X110723445Y-111360502D01*
X110714609Y-111365004D01*
X110714607Y-111365005D01*
X110703568Y-111370630D01*
X110685300Y-111378197D01*
X110673506Y-111382029D01*
X110673501Y-111382031D01*
X110664072Y-111385095D01*
X110656052Y-111390922D01*
X110656050Y-111390923D01*
X110646017Y-111398213D01*
X110629158Y-111408544D01*
X110609277Y-111418674D01*
X110586486Y-111441465D01*
X110119238Y-111908712D01*
X110056928Y-111942737D01*
X110029488Y-111945614D01*
X109924221Y-111945062D01*
X109916841Y-111946834D01*
X109916839Y-111946834D01*
X109777563Y-111980271D01*
X109777560Y-111980272D01*
X109770184Y-111982043D01*
X109629414Y-112054700D01*
X109510039Y-112158838D01*
X109418950Y-112288444D01*
X109361406Y-112436037D01*
X109360414Y-112443570D01*
X109360414Y-112443571D01*
X109346770Y-112547212D01*
X109340729Y-112593096D01*
X109358113Y-112750553D01*
X109360723Y-112757684D01*
X109360723Y-112757686D01*
X109402556Y-112872000D01*
X109412553Y-112899319D01*
X109500908Y-113030805D01*
X109506527Y-113035918D01*
X109506528Y-113035919D01*
X109517903Y-113046269D01*
X109618076Y-113137419D01*
X109757293Y-113213008D01*
X109910522Y-113253207D01*
X109994477Y-113254526D01*
X110061319Y-113255576D01*
X110061322Y-113255576D01*
X110068916Y-113255695D01*
X110223332Y-113220329D01*
X110312229Y-113175619D01*
X110358072Y-113152563D01*
X110358075Y-113152561D01*
X110364855Y-113149151D01*
X110370626Y-113144222D01*
X110370629Y-113144220D01*
X110479536Y-113051204D01*
X110479536Y-113051203D01*
X110485314Y-113046269D01*
X110577755Y-112917624D01*
X110636842Y-112770641D01*
X110642965Y-112727615D01*
X110658581Y-112617891D01*
X110658581Y-112617888D01*
X110659162Y-112613807D01*
X110659307Y-112600000D01*
X110658472Y-112593096D01*
X110657255Y-112583037D01*
X110668928Y-112513007D01*
X110693246Y-112478804D01*
X110980644Y-112191405D01*
X111042957Y-112157380D01*
X111069740Y-112154500D01*
X113669862Y-112154500D01*
X113737983Y-112174502D01*
X113784476Y-112228158D01*
X113795206Y-112293341D01*
X113792328Y-112321435D01*
X113792000Y-112327855D01*
X113792000Y-112727885D01*
X113796475Y-112743124D01*
X113797865Y-112744329D01*
X113805548Y-112746000D01*
X115028000Y-112746000D01*
X115096121Y-112766002D01*
X115142614Y-112819658D01*
X115154000Y-112872000D01*
X115154000Y-114364884D01*
X115158475Y-114380123D01*
X115159865Y-114381328D01*
X115167548Y-114382999D01*
X115297095Y-114382999D01*
X115303614Y-114382662D01*
X115399206Y-114372743D01*
X115412600Y-114369851D01*
X115566784Y-114318412D01*
X115579962Y-114312239D01*
X115717807Y-114226937D01*
X115729208Y-114217901D01*
X115843739Y-114103171D01*
X115852751Y-114091760D01*
X115937816Y-113953757D01*
X115943964Y-113940574D01*
X115985328Y-113815865D01*
X116025759Y-113757505D01*
X116091323Y-113730268D01*
X116161204Y-113742801D01*
X116206272Y-113784484D01*
X116207711Y-113783392D01*
X116211835Y-113788825D01*
X116215351Y-113794677D01*
X116220039Y-113799634D01*
X116220041Y-113799637D01*
X116297006Y-113881024D01*
X116342916Y-113929572D01*
X116496471Y-114033928D01*
X116502805Y-114036461D01*
X116502808Y-114036463D01*
X116662516Y-114100342D01*
X116662521Y-114100343D01*
X116668853Y-114102876D01*
X116675580Y-114103990D01*
X116675585Y-114103991D01*
X116845282Y-114132084D01*
X116845285Y-114132084D01*
X116852019Y-114133199D01*
X116858836Y-114132842D01*
X116858840Y-114132842D01*
X117009920Y-114124923D01*
X117037424Y-114123482D01*
X117043996Y-114121672D01*
X117044001Y-114121671D01*
X117209835Y-114075992D01*
X117216417Y-114074179D01*
X117380648Y-113987590D01*
X117522454Y-113867755D01*
X117526602Y-113862330D01*
X117631075Y-113725685D01*
X117631077Y-113725681D01*
X117635219Y-113720264D01*
X117644472Y-113700421D01*
X117710802Y-113558177D01*
X117710803Y-113558174D01*
X117713682Y-113552000D01*
X117754182Y-113370812D01*
X117754500Y-113365124D01*
X117754500Y-112678615D01*
X117739488Y-112540427D01*
X117680270Y-112364465D01*
X117668810Y-112345393D01*
X117650871Y-112276702D01*
X117672918Y-112209215D01*
X117727950Y-112164361D01*
X117776814Y-112154500D01*
X118025399Y-112154500D01*
X118093520Y-112174502D01*
X118140013Y-112228158D01*
X118150117Y-112298432D01*
X118139594Y-112333749D01*
X118086318Y-112448000D01*
X118084832Y-112454648D01*
X118084831Y-112454651D01*
X118071787Y-112513007D01*
X118045818Y-112629188D01*
X118045500Y-112634876D01*
X118045500Y-113321385D01*
X118060512Y-113459573D01*
X118119730Y-113635535D01*
X118215351Y-113794677D01*
X118220039Y-113799634D01*
X118220041Y-113799637D01*
X118297006Y-113881024D01*
X118342916Y-113929572D01*
X118496471Y-114033928D01*
X118502805Y-114036461D01*
X118502808Y-114036463D01*
X118662516Y-114100342D01*
X118662521Y-114100343D01*
X118668853Y-114102876D01*
X118675580Y-114103990D01*
X118675585Y-114103991D01*
X118845282Y-114132084D01*
X118845285Y-114132084D01*
X118852019Y-114133199D01*
X118858836Y-114132842D01*
X118858840Y-114132842D01*
X119009920Y-114124923D01*
X119037424Y-114123482D01*
X119043996Y-114121672D01*
X119044001Y-114121671D01*
X119209835Y-114075992D01*
X119216417Y-114074179D01*
X119380648Y-113987590D01*
X119522454Y-113867755D01*
X119526602Y-113862330D01*
X119631075Y-113725685D01*
X119631077Y-113725681D01*
X119635219Y-113720264D01*
X119644472Y-113700421D01*
X119710802Y-113558177D01*
X119710803Y-113558174D01*
X119713682Y-113552000D01*
X119754182Y-113370812D01*
X119754500Y-113365124D01*
X119754500Y-112678615D01*
X119739488Y-112540427D01*
X119680270Y-112364465D01*
X119668810Y-112345393D01*
X119650871Y-112276702D01*
X119672918Y-112209215D01*
X119727950Y-112164361D01*
X119776814Y-112154500D01*
X120025399Y-112154500D01*
X120093520Y-112174502D01*
X120140013Y-112228158D01*
X120150117Y-112298432D01*
X120139594Y-112333749D01*
X120086318Y-112448000D01*
X120084832Y-112454648D01*
X120084831Y-112454651D01*
X120071787Y-112513007D01*
X120045818Y-112629188D01*
X120045500Y-112634876D01*
X120045500Y-113321385D01*
X120060512Y-113459573D01*
X120119730Y-113635535D01*
X120215351Y-113794677D01*
X120220039Y-113799634D01*
X120220041Y-113799637D01*
X120297006Y-113881024D01*
X120342916Y-113929572D01*
X120496471Y-114033928D01*
X120502805Y-114036461D01*
X120502808Y-114036463D01*
X120662516Y-114100342D01*
X120662521Y-114100343D01*
X120668853Y-114102876D01*
X120675580Y-114103990D01*
X120675585Y-114103991D01*
X120845282Y-114132084D01*
X120845285Y-114132084D01*
X120852019Y-114133199D01*
X120858836Y-114132842D01*
X120858840Y-114132842D01*
X121009920Y-114124923D01*
X121037424Y-114123482D01*
X121043996Y-114121672D01*
X121044001Y-114121671D01*
X121209835Y-114075992D01*
X121216417Y-114074179D01*
X121380648Y-113987590D01*
X121522454Y-113867755D01*
X121526602Y-113862330D01*
X121631075Y-113725685D01*
X121631077Y-113725681D01*
X121635219Y-113720264D01*
X121644472Y-113700421D01*
X121710802Y-113558177D01*
X121710803Y-113558174D01*
X121713682Y-113552000D01*
X121754182Y-113370812D01*
X121754500Y-113365124D01*
X121754500Y-112678615D01*
X121739488Y-112540427D01*
X121680270Y-112364465D01*
X121668810Y-112345393D01*
X121650871Y-112276702D01*
X121672918Y-112209215D01*
X121727950Y-112164361D01*
X121776814Y-112154500D01*
X122025399Y-112154500D01*
X122093520Y-112174502D01*
X122140013Y-112228158D01*
X122150117Y-112298432D01*
X122139594Y-112333749D01*
X122086318Y-112448000D01*
X122084832Y-112454648D01*
X122084831Y-112454651D01*
X122071787Y-112513007D01*
X122045818Y-112629188D01*
X122045500Y-112634876D01*
X122045500Y-113321385D01*
X122060512Y-113459573D01*
X122119730Y-113635535D01*
X122215351Y-113794677D01*
X122220039Y-113799634D01*
X122220041Y-113799637D01*
X122297006Y-113881024D01*
X122342916Y-113929572D01*
X122496471Y-114033928D01*
X122502805Y-114036461D01*
X122502808Y-114036463D01*
X122662516Y-114100342D01*
X122662521Y-114100343D01*
X122668853Y-114102876D01*
X122675580Y-114103990D01*
X122675585Y-114103991D01*
X122845282Y-114132084D01*
X122845285Y-114132084D01*
X122852019Y-114133199D01*
X122858836Y-114132842D01*
X122858840Y-114132842D01*
X123009920Y-114124923D01*
X123037424Y-114123482D01*
X123043996Y-114121672D01*
X123044001Y-114121671D01*
X123209835Y-114075992D01*
X123216417Y-114074179D01*
X123380648Y-113987590D01*
X123522454Y-113867755D01*
X123526602Y-113862330D01*
X123631075Y-113725685D01*
X123631077Y-113725681D01*
X123635219Y-113720264D01*
X123644472Y-113700421D01*
X123710802Y-113558177D01*
X123710803Y-113558174D01*
X123713682Y-113552000D01*
X123754182Y-113370812D01*
X123754500Y-113365124D01*
X123754500Y-112678615D01*
X123739488Y-112540427D01*
X123680270Y-112364465D01*
X123668810Y-112345393D01*
X123650871Y-112276702D01*
X123672918Y-112209215D01*
X123727950Y-112164361D01*
X123776814Y-112154500D01*
X124025399Y-112154500D01*
X124093520Y-112174502D01*
X124140013Y-112228158D01*
X124150117Y-112298432D01*
X124139594Y-112333749D01*
X124086318Y-112448000D01*
X124084832Y-112454648D01*
X124084831Y-112454651D01*
X124071787Y-112513007D01*
X124045818Y-112629188D01*
X124045500Y-112634876D01*
X124045500Y-113321385D01*
X124060512Y-113459573D01*
X124119730Y-113635535D01*
X124123247Y-113641388D01*
X124127504Y-113648473D01*
X124145500Y-113713366D01*
X124145500Y-115933235D01*
X124144067Y-115952184D01*
X124140826Y-115973489D01*
X124141419Y-115980780D01*
X124141419Y-115980783D01*
X124145085Y-116025848D01*
X124145500Y-116036063D01*
X124145500Y-116044053D01*
X124145925Y-116047697D01*
X124148771Y-116072113D01*
X124149204Y-116076487D01*
X124155090Y-116148847D01*
X124157345Y-116155809D01*
X124158518Y-116161677D01*
X124159890Y-116167484D01*
X124160738Y-116174754D01*
X124185532Y-116243060D01*
X124186940Y-116247163D01*
X124209312Y-116316222D01*
X124213109Y-116322479D01*
X124215602Y-116327926D01*
X124218270Y-116333254D01*
X124220768Y-116340134D01*
X124224782Y-116346256D01*
X124260568Y-116400839D01*
X124262915Y-116404559D01*
X124300583Y-116466633D01*
X124304295Y-116470836D01*
X124307949Y-116474974D01*
X124307924Y-116474996D01*
X124310624Y-116478041D01*
X124313220Y-116481146D01*
X124317234Y-116487268D01*
X124322547Y-116492301D01*
X124373108Y-116540198D01*
X124375550Y-116542575D01*
X125119279Y-117286303D01*
X125131666Y-117300717D01*
X125144437Y-117318071D01*
X125153369Y-117325659D01*
X125184479Y-117352089D01*
X125191995Y-117359019D01*
X125197638Y-117364662D01*
X125219798Y-117382194D01*
X125223173Y-117384961D01*
X125278520Y-117431982D01*
X125285040Y-117435311D01*
X125290018Y-117438631D01*
X125295091Y-117441764D01*
X125300833Y-117446307D01*
X125307467Y-117449407D01*
X125307466Y-117449407D01*
X125366617Y-117477053D01*
X125370567Y-117478984D01*
X125425988Y-117507283D01*
X125477561Y-117556076D01*
X125494568Y-117625005D01*
X125471608Y-117692187D01*
X125415972Y-117736291D01*
X125368688Y-117745500D01*
X98380500Y-117745500D01*
X98312379Y-117725498D01*
X98265886Y-117671842D01*
X98254500Y-117619500D01*
X98254500Y-113672095D01*
X113792001Y-113672095D01*
X113792338Y-113678614D01*
X113802257Y-113774206D01*
X113805149Y-113787600D01*
X113856588Y-113941784D01*
X113862761Y-113954962D01*
X113948063Y-114092807D01*
X113957099Y-114104208D01*
X114071829Y-114218739D01*
X114083240Y-114227751D01*
X114221243Y-114312816D01*
X114234424Y-114318963D01*
X114388710Y-114370138D01*
X114402086Y-114373005D01*
X114496438Y-114382672D01*
X114502854Y-114383000D01*
X114627885Y-114383000D01*
X114643124Y-114378525D01*
X114644329Y-114377135D01*
X114646000Y-114369452D01*
X114646000Y-113272115D01*
X114641525Y-113256876D01*
X114640135Y-113255671D01*
X114632452Y-113254000D01*
X113810116Y-113254000D01*
X113794877Y-113258475D01*
X113793672Y-113259865D01*
X113792001Y-113267548D01*
X113792001Y-113672095D01*
X98254500Y-113672095D01*
X98254500Y-109517399D01*
X101899712Y-109517399D01*
X101921194Y-109606537D01*
X101925083Y-109617832D01*
X102007629Y-109799382D01*
X102013576Y-109809724D01*
X102128968Y-109972397D01*
X102136761Y-109981425D01*
X102280831Y-110119342D01*
X102290196Y-110126738D01*
X102457741Y-110234921D01*
X102468345Y-110240417D01*
X102653312Y-110314961D01*
X102664770Y-110318355D01*
X102861928Y-110356857D01*
X102870791Y-110357934D01*
X102873500Y-110358000D01*
X102977885Y-110358000D01*
X102993124Y-110353525D01*
X102994329Y-110352135D01*
X102996000Y-110344452D01*
X102996000Y-110339885D01*
X103504000Y-110339885D01*
X103508475Y-110355124D01*
X103509865Y-110356329D01*
X103517548Y-110358000D01*
X103574832Y-110358000D01*
X103580808Y-110357715D01*
X103729494Y-110343529D01*
X103741228Y-110341270D01*
X103932599Y-110285128D01*
X103943675Y-110280698D01*
X104120978Y-110189381D01*
X104131024Y-110182931D01*
X104287857Y-110059738D01*
X104296506Y-110051501D01*
X104427212Y-109900877D01*
X104434147Y-109891153D01*
X104534010Y-109718533D01*
X104538984Y-109707669D01*
X104604407Y-109519273D01*
X104604648Y-109518284D01*
X104603180Y-109507992D01*
X104589615Y-109504000D01*
X103522115Y-109504000D01*
X103506876Y-109508475D01*
X103505671Y-109509865D01*
X103504000Y-109517548D01*
X103504000Y-110339885D01*
X102996000Y-110339885D01*
X102996000Y-109522115D01*
X102991525Y-109506876D01*
X102990135Y-109505671D01*
X102982452Y-109504000D01*
X101914598Y-109504000D01*
X101901067Y-109507973D01*
X101899712Y-109517399D01*
X98254500Y-109517399D01*
X98254500Y-109135964D01*
X106716148Y-109135964D01*
X106729424Y-109338522D01*
X106730845Y-109344118D01*
X106730846Y-109344123D01*
X106774891Y-109517548D01*
X106779392Y-109535269D01*
X106781809Y-109540512D01*
X106817454Y-109617832D01*
X106864377Y-109719616D01*
X106867710Y-109724332D01*
X106946125Y-109835287D01*
X106981533Y-109885389D01*
X106985675Y-109889424D01*
X107060186Y-109962009D01*
X107126938Y-110027035D01*
X107295720Y-110139812D01*
X107301023Y-110142090D01*
X107301026Y-110142092D01*
X107460274Y-110210510D01*
X107482228Y-110219942D01*
X107542075Y-110233484D01*
X107674579Y-110263467D01*
X107674584Y-110263468D01*
X107680216Y-110264742D01*
X107685987Y-110264969D01*
X107685989Y-110264969D01*
X107745756Y-110267317D01*
X107883053Y-110272712D01*
X107996817Y-110256217D01*
X108078231Y-110244413D01*
X108078236Y-110244412D01*
X108083945Y-110243584D01*
X108089409Y-110241729D01*
X108089414Y-110241728D01*
X108270693Y-110180192D01*
X108270698Y-110180190D01*
X108276165Y-110178334D01*
X108453276Y-110079147D01*
X108465625Y-110068877D01*
X108583493Y-109970846D01*
X108609345Y-109949345D01*
X108681837Y-109862183D01*
X108735453Y-109797718D01*
X108735455Y-109797715D01*
X108739147Y-109793276D01*
X108838334Y-109616165D01*
X108840720Y-109609135D01*
X108841170Y-109608496D01*
X108842541Y-109605416D01*
X108843146Y-109605685D01*
X108881553Y-109551059D01*
X108947305Y-109524278D01*
X109017098Y-109537295D01*
X109068773Y-109585980D01*
X109076777Y-109602229D01*
X109146770Y-109774603D01*
X109151413Y-109783794D01*
X109262694Y-109965388D01*
X109268777Y-109973699D01*
X109408213Y-110134667D01*
X109415580Y-110141883D01*
X109579434Y-110277916D01*
X109587881Y-110283831D01*
X109771756Y-110391279D01*
X109781042Y-110395729D01*
X109980001Y-110471703D01*
X109989899Y-110474579D01*
X110093250Y-110495606D01*
X110107299Y-110494410D01*
X110111000Y-110484065D01*
X110111000Y-110483517D01*
X110619000Y-110483517D01*
X110623064Y-110497359D01*
X110636478Y-110499393D01*
X110643184Y-110498534D01*
X110653262Y-110496392D01*
X110857255Y-110435191D01*
X110866842Y-110431433D01*
X111058095Y-110337739D01*
X111066945Y-110332464D01*
X111240328Y-110208792D01*
X111248200Y-110202139D01*
X111399052Y-110051812D01*
X111405730Y-110043965D01*
X111530003Y-109871020D01*
X111535313Y-109862183D01*
X111629670Y-109671267D01*
X111633469Y-109661672D01*
X111695377Y-109457910D01*
X111697555Y-109447837D01*
X111698986Y-109436962D01*
X111696775Y-109422778D01*
X111683617Y-109419000D01*
X110637115Y-109419000D01*
X110621876Y-109423475D01*
X110620671Y-109424865D01*
X110619000Y-109432548D01*
X110619000Y-110483517D01*
X110111000Y-110483517D01*
X110111000Y-109037000D01*
X110131002Y-108968879D01*
X110184658Y-108922386D01*
X110237000Y-108911000D01*
X111683344Y-108911000D01*
X111696875Y-108907027D01*
X111698180Y-108897947D01*
X111656214Y-108730875D01*
X111652894Y-108721124D01*
X111567972Y-108525814D01*
X111563105Y-108516739D01*
X111447426Y-108337926D01*
X111441136Y-108329757D01*
X111297806Y-108172240D01*
X111290273Y-108165215D01*
X111123139Y-108033222D01*
X111114552Y-108027517D01*
X110928117Y-107924599D01*
X110918705Y-107920369D01*
X110804391Y-107879888D01*
X110746855Y-107838294D01*
X110720939Y-107772196D01*
X110734873Y-107702580D01*
X110784232Y-107651549D01*
X110805943Y-107641804D01*
X110816165Y-107638334D01*
X110993276Y-107539147D01*
X111009992Y-107525245D01*
X111144913Y-107413031D01*
X111149345Y-107409345D01*
X111241966Y-107297981D01*
X111275453Y-107257718D01*
X111275455Y-107257715D01*
X111279147Y-107253276D01*
X111361798Y-107105693D01*
X111375510Y-107081208D01*
X111375511Y-107081206D01*
X111378334Y-107076165D01*
X111380190Y-107070698D01*
X111380192Y-107070693D01*
X111441728Y-106889414D01*
X111441729Y-106889409D01*
X111443584Y-106883945D01*
X111444412Y-106878236D01*
X111444413Y-106878231D01*
X111466565Y-106725448D01*
X111472712Y-106683053D01*
X111474232Y-106625000D01*
X111458363Y-106452299D01*
X111456187Y-106428613D01*
X111456186Y-106428610D01*
X111455658Y-106422859D01*
X111451968Y-106409775D01*
X111402125Y-106233046D01*
X111402124Y-106233044D01*
X111400557Y-106227487D01*
X111397291Y-106220863D01*
X111313331Y-106050609D01*
X111310776Y-106045428D01*
X111298837Y-106029439D01*
X111215456Y-105917779D01*
X111189320Y-105882779D01*
X111040258Y-105744987D01*
X111035375Y-105741906D01*
X111035371Y-105741903D01*
X110873464Y-105639748D01*
X110868581Y-105636667D01*
X110680039Y-105561446D01*
X110674379Y-105560320D01*
X110674375Y-105560319D01*
X110486613Y-105522971D01*
X110486610Y-105522971D01*
X110480946Y-105521844D01*
X110475171Y-105521768D01*
X110475167Y-105521768D01*
X110373793Y-105520441D01*
X110277971Y-105519187D01*
X110272274Y-105520166D01*
X110272273Y-105520166D01*
X110184397Y-105535266D01*
X110077910Y-105553564D01*
X109887463Y-105623824D01*
X109713010Y-105727612D01*
X109708670Y-105731418D01*
X109708666Y-105731421D01*
X109622390Y-105807084D01*
X109560392Y-105861455D01*
X109434720Y-106020869D01*
X109432031Y-106025980D01*
X109432029Y-106025983D01*
X109398230Y-106090225D01*
X109340203Y-106200515D01*
X109280007Y-106394378D01*
X109256148Y-106595964D01*
X109269424Y-106798522D01*
X109270845Y-106804118D01*
X109270846Y-106804123D01*
X109305397Y-106940165D01*
X109319392Y-106995269D01*
X109321809Y-107000512D01*
X109401959Y-107174371D01*
X109404377Y-107179616D01*
X109407710Y-107184332D01*
X109488029Y-107297981D01*
X109521533Y-107345389D01*
X109525675Y-107349424D01*
X109571435Y-107394001D01*
X109666938Y-107487035D01*
X109835720Y-107599812D01*
X109841023Y-107602090D01*
X109841026Y-107602092D01*
X109937954Y-107643735D01*
X109992647Y-107689003D01*
X110014184Y-107756654D01*
X109995727Y-107825210D01*
X109943136Y-107872904D01*
X109927361Y-107879268D01*
X109841868Y-107907212D01*
X109832359Y-107911209D01*
X109643463Y-108009542D01*
X109634738Y-108015036D01*
X109464433Y-108142905D01*
X109456726Y-108149748D01*
X109309590Y-108303717D01*
X109303104Y-108311727D01*
X109183098Y-108487649D01*
X109178000Y-108496623D01*
X109088338Y-108689783D01*
X109084777Y-108699464D01*
X109080291Y-108715640D01*
X109042813Y-108775939D01*
X108978684Y-108806403D01*
X108908266Y-108797360D01*
X108853915Y-108751682D01*
X108845867Y-108737698D01*
X108773331Y-108590609D01*
X108770776Y-108585428D01*
X108649320Y-108422779D01*
X108500258Y-108284987D01*
X108495375Y-108281906D01*
X108495371Y-108281903D01*
X108333464Y-108179748D01*
X108328581Y-108176667D01*
X108140039Y-108101446D01*
X108134379Y-108100320D01*
X108134375Y-108100319D01*
X107946613Y-108062971D01*
X107946610Y-108062971D01*
X107940946Y-108061844D01*
X107935171Y-108061768D01*
X107935167Y-108061768D01*
X107833793Y-108060441D01*
X107737971Y-108059187D01*
X107732274Y-108060166D01*
X107732273Y-108060166D01*
X107543607Y-108092585D01*
X107537910Y-108093564D01*
X107347463Y-108163824D01*
X107173010Y-108267612D01*
X107168670Y-108271418D01*
X107168666Y-108271421D01*
X107082797Y-108346727D01*
X107020392Y-108401455D01*
X106894720Y-108560869D01*
X106892031Y-108565980D01*
X106892029Y-108565983D01*
X106876305Y-108595869D01*
X106800203Y-108740515D01*
X106740007Y-108934378D01*
X106716148Y-109135964D01*
X98254500Y-109135964D01*
X98254500Y-108981716D01*
X101895352Y-108981716D01*
X101896820Y-108992008D01*
X101910385Y-108996000D01*
X104585402Y-108996000D01*
X104598933Y-108992027D01*
X104600288Y-108982601D01*
X104578806Y-108893463D01*
X104574917Y-108882168D01*
X104492371Y-108700618D01*
X104486424Y-108690276D01*
X104371032Y-108527603D01*
X104363239Y-108518575D01*
X104219169Y-108380658D01*
X104209804Y-108373262D01*
X104042259Y-108265079D01*
X104031655Y-108259583D01*
X103950421Y-108226845D01*
X103894715Y-108182830D01*
X103871648Y-108115685D01*
X103888545Y-108046729D01*
X103932625Y-108001976D01*
X104016519Y-107951568D01*
X104044677Y-107934649D01*
X104049634Y-107929961D01*
X104049637Y-107929959D01*
X104174614Y-107811773D01*
X104174616Y-107811771D01*
X104179572Y-107807084D01*
X104283928Y-107653529D01*
X104286463Y-107647192D01*
X104350342Y-107487484D01*
X104350343Y-107487479D01*
X104352876Y-107481147D01*
X104353990Y-107474420D01*
X104353991Y-107474415D01*
X104382084Y-107304718D01*
X104382084Y-107304715D01*
X104383199Y-107297981D01*
X104382691Y-107288276D01*
X104373839Y-107119389D01*
X104373482Y-107112576D01*
X104371672Y-107106004D01*
X104371671Y-107105999D01*
X104325992Y-106940165D01*
X104324179Y-106933583D01*
X104237590Y-106769352D01*
X104117755Y-106627546D01*
X104083989Y-106601730D01*
X103975685Y-106518925D01*
X103975681Y-106518923D01*
X103970264Y-106514781D01*
X103964084Y-106511899D01*
X103964082Y-106511898D01*
X103808177Y-106439198D01*
X103808174Y-106439197D01*
X103802000Y-106436318D01*
X103795352Y-106434832D01*
X103795349Y-106434831D01*
X103625849Y-106396944D01*
X103625850Y-106396944D01*
X103620812Y-106395818D01*
X103615124Y-106395500D01*
X102928615Y-106395500D01*
X102790427Y-106410512D01*
X102705189Y-106439198D01*
X102620936Y-106467552D01*
X102620934Y-106467553D01*
X102614465Y-106469730D01*
X102455323Y-106565351D01*
X102450366Y-106570039D01*
X102450363Y-106570041D01*
X102325386Y-106688227D01*
X102320428Y-106692916D01*
X102216072Y-106846471D01*
X102213539Y-106852805D01*
X102213537Y-106852808D01*
X102149658Y-107012516D01*
X102149657Y-107012521D01*
X102147124Y-107018853D01*
X102146010Y-107025580D01*
X102146009Y-107025585D01*
X102119729Y-107184332D01*
X102116801Y-107202019D01*
X102117158Y-107208836D01*
X102117158Y-107208840D01*
X102121473Y-107291160D01*
X102126518Y-107387424D01*
X102128328Y-107393996D01*
X102128329Y-107394001D01*
X102169088Y-107541972D01*
X102175821Y-107566417D01*
X102262410Y-107730648D01*
X102382245Y-107872454D01*
X102387668Y-107876601D01*
X102387670Y-107876602D01*
X102524315Y-107981075D01*
X102524319Y-107981077D01*
X102529736Y-107985219D01*
X102535919Y-107988102D01*
X102549383Y-107994381D01*
X102602667Y-108041299D01*
X102622127Y-108109577D01*
X102601584Y-108177536D01*
X102553823Y-108220591D01*
X102379022Y-108310619D01*
X102368976Y-108317069D01*
X102212143Y-108440262D01*
X102203494Y-108448499D01*
X102072788Y-108599123D01*
X102065853Y-108608847D01*
X101965990Y-108781467D01*
X101961016Y-108792331D01*
X101895593Y-108980727D01*
X101895352Y-108981716D01*
X98254500Y-108981716D01*
X98254500Y-105202019D01*
X102116801Y-105202019D01*
X102117158Y-105208836D01*
X102117158Y-105208840D01*
X102124119Y-105341646D01*
X102126518Y-105387424D01*
X102128328Y-105393996D01*
X102128329Y-105394001D01*
X102169140Y-105542161D01*
X102175821Y-105566417D01*
X102262410Y-105730648D01*
X102382245Y-105872454D01*
X102387668Y-105876601D01*
X102387670Y-105876602D01*
X102524315Y-105981075D01*
X102524319Y-105981077D01*
X102529736Y-105985219D01*
X102535916Y-105988101D01*
X102535918Y-105988102D01*
X102691823Y-106060802D01*
X102691826Y-106060803D01*
X102698000Y-106063682D01*
X102704648Y-106065168D01*
X102704651Y-106065169D01*
X102803711Y-106087311D01*
X102879188Y-106104182D01*
X102884876Y-106104500D01*
X103571385Y-106104500D01*
X103709573Y-106089488D01*
X103854243Y-106040801D01*
X103879064Y-106032448D01*
X103879066Y-106032447D01*
X103885535Y-106030270D01*
X104044677Y-105934649D01*
X104049634Y-105929961D01*
X104049637Y-105929959D01*
X104174614Y-105811773D01*
X104174616Y-105811771D01*
X104179572Y-105807084D01*
X104218412Y-105749933D01*
X106720500Y-105749933D01*
X106720501Y-107500066D01*
X106724871Y-107522035D01*
X106732389Y-107559835D01*
X106735266Y-107574301D01*
X106742161Y-107584620D01*
X106742162Y-107584622D01*
X106772261Y-107629667D01*
X106791516Y-107658484D01*
X106875699Y-107714734D01*
X106949933Y-107729500D01*
X107824858Y-107729500D01*
X108700066Y-107729499D01*
X108735818Y-107722388D01*
X108762126Y-107717156D01*
X108762128Y-107717155D01*
X108774301Y-107714734D01*
X108784621Y-107707839D01*
X108784622Y-107707838D01*
X108848168Y-107665377D01*
X108858484Y-107658484D01*
X108914734Y-107574301D01*
X108929500Y-107500067D01*
X108929499Y-105749934D01*
X108914734Y-105675699D01*
X108903459Y-105658824D01*
X108865377Y-105601832D01*
X108858484Y-105591516D01*
X108774301Y-105535266D01*
X108700067Y-105520500D01*
X107825142Y-105520500D01*
X106949934Y-105520501D01*
X106914182Y-105527612D01*
X106887874Y-105532844D01*
X106887872Y-105532845D01*
X106875699Y-105535266D01*
X106865379Y-105542161D01*
X106865378Y-105542162D01*
X106829079Y-105566417D01*
X106791516Y-105591516D01*
X106735266Y-105675699D01*
X106720500Y-105749933D01*
X104218412Y-105749933D01*
X104283928Y-105653529D01*
X104286463Y-105647192D01*
X104350342Y-105487484D01*
X104350343Y-105487479D01*
X104352876Y-105481147D01*
X104353990Y-105474420D01*
X104353991Y-105474415D01*
X104382084Y-105304718D01*
X104382084Y-105304715D01*
X104383199Y-105297981D01*
X104378721Y-105212525D01*
X104373839Y-105119389D01*
X104373482Y-105112576D01*
X104371672Y-105106004D01*
X104371671Y-105105999D01*
X104325992Y-104940165D01*
X104324179Y-104933583D01*
X104237590Y-104769352D01*
X104117755Y-104627546D01*
X104112330Y-104623398D01*
X103975685Y-104518925D01*
X103975681Y-104518923D01*
X103970264Y-104514781D01*
X103964084Y-104511899D01*
X103964082Y-104511898D01*
X103808177Y-104439198D01*
X103808174Y-104439197D01*
X103802000Y-104436318D01*
X103795352Y-104434832D01*
X103795349Y-104434831D01*
X103641798Y-104400509D01*
X103620812Y-104395818D01*
X103615124Y-104395500D01*
X102928615Y-104395500D01*
X102790427Y-104410512D01*
X102705189Y-104439198D01*
X102620936Y-104467552D01*
X102620934Y-104467553D01*
X102614465Y-104469730D01*
X102455323Y-104565351D01*
X102450366Y-104570039D01*
X102450363Y-104570041D01*
X102325386Y-104688227D01*
X102320428Y-104692916D01*
X102216072Y-104846471D01*
X102213539Y-104852805D01*
X102213537Y-104852808D01*
X102149658Y-105012516D01*
X102149657Y-105012521D01*
X102147124Y-105018853D01*
X102146010Y-105025580D01*
X102146009Y-105025585D01*
X102132697Y-105105999D01*
X102116801Y-105202019D01*
X98254500Y-105202019D01*
X98254500Y-103647756D01*
X102120500Y-103647756D01*
X102127202Y-103709448D01*
X102177929Y-103844764D01*
X102183309Y-103851943D01*
X102183311Y-103851946D01*
X102229158Y-103913119D01*
X102264596Y-103960404D01*
X102271776Y-103965785D01*
X102373054Y-104041689D01*
X102373057Y-104041691D01*
X102380236Y-104047071D01*
X102469954Y-104080704D01*
X102508157Y-104095026D01*
X102508159Y-104095026D01*
X102515552Y-104097798D01*
X102523402Y-104098651D01*
X102523403Y-104098651D01*
X102573847Y-104104131D01*
X102577244Y-104104500D01*
X103922756Y-104104500D01*
X103926153Y-104104131D01*
X103976597Y-104098651D01*
X103976598Y-104098651D01*
X103984448Y-104097798D01*
X103991841Y-104095026D01*
X103991843Y-104095026D01*
X104030046Y-104080704D01*
X104119764Y-104047071D01*
X104126943Y-104041691D01*
X104126946Y-104041689D01*
X104228224Y-103965785D01*
X104235404Y-103960404D01*
X104270842Y-103913119D01*
X104316689Y-103851946D01*
X104316691Y-103851943D01*
X104322071Y-103844764D01*
X104372798Y-103709448D01*
X104379500Y-103647756D01*
X104379500Y-102852244D01*
X104372798Y-102790552D01*
X104322071Y-102655236D01*
X104316691Y-102648057D01*
X104316689Y-102648054D01*
X104240785Y-102546776D01*
X104235404Y-102539596D01*
X104176439Y-102495404D01*
X104126946Y-102458311D01*
X104126943Y-102458309D01*
X104119764Y-102452929D01*
X104012537Y-102412732D01*
X103991843Y-102404974D01*
X103991841Y-102404974D01*
X103984448Y-102402202D01*
X103976598Y-102401349D01*
X103976597Y-102401349D01*
X103926153Y-102395869D01*
X103926152Y-102395869D01*
X103922756Y-102395500D01*
X102577244Y-102395500D01*
X102573848Y-102395869D01*
X102573847Y-102395869D01*
X102523403Y-102401349D01*
X102523402Y-102401349D01*
X102515552Y-102402202D01*
X102508159Y-102404974D01*
X102508157Y-102404974D01*
X102487463Y-102412732D01*
X102380236Y-102452929D01*
X102373057Y-102458309D01*
X102373054Y-102458311D01*
X102323561Y-102495404D01*
X102264596Y-102539596D01*
X102259215Y-102546776D01*
X102183311Y-102648054D01*
X102183309Y-102648057D01*
X102177929Y-102655236D01*
X102127202Y-102790552D01*
X102120500Y-102852244D01*
X102120500Y-103647756D01*
X98254500Y-103647756D01*
X98254500Y-98086624D01*
X98274502Y-98018503D01*
X98328158Y-97972010D01*
X98398432Y-97961906D01*
X98463012Y-97991400D01*
X98488219Y-98021258D01*
X98500583Y-98041633D01*
X98504295Y-98045836D01*
X98507949Y-98049974D01*
X98507924Y-98049996D01*
X98510624Y-98053041D01*
X98513220Y-98056146D01*
X98517234Y-98062268D01*
X98522547Y-98067301D01*
X98573108Y-98115198D01*
X98575550Y-98117575D01*
X99144279Y-98686303D01*
X99156666Y-98700717D01*
X99165099Y-98712177D01*
X99165102Y-98712180D01*
X99169437Y-98718071D01*
X99209481Y-98752091D01*
X99216981Y-98759006D01*
X99220048Y-98762073D01*
X99220055Y-98762079D01*
X99222638Y-98764662D01*
X99244822Y-98782214D01*
X99248196Y-98784981D01*
X99303520Y-98831982D01*
X99310039Y-98835311D01*
X99315013Y-98838628D01*
X99320089Y-98841763D01*
X99325832Y-98846307D01*
X99332464Y-98849406D01*
X99332463Y-98849406D01*
X99391618Y-98877053D01*
X99395570Y-98878985D01*
X99460212Y-98911993D01*
X99467320Y-98913732D01*
X99472918Y-98915814D01*
X99478591Y-98917701D01*
X99485221Y-98920800D01*
X99556307Y-98935586D01*
X99560591Y-98936556D01*
X99631108Y-98953811D01*
X99636710Y-98954159D01*
X99636713Y-98954159D01*
X99642214Y-98954500D01*
X99642212Y-98954534D01*
X99646269Y-98954777D01*
X99650304Y-98955137D01*
X99657472Y-98956628D01*
X99664789Y-98956430D01*
X99734414Y-98954546D01*
X99737822Y-98954500D01*
X102446909Y-98954500D01*
X102515030Y-98974502D01*
X102523420Y-98980390D01*
X102529736Y-98985219D01*
X102535916Y-98988101D01*
X102535918Y-98988102D01*
X102691823Y-99060802D01*
X102691826Y-99060803D01*
X102698000Y-99063682D01*
X102704648Y-99065168D01*
X102704651Y-99065169D01*
X102803711Y-99087311D01*
X102879188Y-99104182D01*
X102884876Y-99104500D01*
X103571385Y-99104500D01*
X103709573Y-99089488D01*
X103830210Y-99048889D01*
X103879064Y-99032448D01*
X103879066Y-99032447D01*
X103885535Y-99030270D01*
X103981689Y-98972495D01*
X104046581Y-98954500D01*
X107035285Y-98954500D01*
X107103406Y-98974502D01*
X107124380Y-98991405D01*
X109807942Y-101674966D01*
X109807949Y-101674974D01*
X109846910Y-101713935D01*
X109852255Y-101719621D01*
X109892690Y-101765405D01*
X109898673Y-101769634D01*
X109898676Y-101769636D01*
X109903317Y-101772916D01*
X109919693Y-101786718D01*
X112572174Y-104439198D01*
X115222638Y-107089662D01*
X115325832Y-107171307D01*
X115332463Y-107174406D01*
X115332466Y-107174408D01*
X115478589Y-107242701D01*
X115478593Y-107242702D01*
X115485221Y-107245800D01*
X115492383Y-107247290D01*
X115492384Y-107247290D01*
X115542520Y-107257718D01*
X115657473Y-107281628D01*
X115833346Y-107276869D01*
X116003408Y-107231779D01*
X116158534Y-107148774D01*
X116290405Y-107032309D01*
X116391947Y-106888631D01*
X116394682Y-106881845D01*
X116394684Y-106881841D01*
X116454975Y-106732240D01*
X116454976Y-106732238D01*
X116457712Y-106725448D01*
X116471813Y-106632760D01*
X116483074Y-106558744D01*
X116483074Y-106558741D01*
X116484174Y-106551511D01*
X116481524Y-106518925D01*
X116470504Y-106383452D01*
X116470504Y-106383450D01*
X116469910Y-106376152D01*
X116434888Y-106268046D01*
X116417944Y-106215741D01*
X116417943Y-106215739D01*
X116415688Y-106208778D01*
X116352879Y-106105272D01*
X116327323Y-106063157D01*
X116327321Y-106063154D01*
X116324416Y-106058367D01*
X116317050Y-106050026D01*
X111556119Y-101289095D01*
X111522093Y-101226783D01*
X111527158Y-101155968D01*
X111556119Y-101110905D01*
X112615323Y-100051702D01*
X113748804Y-98918221D01*
X113763206Y-98905843D01*
X113780571Y-98893063D01*
X113814589Y-98853021D01*
X113821519Y-98845505D01*
X113827162Y-98839862D01*
X113844714Y-98817678D01*
X113847481Y-98814304D01*
X113889743Y-98764558D01*
X113894482Y-98758980D01*
X113897811Y-98752461D01*
X113901128Y-98747487D01*
X113904263Y-98742411D01*
X113908807Y-98736668D01*
X113939553Y-98670882D01*
X113941485Y-98666930D01*
X113971165Y-98608805D01*
X113974493Y-98602288D01*
X113976232Y-98595180D01*
X113978314Y-98589582D01*
X113980201Y-98583909D01*
X113983300Y-98577279D01*
X113998087Y-98506189D01*
X113999057Y-98501904D01*
X114014976Y-98436846D01*
X114016311Y-98431392D01*
X114017000Y-98420286D01*
X114017034Y-98420288D01*
X114017277Y-98416231D01*
X114017637Y-98412196D01*
X114019128Y-98405028D01*
X114017046Y-98328085D01*
X114017000Y-98324677D01*
X114017000Y-97818447D01*
X114001762Y-97687746D01*
X113986102Y-97644602D01*
X113944229Y-97529245D01*
X113941732Y-97522366D01*
X113917130Y-97484841D01*
X113869824Y-97412689D01*
X113845266Y-97375232D01*
X113717540Y-97254236D01*
X113565404Y-97165868D01*
X113397020Y-97114870D01*
X113221420Y-97103976D01*
X113214204Y-97105216D01*
X113214202Y-97105216D01*
X113055238Y-97132531D01*
X113055236Y-97132532D01*
X113048023Y-97133771D01*
X112886132Y-97202656D01*
X112744429Y-97306937D01*
X112630518Y-97441020D01*
X112627190Y-97447538D01*
X112553834Y-97591195D01*
X112553832Y-97591200D01*
X112550507Y-97597712D01*
X112548768Y-97604818D01*
X112548767Y-97604821D01*
X112539919Y-97640981D01*
X112508689Y-97768608D01*
X112508000Y-97779714D01*
X112508000Y-97972786D01*
X112487998Y-98040907D01*
X112471095Y-98061881D01*
X110489095Y-100043881D01*
X110426783Y-100077907D01*
X110355968Y-100072842D01*
X110310905Y-100043881D01*
X107980724Y-97713700D01*
X107968337Y-97699287D01*
X107959904Y-97687828D01*
X107955563Y-97681929D01*
X107915521Y-97647911D01*
X107908005Y-97640981D01*
X107902362Y-97635338D01*
X107880202Y-97617806D01*
X107876816Y-97615030D01*
X107866129Y-97605950D01*
X107821480Y-97568018D01*
X107814960Y-97564689D01*
X107809982Y-97561369D01*
X107804909Y-97558236D01*
X107799167Y-97553693D01*
X107733383Y-97522947D01*
X107729433Y-97521016D01*
X107671307Y-97491336D01*
X107664788Y-97488007D01*
X107657678Y-97486267D01*
X107652058Y-97484177D01*
X107646407Y-97482297D01*
X107639778Y-97479199D01*
X107632614Y-97477709D01*
X107632611Y-97477708D01*
X107592505Y-97469367D01*
X107568686Y-97464413D01*
X107564427Y-97463449D01*
X107493892Y-97446189D01*
X107488295Y-97445842D01*
X107488290Y-97445841D01*
X107482786Y-97445500D01*
X107482788Y-97445466D01*
X107478729Y-97445223D01*
X107474695Y-97444863D01*
X107467527Y-97443372D01*
X107460210Y-97443570D01*
X107390585Y-97445454D01*
X107387177Y-97445500D01*
X103847545Y-97445500D01*
X103807458Y-97438863D01*
X103802000Y-97436318D01*
X103620812Y-97395818D01*
X103615124Y-97395500D01*
X102928615Y-97395500D01*
X102790427Y-97410512D01*
X102718165Y-97434831D01*
X102706018Y-97438919D01*
X102665829Y-97445500D01*
X100089714Y-97445500D01*
X100021593Y-97425498D01*
X100000619Y-97408595D01*
X99891405Y-97299381D01*
X99857379Y-97237069D01*
X99854500Y-97210286D01*
X99854500Y-94647095D01*
X101867001Y-94647095D01*
X101867338Y-94653614D01*
X101877257Y-94749206D01*
X101880149Y-94762600D01*
X101931588Y-94916784D01*
X101937761Y-94929962D01*
X102023063Y-95067807D01*
X102032099Y-95079208D01*
X102146829Y-95193739D01*
X102158240Y-95202751D01*
X102296243Y-95287816D01*
X102309426Y-95293964D01*
X102434135Y-95335328D01*
X102492495Y-95375759D01*
X102519732Y-95441323D01*
X102507199Y-95511204D01*
X102465516Y-95556272D01*
X102466608Y-95557711D01*
X102461174Y-95561835D01*
X102455323Y-95565351D01*
X102450366Y-95570039D01*
X102450363Y-95570041D01*
X102325386Y-95688227D01*
X102320428Y-95692916D01*
X102216072Y-95846471D01*
X102213539Y-95852805D01*
X102213537Y-95852808D01*
X102149658Y-96012516D01*
X102149657Y-96012521D01*
X102147124Y-96018853D01*
X102146010Y-96025580D01*
X102146009Y-96025585D01*
X102132697Y-96105999D01*
X102116801Y-96202019D01*
X102126518Y-96387424D01*
X102128328Y-96393996D01*
X102128329Y-96394001D01*
X102154079Y-96487484D01*
X102175821Y-96566417D01*
X102262410Y-96730648D01*
X102382245Y-96872454D01*
X102387668Y-96876601D01*
X102387670Y-96876602D01*
X102524315Y-96981075D01*
X102524319Y-96981077D01*
X102529736Y-96985219D01*
X102535916Y-96988101D01*
X102535918Y-96988102D01*
X102691823Y-97060802D01*
X102691826Y-97060803D01*
X102698000Y-97063682D01*
X102704648Y-97065168D01*
X102704651Y-97065169D01*
X102803711Y-97087311D01*
X102879188Y-97104182D01*
X102884876Y-97104500D01*
X103571385Y-97104500D01*
X103709573Y-97089488D01*
X103830210Y-97048889D01*
X103879064Y-97032448D01*
X103879066Y-97032447D01*
X103885535Y-97030270D01*
X104044677Y-96934649D01*
X104049634Y-96929961D01*
X104049637Y-96929959D01*
X104174614Y-96811773D01*
X104174616Y-96811771D01*
X104179572Y-96807084D01*
X104283928Y-96653529D01*
X104316355Y-96572456D01*
X104350342Y-96487484D01*
X104350343Y-96487479D01*
X104352876Y-96481147D01*
X104353990Y-96474420D01*
X104353991Y-96474415D01*
X104382084Y-96304718D01*
X104382084Y-96304715D01*
X104383199Y-96297981D01*
X104373482Y-96112576D01*
X104371672Y-96106004D01*
X104371671Y-96105999D01*
X104325992Y-95940165D01*
X104324179Y-95933583D01*
X104237590Y-95769352D01*
X104117755Y-95627546D01*
X104024833Y-95556502D01*
X103982865Y-95499238D01*
X103978520Y-95428374D01*
X104013176Y-95366411D01*
X104061486Y-95336882D01*
X104191784Y-95293412D01*
X104204962Y-95287239D01*
X104342807Y-95201937D01*
X104354208Y-95192901D01*
X104468739Y-95078171D01*
X104477751Y-95066760D01*
X104562816Y-94928757D01*
X104568963Y-94915576D01*
X104620138Y-94761290D01*
X104623005Y-94747914D01*
X104632672Y-94653562D01*
X104633000Y-94647146D01*
X104633000Y-94522115D01*
X104628525Y-94506876D01*
X104627135Y-94505671D01*
X104619452Y-94504000D01*
X101885116Y-94504000D01*
X101869877Y-94508475D01*
X101868672Y-94509865D01*
X101867001Y-94517548D01*
X101867001Y-94647095D01*
X99854500Y-94647095D01*
X99854500Y-93977885D01*
X101867000Y-93977885D01*
X101871475Y-93993124D01*
X101872865Y-93994329D01*
X101880548Y-93996000D01*
X102977885Y-93996000D01*
X102993124Y-93991525D01*
X102994329Y-93990135D01*
X102996000Y-93982452D01*
X102996000Y-93977885D01*
X103504000Y-93977885D01*
X103508475Y-93993124D01*
X103509865Y-93994329D01*
X103517548Y-93996000D01*
X104614884Y-93996000D01*
X104630123Y-93991525D01*
X104631328Y-93990135D01*
X104632999Y-93982452D01*
X104632999Y-93852905D01*
X104632662Y-93846386D01*
X104622743Y-93750794D01*
X104619851Y-93737400D01*
X104568412Y-93583216D01*
X104562239Y-93570038D01*
X104476937Y-93432193D01*
X104467901Y-93420792D01*
X104353171Y-93306261D01*
X104341760Y-93297249D01*
X104203757Y-93212184D01*
X104190576Y-93206037D01*
X104036290Y-93154862D01*
X104022914Y-93151995D01*
X103928562Y-93142328D01*
X103922145Y-93142000D01*
X103522115Y-93142000D01*
X103506876Y-93146475D01*
X103505671Y-93147865D01*
X103504000Y-93155548D01*
X103504000Y-93977885D01*
X102996000Y-93977885D01*
X102996000Y-93160116D01*
X102991525Y-93144877D01*
X102990135Y-93143672D01*
X102982452Y-93142001D01*
X102577905Y-93142001D01*
X102571386Y-93142338D01*
X102475794Y-93152257D01*
X102462400Y-93155149D01*
X102308216Y-93206588D01*
X102295038Y-93212761D01*
X102157193Y-93298063D01*
X102145792Y-93307099D01*
X102031261Y-93421829D01*
X102022249Y-93433240D01*
X101937184Y-93571243D01*
X101931037Y-93584424D01*
X101879862Y-93738710D01*
X101876995Y-93752086D01*
X101867328Y-93846438D01*
X101867000Y-93852855D01*
X101867000Y-93977885D01*
X99854500Y-93977885D01*
X99854500Y-89252019D01*
X102066801Y-89252019D01*
X102067158Y-89258836D01*
X102067158Y-89258840D01*
X102074682Y-89402394D01*
X102076518Y-89437424D01*
X102078328Y-89443996D01*
X102078329Y-89444001D01*
X102104079Y-89537484D01*
X102125821Y-89616417D01*
X102212410Y-89780648D01*
X102332245Y-89922454D01*
X102337668Y-89926601D01*
X102337670Y-89926602D01*
X102474315Y-90031075D01*
X102474319Y-90031077D01*
X102479736Y-90035219D01*
X102485916Y-90038101D01*
X102485918Y-90038102D01*
X102641823Y-90110802D01*
X102641826Y-90110803D01*
X102648000Y-90113682D01*
X102654648Y-90115168D01*
X102654651Y-90115169D01*
X102783620Y-90143996D01*
X102829188Y-90154182D01*
X102834876Y-90154500D01*
X103521385Y-90154500D01*
X103659573Y-90139488D01*
X103780210Y-90098889D01*
X103829064Y-90082448D01*
X103829066Y-90082447D01*
X103835535Y-90080270D01*
X103994677Y-89984649D01*
X103999634Y-89979961D01*
X103999637Y-89979959D01*
X104124614Y-89861773D01*
X104124616Y-89861771D01*
X104129572Y-89857084D01*
X104233928Y-89703529D01*
X104236463Y-89697192D01*
X104300342Y-89537484D01*
X104300343Y-89537479D01*
X104302876Y-89531147D01*
X104303990Y-89524420D01*
X104303991Y-89524415D01*
X104332084Y-89354718D01*
X104332084Y-89354715D01*
X104333199Y-89347981D01*
X104331917Y-89323509D01*
X104323839Y-89169389D01*
X104323482Y-89162576D01*
X104321672Y-89156004D01*
X104321671Y-89155999D01*
X104275992Y-88990165D01*
X104274179Y-88983583D01*
X104187590Y-88819352D01*
X104067755Y-88677546D01*
X104062330Y-88673398D01*
X103925685Y-88568925D01*
X103925681Y-88568923D01*
X103920264Y-88564781D01*
X103914084Y-88561899D01*
X103914082Y-88561898D01*
X103758177Y-88489198D01*
X103758174Y-88489197D01*
X103752000Y-88486318D01*
X103745352Y-88484832D01*
X103745349Y-88484831D01*
X103575849Y-88446944D01*
X103575850Y-88446944D01*
X103570812Y-88445818D01*
X103565124Y-88445500D01*
X102878615Y-88445500D01*
X102740427Y-88460512D01*
X102660190Y-88487515D01*
X102570936Y-88517552D01*
X102570934Y-88517553D01*
X102564465Y-88519730D01*
X102405323Y-88615351D01*
X102400366Y-88620039D01*
X102400363Y-88620041D01*
X102283404Y-88730645D01*
X102270428Y-88742916D01*
X102166072Y-88896471D01*
X102163539Y-88902805D01*
X102163537Y-88902808D01*
X102099658Y-89062516D01*
X102099657Y-89062521D01*
X102097124Y-89068853D01*
X102096010Y-89075580D01*
X102096009Y-89075585D01*
X102071233Y-89225246D01*
X102066801Y-89252019D01*
X99854500Y-89252019D01*
X99854500Y-85567399D01*
X101849712Y-85567399D01*
X101871194Y-85656537D01*
X101875083Y-85667832D01*
X101957629Y-85849382D01*
X101963576Y-85859724D01*
X102078968Y-86022397D01*
X102086761Y-86031425D01*
X102230831Y-86169342D01*
X102240196Y-86176738D01*
X102407741Y-86284921D01*
X102418345Y-86290417D01*
X102499579Y-86323155D01*
X102555285Y-86367170D01*
X102578352Y-86434315D01*
X102561455Y-86503271D01*
X102517375Y-86548024D01*
X102482590Y-86568925D01*
X102405323Y-86615351D01*
X102400366Y-86620039D01*
X102400363Y-86620041D01*
X102275386Y-86738227D01*
X102270428Y-86742916D01*
X102166072Y-86896471D01*
X102163539Y-86902805D01*
X102163537Y-86902808D01*
X102099658Y-87062516D01*
X102099657Y-87062521D01*
X102097124Y-87068853D01*
X102096010Y-87075580D01*
X102096009Y-87075585D01*
X102067916Y-87245282D01*
X102066801Y-87252019D01*
X102067158Y-87258836D01*
X102067158Y-87258840D01*
X102071424Y-87340228D01*
X102076518Y-87437424D01*
X102078328Y-87443996D01*
X102078329Y-87444001D01*
X102122546Y-87604526D01*
X102125821Y-87616417D01*
X102212410Y-87780648D01*
X102332245Y-87922454D01*
X102337668Y-87926601D01*
X102337670Y-87926602D01*
X102474315Y-88031075D01*
X102474319Y-88031077D01*
X102479736Y-88035219D01*
X102485916Y-88038101D01*
X102485918Y-88038102D01*
X102641823Y-88110802D01*
X102641826Y-88110803D01*
X102648000Y-88113682D01*
X102654648Y-88115168D01*
X102654651Y-88115169D01*
X102753711Y-88137311D01*
X102829188Y-88154182D01*
X102834876Y-88154500D01*
X103521385Y-88154500D01*
X103659573Y-88139488D01*
X103780210Y-88098889D01*
X103829064Y-88082448D01*
X103829066Y-88082447D01*
X103835535Y-88080270D01*
X103994677Y-87984649D01*
X103999634Y-87979961D01*
X103999637Y-87979959D01*
X104124614Y-87861773D01*
X104124616Y-87861771D01*
X104129572Y-87857084D01*
X104185623Y-87774607D01*
X104195770Y-87759677D01*
X104250603Y-87714579D01*
X104299982Y-87704500D01*
X114164066Y-87704500D01*
X114173498Y-87701435D01*
X114173500Y-87701435D01*
X114185287Y-87697605D01*
X114204513Y-87692989D01*
X114216762Y-87691049D01*
X114226555Y-87689498D01*
X114246439Y-87679366D01*
X114264705Y-87671801D01*
X114265792Y-87671448D01*
X114285929Y-87664905D01*
X114303989Y-87651784D01*
X114320846Y-87641454D01*
X114340723Y-87631326D01*
X114363511Y-87608538D01*
X114363515Y-87608535D01*
X114884456Y-87087594D01*
X114946768Y-87053568D01*
X114957099Y-87051768D01*
X115044754Y-87040228D01*
X115179643Y-86984355D01*
X115186196Y-86979327D01*
X115288921Y-86900503D01*
X115288924Y-86900500D01*
X115295474Y-86895474D01*
X115384355Y-86779642D01*
X115388767Y-86768992D01*
X115437069Y-86652380D01*
X115440228Y-86644754D01*
X115443399Y-86620673D01*
X115457467Y-86513807D01*
X115459285Y-86500000D01*
X115446716Y-86404526D01*
X115441306Y-86363432D01*
X115441305Y-86363430D01*
X115440228Y-86355246D01*
X115401990Y-86262932D01*
X115387515Y-86227986D01*
X115387514Y-86227984D01*
X115384355Y-86220358D01*
X115295474Y-86104526D01*
X115288924Y-86099500D01*
X115288921Y-86099497D01*
X115186196Y-86020673D01*
X115186194Y-86020672D01*
X115179643Y-86015645D01*
X115044754Y-85959772D01*
X114900000Y-85940715D01*
X114891812Y-85941793D01*
X114763432Y-85958694D01*
X114763430Y-85958695D01*
X114755246Y-85959772D01*
X114707430Y-85979578D01*
X114627986Y-86012485D01*
X114627984Y-86012486D01*
X114620358Y-86015645D01*
X114504526Y-86104526D01*
X114415645Y-86220358D01*
X114412486Y-86227984D01*
X114412485Y-86227986D01*
X114398010Y-86262932D01*
X114359772Y-86355246D01*
X114349363Y-86434315D01*
X114348233Y-86442895D01*
X114319511Y-86507822D01*
X114312406Y-86515544D01*
X113969355Y-86858595D01*
X113907043Y-86892621D01*
X113880260Y-86895500D01*
X104303746Y-86895500D01*
X104235625Y-86875498D01*
X104194742Y-86830939D01*
X104194587Y-86831044D01*
X104193891Y-86830011D01*
X104192290Y-86828267D01*
X104190772Y-86825387D01*
X104190771Y-86825386D01*
X104187590Y-86819352D01*
X104182905Y-86813807D01*
X104072161Y-86682760D01*
X104067755Y-86677546D01*
X104038588Y-86655246D01*
X103925685Y-86568925D01*
X103925681Y-86568923D01*
X103920264Y-86564781D01*
X103909522Y-86559772D01*
X103900617Y-86555619D01*
X103847333Y-86508701D01*
X103827873Y-86440423D01*
X103848416Y-86372464D01*
X103896177Y-86329409D01*
X104070978Y-86239381D01*
X104081024Y-86232931D01*
X104237857Y-86109738D01*
X104246506Y-86101501D01*
X104377212Y-85950877D01*
X104384147Y-85941153D01*
X104484010Y-85768533D01*
X104488984Y-85757669D01*
X104554407Y-85569273D01*
X104554648Y-85568284D01*
X104553180Y-85557992D01*
X104539615Y-85554000D01*
X101864598Y-85554000D01*
X101851067Y-85557973D01*
X101849712Y-85567399D01*
X99854500Y-85567399D01*
X99854500Y-85031716D01*
X101845352Y-85031716D01*
X101846820Y-85042008D01*
X101860385Y-85046000D01*
X104535402Y-85046000D01*
X104548933Y-85042027D01*
X104550288Y-85032601D01*
X104528806Y-84943463D01*
X104524917Y-84932168D01*
X104442371Y-84750618D01*
X104436424Y-84740276D01*
X104321032Y-84577603D01*
X104313239Y-84568575D01*
X104169169Y-84430658D01*
X104159804Y-84423262D01*
X103992259Y-84315079D01*
X103981655Y-84309583D01*
X103900421Y-84276845D01*
X103844715Y-84232830D01*
X103821648Y-84165685D01*
X103838545Y-84096729D01*
X103882625Y-84051976D01*
X103988825Y-83988165D01*
X103994677Y-83984649D01*
X103999634Y-83979961D01*
X103999637Y-83979959D01*
X104124614Y-83861773D01*
X104124616Y-83861771D01*
X104129572Y-83857084D01*
X104233928Y-83703529D01*
X104266355Y-83622456D01*
X104300342Y-83537484D01*
X104300343Y-83537479D01*
X104302876Y-83531147D01*
X104303990Y-83524420D01*
X104303991Y-83524415D01*
X104332084Y-83354718D01*
X104332084Y-83354715D01*
X104333199Y-83347981D01*
X104325764Y-83206108D01*
X104323839Y-83169389D01*
X104323482Y-83162576D01*
X104321672Y-83156004D01*
X104321671Y-83155999D01*
X104275992Y-82990165D01*
X104274179Y-82983583D01*
X104187590Y-82819352D01*
X104067755Y-82677546D01*
X104062330Y-82673398D01*
X103925685Y-82568925D01*
X103925681Y-82568923D01*
X103920264Y-82564781D01*
X103914084Y-82561899D01*
X103914082Y-82561898D01*
X103758177Y-82489198D01*
X103758174Y-82489197D01*
X103752000Y-82486318D01*
X103745352Y-82484832D01*
X103745349Y-82484831D01*
X103575849Y-82446944D01*
X103575850Y-82446944D01*
X103570812Y-82445818D01*
X103565124Y-82445500D01*
X102878615Y-82445500D01*
X102740427Y-82460512D01*
X102655189Y-82489198D01*
X102570936Y-82517552D01*
X102570934Y-82517553D01*
X102564465Y-82519730D01*
X102405323Y-82615351D01*
X102400366Y-82620039D01*
X102400363Y-82620041D01*
X102319223Y-82696772D01*
X102270428Y-82742916D01*
X102166072Y-82896471D01*
X102163539Y-82902805D01*
X102163537Y-82902808D01*
X102099658Y-83062516D01*
X102099657Y-83062521D01*
X102097124Y-83068853D01*
X102096010Y-83075580D01*
X102096009Y-83075585D01*
X102072884Y-83215275D01*
X102066801Y-83252019D01*
X102067158Y-83258836D01*
X102067158Y-83258840D01*
X102071473Y-83341160D01*
X102076518Y-83437424D01*
X102078328Y-83443996D01*
X102078329Y-83444001D01*
X102104079Y-83537484D01*
X102125821Y-83616417D01*
X102212410Y-83780648D01*
X102332245Y-83922454D01*
X102337668Y-83926601D01*
X102337670Y-83926602D01*
X102474315Y-84031075D01*
X102474319Y-84031077D01*
X102479736Y-84035219D01*
X102485919Y-84038102D01*
X102499383Y-84044381D01*
X102552667Y-84091299D01*
X102572127Y-84159577D01*
X102551584Y-84227536D01*
X102503823Y-84270591D01*
X102329022Y-84360619D01*
X102318976Y-84367069D01*
X102162143Y-84490262D01*
X102153494Y-84498499D01*
X102022788Y-84649123D01*
X102015853Y-84658847D01*
X101915990Y-84831467D01*
X101911016Y-84842331D01*
X101845593Y-85030727D01*
X101845352Y-85031716D01*
X99854500Y-85031716D01*
X99854500Y-82264716D01*
X99874502Y-82196595D01*
X99891404Y-82175621D01*
X99975619Y-82091405D01*
X100037931Y-82057380D01*
X100064715Y-82054500D01*
X102231458Y-82054500D01*
X102299579Y-82074502D01*
X102307023Y-82079674D01*
X102322676Y-82091405D01*
X102330236Y-82097071D01*
X102398629Y-82122710D01*
X102458157Y-82145026D01*
X102458159Y-82145026D01*
X102465552Y-82147798D01*
X102473402Y-82148651D01*
X102473403Y-82148651D01*
X102523847Y-82154131D01*
X102527244Y-82154500D01*
X103872756Y-82154500D01*
X103876153Y-82154131D01*
X103926597Y-82148651D01*
X103926598Y-82148651D01*
X103934448Y-82147798D01*
X103941841Y-82145026D01*
X103941843Y-82145026D01*
X104001371Y-82122710D01*
X104069764Y-82097071D01*
X104077325Y-82091405D01*
X104092977Y-82079674D01*
X104159483Y-82054826D01*
X104168542Y-82054500D01*
X105933235Y-82054500D01*
X105952185Y-82055933D01*
X105966255Y-82058074D01*
X105966259Y-82058074D01*
X105973489Y-82059174D01*
X105980780Y-82058581D01*
X105980783Y-82058581D01*
X106025848Y-82054915D01*
X106036063Y-82054500D01*
X106044053Y-82054500D01*
X106051302Y-82053655D01*
X106072113Y-82051229D01*
X106076487Y-82050796D01*
X106141549Y-82045504D01*
X106141552Y-82045503D01*
X106148847Y-82044910D01*
X106155809Y-82042655D01*
X106161677Y-82041482D01*
X106167484Y-82040110D01*
X106174754Y-82039262D01*
X106243060Y-82014468D01*
X106247163Y-82013060D01*
X106316222Y-81990688D01*
X106322479Y-81986891D01*
X106327926Y-81984398D01*
X106333254Y-81981730D01*
X106340134Y-81979232D01*
X106400849Y-81939426D01*
X106404559Y-81937085D01*
X106461838Y-81902327D01*
X106461840Y-81902325D01*
X106466633Y-81899417D01*
X106474974Y-81892051D01*
X106474996Y-81892076D01*
X106478041Y-81889376D01*
X106481146Y-81886780D01*
X106487268Y-81882766D01*
X106540216Y-81826873D01*
X106542593Y-81824432D01*
X110886300Y-77480724D01*
X110900713Y-77468337D01*
X110912172Y-77459904D01*
X110918071Y-77455563D01*
X110952089Y-77415521D01*
X110959019Y-77408005D01*
X110964662Y-77402362D01*
X110982194Y-77380202D01*
X110984970Y-77376816D01*
X111027243Y-77327058D01*
X111031982Y-77321480D01*
X111035311Y-77314960D01*
X111038631Y-77309982D01*
X111041764Y-77304909D01*
X111046307Y-77299167D01*
X111064339Y-77260585D01*
X111077053Y-77233383D01*
X111078984Y-77229433D01*
X111108664Y-77171307D01*
X111111993Y-77164788D01*
X111113733Y-77157678D01*
X111115820Y-77152066D01*
X111117702Y-77146409D01*
X111120801Y-77139778D01*
X111125721Y-77116127D01*
X111135591Y-77068672D01*
X111136562Y-77064383D01*
X111152476Y-76999346D01*
X111153811Y-76993892D01*
X111154500Y-76982786D01*
X111154534Y-76982788D01*
X111154777Y-76978750D01*
X111155139Y-76974689D01*
X111156629Y-76967527D01*
X111154546Y-76890548D01*
X111154500Y-76887140D01*
X111154500Y-72499933D01*
X118095500Y-72499933D01*
X118095501Y-74250066D01*
X118110266Y-74324301D01*
X118117161Y-74334620D01*
X118117162Y-74334622D01*
X118157516Y-74395015D01*
X118166516Y-74408484D01*
X118250699Y-74464734D01*
X118324933Y-74479500D01*
X119199858Y-74479500D01*
X120075066Y-74479499D01*
X120110818Y-74472388D01*
X120137126Y-74467156D01*
X120137128Y-74467155D01*
X120149301Y-74464734D01*
X120159621Y-74457839D01*
X120159622Y-74457838D01*
X120223168Y-74415377D01*
X120233484Y-74408484D01*
X120289734Y-74324301D01*
X120304500Y-74250067D01*
X120304500Y-74078428D01*
X120324502Y-74010307D01*
X120378158Y-73963814D01*
X120448432Y-73953710D01*
X120513012Y-73983204D01*
X120537933Y-74012593D01*
X120637694Y-74175388D01*
X120643777Y-74183699D01*
X120783213Y-74344667D01*
X120790580Y-74351883D01*
X120954434Y-74487916D01*
X120962881Y-74493831D01*
X121146756Y-74601279D01*
X121156042Y-74605729D01*
X121355001Y-74681703D01*
X121364899Y-74684579D01*
X121468250Y-74705606D01*
X121482299Y-74704410D01*
X121486000Y-74694065D01*
X121486000Y-73247000D01*
X121506002Y-73178879D01*
X121559658Y-73132386D01*
X121612000Y-73121000D01*
X121868000Y-73121000D01*
X121936121Y-73141002D01*
X121982614Y-73194658D01*
X121994000Y-73247000D01*
X121994000Y-74693517D01*
X121998064Y-74707359D01*
X122011478Y-74709393D01*
X122018184Y-74708534D01*
X122028262Y-74706392D01*
X122232255Y-74645191D01*
X122241842Y-74641433D01*
X122433095Y-74547739D01*
X122441945Y-74542464D01*
X122615328Y-74418792D01*
X122623200Y-74412139D01*
X122774052Y-74261812D01*
X122780730Y-74253965D01*
X122905003Y-74081020D01*
X122910313Y-74072183D01*
X123004670Y-73881267D01*
X123008469Y-73871672D01*
X123025066Y-73817047D01*
X123064007Y-73757683D01*
X123128862Y-73728796D01*
X123199038Y-73739558D01*
X123252256Y-73786551D01*
X123260048Y-73800922D01*
X123319377Y-73929616D01*
X123436533Y-74095389D01*
X123581938Y-74237035D01*
X123750720Y-74349812D01*
X123756023Y-74352090D01*
X123756026Y-74352092D01*
X123929631Y-74426678D01*
X123937228Y-74429942D01*
X124010244Y-74446464D01*
X124129579Y-74473467D01*
X124129584Y-74473468D01*
X124135216Y-74474742D01*
X124140987Y-74474969D01*
X124140989Y-74474969D01*
X124200756Y-74477317D01*
X124338053Y-74482712D01*
X124445348Y-74467155D01*
X124533231Y-74454413D01*
X124533236Y-74454412D01*
X124538945Y-74453584D01*
X124544409Y-74451729D01*
X124544414Y-74451728D01*
X124725693Y-74390192D01*
X124725698Y-74390190D01*
X124731165Y-74388334D01*
X124908276Y-74289147D01*
X124947969Y-74256135D01*
X125035696Y-74183172D01*
X125064345Y-74159345D01*
X125129488Y-74081020D01*
X125190453Y-74007718D01*
X125190455Y-74007715D01*
X125194147Y-74003276D01*
X125293334Y-73826165D01*
X125295190Y-73820698D01*
X125295192Y-73820693D01*
X125356728Y-73639414D01*
X125356729Y-73639409D01*
X125358584Y-73633945D01*
X125359412Y-73628236D01*
X125359413Y-73628231D01*
X125387179Y-73436727D01*
X125387712Y-73433053D01*
X125389232Y-73375000D01*
X125386564Y-73345964D01*
X125711148Y-73345964D01*
X125711526Y-73351730D01*
X125723641Y-73536568D01*
X125724424Y-73548522D01*
X125725845Y-73554118D01*
X125725846Y-73554123D01*
X125766249Y-73713207D01*
X125774392Y-73745269D01*
X125776809Y-73750512D01*
X125811832Y-73826482D01*
X125859377Y-73929616D01*
X125976533Y-74095389D01*
X126121938Y-74237035D01*
X126290720Y-74349812D01*
X126296023Y-74352090D01*
X126296026Y-74352092D01*
X126469631Y-74426678D01*
X126477228Y-74429942D01*
X126550244Y-74446464D01*
X126669579Y-74473467D01*
X126669584Y-74473468D01*
X126675216Y-74474742D01*
X126680987Y-74474969D01*
X126680989Y-74474969D01*
X126740756Y-74477317D01*
X126878053Y-74482712D01*
X127002045Y-74464734D01*
X127073223Y-74454414D01*
X127073227Y-74454413D01*
X127078945Y-74453584D01*
X127084418Y-74451726D01*
X127090033Y-74450378D01*
X127090327Y-74451603D01*
X127154935Y-74448903D01*
X127213610Y-74482081D01*
X130958595Y-78227066D01*
X130992621Y-78289378D01*
X130995500Y-78316161D01*
X130995500Y-86743927D01*
X130985909Y-86792145D01*
X130967170Y-86837385D01*
X130959772Y-86855246D01*
X130958695Y-86863430D01*
X130958694Y-86863432D01*
X130951200Y-86920358D01*
X130940715Y-87000000D01*
X130941793Y-87008188D01*
X130949780Y-87068853D01*
X130959772Y-87144754D01*
X130962931Y-87152380D01*
X131004353Y-87252380D01*
X131015645Y-87279642D01*
X131058349Y-87335295D01*
X131092378Y-87379642D01*
X131104526Y-87395474D01*
X131111076Y-87400500D01*
X131111079Y-87400503D01*
X131192438Y-87462932D01*
X131220357Y-87484355D01*
X131355246Y-87540228D01*
X131363434Y-87541306D01*
X131427623Y-87549757D01*
X131500000Y-87559285D01*
X131508188Y-87558207D01*
X131636566Y-87541306D01*
X131644754Y-87540228D01*
X131779643Y-87484355D01*
X131807562Y-87462932D01*
X131888921Y-87400503D01*
X131888924Y-87400500D01*
X131895474Y-87395474D01*
X131907623Y-87379642D01*
X131941651Y-87335295D01*
X131984355Y-87279642D01*
X131995648Y-87252380D01*
X132037069Y-87152380D01*
X132040228Y-87144754D01*
X132050221Y-87068853D01*
X132058207Y-87008188D01*
X132059285Y-87000000D01*
X132048800Y-86920358D01*
X132041306Y-86863432D01*
X132041305Y-86863430D01*
X132040228Y-86855246D01*
X132032830Y-86837385D01*
X132014091Y-86792145D01*
X132004500Y-86743927D01*
X132004500Y-78125624D01*
X132005841Y-78113619D01*
X132005345Y-78113579D01*
X132006065Y-78104632D01*
X132008046Y-78095876D01*
X132004742Y-78042618D01*
X132004500Y-78034816D01*
X132004500Y-78018774D01*
X132003035Y-78008543D01*
X132002003Y-77998477D01*
X131999654Y-77960600D01*
X131999654Y-77960598D01*
X131999098Y-77951641D01*
X131996051Y-77943201D01*
X131995370Y-77939911D01*
X131991416Y-77924054D01*
X131990473Y-77920829D01*
X131989201Y-77911948D01*
X131969773Y-77869218D01*
X131965969Y-77859875D01*
X131950027Y-77815715D01*
X131944732Y-77808467D01*
X131943147Y-77805486D01*
X131934907Y-77791387D01*
X131933103Y-77788567D01*
X131929388Y-77780395D01*
X131898751Y-77744838D01*
X131892469Y-77736926D01*
X131887404Y-77729993D01*
X131887393Y-77729980D01*
X131884526Y-77726056D01*
X131873672Y-77715202D01*
X131867314Y-77708355D01*
X131840916Y-77677718D01*
X131840913Y-77677716D01*
X131835056Y-77670918D01*
X131827523Y-77666036D01*
X131820955Y-77660306D01*
X131809542Y-77651072D01*
X127927081Y-73768610D01*
X127893055Y-73706298D01*
X127896510Y-73645305D01*
X127895378Y-73645033D01*
X127896726Y-73639418D01*
X127898584Y-73633945D01*
X127927712Y-73433053D01*
X127929232Y-73375000D01*
X127910658Y-73172859D01*
X127909090Y-73167299D01*
X127857125Y-72983046D01*
X127857124Y-72983044D01*
X127855557Y-72977487D01*
X127844978Y-72956033D01*
X127768331Y-72800609D01*
X127765776Y-72795428D01*
X127751897Y-72776841D01*
X127692761Y-72697649D01*
X127644320Y-72632779D01*
X127495258Y-72494987D01*
X127490375Y-72491906D01*
X127490371Y-72491903D01*
X127328464Y-72389748D01*
X127323581Y-72386667D01*
X127135039Y-72311446D01*
X127129379Y-72310320D01*
X127129375Y-72310319D01*
X126941613Y-72272971D01*
X126941610Y-72272971D01*
X126935946Y-72271844D01*
X126930171Y-72271768D01*
X126930167Y-72271768D01*
X126828793Y-72270441D01*
X126732971Y-72269187D01*
X126727274Y-72270166D01*
X126727273Y-72270166D01*
X126639397Y-72285266D01*
X126532910Y-72303564D01*
X126342463Y-72373824D01*
X126168010Y-72477612D01*
X126163670Y-72481418D01*
X126163666Y-72481421D01*
X126019733Y-72607648D01*
X126015392Y-72611455D01*
X125889720Y-72770869D01*
X125887031Y-72775980D01*
X125887029Y-72775983D01*
X125875833Y-72797264D01*
X125795203Y-72950515D01*
X125735007Y-73144378D01*
X125711148Y-73345964D01*
X125386564Y-73345964D01*
X125370658Y-73172859D01*
X125369090Y-73167299D01*
X125317125Y-72983046D01*
X125317124Y-72983044D01*
X125315557Y-72977487D01*
X125304978Y-72956033D01*
X125228331Y-72800609D01*
X125225776Y-72795428D01*
X125211897Y-72776841D01*
X125152761Y-72697649D01*
X125104320Y-72632779D01*
X124955258Y-72494987D01*
X124950375Y-72491906D01*
X124950371Y-72491903D01*
X124788464Y-72389748D01*
X124783581Y-72386667D01*
X124595039Y-72311446D01*
X124589379Y-72310320D01*
X124589375Y-72310319D01*
X124401613Y-72272971D01*
X124401610Y-72272971D01*
X124395946Y-72271844D01*
X124390171Y-72271768D01*
X124390167Y-72271768D01*
X124288793Y-72270441D01*
X124192971Y-72269187D01*
X124187274Y-72270166D01*
X124187273Y-72270166D01*
X124099397Y-72285266D01*
X123992910Y-72303564D01*
X123802463Y-72373824D01*
X123628010Y-72477612D01*
X123623670Y-72481418D01*
X123623666Y-72481421D01*
X123479733Y-72607648D01*
X123475392Y-72611455D01*
X123349720Y-72770869D01*
X123347031Y-72775980D01*
X123347029Y-72775983D01*
X123257589Y-72945980D01*
X123208170Y-72996952D01*
X123139037Y-73013115D01*
X123072141Y-72989336D01*
X123032003Y-72934973D01*
X123029955Y-72935863D01*
X122942972Y-72735814D01*
X122938105Y-72726739D01*
X122822426Y-72547926D01*
X122816136Y-72539757D01*
X122672806Y-72382240D01*
X122665273Y-72375215D01*
X122498139Y-72243222D01*
X122489552Y-72237517D01*
X122303117Y-72134599D01*
X122293705Y-72130369D01*
X122179391Y-72089888D01*
X122121855Y-72048294D01*
X122095939Y-71982196D01*
X122109873Y-71912580D01*
X122159232Y-71861549D01*
X122180943Y-71851804D01*
X122191165Y-71848334D01*
X122199276Y-71843792D01*
X122340477Y-71764715D01*
X122368276Y-71749147D01*
X122382728Y-71737128D01*
X122519913Y-71623031D01*
X122524345Y-71619345D01*
X122654147Y-71463276D01*
X122739028Y-71311710D01*
X122750510Y-71291208D01*
X122750511Y-71291206D01*
X122753334Y-71286165D01*
X122755190Y-71280698D01*
X122755192Y-71280693D01*
X122816728Y-71099414D01*
X122816729Y-71099409D01*
X122818584Y-71093945D01*
X122819412Y-71088236D01*
X122819413Y-71088231D01*
X122843837Y-70919780D01*
X122847712Y-70893053D01*
X122849232Y-70835000D01*
X122846564Y-70805964D01*
X123171148Y-70805964D01*
X123184424Y-71008522D01*
X123185845Y-71014118D01*
X123185846Y-71014123D01*
X123225796Y-71171424D01*
X123234392Y-71205269D01*
X123236809Y-71210512D01*
X123274010Y-71291208D01*
X123319377Y-71389616D01*
X123436533Y-71555389D01*
X123581938Y-71697035D01*
X123750720Y-71809812D01*
X123756023Y-71812090D01*
X123756026Y-71812092D01*
X123871141Y-71861549D01*
X123937228Y-71889942D01*
X123996231Y-71903293D01*
X124129579Y-71933467D01*
X124129584Y-71933468D01*
X124135216Y-71934742D01*
X124140987Y-71934969D01*
X124140989Y-71934969D01*
X124200756Y-71937317D01*
X124338053Y-71942712D01*
X124438499Y-71928148D01*
X124533231Y-71914413D01*
X124533236Y-71914412D01*
X124538945Y-71913584D01*
X124544409Y-71911729D01*
X124544414Y-71911728D01*
X124725693Y-71850192D01*
X124725698Y-71850190D01*
X124731165Y-71848334D01*
X124739276Y-71843792D01*
X124880477Y-71764715D01*
X124908276Y-71749147D01*
X124922728Y-71737128D01*
X125059913Y-71623031D01*
X125064345Y-71619345D01*
X125194147Y-71463276D01*
X125279028Y-71311710D01*
X125290510Y-71291208D01*
X125290511Y-71291206D01*
X125293334Y-71286165D01*
X125295190Y-71280698D01*
X125295192Y-71280693D01*
X125356728Y-71099414D01*
X125356729Y-71099409D01*
X125358584Y-71093945D01*
X125359412Y-71088236D01*
X125359413Y-71088231D01*
X125383837Y-70919780D01*
X125387712Y-70893053D01*
X125389232Y-70835000D01*
X125386564Y-70805964D01*
X125711148Y-70805964D01*
X125724424Y-71008522D01*
X125725845Y-71014118D01*
X125725846Y-71014123D01*
X125765796Y-71171424D01*
X125774392Y-71205269D01*
X125776809Y-71210512D01*
X125814010Y-71291208D01*
X125859377Y-71389616D01*
X125976533Y-71555389D01*
X126121938Y-71697035D01*
X126290720Y-71809812D01*
X126296023Y-71812090D01*
X126296026Y-71812092D01*
X126411141Y-71861549D01*
X126477228Y-71889942D01*
X126536231Y-71903293D01*
X126669579Y-71933467D01*
X126669584Y-71933468D01*
X126675216Y-71934742D01*
X126680987Y-71934969D01*
X126680989Y-71934969D01*
X126740756Y-71937317D01*
X126878053Y-71942712D01*
X126978499Y-71928148D01*
X127073231Y-71914413D01*
X127073236Y-71914412D01*
X127078945Y-71913584D01*
X127084409Y-71911729D01*
X127084414Y-71911728D01*
X127265693Y-71850192D01*
X127265698Y-71850190D01*
X127271165Y-71848334D01*
X127279276Y-71843792D01*
X127420477Y-71764715D01*
X127448276Y-71749147D01*
X127462728Y-71737128D01*
X127599913Y-71623031D01*
X127604345Y-71619345D01*
X127734147Y-71463276D01*
X127819028Y-71311710D01*
X127830510Y-71291208D01*
X127830511Y-71291206D01*
X127833334Y-71286165D01*
X127835190Y-71280698D01*
X127835192Y-71280693D01*
X127896728Y-71099414D01*
X127896729Y-71099409D01*
X127898584Y-71093945D01*
X127899412Y-71088236D01*
X127899413Y-71088231D01*
X127902351Y-71067966D01*
X141328257Y-71067966D01*
X141358565Y-71202446D01*
X141361645Y-71212275D01*
X141441770Y-71409603D01*
X141446413Y-71418794D01*
X141557694Y-71600388D01*
X141563777Y-71608699D01*
X141703213Y-71769667D01*
X141710580Y-71776883D01*
X141874434Y-71912916D01*
X141882881Y-71918831D01*
X142066756Y-72026279D01*
X142076042Y-72030729D01*
X142275001Y-72106703D01*
X142284899Y-72109579D01*
X142388250Y-72130606D01*
X142402299Y-72129410D01*
X142406000Y-72119065D01*
X142406000Y-72118517D01*
X142914000Y-72118517D01*
X142918064Y-72132359D01*
X142931478Y-72134393D01*
X142938184Y-72133534D01*
X142948262Y-72131392D01*
X143152255Y-72070191D01*
X143161842Y-72066433D01*
X143353095Y-71972739D01*
X143361945Y-71967464D01*
X143535328Y-71843792D01*
X143543200Y-71837139D01*
X143694052Y-71686812D01*
X143700730Y-71678965D01*
X143825003Y-71506020D01*
X143830310Y-71497188D01*
X143856544Y-71444109D01*
X143904658Y-71391903D01*
X143973360Y-71373996D01*
X144040836Y-71396075D01*
X144085664Y-71451129D01*
X144095501Y-71499937D01*
X144095501Y-71675066D01*
X144110266Y-71749301D01*
X144166516Y-71833484D01*
X144250699Y-71889734D01*
X144324933Y-71904500D01*
X145199858Y-71904500D01*
X146075066Y-71904499D01*
X146110818Y-71897388D01*
X146137126Y-71892156D01*
X146137128Y-71892155D01*
X146149301Y-71889734D01*
X146159621Y-71882839D01*
X146159622Y-71882838D01*
X146223168Y-71840377D01*
X146233484Y-71833484D01*
X146289734Y-71749301D01*
X146304500Y-71675067D01*
X146304499Y-69924934D01*
X146289734Y-69850699D01*
X146278459Y-69833824D01*
X146240377Y-69776832D01*
X146233484Y-69766516D01*
X146149301Y-69710266D01*
X146075067Y-69695500D01*
X145200142Y-69695500D01*
X144324934Y-69695501D01*
X144289182Y-69702612D01*
X144262874Y-69707844D01*
X144262872Y-69707845D01*
X144250699Y-69710266D01*
X144240379Y-69717161D01*
X144240378Y-69717162D01*
X144179985Y-69757516D01*
X144166516Y-69766516D01*
X144110266Y-69850699D01*
X144095500Y-69924933D01*
X144095500Y-70092852D01*
X144075498Y-70160973D01*
X144021842Y-70207466D01*
X143951568Y-70217570D01*
X143886988Y-70188076D01*
X143861235Y-70155868D01*
X143860912Y-70156077D01*
X143858836Y-70152868D01*
X143858453Y-70152389D01*
X143858099Y-70151729D01*
X143742426Y-69972926D01*
X143736136Y-69964757D01*
X143592806Y-69807240D01*
X143585273Y-69800215D01*
X143418139Y-69668222D01*
X143409552Y-69662517D01*
X143223117Y-69559599D01*
X143213705Y-69555369D01*
X143012959Y-69484280D01*
X143002988Y-69481646D01*
X142931837Y-69468972D01*
X142918540Y-69470432D01*
X142914000Y-69484989D01*
X142914000Y-72118517D01*
X142406000Y-72118517D01*
X142406000Y-71072115D01*
X142401525Y-71056876D01*
X142400135Y-71055671D01*
X142392452Y-71054000D01*
X141343225Y-71054000D01*
X141329694Y-71057973D01*
X141328257Y-71067966D01*
X127902351Y-71067966D01*
X127923837Y-70919780D01*
X127927712Y-70893053D01*
X127929232Y-70835000D01*
X127910658Y-70632859D01*
X127906520Y-70618188D01*
X127882828Y-70534183D01*
X141324389Y-70534183D01*
X141325912Y-70542607D01*
X141338292Y-70546000D01*
X142387885Y-70546000D01*
X142403124Y-70541525D01*
X142404329Y-70540135D01*
X142406000Y-70532452D01*
X142406000Y-69483102D01*
X142402082Y-69469758D01*
X142387806Y-69467771D01*
X142349324Y-69473660D01*
X142339288Y-69476051D01*
X142136868Y-69542212D01*
X142127359Y-69546209D01*
X141938463Y-69644542D01*
X141929738Y-69650036D01*
X141759433Y-69777905D01*
X141751726Y-69784748D01*
X141604590Y-69938717D01*
X141598104Y-69946727D01*
X141478098Y-70122649D01*
X141473000Y-70131623D01*
X141383338Y-70324783D01*
X141379775Y-70334470D01*
X141324389Y-70534183D01*
X127882828Y-70534183D01*
X127857125Y-70443046D01*
X127857124Y-70443044D01*
X127855557Y-70437487D01*
X127844978Y-70416033D01*
X127768331Y-70260609D01*
X127765776Y-70255428D01*
X127644320Y-70092779D01*
X127495258Y-69954987D01*
X127490375Y-69951906D01*
X127490371Y-69951903D01*
X127328464Y-69849748D01*
X127323581Y-69846667D01*
X127135039Y-69771446D01*
X127129379Y-69770320D01*
X127129375Y-69770319D01*
X126941613Y-69732971D01*
X126941610Y-69732971D01*
X126935946Y-69731844D01*
X126930171Y-69731768D01*
X126930167Y-69731768D01*
X126828793Y-69730441D01*
X126732971Y-69729187D01*
X126727274Y-69730166D01*
X126727273Y-69730166D01*
X126555845Y-69759623D01*
X126532910Y-69763564D01*
X126342463Y-69833824D01*
X126168010Y-69937612D01*
X126163670Y-69941418D01*
X126163666Y-69941421D01*
X126062092Y-70030500D01*
X126015392Y-70071455D01*
X125889720Y-70230869D01*
X125887031Y-70235980D01*
X125887029Y-70235983D01*
X125874073Y-70260609D01*
X125795203Y-70410515D01*
X125735007Y-70604378D01*
X125711148Y-70805964D01*
X125386564Y-70805964D01*
X125370658Y-70632859D01*
X125366520Y-70618188D01*
X125317125Y-70443046D01*
X125317124Y-70443044D01*
X125315557Y-70437487D01*
X125304978Y-70416033D01*
X125228331Y-70260609D01*
X125225776Y-70255428D01*
X125104320Y-70092779D01*
X124955258Y-69954987D01*
X124950375Y-69951906D01*
X124950371Y-69951903D01*
X124788464Y-69849748D01*
X124783581Y-69846667D01*
X124595039Y-69771446D01*
X124589379Y-69770320D01*
X124589375Y-69770319D01*
X124401613Y-69732971D01*
X124401610Y-69732971D01*
X124395946Y-69731844D01*
X124390171Y-69731768D01*
X124390167Y-69731768D01*
X124288793Y-69730441D01*
X124192971Y-69729187D01*
X124187274Y-69730166D01*
X124187273Y-69730166D01*
X124015845Y-69759623D01*
X123992910Y-69763564D01*
X123802463Y-69833824D01*
X123628010Y-69937612D01*
X123623670Y-69941418D01*
X123623666Y-69941421D01*
X123522092Y-70030500D01*
X123475392Y-70071455D01*
X123349720Y-70230869D01*
X123347031Y-70235980D01*
X123347029Y-70235983D01*
X123334073Y-70260609D01*
X123255203Y-70410515D01*
X123195007Y-70604378D01*
X123171148Y-70805964D01*
X122846564Y-70805964D01*
X122830658Y-70632859D01*
X122826520Y-70618188D01*
X122777125Y-70443046D01*
X122777124Y-70443044D01*
X122775557Y-70437487D01*
X122764978Y-70416033D01*
X122688331Y-70260609D01*
X122685776Y-70255428D01*
X122564320Y-70092779D01*
X122415258Y-69954987D01*
X122410375Y-69951906D01*
X122410371Y-69951903D01*
X122248464Y-69849748D01*
X122243581Y-69846667D01*
X122055039Y-69771446D01*
X122049379Y-69770320D01*
X122049375Y-69770319D01*
X121861613Y-69732971D01*
X121861610Y-69732971D01*
X121855946Y-69731844D01*
X121850171Y-69731768D01*
X121850167Y-69731768D01*
X121748793Y-69730441D01*
X121652971Y-69729187D01*
X121647274Y-69730166D01*
X121647273Y-69730166D01*
X121475845Y-69759623D01*
X121452910Y-69763564D01*
X121262463Y-69833824D01*
X121088010Y-69937612D01*
X121083670Y-69941418D01*
X121083666Y-69941421D01*
X120982092Y-70030500D01*
X120935392Y-70071455D01*
X120809720Y-70230869D01*
X120807031Y-70235980D01*
X120807029Y-70235983D01*
X120794073Y-70260609D01*
X120715203Y-70410515D01*
X120655007Y-70604378D01*
X120631148Y-70805964D01*
X120644424Y-71008522D01*
X120645845Y-71014118D01*
X120645846Y-71014123D01*
X120685796Y-71171424D01*
X120694392Y-71205269D01*
X120696809Y-71210512D01*
X120734010Y-71291208D01*
X120779377Y-71389616D01*
X120896533Y-71555389D01*
X121041938Y-71697035D01*
X121210720Y-71809812D01*
X121216023Y-71812090D01*
X121216026Y-71812092D01*
X121312954Y-71853735D01*
X121367647Y-71899003D01*
X121389184Y-71966654D01*
X121370727Y-72035210D01*
X121318136Y-72082904D01*
X121302361Y-72089268D01*
X121216868Y-72117212D01*
X121207359Y-72121209D01*
X121018463Y-72219542D01*
X121009738Y-72225036D01*
X120839433Y-72352905D01*
X120831726Y-72359748D01*
X120684590Y-72513717D01*
X120678104Y-72521727D01*
X120558098Y-72697649D01*
X120553000Y-72706623D01*
X120544787Y-72724316D01*
X120497963Y-72777683D01*
X120429720Y-72797264D01*
X120361724Y-72776841D01*
X120315564Y-72722899D01*
X120304499Y-72671266D01*
X120304499Y-72499934D01*
X120289734Y-72425699D01*
X120263654Y-72386667D01*
X120240377Y-72351832D01*
X120233484Y-72341516D01*
X120149301Y-72285266D01*
X120075067Y-72270500D01*
X119200142Y-72270500D01*
X118324934Y-72270501D01*
X118289182Y-72277612D01*
X118262874Y-72282844D01*
X118262872Y-72282845D01*
X118250699Y-72285266D01*
X118240379Y-72292161D01*
X118240378Y-72292162D01*
X118179985Y-72332516D01*
X118166516Y-72341516D01*
X118110266Y-72425699D01*
X118095500Y-72499933D01*
X111154500Y-72499933D01*
X111154500Y-71764715D01*
X111174502Y-71696594D01*
X111191405Y-71675620D01*
X112061061Y-70805964D01*
X118091148Y-70805964D01*
X118104424Y-71008522D01*
X118105845Y-71014118D01*
X118105846Y-71014123D01*
X118145796Y-71171424D01*
X118154392Y-71205269D01*
X118156809Y-71210512D01*
X118194010Y-71291208D01*
X118239377Y-71389616D01*
X118356533Y-71555389D01*
X118501938Y-71697035D01*
X118670720Y-71809812D01*
X118676023Y-71812090D01*
X118676026Y-71812092D01*
X118791141Y-71861549D01*
X118857228Y-71889942D01*
X118916231Y-71903293D01*
X119049579Y-71933467D01*
X119049584Y-71933468D01*
X119055216Y-71934742D01*
X119060987Y-71934969D01*
X119060989Y-71934969D01*
X119120756Y-71937317D01*
X119258053Y-71942712D01*
X119358499Y-71928148D01*
X119453231Y-71914413D01*
X119453236Y-71914412D01*
X119458945Y-71913584D01*
X119464409Y-71911729D01*
X119464414Y-71911728D01*
X119645693Y-71850192D01*
X119645698Y-71850190D01*
X119651165Y-71848334D01*
X119659276Y-71843792D01*
X119800477Y-71764715D01*
X119828276Y-71749147D01*
X119842728Y-71737128D01*
X119979913Y-71623031D01*
X119984345Y-71619345D01*
X120114147Y-71463276D01*
X120199028Y-71311710D01*
X120210510Y-71291208D01*
X120210511Y-71291206D01*
X120213334Y-71286165D01*
X120215190Y-71280698D01*
X120215192Y-71280693D01*
X120276728Y-71099414D01*
X120276729Y-71099409D01*
X120278584Y-71093945D01*
X120279412Y-71088236D01*
X120279413Y-71088231D01*
X120303837Y-70919780D01*
X120307712Y-70893053D01*
X120309232Y-70835000D01*
X120290658Y-70632859D01*
X120286520Y-70618188D01*
X120237125Y-70443046D01*
X120237124Y-70443044D01*
X120235557Y-70437487D01*
X120224978Y-70416033D01*
X120148331Y-70260609D01*
X120145776Y-70255428D01*
X120024320Y-70092779D01*
X119875258Y-69954987D01*
X119870375Y-69951906D01*
X119870371Y-69951903D01*
X119708464Y-69849748D01*
X119703581Y-69846667D01*
X119515039Y-69771446D01*
X119509379Y-69770320D01*
X119509375Y-69770319D01*
X119321613Y-69732971D01*
X119321610Y-69732971D01*
X119315946Y-69731844D01*
X119310171Y-69731768D01*
X119310167Y-69731768D01*
X119208793Y-69730441D01*
X119112971Y-69729187D01*
X119107274Y-69730166D01*
X119107273Y-69730166D01*
X118935845Y-69759623D01*
X118912910Y-69763564D01*
X118722463Y-69833824D01*
X118548010Y-69937612D01*
X118543670Y-69941418D01*
X118543666Y-69941421D01*
X118442092Y-70030500D01*
X118395392Y-70071455D01*
X118269720Y-70230869D01*
X118267031Y-70235980D01*
X118267029Y-70235983D01*
X118254073Y-70260609D01*
X118175203Y-70410515D01*
X118115007Y-70604378D01*
X118091148Y-70805964D01*
X112061061Y-70805964D01*
X113175619Y-69691405D01*
X113237931Y-69657380D01*
X113264714Y-69654500D01*
X114644053Y-69654500D01*
X114735950Y-69643786D01*
X114767482Y-69640110D01*
X114767484Y-69640110D01*
X114774754Y-69639262D01*
X114781631Y-69636766D01*
X114781634Y-69636765D01*
X114933255Y-69581729D01*
X114940134Y-69579232D01*
X114946251Y-69575222D01*
X114946254Y-69575220D01*
X115013701Y-69530999D01*
X115087268Y-69482766D01*
X115208264Y-69355040D01*
X115296632Y-69202904D01*
X115347630Y-69034520D01*
X115358524Y-68858920D01*
X115347263Y-68793381D01*
X115329969Y-68692738D01*
X115329968Y-68692736D01*
X115328729Y-68685523D01*
X115259844Y-68523632D01*
X115229493Y-68482390D01*
X115209471Y-68455182D01*
X115185205Y-68388461D01*
X115200863Y-68319212D01*
X115251474Y-68269422D01*
X115310953Y-68254500D01*
X147619500Y-68254500D01*
X147687621Y-68274502D01*
G37*
G04 #@! TD.AperFunction*
G04 #@! TA.AperFunction,Conductor*
G36*
X99907808Y-68274502D02*
G01*
X99954301Y-68328158D01*
X99964405Y-68398432D01*
X99935860Y-68460934D01*
X99936292Y-68461292D01*
X99934963Y-68462899D01*
X99934911Y-68463012D01*
X99934544Y-68463405D01*
X99814216Y-68608856D01*
X99807356Y-68619027D01*
X99719196Y-68782076D01*
X99714444Y-68793381D01*
X99678750Y-68908692D01*
X99678544Y-68922795D01*
X99685299Y-68926000D01*
X102207924Y-68926000D01*
X102221455Y-68922027D01*
X102222575Y-68914232D01*
X102190862Y-68806479D01*
X102186269Y-68795111D01*
X102100393Y-68630846D01*
X102093679Y-68620585D01*
X101977532Y-68476127D01*
X101970218Y-68468658D01*
X101936847Y-68405993D01*
X101942653Y-68335234D01*
X101985792Y-68278847D01*
X102052568Y-68254734D01*
X102060241Y-68254500D01*
X103769687Y-68254500D01*
X103837808Y-68274502D01*
X103884301Y-68328158D01*
X103894405Y-68398432D01*
X103865860Y-68460934D01*
X103866292Y-68461292D01*
X103864963Y-68462899D01*
X103864911Y-68463012D01*
X103864544Y-68463405D01*
X103744216Y-68608856D01*
X103737356Y-68619027D01*
X103649196Y-68782076D01*
X103644444Y-68793381D01*
X103608750Y-68908692D01*
X103608544Y-68922795D01*
X103615299Y-68926000D01*
X106637924Y-68926000D01*
X106651455Y-68922027D01*
X106652575Y-68914232D01*
X106620862Y-68806479D01*
X106616269Y-68795111D01*
X106530393Y-68630846D01*
X106523679Y-68620585D01*
X106407532Y-68476127D01*
X106400218Y-68468658D01*
X106366847Y-68405993D01*
X106372653Y-68335234D01*
X106415792Y-68278847D01*
X106482568Y-68254734D01*
X106490241Y-68254500D01*
X112174286Y-68254500D01*
X112242407Y-68274502D01*
X112288900Y-68328158D01*
X112299004Y-68398432D01*
X112269510Y-68463012D01*
X112263381Y-68469595D01*
X109913700Y-70819276D01*
X109899287Y-70831663D01*
X109881929Y-70844437D01*
X109877186Y-70850020D01*
X109847911Y-70884479D01*
X109840981Y-70891995D01*
X109835338Y-70897638D01*
X109817806Y-70919798D01*
X109815039Y-70923173D01*
X109768018Y-70978520D01*
X109764689Y-70985040D01*
X109761369Y-70990018D01*
X109758236Y-70995091D01*
X109753693Y-71000833D01*
X109750593Y-71007466D01*
X109722947Y-71066617D01*
X109721016Y-71070567D01*
X109709594Y-71092937D01*
X109688007Y-71135212D01*
X109686267Y-71142322D01*
X109684177Y-71147942D01*
X109682297Y-71153593D01*
X109679199Y-71160222D01*
X109677709Y-71167386D01*
X109677708Y-71167389D01*
X109664415Y-71231303D01*
X109663449Y-71235573D01*
X109646189Y-71306108D01*
X109645500Y-71317214D01*
X109645466Y-71317212D01*
X109645223Y-71321271D01*
X109644863Y-71325305D01*
X109643372Y-71332473D01*
X109643570Y-71339790D01*
X109645454Y-71409415D01*
X109645500Y-71412823D01*
X109645500Y-76535286D01*
X109625498Y-76603407D01*
X109608595Y-76624381D01*
X105724381Y-80508595D01*
X105662069Y-80542621D01*
X105635286Y-80545500D01*
X104168542Y-80545500D01*
X104100421Y-80525498D01*
X104092977Y-80520326D01*
X104076947Y-80508312D01*
X104076946Y-80508311D01*
X104069764Y-80502929D01*
X104001371Y-80477290D01*
X103941843Y-80454974D01*
X103941841Y-80454974D01*
X103934448Y-80452202D01*
X103926598Y-80451349D01*
X103926597Y-80451349D01*
X103876153Y-80445869D01*
X103876152Y-80445869D01*
X103872756Y-80445500D01*
X102527244Y-80445500D01*
X102523848Y-80445869D01*
X102523847Y-80445869D01*
X102473403Y-80451349D01*
X102473402Y-80451349D01*
X102465552Y-80452202D01*
X102458159Y-80454974D01*
X102458157Y-80454974D01*
X102398629Y-80477290D01*
X102330236Y-80502929D01*
X102323054Y-80508311D01*
X102323053Y-80508312D01*
X102307023Y-80520326D01*
X102240517Y-80545174D01*
X102231458Y-80545500D01*
X99766766Y-80545500D01*
X99747816Y-80544067D01*
X99733746Y-80541926D01*
X99733740Y-80541926D01*
X99726511Y-80540826D01*
X99719220Y-80541419D01*
X99719217Y-80541419D01*
X99674152Y-80545085D01*
X99663937Y-80545500D01*
X99655947Y-80545500D01*
X99648698Y-80546345D01*
X99627887Y-80548771D01*
X99623513Y-80549204D01*
X99558451Y-80554496D01*
X99558448Y-80554497D01*
X99551153Y-80555090D01*
X99544191Y-80557345D01*
X99538323Y-80558518D01*
X99532516Y-80559890D01*
X99525246Y-80560738D01*
X99456940Y-80585532D01*
X99452837Y-80586940D01*
X99383778Y-80609312D01*
X99377516Y-80613112D01*
X99372059Y-80615610D01*
X99366744Y-80618271D01*
X99359866Y-80620768D01*
X99353752Y-80624776D01*
X99353745Y-80624780D01*
X99299124Y-80660592D01*
X99295404Y-80662939D01*
X99233367Y-80700584D01*
X99225026Y-80707949D01*
X99225004Y-80707924D01*
X99221956Y-80710626D01*
X99218851Y-80713222D01*
X99212732Y-80717234D01*
X99207699Y-80722546D01*
X99207700Y-80722546D01*
X99159802Y-80773108D01*
X99157425Y-80775550D01*
X98613697Y-81319279D01*
X98599283Y-81331666D01*
X98587823Y-81340099D01*
X98587820Y-81340102D01*
X98581929Y-81344437D01*
X98547909Y-81384481D01*
X98540994Y-81391981D01*
X98535338Y-81397638D01*
X98517806Y-81419798D01*
X98515030Y-81423184D01*
X98476525Y-81468507D01*
X98417176Y-81507471D01*
X98346183Y-81508164D01*
X98286085Y-81470364D01*
X98255963Y-81406074D01*
X98254500Y-81386927D01*
X98254500Y-78085768D01*
X99677425Y-78085768D01*
X99709138Y-78193521D01*
X99713731Y-78204889D01*
X99799607Y-78369154D01*
X99806321Y-78379415D01*
X99922468Y-78523873D01*
X99931046Y-78532632D01*
X100073039Y-78651778D01*
X100083159Y-78658708D01*
X100245585Y-78748002D01*
X100256858Y-78752834D01*
X100433538Y-78808880D01*
X100445532Y-78811430D01*
X100589761Y-78827607D01*
X100596785Y-78828000D01*
X100677885Y-78828000D01*
X100693124Y-78823525D01*
X100694329Y-78822135D01*
X100696000Y-78814452D01*
X100696000Y-78809885D01*
X101204000Y-78809885D01*
X101208475Y-78825124D01*
X101209865Y-78826329D01*
X101217548Y-78828000D01*
X101296657Y-78828000D01*
X101302805Y-78827699D01*
X101440603Y-78814188D01*
X101452638Y-78811805D01*
X101630076Y-78758233D01*
X101641416Y-78753559D01*
X101805077Y-78666540D01*
X101815294Y-78659751D01*
X101958933Y-78542603D01*
X101967637Y-78533959D01*
X102085784Y-78391144D01*
X102092644Y-78380973D01*
X102180804Y-78217924D01*
X102185556Y-78206619D01*
X102221250Y-78091308D01*
X102221331Y-78085768D01*
X103607425Y-78085768D01*
X103639138Y-78193521D01*
X103643731Y-78204889D01*
X103729607Y-78369154D01*
X103736321Y-78379415D01*
X103852468Y-78523873D01*
X103861046Y-78532632D01*
X104003039Y-78651778D01*
X104013159Y-78658708D01*
X104175585Y-78748002D01*
X104186858Y-78752834D01*
X104363538Y-78808880D01*
X104375532Y-78811430D01*
X104519761Y-78827607D01*
X104526785Y-78828000D01*
X104857885Y-78828000D01*
X104873124Y-78823525D01*
X104874329Y-78822135D01*
X104876000Y-78814452D01*
X104876000Y-78809885D01*
X105384000Y-78809885D01*
X105388475Y-78825124D01*
X105389865Y-78826329D01*
X105397548Y-78828000D01*
X105726657Y-78828000D01*
X105732805Y-78827699D01*
X105870603Y-78814188D01*
X105882638Y-78811805D01*
X106060076Y-78758233D01*
X106071416Y-78753559D01*
X106235077Y-78666540D01*
X106245294Y-78659751D01*
X106388933Y-78542603D01*
X106397637Y-78533959D01*
X106515784Y-78391144D01*
X106522644Y-78380973D01*
X106610804Y-78217924D01*
X106615556Y-78206619D01*
X106651250Y-78091308D01*
X106651456Y-78077205D01*
X106644701Y-78074000D01*
X105402115Y-78074000D01*
X105386876Y-78078475D01*
X105385671Y-78079865D01*
X105384000Y-78087548D01*
X105384000Y-78809885D01*
X104876000Y-78809885D01*
X104876000Y-78092115D01*
X104871525Y-78076876D01*
X104870135Y-78075671D01*
X104862452Y-78074000D01*
X103622076Y-78074000D01*
X103608545Y-78077973D01*
X103607425Y-78085768D01*
X102221331Y-78085768D01*
X102221456Y-78077205D01*
X102214701Y-78074000D01*
X101222115Y-78074000D01*
X101206876Y-78078475D01*
X101205671Y-78079865D01*
X101204000Y-78087548D01*
X101204000Y-78809885D01*
X100696000Y-78809885D01*
X100696000Y-78092115D01*
X100691525Y-78076876D01*
X100690135Y-78075671D01*
X100682452Y-78074000D01*
X99692076Y-78074000D01*
X99678545Y-78077973D01*
X99677425Y-78085768D01*
X98254500Y-78085768D01*
X98254500Y-77562795D01*
X99678544Y-77562795D01*
X99685299Y-77566000D01*
X100677885Y-77566000D01*
X100693124Y-77561525D01*
X100694329Y-77560135D01*
X100696000Y-77552452D01*
X100696000Y-77547885D01*
X101204000Y-77547885D01*
X101208475Y-77563124D01*
X101209865Y-77564329D01*
X101217548Y-77566000D01*
X102207924Y-77566000D01*
X102218839Y-77562795D01*
X103608544Y-77562795D01*
X103615299Y-77566000D01*
X106637924Y-77566000D01*
X106651455Y-77562027D01*
X106652575Y-77554232D01*
X106620862Y-77446479D01*
X106616269Y-77435111D01*
X106530393Y-77270846D01*
X106523679Y-77260585D01*
X106407532Y-77116127D01*
X106398954Y-77107368D01*
X106256961Y-76988222D01*
X106246841Y-76981292D01*
X106084415Y-76891998D01*
X106073142Y-76887166D01*
X105896462Y-76831120D01*
X105884468Y-76828570D01*
X105740239Y-76812393D01*
X105733215Y-76812000D01*
X105241020Y-76812000D01*
X105172899Y-76791998D01*
X105126406Y-76738342D01*
X105116302Y-76668068D01*
X105124610Y-76637786D01*
X105164584Y-76541280D01*
X105184500Y-76390000D01*
X105164584Y-76238720D01*
X105106192Y-76097750D01*
X105101164Y-76091197D01*
X105101162Y-76091194D01*
X105017274Y-75981869D01*
X104991673Y-75915649D01*
X105005938Y-75846100D01*
X105055539Y-75795304D01*
X105069018Y-75788756D01*
X105079643Y-75784355D01*
X105182360Y-75705537D01*
X105248578Y-75679937D01*
X105259062Y-75679500D01*
X107790616Y-75679500D01*
X107858737Y-75699502D01*
X107879711Y-75716405D01*
X107907046Y-75743740D01*
X107941072Y-75806052D01*
X107942871Y-75816380D01*
X107959772Y-75944754D01*
X108015645Y-76079642D01*
X108059710Y-76137068D01*
X108093028Y-76180489D01*
X108104526Y-76195474D01*
X108111076Y-76200500D01*
X108111079Y-76200503D01*
X108213804Y-76279327D01*
X108220357Y-76284355D01*
X108355246Y-76340228D01*
X108500000Y-76359285D01*
X108508188Y-76358207D01*
X108636566Y-76341306D01*
X108644754Y-76340228D01*
X108779643Y-76284355D01*
X108786196Y-76279327D01*
X108888921Y-76200503D01*
X108888924Y-76200500D01*
X108895474Y-76195474D01*
X108906973Y-76180489D01*
X108940290Y-76137068D01*
X108984355Y-76079642D01*
X109040228Y-75944754D01*
X109059285Y-75800000D01*
X109046849Y-75705538D01*
X109041306Y-75663432D01*
X109041305Y-75663430D01*
X109040228Y-75655246D01*
X109011255Y-75585300D01*
X108987515Y-75527986D01*
X108987514Y-75527984D01*
X108984355Y-75520358D01*
X108895474Y-75404526D01*
X108888924Y-75399500D01*
X108888921Y-75399497D01*
X108786196Y-75320673D01*
X108786194Y-75320672D01*
X108779643Y-75315645D01*
X108644754Y-75259772D01*
X108516388Y-75242872D01*
X108451462Y-75214151D01*
X108443740Y-75207046D01*
X108306478Y-75069784D01*
X108291336Y-75051036D01*
X108290221Y-75049811D01*
X108284571Y-75041060D01*
X108276393Y-75034613D01*
X108276391Y-75034611D01*
X108258200Y-75020271D01*
X108253759Y-75016325D01*
X108253697Y-75016398D01*
X108249733Y-75013039D01*
X108246056Y-75009362D01*
X108230308Y-74998108D01*
X108225638Y-74994602D01*
X108185353Y-74962844D01*
X108176719Y-74959812D01*
X108169266Y-74954486D01*
X108120150Y-74939797D01*
X108114508Y-74937964D01*
X108073633Y-74923610D01*
X108073632Y-74923610D01*
X108066149Y-74920982D01*
X108060584Y-74920500D01*
X108057876Y-74920500D01*
X108055242Y-74920386D01*
X108055144Y-74920357D01*
X108055151Y-74920193D01*
X108054447Y-74920149D01*
X108048222Y-74918287D01*
X107994365Y-74920403D01*
X107989418Y-74920500D01*
X105259062Y-74920500D01*
X105190941Y-74900498D01*
X105182374Y-74894474D01*
X105079643Y-74815645D01*
X104944754Y-74759772D01*
X104800000Y-74740715D01*
X104791812Y-74741793D01*
X104663432Y-74758694D01*
X104663430Y-74758695D01*
X104655246Y-74759772D01*
X104632111Y-74769355D01*
X104527986Y-74812485D01*
X104527984Y-74812486D01*
X104520358Y-74815645D01*
X104404526Y-74904526D01*
X104315645Y-75020358D01*
X104312486Y-75027984D01*
X104312485Y-75027986D01*
X104295172Y-75069784D01*
X104259772Y-75155246D01*
X104258695Y-75163430D01*
X104258694Y-75163432D01*
X104253284Y-75204526D01*
X104240715Y-75300000D01*
X104259772Y-75444754D01*
X104262931Y-75452380D01*
X104291089Y-75520358D01*
X104315645Y-75579642D01*
X104320673Y-75586195D01*
X104320675Y-75586198D01*
X104390882Y-75677694D01*
X104416483Y-75743914D01*
X104402218Y-75813463D01*
X104352617Y-75864259D01*
X104339137Y-75870807D01*
X104315382Y-75880646D01*
X104315378Y-75880648D01*
X104307750Y-75883808D01*
X104186696Y-75976696D01*
X104093808Y-76097750D01*
X104035416Y-76238720D01*
X104015500Y-76390000D01*
X104035416Y-76541280D01*
X104093808Y-76682250D01*
X104098836Y-76688803D01*
X104098838Y-76688806D01*
X104141943Y-76744982D01*
X104167544Y-76811202D01*
X104153279Y-76880751D01*
X104101134Y-76932937D01*
X104024931Y-76973455D01*
X104014706Y-76980249D01*
X103871067Y-77097397D01*
X103862363Y-77106041D01*
X103744216Y-77248856D01*
X103737356Y-77259027D01*
X103649196Y-77422076D01*
X103644444Y-77433381D01*
X103608750Y-77548692D01*
X103608544Y-77562795D01*
X102218839Y-77562795D01*
X102221455Y-77562027D01*
X102222575Y-77554232D01*
X102190862Y-77446479D01*
X102186269Y-77435111D01*
X102100393Y-77270846D01*
X102093679Y-77260585D01*
X101977532Y-77116127D01*
X101968954Y-77107368D01*
X101826961Y-76988222D01*
X101816841Y-76981292D01*
X101654415Y-76891998D01*
X101643142Y-76887166D01*
X101466462Y-76831120D01*
X101454468Y-76828570D01*
X101310239Y-76812393D01*
X101303215Y-76812000D01*
X101222115Y-76812000D01*
X101206876Y-76816475D01*
X101205671Y-76817865D01*
X101204000Y-76825548D01*
X101204000Y-77547885D01*
X100696000Y-77547885D01*
X100696000Y-76830115D01*
X100691525Y-76814876D01*
X100690135Y-76813671D01*
X100682452Y-76812000D01*
X100603343Y-76812000D01*
X100597195Y-76812301D01*
X100459397Y-76825812D01*
X100447362Y-76828195D01*
X100269924Y-76881767D01*
X100258584Y-76886441D01*
X100094923Y-76973460D01*
X100084706Y-76980249D01*
X99941067Y-77097397D01*
X99932363Y-77106041D01*
X99814216Y-77248856D01*
X99807356Y-77259027D01*
X99719196Y-77422076D01*
X99714444Y-77433381D01*
X99678750Y-77548692D01*
X99678544Y-77562795D01*
X98254500Y-77562795D01*
X98254500Y-69445768D01*
X99677425Y-69445768D01*
X99709138Y-69553521D01*
X99713731Y-69564889D01*
X99799607Y-69729154D01*
X99806321Y-69739415D01*
X99922468Y-69883873D01*
X99931046Y-69892632D01*
X100073039Y-70011778D01*
X100083159Y-70018708D01*
X100245585Y-70108002D01*
X100256858Y-70112834D01*
X100433538Y-70168880D01*
X100445532Y-70171430D01*
X100589761Y-70187607D01*
X100596785Y-70188000D01*
X100677885Y-70188000D01*
X100693124Y-70183525D01*
X100694329Y-70182135D01*
X100696000Y-70174452D01*
X100696000Y-70169885D01*
X101204000Y-70169885D01*
X101208475Y-70185124D01*
X101209865Y-70186329D01*
X101217548Y-70188000D01*
X101296657Y-70188000D01*
X101302805Y-70187699D01*
X101440603Y-70174188D01*
X101452638Y-70171805D01*
X101630076Y-70118233D01*
X101641416Y-70113559D01*
X101805077Y-70026540D01*
X101815294Y-70019751D01*
X101958933Y-69902603D01*
X101967637Y-69893959D01*
X102085784Y-69751144D01*
X102092644Y-69740973D01*
X102180804Y-69577924D01*
X102185556Y-69566619D01*
X102221250Y-69451308D01*
X102221331Y-69445768D01*
X103607425Y-69445768D01*
X103639138Y-69553521D01*
X103643731Y-69564889D01*
X103729607Y-69729154D01*
X103736321Y-69739415D01*
X103852468Y-69883873D01*
X103861046Y-69892632D01*
X104003039Y-70011778D01*
X104013152Y-70018702D01*
X104102669Y-70067915D01*
X104152728Y-70118261D01*
X104167621Y-70187678D01*
X104141931Y-70255033D01*
X104098837Y-70311195D01*
X104098834Y-70311199D01*
X104093808Y-70317750D01*
X104035416Y-70458720D01*
X104015500Y-70610000D01*
X104035416Y-70761280D01*
X104093808Y-70902250D01*
X104186696Y-71023304D01*
X104307750Y-71116192D01*
X104448720Y-71174584D01*
X104562020Y-71189500D01*
X104637980Y-71189500D01*
X104751280Y-71174584D01*
X104892250Y-71116192D01*
X105013304Y-71023304D01*
X105106192Y-70902250D01*
X105164584Y-70761280D01*
X105184500Y-70610000D01*
X105164584Y-70458720D01*
X105124611Y-70362217D01*
X105117022Y-70291629D01*
X105148801Y-70228142D01*
X105209859Y-70191914D01*
X105241020Y-70188000D01*
X105726657Y-70188000D01*
X105732805Y-70187699D01*
X105870603Y-70174188D01*
X105882638Y-70171805D01*
X106060076Y-70118233D01*
X106071416Y-70113559D01*
X106235077Y-70026540D01*
X106245294Y-70019751D01*
X106388933Y-69902603D01*
X106397637Y-69893959D01*
X106515784Y-69751144D01*
X106522644Y-69740973D01*
X106610804Y-69577924D01*
X106615556Y-69566619D01*
X106651250Y-69451308D01*
X106651456Y-69437205D01*
X106644701Y-69434000D01*
X103622076Y-69434000D01*
X103608545Y-69437973D01*
X103607425Y-69445768D01*
X102221331Y-69445768D01*
X102221456Y-69437205D01*
X102214701Y-69434000D01*
X101222115Y-69434000D01*
X101206876Y-69438475D01*
X101205671Y-69439865D01*
X101204000Y-69447548D01*
X101204000Y-70169885D01*
X100696000Y-70169885D01*
X100696000Y-69452115D01*
X100691525Y-69436876D01*
X100690135Y-69435671D01*
X100682452Y-69434000D01*
X99692076Y-69434000D01*
X99678545Y-69437973D01*
X99677425Y-69445768D01*
X98254500Y-69445768D01*
X98254500Y-68380500D01*
X98274502Y-68312379D01*
X98328158Y-68265886D01*
X98380500Y-68254500D01*
X99839687Y-68254500D01*
X99907808Y-68274502D01*
G37*
G04 #@! TD.AperFunction*
M02*
