G04 #@! TF.GenerationSoftware,KiCad,Pcbnew,(6.0.7-1)-1*
G04 #@! TF.CreationDate,2022-12-05T10:56:52+01:00*
G04 #@! TF.ProjectId,ESC-logic,4553432d-6c6f-4676-9963-2e6b69636164,rev?*
G04 #@! TF.SameCoordinates,Original*
G04 #@! TF.FileFunction,Legend,Top*
G04 #@! TF.FilePolarity,Positive*
%FSLAX46Y46*%
G04 Gerber Fmt 4.6, Leading zero omitted, Abs format (unit mm)*
G04 Created by KiCad (PCBNEW (6.0.7-1)-1) date 2022-12-05 10:56:52*
%MOMM*%
%LPD*%
G01*
G04 APERTURE LIST*
G04 Aperture macros list*
%AMRoundRect*
0 Rectangle with rounded corners*
0 $1 Rounding radius*
0 $2 $3 $4 $5 $6 $7 $8 $9 X,Y pos of 4 corners*
0 Add a 4 corners polygon primitive as box body*
4,1,4,$2,$3,$4,$5,$6,$7,$8,$9,$2,$3,0*
0 Add four circle primitives for the rounded corners*
1,1,$1+$1,$2,$3*
1,1,$1+$1,$4,$5*
1,1,$1+$1,$6,$7*
1,1,$1+$1,$8,$9*
0 Add four rect primitives between the rounded corners*
20,1,$1+$1,$2,$3,$4,$5,0*
20,1,$1+$1,$4,$5,$6,$7,0*
20,1,$1+$1,$6,$7,$8,$9,0*
20,1,$1+$1,$8,$9,$2,$3,0*%
%AMFreePoly0*
4,1,9,3.862500,-0.866500,0.737500,-0.866500,0.737500,-0.450000,-0.737500,-0.450000,-0.737500,0.450000,0.737500,0.450000,0.737500,0.866500,3.862500,0.866500,3.862500,-0.866500,3.862500,-0.866500,$1*%
G04 Aperture macros list end*
%ADD10C,0.150000*%
%ADD11C,0.120000*%
%ADD12O,1.700000X1.700000*%
%ADD13R,1.700000X1.700000*%
%ADD14RoundRect,0.250000X-0.350000X-0.625000X0.350000X-0.625000X0.350000X0.625000X-0.350000X0.625000X0*%
%ADD15O,1.200000X1.750000*%
%ADD16RoundRect,0.250000X-0.625000X0.350000X-0.625000X-0.350000X0.625000X-0.350000X0.625000X0.350000X0*%
%ADD17O,1.750000X1.200000*%
%ADD18RoundRect,0.075000X0.075000X-0.700000X0.075000X0.700000X-0.075000X0.700000X-0.075000X-0.700000X0*%
%ADD19RoundRect,0.075000X0.700000X-0.075000X0.700000X0.075000X-0.700000X0.075000X-0.700000X-0.075000X0*%
%ADD20RoundRect,0.250000X0.262500X0.450000X-0.262500X0.450000X-0.262500X-0.450000X0.262500X-0.450000X0*%
%ADD21RoundRect,0.250000X-0.475000X0.250000X-0.475000X-0.250000X0.475000X-0.250000X0.475000X0.250000X0*%
%ADD22RoundRect,0.250000X0.475000X-0.250000X0.475000X0.250000X-0.475000X0.250000X-0.475000X-0.250000X0*%
%ADD23RoundRect,0.250000X-0.262500X-0.450000X0.262500X-0.450000X0.262500X0.450000X-0.262500X0.450000X0*%
%ADD24RoundRect,0.250000X0.450000X-0.262500X0.450000X0.262500X-0.450000X0.262500X-0.450000X-0.262500X0*%
%ADD25RoundRect,0.150000X0.150000X-0.512500X0.150000X0.512500X-0.150000X0.512500X-0.150000X-0.512500X0*%
%ADD26RoundRect,0.243750X-0.243750X-0.456250X0.243750X-0.456250X0.243750X0.456250X-0.243750X0.456250X0*%
%ADD27RoundRect,0.150000X0.650000X0.150000X-0.650000X0.150000X-0.650000X-0.150000X0.650000X-0.150000X0*%
%ADD28R,2.410000X3.100000*%
%ADD29RoundRect,0.250000X-0.250000X-0.475000X0.250000X-0.475000X0.250000X0.475000X-0.250000X0.475000X0*%
%ADD30RoundRect,0.250000X0.250000X0.475000X-0.250000X0.475000X-0.250000X-0.475000X0.250000X-0.475000X0*%
%ADD31R,1.800000X7.500000*%
%ADD32R,1.300000X0.900000*%
%ADD33FreePoly0,180.000000*%
%ADD34R,1.200000X3.700000*%
%ADD35R,1.200000X0.900000*%
%ADD36R,1.400000X1.200000*%
%ADD37RoundRect,0.150000X0.825000X0.150000X-0.825000X0.150000X-0.825000X-0.150000X0.825000X-0.150000X0*%
%ADD38R,0.700000X0.450000*%
%ADD39RoundRect,0.250000X0.325000X1.100000X-0.325000X1.100000X-0.325000X-1.100000X0.325000X-1.100000X0*%
%ADD40C,0.650000*%
%ADD41R,1.450000X0.600000*%
%ADD42R,1.450000X0.300000*%
%ADD43O,1.600000X1.000000*%
%ADD44O,2.100000X1.000000*%
G04 APERTURE END LIST*
D10*
X122666666Y-68252380D02*
X122666666Y-68966666D01*
X122619047Y-69109523D01*
X122523809Y-69204761D01*
X122380952Y-69252380D01*
X122285714Y-69252380D01*
X123190476Y-69252380D02*
X123380952Y-69252380D01*
X123476190Y-69204761D01*
X123523809Y-69157142D01*
X123619047Y-69014285D01*
X123666666Y-68823809D01*
X123666666Y-68442857D01*
X123619047Y-68347619D01*
X123571428Y-68300000D01*
X123476190Y-68252380D01*
X123285714Y-68252380D01*
X123190476Y-68300000D01*
X123142857Y-68347619D01*
X123095238Y-68442857D01*
X123095238Y-68680952D01*
X123142857Y-68776190D01*
X123190476Y-68823809D01*
X123285714Y-68871428D01*
X123476190Y-68871428D01*
X123571428Y-68823809D01*
X123619047Y-68776190D01*
X123666666Y-68680952D01*
X110452380Y-88511904D02*
X111261904Y-88511904D01*
X111357142Y-88464285D01*
X111404761Y-88416666D01*
X111452380Y-88321428D01*
X111452380Y-88130952D01*
X111404761Y-88035714D01*
X111357142Y-87988095D01*
X111261904Y-87940476D01*
X110452380Y-87940476D01*
X110547619Y-87511904D02*
X110500000Y-87464285D01*
X110452380Y-87369047D01*
X110452380Y-87130952D01*
X110500000Y-87035714D01*
X110547619Y-86988095D01*
X110642857Y-86940476D01*
X110738095Y-86940476D01*
X110880952Y-86988095D01*
X111452380Y-87559523D01*
X111452380Y-86940476D01*
X116545833Y-75152380D02*
X116212500Y-74676190D01*
X115974404Y-75152380D02*
X115974404Y-74152380D01*
X116355357Y-74152380D01*
X116450595Y-74200000D01*
X116498214Y-74247619D01*
X116545833Y-74342857D01*
X116545833Y-74485714D01*
X116498214Y-74580952D01*
X116450595Y-74628571D01*
X116355357Y-74676190D01*
X115974404Y-74676190D01*
X117402976Y-74485714D02*
X117402976Y-75152380D01*
X117164880Y-74104761D02*
X116926785Y-74819047D01*
X117545833Y-74819047D01*
X127837142Y-97442857D02*
X127884761Y-97490476D01*
X127932380Y-97633333D01*
X127932380Y-97728571D01*
X127884761Y-97871428D01*
X127789523Y-97966666D01*
X127694285Y-98014285D01*
X127503809Y-98061904D01*
X127360952Y-98061904D01*
X127170476Y-98014285D01*
X127075238Y-97966666D01*
X126980000Y-97871428D01*
X126932380Y-97728571D01*
X126932380Y-97633333D01*
X126980000Y-97490476D01*
X127027619Y-97442857D01*
X127932380Y-96490476D02*
X127932380Y-97061904D01*
X127932380Y-96776190D02*
X126932380Y-96776190D01*
X127075238Y-96871428D01*
X127170476Y-96966666D01*
X127218095Y-97061904D01*
X127932380Y-95538095D02*
X127932380Y-96109523D01*
X127932380Y-95823809D02*
X126932380Y-95823809D01*
X127075238Y-95919047D01*
X127170476Y-96014285D01*
X127218095Y-96109523D01*
X117957142Y-106442857D02*
X118004761Y-106490476D01*
X118052380Y-106633333D01*
X118052380Y-106728571D01*
X118004761Y-106871428D01*
X117909523Y-106966666D01*
X117814285Y-107014285D01*
X117623809Y-107061904D01*
X117480952Y-107061904D01*
X117290476Y-107014285D01*
X117195238Y-106966666D01*
X117100000Y-106871428D01*
X117052380Y-106728571D01*
X117052380Y-106633333D01*
X117100000Y-106490476D01*
X117147619Y-106442857D01*
X117385714Y-105585714D02*
X118052380Y-105585714D01*
X117004761Y-105823809D02*
X117719047Y-106061904D01*
X117719047Y-105442857D01*
X117052380Y-104585714D02*
X117052380Y-105061904D01*
X117528571Y-105109523D01*
X117480952Y-105061904D01*
X117433333Y-104966666D01*
X117433333Y-104728571D01*
X117480952Y-104633333D01*
X117528571Y-104585714D01*
X117623809Y-104538095D01*
X117861904Y-104538095D01*
X117957142Y-104585714D01*
X118004761Y-104633333D01*
X118052380Y-104728571D01*
X118052380Y-104966666D01*
X118004761Y-105061904D01*
X117957142Y-105109523D01*
X147752380Y-99442857D02*
X147276190Y-99776190D01*
X147752380Y-100014285D02*
X146752380Y-100014285D01*
X146752380Y-99633333D01*
X146800000Y-99538095D01*
X146847619Y-99490476D01*
X146942857Y-99442857D01*
X147085714Y-99442857D01*
X147180952Y-99490476D01*
X147228571Y-99538095D01*
X147276190Y-99633333D01*
X147276190Y-100014285D01*
X146847619Y-99061904D02*
X146800000Y-99014285D01*
X146752380Y-98919047D01*
X146752380Y-98680952D01*
X146800000Y-98585714D01*
X146847619Y-98538095D01*
X146942857Y-98490476D01*
X147038095Y-98490476D01*
X147180952Y-98538095D01*
X147752380Y-99109523D01*
X147752380Y-98490476D01*
X146847619Y-98109523D02*
X146800000Y-98061904D01*
X146752380Y-97966666D01*
X146752380Y-97728571D01*
X146800000Y-97633333D01*
X146847619Y-97585714D01*
X146942857Y-97538095D01*
X147038095Y-97538095D01*
X147180952Y-97585714D01*
X147752380Y-98157142D01*
X147752380Y-97538095D01*
X99352380Y-113442857D02*
X98876190Y-113776190D01*
X99352380Y-114014285D02*
X98352380Y-114014285D01*
X98352380Y-113633333D01*
X98400000Y-113538095D01*
X98447619Y-113490476D01*
X98542857Y-113442857D01*
X98685714Y-113442857D01*
X98780952Y-113490476D01*
X98828571Y-113538095D01*
X98876190Y-113633333D01*
X98876190Y-114014285D01*
X99352380Y-112490476D02*
X99352380Y-113061904D01*
X99352380Y-112776190D02*
X98352380Y-112776190D01*
X98495238Y-112871428D01*
X98590476Y-112966666D01*
X98638095Y-113061904D01*
X98685714Y-111633333D02*
X99352380Y-111633333D01*
X98304761Y-111871428D02*
X99019047Y-112109523D01*
X99019047Y-111490476D01*
X145457142Y-74252380D02*
X145123809Y-73776190D01*
X144885714Y-74252380D02*
X144885714Y-73252380D01*
X145266666Y-73252380D01*
X145361904Y-73300000D01*
X145409523Y-73347619D01*
X145457142Y-73442857D01*
X145457142Y-73585714D01*
X145409523Y-73680952D01*
X145361904Y-73728571D01*
X145266666Y-73776190D01*
X144885714Y-73776190D01*
X146409523Y-74252380D02*
X145838095Y-74252380D01*
X146123809Y-74252380D02*
X146123809Y-73252380D01*
X146028571Y-73395238D01*
X145933333Y-73490476D01*
X145838095Y-73538095D01*
X146742857Y-73252380D02*
X147409523Y-73252380D01*
X146980952Y-74252380D01*
X118587142Y-102056666D02*
X118634761Y-102104285D01*
X118682380Y-102247142D01*
X118682380Y-102342380D01*
X118634761Y-102485238D01*
X118539523Y-102580476D01*
X118444285Y-102628095D01*
X118253809Y-102675714D01*
X118110952Y-102675714D01*
X117920476Y-102628095D01*
X117825238Y-102580476D01*
X117730000Y-102485238D01*
X117682380Y-102342380D01*
X117682380Y-102247142D01*
X117730000Y-102104285D01*
X117777619Y-102056666D01*
X117777619Y-101675714D02*
X117730000Y-101628095D01*
X117682380Y-101532857D01*
X117682380Y-101294761D01*
X117730000Y-101199523D01*
X117777619Y-101151904D01*
X117872857Y-101104285D01*
X117968095Y-101104285D01*
X118110952Y-101151904D01*
X118682380Y-101723333D01*
X118682380Y-101104285D01*
X140752380Y-93061904D02*
X141561904Y-93061904D01*
X141657142Y-93014285D01*
X141704761Y-92966666D01*
X141752380Y-92871428D01*
X141752380Y-92680952D01*
X141704761Y-92585714D01*
X141657142Y-92538095D01*
X141561904Y-92490476D01*
X140752380Y-92490476D01*
X141180952Y-91871428D02*
X141133333Y-91966666D01*
X141085714Y-92014285D01*
X140990476Y-92061904D01*
X140942857Y-92061904D01*
X140847619Y-92014285D01*
X140800000Y-91966666D01*
X140752380Y-91871428D01*
X140752380Y-91680952D01*
X140800000Y-91585714D01*
X140847619Y-91538095D01*
X140942857Y-91490476D01*
X140990476Y-91490476D01*
X141085714Y-91538095D01*
X141133333Y-91585714D01*
X141180952Y-91680952D01*
X141180952Y-91871428D01*
X141228571Y-91966666D01*
X141276190Y-92014285D01*
X141371428Y-92061904D01*
X141561904Y-92061904D01*
X141657142Y-92014285D01*
X141704761Y-91966666D01*
X141752380Y-91871428D01*
X141752380Y-91680952D01*
X141704761Y-91585714D01*
X141657142Y-91538095D01*
X141561904Y-91490476D01*
X141371428Y-91490476D01*
X141276190Y-91538095D01*
X141228571Y-91585714D01*
X141180952Y-91680952D01*
X123952380Y-106442857D02*
X123476190Y-106776190D01*
X123952380Y-107014285D02*
X122952380Y-107014285D01*
X122952380Y-106633333D01*
X123000000Y-106538095D01*
X123047619Y-106490476D01*
X123142857Y-106442857D01*
X123285714Y-106442857D01*
X123380952Y-106490476D01*
X123428571Y-106538095D01*
X123476190Y-106633333D01*
X123476190Y-107014285D01*
X123047619Y-106061904D02*
X123000000Y-106014285D01*
X122952380Y-105919047D01*
X122952380Y-105680952D01*
X123000000Y-105585714D01*
X123047619Y-105538095D01*
X123142857Y-105490476D01*
X123238095Y-105490476D01*
X123380952Y-105538095D01*
X123952380Y-106109523D01*
X123952380Y-105490476D01*
X122952380Y-105157142D02*
X122952380Y-104490476D01*
X123952380Y-104919047D01*
X146857142Y-116192857D02*
X146904761Y-116240476D01*
X146952380Y-116383333D01*
X146952380Y-116478571D01*
X146904761Y-116621428D01*
X146809523Y-116716666D01*
X146714285Y-116764285D01*
X146523809Y-116811904D01*
X146380952Y-116811904D01*
X146190476Y-116764285D01*
X146095238Y-116716666D01*
X146000000Y-116621428D01*
X145952380Y-116478571D01*
X145952380Y-116383333D01*
X146000000Y-116240476D01*
X146047619Y-116192857D01*
X145952380Y-115859523D02*
X145952380Y-115240476D01*
X146333333Y-115573809D01*
X146333333Y-115430952D01*
X146380952Y-115335714D01*
X146428571Y-115288095D01*
X146523809Y-115240476D01*
X146761904Y-115240476D01*
X146857142Y-115288095D01*
X146904761Y-115335714D01*
X146952380Y-115430952D01*
X146952380Y-115716666D01*
X146904761Y-115811904D01*
X146857142Y-115859523D01*
X146952380Y-114764285D02*
X146952380Y-114573809D01*
X146904761Y-114478571D01*
X146857142Y-114430952D01*
X146714285Y-114335714D01*
X146523809Y-114288095D01*
X146142857Y-114288095D01*
X146047619Y-114335714D01*
X146000000Y-114383333D01*
X145952380Y-114478571D01*
X145952380Y-114669047D01*
X146000000Y-114764285D01*
X146047619Y-114811904D01*
X146142857Y-114859523D01*
X146380952Y-114859523D01*
X146476190Y-114811904D01*
X146523809Y-114764285D01*
X146571428Y-114669047D01*
X146571428Y-114478571D01*
X146523809Y-114383333D01*
X146476190Y-114335714D01*
X146380952Y-114288095D01*
X116520833Y-70752380D02*
X116187500Y-70276190D01*
X115949404Y-70752380D02*
X115949404Y-69752380D01*
X116330357Y-69752380D01*
X116425595Y-69800000D01*
X116473214Y-69847619D01*
X116520833Y-69942857D01*
X116520833Y-70085714D01*
X116473214Y-70180952D01*
X116425595Y-70228571D01*
X116330357Y-70276190D01*
X115949404Y-70276190D01*
X117473214Y-70752380D02*
X116901785Y-70752380D01*
X117187500Y-70752380D02*
X117187500Y-69752380D01*
X117092261Y-69895238D01*
X116997023Y-69990476D01*
X116901785Y-70038095D01*
X112916666Y-106702380D02*
X112916666Y-107416666D01*
X112869047Y-107559523D01*
X112773809Y-107654761D01*
X112630952Y-107702380D01*
X112535714Y-107702380D01*
X113535714Y-107130952D02*
X113440476Y-107083333D01*
X113392857Y-107035714D01*
X113345238Y-106940476D01*
X113345238Y-106892857D01*
X113392857Y-106797619D01*
X113440476Y-106750000D01*
X113535714Y-106702380D01*
X113726190Y-106702380D01*
X113821428Y-106750000D01*
X113869047Y-106797619D01*
X113916666Y-106892857D01*
X113916666Y-106940476D01*
X113869047Y-107035714D01*
X113821428Y-107083333D01*
X113726190Y-107130952D01*
X113535714Y-107130952D01*
X113440476Y-107178571D01*
X113392857Y-107226190D01*
X113345238Y-107321428D01*
X113345238Y-107511904D01*
X113392857Y-107607142D01*
X113440476Y-107654761D01*
X113535714Y-107702380D01*
X113726190Y-107702380D01*
X113821428Y-107654761D01*
X113869047Y-107607142D01*
X113916666Y-107511904D01*
X113916666Y-107321428D01*
X113869047Y-107226190D01*
X113821428Y-107178571D01*
X113726190Y-107130952D01*
X107733333Y-77452380D02*
X107400000Y-76976190D01*
X107161904Y-77452380D02*
X107161904Y-76452380D01*
X107542857Y-76452380D01*
X107638095Y-76500000D01*
X107685714Y-76547619D01*
X107733333Y-76642857D01*
X107733333Y-76785714D01*
X107685714Y-76880952D01*
X107638095Y-76928571D01*
X107542857Y-76976190D01*
X107161904Y-76976190D01*
X108304761Y-76880952D02*
X108209523Y-76833333D01*
X108161904Y-76785714D01*
X108114285Y-76690476D01*
X108114285Y-76642857D01*
X108161904Y-76547619D01*
X108209523Y-76500000D01*
X108304761Y-76452380D01*
X108495238Y-76452380D01*
X108590476Y-76500000D01*
X108638095Y-76547619D01*
X108685714Y-76642857D01*
X108685714Y-76690476D01*
X108638095Y-76785714D01*
X108590476Y-76833333D01*
X108495238Y-76880952D01*
X108304761Y-76880952D01*
X108209523Y-76928571D01*
X108161904Y-76976190D01*
X108114285Y-77071428D01*
X108114285Y-77261904D01*
X108161904Y-77357142D01*
X108209523Y-77404761D01*
X108304761Y-77452380D01*
X108495238Y-77452380D01*
X108590476Y-77404761D01*
X108638095Y-77357142D01*
X108685714Y-77261904D01*
X108685714Y-77071428D01*
X108638095Y-76976190D01*
X108590476Y-76928571D01*
X108495238Y-76880952D01*
X107161904Y-75152380D02*
X107161904Y-74152380D01*
X107400000Y-74152380D01*
X107542857Y-74200000D01*
X107638095Y-74295238D01*
X107685714Y-74390476D01*
X107733333Y-74580952D01*
X107733333Y-74723809D01*
X107685714Y-74914285D01*
X107638095Y-75009523D01*
X107542857Y-75104761D01*
X107400000Y-75152380D01*
X107161904Y-75152380D01*
X108590476Y-74485714D02*
X108590476Y-75152380D01*
X108352380Y-74104761D02*
X108114285Y-74819047D01*
X108733333Y-74819047D01*
X141338095Y-80652380D02*
X141338095Y-81461904D01*
X141385714Y-81557142D01*
X141433333Y-81604761D01*
X141528571Y-81652380D01*
X141719047Y-81652380D01*
X141814285Y-81604761D01*
X141861904Y-81557142D01*
X141909523Y-81461904D01*
X141909523Y-80652380D01*
X142290476Y-80652380D02*
X142957142Y-80652380D01*
X142528571Y-81652380D01*
X121952380Y-106442857D02*
X121476190Y-106776190D01*
X121952380Y-107014285D02*
X120952380Y-107014285D01*
X120952380Y-106633333D01*
X121000000Y-106538095D01*
X121047619Y-106490476D01*
X121142857Y-106442857D01*
X121285714Y-106442857D01*
X121380952Y-106490476D01*
X121428571Y-106538095D01*
X121476190Y-106633333D01*
X121476190Y-107014285D01*
X121047619Y-106061904D02*
X121000000Y-106014285D01*
X120952380Y-105919047D01*
X120952380Y-105680952D01*
X121000000Y-105585714D01*
X121047619Y-105538095D01*
X121142857Y-105490476D01*
X121238095Y-105490476D01*
X121380952Y-105538095D01*
X121952380Y-106109523D01*
X121952380Y-105490476D01*
X120952380Y-104585714D02*
X120952380Y-105061904D01*
X121428571Y-105109523D01*
X121380952Y-105061904D01*
X121333333Y-104966666D01*
X121333333Y-104728571D01*
X121380952Y-104633333D01*
X121428571Y-104585714D01*
X121523809Y-104538095D01*
X121761904Y-104538095D01*
X121857142Y-104585714D01*
X121904761Y-104633333D01*
X121952380Y-104728571D01*
X121952380Y-104966666D01*
X121904761Y-105061904D01*
X121857142Y-105109523D01*
X129033333Y-83607142D02*
X128985714Y-83654761D01*
X128842857Y-83702380D01*
X128747619Y-83702380D01*
X128604761Y-83654761D01*
X128509523Y-83559523D01*
X128461904Y-83464285D01*
X128414285Y-83273809D01*
X128414285Y-83130952D01*
X128461904Y-82940476D01*
X128509523Y-82845238D01*
X128604761Y-82750000D01*
X128747619Y-82702380D01*
X128842857Y-82702380D01*
X128985714Y-82750000D01*
X129033333Y-82797619D01*
X129604761Y-83130952D02*
X129509523Y-83083333D01*
X129461904Y-83035714D01*
X129414285Y-82940476D01*
X129414285Y-82892857D01*
X129461904Y-82797619D01*
X129509523Y-82750000D01*
X129604761Y-82702380D01*
X129795238Y-82702380D01*
X129890476Y-82750000D01*
X129938095Y-82797619D01*
X129985714Y-82892857D01*
X129985714Y-82940476D01*
X129938095Y-83035714D01*
X129890476Y-83083333D01*
X129795238Y-83130952D01*
X129604761Y-83130952D01*
X129509523Y-83178571D01*
X129461904Y-83226190D01*
X129414285Y-83321428D01*
X129414285Y-83511904D01*
X129461904Y-83607142D01*
X129509523Y-83654761D01*
X129604761Y-83702380D01*
X129795238Y-83702380D01*
X129890476Y-83654761D01*
X129938095Y-83607142D01*
X129985714Y-83511904D01*
X129985714Y-83321428D01*
X129938095Y-83226190D01*
X129890476Y-83178571D01*
X129795238Y-83130952D01*
X107149404Y-70752380D02*
X107149404Y-69752380D01*
X107387500Y-69752380D01*
X107530357Y-69800000D01*
X107625595Y-69895238D01*
X107673214Y-69990476D01*
X107720833Y-70180952D01*
X107720833Y-70323809D01*
X107673214Y-70514285D01*
X107625595Y-70609523D01*
X107530357Y-70704761D01*
X107387500Y-70752380D01*
X107149404Y-70752380D01*
X108673214Y-70752380D02*
X108101785Y-70752380D01*
X108387500Y-70752380D02*
X108387500Y-69752380D01*
X108292261Y-69895238D01*
X108197023Y-69990476D01*
X108101785Y-70038095D01*
X109257142Y-92307142D02*
X109209523Y-92354761D01*
X109066666Y-92402380D01*
X108971428Y-92402380D01*
X108828571Y-92354761D01*
X108733333Y-92259523D01*
X108685714Y-92164285D01*
X108638095Y-91973809D01*
X108638095Y-91830952D01*
X108685714Y-91640476D01*
X108733333Y-91545238D01*
X108828571Y-91450000D01*
X108971428Y-91402380D01*
X109066666Y-91402380D01*
X109209523Y-91450000D01*
X109257142Y-91497619D01*
X110114285Y-91735714D02*
X110114285Y-92402380D01*
X109876190Y-91354761D02*
X109638095Y-92069047D01*
X110257142Y-92069047D01*
X110685714Y-92402380D02*
X110876190Y-92402380D01*
X110971428Y-92354761D01*
X111019047Y-92307142D01*
X111114285Y-92164285D01*
X111161904Y-91973809D01*
X111161904Y-91592857D01*
X111114285Y-91497619D01*
X111066666Y-91450000D01*
X110971428Y-91402380D01*
X110780952Y-91402380D01*
X110685714Y-91450000D01*
X110638095Y-91497619D01*
X110590476Y-91592857D01*
X110590476Y-91830952D01*
X110638095Y-91926190D01*
X110685714Y-91973809D01*
X110780952Y-92021428D01*
X110971428Y-92021428D01*
X111066666Y-91973809D01*
X111114285Y-91926190D01*
X111161904Y-91830952D01*
X109257142Y-94952380D02*
X108923809Y-94476190D01*
X108685714Y-94952380D02*
X108685714Y-93952380D01*
X109066666Y-93952380D01*
X109161904Y-94000000D01*
X109209523Y-94047619D01*
X109257142Y-94142857D01*
X109257142Y-94285714D01*
X109209523Y-94380952D01*
X109161904Y-94428571D01*
X109066666Y-94476190D01*
X108685714Y-94476190D01*
X110114285Y-94285714D02*
X110114285Y-94952380D01*
X109876190Y-93904761D02*
X109638095Y-94619047D01*
X110257142Y-94619047D01*
X110828571Y-93952380D02*
X110923809Y-93952380D01*
X111019047Y-94000000D01*
X111066666Y-94047619D01*
X111114285Y-94142857D01*
X111161904Y-94333333D01*
X111161904Y-94571428D01*
X111114285Y-94761904D01*
X111066666Y-94857142D01*
X111019047Y-94904761D01*
X110923809Y-94952380D01*
X110828571Y-94952380D01*
X110733333Y-94904761D01*
X110685714Y-94857142D01*
X110638095Y-94761904D01*
X110590476Y-94571428D01*
X110590476Y-94333333D01*
X110638095Y-94142857D01*
X110685714Y-94047619D01*
X110733333Y-94000000D01*
X110828571Y-93952380D01*
X136533333Y-90952380D02*
X136057142Y-90952380D01*
X136057142Y-89952380D01*
X137390476Y-90952380D02*
X136819047Y-90952380D01*
X137104761Y-90952380D02*
X137104761Y-89952380D01*
X137009523Y-90095238D01*
X136914285Y-90190476D01*
X136819047Y-90238095D01*
X136857142Y-99157142D02*
X136809523Y-99204761D01*
X136666666Y-99252380D01*
X136571428Y-99252380D01*
X136428571Y-99204761D01*
X136333333Y-99109523D01*
X136285714Y-99014285D01*
X136238095Y-98823809D01*
X136238095Y-98680952D01*
X136285714Y-98490476D01*
X136333333Y-98395238D01*
X136428571Y-98300000D01*
X136571428Y-98252380D01*
X136666666Y-98252380D01*
X136809523Y-98300000D01*
X136857142Y-98347619D01*
X137190476Y-98252380D02*
X137809523Y-98252380D01*
X137476190Y-98633333D01*
X137619047Y-98633333D01*
X137714285Y-98680952D01*
X137761904Y-98728571D01*
X137809523Y-98823809D01*
X137809523Y-99061904D01*
X137761904Y-99157142D01*
X137714285Y-99204761D01*
X137619047Y-99252380D01*
X137333333Y-99252380D01*
X137238095Y-99204761D01*
X137190476Y-99157142D01*
X138428571Y-98252380D02*
X138523809Y-98252380D01*
X138619047Y-98300000D01*
X138666666Y-98347619D01*
X138714285Y-98442857D01*
X138761904Y-98633333D01*
X138761904Y-98871428D01*
X138714285Y-99061904D01*
X138666666Y-99157142D01*
X138619047Y-99204761D01*
X138523809Y-99252380D01*
X138428571Y-99252380D01*
X138333333Y-99204761D01*
X138285714Y-99157142D01*
X138238095Y-99061904D01*
X138190476Y-98871428D01*
X138190476Y-98633333D01*
X138238095Y-98442857D01*
X138285714Y-98347619D01*
X138333333Y-98300000D01*
X138428571Y-98252380D01*
X140588095Y-106552380D02*
X140588095Y-107361904D01*
X140635714Y-107457142D01*
X140683333Y-107504761D01*
X140778571Y-107552380D01*
X140969047Y-107552380D01*
X141064285Y-107504761D01*
X141111904Y-107457142D01*
X141159523Y-107361904D01*
X141159523Y-106552380D01*
X141683333Y-107552380D02*
X141873809Y-107552380D01*
X141969047Y-107504761D01*
X142016666Y-107457142D01*
X142111904Y-107314285D01*
X142159523Y-107123809D01*
X142159523Y-106742857D01*
X142111904Y-106647619D01*
X142064285Y-106600000D01*
X141969047Y-106552380D01*
X141778571Y-106552380D01*
X141683333Y-106600000D01*
X141635714Y-106647619D01*
X141588095Y-106742857D01*
X141588095Y-106980952D01*
X141635714Y-107076190D01*
X141683333Y-107123809D01*
X141778571Y-107171428D01*
X141969047Y-107171428D01*
X142064285Y-107123809D01*
X142111904Y-107076190D01*
X142159523Y-106980952D01*
X135457142Y-73292857D02*
X135504761Y-73340476D01*
X135552380Y-73483333D01*
X135552380Y-73578571D01*
X135504761Y-73721428D01*
X135409523Y-73816666D01*
X135314285Y-73864285D01*
X135123809Y-73911904D01*
X134980952Y-73911904D01*
X134790476Y-73864285D01*
X134695238Y-73816666D01*
X134600000Y-73721428D01*
X134552380Y-73578571D01*
X134552380Y-73483333D01*
X134600000Y-73340476D01*
X134647619Y-73292857D01*
X134552380Y-72959523D02*
X134552380Y-72340476D01*
X134933333Y-72673809D01*
X134933333Y-72530952D01*
X134980952Y-72435714D01*
X135028571Y-72388095D01*
X135123809Y-72340476D01*
X135361904Y-72340476D01*
X135457142Y-72388095D01*
X135504761Y-72435714D01*
X135552380Y-72530952D01*
X135552380Y-72816666D01*
X135504761Y-72911904D01*
X135457142Y-72959523D01*
X135552380Y-71388095D02*
X135552380Y-71959523D01*
X135552380Y-71673809D02*
X134552380Y-71673809D01*
X134695238Y-71769047D01*
X134790476Y-71864285D01*
X134838095Y-71959523D01*
X137757142Y-70552380D02*
X137423809Y-70076190D01*
X137185714Y-70552380D02*
X137185714Y-69552380D01*
X137566666Y-69552380D01*
X137661904Y-69600000D01*
X137709523Y-69647619D01*
X137757142Y-69742857D01*
X137757142Y-69885714D01*
X137709523Y-69980952D01*
X137661904Y-70028571D01*
X137566666Y-70076190D01*
X137185714Y-70076190D01*
X138138095Y-69647619D02*
X138185714Y-69600000D01*
X138280952Y-69552380D01*
X138519047Y-69552380D01*
X138614285Y-69600000D01*
X138661904Y-69647619D01*
X138709523Y-69742857D01*
X138709523Y-69838095D01*
X138661904Y-69980952D01*
X138090476Y-70552380D01*
X138709523Y-70552380D01*
X139328571Y-69552380D02*
X139423809Y-69552380D01*
X139519047Y-69600000D01*
X139566666Y-69647619D01*
X139614285Y-69742857D01*
X139661904Y-69933333D01*
X139661904Y-70171428D01*
X139614285Y-70361904D01*
X139566666Y-70457142D01*
X139519047Y-70504761D01*
X139423809Y-70552380D01*
X139328571Y-70552380D01*
X139233333Y-70504761D01*
X139185714Y-70457142D01*
X139138095Y-70361904D01*
X139090476Y-70171428D01*
X139090476Y-69933333D01*
X139138095Y-69742857D01*
X139185714Y-69647619D01*
X139233333Y-69600000D01*
X139328571Y-69552380D01*
X141007142Y-104057142D02*
X140959523Y-104104761D01*
X140816666Y-104152380D01*
X140721428Y-104152380D01*
X140578571Y-104104761D01*
X140483333Y-104009523D01*
X140435714Y-103914285D01*
X140388095Y-103723809D01*
X140388095Y-103580952D01*
X140435714Y-103390476D01*
X140483333Y-103295238D01*
X140578571Y-103200000D01*
X140721428Y-103152380D01*
X140816666Y-103152380D01*
X140959523Y-103200000D01*
X141007142Y-103247619D01*
X141340476Y-103152380D02*
X141959523Y-103152380D01*
X141626190Y-103533333D01*
X141769047Y-103533333D01*
X141864285Y-103580952D01*
X141911904Y-103628571D01*
X141959523Y-103723809D01*
X141959523Y-103961904D01*
X141911904Y-104057142D01*
X141864285Y-104104761D01*
X141769047Y-104152380D01*
X141483333Y-104152380D01*
X141388095Y-104104761D01*
X141340476Y-104057142D01*
X142292857Y-103152380D02*
X142959523Y-103152380D01*
X142530952Y-104152380D01*
X108133333Y-96357142D02*
X108085714Y-96404761D01*
X107942857Y-96452380D01*
X107847619Y-96452380D01*
X107704761Y-96404761D01*
X107609523Y-96309523D01*
X107561904Y-96214285D01*
X107514285Y-96023809D01*
X107514285Y-95880952D01*
X107561904Y-95690476D01*
X107609523Y-95595238D01*
X107704761Y-95500000D01*
X107847619Y-95452380D01*
X107942857Y-95452380D01*
X108085714Y-95500000D01*
X108133333Y-95547619D01*
X109038095Y-95452380D02*
X108561904Y-95452380D01*
X108514285Y-95928571D01*
X108561904Y-95880952D01*
X108657142Y-95833333D01*
X108895238Y-95833333D01*
X108990476Y-95880952D01*
X109038095Y-95928571D01*
X109085714Y-96023809D01*
X109085714Y-96261904D01*
X109038095Y-96357142D01*
X108990476Y-96404761D01*
X108895238Y-96452380D01*
X108657142Y-96452380D01*
X108561904Y-96404761D01*
X108514285Y-96357142D01*
X145857142Y-92757142D02*
X145809523Y-92804761D01*
X145666666Y-92852380D01*
X145571428Y-92852380D01*
X145428571Y-92804761D01*
X145333333Y-92709523D01*
X145285714Y-92614285D01*
X145238095Y-92423809D01*
X145238095Y-92280952D01*
X145285714Y-92090476D01*
X145333333Y-91995238D01*
X145428571Y-91900000D01*
X145571428Y-91852380D01*
X145666666Y-91852380D01*
X145809523Y-91900000D01*
X145857142Y-91947619D01*
X146238095Y-91947619D02*
X146285714Y-91900000D01*
X146380952Y-91852380D01*
X146619047Y-91852380D01*
X146714285Y-91900000D01*
X146761904Y-91947619D01*
X146809523Y-92042857D01*
X146809523Y-92138095D01*
X146761904Y-92280952D01*
X146190476Y-92852380D01*
X146809523Y-92852380D01*
X147380952Y-92280952D02*
X147285714Y-92233333D01*
X147238095Y-92185714D01*
X147190476Y-92090476D01*
X147190476Y-92042857D01*
X147238095Y-91947619D01*
X147285714Y-91900000D01*
X147380952Y-91852380D01*
X147571428Y-91852380D01*
X147666666Y-91900000D01*
X147714285Y-91947619D01*
X147761904Y-92042857D01*
X147761904Y-92090476D01*
X147714285Y-92185714D01*
X147666666Y-92233333D01*
X147571428Y-92280952D01*
X147380952Y-92280952D01*
X147285714Y-92328571D01*
X147238095Y-92376190D01*
X147190476Y-92471428D01*
X147190476Y-92661904D01*
X147238095Y-92757142D01*
X147285714Y-92804761D01*
X147380952Y-92852380D01*
X147571428Y-92852380D01*
X147666666Y-92804761D01*
X147714285Y-92757142D01*
X147761904Y-92661904D01*
X147761904Y-92471428D01*
X147714285Y-92376190D01*
X147666666Y-92328571D01*
X147571428Y-92280952D01*
X131506269Y-90952380D02*
X131172936Y-90476190D01*
X130934840Y-90952380D02*
X130934840Y-89952380D01*
X131315793Y-89952380D01*
X131411031Y-90000000D01*
X131458650Y-90047619D01*
X131506269Y-90142857D01*
X131506269Y-90285714D01*
X131458650Y-90380952D01*
X131411031Y-90428571D01*
X131315793Y-90476190D01*
X130934840Y-90476190D01*
X132363412Y-89952380D02*
X132172936Y-89952380D01*
X132077697Y-90000000D01*
X132030078Y-90047619D01*
X131934840Y-90190476D01*
X131887221Y-90380952D01*
X131887221Y-90761904D01*
X131934840Y-90857142D01*
X131982459Y-90904761D01*
X132077697Y-90952380D01*
X132268174Y-90952380D01*
X132363412Y-90904761D01*
X132411031Y-90857142D01*
X132458650Y-90761904D01*
X132458650Y-90523809D01*
X132411031Y-90428571D01*
X132363412Y-90380952D01*
X132268174Y-90333333D01*
X132077697Y-90333333D01*
X131982459Y-90380952D01*
X131934840Y-90428571D01*
X131887221Y-90523809D01*
X119952380Y-106442857D02*
X119476190Y-106776190D01*
X119952380Y-107014285D02*
X118952380Y-107014285D01*
X118952380Y-106633333D01*
X119000000Y-106538095D01*
X119047619Y-106490476D01*
X119142857Y-106442857D01*
X119285714Y-106442857D01*
X119380952Y-106490476D01*
X119428571Y-106538095D01*
X119476190Y-106633333D01*
X119476190Y-107014285D01*
X119047619Y-106061904D02*
X119000000Y-106014285D01*
X118952380Y-105919047D01*
X118952380Y-105680952D01*
X119000000Y-105585714D01*
X119047619Y-105538095D01*
X119142857Y-105490476D01*
X119238095Y-105490476D01*
X119380952Y-105538095D01*
X119952380Y-106109523D01*
X119952380Y-105490476D01*
X119285714Y-104633333D02*
X119952380Y-104633333D01*
X118904761Y-104871428D02*
X119619047Y-105109523D01*
X119619047Y-104490476D01*
X137757142Y-69152380D02*
X137423809Y-68676190D01*
X137185714Y-69152380D02*
X137185714Y-68152380D01*
X137566666Y-68152380D01*
X137661904Y-68200000D01*
X137709523Y-68247619D01*
X137757142Y-68342857D01*
X137757142Y-68485714D01*
X137709523Y-68580952D01*
X137661904Y-68628571D01*
X137566666Y-68676190D01*
X137185714Y-68676190D01*
X138138095Y-68247619D02*
X138185714Y-68200000D01*
X138280952Y-68152380D01*
X138519047Y-68152380D01*
X138614285Y-68200000D01*
X138661904Y-68247619D01*
X138709523Y-68342857D01*
X138709523Y-68438095D01*
X138661904Y-68580952D01*
X138090476Y-69152380D01*
X138709523Y-69152380D01*
X139661904Y-69152380D02*
X139090476Y-69152380D01*
X139376190Y-69152380D02*
X139376190Y-68152380D01*
X139280952Y-68295238D01*
X139185714Y-68390476D01*
X139090476Y-68438095D01*
X125852380Y-106442857D02*
X125376190Y-106776190D01*
X125852380Y-107014285D02*
X124852380Y-107014285D01*
X124852380Y-106633333D01*
X124900000Y-106538095D01*
X124947619Y-106490476D01*
X125042857Y-106442857D01*
X125185714Y-106442857D01*
X125280952Y-106490476D01*
X125328571Y-106538095D01*
X125376190Y-106633333D01*
X125376190Y-107014285D01*
X124947619Y-106061904D02*
X124900000Y-106014285D01*
X124852380Y-105919047D01*
X124852380Y-105680952D01*
X124900000Y-105585714D01*
X124947619Y-105538095D01*
X125042857Y-105490476D01*
X125138095Y-105490476D01*
X125280952Y-105538095D01*
X125852380Y-106109523D01*
X125852380Y-105490476D01*
X125280952Y-104919047D02*
X125233333Y-105014285D01*
X125185714Y-105061904D01*
X125090476Y-105109523D01*
X125042857Y-105109523D01*
X124947619Y-105061904D01*
X124900000Y-105014285D01*
X124852380Y-104919047D01*
X124852380Y-104728571D01*
X124900000Y-104633333D01*
X124947619Y-104585714D01*
X125042857Y-104538095D01*
X125090476Y-104538095D01*
X125185714Y-104585714D01*
X125233333Y-104633333D01*
X125280952Y-104728571D01*
X125280952Y-104919047D01*
X125328571Y-105014285D01*
X125376190Y-105061904D01*
X125471428Y-105109523D01*
X125661904Y-105109523D01*
X125757142Y-105061904D01*
X125804761Y-105014285D01*
X125852380Y-104919047D01*
X125852380Y-104728571D01*
X125804761Y-104633333D01*
X125757142Y-104585714D01*
X125661904Y-104538095D01*
X125471428Y-104538095D01*
X125376190Y-104585714D01*
X125328571Y-104633333D01*
X125280952Y-104728571D01*
X147257142Y-80742857D02*
X147304761Y-80790476D01*
X147352380Y-80933333D01*
X147352380Y-81028571D01*
X147304761Y-81171428D01*
X147209523Y-81266666D01*
X147114285Y-81314285D01*
X146923809Y-81361904D01*
X146780952Y-81361904D01*
X146590476Y-81314285D01*
X146495238Y-81266666D01*
X146400000Y-81171428D01*
X146352380Y-81028571D01*
X146352380Y-80933333D01*
X146400000Y-80790476D01*
X146447619Y-80742857D01*
X146447619Y-80361904D02*
X146400000Y-80314285D01*
X146352380Y-80219047D01*
X146352380Y-79980952D01*
X146400000Y-79885714D01*
X146447619Y-79838095D01*
X146542857Y-79790476D01*
X146638095Y-79790476D01*
X146780952Y-79838095D01*
X147352380Y-80409523D01*
X147352380Y-79790476D01*
X147352380Y-79314285D02*
X147352380Y-79123809D01*
X147304761Y-79028571D01*
X147257142Y-78980952D01*
X147114285Y-78885714D01*
X146923809Y-78838095D01*
X146542857Y-78838095D01*
X146447619Y-78885714D01*
X146400000Y-78933333D01*
X146352380Y-79028571D01*
X146352380Y-79219047D01*
X146400000Y-79314285D01*
X146447619Y-79361904D01*
X146542857Y-79409523D01*
X146780952Y-79409523D01*
X146876190Y-79361904D01*
X146923809Y-79314285D01*
X146971428Y-79219047D01*
X146971428Y-79028571D01*
X146923809Y-78933333D01*
X146876190Y-78885714D01*
X146780952Y-78838095D01*
X138333333Y-92852380D02*
X137857142Y-92852380D01*
X137857142Y-91852380D01*
X138619047Y-91947619D02*
X138666666Y-91900000D01*
X138761904Y-91852380D01*
X139000000Y-91852380D01*
X139095238Y-91900000D01*
X139142857Y-91947619D01*
X139190476Y-92042857D01*
X139190476Y-92138095D01*
X139142857Y-92280952D01*
X138571428Y-92852380D01*
X139190476Y-92852380D01*
X107151904Y-72957380D02*
X107151904Y-71957380D01*
X107390000Y-71957380D01*
X107532857Y-72005000D01*
X107628095Y-72100238D01*
X107675714Y-72195476D01*
X107723333Y-72385952D01*
X107723333Y-72528809D01*
X107675714Y-72719285D01*
X107628095Y-72814523D01*
X107532857Y-72909761D01*
X107390000Y-72957380D01*
X107151904Y-72957380D01*
X108104285Y-72052619D02*
X108151904Y-72005000D01*
X108247142Y-71957380D01*
X108485238Y-71957380D01*
X108580476Y-72005000D01*
X108628095Y-72052619D01*
X108675714Y-72147857D01*
X108675714Y-72243095D01*
X108628095Y-72385952D01*
X108056666Y-72957380D01*
X108675714Y-72957380D01*
X112287142Y-115242857D02*
X112334761Y-115290476D01*
X112382380Y-115433333D01*
X112382380Y-115528571D01*
X112334761Y-115671428D01*
X112239523Y-115766666D01*
X112144285Y-115814285D01*
X111953809Y-115861904D01*
X111810952Y-115861904D01*
X111620476Y-115814285D01*
X111525238Y-115766666D01*
X111430000Y-115671428D01*
X111382380Y-115528571D01*
X111382380Y-115433333D01*
X111430000Y-115290476D01*
X111477619Y-115242857D01*
X111477619Y-114861904D02*
X111430000Y-114814285D01*
X111382380Y-114719047D01*
X111382380Y-114480952D01*
X111430000Y-114385714D01*
X111477619Y-114338095D01*
X111572857Y-114290476D01*
X111668095Y-114290476D01*
X111810952Y-114338095D01*
X112382380Y-114909523D01*
X112382380Y-114290476D01*
X111382380Y-113385714D02*
X111382380Y-113861904D01*
X111858571Y-113909523D01*
X111810952Y-113861904D01*
X111763333Y-113766666D01*
X111763333Y-113528571D01*
X111810952Y-113433333D01*
X111858571Y-113385714D01*
X111953809Y-113338095D01*
X112191904Y-113338095D01*
X112287142Y-113385714D01*
X112334761Y-113433333D01*
X112382380Y-113528571D01*
X112382380Y-113766666D01*
X112334761Y-113861904D01*
X112287142Y-113909523D01*
X133452380Y-73938095D02*
X132452380Y-73938095D01*
X132452380Y-73700000D01*
X132500000Y-73557142D01*
X132595238Y-73461904D01*
X132690476Y-73414285D01*
X132880952Y-73366666D01*
X133023809Y-73366666D01*
X133214285Y-73414285D01*
X133309523Y-73461904D01*
X133404761Y-73557142D01*
X133452380Y-73700000D01*
X133452380Y-73938095D01*
X132452380Y-72461904D02*
X132452380Y-72938095D01*
X132928571Y-72985714D01*
X132880952Y-72938095D01*
X132833333Y-72842857D01*
X132833333Y-72604761D01*
X132880952Y-72509523D01*
X132928571Y-72461904D01*
X133023809Y-72414285D01*
X133261904Y-72414285D01*
X133357142Y-72461904D01*
X133404761Y-72509523D01*
X133452380Y-72604761D01*
X133452380Y-72842857D01*
X133404761Y-72938095D01*
X133357142Y-72985714D01*
X112823809Y-99426190D02*
X112823809Y-99902380D01*
X112490476Y-98902380D02*
X112823809Y-99426190D01*
X113157142Y-98902380D01*
X114014285Y-99902380D02*
X113442857Y-99902380D01*
X113728571Y-99902380D02*
X113728571Y-98902380D01*
X113633333Y-99045238D01*
X113538095Y-99140476D01*
X113442857Y-99188095D01*
X145857142Y-90652380D02*
X145523809Y-90176190D01*
X145285714Y-90652380D02*
X145285714Y-89652380D01*
X145666666Y-89652380D01*
X145761904Y-89700000D01*
X145809523Y-89747619D01*
X145857142Y-89842857D01*
X145857142Y-89985714D01*
X145809523Y-90080952D01*
X145761904Y-90128571D01*
X145666666Y-90176190D01*
X145285714Y-90176190D01*
X146809523Y-90652380D02*
X146238095Y-90652380D01*
X146523809Y-90652380D02*
X146523809Y-89652380D01*
X146428571Y-89795238D01*
X146333333Y-89890476D01*
X146238095Y-89938095D01*
X147380952Y-90080952D02*
X147285714Y-90033333D01*
X147238095Y-89985714D01*
X147190476Y-89890476D01*
X147190476Y-89842857D01*
X147238095Y-89747619D01*
X147285714Y-89700000D01*
X147380952Y-89652380D01*
X147571428Y-89652380D01*
X147666666Y-89700000D01*
X147714285Y-89747619D01*
X147761904Y-89842857D01*
X147761904Y-89890476D01*
X147714285Y-89985714D01*
X147666666Y-90033333D01*
X147571428Y-90080952D01*
X147380952Y-90080952D01*
X147285714Y-90128571D01*
X147238095Y-90176190D01*
X147190476Y-90271428D01*
X147190476Y-90461904D01*
X147238095Y-90557142D01*
X147285714Y-90604761D01*
X147380952Y-90652380D01*
X147571428Y-90652380D01*
X147666666Y-90604761D01*
X147714285Y-90557142D01*
X147761904Y-90461904D01*
X147761904Y-90271428D01*
X147714285Y-90176190D01*
X147666666Y-90128571D01*
X147571428Y-90080952D01*
X107488095Y-110952380D02*
X107488095Y-111761904D01*
X107535714Y-111857142D01*
X107583333Y-111904761D01*
X107678571Y-111952380D01*
X107869047Y-111952380D01*
X107964285Y-111904761D01*
X108011904Y-111857142D01*
X108059523Y-111761904D01*
X108059523Y-110952380D01*
X108964285Y-110952380D02*
X108773809Y-110952380D01*
X108678571Y-111000000D01*
X108630952Y-111047619D01*
X108535714Y-111190476D01*
X108488095Y-111380952D01*
X108488095Y-111761904D01*
X108535714Y-111857142D01*
X108583333Y-111904761D01*
X108678571Y-111952380D01*
X108869047Y-111952380D01*
X108964285Y-111904761D01*
X109011904Y-111857142D01*
X109059523Y-111761904D01*
X109059523Y-111523809D01*
X109011904Y-111428571D01*
X108964285Y-111380952D01*
X108869047Y-111333333D01*
X108678571Y-111333333D01*
X108583333Y-111380952D01*
X108535714Y-111428571D01*
X108488095Y-111523809D01*
X131954761Y-97247619D02*
X131859523Y-97200000D01*
X131764285Y-97104761D01*
X131621428Y-96961904D01*
X131526190Y-96914285D01*
X131430952Y-96914285D01*
X131478571Y-97152380D02*
X131383333Y-97104761D01*
X131288095Y-97009523D01*
X131240476Y-96819047D01*
X131240476Y-96485714D01*
X131288095Y-96295238D01*
X131383333Y-96200000D01*
X131478571Y-96152380D01*
X131669047Y-96152380D01*
X131764285Y-96200000D01*
X131859523Y-96295238D01*
X131907142Y-96485714D01*
X131907142Y-96819047D01*
X131859523Y-97009523D01*
X131764285Y-97104761D01*
X131669047Y-97152380D01*
X131478571Y-97152380D01*
X132859523Y-97152380D02*
X132288095Y-97152380D01*
X132573809Y-97152380D02*
X132573809Y-96152380D01*
X132478571Y-96295238D01*
X132383333Y-96390476D01*
X132288095Y-96438095D01*
X147357142Y-84342857D02*
X147404761Y-84390476D01*
X147452380Y-84533333D01*
X147452380Y-84628571D01*
X147404761Y-84771428D01*
X147309523Y-84866666D01*
X147214285Y-84914285D01*
X147023809Y-84961904D01*
X146880952Y-84961904D01*
X146690476Y-84914285D01*
X146595238Y-84866666D01*
X146500000Y-84771428D01*
X146452380Y-84628571D01*
X146452380Y-84533333D01*
X146500000Y-84390476D01*
X146547619Y-84342857D01*
X146547619Y-83961904D02*
X146500000Y-83914285D01*
X146452380Y-83819047D01*
X146452380Y-83580952D01*
X146500000Y-83485714D01*
X146547619Y-83438095D01*
X146642857Y-83390476D01*
X146738095Y-83390476D01*
X146880952Y-83438095D01*
X147452380Y-84009523D01*
X147452380Y-83390476D01*
X146452380Y-83057142D02*
X146452380Y-82390476D01*
X147452380Y-82819047D01*
X116523333Y-72957380D02*
X116190000Y-72481190D01*
X115951904Y-72957380D02*
X115951904Y-71957380D01*
X116332857Y-71957380D01*
X116428095Y-72005000D01*
X116475714Y-72052619D01*
X116523333Y-72147857D01*
X116523333Y-72290714D01*
X116475714Y-72385952D01*
X116428095Y-72433571D01*
X116332857Y-72481190D01*
X115951904Y-72481190D01*
X116904285Y-72052619D02*
X116951904Y-72005000D01*
X117047142Y-71957380D01*
X117285238Y-71957380D01*
X117380476Y-72005000D01*
X117428095Y-72052619D01*
X117475714Y-72147857D01*
X117475714Y-72243095D01*
X117428095Y-72385952D01*
X116856666Y-72957380D01*
X117475714Y-72957380D01*
X98733333Y-115357142D02*
X98685714Y-115404761D01*
X98542857Y-115452380D01*
X98447619Y-115452380D01*
X98304761Y-115404761D01*
X98209523Y-115309523D01*
X98161904Y-115214285D01*
X98114285Y-115023809D01*
X98114285Y-114880952D01*
X98161904Y-114690476D01*
X98209523Y-114595238D01*
X98304761Y-114500000D01*
X98447619Y-114452380D01*
X98542857Y-114452380D01*
X98685714Y-114500000D01*
X98733333Y-114547619D01*
X99590476Y-114452380D02*
X99400000Y-114452380D01*
X99304761Y-114500000D01*
X99257142Y-114547619D01*
X99161904Y-114690476D01*
X99114285Y-114880952D01*
X99114285Y-115261904D01*
X99161904Y-115357142D01*
X99209523Y-115404761D01*
X99304761Y-115452380D01*
X99495238Y-115452380D01*
X99590476Y-115404761D01*
X99638095Y-115357142D01*
X99685714Y-115261904D01*
X99685714Y-115023809D01*
X99638095Y-114928571D01*
X99590476Y-114880952D01*
X99495238Y-114833333D01*
X99304761Y-114833333D01*
X99209523Y-114880952D01*
X99161904Y-114928571D01*
X99114285Y-115023809D01*
X147252380Y-77242857D02*
X146776190Y-77576190D01*
X147252380Y-77814285D02*
X146252380Y-77814285D01*
X146252380Y-77433333D01*
X146300000Y-77338095D01*
X146347619Y-77290476D01*
X146442857Y-77242857D01*
X146585714Y-77242857D01*
X146680952Y-77290476D01*
X146728571Y-77338095D01*
X146776190Y-77433333D01*
X146776190Y-77814285D01*
X147252380Y-76290476D02*
X147252380Y-76861904D01*
X147252380Y-76576190D02*
X146252380Y-76576190D01*
X146395238Y-76671428D01*
X146490476Y-76766666D01*
X146538095Y-76861904D01*
X146252380Y-75433333D02*
X146252380Y-75623809D01*
X146300000Y-75719047D01*
X146347619Y-75766666D01*
X146490476Y-75861904D01*
X146680952Y-75909523D01*
X147061904Y-75909523D01*
X147157142Y-75861904D01*
X147204761Y-75814285D01*
X147252380Y-75719047D01*
X147252380Y-75528571D01*
X147204761Y-75433333D01*
X147157142Y-75385714D01*
X147061904Y-75338095D01*
X146823809Y-75338095D01*
X146728571Y-75385714D01*
X146680952Y-75433333D01*
X146633333Y-75528571D01*
X146633333Y-75719047D01*
X146680952Y-75814285D01*
X146728571Y-75861904D01*
X146823809Y-75909523D01*
X108777142Y-102066666D02*
X108824761Y-102114285D01*
X108872380Y-102257142D01*
X108872380Y-102352380D01*
X108824761Y-102495238D01*
X108729523Y-102590476D01*
X108634285Y-102638095D01*
X108443809Y-102685714D01*
X108300952Y-102685714D01*
X108110476Y-102638095D01*
X108015238Y-102590476D01*
X107920000Y-102495238D01*
X107872380Y-102352380D01*
X107872380Y-102257142D01*
X107920000Y-102114285D01*
X107967619Y-102066666D01*
X108872380Y-101114285D02*
X108872380Y-101685714D01*
X108872380Y-101400000D02*
X107872380Y-101400000D01*
X108015238Y-101495238D01*
X108110476Y-101590476D01*
X108158095Y-101685714D01*
X108083333Y-85607142D02*
X108035714Y-85654761D01*
X107892857Y-85702380D01*
X107797619Y-85702380D01*
X107654761Y-85654761D01*
X107559523Y-85559523D01*
X107511904Y-85464285D01*
X107464285Y-85273809D01*
X107464285Y-85130952D01*
X107511904Y-84940476D01*
X107559523Y-84845238D01*
X107654761Y-84750000D01*
X107797619Y-84702380D01*
X107892857Y-84702380D01*
X108035714Y-84750000D01*
X108083333Y-84797619D01*
X108416666Y-84702380D02*
X109083333Y-84702380D01*
X108654761Y-85702380D01*
X147752380Y-96542857D02*
X147276190Y-96876190D01*
X147752380Y-97114285D02*
X146752380Y-97114285D01*
X146752380Y-96733333D01*
X146800000Y-96638095D01*
X146847619Y-96590476D01*
X146942857Y-96542857D01*
X147085714Y-96542857D01*
X147180952Y-96590476D01*
X147228571Y-96638095D01*
X147276190Y-96733333D01*
X147276190Y-97114285D01*
X146847619Y-96161904D02*
X146800000Y-96114285D01*
X146752380Y-96019047D01*
X146752380Y-95780952D01*
X146800000Y-95685714D01*
X146847619Y-95638095D01*
X146942857Y-95590476D01*
X147038095Y-95590476D01*
X147180952Y-95638095D01*
X147752380Y-96209523D01*
X147752380Y-95590476D01*
X146752380Y-95257142D02*
X146752380Y-94638095D01*
X147133333Y-94971428D01*
X147133333Y-94828571D01*
X147180952Y-94733333D01*
X147228571Y-94685714D01*
X147323809Y-94638095D01*
X147561904Y-94638095D01*
X147657142Y-94685714D01*
X147704761Y-94733333D01*
X147752380Y-94828571D01*
X147752380Y-95114285D01*
X147704761Y-95209523D01*
X147657142Y-95257142D01*
X131957142Y-80557142D02*
X131909523Y-80604761D01*
X131766666Y-80652380D01*
X131671428Y-80652380D01*
X131528571Y-80604761D01*
X131433333Y-80509523D01*
X131385714Y-80414285D01*
X131338095Y-80223809D01*
X131338095Y-80080952D01*
X131385714Y-79890476D01*
X131433333Y-79795238D01*
X131528571Y-79700000D01*
X131671428Y-79652380D01*
X131766666Y-79652380D01*
X131909523Y-79700000D01*
X131957142Y-79747619D01*
X132290476Y-79652380D02*
X132909523Y-79652380D01*
X132576190Y-80033333D01*
X132719047Y-80033333D01*
X132814285Y-80080952D01*
X132861904Y-80128571D01*
X132909523Y-80223809D01*
X132909523Y-80461904D01*
X132861904Y-80557142D01*
X132814285Y-80604761D01*
X132719047Y-80652380D01*
X132433333Y-80652380D01*
X132338095Y-80604761D01*
X132290476Y-80557142D01*
X133242857Y-79652380D02*
X133861904Y-79652380D01*
X133528571Y-80033333D01*
X133671428Y-80033333D01*
X133766666Y-80080952D01*
X133814285Y-80128571D01*
X133861904Y-80223809D01*
X133861904Y-80461904D01*
X133814285Y-80557142D01*
X133766666Y-80604761D01*
X133671428Y-80652380D01*
X133385714Y-80652380D01*
X133290476Y-80604761D01*
X133242857Y-80557142D01*
X128557142Y-78457142D02*
X128509523Y-78504761D01*
X128366666Y-78552380D01*
X128271428Y-78552380D01*
X128128571Y-78504761D01*
X128033333Y-78409523D01*
X127985714Y-78314285D01*
X127938095Y-78123809D01*
X127938095Y-77980952D01*
X127985714Y-77790476D01*
X128033333Y-77695238D01*
X128128571Y-77600000D01*
X128271428Y-77552380D01*
X128366666Y-77552380D01*
X128509523Y-77600000D01*
X128557142Y-77647619D01*
X128890476Y-77552380D02*
X129509523Y-77552380D01*
X129176190Y-77933333D01*
X129319047Y-77933333D01*
X129414285Y-77980952D01*
X129461904Y-78028571D01*
X129509523Y-78123809D01*
X129509523Y-78361904D01*
X129461904Y-78457142D01*
X129414285Y-78504761D01*
X129319047Y-78552380D01*
X129033333Y-78552380D01*
X128938095Y-78504761D01*
X128890476Y-78457142D01*
X130414285Y-77552380D02*
X129938095Y-77552380D01*
X129890476Y-78028571D01*
X129938095Y-77980952D01*
X130033333Y-77933333D01*
X130271428Y-77933333D01*
X130366666Y-77980952D01*
X130414285Y-78028571D01*
X130461904Y-78123809D01*
X130461904Y-78361904D01*
X130414285Y-78457142D01*
X130366666Y-78504761D01*
X130271428Y-78552380D01*
X130033333Y-78552380D01*
X129938095Y-78504761D01*
X129890476Y-78457142D01*
X109257142Y-90257142D02*
X109209523Y-90304761D01*
X109066666Y-90352380D01*
X108971428Y-90352380D01*
X108828571Y-90304761D01*
X108733333Y-90209523D01*
X108685714Y-90114285D01*
X108638095Y-89923809D01*
X108638095Y-89780952D01*
X108685714Y-89590476D01*
X108733333Y-89495238D01*
X108828571Y-89400000D01*
X108971428Y-89352380D01*
X109066666Y-89352380D01*
X109209523Y-89400000D01*
X109257142Y-89447619D01*
X110161904Y-89352380D02*
X109685714Y-89352380D01*
X109638095Y-89828571D01*
X109685714Y-89780952D01*
X109780952Y-89733333D01*
X110019047Y-89733333D01*
X110114285Y-89780952D01*
X110161904Y-89828571D01*
X110209523Y-89923809D01*
X110209523Y-90161904D01*
X110161904Y-90257142D01*
X110114285Y-90304761D01*
X110019047Y-90352380D01*
X109780952Y-90352380D01*
X109685714Y-90304761D01*
X109638095Y-90257142D01*
X110828571Y-89352380D02*
X110923809Y-89352380D01*
X111019047Y-89400000D01*
X111066666Y-89447619D01*
X111114285Y-89542857D01*
X111161904Y-89733333D01*
X111161904Y-89971428D01*
X111114285Y-90161904D01*
X111066666Y-90257142D01*
X111019047Y-90304761D01*
X110923809Y-90352380D01*
X110828571Y-90352380D01*
X110733333Y-90304761D01*
X110685714Y-90257142D01*
X110638095Y-90161904D01*
X110590476Y-89971428D01*
X110590476Y-89733333D01*
X110638095Y-89542857D01*
X110685714Y-89447619D01*
X110733333Y-89400000D01*
X110828571Y-89352380D01*
X108083333Y-83607142D02*
X108035714Y-83654761D01*
X107892857Y-83702380D01*
X107797619Y-83702380D01*
X107654761Y-83654761D01*
X107559523Y-83559523D01*
X107511904Y-83464285D01*
X107464285Y-83273809D01*
X107464285Y-83130952D01*
X107511904Y-82940476D01*
X107559523Y-82845238D01*
X107654761Y-82750000D01*
X107797619Y-82702380D01*
X107892857Y-82702380D01*
X108035714Y-82750000D01*
X108083333Y-82797619D01*
X108940476Y-83035714D02*
X108940476Y-83702380D01*
X108702380Y-82654761D02*
X108464285Y-83369047D01*
X109083333Y-83369047D01*
X116533333Y-77352380D02*
X116200000Y-76876190D01*
X115961904Y-77352380D02*
X115961904Y-76352380D01*
X116342857Y-76352380D01*
X116438095Y-76400000D01*
X116485714Y-76447619D01*
X116533333Y-76542857D01*
X116533333Y-76685714D01*
X116485714Y-76780952D01*
X116438095Y-76828571D01*
X116342857Y-76876190D01*
X115961904Y-76876190D01*
X116866666Y-76352380D02*
X117533333Y-76352380D01*
X117104761Y-77352380D01*
X129133333Y-85707142D02*
X129085714Y-85754761D01*
X128942857Y-85802380D01*
X128847619Y-85802380D01*
X128704761Y-85754761D01*
X128609523Y-85659523D01*
X128561904Y-85564285D01*
X128514285Y-85373809D01*
X128514285Y-85230952D01*
X128561904Y-85040476D01*
X128609523Y-84945238D01*
X128704761Y-84850000D01*
X128847619Y-84802380D01*
X128942857Y-84802380D01*
X129085714Y-84850000D01*
X129133333Y-84897619D01*
X129466666Y-84802380D02*
X130085714Y-84802380D01*
X129752380Y-85183333D01*
X129895238Y-85183333D01*
X129990476Y-85230952D01*
X130038095Y-85278571D01*
X130085714Y-85373809D01*
X130085714Y-85611904D01*
X130038095Y-85707142D01*
X129990476Y-85754761D01*
X129895238Y-85802380D01*
X129609523Y-85802380D01*
X129514285Y-85754761D01*
X129466666Y-85707142D01*
X108133333Y-98357142D02*
X108085714Y-98404761D01*
X107942857Y-98452380D01*
X107847619Y-98452380D01*
X107704761Y-98404761D01*
X107609523Y-98309523D01*
X107561904Y-98214285D01*
X107514285Y-98023809D01*
X107514285Y-97880952D01*
X107561904Y-97690476D01*
X107609523Y-97595238D01*
X107704761Y-97500000D01*
X107847619Y-97452380D01*
X107942857Y-97452380D01*
X108085714Y-97500000D01*
X108133333Y-97547619D01*
X108609523Y-98452380D02*
X108800000Y-98452380D01*
X108895238Y-98404761D01*
X108942857Y-98357142D01*
X109038095Y-98214285D01*
X109085714Y-98023809D01*
X109085714Y-97642857D01*
X109038095Y-97547619D01*
X108990476Y-97500000D01*
X108895238Y-97452380D01*
X108704761Y-97452380D01*
X108609523Y-97500000D01*
X108561904Y-97547619D01*
X108514285Y-97642857D01*
X108514285Y-97880952D01*
X108561904Y-97976190D01*
X108609523Y-98023809D01*
X108704761Y-98071428D01*
X108895238Y-98071428D01*
X108990476Y-98023809D01*
X109038095Y-97976190D01*
X109085714Y-97880952D01*
X144033333Y-88502380D02*
X143700000Y-88026190D01*
X143461904Y-88502380D02*
X143461904Y-87502380D01*
X143842857Y-87502380D01*
X143938095Y-87550000D01*
X143985714Y-87597619D01*
X144033333Y-87692857D01*
X144033333Y-87835714D01*
X143985714Y-87930952D01*
X143938095Y-87978571D01*
X143842857Y-88026190D01*
X143461904Y-88026190D01*
X144938095Y-87502380D02*
X144461904Y-87502380D01*
X144414285Y-87978571D01*
X144461904Y-87930952D01*
X144557142Y-87883333D01*
X144795238Y-87883333D01*
X144890476Y-87930952D01*
X144938095Y-87978571D01*
X144985714Y-88073809D01*
X144985714Y-88311904D01*
X144938095Y-88407142D01*
X144890476Y-88454761D01*
X144795238Y-88502380D01*
X144557142Y-88502380D01*
X144461904Y-88454761D01*
X144414285Y-88407142D01*
X122787142Y-102542857D02*
X122834761Y-102590476D01*
X122882380Y-102733333D01*
X122882380Y-102828571D01*
X122834761Y-102971428D01*
X122739523Y-103066666D01*
X122644285Y-103114285D01*
X122453809Y-103161904D01*
X122310952Y-103161904D01*
X122120476Y-103114285D01*
X122025238Y-103066666D01*
X121930000Y-102971428D01*
X121882380Y-102828571D01*
X121882380Y-102733333D01*
X121930000Y-102590476D01*
X121977619Y-102542857D01*
X122882380Y-101590476D02*
X122882380Y-102161904D01*
X122882380Y-101876190D02*
X121882380Y-101876190D01*
X122025238Y-101971428D01*
X122120476Y-102066666D01*
X122168095Y-102161904D01*
X121882380Y-100971428D02*
X121882380Y-100876190D01*
X121930000Y-100780952D01*
X121977619Y-100733333D01*
X122072857Y-100685714D01*
X122263333Y-100638095D01*
X122501428Y-100638095D01*
X122691904Y-100685714D01*
X122787142Y-100733333D01*
X122834761Y-100780952D01*
X122882380Y-100876190D01*
X122882380Y-100971428D01*
X122834761Y-101066666D01*
X122787142Y-101114285D01*
X122691904Y-101161904D01*
X122501428Y-101209523D01*
X122263333Y-101209523D01*
X122072857Y-101161904D01*
X121977619Y-101114285D01*
X121930000Y-101066666D01*
X121882380Y-100971428D01*
X105666666Y-79152380D02*
X105666666Y-79866666D01*
X105619047Y-80009523D01*
X105523809Y-80104761D01*
X105380952Y-80152380D01*
X105285714Y-80152380D01*
X106095238Y-79247619D02*
X106142857Y-79200000D01*
X106238095Y-79152380D01*
X106476190Y-79152380D01*
X106571428Y-79200000D01*
X106619047Y-79247619D01*
X106666666Y-79342857D01*
X106666666Y-79438095D01*
X106619047Y-79580952D01*
X106047619Y-80152380D01*
X106666666Y-80152380D01*
X141057142Y-101257142D02*
X141009523Y-101304761D01*
X140866666Y-101352380D01*
X140771428Y-101352380D01*
X140628571Y-101304761D01*
X140533333Y-101209523D01*
X140485714Y-101114285D01*
X140438095Y-100923809D01*
X140438095Y-100780952D01*
X140485714Y-100590476D01*
X140533333Y-100495238D01*
X140628571Y-100400000D01*
X140771428Y-100352380D01*
X140866666Y-100352380D01*
X141009523Y-100400000D01*
X141057142Y-100447619D01*
X141390476Y-100352380D02*
X142009523Y-100352380D01*
X141676190Y-100733333D01*
X141819047Y-100733333D01*
X141914285Y-100780952D01*
X141961904Y-100828571D01*
X142009523Y-100923809D01*
X142009523Y-101161904D01*
X141961904Y-101257142D01*
X141914285Y-101304761D01*
X141819047Y-101352380D01*
X141533333Y-101352380D01*
X141438095Y-101304761D01*
X141390476Y-101257142D01*
X142390476Y-100447619D02*
X142438095Y-100400000D01*
X142533333Y-100352380D01*
X142771428Y-100352380D01*
X142866666Y-100400000D01*
X142914285Y-100447619D01*
X142961904Y-100542857D01*
X142961904Y-100638095D01*
X142914285Y-100780952D01*
X142342857Y-101352380D01*
X142961904Y-101352380D01*
X144590476Y-68252380D02*
X144590476Y-68966666D01*
X144542857Y-69109523D01*
X144447619Y-69204761D01*
X144304761Y-69252380D01*
X144209523Y-69252380D01*
X145590476Y-69252380D02*
X145019047Y-69252380D01*
X145304761Y-69252380D02*
X145304761Y-68252380D01*
X145209523Y-68395238D01*
X145114285Y-68490476D01*
X145019047Y-68538095D01*
X146209523Y-68252380D02*
X146304761Y-68252380D01*
X146400000Y-68300000D01*
X146447619Y-68347619D01*
X146495238Y-68442857D01*
X146542857Y-68633333D01*
X146542857Y-68871428D01*
X146495238Y-69061904D01*
X146447619Y-69157142D01*
X146400000Y-69204761D01*
X146304761Y-69252380D01*
X146209523Y-69252380D01*
X146114285Y-69204761D01*
X146066666Y-69157142D01*
X146019047Y-69061904D01*
X145971428Y-68871428D01*
X145971428Y-68633333D01*
X146019047Y-68442857D01*
X146066666Y-68347619D01*
X146114285Y-68300000D01*
X146209523Y-68252380D01*
X134166666Y-103452380D02*
X134166666Y-104166666D01*
X134119047Y-104309523D01*
X134023809Y-104404761D01*
X133880952Y-104452380D01*
X133785714Y-104452380D01*
X134547619Y-103452380D02*
X135214285Y-103452380D01*
X134785714Y-104452380D01*
D11*
X128150000Y-74705000D02*
X128150000Y-69505000D01*
X117870000Y-74705000D02*
X117870000Y-73375000D01*
X120470000Y-74705000D02*
X120470000Y-72105000D01*
X117870000Y-72105000D02*
X117870000Y-69505000D01*
X120470000Y-72105000D02*
X117870000Y-72105000D01*
X120470000Y-74705000D02*
X128150000Y-74705000D01*
X119200000Y-74705000D02*
X117870000Y-74705000D01*
X117870000Y-69505000D02*
X128150000Y-69505000D01*
X128500000Y-115500000D02*
X128500000Y-117100000D01*
X143860000Y-119360000D02*
X143860000Y-111540000D01*
X128500000Y-117100000D02*
X129500000Y-117100000D01*
X127740000Y-113140000D02*
X128660000Y-113140000D01*
X129500000Y-117100000D02*
X129500000Y-115500000D01*
X130300000Y-119360000D02*
X130300000Y-115000000D01*
X129500000Y-117100000D02*
X129500000Y-119360000D01*
X128940000Y-113140000D02*
X128660000Y-113140000D01*
X143100000Y-115500000D02*
X143100000Y-117100000D01*
X143100000Y-117100000D02*
X142100000Y-117100000D01*
X142100000Y-115500000D02*
X143100000Y-115500000D01*
X142940000Y-113140000D02*
X142660000Y-113140000D01*
X143860000Y-111540000D02*
X142940000Y-111540000D01*
X128660000Y-111540000D02*
X127740000Y-111540000D01*
X129500000Y-115500000D02*
X128500000Y-115500000D01*
X142940000Y-111540000D02*
X142940000Y-113140000D01*
X130300000Y-115000000D02*
X141300000Y-115000000D01*
X127740000Y-111540000D02*
X127740000Y-119360000D01*
X128660000Y-113140000D02*
X128660000Y-111540000D01*
X127740000Y-119360000D02*
X143860000Y-119360000D01*
X129000000Y-117100000D02*
X129000000Y-119360000D01*
X143860000Y-113140000D02*
X142940000Y-113140000D01*
X141300000Y-115000000D02*
X141300000Y-119360000D01*
X142100000Y-117100000D02*
X142100000Y-115500000D01*
X128940000Y-113140000D02*
X128940000Y-111925000D01*
X100750000Y-109550000D02*
X100750000Y-110550000D01*
X103110000Y-102390000D02*
X104325000Y-102390000D01*
X100750000Y-110550000D02*
X99150000Y-110550000D01*
X104710000Y-102110000D02*
X104710000Y-101190000D01*
X103110000Y-102390000D02*
X103110000Y-102110000D01*
X99150000Y-109550000D02*
X100750000Y-109550000D01*
X96890000Y-111310000D02*
X104710000Y-111310000D01*
X103110000Y-110390000D02*
X103110000Y-110110000D01*
X99150000Y-102950000D02*
X96890000Y-102950000D01*
X103110000Y-101190000D02*
X103110000Y-102110000D01*
X96890000Y-101190000D02*
X96890000Y-111310000D01*
X99150000Y-101950000D02*
X99150000Y-102950000D01*
X99150000Y-102450000D02*
X96890000Y-102450000D01*
X100750000Y-101950000D02*
X99150000Y-101950000D01*
X100750000Y-102950000D02*
X100750000Y-101950000D01*
X104710000Y-110390000D02*
X103110000Y-110390000D01*
X99150000Y-110550000D02*
X99150000Y-109550000D01*
X99150000Y-102950000D02*
X100750000Y-102950000D01*
X103110000Y-111310000D02*
X103110000Y-110390000D01*
X103110000Y-102110000D02*
X104710000Y-102110000D01*
X104710000Y-111310000D02*
X104710000Y-110390000D01*
X101250000Y-108750000D02*
X96890000Y-108750000D01*
X96890000Y-103750000D02*
X101250000Y-103750000D01*
X104710000Y-101190000D02*
X96890000Y-101190000D01*
X101250000Y-103750000D02*
X101250000Y-108750000D01*
X103060000Y-90440000D02*
X103060000Y-90160000D01*
X104660000Y-91360000D02*
X104660000Y-90440000D01*
X99100000Y-81000000D02*
X100700000Y-81000000D01*
X101200000Y-81800000D02*
X101200000Y-88800000D01*
X99100000Y-90600000D02*
X99100000Y-89600000D01*
X104660000Y-79240000D02*
X96840000Y-79240000D01*
X100700000Y-89600000D02*
X100700000Y-90600000D01*
X100700000Y-90600000D02*
X99100000Y-90600000D01*
X99100000Y-89600000D02*
X100700000Y-89600000D01*
X101200000Y-88800000D02*
X96840000Y-88800000D01*
X103060000Y-80440000D02*
X103060000Y-80160000D01*
X104660000Y-80160000D02*
X104660000Y-79240000D01*
X99100000Y-80000000D02*
X99100000Y-81000000D01*
X99100000Y-80500000D02*
X96840000Y-80500000D01*
X96840000Y-79240000D02*
X96840000Y-91360000D01*
X96840000Y-81800000D02*
X101200000Y-81800000D01*
X99100000Y-81000000D02*
X96840000Y-81000000D01*
X96840000Y-91360000D02*
X104660000Y-91360000D01*
X103060000Y-80160000D02*
X104660000Y-80160000D01*
X100700000Y-81000000D02*
X100700000Y-80000000D01*
X103060000Y-91360000D02*
X103060000Y-90440000D01*
X103060000Y-80440000D02*
X104275000Y-80440000D01*
X100700000Y-80000000D02*
X99100000Y-80000000D01*
X103060000Y-79240000D02*
X103060000Y-80160000D01*
X104660000Y-90440000D02*
X103060000Y-90440000D01*
X96890000Y-92190000D02*
X96890000Y-100310000D01*
X104710000Y-92190000D02*
X96890000Y-92190000D01*
X96890000Y-94750000D02*
X101250000Y-94750000D01*
X99150000Y-93950000D02*
X100750000Y-93950000D01*
X99150000Y-92950000D02*
X99150000Y-93950000D01*
X103110000Y-93390000D02*
X104325000Y-93390000D01*
X99150000Y-93950000D02*
X96890000Y-93950000D01*
X103110000Y-93110000D02*
X104710000Y-93110000D01*
X99150000Y-93450000D02*
X96890000Y-93450000D01*
X103110000Y-99390000D02*
X103110000Y-99110000D01*
X104710000Y-93110000D02*
X104710000Y-92190000D01*
X100750000Y-92950000D02*
X99150000Y-92950000D01*
X100750000Y-98550000D02*
X100750000Y-99550000D01*
X103110000Y-92190000D02*
X103110000Y-93110000D01*
X100750000Y-99550000D02*
X99150000Y-99550000D01*
X101250000Y-94750000D02*
X101250000Y-97750000D01*
X99150000Y-98550000D02*
X100750000Y-98550000D01*
X96890000Y-100310000D02*
X104710000Y-100310000D01*
X101250000Y-97750000D02*
X96890000Y-97750000D01*
X103110000Y-100310000D02*
X103110000Y-99390000D01*
X104710000Y-99390000D02*
X103110000Y-99390000D01*
X103110000Y-93390000D02*
X103110000Y-93110000D01*
X100750000Y-93950000D02*
X100750000Y-92950000D01*
X104710000Y-100310000D02*
X104710000Y-99390000D01*
X99150000Y-99550000D02*
X99150000Y-98550000D01*
X126960000Y-111540000D02*
X126040000Y-111540000D01*
X115400000Y-119360000D02*
X115400000Y-115000000D01*
X112840000Y-119360000D02*
X126960000Y-119360000D01*
X125200000Y-115500000D02*
X126200000Y-115500000D01*
X113600000Y-115500000D02*
X113600000Y-117100000D01*
X114040000Y-113140000D02*
X113760000Y-113140000D01*
X114600000Y-117100000D02*
X114600000Y-119360000D01*
X126040000Y-111540000D02*
X126040000Y-113140000D01*
X126200000Y-117100000D02*
X125200000Y-117100000D01*
X113600000Y-117100000D02*
X114600000Y-117100000D01*
X126960000Y-119360000D02*
X126960000Y-111540000D01*
X113760000Y-111540000D02*
X112840000Y-111540000D01*
X124400000Y-115000000D02*
X124400000Y-119360000D01*
X114600000Y-117100000D02*
X114600000Y-115500000D01*
X126040000Y-113140000D02*
X125760000Y-113140000D01*
X126960000Y-113140000D02*
X126040000Y-113140000D01*
X112840000Y-113140000D02*
X113760000Y-113140000D01*
X126200000Y-115500000D02*
X126200000Y-117100000D01*
X114100000Y-117100000D02*
X114100000Y-119360000D01*
X114040000Y-113140000D02*
X114040000Y-111925000D01*
X125200000Y-117100000D02*
X125200000Y-115500000D01*
X112840000Y-111540000D02*
X112840000Y-119360000D01*
X113760000Y-113140000D02*
X113760000Y-111540000D01*
X115400000Y-115000000D02*
X124400000Y-115000000D01*
X114600000Y-115500000D02*
X113600000Y-115500000D01*
X113290000Y-86640000D02*
X113290000Y-85690000D01*
X113290000Y-95910000D02*
X114240000Y-95910000D01*
X114240000Y-95910000D02*
X114240000Y-97250000D01*
X123510000Y-85690000D02*
X122560000Y-85690000D01*
X123510000Y-94960000D02*
X123510000Y-95910000D01*
X123510000Y-95910000D02*
X122560000Y-95910000D01*
X123510000Y-86640000D02*
X123510000Y-85690000D01*
X113290000Y-94960000D02*
X113290000Y-95910000D01*
X113290000Y-85690000D02*
X114240000Y-85690000D01*
X114439564Y-75435000D02*
X113985436Y-75435000D01*
X114439564Y-73965000D02*
X113985436Y-73965000D01*
X126535000Y-96538748D02*
X126535000Y-97061252D01*
X125065000Y-96538748D02*
X125065000Y-97061252D01*
X118235000Y-109261252D02*
X118235000Y-108738748D01*
X116765000Y-109261252D02*
X116765000Y-108738748D01*
X144672936Y-98065000D02*
X145127064Y-98065000D01*
X144672936Y-99535000D02*
X145127064Y-99535000D01*
X101235000Y-113927064D02*
X101235000Y-113472936D01*
X99765000Y-113927064D02*
X99765000Y-113472936D01*
X143127064Y-72965000D02*
X142672936Y-72965000D01*
X143127064Y-74435000D02*
X142672936Y-74435000D01*
X115815000Y-101628748D02*
X115815000Y-102151252D01*
X117285000Y-101628748D02*
X117285000Y-102151252D01*
X144060000Y-95400000D02*
X144060000Y-96200000D01*
X140940000Y-95400000D02*
X140940000Y-94600000D01*
X144060000Y-95400000D02*
X144060000Y-94600000D01*
X140940000Y-95400000D02*
X140940000Y-97200000D01*
X122765000Y-109227064D02*
X122765000Y-108772936D01*
X124235000Y-109227064D02*
X124235000Y-108772936D01*
X147235000Y-111988748D02*
X147235000Y-112511252D01*
X145765000Y-111988748D02*
X145765000Y-112511252D01*
X114414564Y-69565000D02*
X113960436Y-69565000D01*
X114414564Y-71035000D02*
X113960436Y-71035000D01*
X106495000Y-106625000D02*
X106495000Y-105295000D01*
X106495000Y-105295000D02*
X107825000Y-105295000D01*
X109095000Y-107895000D02*
X109095000Y-105295000D01*
X106495000Y-107895000D02*
X109095000Y-107895000D01*
X111695000Y-105295000D02*
X111695000Y-110495000D01*
X106495000Y-107895000D02*
X106495000Y-110495000D01*
X109095000Y-105295000D02*
X111695000Y-105295000D01*
X106495000Y-110495000D02*
X111695000Y-110495000D01*
X110372936Y-76165000D02*
X110827064Y-76165000D01*
X110372936Y-77635000D02*
X110827064Y-77635000D01*
X108940000Y-75660000D02*
X111625000Y-75660000D01*
X111625000Y-73740000D02*
X108940000Y-73740000D01*
X108940000Y-73740000D02*
X108940000Y-75660000D01*
X139900000Y-75265000D02*
X137950000Y-75265000D01*
X139900000Y-75265000D02*
X141850000Y-75265000D01*
X139900000Y-80385000D02*
X143350000Y-80385000D01*
X139900000Y-80385000D02*
X137950000Y-80385000D01*
X122235000Y-109227064D02*
X122235000Y-108772936D01*
X120765000Y-109227064D02*
X120765000Y-108772936D01*
X126238748Y-83985000D02*
X126761252Y-83985000D01*
X126238748Y-82515000D02*
X126761252Y-82515000D01*
X108902500Y-69340000D02*
X108902500Y-71260000D01*
X108902500Y-71260000D02*
X111587500Y-71260000D01*
X111587500Y-69340000D02*
X108902500Y-69340000D01*
X107061252Y-92985000D02*
X106538748Y-92985000D01*
X107061252Y-91515000D02*
X106538748Y-91515000D01*
X106572936Y-93765000D02*
X107027064Y-93765000D01*
X106572936Y-95235000D02*
X107027064Y-95235000D01*
X140700000Y-81400000D02*
X132700000Y-81400000D01*
X140700000Y-89600000D02*
X132700000Y-89600000D01*
X140961252Y-97965000D02*
X140438748Y-97965000D01*
X140961252Y-99435000D02*
X140438748Y-99435000D01*
X146110000Y-109360000D02*
X143390000Y-109360000D01*
X143390000Y-109360000D02*
X143390000Y-108050000D01*
X146110000Y-104640000D02*
X146110000Y-104870000D01*
X143390000Y-105950000D02*
X143390000Y-104640000D01*
X147250000Y-109130000D02*
X146110000Y-109130000D01*
X143390000Y-104640000D02*
X146110000Y-104640000D01*
X146110000Y-109360000D02*
X146110000Y-109130000D01*
X134365000Y-76211252D02*
X134365000Y-75688748D01*
X135835000Y-76211252D02*
X135835000Y-75688748D01*
X138072936Y-72990000D02*
X138527064Y-72990000D01*
X138072936Y-74460000D02*
X138527064Y-74460000D01*
X145211252Y-102765000D02*
X144688748Y-102765000D01*
X145211252Y-104235000D02*
X144688748Y-104235000D01*
X111261252Y-95265000D02*
X110738748Y-95265000D01*
X111261252Y-96735000D02*
X110738748Y-96735000D01*
X143338748Y-93035000D02*
X143861252Y-93035000D01*
X143338748Y-91565000D02*
X143861252Y-91565000D01*
X132127064Y-91515000D02*
X131672936Y-91515000D01*
X132127064Y-92985000D02*
X131672936Y-92985000D01*
X120235000Y-109227064D02*
X120235000Y-108772936D01*
X118765000Y-109227064D02*
X118765000Y-108772936D01*
X138527064Y-72485000D02*
X138072936Y-72485000D01*
X138527064Y-71015000D02*
X138072936Y-71015000D01*
X124765000Y-109227064D02*
X124765000Y-108772936D01*
X126235000Y-109227064D02*
X126235000Y-108772936D01*
X144165000Y-79688748D02*
X144165000Y-80211252D01*
X145635000Y-79688748D02*
X145635000Y-80211252D01*
X140400000Y-93300000D02*
X136400000Y-93300000D01*
X140400000Y-97500000D02*
X136400000Y-97500000D01*
X111590000Y-71540000D02*
X108905000Y-71540000D01*
X108905000Y-73460000D02*
X111590000Y-73460000D01*
X108905000Y-71540000D02*
X108905000Y-73460000D01*
X110985000Y-114338748D02*
X110985000Y-114861252D01*
X109515000Y-114338748D02*
X109515000Y-114861252D01*
X131900000Y-79000000D02*
X133900000Y-79000000D01*
X131900000Y-79000000D02*
X131900000Y-75100000D01*
X133900000Y-79000000D02*
X133900000Y-75100000D01*
X111300000Y-103550000D02*
X115300000Y-103550000D01*
X111300000Y-100250000D02*
X111300000Y-103550000D01*
X143372936Y-89565000D02*
X143827064Y-89565000D01*
X143372936Y-91035000D02*
X143827064Y-91035000D01*
X105300000Y-112240000D02*
X107250000Y-112240000D01*
X105300000Y-117360000D02*
X108750000Y-117360000D01*
X105300000Y-112240000D02*
X103350000Y-112240000D01*
X105300000Y-117360000D02*
X103350000Y-117360000D01*
X131270000Y-94250000D02*
X131270000Y-93590000D01*
X132680000Y-93590000D02*
X131270000Y-93590000D01*
X131270000Y-95910000D02*
X131270000Y-95250000D01*
X131270000Y-95910000D02*
X133300000Y-95910000D01*
X144311252Y-82240000D02*
X142888748Y-82240000D01*
X144311252Y-84960000D02*
X142888748Y-84960000D01*
X114417064Y-71770000D02*
X113962936Y-71770000D01*
X114417064Y-73240000D02*
X113962936Y-73240000D01*
X99538748Y-115765000D02*
X100061252Y-115765000D01*
X99538748Y-117235000D02*
X100061252Y-117235000D01*
X144165000Y-76727064D02*
X144165000Y-76272936D01*
X145635000Y-76727064D02*
X145635000Y-76272936D01*
X109365000Y-102161252D02*
X109365000Y-101638748D01*
X110835000Y-102161252D02*
X110835000Y-101638748D01*
X111261252Y-84515000D02*
X110738748Y-84515000D01*
X111261252Y-85985000D02*
X110738748Y-85985000D01*
X146335000Y-96227064D02*
X146335000Y-95772936D01*
X144865000Y-96227064D02*
X144865000Y-95772936D01*
X134365000Y-79088748D02*
X134365000Y-79611252D01*
X135835000Y-79088748D02*
X135835000Y-79611252D01*
X129561252Y-79265000D02*
X129038748Y-79265000D01*
X129561252Y-80735000D02*
X129038748Y-80735000D01*
X107061252Y-90735000D02*
X106538748Y-90735000D01*
X107061252Y-89265000D02*
X106538748Y-89265000D01*
X111261252Y-82515000D02*
X110738748Y-82515000D01*
X111261252Y-83985000D02*
X110738748Y-83985000D01*
X114427064Y-77635000D02*
X113972936Y-77635000D01*
X114427064Y-76165000D02*
X113972936Y-76165000D01*
X126238748Y-84515000D02*
X126761252Y-84515000D01*
X126238748Y-85985000D02*
X126761252Y-85985000D01*
X111261252Y-97265000D02*
X110738748Y-97265000D01*
X111261252Y-98735000D02*
X110738748Y-98735000D01*
X144427064Y-87135000D02*
X143972936Y-87135000D01*
X144427064Y-85665000D02*
X143972936Y-85665000D01*
X120015000Y-101638748D02*
X120015000Y-102161252D01*
X121485000Y-101638748D02*
X121485000Y-102161252D01*
X103900000Y-68800000D02*
X101900000Y-68800000D01*
X100000000Y-68800000D02*
X98100000Y-68800000D01*
X103900000Y-78200000D02*
X101900000Y-78200000D01*
X100000000Y-78200000D02*
X98100000Y-78200000D01*
X98100000Y-68800000D02*
X98100000Y-78200000D01*
X144638748Y-100065000D02*
X145161252Y-100065000D01*
X144638748Y-101535000D02*
X145161252Y-101535000D01*
X143930000Y-72130000D02*
X141330000Y-72130000D01*
X145200000Y-69470000D02*
X146530000Y-69470000D01*
X146530000Y-69470000D02*
X146530000Y-70800000D01*
X143930000Y-69470000D02*
X141330000Y-69470000D01*
X143930000Y-69470000D02*
X143930000Y-72130000D01*
X141330000Y-69470000D02*
X141330000Y-72130000D01*
X131770000Y-110530000D02*
X139450000Y-110530000D01*
X129170000Y-105330000D02*
X139450000Y-105330000D01*
X131770000Y-110530000D02*
X131770000Y-107930000D01*
X131770000Y-107930000D02*
X129170000Y-107930000D01*
X129170000Y-107930000D02*
X129170000Y-105330000D01*
X129170000Y-110530000D02*
X129170000Y-109200000D01*
X130500000Y-110530000D02*
X129170000Y-110530000D01*
X139450000Y-110530000D02*
X139450000Y-105330000D01*
%LPC*%
D12*
X126820000Y-70835000D03*
X126820000Y-73375000D03*
X124280000Y-70835000D03*
X124280000Y-73375000D03*
X121740000Y-70835000D03*
X121740000Y-73375000D03*
X119200000Y-70835000D03*
D13*
X119200000Y-73375000D03*
D14*
X129800000Y-113000000D03*
D15*
X131800000Y-113000000D03*
X133800000Y-113000000D03*
X135800000Y-113000000D03*
X137800000Y-113000000D03*
X139800000Y-113000000D03*
X141800000Y-113000000D03*
D16*
X103250000Y-103250000D03*
D17*
X103250000Y-105250000D03*
X103250000Y-107250000D03*
X103250000Y-109250000D03*
D16*
X103200000Y-81300000D03*
D17*
X103200000Y-83300000D03*
X103200000Y-85300000D03*
X103200000Y-87300000D03*
X103200000Y-89300000D03*
D16*
X103250000Y-94250000D03*
D17*
X103250000Y-96250000D03*
X103250000Y-98250000D03*
D14*
X114900000Y-113000000D03*
D15*
X116900000Y-113000000D03*
X118900000Y-113000000D03*
X120900000Y-113000000D03*
X122900000Y-113000000D03*
X124900000Y-113000000D03*
D18*
X114650000Y-96475000D03*
X115150000Y-96475000D03*
X115650000Y-96475000D03*
X116150000Y-96475000D03*
X116650000Y-96475000D03*
X117150000Y-96475000D03*
X117650000Y-96475000D03*
X118150000Y-96475000D03*
X118650000Y-96475000D03*
X119150000Y-96475000D03*
X119650000Y-96475000D03*
X120150000Y-96475000D03*
X120650000Y-96475000D03*
X121150000Y-96475000D03*
X121650000Y-96475000D03*
X122150000Y-96475000D03*
D19*
X124075000Y-94550000D03*
X124075000Y-94050000D03*
X124075000Y-93550000D03*
X124075000Y-93050000D03*
X124075000Y-92550000D03*
X124075000Y-92050000D03*
X124075000Y-91550000D03*
X124075000Y-91050000D03*
X124075000Y-90550000D03*
X124075000Y-90050000D03*
X124075000Y-89550000D03*
X124075000Y-89050000D03*
X124075000Y-88550000D03*
X124075000Y-88050000D03*
X124075000Y-87550000D03*
X124075000Y-87050000D03*
D18*
X122150000Y-85125000D03*
X121650000Y-85125000D03*
X121150000Y-85125000D03*
X120650000Y-85125000D03*
X120150000Y-85125000D03*
X119650000Y-85125000D03*
X119150000Y-85125000D03*
X118650000Y-85125000D03*
X118150000Y-85125000D03*
X117650000Y-85125000D03*
X117150000Y-85125000D03*
X116650000Y-85125000D03*
X116150000Y-85125000D03*
X115650000Y-85125000D03*
X115150000Y-85125000D03*
X114650000Y-85125000D03*
D19*
X112725000Y-87050000D03*
X112725000Y-87550000D03*
X112725000Y-88050000D03*
X112725000Y-88550000D03*
X112725000Y-89050000D03*
X112725000Y-89550000D03*
X112725000Y-90050000D03*
X112725000Y-90550000D03*
X112725000Y-91050000D03*
X112725000Y-91550000D03*
X112725000Y-92050000D03*
X112725000Y-92550000D03*
X112725000Y-93050000D03*
X112725000Y-93550000D03*
X112725000Y-94050000D03*
X112725000Y-94550000D03*
D20*
X115125000Y-74700000D03*
X113300000Y-74700000D03*
D21*
X125800000Y-95850000D03*
X125800000Y-97750000D03*
D22*
X117500000Y-109950000D03*
X117500000Y-108050000D03*
D23*
X143987500Y-98800000D03*
X145812500Y-98800000D03*
D24*
X100500000Y-114612500D03*
X100500000Y-112787500D03*
D20*
X143812500Y-73700000D03*
X141987500Y-73700000D03*
D21*
X116550000Y-100940000D03*
X116550000Y-102840000D03*
D25*
X141550000Y-96537500D03*
X142500000Y-96537500D03*
X143450000Y-96537500D03*
X143450000Y-94262500D03*
X142500000Y-94262500D03*
X141550000Y-94262500D03*
D24*
X123500000Y-109912500D03*
X123500000Y-108087500D03*
D21*
X146500000Y-111300000D03*
X146500000Y-113200000D03*
D20*
X115100000Y-70300000D03*
X113275000Y-70300000D03*
D13*
X107825000Y-106625000D03*
D12*
X110365000Y-106625000D03*
X107825000Y-109165000D03*
X110365000Y-109165000D03*
D23*
X109687500Y-76900000D03*
X111512500Y-76900000D03*
D26*
X109687500Y-74700000D03*
X111562500Y-74700000D03*
D27*
X142550000Y-79730000D03*
X142550000Y-78460000D03*
X142550000Y-77190000D03*
X142550000Y-75920000D03*
X137250000Y-75920000D03*
X137250000Y-77190000D03*
X137250000Y-78460000D03*
X137250000Y-79730000D03*
D28*
X139900000Y-77825000D03*
D24*
X121500000Y-109912500D03*
X121500000Y-108087500D03*
D29*
X125550000Y-83250000D03*
X127450000Y-83250000D03*
D26*
X109650000Y-70300000D03*
X111525000Y-70300000D03*
D30*
X107750000Y-92250000D03*
X105850000Y-92250000D03*
D23*
X105887500Y-94500000D03*
X107712500Y-94500000D03*
D31*
X139500000Y-85500000D03*
X133900000Y-85500000D03*
D30*
X141650000Y-98700000D03*
X139750000Y-98700000D03*
D32*
X146700000Y-108500000D03*
D33*
X146612500Y-107000000D03*
D32*
X146700000Y-105500000D03*
D22*
X135100000Y-76900000D03*
X135100000Y-75000000D03*
D23*
X137387500Y-73725000D03*
X139212500Y-73725000D03*
D30*
X145900000Y-103500000D03*
X144000000Y-103500000D03*
X111950000Y-96000000D03*
X110050000Y-96000000D03*
D29*
X142650000Y-92300000D03*
X144550000Y-92300000D03*
D20*
X132812500Y-92250000D03*
X130987500Y-92250000D03*
D24*
X119500000Y-109912500D03*
X119500000Y-108087500D03*
D20*
X139212500Y-71750000D03*
X137387500Y-71750000D03*
D24*
X125500000Y-109912500D03*
X125500000Y-108087500D03*
D21*
X144900000Y-79000000D03*
X144900000Y-80900000D03*
D34*
X139800000Y-95400000D03*
X137000000Y-95400000D03*
D26*
X109652500Y-72500000D03*
X111527500Y-72500000D03*
D21*
X110250000Y-113650000D03*
X110250000Y-115550000D03*
D35*
X132900000Y-78400000D03*
X132900000Y-75100000D03*
D36*
X112200000Y-102750000D03*
X114400000Y-102750000D03*
X114400000Y-101050000D03*
X112200000Y-101050000D03*
D23*
X142687500Y-90300000D03*
X144512500Y-90300000D03*
D37*
X107775000Y-116705000D03*
X107775000Y-115435000D03*
X107775000Y-114165000D03*
X107775000Y-112895000D03*
X102825000Y-112895000D03*
X102825000Y-114165000D03*
X102825000Y-115435000D03*
X102825000Y-116705000D03*
D38*
X133000000Y-95400000D03*
X133000000Y-94100000D03*
X131000000Y-94750000D03*
D39*
X145075000Y-83600000D03*
X142125000Y-83600000D03*
D20*
X115102500Y-72505000D03*
X113277500Y-72505000D03*
D29*
X98850000Y-116500000D03*
X100750000Y-116500000D03*
D24*
X144900000Y-77412500D03*
X144900000Y-75587500D03*
D22*
X110100000Y-102850000D03*
X110100000Y-100950000D03*
D30*
X111950000Y-85250000D03*
X110050000Y-85250000D03*
D24*
X145600000Y-96912500D03*
X145600000Y-95087500D03*
D21*
X135100000Y-78400000D03*
X135100000Y-80300000D03*
D30*
X130250000Y-80000000D03*
X128350000Y-80000000D03*
X107750000Y-90000000D03*
X105850000Y-90000000D03*
X111950000Y-83250000D03*
X110050000Y-83250000D03*
D20*
X115112500Y-76900000D03*
X113287500Y-76900000D03*
D29*
X125550000Y-85250000D03*
X127450000Y-85250000D03*
D30*
X111950000Y-98000000D03*
X110050000Y-98000000D03*
D20*
X145112500Y-86400000D03*
X143287500Y-86400000D03*
D21*
X120750000Y-102850000D03*
X120750000Y-100950000D03*
D40*
X104600000Y-70610000D03*
X104600000Y-76390000D03*
D41*
X106045000Y-70250000D03*
X106045000Y-71050000D03*
D42*
X106045000Y-72250000D03*
X106045000Y-73250000D03*
X106045000Y-73750000D03*
X106045000Y-74750000D03*
D41*
X106045000Y-75950000D03*
X106045000Y-76750000D03*
X106045000Y-76750000D03*
X106045000Y-75950000D03*
D42*
X106045000Y-75250000D03*
X106045000Y-74250000D03*
X106045000Y-72750000D03*
X106045000Y-71750000D03*
D41*
X106045000Y-71050000D03*
X106045000Y-70250000D03*
D43*
X100950000Y-77820000D03*
D44*
X105130000Y-77820000D03*
X105130000Y-69180000D03*
D43*
X100950000Y-69180000D03*
D29*
X143950000Y-100800000D03*
X145850000Y-100800000D03*
D13*
X145200000Y-70800000D03*
D12*
X142660000Y-70800000D03*
D13*
X130500000Y-109200000D03*
D12*
X130500000Y-106660000D03*
X133040000Y-109200000D03*
X133040000Y-106660000D03*
X135580000Y-109200000D03*
X135580000Y-106660000D03*
X138120000Y-109200000D03*
X138120000Y-106660000D03*
M02*
