G04 #@! TF.GenerationSoftware,KiCad,Pcbnew,(6.0.7-1)-1*
G04 #@! TF.CreationDate,2022-12-05T10:56:52+01:00*
G04 #@! TF.ProjectId,ESC-logic,4553432d-6c6f-4676-9963-2e6b69636164,rev?*
G04 #@! TF.SameCoordinates,Original*
G04 #@! TF.FileFunction,Soldermask,Top*
G04 #@! TF.FilePolarity,Negative*
%FSLAX46Y46*%
G04 Gerber Fmt 4.6, Leading zero omitted, Abs format (unit mm)*
G04 Created by KiCad (PCBNEW (6.0.7-1)-1) date 2022-12-05 10:56:52*
%MOMM*%
%LPD*%
G01*
G04 APERTURE LIST*
G04 Aperture macros list*
%AMRoundRect*
0 Rectangle with rounded corners*
0 $1 Rounding radius*
0 $2 $3 $4 $5 $6 $7 $8 $9 X,Y pos of 4 corners*
0 Add a 4 corners polygon primitive as box body*
4,1,4,$2,$3,$4,$5,$6,$7,$8,$9,$2,$3,0*
0 Add four circle primitives for the rounded corners*
1,1,$1+$1,$2,$3*
1,1,$1+$1,$4,$5*
1,1,$1+$1,$6,$7*
1,1,$1+$1,$8,$9*
0 Add four rect primitives between the rounded corners*
20,1,$1+$1,$2,$3,$4,$5,0*
20,1,$1+$1,$4,$5,$6,$7,0*
20,1,$1+$1,$6,$7,$8,$9,0*
20,1,$1+$1,$8,$9,$2,$3,0*%
%AMFreePoly0*
4,1,9,3.862500,-0.866500,0.737500,-0.866500,0.737500,-0.450000,-0.737500,-0.450000,-0.737500,0.450000,0.737500,0.450000,0.737500,0.866500,3.862500,0.866500,3.862500,-0.866500,3.862500,-0.866500,$1*%
G04 Aperture macros list end*
%ADD10O,1.700000X1.700000*%
%ADD11R,1.700000X1.700000*%
%ADD12RoundRect,0.250000X-0.350000X-0.625000X0.350000X-0.625000X0.350000X0.625000X-0.350000X0.625000X0*%
%ADD13O,1.200000X1.750000*%
%ADD14RoundRect,0.250000X-0.625000X0.350000X-0.625000X-0.350000X0.625000X-0.350000X0.625000X0.350000X0*%
%ADD15O,1.750000X1.200000*%
%ADD16RoundRect,0.075000X0.075000X-0.700000X0.075000X0.700000X-0.075000X0.700000X-0.075000X-0.700000X0*%
%ADD17RoundRect,0.075000X0.700000X-0.075000X0.700000X0.075000X-0.700000X0.075000X-0.700000X-0.075000X0*%
%ADD18RoundRect,0.250000X0.262500X0.450000X-0.262500X0.450000X-0.262500X-0.450000X0.262500X-0.450000X0*%
%ADD19RoundRect,0.250000X-0.475000X0.250000X-0.475000X-0.250000X0.475000X-0.250000X0.475000X0.250000X0*%
%ADD20RoundRect,0.250000X0.475000X-0.250000X0.475000X0.250000X-0.475000X0.250000X-0.475000X-0.250000X0*%
%ADD21RoundRect,0.250000X-0.262500X-0.450000X0.262500X-0.450000X0.262500X0.450000X-0.262500X0.450000X0*%
%ADD22RoundRect,0.250000X0.450000X-0.262500X0.450000X0.262500X-0.450000X0.262500X-0.450000X-0.262500X0*%
%ADD23RoundRect,0.150000X0.150000X-0.512500X0.150000X0.512500X-0.150000X0.512500X-0.150000X-0.512500X0*%
%ADD24RoundRect,0.243750X-0.243750X-0.456250X0.243750X-0.456250X0.243750X0.456250X-0.243750X0.456250X0*%
%ADD25RoundRect,0.150000X0.650000X0.150000X-0.650000X0.150000X-0.650000X-0.150000X0.650000X-0.150000X0*%
%ADD26R,2.410000X3.100000*%
%ADD27RoundRect,0.250000X-0.250000X-0.475000X0.250000X-0.475000X0.250000X0.475000X-0.250000X0.475000X0*%
%ADD28RoundRect,0.250000X0.250000X0.475000X-0.250000X0.475000X-0.250000X-0.475000X0.250000X-0.475000X0*%
%ADD29R,1.800000X7.500000*%
%ADD30R,1.300000X0.900000*%
%ADD31FreePoly0,180.000000*%
%ADD32R,1.200000X3.700000*%
%ADD33R,1.200000X0.900000*%
%ADD34R,1.400000X1.200000*%
%ADD35RoundRect,0.150000X0.825000X0.150000X-0.825000X0.150000X-0.825000X-0.150000X0.825000X-0.150000X0*%
%ADD36R,0.700000X0.450000*%
%ADD37RoundRect,0.250000X0.325000X1.100000X-0.325000X1.100000X-0.325000X-1.100000X0.325000X-1.100000X0*%
%ADD38C,0.650000*%
%ADD39R,1.450000X0.600000*%
%ADD40R,1.450000X0.300000*%
%ADD41O,1.600000X1.000000*%
%ADD42O,2.100000X1.000000*%
G04 APERTURE END LIST*
D10*
X126820000Y-70835000D03*
X126820000Y-73375000D03*
X124280000Y-70835000D03*
X124280000Y-73375000D03*
X121740000Y-70835000D03*
X121740000Y-73375000D03*
X119200000Y-70835000D03*
D11*
X119200000Y-73375000D03*
D12*
X129800000Y-113000000D03*
D13*
X131800000Y-113000000D03*
X133800000Y-113000000D03*
X135800000Y-113000000D03*
X137800000Y-113000000D03*
X139800000Y-113000000D03*
X141800000Y-113000000D03*
D14*
X103250000Y-103250000D03*
D15*
X103250000Y-105250000D03*
X103250000Y-107250000D03*
X103250000Y-109250000D03*
D14*
X103200000Y-81300000D03*
D15*
X103200000Y-83300000D03*
X103200000Y-85300000D03*
X103200000Y-87300000D03*
X103200000Y-89300000D03*
D14*
X103250000Y-94250000D03*
D15*
X103250000Y-96250000D03*
X103250000Y-98250000D03*
D12*
X114900000Y-113000000D03*
D13*
X116900000Y-113000000D03*
X118900000Y-113000000D03*
X120900000Y-113000000D03*
X122900000Y-113000000D03*
X124900000Y-113000000D03*
D16*
X114650000Y-96475000D03*
X115150000Y-96475000D03*
X115650000Y-96475000D03*
X116150000Y-96475000D03*
X116650000Y-96475000D03*
X117150000Y-96475000D03*
X117650000Y-96475000D03*
X118150000Y-96475000D03*
X118650000Y-96475000D03*
X119150000Y-96475000D03*
X119650000Y-96475000D03*
X120150000Y-96475000D03*
X120650000Y-96475000D03*
X121150000Y-96475000D03*
X121650000Y-96475000D03*
X122150000Y-96475000D03*
D17*
X124075000Y-94550000D03*
X124075000Y-94050000D03*
X124075000Y-93550000D03*
X124075000Y-93050000D03*
X124075000Y-92550000D03*
X124075000Y-92050000D03*
X124075000Y-91550000D03*
X124075000Y-91050000D03*
X124075000Y-90550000D03*
X124075000Y-90050000D03*
X124075000Y-89550000D03*
X124075000Y-89050000D03*
X124075000Y-88550000D03*
X124075000Y-88050000D03*
X124075000Y-87550000D03*
X124075000Y-87050000D03*
D16*
X122150000Y-85125000D03*
X121650000Y-85125000D03*
X121150000Y-85125000D03*
X120650000Y-85125000D03*
X120150000Y-85125000D03*
X119650000Y-85125000D03*
X119150000Y-85125000D03*
X118650000Y-85125000D03*
X118150000Y-85125000D03*
X117650000Y-85125000D03*
X117150000Y-85125000D03*
X116650000Y-85125000D03*
X116150000Y-85125000D03*
X115650000Y-85125000D03*
X115150000Y-85125000D03*
X114650000Y-85125000D03*
D17*
X112725000Y-87050000D03*
X112725000Y-87550000D03*
X112725000Y-88050000D03*
X112725000Y-88550000D03*
X112725000Y-89050000D03*
X112725000Y-89550000D03*
X112725000Y-90050000D03*
X112725000Y-90550000D03*
X112725000Y-91050000D03*
X112725000Y-91550000D03*
X112725000Y-92050000D03*
X112725000Y-92550000D03*
X112725000Y-93050000D03*
X112725000Y-93550000D03*
X112725000Y-94050000D03*
X112725000Y-94550000D03*
D18*
X115125000Y-74700000D03*
X113300000Y-74700000D03*
D19*
X125800000Y-95850000D03*
X125800000Y-97750000D03*
D20*
X117500000Y-109950000D03*
X117500000Y-108050000D03*
D21*
X143987500Y-98800000D03*
X145812500Y-98800000D03*
D22*
X100500000Y-114612500D03*
X100500000Y-112787500D03*
D18*
X143812500Y-73700000D03*
X141987500Y-73700000D03*
D19*
X116550000Y-100940000D03*
X116550000Y-102840000D03*
D23*
X141550000Y-96537500D03*
X142500000Y-96537500D03*
X143450000Y-96537500D03*
X143450000Y-94262500D03*
X142500000Y-94262500D03*
X141550000Y-94262500D03*
D22*
X123500000Y-109912500D03*
X123500000Y-108087500D03*
D19*
X146500000Y-111300000D03*
X146500000Y-113200000D03*
D18*
X115100000Y-70300000D03*
X113275000Y-70300000D03*
D11*
X107825000Y-106625000D03*
D10*
X110365000Y-106625000D03*
X107825000Y-109165000D03*
X110365000Y-109165000D03*
D21*
X109687500Y-76900000D03*
X111512500Y-76900000D03*
D24*
X109687500Y-74700000D03*
X111562500Y-74700000D03*
D25*
X142550000Y-79730000D03*
X142550000Y-78460000D03*
X142550000Y-77190000D03*
X142550000Y-75920000D03*
X137250000Y-75920000D03*
X137250000Y-77190000D03*
X137250000Y-78460000D03*
X137250000Y-79730000D03*
D26*
X139900000Y-77825000D03*
D22*
X121500000Y-109912500D03*
X121500000Y-108087500D03*
D27*
X125550000Y-83250000D03*
X127450000Y-83250000D03*
D24*
X109650000Y-70300000D03*
X111525000Y-70300000D03*
D28*
X107750000Y-92250000D03*
X105850000Y-92250000D03*
D21*
X105887500Y-94500000D03*
X107712500Y-94500000D03*
D29*
X139500000Y-85500000D03*
X133900000Y-85500000D03*
D28*
X141650000Y-98700000D03*
X139750000Y-98700000D03*
D30*
X146700000Y-108500000D03*
D31*
X146612500Y-107000000D03*
D30*
X146700000Y-105500000D03*
D20*
X135100000Y-76900000D03*
X135100000Y-75000000D03*
D21*
X137387500Y-73725000D03*
X139212500Y-73725000D03*
D28*
X145900000Y-103500000D03*
X144000000Y-103500000D03*
X111950000Y-96000000D03*
X110050000Y-96000000D03*
D27*
X142650000Y-92300000D03*
X144550000Y-92300000D03*
D18*
X132812500Y-92250000D03*
X130987500Y-92250000D03*
D22*
X119500000Y-109912500D03*
X119500000Y-108087500D03*
D18*
X139212500Y-71750000D03*
X137387500Y-71750000D03*
D22*
X125500000Y-109912500D03*
X125500000Y-108087500D03*
D19*
X144900000Y-79000000D03*
X144900000Y-80900000D03*
D32*
X139800000Y-95400000D03*
X137000000Y-95400000D03*
D24*
X109652500Y-72500000D03*
X111527500Y-72500000D03*
D19*
X110250000Y-113650000D03*
X110250000Y-115550000D03*
D33*
X132900000Y-78400000D03*
X132900000Y-75100000D03*
D34*
X112200000Y-102750000D03*
X114400000Y-102750000D03*
X114400000Y-101050000D03*
X112200000Y-101050000D03*
D21*
X142687500Y-90300000D03*
X144512500Y-90300000D03*
D35*
X107775000Y-116705000D03*
X107775000Y-115435000D03*
X107775000Y-114165000D03*
X107775000Y-112895000D03*
X102825000Y-112895000D03*
X102825000Y-114165000D03*
X102825000Y-115435000D03*
X102825000Y-116705000D03*
D36*
X133000000Y-95400000D03*
X133000000Y-94100000D03*
X131000000Y-94750000D03*
D37*
X145075000Y-83600000D03*
X142125000Y-83600000D03*
D18*
X115102500Y-72505000D03*
X113277500Y-72505000D03*
D27*
X98850000Y-116500000D03*
X100750000Y-116500000D03*
D22*
X144900000Y-77412500D03*
X144900000Y-75587500D03*
D20*
X110100000Y-102850000D03*
X110100000Y-100950000D03*
D28*
X111950000Y-85250000D03*
X110050000Y-85250000D03*
D22*
X145600000Y-96912500D03*
X145600000Y-95087500D03*
D19*
X135100000Y-78400000D03*
X135100000Y-80300000D03*
D28*
X130250000Y-80000000D03*
X128350000Y-80000000D03*
X107750000Y-90000000D03*
X105850000Y-90000000D03*
X111950000Y-83250000D03*
X110050000Y-83250000D03*
D18*
X115112500Y-76900000D03*
X113287500Y-76900000D03*
D27*
X125550000Y-85250000D03*
X127450000Y-85250000D03*
D28*
X111950000Y-98000000D03*
X110050000Y-98000000D03*
D18*
X145112500Y-86400000D03*
X143287500Y-86400000D03*
D19*
X120750000Y-102850000D03*
X120750000Y-100950000D03*
D38*
X104600000Y-70610000D03*
X104600000Y-76390000D03*
D39*
X106045000Y-70250000D03*
X106045000Y-71050000D03*
D40*
X106045000Y-72250000D03*
X106045000Y-73250000D03*
X106045000Y-73750000D03*
X106045000Y-74750000D03*
D39*
X106045000Y-75950000D03*
X106045000Y-76750000D03*
X106045000Y-76750000D03*
X106045000Y-75950000D03*
D40*
X106045000Y-75250000D03*
X106045000Y-74250000D03*
X106045000Y-72750000D03*
X106045000Y-71750000D03*
D39*
X106045000Y-71050000D03*
X106045000Y-70250000D03*
D41*
X100950000Y-77820000D03*
D42*
X105130000Y-77820000D03*
X105130000Y-69180000D03*
D41*
X100950000Y-69180000D03*
D27*
X143950000Y-100800000D03*
X145850000Y-100800000D03*
D11*
X145200000Y-70800000D03*
D10*
X142660000Y-70800000D03*
D11*
X130500000Y-109200000D03*
D10*
X130500000Y-106660000D03*
X133040000Y-109200000D03*
X133040000Y-106660000D03*
X135580000Y-109200000D03*
X135580000Y-106660000D03*
X138120000Y-109200000D03*
X138120000Y-106660000D03*
M02*
