%TF.GenerationSoftware,KiCad,Pcbnew,(6.0.7-1)-1*%
%TF.CreationDate,2022-12-09T20:13:03+01:00*%
%TF.ProjectId,ESC-logic,4553432d-6c6f-4676-9963-2e6b69636164,rev?*%
%TF.SameCoordinates,Original*%
%TF.FileFunction,Drillmap*%
%TF.FilePolarity,Positive*%
%FSLAX45Y45*%
G04 Gerber Fmt 4.5, Leading zero omitted, Abs format (unit mm)*
G04 Created by KiCad (PCBNEW (6.0.7-1)-1) date 2022-12-09 20:13:03*
%MOMM*%
%LPD*%
G01*
G04 APERTURE LIST*
%ADD10C,0.100000*%
%ADD11C,0.200000*%
%ADD12C,0.065000*%
G04 APERTURE END LIST*
D10*
X9800000Y-6800000D02*
X14800000Y-6800000D01*
X14800000Y-6800000D02*
X14800000Y-11800000D01*
X14800000Y-11800000D02*
X9800000Y-11800000D01*
X9800000Y-11800000D02*
X9800000Y-6800000D01*
D11*
D12*
X10427500Y-7028500D02*
X10492500Y-7093500D01*
X10492500Y-7028500D02*
X10427500Y-7093500D01*
X10427500Y-7606500D02*
X10492500Y-7671500D01*
X10492500Y-7606500D02*
X10427500Y-7671500D01*
D11*
X10052619Y-12115476D02*
X10052619Y-11915476D01*
X10100238Y-11915476D01*
X10128810Y-11925000D01*
X10147857Y-11944048D01*
X10157381Y-11963095D01*
X10166905Y-12001190D01*
X10166905Y-12029762D01*
X10157381Y-12067857D01*
X10147857Y-12086905D01*
X10128810Y-12105952D01*
X10100238Y-12115476D01*
X10052619Y-12115476D01*
X10252619Y-12115476D02*
X10252619Y-11982143D01*
X10252619Y-12020238D02*
X10262143Y-12001190D01*
X10271667Y-11991667D01*
X10290714Y-11982143D01*
X10309762Y-11982143D01*
X10376429Y-12115476D02*
X10376429Y-11982143D01*
X10376429Y-11915476D02*
X10366905Y-11925000D01*
X10376429Y-11934524D01*
X10385952Y-11925000D01*
X10376429Y-11915476D01*
X10376429Y-11934524D01*
X10500238Y-12115476D02*
X10481190Y-12105952D01*
X10471667Y-12086905D01*
X10471667Y-11915476D01*
X10605000Y-12115476D02*
X10585952Y-12105952D01*
X10576429Y-12086905D01*
X10576429Y-11915476D01*
X10833571Y-12115476D02*
X10833571Y-11915476D01*
X10900238Y-12058333D01*
X10966905Y-11915476D01*
X10966905Y-12115476D01*
X11147857Y-12115476D02*
X11147857Y-12010714D01*
X11138333Y-11991667D01*
X11119286Y-11982143D01*
X11081190Y-11982143D01*
X11062143Y-11991667D01*
X11147857Y-12105952D02*
X11128810Y-12115476D01*
X11081190Y-12115476D01*
X11062143Y-12105952D01*
X11052619Y-12086905D01*
X11052619Y-12067857D01*
X11062143Y-12048809D01*
X11081190Y-12039286D01*
X11128810Y-12039286D01*
X11147857Y-12029762D01*
X11243095Y-11982143D02*
X11243095Y-12182143D01*
X11243095Y-11991667D02*
X11262143Y-11982143D01*
X11300238Y-11982143D01*
X11319286Y-11991667D01*
X11328809Y-12001190D01*
X11338333Y-12020238D01*
X11338333Y-12077381D01*
X11328809Y-12096428D01*
X11319286Y-12105952D01*
X11300238Y-12115476D01*
X11262143Y-12115476D01*
X11243095Y-12105952D01*
X11424048Y-12096428D02*
X11433571Y-12105952D01*
X11424048Y-12115476D01*
X11414524Y-12105952D01*
X11424048Y-12096428D01*
X11424048Y-12115476D01*
X11424048Y-11991667D02*
X11433571Y-12001190D01*
X11424048Y-12010714D01*
X11414524Y-12001190D01*
X11424048Y-11991667D01*
X11424048Y-12010714D01*
D12*
X9730000Y-12412500D02*
X9795000Y-12477500D01*
X9795000Y-12412500D02*
X9730000Y-12477500D01*
D11*
X10090714Y-12335476D02*
X10109762Y-12335476D01*
X10128810Y-12345000D01*
X10138333Y-12354524D01*
X10147857Y-12373571D01*
X10157381Y-12411667D01*
X10157381Y-12459286D01*
X10147857Y-12497381D01*
X10138333Y-12516428D01*
X10128810Y-12525952D01*
X10109762Y-12535476D01*
X10090714Y-12535476D01*
X10071667Y-12525952D01*
X10062143Y-12516428D01*
X10052619Y-12497381D01*
X10043095Y-12459286D01*
X10043095Y-12411667D01*
X10052619Y-12373571D01*
X10062143Y-12354524D01*
X10071667Y-12345000D01*
X10090714Y-12335476D01*
X10243095Y-12516428D02*
X10252619Y-12525952D01*
X10243095Y-12535476D01*
X10233571Y-12525952D01*
X10243095Y-12516428D01*
X10243095Y-12535476D01*
X10424048Y-12335476D02*
X10385952Y-12335476D01*
X10366905Y-12345000D01*
X10357381Y-12354524D01*
X10338333Y-12383095D01*
X10328810Y-12421190D01*
X10328810Y-12497381D01*
X10338333Y-12516428D01*
X10347857Y-12525952D01*
X10366905Y-12535476D01*
X10405000Y-12535476D01*
X10424048Y-12525952D01*
X10433571Y-12516428D01*
X10443095Y-12497381D01*
X10443095Y-12449762D01*
X10433571Y-12430714D01*
X10424048Y-12421190D01*
X10405000Y-12411667D01*
X10366905Y-12411667D01*
X10347857Y-12421190D01*
X10338333Y-12430714D01*
X10328810Y-12449762D01*
X10624048Y-12335476D02*
X10528810Y-12335476D01*
X10519286Y-12430714D01*
X10528810Y-12421190D01*
X10547857Y-12411667D01*
X10595476Y-12411667D01*
X10614524Y-12421190D01*
X10624048Y-12430714D01*
X10633571Y-12449762D01*
X10633571Y-12497381D01*
X10624048Y-12516428D01*
X10614524Y-12525952D01*
X10595476Y-12535476D01*
X10547857Y-12535476D01*
X10528810Y-12525952D01*
X10519286Y-12516428D01*
X10757381Y-12335476D02*
X10776429Y-12335476D01*
X10795476Y-12345000D01*
X10805000Y-12354524D01*
X10814524Y-12373571D01*
X10824048Y-12411667D01*
X10824048Y-12459286D01*
X10814524Y-12497381D01*
X10805000Y-12516428D01*
X10795476Y-12525952D01*
X10776429Y-12535476D01*
X10757381Y-12535476D01*
X10738333Y-12525952D01*
X10728810Y-12516428D01*
X10719286Y-12497381D01*
X10709762Y-12459286D01*
X10709762Y-12411667D01*
X10719286Y-12373571D01*
X10728810Y-12354524D01*
X10738333Y-12345000D01*
X10757381Y-12335476D01*
X10909762Y-12535476D02*
X10909762Y-12402143D01*
X10909762Y-12421190D02*
X10919286Y-12411667D01*
X10938333Y-12402143D01*
X10966905Y-12402143D01*
X10985952Y-12411667D01*
X10995476Y-12430714D01*
X10995476Y-12535476D01*
X10995476Y-12430714D02*
X11005000Y-12411667D01*
X11024048Y-12402143D01*
X11052619Y-12402143D01*
X11071667Y-12411667D01*
X11081190Y-12430714D01*
X11081190Y-12535476D01*
X11176429Y-12535476D02*
X11176429Y-12402143D01*
X11176429Y-12421190D02*
X11185952Y-12411667D01*
X11205000Y-12402143D01*
X11233571Y-12402143D01*
X11252619Y-12411667D01*
X11262143Y-12430714D01*
X11262143Y-12535476D01*
X11262143Y-12430714D02*
X11271667Y-12411667D01*
X11290714Y-12402143D01*
X11319286Y-12402143D01*
X11338333Y-12411667D01*
X11347857Y-12430714D01*
X11347857Y-12535476D01*
X11738333Y-12325952D02*
X11566905Y-12583095D01*
X11995476Y-12335476D02*
X12014524Y-12335476D01*
X12033571Y-12345000D01*
X12043095Y-12354524D01*
X12052619Y-12373571D01*
X12062143Y-12411667D01*
X12062143Y-12459286D01*
X12052619Y-12497381D01*
X12043095Y-12516428D01*
X12033571Y-12525952D01*
X12014524Y-12535476D01*
X11995476Y-12535476D01*
X11976428Y-12525952D01*
X11966905Y-12516428D01*
X11957381Y-12497381D01*
X11947857Y-12459286D01*
X11947857Y-12411667D01*
X11957381Y-12373571D01*
X11966905Y-12354524D01*
X11976428Y-12345000D01*
X11995476Y-12335476D01*
X12147857Y-12516428D02*
X12157381Y-12525952D01*
X12147857Y-12535476D01*
X12138333Y-12525952D01*
X12147857Y-12516428D01*
X12147857Y-12535476D01*
X12281190Y-12335476D02*
X12300238Y-12335476D01*
X12319286Y-12345000D01*
X12328809Y-12354524D01*
X12338333Y-12373571D01*
X12347857Y-12411667D01*
X12347857Y-12459286D01*
X12338333Y-12497381D01*
X12328809Y-12516428D01*
X12319286Y-12525952D01*
X12300238Y-12535476D01*
X12281190Y-12535476D01*
X12262143Y-12525952D01*
X12252619Y-12516428D01*
X12243095Y-12497381D01*
X12233571Y-12459286D01*
X12233571Y-12411667D01*
X12243095Y-12373571D01*
X12252619Y-12354524D01*
X12262143Y-12345000D01*
X12281190Y-12335476D01*
X12424048Y-12354524D02*
X12433571Y-12345000D01*
X12452619Y-12335476D01*
X12500238Y-12335476D01*
X12519286Y-12345000D01*
X12528809Y-12354524D01*
X12538333Y-12373571D01*
X12538333Y-12392619D01*
X12528809Y-12421190D01*
X12414524Y-12535476D01*
X12538333Y-12535476D01*
X12719286Y-12335476D02*
X12624048Y-12335476D01*
X12614524Y-12430714D01*
X12624048Y-12421190D01*
X12643095Y-12411667D01*
X12690714Y-12411667D01*
X12709762Y-12421190D01*
X12719286Y-12430714D01*
X12728809Y-12449762D01*
X12728809Y-12497381D01*
X12719286Y-12516428D01*
X12709762Y-12525952D01*
X12690714Y-12535476D01*
X12643095Y-12535476D01*
X12624048Y-12525952D01*
X12614524Y-12516428D01*
X12900238Y-12335476D02*
X12862143Y-12335476D01*
X12843095Y-12345000D01*
X12833571Y-12354524D01*
X12814524Y-12383095D01*
X12805000Y-12421190D01*
X12805000Y-12497381D01*
X12814524Y-12516428D01*
X12824048Y-12525952D01*
X12843095Y-12535476D01*
X12881190Y-12535476D01*
X12900238Y-12525952D01*
X12909762Y-12516428D01*
X12919286Y-12497381D01*
X12919286Y-12449762D01*
X12909762Y-12430714D01*
X12900238Y-12421190D01*
X12881190Y-12411667D01*
X12843095Y-12411667D01*
X12824048Y-12421190D01*
X12814524Y-12430714D01*
X12805000Y-12449762D01*
X12995476Y-12335476D02*
X12995476Y-12373571D01*
X13071667Y-12335476D02*
X13071667Y-12373571D01*
X13366905Y-12611667D02*
X13357381Y-12602143D01*
X13338333Y-12573571D01*
X13328809Y-12554524D01*
X13319286Y-12525952D01*
X13309762Y-12478333D01*
X13309762Y-12440238D01*
X13319286Y-12392619D01*
X13328809Y-12364048D01*
X13338333Y-12345000D01*
X13357381Y-12316428D01*
X13366905Y-12306905D01*
X13433571Y-12354524D02*
X13443095Y-12345000D01*
X13462143Y-12335476D01*
X13509762Y-12335476D01*
X13528809Y-12345000D01*
X13538333Y-12354524D01*
X13547857Y-12373571D01*
X13547857Y-12392619D01*
X13538333Y-12421190D01*
X13424048Y-12535476D01*
X13547857Y-12535476D01*
X13785952Y-12535476D02*
X13785952Y-12335476D01*
X13871667Y-12535476D02*
X13871667Y-12430714D01*
X13862143Y-12411667D01*
X13843095Y-12402143D01*
X13814524Y-12402143D01*
X13795476Y-12411667D01*
X13785952Y-12421190D01*
X13995476Y-12535476D02*
X13976428Y-12525952D01*
X13966905Y-12516428D01*
X13957381Y-12497381D01*
X13957381Y-12440238D01*
X13966905Y-12421190D01*
X13976428Y-12411667D01*
X13995476Y-12402143D01*
X14024048Y-12402143D01*
X14043095Y-12411667D01*
X14052619Y-12421190D01*
X14062143Y-12440238D01*
X14062143Y-12497381D01*
X14052619Y-12516428D01*
X14043095Y-12525952D01*
X14024048Y-12535476D01*
X13995476Y-12535476D01*
X14176428Y-12535476D02*
X14157381Y-12525952D01*
X14147857Y-12506905D01*
X14147857Y-12335476D01*
X14328809Y-12525952D02*
X14309762Y-12535476D01*
X14271667Y-12535476D01*
X14252619Y-12525952D01*
X14243095Y-12506905D01*
X14243095Y-12430714D01*
X14252619Y-12411667D01*
X14271667Y-12402143D01*
X14309762Y-12402143D01*
X14328809Y-12411667D01*
X14338333Y-12430714D01*
X14338333Y-12449762D01*
X14243095Y-12468809D01*
X14414524Y-12525952D02*
X14433571Y-12535476D01*
X14471667Y-12535476D01*
X14490714Y-12525952D01*
X14500238Y-12506905D01*
X14500238Y-12497381D01*
X14490714Y-12478333D01*
X14471667Y-12468809D01*
X14443095Y-12468809D01*
X14424048Y-12459286D01*
X14414524Y-12440238D01*
X14414524Y-12430714D01*
X14424048Y-12411667D01*
X14443095Y-12402143D01*
X14471667Y-12402143D01*
X14490714Y-12411667D01*
X14566905Y-12611667D02*
X14576428Y-12602143D01*
X14595476Y-12573571D01*
X14605000Y-12554524D01*
X14614524Y-12525952D01*
X14624048Y-12478333D01*
X14624048Y-12440238D01*
X14614524Y-12392619D01*
X14605000Y-12364048D01*
X14595476Y-12345000D01*
X14576428Y-12316428D01*
X14566905Y-12306905D01*
X14928809Y-12611667D02*
X14919286Y-12602143D01*
X14900238Y-12573571D01*
X14890714Y-12554524D01*
X14881190Y-12525952D01*
X14871667Y-12478333D01*
X14871667Y-12440238D01*
X14881190Y-12392619D01*
X14890714Y-12364048D01*
X14900238Y-12345000D01*
X14919286Y-12316428D01*
X14928809Y-12306905D01*
X15005000Y-12402143D02*
X15005000Y-12535476D01*
X15005000Y-12421190D02*
X15014524Y-12411667D01*
X15033571Y-12402143D01*
X15062143Y-12402143D01*
X15081190Y-12411667D01*
X15090714Y-12430714D01*
X15090714Y-12535476D01*
X15214524Y-12535476D02*
X15195476Y-12525952D01*
X15185952Y-12516428D01*
X15176428Y-12497381D01*
X15176428Y-12440238D01*
X15185952Y-12421190D01*
X15195476Y-12411667D01*
X15214524Y-12402143D01*
X15243095Y-12402143D01*
X15262143Y-12411667D01*
X15271667Y-12421190D01*
X15281190Y-12440238D01*
X15281190Y-12497381D01*
X15271667Y-12516428D01*
X15262143Y-12525952D01*
X15243095Y-12535476D01*
X15214524Y-12535476D01*
X15338333Y-12402143D02*
X15414524Y-12402143D01*
X15366905Y-12335476D02*
X15366905Y-12506905D01*
X15376428Y-12525952D01*
X15395476Y-12535476D01*
X15414524Y-12535476D01*
X15633571Y-12402143D02*
X15633571Y-12602143D01*
X15633571Y-12411667D02*
X15652619Y-12402143D01*
X15690714Y-12402143D01*
X15709762Y-12411667D01*
X15719286Y-12421190D01*
X15728809Y-12440238D01*
X15728809Y-12497381D01*
X15719286Y-12516428D01*
X15709762Y-12525952D01*
X15690714Y-12535476D01*
X15652619Y-12535476D01*
X15633571Y-12525952D01*
X15843095Y-12535476D02*
X15824048Y-12525952D01*
X15814524Y-12506905D01*
X15814524Y-12335476D01*
X16005000Y-12535476D02*
X16005000Y-12430714D01*
X15995476Y-12411667D01*
X15976428Y-12402143D01*
X15938333Y-12402143D01*
X15919286Y-12411667D01*
X16005000Y-12525952D02*
X15985952Y-12535476D01*
X15938333Y-12535476D01*
X15919286Y-12525952D01*
X15909762Y-12506905D01*
X15909762Y-12487857D01*
X15919286Y-12468809D01*
X15938333Y-12459286D01*
X15985952Y-12459286D01*
X16005000Y-12449762D01*
X16071667Y-12402143D02*
X16147857Y-12402143D01*
X16100238Y-12335476D02*
X16100238Y-12506905D01*
X16109762Y-12525952D01*
X16128809Y-12535476D01*
X16147857Y-12535476D01*
X16290714Y-12525952D02*
X16271667Y-12535476D01*
X16233571Y-12535476D01*
X16214524Y-12525952D01*
X16205000Y-12506905D01*
X16205000Y-12430714D01*
X16214524Y-12411667D01*
X16233571Y-12402143D01*
X16271667Y-12402143D01*
X16290714Y-12411667D01*
X16300238Y-12430714D01*
X16300238Y-12449762D01*
X16205000Y-12468809D01*
X16471667Y-12535476D02*
X16471667Y-12335476D01*
X16471667Y-12525952D02*
X16452619Y-12535476D01*
X16414524Y-12535476D01*
X16395476Y-12525952D01*
X16385952Y-12516428D01*
X16376428Y-12497381D01*
X16376428Y-12440238D01*
X16385952Y-12421190D01*
X16395476Y-12411667D01*
X16414524Y-12402143D01*
X16452619Y-12402143D01*
X16471667Y-12411667D01*
X16547857Y-12611667D02*
X16557381Y-12602143D01*
X16576428Y-12573571D01*
X16585952Y-12554524D01*
X16595476Y-12525952D01*
X16605000Y-12478333D01*
X16605000Y-12440238D01*
X16595476Y-12392619D01*
X16585952Y-12364048D01*
X16576428Y-12345000D01*
X16557381Y-12316428D01*
X16547857Y-12306905D01*
M02*
